<?xml version="1.0" encoding="UTF-8"?> <svg xmlns="http://www.w3.org/2000/svg" xmlns:xlink="http://www.w3.org/1999/xlink" width="188px" height="146px" viewBox="0 0 188 146"><!-- Generator: Sketch 52.6 (67491) - http://www.bohemiancoding.com/sketch --><title>04-bg</title><desc>Created with Sketch.</desc><defs><linearGradient x1="-9.05024879%" y1="-10.2892341%" x2="50%" y2="111.203462%" id="linearGradient-1"><stop stop-color="#1E9EAC" offset="0%"></stop><stop stop-color="#86D39C" offset="100%"></stop></linearGradient><path d="M64.5003057,44.6062644 L80.5003057,53.8463795 C81.4283367,54.382324 82,55.3726085 82,56.4442791 L82,74.9259216 C82,75.9975923 81.4283367,76.9878767 80.5003057,77.5238213 L64.5003057,86.7639364 C63.5719471,87.3000702 62.4280529,87.3000702 61.4996943,86.7639364 L45.4996943,77.5238213 C44.5716633,76.9878767 44,75.9975923 44,74.9259216 L44,56.4442791 C44,55.3726085 44.5716633,54.382324 45.4996943,53.8463795 L61.4996943,44.6062644 C62.4280529,44.0701306 63.5719471,44.0701306 64.5003057,44.6062644 Z" id="path-2"></path><filter x="-64.5%" y="-61.7%" width="228.9%" height="233.6%" id="filter-3"><feMorphology radius="2.5" operator="dilate" in="SourceAlpha" result="shadowSpreadOuter1"></feMorphology><feOffset dx="0" dy="2" in="shadowSpreadOuter1" result="shadowOffsetOuter1"></feOffset><feGaussianBlur stdDeviation="7" in="shadowOffsetOuter1" result="shadowBlurOuter1"></feGaussianBlur><feComposite in="shadowBlurOuter1" in2="SourceAlpha" operator="out" result="shadowBlurOuter1"></feComposite><feColorMatrix values="0 0 0 0 0.376470588 0 0 0 0 0.752941176 0 0 0 0 0.631372549 0 0 0 1 0" type="matrix" in="shadowBlurOuter1"></feColorMatrix></filter></defs><g id="Home" stroke="none" stroke-width="1" fill="none" fill-rule="evenodd"><g id="Technology-Template" transform="translate(-1180.000000, -1761.000000)"><g id="04-bg" transform="translate(1180.000000, 1769.000000)"><path d="M12.140001,19.8 C19.94004,9.9599508 31.4599248,5.04 46.700001,5.04 C61.9400772,5.04 73.4299623,9.9599508 81.170001,19.8 C88.9100397,29.6400492 92.780001,45.4498911 92.780001,67.23 C92.780001,89.0101089 88.9400394,104.609953 81.260001,114.03 C73.5799626,123.450047 62.0600778,128.16 46.700001,128.16 C31.3399242,128.16 19.8200394,123.450047 12.140001,114.03 C4.4599626,104.609953 0.620001,89.0101089 0.620001,67.23 C0.620001,45.4498911 4.4599626,29.6400492 12.140001,19.8 Z M67.220001,66.78 C67.220001,51.8999256 65.6600166,41.4900297 62.540001,35.55 C59.4199854,29.6099703 54.1700379,26.64 46.790001,26.64 C39.4099641,26.64 34.1300169,29.63997 30.950001,35.64 C27.7699851,41.64003 26.180001,52.0199262 26.180001,66.78 C26.180001,81.5400738 27.7999848,91.8599706 31.040001,97.74 C34.2800172,103.620029 39.5599644,106.56 46.880001,106.56 C54.2000376,106.56 59.4199854,103.620029 62.540001,97.74 C65.6600166,91.8599706 67.220001,81.5400738 67.220001,66.78 Z M151.1,126 L151.1,106.38 L100.7,106.38 L100.7,87.48 L130.04,7.2 L157.4,7.2 L125.54,84.78 L151.1,84.78 L151.1,51.48 L175.94,51.48 L175.94,84.78 L187.28,84.78 L187.28,106.38 L175.94,106.38 L175.94,126 L151.1,126 Z" id="04" fill="#222328" opacity="0.05"></path><g id="Group-19-Copy-3" transform="translate(31.000000, 0.000000)"><g id="Ornament-1-Line-Copy"><use fill="black" fill-opacity="1" filter="url(#filter-3)" xlink:href="#path-2"></use><use stroke="url(#linearGradient-1)" stroke-width="5" fill="#FFFFFF" fill-rule="evenodd" xlink:href="#path-2"></use></g><path d="M64.9960357,25.1064813 L96.4960357,43.2545936 C98.0452747,44.1471576 99,45.799044 99,47.587007 L99,83.8649312 C99,85.6528942 98.0452747,87.3047806 96.4960357,88.1973446 L64.9960357,106.345457 C63.4510465,107.235572 61.5489535,107.235572 60.0039643,106.345457 L28.5039643,88.1973446 C26.9547253,87.3047806 26,85.6528942 26,83.8649312 L26,47.587007 C26,45.799044 26.9547253,44.1471576 28.5039643,43.2545936 L60.0039643,25.1064813 C61.5489535,24.2163658 63.4510465,24.2163658 64.9960357,25.1064813 Z" id="Ornament-1-Line-Copy" stroke="url(#linearGradient-1)"></path><path d="M64.9983552,9.5595781 L109.498355,35.2291343 C111.046287,36.1220497 112,37.7732041 112,39.5602106 L112,90.8917276 C112,92.6787341 111.046287,94.3298885 109.498355,95.2228039 L64.9983552,120.89236 C63.452186,121.784258 61.547814,121.784258 60.0016448,120.89236 L15.5016448,95.2228039 C13.9537126,94.3298885 13,92.6787341 13,90.8917276 L13,39.5602106 C13,37.7732041 13.9537126,36.1220497 15.5016448,35.2291343 L60.0016448,9.5595781 C61.547814,8.66767976 63.452186,8.66767976 64.9983552,9.5595781 Z" id="Ornament-1-Line-Copy" stroke="url(#linearGradient-1)"></path><path d="M65.0141504,-6.02648182 L122.51415,27.42241 C124.053176,28.317692 125,29.9638502 125,31.7443364 L125,98.7076019 C125,100.488088 124.053176,102.134246 122.51415,103.029528 L65.0141504,136.47842 C63.4599691,137.382518 61.5400309,137.382518 59.9858496,136.47842 L2.4858496,103.029528 C0.946823565,102.134246 3.51602811e-14,100.488088 3.01980663e-14,98.7076019 L-7.10542736e-15,31.7443364 C-9.69555811e-15,29.9638502 0.946823565,28.317692 2.4858496,27.42241 L59.9858496,-6.02648182 C61.5400309,-6.93057997 63.4599691,-6.93057997 65.0141504,-6.02648182 Z" id="Ornament-1-Line-Copy" stroke="url(#linearGradient-1)"></path></g></g></g></g></svg> 