<?xml version="1.0" encoding="UTF-8"?> <svg xmlns="http://www.w3.org/2000/svg" xmlns:xlink="http://www.w3.org/1999/xlink" width="826px" height="650px" viewBox="0 0 826 650"><!-- Generator: Sketch 52.5 (67469) - http://www.bohemiancoding.com/sketch --><title>2nd Section Illustration</title><desc>Created with Sketch.</desc><defs><linearGradient x1="50%" y1="29.2924249%" x2="50%" y2="147.26389%" id="linearGradient-1"><stop stop-color="#37CFE9" stop-opacity="0" offset="0%"></stop><stop stop-color="#43D2EA" stop-opacity="0.133746603" offset="52.2811754%"></stop><stop stop-color="#4ED5EC" offset="100%"></stop></linearGradient><linearGradient x1="50%" y1="6.84957977%" x2="50%" y2="147.26389%" id="linearGradient-2"><stop stop-color="#37CFE9" stop-opacity="0" offset="0%"></stop><stop stop-color="#43D2EA" stop-opacity="0.133746603" offset="44.176098%"></stop><stop stop-color="#4ED5EC" offset="100%"></stop></linearGradient><linearGradient x1="113.153674%" y1="0%" x2="-24.5716445%" y2="140.05799%" id="linearGradient-3"><stop stop-color="#7ECC79" offset="0%"></stop><stop stop-color="#33BAAA" offset="100%"></stop></linearGradient><radialGradient cx="82.0106491%" cy="26.2375409%" fx="82.0106491%" fy="26.2375409%" r="90.6467546%" gradientTransform="translate(0.820106,0.262375),scale(0.999255,1.000000),rotate(137.437524),translate(-0.820106,-0.262375)" id="radialGradient-4"><stop stop-color="#7ECC79" offset="0%"></stop><stop stop-color="#26A091" offset="100%"></stop></radialGradient><radialGradient cx="82.0106491%" cy="26.2375409%" fx="82.0106491%" fy="26.2375409%" r="90.6467546%" gradientTransform="translate(0.820106,0.262375),scale(0.999255,1.000000),rotate(137.437524),translate(-0.820106,-0.262375)" id="radialGradient-5"><stop stop-color="#7ECC79" offset="0%"></stop><stop stop-color="#26A091" offset="100%"></stop></radialGradient><linearGradient x1="2.88529403%" y1="95.9689527%" x2="98.5564819%" y2="0%" id="linearGradient-6"><stop stop-color="#54BC4C" offset="0%"></stop><stop stop-color="#4BBB65" offset="26.6711251%"></stop><stop stop-color="#33BAAA" offset="100%"></stop></linearGradient><linearGradient x1="50%" y1="-24.2748629%" x2="50%" y2="100%" id="linearGradient-7"><stop stop-color="#0F6C7D" offset="0%"></stop><stop stop-color="#237E74" offset="100%"></stop></linearGradient><linearGradient x1="50%" y1="0%" x2="50%" y2="100%" id="linearGradient-8"><stop stop-color="#52C296" offset="0%"></stop><stop stop-color="#237E74" offset="100%"></stop></linearGradient><linearGradient x1="50%" y1="0%" x2="50%" y2="100%" id="linearGradient-9"><stop stop-color="#0F6C7D" offset="0%"></stop><stop stop-color="#237E74" offset="100%"></stop></linearGradient><linearGradient x1="93.7966659%" y1="30.8558874%" x2="5.7438413%" y2="30.8558881%" id="linearGradient-10"><stop stop-color="#8DE5A3" stop-opacity="0.629047781" offset="0%"></stop><stop stop-color="#146866" offset="100%"></stop></linearGradient><path d="M293.329811,54.9723757 L0.441579404,54.9723757 C2.03528265,43.8783188 5.32495047,33.0231463 10.2585402,22.8010565 L21.2632428,0 L272.508148,0 L283.51285,22.8010565 C288.44644,33.0231463 291.736108,43.8783188 293.329811,54.9723757 Z" id="path-11"></path><path d="M102.320767,53.8729282 L409.303565,53.8729282 C412.339605,53.8729282 414.800802,56.3341253 414.800802,59.3701657 L414.800802,59.3701657 C414.800802,62.4062062 412.339605,64.8674033 409.303565,64.8674033 L102.320767,64.8674033 C99.2847265,64.8674033 96.8235294,62.4062062 96.8235294,59.3701657 L96.8235294,59.3701657 C96.8235294,56.3341253 99.2847265,53.8729282 102.320767,53.8729282 Z" id="path-13"></path><filter x="-17.3%" y="-482.1%" width="134.6%" height="1100.5%" id="filter-14"><feOffset dx="0" dy="2" in="SourceAlpha" result="shadowOffsetOuter1"></feOffset><feGaussianBlur stdDeviation="18" in="shadowOffsetOuter1" result="shadowBlurOuter1"></feGaussianBlur><feColorMatrix values="0 0 0 0 0.666666667 0 0 0 0 1 0 0 0 0 0.690196078 0 0 0 0.509793931 0" type="matrix" in="shadowBlurOuter1"></feColorMatrix></filter><rect id="path-15" x="320.278075" y="412.933702" width="265.164439" height="10.9944751" rx="5.49723757"></rect><filter x="-20.7%" y="-482.1%" width="141.5%" height="1100.5%" id="filter-16"><feOffset dx="0" dy="2" in="SourceAlpha" result="shadowOffsetOuter1"></feOffset><feGaussianBlur stdDeviation="18" in="shadowOffsetOuter1" result="shadowBlurOuter1"></feGaussianBlur><feColorMatrix values="0 0 0 0 0.666666667 0 0 0 0 1 0 0 0 0 0.690196078 0 0 0 0.509793931 0" type="matrix" in="shadowBlurOuter1"></feColorMatrix></filter><path d="M451.209893,506.38674 L451.209893,506.38674 C470.047381,506.38674 485.318182,521.657541 485.318182,540.495029 L485.318182,605.337017 L417.101604,605.337017 L417.101604,540.495029 C417.101604,521.657541 432.372405,506.38674 451.209893,506.38674 Z" id="path-17"></path><filter x="-14.7%" y="-10.1%" width="129.3%" height="120.2%" id="filter-18"><feGaussianBlur stdDeviation="9.5" in="SourceAlpha" result="shadowBlurInner1"></feGaussianBlur><feOffset dx="0" dy="1" in="shadowBlurInner1" result="shadowOffsetInner1"></feOffset><feComposite in="shadowOffsetInner1" in2="SourceAlpha" operator="arithmetic" k2="-1" k3="1" result="shadowInnerInner1"></feComposite><feColorMatrix values="0 0 0 0 0 0 0 0 0 0 0 0 0 0 0 0 0 0 0.413751132 0" type="matrix" in="shadowInnerInner1"></feColorMatrix></filter><filter x="-110.2%" y="-125.6%" width="320.4%" height="351.2%" id="filter-19"><feOffset dx="0" dy="2" in="SourceAlpha" result="shadowOffsetOuter1"></feOffset><feGaussianBlur stdDeviation="13" in="shadowOffsetOuter1" result="shadowBlurOuter1"></feGaussianBlur><feColorMatrix values="0 0 0 0 0 0 0 0 0 0 0 0 0 0 0 0 0 0 0.213626585 0" type="matrix" in="shadowBlurOuter1" result="shadowMatrixOuter1"></feColorMatrix><feMerge><feMergeNode in="shadowMatrixOuter1"></feMergeNode><feMergeNode in="SourceGraphic"></feMergeNode></feMerge></filter><filter x="-110.2%" y="-125.6%" width="320.4%" height="351.2%" id="filter-20"><feOffset dx="0" dy="2" in="SourceAlpha" result="shadowOffsetOuter1"></feOffset><feGaussianBlur stdDeviation="13" in="shadowOffsetOuter1" result="shadowBlurOuter1"></feGaussianBlur><feColorMatrix values="0 0 0 0 0 0 0 0 0 0 0 0 0 0 0 0 0 0 0.25611413 0" type="matrix" in="shadowBlurOuter1" result="shadowMatrixOuter1"></feColorMatrix><feMerge><feMergeNode in="shadowMatrixOuter1"></feMergeNode><feMergeNode in="SourceGraphic"></feMergeNode></feMerge></filter><linearGradient x1="57.6964029%" y1="-28.1753217%" x2="43.1413235%" y2="92.9334256%" id="linearGradient-21"><stop stop-color="#7ECC79" offset="0%"></stop><stop stop-color="#33BAAA" offset="100%"></stop></linearGradient><linearGradient x1="113.153674%" y1="0%" x2="-24.5716445%" y2="140.05799%" id="linearGradient-22"><stop stop-color="#7ECC79" offset="0%"></stop><stop stop-color="#26B1A0" offset="100%"></stop></linearGradient><linearGradient x1="113.153674%" y1="0%" x2="-24.5716445%" y2="140.05799%" id="linearGradient-23"><stop stop-color="#4F824C" offset="0%"></stop><stop stop-color="#35B6A3" offset="92.1257831%"></stop><stop stop-color="#33BAAA" offset="100%"></stop></linearGradient></defs><g id="Pages" stroke="none" stroke-width="1" fill="none" fill-rule="evenodd"><g id="Blockchain" transform="translate(-49.000000, -1233.000000)"><g id="Elevator-Pitch" transform="translate(50.000000, 1204.000000)"><g id="2nd-Section-Illustration"><polyline id="Path-50" stroke="#3FBDA1" stroke-width="0.99" points="95.8235294 620.026923 95.8235294 505.341108 136.593658 464.601359 156.977143 464.601359 156.977143 504.093569 176.798499 504.093569 176.798499 431.319408 169.285804 431.319408 169.285804 421.685583 196.863064 421.685583 196.863064 379.950276 242.387852 379.950276 242.387852 400.497921 288.172219 446.248171 327.832954 446.248171 327.832954 491.304143 435.608845 491.304143 541.509329 491.304143 541.509329 452.637368 599.32017 452.637368 599.32017 429.980408 658.156942 429.980408 658.156942 491.345279 704.8562 538.009738 661.074746 538.009738 661.074746 619.128951"></polyline><path d="M402.42239,524.612035 C393.755148,516.436872 384.127434,516.436872 373.539247,524.612035 C357.656967,536.874778 368.746734,549.499276 358.262803,554.096266 C347.778873,558.693257 333.183225,549.587264 317.996826,560.228869 C302.810427,570.870473 317.996826,588.595845 291.960624,595.904764 C265.924421,603.213684 262.311566,581.732351 245.747103,591.334844 C229.182641,600.937337 234.467704,620.553297 206.458838,620.553297 L417.101604,620.553297 L402.42239,524.612035 Z" id="Path-177-Copy" fill="#D6F1EE"></path><ellipse id="Oval-9" stroke="#3FBDA1" stroke-width="1.1" cx="212.451872" cy="634.174033" rx="15.4037433" ry="3.8480663"></ellipse><ellipse id="Oval-9-Copy" stroke="#3FBDA1" stroke-width="1.1" cx="239.958556" cy="639.671271" rx="5.5013369" ry="3.8480663"></ellipse><polygon id="Rectangle-18" fill="url(#linearGradient-1)" points="216.15074 12.4471193 685.168778 12.4471193 578.840909 416.232044 322.47861 416.232044"></polygon><polygon id="Rectangle-18-Copy" fill="url(#linearGradient-2)" points="216.15074 0.703983357 561.927664 0.703983357 483.106479 416.232044 322.47861 416.232044"></polygon><rect id="Rectangle-26" fill="#127E91" opacity="0.5" transform="translate(541.820681, 283.814304) rotate(-345.000000) translate(-541.820681, -283.814304) " x="529.71774" y="271.720381" width="24.2058824" height="24.1878453"></rect><rect id="Rectangle-26-Copy-3" fill="#127E91" opacity="0.100000001" transform="translate(331.820681, 140.814304) rotate(-345.000000) translate(-331.820681, -140.814304) " x="319.71774" y="128.720381" width="24.2058824" height="24.1878453"></rect><rect id="Rectangle-26-Copy-2" fill="#127E91" opacity="0.5" transform="translate(428.615966, 378.041285) rotate(-345.000000) translate(-428.615966, -378.041285) " x="421.192167" y="370.623019" width="14.8475976" height="14.8365339"></rect><rect id="Rectangle-26-Copy" fill="#127E91" opacity="0.100000001" transform="translate(407.985953, 199.307415) rotate(-345.000000) translate(-407.985953, -199.307415) " x="400.173151" y="191.500435" width="15.6256041" height="15.6139607"></rect><rect id="Rectangle-25" fill="url(#linearGradient-3)" transform="translate(503.472594, 356.312155) rotate(-15.000000) translate(-503.472594, -356.312155) " x="490.819519" y="343.668508" width="25.3061497" height="25.2872928"></rect><ellipse id="Oval-16" fill="url(#radialGradient-4)" cx="359.337567" cy="270.555249" rx="12.6530749" ry="12.6436464"></ellipse><ellipse id="Oval-16-Copy-2" fill="#127E91" opacity="0.400000006" cx="529.328877" cy="227.127072" rx="9.90240642" ry="9.89502762"></ellipse><ellipse id="Oval-16-Copy" fill="url(#radialGradient-5)" opacity="0.200000003" cx="362.088235" cy="364.558011" rx="8.80213904" ry="8.79558011"></ellipse><rect id="Rectangle-24" fill="#127E91" x="715.274064" y="381.049724" width="28.6069519" height="28.5856354"></rect><path d="M734.356883,377.303251 C729.30336,372.009036 722.316845,368.955801 714.848142,368.955801 C699.96045,368.955801 687.891591,381.015667 687.891591,395.892265 C687.891591,410.768864 699.96045,422.828729 714.848142,422.828729 C723.037768,422.828729 730.629924,419.153984 735.717475,412.94316 C736.487261,412.003416 736.348913,410.618033 735.408468,409.848821 C734.468022,409.07961 733.081606,409.217854 732.311821,410.157599 C728.05149,415.358561 721.703847,418.430939 714.848142,418.430939 C702.391093,418.430939 692.292661,408.340031 692.292661,395.892265 C692.292661,383.444499 702.391093,373.353591 714.848142,373.353591 C721.100958,373.353591 726.940841,375.905727 731.1722,380.338619 C732.011019,381.21739 733.403931,381.250284 734.283357,380.41209 C735.162783,379.573896 735.195702,378.182022 734.356883,377.303251 Z" id="Oval-13" fill="#80DF98" fill-rule="nonzero"></path><path d="M0.6503793,620.362385 L769.511564,620.362385" id="Path-36" stroke="url(#linearGradient-6)" stroke-width="1.98" opacity="0.431319963" stroke-linecap="square"></path><rect id="Rectangle-22" fill="#0A685D" x="672.363636" y="394.243094" width="22.0053476" height="4.39779006" rx="2.19889503"></rect><path d="M778.719415,575.695602 C765.39219,568.06834 766.612735,563.379287 758.346217,562.177124 C750.079699,560.974961 747.854381,566.818836 735.214073,564.471918 C722.573766,562.124999 722.785372,533.406587 686.247759,533.878684 C649.710147,534.350782 651.098938,570.763651 639.955088,570.763651 C628.811238,570.763651 629.338923,562.177124 612.631782,562.177124 C595.924642,562.177124 588.496505,587.404054 553,587.404054 L824.766043,587.404054 C802.953108,584.683261 787.604232,580.780444 778.719415,575.695602 Z" id="Path-72-Copy-3" fill="#33BAAA" opacity="0.200000003"></path><path d="M363.079507,510.819809 C351.856581,504.396851 352.884408,500.448175 345.92313,499.435827 C338.961852,498.42348 337.087899,503.344638 326.44343,501.368285 C315.798961,499.391932 315.977155,475.208006 285.208639,475.605562 C254.440124,476.003118 255.609632,506.666587 246.225338,506.666587 C236.841043,506.666587 237.285408,499.435827 223.216238,499.435827 C209.147067,499.435827 202.891794,520.679558 173,520.679558 L401.855615,520.679558 C383.486828,518.388364 370.561459,515.101781 363.079507,510.819809 Z" id="Path-72-Copy-4" fill="#33BAAA" opacity="0.200000003"></path><polygon id="Path-48-Copy" fill="#0E4852" points="710.872995 530.07973 732.444819 508.585635 754.055907 531.901358 738.310248 548.991432"></polygon><polygon id="Path-48" fill="#137384" points="686.667112 533.378073 708.238936 511.883978 729.850025 535.199701"></polygon><polygon id="Rectangle-21-Copy" fill="url(#linearGradient-7)" points="684.62325 533.872928 752.526483 533.872928 742.780749 620.729282 694.368984 620.729282"></polygon><path d="M752.156391,537.171271 L750.922754,548.165746 L686.226978,548.165746 L684.993341,537.171271 L752.156391,537.171271 Z" id="Combined-Shape" fill="#000000" opacity="0.1"></path><polygon id="Rectangle-21-Copy-2" fill="#000000" opacity="0.14" points="718.025108 533.872928 752.526483 533.872928 742.780749 620.729282 718.025108 620.729282"></polygon><path d="M643.189623,367.982827 L643.189623,367.982827 C646.493638,367.982827 649.239789,370.528332 649.489989,373.822859 L654.027158,433.566288 C654.481976,439.555138 649.995758,444.778763 644.006908,445.233581 C643.732894,445.254391 643.458189,445.264807 643.183386,445.264807 L643.183386,445.264807 C637.178258,445.264807 632.310139,440.396689 632.310139,434.39156 C632.310139,434.116219 632.320598,433.840978 632.341492,433.566431 L636.88832,373.822788 C637.13906,370.528159 639.885467,367.982827 643.189623,367.982827 Z" id="Rectangle-19-Copy" fill="#27A192" transform="translate(643.184520, 406.623817) rotate(-288.000000) translate(-643.184520, -406.623817) "></path><path d="M632.382713,420.54663 L620.911267,425.261461 C616.708056,426.989005 612.047377,425.890946 609.03878,422.847871 L607.457458,415.939579 C606.832857,413.210897 607.258609,410.479834 608.475179,408.177415 C609.737505,406.683272 611.418404,405.511254 613.415459,404.862372 C613.677323,404.777287 613.942325,404.702179 614.209892,404.637212 L621.968738,402.753288 C625.305228,403.864437 628.065183,406.518374 629.173879,410.120681 L632.382713,420.54663 Z" id="Combined-Shape" fill="#000000" opacity="0.200000003"></path><path d="M629.360556,402.522147 L629.360556,402.522147 C635.412187,402.522147 640.37931,407.309887 640.601803,413.357427 L644.518956,519.828954 C644.826958,528.200707 638.289996,535.237039 629.918243,535.545041 C629.732426,535.551877 629.546499,535.555296 629.360556,535.555296 L629.360556,535.555296 C620.983139,535.555296 614.191901,528.764058 614.191901,520.386641 C614.191901,520.200698 614.19532,520.014771 614.202157,519.828954 L618.119309,413.357427 C618.341802,407.309887 623.308925,402.522147 629.360556,402.522147 Z" id="Rectangle-19" fill="url(#linearGradient-8)" transform="translate(629.360655, 469.038721) rotate(-15.000000) translate(-629.360655, -469.038721) "></path><path d="M629.426242,402.496426 L629.426242,402.496426 C635.477874,402.496426 640.444996,407.284166 640.667489,413.331706 L644.584642,519.803233 C644.892644,528.174986 638.355682,535.211318 629.983929,535.51932 C629.798112,535.526156 629.612185,535.529575 629.426242,535.529575 L629.426242,535.529575 C621.048826,535.529575 614.257587,528.738337 614.257587,520.36092 C614.257587,520.174977 614.261006,519.98905 614.267843,519.803233 L618.184996,413.331706 C618.407488,407.284166 623.374611,402.496426 629.426242,402.496426 Z" id="Rectangle-19-Copy-2" fill="url(#linearGradient-8)" transform="translate(629.426341, 469.013001) rotate(-15.000000) translate(-629.426341, -469.013001) "></path><path d="M651.368981,495.398457 L657.147929,514.175062 C658.484221,518.516861 657.774688,523.000301 655.568437,526.587993 C654.097869,527.035533 652.5372,527.276243 650.920311,527.276243 L630.17731,527.276243 C629.210445,525.880421 628.463284,524.297251 627.998583,522.562965 C627.950458,522.383358 627.905639,522.202882 627.864149,522.021627 L621.768634,495.392265 L650.920311,495.392265 C651.070361,495.392265 651.219926,495.394338 651.368981,495.398457 Z" id="Combined-Shape" fill="#000000" opacity="0.100000001"></path><ellipse id="Oval-12" stroke="#94EFAB" stroke-width="3.3" fill="#1A8578" cx="614.599599" cy="416.781768" rx="7.15173797" ry="7.14640884"></ellipse><ellipse id="Oval-12-Copy-2" stroke="#94EFAB" stroke-width="2.2" fill="#1A8578" cx="672.91377" cy="396.991713" rx="3.85093583" ry="3.8480663"></ellipse><rect id="Rectangle-20" fill="#075B6A" x="571.139037" y="504.187845" width="89.1216578" height="31.8839779" rx="15.941989"></rect><path d="M612.746795,504.187845 C612.431667,507.416835 611.972861,510.64006 611.369133,513.848144 L607.186871,536.071823 L587.081026,536.071823 C578.276509,536.071823 571.139037,528.934352 571.139037,520.129834 C571.139037,511.325317 578.276509,504.187845 587.081026,504.187845 L612.746795,504.187845 Z" id="Combined-Shape" fill="#000000" opacity="0.200000003"></path><ellipse id="Oval-12-Copy" stroke="#94EFAB" stroke-width="3.3" fill="#044F5C" cx="643.756684" cy="520.679558" rx="8.80213904" ry="8.79558011"></ellipse><path d="M80.5524674,246.999448 C97.759947,237.151489 96.184037,231.097208 106.857372,229.545032 C117.530706,227.992856 120.403932,235.53819 136.724496,232.50796 C153.04506,229.47773 152.771844,192.397882 199.947472,193.007432 C247.123099,193.616982 245.329958,240.631547 259.718367,240.631547 C274.106776,240.631547 273.425455,229.545032 294.99692,229.545032 C316.568385,229.545032 326.159243,262.116844 371.990642,262.116844 L21.0992515,262.116844 C49.2630756,258.603886 69.0808143,253.564753 80.5524674,246.999448 Z" id="Path-72-Copy-2" fill="#33BAAA" opacity="0.200000003"></path><g id="Group-16" transform="translate(193.747326, 422.828729)"><path d="M383.246686,4.93795016e-14 L394.281194,22.8628106 C404.498539,44.0325117 407.665674,67.918527 403.318331,91.0194143 L384.259028,192.296628 C383.671951,195.416232 380.947246,197.676004 377.772883,197.676004 L137.475584,197.676004 C134.301221,197.676004 131.576516,195.416232 130.989439,192.296628 L111.930136,91.0194143 C107.582793,67.918527 110.749928,44.0325117 120.967274,22.8628106 L132.001781,4.93795016e-14 L383.246686,4.93795016e-14 Z" id="Polygon" fill="url(#linearGradient-9)"></path><path d="M390.470012,159.292738 L384.259028,192.296628 C383.671951,195.416232 380.947246,197.676004 377.772883,197.676004 L360.53456,197.676004 C341.829654,184.122261 332.920047,164.70262 334.496129,156.326222 C337.49599,140.382873 344.664375,154.85944 346.691296,149.345614 C348.718217,143.831788 338.779426,132.112249 344.460446,126.389201 C350.141465,120.666153 353.212343,127.818526 357.270598,124.507837 C361.328852,121.197149 359.165967,107.241781 374.017544,108.723497 C388.869121,110.205214 372.315078,123.923799 371.933025,131.359919 C371.550972,138.79604 381.431511,121.463075 386.578687,130.371602 C391.725863,139.280128 378.537374,153.124791 377.735961,160.156913 C377.199956,164.860178 384.760788,159.379879 390.470012,159.292738 Z" id="Combined-Shape" fill="#000000" opacity="0.200000003"></path><rect id="Rectangle-17-Copy-4" fill="#56AF8D" x="117.72861" y="189.104972" width="6.60160428" height="8.79558011"></rect><rect id="Rectangle-17" fill="#56AF8D" x="0" y="189.104972" width="6.60160428" height="8.79558011"></rect><rect id="Rectangle-17-Copy-5" fill="#56AF8D" x="235.457219" y="189.104972" width="6.60160428" height="8.79558011"></rect><path d="M404.939599,58.8116862 C405.373237,62.8298301 405.5856,66.8731334 405.57425,70.9231167 L110.451151,70.9231205 C110.439801,66.8731334 110.652164,62.8298301 111.085802,58.8116862 L404.939599,58.8116862 Z" id="Combined-Shape" fill="#000000" opacity="0.200000003"></path><g id="Group-13" opacity="0.699999988" transform="translate(111.127005, 0.000000)"><mask id="mask-12" fill="white"><use xlink:href="#path-11"></use></mask><use id="Combined-Shape" fill="url(#linearGradient-10)" xlink:href="#path-11"></use><g id="Group-17" opacity="0.377094656" mask="url(#mask-12)" fill="#FFFFFF" fill-rule="nonzero"><g transform="translate(11.002674, -4.397790)"><path d="M56.1664867,48.5521333 C56.1664867,49.1593414 56.5782871,49.6515808 57.0862686,49.6515808 L91.2198876,49.6515808 C91.7278691,49.6515808 92.1396695,49.1593414 92.1396695,48.5521333 C92.1396695,47.9449252 91.7278691,47.4526858 91.2198876,47.4526858 L58.0060505,47.4526858 L58.0060505,34.32637 C58.0060505,33.7191619 57.5942501,33.2269225 57.0862686,33.2269225 L17.2547916,33.2269225 L23.4587754,21.9494831 C23.7378778,21.4421382 23.6200604,20.7604008 23.195623,20.4267801 C22.7711856,20.0931593 22.200854,20.2339905 21.9217517,20.7413354 L14.7806208,33.7222962 C14.3784369,34.4533756 14.8171359,35.4258176 15.5491327,35.4258176 L56.1664867,35.4258176 L56.1664867,48.5521333 Z" id="Path-11"></path><path d="M24.4089285,21.9889503 C22.3607088,21.9889503 20.7002986,20.2661123 20.7002986,18.140884 C20.7002986,16.0156556 22.3607088,14.2928177 24.4089285,14.2928177 C26.4571483,14.2928177 28.1175585,16.0156556 28.1175585,18.140884 C28.1175585,20.2661123 26.4571483,21.9889503 24.4089285,21.9889503 Z M24.4089285,19.7900552 C25.286737,19.7900552 25.9983414,19.0516961 25.9983414,18.140884 C25.9983414,17.2300718 25.286737,16.4917127 24.4089285,16.4917127 C23.5311201,16.4917127 22.8195157,17.2300718 22.8195157,18.140884 C22.8195157,19.0516961 23.5311201,19.7900552 24.4089285,19.7900552 Z" id="Oval-3"></path><path d="M4.60411571,49.4751381 C2.55589594,49.4751381 0.895485754,47.7523002 0.895485754,45.6270718 C0.895485754,43.5018435 2.55589594,41.7790055 4.60411571,41.7790055 C6.65233547,41.7790055 8.31274566,43.5018435 8.31274566,45.6270718 C8.31274566,47.7523002 6.65233547,49.4751381 4.60411571,49.4751381 Z M4.60411571,47.2762431 C5.48192418,47.2762431 6.19352854,46.537884 6.19352854,45.6270718 C6.19352854,44.7162597 5.48192418,43.9779006 4.60411571,43.9779006 C3.72630724,43.9779006 3.01470287,44.7162597 3.01470287,45.6270718 C3.01470287,46.537884 3.72630724,47.2762431 4.60411571,47.2762431 Z" id="Oval-3-Copy-3"></path><path d="M71.2379742,20.8895028 C68.9961464,20.8895028 67.1787859,19.1666648 67.1787859,17.0414365 C67.1787859,14.9162081 68.9961464,13.1933702 71.2379742,13.1933702 C73.4798021,13.1933702 75.2971626,14.9162081 75.2971626,17.0414365 C75.2971626,19.1666648 73.4798021,20.8895028 71.2379742,20.8895028 Z M71.2379742,18.6906077 C72.1987576,18.6906077 72.9776264,17.9522486 72.9776264,17.0414365 C72.9776264,16.1306243 72.1987576,15.3922652 71.2379742,15.3922652 C70.2771909,15.3922652 69.4983221,16.1306243 69.4983221,17.0414365 C69.4983221,17.9522486 70.2771909,18.6906077 71.2379742,18.6906077 Z" id="Oval-3-Copy-2"></path><path d="M88.7138299,43.9779006 C86.4720021,43.9779006 84.6546416,42.2550626 84.6546416,40.1298343 C84.6546416,38.0046059 86.4720021,36.281768 88.7138299,36.281768 C90.9556578,36.281768 92.7730183,38.0046059 92.7730183,40.1298343 C92.7730183,42.2550626 90.9556578,43.9779006 88.7138299,43.9779006 Z M88.7138299,41.7790055 C89.6746133,41.7790055 90.4534821,41.0406464 90.4534821,40.1298343 C90.4534821,39.2190221 89.6746133,38.480663 88.7138299,38.480663 C87.7530466,38.480663 86.9741778,39.2190221 86.9741778,40.1298343 C86.9741778,41.0406464 87.7530466,41.7790055 88.7138299,41.7790055 Z" id="Oval-3-Copy-15"></path><path d="M53.1824824,30.7845304 C50.9406546,30.7845304 49.1232941,29.0616924 49.1232941,26.9364641 C49.1232941,24.8112358 50.9406546,23.0883978 53.1824824,23.0883978 C55.4243102,23.0883978 57.2416707,24.8112358 57.2416707,26.9364641 C57.2416707,29.0616924 55.4243102,30.7845304 53.1824824,30.7845304 Z M53.1824824,28.5856354 C54.1432658,28.5856354 54.9221346,27.8472762 54.9221346,26.9364641 C54.9221346,26.0256519 54.1432658,25.2872928 53.1824824,25.2872928 C52.2216991,25.2872928 51.4428303,26.0256519 51.4428303,26.9364641 C51.4428303,27.8472762 52.2216991,28.5856354 53.1824824,28.5856354 Z" id="Oval-3-Copy-4"></path><path d="M152.439095,48.3756906 C150.197267,48.3756906 148.379907,46.6528526 148.379907,44.5276243 C148.379907,42.402396 150.197267,40.679558 152.439095,40.679558 C154.680923,40.679558 156.498284,42.402396 156.498284,44.5276243 C156.498284,46.6528526 154.680923,48.3756906 152.439095,48.3756906 Z M152.439095,46.1767956 C153.399879,46.1767956 154.178747,45.4384365 154.178747,44.5276243 C154.178747,43.6168122 153.399879,42.878453 152.439095,42.878453 C151.478312,42.878453 150.699443,43.6168122 150.699443,44.5276243 C150.699443,45.4384365 151.478312,46.1767956 152.439095,46.1767956 Z" id="Oval-3-Copy-5"></path><path d="M165.316042,36.281768 C163.287949,36.281768 161.643856,34.55893 161.643856,32.4337017 C161.643856,30.3084733 163.287949,28.5856354 165.316042,28.5856354 C167.344134,28.5856354 168.988227,30.3084733 168.988227,32.4337017 C168.988227,34.55893 167.344134,36.281768 165.316042,36.281768 Z M165.316042,34.0828729 C166.185224,34.0828729 166.889835,33.3445138 166.889835,32.4337017 C166.889835,31.5228895 166.185224,30.7845304 165.316042,30.7845304 C164.446859,30.7845304 163.742248,31.5228895 163.742248,32.4337017 C163.742248,33.3445138 164.446859,34.0828729 165.316042,34.0828729 Z" id="Oval-3-Copy-6"></path><path d="M176.353424,57.1712707 C174.334916,57.1712707 172.698593,55.4484328 172.698593,53.3232044 C172.698593,51.1979761 174.334916,49.4751381 176.353424,49.4751381 C178.371932,49.4751381 180.008255,51.1979761 180.008255,53.3232044 C180.008255,55.4484328 178.371932,57.1712707 176.353424,57.1712707 Z M176.353424,54.9723757 C177.218499,54.9723757 177.91978,54.2340166 177.91978,53.3232044 C177.91978,52.4123923 177.218499,51.6740331 176.353424,51.6740331 C175.488349,51.6740331 174.787068,52.4123923 174.787068,53.3232044 C174.787068,54.2340166 175.488349,54.9723757 176.353424,54.9723757 Z" id="Oval-3-Copy-14"></path><path d="M187.80827,34.0828729 C185.755794,34.0828729 184.091934,32.360035 184.091934,30.2348066 C184.091934,28.1095783 185.755794,26.3867403 187.80827,26.3867403 C189.860746,26.3867403 191.524607,28.1095783 191.524607,30.2348066 C191.524607,32.360035 189.860746,34.0828729 187.80827,34.0828729 Z M187.80827,31.8839779 C188.687903,31.8839779 189.400986,31.1456188 189.400986,30.2348066 C189.400986,29.3239945 188.687903,28.5856354 187.80827,28.5856354 C186.928638,28.5856354 186.215555,29.3239945 186.215555,30.2348066 C186.215555,31.1456188 186.928638,31.8839779 187.80827,31.8839779 Z" id="Oval-3-Copy-8"></path><path d="M215.29997,24.1878453 C213.247494,24.1878453 211.583633,22.4650073 211.583633,20.339779 C211.583633,18.2145507 213.247494,16.4917127 215.29997,16.4917127 C217.352446,16.4917127 219.016306,18.2145507 219.016306,20.339779 C219.016306,22.4650073 217.352446,24.1878453 215.29997,24.1878453 Z M215.29997,21.9889503 C216.179602,21.9889503 216.892686,21.2505911 216.892686,20.339779 C216.892686,19.4289669 216.179602,18.6906077 215.29997,18.6906077 C214.420337,18.6906077 213.707254,19.4289669 213.707254,20.339779 C213.707254,21.2505911 214.420337,21.9889503 215.29997,21.9889503 Z" id="Oval-3-Copy-7"></path><path d="M234.772486,21.9889503 C232.72001,21.9889503 231.05615,20.2661123 231.05615,18.140884 C231.05615,16.0156556 232.72001,14.2928177 234.772486,14.2928177 C236.824962,14.2928177 238.488823,16.0156556 238.488823,18.140884 C238.488823,20.2661123 236.824962,21.9889503 234.772486,21.9889503 Z M234.772486,19.7900552 C235.652119,19.7900552 236.365202,19.0516961 236.365202,18.140884 C236.365202,17.2300718 235.652119,16.4917127 234.772486,16.4917127 C233.892854,16.4917127 233.179771,17.2300718 233.179771,18.140884 C233.179771,19.0516961 233.892854,19.7900552 234.772486,19.7900552 Z" id="Oval-3-Copy-12"></path><path d="M263.379438,32.9834254 C261.326962,32.9834254 259.663102,31.2605874 259.663102,29.1353591 C259.663102,27.0101308 261.326962,25.2872928 263.379438,25.2872928 C265.431914,25.2872928 267.095774,27.0101308 267.095774,29.1353591 C267.095774,31.2605874 265.431914,32.9834254 263.379438,32.9834254 Z M263.379438,30.7845304 C264.259071,30.7845304 264.972154,30.0461713 264.972154,29.1353591 C264.972154,28.224547 264.259071,27.4861878 263.379438,27.4861878 C262.499805,27.4861878 261.786722,28.224547 261.786722,29.1353591 C261.786722,30.0461713 262.499805,30.7845304 263.379438,30.7845304 Z" id="Oval-3-Copy-13"></path><path d="M197.28765,45.0773481 C195.235174,45.0773481 193.571314,43.3545101 193.571314,41.2292818 C193.571314,39.1040534 195.235174,37.3812155 197.28765,37.3812155 C199.340126,37.3812155 201.003986,39.1040534 201.003986,41.2292818 C201.003986,43.3545101 199.340126,45.0773481 197.28765,45.0773481 Z M197.28765,42.878453 C198.167283,42.878453 198.880366,42.1400939 198.880366,41.2292818 C198.880366,40.3184696 198.167283,39.5801105 197.28765,39.5801105 C196.408017,39.5801105 195.694934,40.3184696 195.694934,41.2292818 C195.694934,42.1400939 196.408017,42.878453 197.28765,42.878453 Z" id="Oval-3-Copy-9"></path><path d="M95.1523031,52.7734807 C92.9104753,52.7734807 91.0931148,51.0506427 91.0931148,48.9254144 C91.0931148,46.800186 92.9104753,45.0773481 95.1523031,45.0773481 C97.3941309,45.0773481 99.2114914,46.800186 99.2114914,48.9254144 C99.2114914,51.0506427 97.3941309,52.7734807 95.1523031,52.7734807 Z M95.1523031,50.5745856 C96.1130864,50.5745856 96.8919552,49.8362265 96.8919552,48.9254144 C96.8919552,48.0146022 96.1130864,47.2762431 95.1523031,47.2762431 C94.1915197,47.2762431 93.412651,48.0146022 93.412651,48.9254144 C93.412651,49.8362265 94.1915197,50.5745856 95.1523031,50.5745856 Z" id="Oval-3-Copy"></path><path d="M86.1141446,17.5911602 C83.8723167,17.5911602 82.0549562,15.8683223 82.0549562,13.7430939 C82.0549562,11.6178656 83.8723167,9.89502762 86.1141446,9.89502762 C88.3559724,9.89502762 90.1733329,11.6178656 90.1733329,13.7430939 C90.1733329,15.8683223 88.3559724,17.5911602 86.1141446,17.5911602 Z M86.1141446,15.3922652 C87.0749279,15.3922652 87.8537967,14.6539061 87.8537967,13.7430939 C87.8537967,12.8322818 87.0749279,12.0939227 86.1141446,12.0939227 C85.1533612,12.0939227 84.3744924,12.8322818 84.3744924,13.7430939 C84.3744924,14.6539061 85.1533612,15.3922652 86.1141446,15.3922652 Z" id="Oval-3-Copy-10"></path><path d="M132.203894,17.5911602 C130.159508,17.5911602 128.502206,15.8683223 128.502206,13.7430939 C128.502206,11.6178656 130.159508,9.89502762 132.203894,9.89502762 C134.24828,9.89502762 135.905582,11.6178656 135.905582,13.7430939 C135.905582,15.8683223 134.24828,17.5911602 132.203894,17.5911602 Z M132.203894,15.3922652 C133.080059,15.3922652 133.790332,14.6539061 133.790332,13.7430939 C133.790332,12.8322818 133.080059,12.0939227 132.203894,12.0939227 C131.327728,12.0939227 130.617456,12.8322818 130.617456,13.7430939 C130.617456,14.6539061 131.327728,15.3922652 132.203894,15.3922652 Z" id="Oval-3-Copy-11"></path><path d="M44.4838473,34.1234675 L44.4838473,21.4165015 C44.4838473,19.5948773 45.7192484,18.118159 47.2431929,18.118159 L67.2805537,18.118159 C67.7885352,18.118159 68.2003356,17.6259196 68.2003356,17.0187115 C68.2003356,16.4115034 67.7885352,15.919264 67.2805537,15.919264 L47.2431929,15.919264 C44.7032854,15.919264 42.6442835,18.3804611 42.6442835,21.4165015 L42.6442835,34.1234675 C42.6442835,34.7306756 43.0560839,35.2229151 43.5640654,35.2229151 C44.0720469,35.2229151 44.4838473,34.7306756 44.4838473,34.1234675 Z" id="Path-14"></path><path d="M7.45172717,44.4353793 C6.94374566,44.4353793 6.53194529,44.9276188 6.53194529,45.5348269 C6.53194529,46.142035 6.94374566,46.6342744 7.45172717,46.6342744 L30.7027684,46.6342744 C31.2107499,46.6342744 31.6225502,46.142035 31.6225502,45.5348269 L31.6225502,34.3752581 C31.6225502,33.76805 31.2107499,33.2758106 30.7027684,33.2758106 C30.1947869,33.2758106 29.7829865,33.76805 29.7829865,34.3752581 L29.7829865,44.4353793 L7.45172717,44.4353793 Z" id="Path-15"></path><path d="M83.9651365,35.1380069 C84.1376291,35.3441933 84.3715792,35.4600276 84.6155205,35.4600276 L118.444003,35.4600276 L118.444003,45.2811965 C118.444003,45.8884046 118.855803,46.3806441 119.363785,46.3806441 L149.076635,46.3806441 C149.584617,46.3806441 149.996417,45.8884046 149.996417,45.2811965 C149.996417,44.6739884 149.584617,44.181749 149.076635,44.181749 L120.283567,44.181749 L120.283567,34.3605801 C120.283567,33.753372 119.871766,33.2611326 119.363785,33.2611326 L84.9965066,33.2611326 L79.3446128,26.5052258 C79.1721202,26.2990394 78.9381701,26.1832051 78.6942288,26.1832051 L56.4150728,26.1832051 C55.9070913,26.1832051 55.495291,26.6754445 55.495291,27.2826526 C55.495291,27.8898607 55.9070913,28.3821001 56.4150728,28.3821001 L78.3132427,28.3821001 L83.9651365,35.1380069 Z" id="Path-17"></path><path d="M132.911354,32.631069 C132.911354,33.238277 133.323154,33.7305165 133.831136,33.7305165 L161.989278,33.7305165 C162.497259,33.7305165 162.909059,33.238277 162.909059,32.631069 C162.909059,32.0238609 162.497259,31.5316214 161.989278,31.5316214 L134.750918,31.5316214 L134.750918,23.7728327 C134.750918,23.1656246 134.339117,22.6733852 133.831136,22.6733852 L101.064936,22.6733852 C95.9984641,22.6733852 91.8912769,27.5828499 91.8912769,33.6389816 C91.8912769,34.2461897 92.3030773,34.7384291 92.8110588,34.7384291 C93.3190403,34.7384291 93.7308407,34.2461897 93.7308407,33.6389816 C93.7308407,28.7972661 97.0144271,24.8722802 101.064936,24.8722802 L132.911354,24.8722802 L132.911354,32.631069 Z" id="Path-18"></path><path d="M57.9809671,41.7790055 L84.6024324,41.7790055 C85.1104139,41.7790055 85.5222143,41.2867661 85.5222143,40.679558 C85.5222143,40.0723499 85.1104139,39.5801105 84.6024324,39.5801105 L57.9809671,39.5801105 C57.4729856,39.5801105 57.0611852,40.0723499 57.0611852,40.679558 C57.0611852,41.2867661 57.4729856,41.7790055 57.9809671,41.7790055 Z" id="Path-19"></path><path d="M155.838817,46.1767956 L182.460283,46.1767956 C182.968264,46.1767956 183.380064,45.6845562 183.380064,45.0773481 C183.380064,44.47014 182.968264,43.9779006 182.460283,43.9779006 L155.838817,43.9779006 C155.330836,43.9779006 154.919035,44.47014 154.919035,45.0773481 C154.919035,45.6845562 155.330836,46.1767956 155.838817,46.1767956 Z" id="Path-19-Copy"></path><path d="M211.685307,21.7186587 C212.193288,21.7186587 212.605089,21.2264193 212.605089,20.6192112 C212.605089,20.0120031 212.193288,19.5197637 211.685307,19.5197637 L155.680873,19.5197637 C155.436932,19.5197637 155.202982,19.635598 155.030489,19.8417844 L145.317983,31.4514836 C144.958786,31.8808445 144.958786,32.5769762 145.317983,33.0063371 C145.67718,33.4356981 146.259554,33.4356981 146.618751,33.0063371 L156.061859,21.7186587 L211.685307,21.7186587 Z" id="Path-20"></path><path d="M229.583644,30.6477024 C230.163074,29.9550891 229.752698,28.7708281 228.93326,28.7708281 L190.551362,28.7708281 C190.04338,28.7708281 189.63158,29.2630676 189.63158,29.8702757 C189.63158,30.4774837 190.04338,30.9697232 190.551362,30.9697232 L226.71271,30.9697232 L218.783143,40.4482122 C218.203713,41.1408255 218.614089,42.3250865 219.433527,42.3250865 L277.807857,42.3250865 C278.315838,42.3250865 278.727638,41.832847 278.727638,41.225639 C278.727638,40.6184309 278.315838,40.1261914 277.807857,40.1261914 L221.654077,40.1261914 L229.583644,30.6477024 Z" id="Path-21"></path><path d="M208.171312,50.1379393 L208.171312,41.1996296 C208.171312,40.5924215 207.759512,40.1001821 207.25153,40.1001821 L200.547158,40.1001821 C200.039177,40.1001821 199.627376,40.5924215 199.627376,41.1996296 C199.627376,41.8068377 200.039177,42.2990771 200.547158,42.2990771 L206.331748,42.2990771 L206.331748,51.2373868 C206.331748,51.8445949 206.743549,52.3368344 207.25153,52.3368344 L240.662835,52.3368344 C241.170816,52.3368344 241.582617,51.8445949 241.582617,51.2373868 L241.582617,42.0145524 C241.582617,41.4073443 241.170816,40.9151049 240.662835,40.9151049 C240.154853,40.9151049 239.743053,41.4073443 239.743053,42.0145524 L239.743053,50.1379393 L208.171312,50.1379393 Z" id="Path-22"></path><path d="M201.305104,14.8442123 L201.305104,19.3291949 C201.305104,19.936403 201.716905,20.4286424 202.224886,20.4286424 C202.732868,20.4286424 203.144668,19.936403 203.144668,19.3291949 L203.144668,13.7447648 C203.144668,13.1375567 202.732868,12.6453173 202.224886,12.6453173 L148.593589,12.6453173 C148.373293,12.6453173 148.160314,12.7398286 147.993386,12.9116626 L140.635131,20.4861638 C140.250209,20.8823971 140.206889,21.5766001 140.538372,22.0367098 C140.869855,22.4968194 141.450616,22.5486015 141.835537,22.1523683 L148.93505,14.8442123 L201.305104,14.8442123 Z" id="Path-23"></path><path d="M90.4101774,15.2603745 L128.743961,15.2603745 C129.251942,15.2603745 129.663743,14.7681351 129.663743,14.160927 C129.663743,13.5537189 129.251942,13.0614795 128.743961,13.0614795 L90.4101774,13.0614795 C89.9021959,13.0614795 89.4903955,13.5537189 89.4903955,14.160927 C89.4903955,14.7681351 89.9021959,15.2603745 90.4101774,15.2603745 Z" id="Path-24"></path><path d="M237.671573,16.7008745 C237.163592,16.7008745 236.751792,17.1931139 236.751792,17.800322 C236.751792,18.4075301 237.163592,18.8997695 237.671573,18.8997695 L248.695974,18.8997695 C249.203956,18.8997695 249.615756,18.4075301 249.615756,17.800322 L249.615756,1.79446908 C249.615756,1.18726098 249.203956,0.695021565 248.695974,0.695021565 C248.187993,0.695021565 247.776192,1.18726098 247.776192,1.79446908 L247.776192,16.7008745 L237.671573,16.7008745 Z" id="Path-25"></path><path d="M260.669082,30.0392192 C261.177063,30.0392192 261.588864,29.5469797 261.588864,28.9397717 C261.588864,28.3325636 261.177063,27.8403241 260.669082,27.8403241 L254.467458,27.8403241 C253.959476,27.8403241 253.547676,28.3325636 253.547676,28.9397717 L253.547676,41.0569975 C253.547676,41.6642056 253.959476,42.1564451 254.467458,42.1564451 C254.975439,42.1564451 255.38724,41.6642056 255.38724,41.0569975 L255.38724,30.0392192 L260.669082,30.0392192 Z" id="Path-26"></path><path d="M172.732782,54.9245865 C173.240763,54.9245865 173.652563,54.432347 173.652563,53.8251389 C173.652563,53.2179308 173.240763,52.7256914 172.732782,52.7256914 L122.865613,52.7256914 C122.357632,52.7256914 121.945831,53.2179308 121.945831,53.8251389 L121.945831,62.7366975 C121.945831,63.3439056 122.357632,63.836145 122.865613,63.836145 C123.373595,63.836145 123.785395,63.3439056 123.785395,62.7366975 L123.785395,54.9245865 L172.732782,54.9245865 Z" id="Path-27"></path></g></g></g><g id="Rectangle-11-Copy"><use fill="black" fill-opacity="1" filter="url(#filter-14)" xlink:href="#path-13"></use><use fill="#BBFFCC" fill-rule="evenodd" xlink:href="#path-13"></use></g></g><g id="Rectangle-14"><use fill="black" fill-opacity="1" filter="url(#filter-16)" xlink:href="#path-15"></use><use fill="#A3FBB9" fill-rule="evenodd" xlink:href="#path-15"></use></g><ellipse id="Oval-11" fill="#169FB6" cx="335.681818" cy="526.176796" rx="7.70187166" ry="7.6961326"></ellipse><ellipse id="Oval-11-Copy-2" fill="#169FB6" cx="519.426471" cy="528.375691" rx="7.70187166" ry="7.6961326"></ellipse><ellipse id="Oval-11-Copy" fill="#169FB6" cx="378.592246" cy="526.176796" rx="7.70187166" ry="7.6961326"></ellipse><ellipse id="Oval-11-Copy-3" fill="#169FB6" cx="562.336898" cy="528.375691" rx="7.70187166" ry="7.6961326"></ellipse><path d="M450.659759,495.392265 L450.659759,495.392265 C475.270026,495.392265 495.220588,515.342828 495.220588,539.953094 L495.220588,599.839779 L406.09893,599.839779 L406.09893,539.953094 C406.09893,515.342828 426.049493,495.392265 450.659759,495.392265 Z" id="Rectangle-16" fill="#8FE6A3" opacity="0.5"></path><g id="Rectangle-16-Copy"><use fill="#075B6A" fill-rule="evenodd" xlink:href="#path-17"></use><use fill="black" fill-opacity="1" filter="url(#filter-18)" xlink:href="#path-17"></use></g><g id="Group-14" transform="translate(220.153743, 550.364641)"><rect id="Rectangle-13" fill="url(#linearGradient-3)" x="0" y="0" width="48.4117647" height="42.878453"></rect><path d="M17.5249672,23.0538764 L20.1861895,25.7188279 C21.0384253,26.5722579 22.4189021,26.5804132 23.2811615,25.7371118 L32.1041135,17.1081458" id="Path-28" stroke="#AAFFB0" stroke-width="3.3" stroke-linecap="round" stroke-linejoin="round"></path></g><g id="Group-14-Copy" filter="url(#filter-19)" transform="translate(298.272727, 550.364641)"><rect id="Rectangle-13" fill="url(#linearGradient-3)" x="0" y="0" width="48.4117647" height="42.878453"></rect><path d="M17.5249672,23.0538764 L20.1861895,25.7188279 C21.0384253,26.5722579 22.4189021,26.5804132 23.2811615,25.7371118 L32.1041135,17.1081458" id="Path-28" stroke="#AAFFB0" stroke-width="3.3" stroke-linecap="round" stroke-linejoin="round"></path></g><g id="Group-14-Copy-2" filter="url(#filter-20)" transform="translate(377.491979, 550.364641)"><rect id="Rectangle-13" fill="url(#linearGradient-3)" x="0" y="0" width="48.4117647" height="42.878453"></rect><path d="M17.5249672,23.0538764 L20.1861895,25.7188279 C21.0384253,26.5722579 22.4189021,26.5804132 23.2811615,25.7371118 L32.1041135,17.1081458" id="Path-28" stroke="#AAFFB0" stroke-width="3.3" stroke-linecap="round" stroke-linejoin="round"></path></g><rect id="Rectangle-12" stroke="#8DE5A3" stroke-width="3.3" fill="#075B6A" x="172.291711" y="593.793646" width="328.980749" height="16.4900552" rx="8.24502762"></rect><path d="M180.544118,605.337017 C178.721135,605.337017 177.243316,603.860298 177.243316,602.038674 C177.243316,600.21705 178.721135,598.740331 180.544118,598.740331 C182.3671,598.740331 183.84492,600.21705 183.84492,602.038674 C183.84492,603.860298 182.3671,605.337017 180.544118,605.337017 Z M202.549465,605.337017 C200.726483,605.337017 199.248663,603.860298 199.248663,602.038674 C199.248663,600.21705 200.726483,598.740331 202.549465,598.740331 C204.372448,598.740331 205.850267,600.21705 205.850267,602.038674 C205.850267,603.860298 204.372448,605.337017 202.549465,605.337017 Z M224.554813,605.337017 C222.73183,605.337017 221.254011,603.860298 221.254011,602.038674 C221.254011,600.21705 222.73183,598.740331 224.554813,598.740331 C226.377796,598.740331 227.855615,600.21705 227.855615,602.038674 C227.855615,603.860298 226.377796,605.337017 224.554813,605.337017 Z M246.56016,605.337017 C244.737178,605.337017 243.259358,603.860298 243.259358,602.038674 C243.259358,600.21705 244.737178,598.740331 246.56016,598.740331 C248.383143,598.740331 249.860963,600.21705 249.860963,602.038674 C249.860963,603.860298 248.383143,605.337017 246.56016,605.337017 Z M268.565508,605.337017 C266.742525,605.337017 265.264706,603.860298 265.264706,602.038674 C265.264706,600.21705 266.742525,598.740331 268.565508,598.740331 C270.388491,598.740331 271.86631,600.21705 271.86631,602.038674 C271.86631,603.860298 270.388491,605.337017 268.565508,605.337017 Z M290.570856,605.337017 C288.747873,605.337017 287.270053,603.860298 287.270053,602.038674 C287.270053,600.21705 288.747873,598.740331 290.570856,598.740331 C292.393838,598.740331 293.871658,600.21705 293.871658,602.038674 C293.871658,603.860298 292.393838,605.337017 290.570856,605.337017 Z M312.576203,605.337017 C310.753221,605.337017 309.275401,603.860298 309.275401,602.038674 C309.275401,600.21705 310.753221,598.740331 312.576203,598.740331 C314.399186,598.740331 315.877005,600.21705 315.877005,602.038674 C315.877005,603.860298 314.399186,605.337017 312.576203,605.337017 Z M334.581551,605.337017 C332.758568,605.337017 331.280749,603.860298 331.280749,602.038674 C331.280749,600.21705 332.758568,598.740331 334.581551,598.740331 C336.404533,598.740331 337.882353,600.21705 337.882353,602.038674 C337.882353,603.860298 336.404533,605.337017 334.581551,605.337017 Z M356.586898,605.337017 C354.763916,605.337017 353.286096,603.860298 353.286096,602.038674 C353.286096,600.21705 354.763916,598.740331 356.586898,598.740331 C358.409881,598.740331 359.887701,600.21705 359.887701,602.038674 C359.887701,603.860298 358.409881,605.337017 356.586898,605.337017 Z M378.592246,605.337017 C376.769263,605.337017 375.291444,603.860298 375.291444,602.038674 C375.291444,600.21705 376.769263,598.740331 378.592246,598.740331 C380.415229,598.740331 381.893048,600.21705 381.893048,602.038674 C381.893048,603.860298 380.415229,605.337017 378.592246,605.337017 Z M400.597594,605.337017 C398.774611,605.337017 397.296791,603.860298 397.296791,602.038674 C397.296791,600.21705 398.774611,598.740331 400.597594,598.740331 C402.420576,598.740331 403.898396,600.21705 403.898396,602.038674 C403.898396,603.860298 402.420576,605.337017 400.597594,605.337017 Z M422.602941,605.337017 C420.779958,605.337017 419.302139,603.860298 419.302139,602.038674 C419.302139,600.21705 420.779958,598.740331 422.602941,598.740331 C424.425924,598.740331 425.903743,600.21705 425.903743,602.038674 C425.903743,603.860298 424.425924,605.337017 422.602941,605.337017 Z M444.608289,605.337017 C442.785306,605.337017 441.307487,603.860298 441.307487,602.038674 C441.307487,600.21705 442.785306,598.740331 444.608289,598.740331 C446.431271,598.740331 447.909091,600.21705 447.909091,602.038674 C447.909091,603.860298 446.431271,605.337017 444.608289,605.337017 Z M466.613636,605.337017 C464.790654,605.337017 463.312834,603.860298 463.312834,602.038674 C463.312834,600.21705 464.790654,598.740331 466.613636,598.740331 C468.436619,598.740331 469.914439,600.21705 469.914439,602.038674 C469.914439,603.860298 468.436619,605.337017 466.613636,605.337017 Z M488.618984,605.337017 C486.796001,605.337017 485.318182,603.860298 485.318182,602.038674 C485.318182,600.21705 486.796001,598.740331 488.618984,598.740331 C490.441967,598.740331 491.919786,600.21705 491.919786,602.038674 C491.919786,603.860298 490.441967,605.337017 488.618984,605.337017 Z" id="Combined-Shape" fill="#AAFFB0" opacity="0.400000006"></path><g id="Group-15-Copy-4" transform="translate(103.335561, 602.676796) scale(-1, 1) translate(-103.335561, -602.676796) translate(61.335561, 526.176796)"><path d="M33.4069269,147.012162 C33.4069269,147.134421 32.9072026,149.071435 31.907754,152.823204 L56.1136364,152.823204 C42.5765119,149.388722 35.7358787,147.187633 35.5917367,146.219939 C35.1769592,143.43534 33.4069269,146.828774 33.4069269,147.012162 Z" id="Path-92" fill="#0B4651"></path><path d="M8.10077721,147.012162 C8.10077721,147.134421 7.6010529,149.071435 6.60160428,152.823204 L30.8074866,152.823204 C17.2703622,149.388722 10.4297289,147.187633 10.2855869,146.219939 C9.87080946,143.43534 8.10077721,146.828774 8.10077721,147.012162 Z" id="Path-92-Copy" fill="#0B4651"></path><polygon id="Combined-Shape" fill="url(#linearGradient-21)" points="23.0627366 84.6574586 33.8529689 84.6574586 36.3088235 119.204279 35.3942872 146.910889 32.8121431 147.718449 29.2426335 122.034407 21.3891445 96.3977957 19.4227208 117.978892 10.8474491 147.718449 7.70187166 148.425414 11.9286561 112.445539 10.8474491 85.8701699 22.3891279 85.8701699"></polygon><path d="M15.2006785,31.8839779 C23.3282463,33.7030159 28.8873887,40.7960071 31.8781055,53.1629514 C34.8688223,65.5298958 35.8453101,77.8604774 34.807569,90.1546961 L10.3898635,90.1546961 C9.33138054,72.9268082 8.80213904,59.6467534 8.80213904,50.3145319 C8.80213904,40.9823103 10.9349855,34.8387923 15.2006785,31.8839779 Z" id="Path-88" fill="#0B4651"></path><rect id="Rectangle-12" fill="url(#linearGradient-21)" transform="translate(57.764037, 53.872928) rotate(-4.000000) translate(-57.764037, -53.872928) " x="33.0080214" y="31.8839779" width="49.5120321" height="43.9779006"></rect><path d="M47.3114973,53.6328439 L50.4223286,56.5748726 C51.3473114,57.4496632 52.7919148,57.4581784 53.7271458,56.5943528 L63.815508,47.2762431" id="Path-28" stroke="#AAFFB0" stroke-width="3.63" stroke-linecap="round" stroke-linejoin="round" transform="translate(55.563503, 52.256440) scale(-1, 1) translate(-55.563503, -52.256440) "></path><path d="M51.0486569,65.9668508 C59.7992478,67.7025171 65.0293024,69.4849596 66.7388208,71.3141786 C70.4056605,75.2377705 69.938795,79.331733 66.7388208,79.1512214 C63.5388466,78.9707098 63.5942869,81.7331457 58.3255148,79.1512214 C57.0437673,76.6355057 56.4028935,75.3776478 56.4028935,75.3776478 C52.6702261,75.0918393 50.0065165,74.87245 48.4117647,74.7194799 L51.0486569,65.9668508 Z" id="Path-89" fill="#FFD7B3"></path><path d="M25.1095964,48.2745732 L37.4237216,64.1441048 C44.2924867,65.1667702 49.0554351,65.9387034 51.7125668,66.4599043 L49.364236,74.7624309 C39.2598808,73.8864543 33.6200878,72.8523573 32.4448569,71.6601397 C31.1986865,70.3959573 26.0093549,64.9259436 16.8768622,55.2500984 L16.8768773,55.2500842 C14.8395345,53.0915263 14.9377986,49.6900767 17.0963565,47.6527338 C17.1659725,47.5870271 17.2373316,47.5231922 17.3103574,47.4612972 L17.3103574,47.4612972 C19.5976022,45.522684 23.023337,45.8053056 24.9619503,48.0925504 C25.0124698,48.1521551 25.0616967,48.2128435 25.1095964,48.2745732 Z" id="Path-89-Copy-2" fill="#176574"></path><g id="Group-15"><path d="M16.2910557,7.23507396 L16.2910557,7.23507396 C22.6224902,7.23507396 27.755132,12.3677157 27.755132,18.6991502 L27.755132,22.2996022 C27.755132,28.6310367 22.6224902,33.7636785 16.2910557,33.7636785 L16.2910557,33.7636785 C9.95962124,33.7636785 4.82697947,28.6310367 4.82697947,22.2996022 L4.82697947,18.6991502 C4.82697947,12.3677157 9.95962124,7.23507396 16.2910557,7.23507396 Z" id="Rectangle-11" fill="#FFD7B3" transform="translate(16.291056, 20.499376) rotate(-16.000000) translate(-16.291056, -20.499376) "></path><path d="M11.1780517,32.4216948 C15.9436711,30.0715864 17.5486289,26.2252134 15.992925,20.882576 C14.4372212,15.5399385 17.5534602,12.2268759 25.3416422,10.9433882 C22.1727245,8.58535872 19.885398,7.50804263 18.479663,7.71143993 C7.7018687,9.27089049 1.45443582,17.4356918 1.59236245,20.882576 C1.7572735,25.0038197 4.95250324,28.8501926 11.1780517,32.4216948 Z" id="Path-94" fill="#0B4651"></path><path d="M29.0928854,11.4834992 L1.62837153,20.7801043 C-1.8442062,12.2466715 0.237290744,5.90659149 7.87286238,1.7598643 C14.0526901,-1.59627733 19.9799776,-0.152182387 25.6547247,6.09214912 C32.4719625,4.76950436 36.3156609,4.84908573 37.18582,6.33089322 C38.1122641,7.90854943 35.4146192,9.62608475 29.0928854,11.4834992 Z" id="Combined-Shape" fill="url(#linearGradient-21)"></path></g></g><g id="Group-20" transform="translate(409.399733, 289.795580)"><polygon id="Path-30" fill="url(#linearGradient-22)" points="6.14889223 0.118716924 26.8823567 1.67394565 43.5658608 14.1951016 22.5574569 15.8376618"></polygon><polygon id="Rectangle-15" fill="url(#linearGradient-3)" points="6.17189754 0.182108076 25.4568163 13.9001654 19.8179365 36.3037142 0.504701742 22.4035488"></polygon><polygon id="Path-29" fill="url(#linearGradient-23)" points="25.3406965 13.8607536 43.5028137 14.1673719 37.4794484 36.5829378 19.8161474 36.2999088"></polygon></g><rect id="Rectangle-21" fill="#33BAAA" x="678.965241" y="531.674033" width="79.2192513" height="10.9944751" rx="5.49723757"></rect><path d="" id="Path-32" stroke="#979797" stroke-width="1.1"></path><g id="Group-21" transform="translate(518.426471, 525.176796)"><g id="Group-19" transform="translate(43.250267, 35.054818)"><path d="M4.37182041,51.5209038 C25.336183,22.2084885 47.4215224,8.10348938 70.6278387,9.20590639 C77.0264717,9.50987372 83.738133,10.1348891 90.7628224,11.0809526 C88.692628,29.8139919 64.24175,19.3523299 66.0968606,25.0471788 C68.658206,32.910039 63.2959012,48.9078227 47.5821928,39.4695325 C31.8684843,30.0312423 36.9178327,62.4507734 20.6448266,56.9858386 C9.7961558,53.3425487 4.37182041,51.5209038 4.37182041,51.5209038 Z" id="Path-31" fill="#33BAAA" transform="translate(47.567321, 33.378508) rotate(-13.000000) translate(-47.567321, -33.378508) "></path><path d="M41.2608466,15.0834034 C41.6329266,15.9404084 41.9591088,17.0538334 42.2263035,18.4778398 C43.8599026,27.1840594 33.2288908,41.3074809 10.3332682,60.8481044 L9.56006946,60.7727888 C18.3179919,39.7047452 28.8849176,24.47495 41.2608466,15.0834034 Z" id="Combined-Shape" fill="#1C9486"></path><path d="M58.4689886,27.9317998 C50.0540661,23.7774624 40.6868631,24.1277511 30.3673797,28.9826659" id="Path-33" stroke="#0D6574" stroke-width="1.584"></path><path d="M75.6331597,12.1682926 C67.2182372,8.0139552 57.8510342,8.36424391 47.5315508,13.2191587" id="Path-33-Copy" stroke="#0D6574" stroke-width="1.584"></path><path d="M51.0111568,10.4476487 C31.9474408,25.1998192 20.345462,41.8766167 16.2052205,60.4780412" id="Path-34" stroke="#0D6574" stroke-width="1.584"></path></g><g id="Group-7-Copy-4" transform="translate(47.742781, 51.500000) scale(-1, 1) translate(-47.742781, -51.500000) translate(0.742781, 0.000000)"><path d="M5.34209158,70.1248807 C13.6346942,46.0380947 21.3781447,32.6141629 28.5724432,29.8530854 C39.363891,25.7114691 35.1703058,44.9189362 39.9592393,41.3783617 C44.7481727,37.8377873 49.2937785,22.4163704 57.9520898,22.4163704 C66.610401,22.4163704 58.1309353,36.8970609 63.3907135,33.4918204 C68.6504917,30.0865799 79.3920298,15.5248851 86.7177418,25.7114691 C94.0434538,35.898053 74.1835779,41.0589369 73.4769488,45.4049989 C72.7703196,49.7510608 82.6940363,47.9880871 80.9113876,54.5297629 C79.1287389,61.0714388 61.1189128,62.281823 57.9520898,66.0758826 C54.7852667,69.8699422 71.6860654,69.2402871 61.3259588,78.1284994 C54.4192212,84.0539743 35.7579321,81.3861014 5.34209158,70.1248807 Z M54.3439997,42.35943 C56.8208586,36.0074083 57.4400733,32.7839572 56.2016439,32.6890766 C54.9632144,32.5941961 54.3439997,35.8176472 54.3439997,42.35943 Z" id="Combined-Shape" fill="#33BAAA" transform="translate(46.839727, 51.671784) rotate(-60.000000) translate(-46.839727, -51.671784) "></path><path d="M5.17890742,73.4286024 C38.4297596,65.6901383 63.6662166,51.7866 80.8882785,31.7179875" id="Path-117" stroke="#0D6574" stroke-width="1.584" transform="translate(43.033593, 52.573295) rotate(-60.000000) translate(-43.033593, -52.573295) "></path><path d="M37.0521032,81.5851869 C40.0422443,76.9664595 41.4839551,69.7062849 41.3772358,59.8046631" id="Path-118" stroke="#0D6574" stroke-width="1.584" transform="translate(39.217428, 70.694925) rotate(-60.000000) translate(-39.217428, -70.694925) "></path><path d="M47.4223069,37.0990876 C56.2200177,36.6120339 62.1937826,38.1335148 65.3436018,41.6635303" id="Path-119" stroke="#0D6574" stroke-width="1.584" transform="translate(56.382954, 39.337019) rotate(-60.000000) translate(-56.382954, -39.337019) "></path><path d="M43.6516365,21.8842752 L43.819693,14.6885952" id="Path-120" stroke="#0D6574" stroke-width="1.584" transform="translate(43.735665, 18.286435) rotate(-60.000000) translate(-43.735665, -18.286435) "></path></g></g><rect id="Rectangle-23" fill="#27A192" x="685.566845" y="384.348066" width="11.0026738" height="23.0883978" rx="5.5013369"></rect><ellipse id="Oval-14" fill="#94EFAB" cx="691.068182" cy="389.845304" rx="2.20053476" ry="2.19889503"></ellipse><ellipse id="Oval-14-Copy" fill="#94EFAB" cx="691.068182" cy="401.939227" rx="2.20053476" ry="2.19889503"></ellipse><ellipse id="Oval-15" stroke="#6DCCAA" stroke-width="3.3" fill="#0F7889" cx="740.580214" cy="610.834254" rx="8.25240642" ry="8.24502762"></ellipse><g id="Group-22" opacity="0.400000006" transform="translate(729.772902, 395.624261) rotate(-315.000000) translate(-729.772902, -395.624261) translate(723.772902, 389.624261)" stroke="#FFFFFF" stroke-linecap="round" stroke-linejoin="round" stroke-width="3.3"><path d="M5.5542565,0 L5.5542565,11.1002355" id="Path-49"></path><path d="M11.108513,5.55011774 L2.27373675e-13,5.55011774" id="Path-49-Copy"></path></g></g></g></g></g></svg> 