<?xml version="1.0" encoding="UTF-8"?> <svg xmlns="http://www.w3.org/2000/svg" xmlns:xlink="http://www.w3.org/1999/xlink" width="1044px" height="347px" viewBox="0 0 1044 347"><!-- Generator: Sketch 52.5 (67469) - http://www.bohemiancoding.com/sketch --><title>Accelerate Growth</title><desc>Created with Sketch.</desc><defs><linearGradient x1="37.2317484%" y1="-28.4070924%" x2="77.4556031%" y2="121.574059%" id="linearGradient-1"><stop stop-color="#7ECC79" offset="0%"></stop><stop stop-color="#42BEA0" offset="64.9853166%"></stop><stop stop-color="#26A495" offset="100%"></stop></linearGradient><path d="M9.66364435,0 L9.66364435,0 C15.0007278,-9.80406316e-16 19.3272887,4.32656095 19.3272887,9.66364435 L19.3272887,31.7056805 L0,31.7056805 L0,9.66364435 C-6.53604211e-16,4.32656095 4.32656095,9.80406316e-16 9.66364435,0 Z" id="path-2"></path><path d="M9.66364435,0 L9.66364435,0 C15.0007278,-9.80406316e-16 19.3272887,4.32656095 19.3272887,9.66364435 L19.3272887,31.7056805 L0,31.7056805 L0,9.66364435 C-6.53604211e-16,4.32656095 4.32656095,9.80406316e-16 9.66364435,0 Z" id="path-4"></path><path d="M9.66364435,0 L9.66364435,0 C15.0007278,-9.80406316e-16 19.3272887,4.32656095 19.3272887,9.66364435 L19.3272887,31.7056805 L0,31.7056805 L1.77635684e-15,9.66364435 C1.12275263e-15,4.32656095 4.32656095,9.80406316e-16 9.66364435,0 Z" id="path-6"></path><path d="M15.4866095,0 L15.4866095,0 C23.8600144,-1.53816952e-15 30.6480003,6.78798585 30.6480003,15.1613907 L30.6480003,68.1456933 L0.3252188,68.1456933 L0.3252188,15.1613907 C0.3252188,6.78798585 7.11320465,1.53816952e-15 15.4866095,0 Z" id="path-8"></path><linearGradient x1="100%" y1="0%" x2="71.2057784%" y2="131.470492%" id="linearGradient-10"><stop stop-color="#D2EFEC" offset="0%"></stop><stop stop-color="#C7EBE7" offset="100%"></stop></linearGradient><linearGradient x1="57.6964029%" y1="-28.1753217%" x2="43.1413235%" y2="92.9334256%" id="linearGradient-11"><stop stop-color="#7ECC79" offset="0%"></stop><stop stop-color="#33BAAA" offset="100%"></stop></linearGradient><linearGradient x1="57.6964029%" y1="-28.1753217%" x2="43.1413235%" y2="92.9334256%" id="linearGradient-12"><stop stop-color="#7ECC79" offset="0%"></stop><stop stop-color="#69C787" offset="100%"></stop></linearGradient><linearGradient x1="140.989807%" y1="-227.888526%" x2="43.1413235%" y2="92.9334256%" id="linearGradient-13"><stop stop-color="#40AD86" offset="0%"></stop><stop stop-color="#1F9D8E" offset="100%"></stop></linearGradient><linearGradient x1="33.372166%" y1="12.8226055%" x2="76.8670764%" y2="91.8805621%" id="linearGradient-14"><stop stop-color="#289880" offset="0%"></stop><stop stop-color="#58B87C" offset="100%"></stop></linearGradient><linearGradient x1="34.0727864%" y1="0%" x2="77.4556031%" y2="121.574059%" id="linearGradient-15"><stop stop-color="#1E826C" offset="0%"></stop><stop stop-color="#1B7E6A" offset="100%"></stop></linearGradient><path d="M17.87393,46.4295775 C27.7454289,46.4295775 35.7478599,36.0359625 35.7478599,23.2147887 C35.7478599,10.3936149 27.7454289,2.00470228e-13 17.87393,2.00470228e-13 C16.547841,2.00470228e-13 14.4956123,1.33646819e-13 11.7172438,0 C3.90574793,8.65141051 0,16.3896734 0,23.2147887 C0,30.0877517 3.90574793,37.8260147 11.7172438,46.4295775 C14.532452,46.4295775 16.5846807,46.4295775 17.87393,46.4295775 Z" id="path-16"></path><linearGradient x1="34.0727864%" y1="0%" x2="77.4556031%" y2="121.574059%" id="linearGradient-18"><stop stop-color="#5DBC7C" offset="0%"></stop><stop stop-color="#1A8E81" offset="100%"></stop></linearGradient><linearGradient x1="34.0727864%" y1="0%" x2="77.4556031%" y2="121.574059%" id="linearGradient-19"><stop stop-color="#237C62" offset="0%"></stop><stop stop-color="#127266" offset="100%"></stop></linearGradient><ellipse id="path-20" cx="14.7459922" cy="18.7504063" rx="14.7459922" ry="18.7504063"></ellipse><linearGradient x1="34.0727864%" y1="0%" x2="77.4556031%" y2="121.574059%" id="linearGradient-22"><stop stop-color="#278F70" offset="0%"></stop><stop stop-color="#127266" offset="100%"></stop></linearGradient><path d="M17.87393,46.4295775 C27.7454289,46.4295775 35.7478599,36.0359625 35.7478599,23.2147887 C35.7478599,10.3936149 27.7454289,2.00470228e-13 17.87393,2.00470228e-13 C16.547841,2.00470228e-13 14.4956123,1.33646819e-13 11.7172438,0 C3.90574793,8.65141051 0,16.3896734 0,23.2147887 C0,30.0877517 3.90574793,37.8260147 11.7172438,46.4295775 C14.532452,46.4295775 16.5846807,46.4295775 17.87393,46.4295775 Z" id="path-23"></path><ellipse id="path-25" cx="14.7459922" cy="18.7504063" rx="14.7459922" ry="18.7504063"></ellipse><path d="M17.87393,46.4295775 C27.7454289,46.4295775 35.7478599,36.0359625 35.7478599,23.2147887 C35.7478599,10.3936149 27.7454289,2.00470228e-13 17.87393,2.00470228e-13 C16.547841,2.00470228e-13 14.4956123,1.33646819e-13 11.7172438,0 C3.90574793,8.65141051 0,16.3896734 0,23.2147887 C0,30.0877517 3.90574793,37.8260147 11.7172438,46.4295775 C14.532452,46.4295775 16.5846807,46.4295775 17.87393,46.4295775 Z" id="path-27"></path><ellipse id="path-29" cx="14.7459922" cy="18.7504063" rx="14.7459922" ry="18.7504063"></ellipse></defs><g id="Pages" stroke="none" stroke-width="1" fill="none" fill-rule="evenodd"><g id="Business-Intelligence" transform="translate(-304.000000, -4962.000000)"><g id="Accelerate-Growth" transform="translate(304.000000, 4605.000000)"><g transform="translate(0.000000, 357.000000)"><path d="M138.116732,227.567278 L324.711186,227.567278 C306.194974,226.06718 296.255004,223.744218 294.891275,220.598392 C292.845682,215.879654 290.574999,211.925398 284.634024,211.308106 C278.693049,210.690815 276.407594,215.909767 270.643515,215.488121 C264.879436,215.066474 265.616878,208.164276 258.399132,207.254982 C251.181385,206.345688 250.093381,212.12704 245.17239,212.12704 C240.251399,212.12704 239.927475,188.012541 221.219853,186.59177 C202.512231,185.170998 204.994855,209.901667 197.177041,212.12704 C189.359226,214.352413 186.688952,210.233862 179.488676,216.531433 C174.688493,220.729814 160.897844,224.408429 138.116732,227.567278 Z" id="Path-113-Copy-9" fill="#D6F1EE"></path><g id="Group-74-Copy" transform="translate(60.121401, 102.633803)"><polygon id="Rectangle-54" fill="#075B6A" points="1.36282164 42.2503299 10.2211623 42.2503299 10.2211623 78.3675473 1.36282164 78.3675473"></polygon><polygon id="Rectangle-54-Copy-2" fill="#075B6A" points="136.282164 42.2503299 145.140505 42.2503299 145.140505 78.3675473 136.282164 78.3675473"></polygon><polygon id="Rectangle-54-Copy" fill="#075B6A" points="1.36282164 113.803308 10.2211623 113.803308 10.2211623 149.920525 1.36282164 149.920525"></polygon><rect id="Rectangle-54-Copy-3" fill="#075B6A" x="136.282164" y="113.803308" width="8.85834066" height="36.1172175"></rect><rect id="Rectangle-25" fill="url(#linearGradient-1)" x="4.08846492" y="0" width="138.326396" height="207.844365"></rect><path d="M54.4342412,81.4553991 L61.2483494,81.4553991 L61.2483494,84.1812268 L54.4342412,84.1812268 L54.4342412,81.4553991 Z M57.8412953,84.8626837 L64.6554035,84.8626837 L64.6554035,87.5885115 L57.8412953,87.5885115 L57.8412953,84.8626837 Z M61.9297603,81.4553991 L68.7438685,81.4553991 L68.7438685,84.1812268 L61.9297603,84.1812268 L61.9297603,81.4553991 Z" id="Combined-Shape" fill="#075B6A" opacity="0.5"></path><path d="M11.3743191,20.3638498 L18.1884273,20.3638498 L18.1884273,23.0896775 L11.3743191,23.0896775 L11.3743191,20.3638498 Z M14.7813732,23.7711344 L21.5954814,23.7711344 L21.5954814,26.4969622 L14.7813732,26.4969622 L14.7813732,23.7711344 Z M18.8698381,20.3638498 L25.6839463,20.3638498 L25.6839463,23.0896775 L18.8698381,23.0896775 L18.8698381,20.3638498 Z" id="Combined-Shape-Copy-2" fill="#075B6A" opacity="0.5"></path><path d="M126.742412,178.387324 L133.556521,178.387324 L133.556521,181.113152 L126.742412,181.113152 L126.742412,178.387324 Z M130.149467,181.794609 L136.963575,181.794609 L136.963575,184.520436 L130.149467,184.520436 L130.149467,181.794609 Z M134.237931,178.387324 L141.05204,178.387324 L141.05204,181.113152 L134.237931,181.113152 L134.237931,178.387324 Z" id="Combined-Shape-Copy-3" fill="#075B6A" opacity="0.5"></path><g id="Group-71" transform="translate(19.760914, 42.250330)"><g id="Group-70" transform="translate(4.986688, 0.000000)"><mask id="mask-3" fill="white"><use xlink:href="#path-2"></use></mask><path stroke="#075B6A" stroke-width="2.716164" d="M9.66364435,-1.358082 C15.7507757,-1.358082 20.6853707,3.57651297 20.6853707,9.66364435 L20.6853707,33.0637625 L-1.358082,33.0637625 L-1.358082,9.66364435 C-1.358082,3.57651297 3.57651297,-1.358082 9.66364435,-1.358082 Z"></path><path d="M10.2676221,17.3800252 L27.9553831,17.3800252 C28.1221669,17.3800252 28.257372,17.5152303 28.257372,17.6820141 C28.257372,17.848798 28.1221669,17.984003 27.9553831,17.984003 L10.2676221,17.984003 L10.2676221,34.4523147 C10.2676221,34.6190986 10.1324171,34.7543036 9.96563324,34.7543036 C9.79884938,34.7543036 9.66364435,34.6190986 9.66364435,34.4523147 L9.66364435,17.984003 L-8.02411661,17.984003 C-8.19090047,17.984003 -8.3261055,17.848798 -8.3261055,17.6820141 C-8.3261055,17.5152303 -8.19090047,17.3800252 -8.02411661,17.3800252 L9.66364435,17.3800252 L9.66364435,-1.52718499 C9.66364435,-1.69396884 9.79884938,-1.82917387 9.96563324,-1.82917387 C10.1324171,-1.82917387 10.2676221,-1.69396884 10.2676221,-1.52718499 L10.2676221,17.3800252 Z" id="Combined-Shape" fill="#075B6A" opacity="0.500622736" mask="url(#mask-3)"></path></g><polygon id="Rectangle-44" fill="#075B6A" points="0.34070541 31.0959559 28.9599598 31.0959559 28.9599598 34.7543036 0.34070541 34.7543036"></polygon></g><g id="Group-71-Copy" transform="translate(87.901996, 42.250330)"><g id="Group-70" transform="translate(4.986688, 0.000000)"><mask id="mask-5" fill="white"><use xlink:href="#path-4"></use></mask><path stroke="#075B6A" stroke-width="2.716164" d="M9.66364435,-1.358082 C15.7507757,-1.358082 20.6853707,3.57651297 20.6853707,9.66364435 L20.6853707,33.0637625 L-1.358082,33.0637625 L-1.358082,9.66364435 C-1.358082,3.57651297 3.57651297,-1.358082 9.66364435,-1.358082 Z"></path><path d="M10.2676221,17.3800252 L27.9553831,17.3800252 C28.1221669,17.3800252 28.257372,17.5152303 28.257372,17.6820141 C28.257372,17.848798 28.1221669,17.984003 27.9553831,17.984003 L10.2676221,17.984003 L10.2676221,34.4523147 C10.2676221,34.6190986 10.1324171,34.7543036 9.96563324,34.7543036 C9.79884938,34.7543036 9.66364435,34.6190986 9.66364435,34.4523147 L9.66364435,17.984003 L-8.02411661,17.984003 C-8.19090047,17.984003 -8.3261055,17.848798 -8.3261055,17.6820141 C-8.3261055,17.5152303 -8.19090047,17.3800252 -8.02411661,17.3800252 L9.66364435,17.3800252 L9.66364435,-1.52718499 C9.66364435,-1.69396884 9.79884938,-1.82917387 9.96563324,-1.82917387 C10.1324171,-1.82917387 10.2676221,-1.69396884 10.2676221,-1.52718499 L10.2676221,17.3800252 Z" id="Combined-Shape" fill="#075B6A" opacity="0.500622736" mask="url(#mask-5)"></path></g><polygon id="Rectangle-44" fill="#075B6A" points="0.34070541 31.0959559 28.9599598 31.0959559 28.9599598 34.7543036 0.34070541 34.7543036"></polygon></g><g id="Group-71-Copy-2" transform="translate(87.901996, 115.166222)"><g id="Group-70" transform="translate(4.986688, 0.000000)"><mask id="mask-7" fill="white"><use xlink:href="#path-6"></use></mask><path stroke="#075B6A" stroke-width="2.716164" d="M9.66364435,-1.358082 C15.7507757,-1.358082 20.6853707,3.57651297 20.6853707,9.66364435 L20.6853707,33.0637625 L-1.358082,33.0637625 L-1.358082,9.66364435 C-1.358082,3.57651297 3.57651297,-1.358082 9.66364435,-1.358082 Z"></path><path d="M10.2676221,17.3800252 L27.9553831,17.3800252 C28.1221669,17.3800252 28.257372,17.5152303 28.257372,17.6820141 C28.257372,17.848798 28.1221669,17.984003 27.9553831,17.984003 L10.2676221,17.984003 L10.2676221,34.4523147 C10.2676221,34.6190986 10.1324171,34.7543036 9.96563324,34.7543036 C9.79884938,34.7543036 9.66364435,34.6190986 9.66364435,34.4523147 L9.66364435,17.984003 L-8.02411661,17.984003 C-8.19090047,17.984003 -8.3261055,17.848798 -8.3261055,17.6820141 C-8.3261055,17.5152303 -8.19090047,17.3800252 -8.02411661,17.3800252 L9.66364435,17.3800252 L9.66364435,-1.52718499 C9.66364435,-1.69396884 9.79884938,-1.82917387 9.96563324,-1.82917387 C10.1324171,-1.82917387 10.2676221,-1.69396884 10.2676221,-1.52718499 L10.2676221,17.3800252 Z" id="Combined-Shape" fill="#075B6A" opacity="0.500622736" mask="url(#mask-7)"></path></g><rect id="Rectangle-44" fill="#075B6A" x="0.34070541" y="31.0959559" width="28.6192544" height="3.65834775"></rect></g><g id="Group-71-Copy-4" transform="translate(18.398092, 115.166222)"><g id="Group-70" transform="translate(0.526545, 0.000000)"><mask id="mask-9" fill="white"><use xlink:href="#path-8"></use></mask><path stroke="#075B6A" stroke-width="2.716164" d="M15.4866095,-1.358082 C24.6100624,-1.358082 32.0060823,6.03793787 32.0060823,15.1613907 L32.0060823,69.5037753 L-1.0328632,69.5037753 L-1.0328632,15.1613907 C-1.0328632,6.03793787 6.36315667,-1.358082 15.4866095,-1.358082 Z"></path><ellipse id="Oval-29" fill="url(#linearGradient-10)" mask="url(#mask-9)" cx="26.9157274" cy="32.385176" rx="1.70352705" ry="1.70364233"></ellipse></g></g><rect id="Rectangle-25-Copy" fill="#075B6A" x="0" y="0" width="147.866148" height="14.9920525"></rect><g id="Group-27" transform="translate(23.849379, 170.787738)"></g><g id="Group-72" transform="translate(2.044232, 153.327810)"><path d="M55.8756872,0 L55.8756872,30.42178" id="Path-95" stroke="#075B6A" stroke-width="2.037123"></path><polygon id="Path-91" fill="#075B6A" points="57.6680091 29.3026481 65.9790647 29.3026481 65.9790647 34.9339887 75.0239149 34.9339887 75.0239149 42.5005975 83.6907066 42.5005975 83.6907066 47.8211191 91.9063137 47.8211191 91.9063137 54.5111651 56.557098 54.5111651"></polygon><polygon id="Rectangle-52" fill="#1B7A8B" points="0 29.3026481 58.6013305 29.3026481 58.6013305 54.5165547 0 54.5165547"></polygon></g><polyline id="Path-93" stroke="#075B6A" stroke-width="2.037123" points="7.12945261 182.737297 7.12945261 153.401309 59.0847994 153.401309 91.8756489 182.589196 91.8756489 207.847136"></polyline></g><path d="M0,59.7747522 L153.283948,59.7747522 C138.073217,58.5424488 129.907713,56.6341779 128.787434,54.0499394 C127.107017,50.1735817 125.241692,46.9252327 120.361289,46.4181386 C115.480886,45.9110446 113.603427,50.198319 108.868341,49.8519441 C104.133255,49.5055692 104.73905,43.8355393 98.8098029,43.0885709 C92.8805555,42.3416024 91.9867795,47.0908779 87.9442751,47.0908779 C83.9017706,47.0908779 83.6356729,27.2812558 68.2677019,26.1141177 C52.8997309,24.9469795 54.9391615,45.2627745 48.5169693,47.0908779 C42.094777,48.9189813 39.9011952,45.5356663 33.9862998,50.7090063 C30.0430362,54.1578997 18.7142696,57.179815 0,59.7747522 Z" id="Path-113-Copy" fill="#D6F1EE"></path><path d="M885.571984,279.961784 L1043.73064,279.961784 C1028.03618,278.690291 1002.78821,270.080803 997.902536,269.723413 C993.016866,269.366022 993.641927,263.515675 987.524119,262.744952 C981.40631,261.974228 980.484111,266.874539 976.313047,266.874539 C972.141984,266.874539 971.867424,246.434935 956.010723,245.23068 C940.154023,244.026425 942.258311,264.988299 935.631882,266.874539 C929.005452,268.76078 926.74211,265.269869 920.63911,270.607731 C916.570444,274.166305 904.881402,277.284323 885.571984,279.961784 Z" id="Path-113-Copy-10" fill="#D6F1EE" transform="translate(964.651313, 262.571268) scale(-1, 1) translate(-964.651313, -262.571268) "></path><path d="M992.015673,123.304367 L909.133074,123.304367 C917.357712,122.638045 921.772905,121.606218 922.378654,120.208887 C923.287277,118.112891 924.295882,116.356467 926.934778,116.082275 C929.573675,115.808082 930.588842,118.126267 933.149163,117.938977 C935.709485,117.751688 935.381924,114.68583 938.587944,114.281935 C941.793964,113.878039 942.27724,116.446034 944.463074,116.446034 C946.648909,116.446034 946.792791,105.734716 955.10245,105.10363 C963.41211,104.472543 962.309363,115.457555 965.781925,116.446034 C969.254487,117.434513 970.440585,115.605111 973.638845,118.402402 C975.771018,120.267263 981.896628,121.901251 992.015673,123.304367 Z" id="Path-113-Copy-11" fill="#D6F1EE"></path><path d="M10.5618677,311.159624 L1002.17748,311.159624" id="Path-37" stroke="#39AB8C" stroke-width="1.608255" stroke-linecap="square"></path><g id="Group-69-Copy" transform="translate(742.453307, 312.908451) scale(-1, 1) translate(-742.453307, -312.908451) translate(704.953307, 285.908451)"><path d="M21.3646693,49.9660974 L42.8197222,49.9660974 C40.0084431,44.9648934 36.432601,42.4391518 32.0921957,42.3888725 C27.7517905,42.3385932 24.1759484,44.8643349 21.3646693,49.9660974 Z" id="Path-83" fill="#0D505D"></path><g id="Group-68" transform="translate(48.542233, 25.731808) rotate(-20.000000) translate(-48.542233, -25.731808) translate(27.542233, 6.231808)"><path d="M41.7305121,36.8946142 C41.5842744,23.6619851 39.1820333,15.3510508 34.5237887,11.9618113 C32.5001175,10.4894313 30.7995759,18.4946085 28.6705616,18.0904158 C26.9340349,17.7607368 28.6705616,5.2385018 22.9247819,5.87329263 C19.6483396,6.23527231 5.58462,-1.82045184 1.23497795,0.764878746 C-1.62553073,2.46510155 1.36602397,5.58295399 3.14680947,6.90082787 C4.94630076,8.232545 11.3243284,9.40821689 4.18817911,15.5368215 C-4.17372282,22.7181161 17.5496805,18.7678583 17.5496805,30.233299 C17.5496805,36.8789641 23.6426347,39.4251127 35.828543,37.8717447 C37.0484933,37.7162346 39.0158163,37.3905244 41.7305121,36.8946142 Z" id="Combined-Shape" fill="#2EAD9E" transform="translate(20.890174, 19.282794) scale(-1, 1) translate(-20.890174, -19.282794) "></path><path d="M33.8921648,21.326068 C29.5346825,22.6664523 24.2306668,24.5679167 24.2306668,30.233299 C24.2306668,31.4500117 24.0264332,32.5293102 23.6179661,33.4711944 C17.6080651,35.8600224 20.4934696,35.0377315 22.547928,35.1502412 C20.6691024,37.2631298 17.2169553,38.3174419 12.1914866,38.3131776 C16.590415,28.7007692 22.2895495,23.2633674 29.2888903,22.0009722 C30.76019,21.7356098 32.2946148,21.5106417 33.8921648,21.326068 Z" id="Combined-Shape" fill="#0D6574" opacity="0.320652174"></path><path d="M9.19783549,29.0324847 C14.6609797,26.599586 18.7024485,25.7886198 21.3222418,26.599586" id="Path-86" stroke="#0D6574" stroke-width="0.623808"></path><path d="M18.2381323,18.7617943 C23.7012765,16.3288956 27.7427453,15.5179294 30.3625386,16.3288956" id="Path-86-Copy" stroke="#0D6574" stroke-width="0.623808"></path><path d="M9.56880677,18.8705008 C10.4264685,23.964326 10.0240891,27.6406741 8.36166863,29.8995452" id="Path-87-Copy" stroke="#0D6574" stroke-width="0.623808"></path><path d="M5.20472744,34.5712699 C15.2283664,21.3791489 22.631597,13.0467116 27.414419,9.57395793" id="Path-85" stroke="#0D6574" stroke-width="0.623808"></path></g><path d="M33.6860204,28.7659705 C37.183721,34.5622548 40.0081603,41.0120651 42.1593386,48.1154011 C39.0521477,48.0176723 35.3970419,47.5512904 31.1940212,46.7162555 C31.2781446,39.1041697 32.108811,33.1207414 33.6860204,28.7659705 Z" id="Combined-Shape" fill="#0D6574" opacity="0.320652174" transform="translate(36.676680, 38.440686) rotate(-15.000000) translate(-36.676680, -38.440686) "></path><g id="Group-67" transform="translate(0.000000, 17.967181)"><path d="M38.0455923,29.6387397 C31.0506764,12.8724147 21.7706971,3.44597125 10.2056544,1.35940926 C7.01684734,0.784085522 3.6371595,0.330949104 0.0665908464,0 C-1.04705023,9.4323206 12.1977321,7.06443917 10.6344861,9.65053184 C8.47611722,13.221142 7.64823991,14.6967548 18.1181644,18.8284587 C31.3517948,24.0507927 20.5296526,20.5354262 18.6835481,22.3672533 C13.8205638,27.1926286 24.1818696,30.9868068 29.4013007,30.4792849 L38.0455923,29.6387397 Z" id="Path-31" fill="#33BAAA"></path><path d="M31.3562574,17.5646748 C27.4602885,16.8118786 24.2549821,17.8319619 21.7403384,20.6249248" id="Path-33" stroke="#0D6574" stroke-width="0.5926176" transform="translate(26.548298, 18.974931) scale(-1, 1) translate(-26.548298, -18.974931) "></path><path d="M34.2828414,23.5124142 C31.2794994,23.5216743 28.7709988,24.6216703 26.7573396,26.8124022" id="Path-33-Copy-3" stroke="#0D6574" stroke-width="0.5926176" transform="translate(30.520090, 25.162408) scale(-1, 1) translate(-30.520090, -25.162408) "></path><path d="M25.9211727,11.9522471 C21.8989945,9.63303506 17.3000767,9.77393763 12.1244195,12.3749549" id="Path-33-Copy-2" stroke="#0D6574" stroke-width="0.5926176" transform="translate(19.022796, 11.343709) scale(-1, 1) translate(-19.022796, -11.343709) "></path><path d="M34.7009248,1.23749549 C18.3727839,1.75634796 7.50261468,11.1063139 2.09041716,29.2873932" id="Path-34" stroke="#0D6574" stroke-width="0.5926176" transform="translate(18.395671, 15.262444) scale(-1, 1) translate(-18.395671, -15.262444) "></path></g><g id="Group-67-Copy" transform="translate(58.327412, 40.416346) scale(-1, 1) rotate(-17.000000) translate(-58.327412, -40.416346) translate(45.827412, 30.416346)"><path d="M24.4912062,19.0730309 C19.9883475,8.28361688 14.0145178,2.21754086 6.5697173,0.874802877 C4.51697674,0.504572312 2.34135988,0.212971353 0.0428667305,-3.69482223e-13 C-0.674020866,6.06985804 7.85208364,4.54608624 6.84577049,6.21028067 C5.45635703,8.50802876 4.92342502,9.45761058 11.6632617,12.116432 C20.1821874,15.4770924 13.2156164,13.2148945 12.027218,14.3937063 C8.89675408,17.498917 15.5666693,19.9405349 18.9265898,19.613936 L24.4912062,19.0730309 Z" id="Path-31" fill="#33BAAA"></path><path d="M20.3224903,11.5226424 C17.7890058,11.0509537 15.7046478,11.6901198 14.0694163,13.4401408" id="Path-33" stroke="#0D6574" stroke-width="0.5926176" transform="translate(17.195953, 12.406284) scale(-1, 1) translate(-17.195953, -12.406284) "></path><path d="M21.8857588,15.5078548 C20.0141108,15.513657 18.4508424,16.202895 17.1959533,17.5755688" id="Path-33-Copy-3" stroke="#0D6574" stroke-width="0.5926176" transform="translate(19.540856, 16.541712) scale(-1, 1) translate(-19.540856, -16.541712) "></path><path d="M16.6748638,7.9530225 C14.0923321,6.20920988 11.1394917,6.31515434 7.81634241,8.2708559" id="Path-33-Copy-2" stroke="#0D6574" stroke-width="0.5926176" transform="translate(12.245603, 7.495463) scale(-1, 1) translate(-12.245603, -7.495463) "></path><path d="M22.9279377,1.03385699 C12.2306087,1.36852263 5.10905229,7.39935506 1.56326848,19.1263543" id="Path-34" stroke="#0D6574" stroke-width="0.5926176" transform="translate(12.245603, 10.080106) scale(-1, 1) translate(-12.245603, -10.080106) "></path></g><path d="M33.8708171,50.3215326 L55.3258701,50.3215326 C51.1292663,44.7387031 46.8607618,41.9221487 42.5203566,41.8718694 C38.1799514,41.8215901 35.2967716,44.6381445 33.8708171,50.3215326 Z" id="Path-83-Copy" fill="#176574"></path><path d="M46.376965,50.3215326 L67.8320179,50.3215326 C63.6354142,44.7387031 59.3669097,41.9221487 55.0265045,41.8718694 C50.6860993,41.8215901 47.8029194,44.6381445 46.376965,50.3215326 Z" id="Path-83-Copy-2" fill="#0D505D"></path></g><g id="Group-66" transform="translate(209.362646, 108.335681)"><g id="Group-61" transform="translate(14.873930, 0.000000)"></g><g id="Group-65" transform="translate(0.597999, 55.895257)"></g></g><g id="Group-74" transform="translate(298.169650, 31.767606)"><polygon id="Rectangle-60-Copy-2" fill="#075B6A" points="60.9338521 177.57277 111.305837 177.57277 111.305837 280.206573 60.9338521 280.206573"></polygon><rect id="Rectangle-60-Copy-10" fill="url(#linearGradient-1)" x="0" y="228.889671" width="50.3719844" height="51.3169014"></rect><rect id="Rectangle-60-Copy-11" fill="url(#linearGradient-1)" x="121.867704" y="156.394366" width="50.3719844" height="123.812207"></rect><polygon id="Rectangle-60-Copy-12" fill="#075B6A" points="182.801556 127.884977 233.173541 127.884977 233.173541 280.206573 182.801556 280.206573"></polygon><polygon id="Rectangle-60-Copy-13" fill="url(#linearGradient-1)" points="243.735409 92.8591549 294.107393 92.8591549 294.107393 280.206573 243.735409 280.206573"></polygon><polygon id="Rectangle-60-Copy-14" fill="#075B6A" points="304.669261 39.9131455 355.041245 39.9131455 355.041245 280.206573 304.669261 280.206573"></polygon><polygon id="Rectangle-60-Copy-15" fill="url(#linearGradient-1)" points="365.603113 0 415.975097 0 415.975097 280.206573 365.603113 280.206573"></polygon><path d="M391.10154,0 L415.975097,0 L415.975097,23.4094089 C403.246173,22.2937155 392.991972,12.5224835 391.10154,-4.4408921e-16 Z" id="Combined-Shape" fill="#0D6574" opacity="0.209999993"></path><polygon id="Path-81" fill="#176574" points="90.5263627 102.678464 94.2755044 113.524923 106.049042 122.086368 105.891273 124.913626 94.2755044 120.948212 87.6927247 112.245462"></polygon><path d="M83.9382166,82.2732113 L83.0098398,85.2339331 C83.0190122,86.1457071 82.098912,87.3301403 82.1259361,88.0814059 C82.1430115,88.5560979 83.0969756,88.6446115 83.1317481,89.0578764 C83.3670648,91.8545741 84.1013323,93.2682354 86.6029637,93.6174444 C87.5280471,93.7465791 90.1520395,94.2379853 89.3223828,93.853247 C88.8138936,93.6174444 88.5754143,97.9143375 88.7511107,97.8738653 C88.9268072,97.833393 93.1171677,96.6080164 93.5375423,95.6803982 C93.831628,95.0314551 92.6844952,92.6737223 92.9614546,92.4993569 C94.2581905,91.6829705 94.7969897,90.6925973 95.2599153,89.2082521 C95.3117917,89.0419133 95.3627153,88.8693713 95.4136459,88.6901758 L96.0302854,86.5205761 C97.1146527,82.7053112 85.0225839,78.4579463 83.9382166,82.2732113 Z" id="Rectangle-11" fill="#FFD7B3" transform="translate(89.112178, 89.326121) scale(-1, 1) translate(-89.112178, -89.326121) "></path><path d="M87.8003295,93.6169353 C89.9291575,89.0635505 83.6021007,85.6241729 84.515977,83.7601392 C82.2609849,84.1581708 80.0242713,84.3423814 79.4300184,82.7444261 C78.6450124,80.6335328 81.6350313,77.7073937 85.0639792,77.1806832 C88.7427985,76.6155908 93.8092954,78.2379062 92.51122,80.152722 C94.7719495,80.152722 95.8705224,83.6258116 95.5453101,86.1803234 C95.2200978,88.7348353 93.496193,94.1165316 87.8003295,93.6169353 Z" id="Path-94" fill="#0B4651" transform="translate(87.452486, 85.358094) scale(-1, 1) translate(-87.452486, -85.358094) "></path><ellipse id="Oval-27" fill="#FFD7B3" cx="87.7447471" cy="87.1416125" rx="1.94281847" ry="1.95806248"></ellipse><path d="M61.8707271,169.390469 C61.8707271,169.466993 61.5500422,170.625657 60.9086723,172.86646 L72.3119773,172.86646 L72.2122161,172.067857 C70.0052076,171.104376 64.5514323,170.120158 64.4767988,169.615237 C62.7394177,169.388868 61.8707271,169.313945 61.8707271,169.390469 Z" id="Path-92-Copy" fill="#0B4651" transform="translate(66.610325, 171.113965) rotate(35.000000) translate(-66.610325, -171.113965) "></path><path d="M97.6072707,175.701447 L96.4231245,178.618799 L109.506837,178.618799 L108.924461,177.505763 C104.321077,176.359797 99.2825674,175.866034 99.216447,175.367576 L97.6072707,175.701447 Z" id="Path-92-Copy-2" fill="#0B4651"></path><polygon id="Combined-Shape" fill="#176574" points="89.8588598 128.393707 102.69794 151.339437 100.398627 175.833378 97.5263482 176.025324 97.6055753 154.559608 85.1649173 137.661153 84.3592543 152.918522 65.7838176 169.726089 63.4926883 167.352715 77.9203906 151.339437 77.9203906 127.346279"></polygon><path d="M83.1515152,95.722182 C92.6508074,95.154292 91.7623664,102.632496 91.7623664,110.125941 C91.7623664,117.619387 90.3217108,124.813881 91.131698,130.334298 L78.610265,128.671753 C78.0598361,117.569315 77.6255208,111.900751 77.7440159,105.893078 C77.8625109,99.8854041 80.0142031,97.5764784 83.1515152,95.722182 Z" id="Path-88" fill="url(#linearGradient-11)"></path><polygon id="Path-80" fill="url(#linearGradient-12)" fill-rule="nonzero" points="80.5990095 133.807148 81.496605 137.086279 82.3642344 136.849143 81.2596887 132.813972 73.0246952 133.893995 73.0246952 138.126428 73.924195 138.126428 73.924195 134.682552"></polygon><polygon id="Rectangle-24" fill="url(#linearGradient-12)" transform="translate(79.171209, 145.496196) rotate(-4.000000) translate(-79.171209, -145.496196) " points="66.3308505 136.957423 92.0115669 136.957423 92.0115669 154.034968 66.3308505 154.034968"></polygon><rect id="Rectangle-24-Copy" fill="url(#linearGradient-13)" transform="translate(78.923847, 141.002105) rotate(-4.000000) translate(-78.923847, -141.002105) " x="65.4313508" y="136.957423" width="26.9849917" height="8.08936377"></rect><ellipse id="Oval-28" fill="#E6F6F4" cx="71.2780989" cy="145.496196" rx="1.34924958" ry="1.34822729"></ellipse><ellipse id="Oval-28-Copy" fill="#E6F6F4" cx="88.3685937" cy="144.597377" rx="1.34924958" ry="1.34822729"></ellipse><path d="M80.7798455,98.1275189 C78.2971357,100.767347 76.1439177,106.25023 74.3201914,114.576166 L75.0719839,132.052435 L78.8194272,130.628999 L79.6227245,114.576166 C81.7706584,111.028863 84.1873254,106.918865 86.8727256,102.246173 C87.8156708,97.7947667 83.4617918,95.2758454 80.7798455,98.1275189 Z" id="Path-78" fill="#176574"></path><polygon id="Path-79" fill="#FFD7B3" points="75.2032238 131.321982 74.426348 134.329793 74.8147859 135.199331 78.6048206 135.199331 79.3184904 133.260657 78.0798392 130.665695"></polygon><polygon id="Path-79-Copy" fill="#FFD7B3" transform="translate(107.802248, 123.698702) rotate(-76.000000) translate(-107.802248, -123.698702) " points="106.133053 122.088171 105.356177 125.095982 105.744615 125.96552 109.53465 125.96552 110.248319 124.026846 109.009668 121.431884"></polygon></g><path d="M551.319403,32.5702912 L452.670565,76.6312932 L444.246418,60.2710339 L331.845996,110.687934 L329.855253,106.226731 L446.46341,53.9224625 L454.890905,70.2892241 L549.254543,28.1421847 L547.155219,23.6401692 L564.443604,24.0946512 L553.678998,37.6304581 L551.319403,32.5702912 Z" id="Combined-Shape" fill="#A8DFC5"></path><g id="Group-75" transform="translate(658.000000, 214.000000)"><polygon id="Path-98" fill="#CBFACB" points="1.51730928 6.13109276 4.30223828 32.4861365 15.1318226 32.4861365 16.6914186 6.13109276"></polygon><path d="M8.12451362,100.190141 L8.12451362,35.0258216 L1.22183099,35.0258216 C0.547032366,35.0258216 8.26389971e-17,34.4787892 0,33.8039906 C-8.26389971e-17,33.129192 0.547032366,32.5821596 1.22183099,32.5821596 L17.4645503,32.5821596 C18.139349,32.5821596 18.6863813,33.129192 18.6863813,33.8039906 C18.6863813,34.4787892 18.139349,35.0258216 17.4645503,35.0258216 L10.5618677,35.0258216 L10.5618677,100.190141 L10.9443291,100.190141 L16.2490272,126.255869 L2.43735409,126.255869 L7.74205222,100.190141 L8.12451362,100.190141 Z M4.69032388,0 L13.9960574,0 L16.2490272,5.70187793 L2.43735409,5.70187793 L4.69032388,0 Z M0,127.884977 L18.6863813,127.884977 L18.6863813,132.7723 L0,132.7723 L0,127.884977 Z" id="Combined-Shape" fill="#075B6A"></path><path d="M5.73178607,30.9530516 L12.9545953,30.9530516 L15.1236531,7.33098592 L3.56272821,7.33098592 L5.73178607,30.9530516 Z M0,4.07276995 L18.6863813,4.07276995 L15.9189627,34.2112676 L2.76741865,34.2112676 L0,4.07276995 Z" id="Rectangle-55" fill="#075B6A" fill-rule="nonzero"></path></g><g id="Group-75-Copy-3" transform="translate(17.000000, 214.000000)"><polygon id="Path-98" fill="#CBFACB" points="1.51730928 6.13109276 4.30223828 32.4861365 15.1318226 32.4861365 16.6914186 6.13109276"></polygon><path d="M8.12451362,100.190141 L8.12451362,35.0258216 L1.22183099,35.0258216 C0.547032366,35.0258216 8.26389971e-17,34.4787892 0,33.8039906 C-8.26389971e-17,33.129192 0.547032366,32.5821596 1.22183099,32.5821596 L17.4645503,32.5821596 C18.139349,32.5821596 18.6863813,33.129192 18.6863813,33.8039906 C18.6863813,34.4787892 18.139349,35.0258216 17.4645503,35.0258216 L10.5618677,35.0258216 L10.5618677,100.190141 L10.9443291,100.190141 L16.2490272,126.255869 L2.43735409,126.255869 L7.74205222,100.190141 L8.12451362,100.190141 Z M4.69032388,0 L13.9960574,0 L16.2490272,5.70187793 L2.43735409,5.70187793 L4.69032388,0 Z M0,127.884977 L18.6863813,127.884977 L18.6863813,132.7723 L0,132.7723 L0,127.884977 Z" id="Combined-Shape" fill="#075B6A"></path><path d="M5.73178607,30.9530516 L12.9545953,30.9530516 L15.1236531,7.33098592 L3.56272821,7.33098592 L5.73178607,30.9530516 Z M0,4.07276995 L18.6863813,4.07276995 L15.9189627,34.2112676 L2.76741865,34.2112676 L0,4.07276995 Z" id="Rectangle-55" fill="#075B6A" fill-rule="nonzero"></path></g><g id="Group-75-Copy-2" transform="translate(973.000000, 214.000000)"><polygon id="Path-98" fill="#CBFACB" points="1.51730928 6.13109276 4.30223828 32.4861365 15.1318226 32.4861365 16.6914186 6.13109276"></polygon><path d="M8.12451362,100.190141 L8.12451362,35.0258216 L1.22183099,35.0258216 C0.547032366,35.0258216 8.26389971e-17,34.4787892 0,33.8039906 C-8.26389971e-17,33.129192 0.547032366,32.5821596 1.22183099,32.5821596 L17.4645503,32.5821596 C18.139349,32.5821596 18.6863813,33.129192 18.6863813,33.8039906 C18.6863813,34.4787892 18.139349,35.0258216 17.4645503,35.0258216 L10.5618677,35.0258216 L10.5618677,100.190141 L10.9443291,100.190141 L16.2490272,126.255869 L2.43735409,126.255869 L7.74205222,100.190141 L8.12451362,100.190141 Z M4.69032388,0 L13.9960574,0 L16.2490272,5.70187793 L2.43735409,5.70187793 L4.69032388,0 Z M0,127.884977 L18.6863813,127.884977 L18.6863813,132.7723 L0,132.7723 L0,127.884977 Z" id="Combined-Shape" fill="#075B6A"></path><path d="M5.73178607,30.9530516 L12.9545953,30.9530516 L15.1236531,7.33098592 L3.56272821,7.33098592 L5.73178607,30.9530516 Z M0,4.07276995 L18.6863813,4.07276995 L15.9189627,34.2112676 L2.76741865,34.2112676 L0,4.07276995 Z" id="Rectangle-55" fill="#075B6A" fill-rule="nonzero"></path></g><ellipse id="Oval-31" stroke="#39AB8C" stroke-width="1.608255" stroke-linecap="square" cx="86.9322957" cy="322.156103" rx="8.93696498" ry="2.85093897"></ellipse><ellipse id="Oval-31-Copy-2" stroke="#39AB8C" stroke-width="1.608255" stroke-linecap="square" cx="623.962646" cy="319.712441" rx="8.93696498" ry="2.85093897"></ellipse><ellipse id="Oval-31-Copy" stroke="#39AB8C" stroke-width="1.608255" stroke-linecap="square" cx="108.056031" cy="322.156103" rx="4.06225681" ry="2.85093897"></ellipse><ellipse id="Oval-31-Copy-3" stroke="#39AB8C" stroke-width="1.608255" stroke-linecap="square" cx="645.086381" cy="319.712441" rx="4.06225681" ry="2.85093897"></ellipse><g id="Group-73" transform="translate(697.895720, 0.000000)"><ellipse id="Oval-32" fill="url(#linearGradient-14)" cx="23.5610895" cy="23.6220657" rx="23.5610895" ry="23.6220657"></ellipse><ellipse id="Oval-32-Copy" fill="url(#linearGradient-15)" cx="23.5610895" cy="23.6220657" rx="18.6863813" ry="18.7347418"></ellipse><path d="M22.6494865,34.2112676 L22.6494865,32.0153502 C20.1632965,31.7957584 18.3400906,30.8197951 17.0614786,29.4778456 L18.8846846,26.8427446 C19.7607706,27.7943089 21.0393825,28.6482768 22.6494865,28.9410657 L22.6494865,25.0860107 C20.2106525,24.4516345 17.5587166,23.5244694 17.5587166,20.2061942 C17.5587166,17.7418868 19.4529566,15.6435657 22.6494865,15.3019785 L22.6494865,13.0328638 L24.8988965,13.0328638 L24.8988965,15.3507767 C26.8168144,15.5703684 28.4269184,16.32674 29.7055304,17.5222951 L27.8349684,20.0597997 C26.9825604,19.2546299 25.9644065,18.7422492 24.8988965,18.4738593 L24.8988965,21.9141299 C27.3377304,22.5485061 30.0607004,23.5244694 30.0607004,26.8427446 C30.0607004,29.5510428 28.3558844,31.6249648 24.8988965,31.9909511 L24.8988965,34.2112676 L22.6494865,34.2112676 Z M26.6510684,27.23313 C26.6510684,26.4279602 25.9170505,26.0131758 24.8988965,25.6715887 L24.8988965,28.9410657 C26.0591185,28.6970749 26.6510684,27.9895015 26.6510684,27.23313 Z M20.9920265,19.9134052 C20.9920265,20.6209786 21.6550105,21.0113639 22.6494865,21.3041529 L22.6494865,18.3274648 C21.5839765,18.4738593 20.9920265,19.0838364 20.9920265,19.9134052 Z" id="$" fill="#CBFACB" opacity="0.5"></path></g><g id="Group-73-Copy-2" transform="translate(459.847471, 285.908451)"><ellipse id="Oval-32" fill="url(#linearGradient-14)" cx="23.1548638" cy="23.2147887" rx="23.1548638" ry="23.2147887"></ellipse><ellipse id="Oval-32-Copy" fill="url(#linearGradient-15)" cx="23.1548638" cy="23.2147887" rx="18.2801556" ry="18.3274648"></ellipse><path d="M21.8370351,34.2112676 L21.8370351,32.0153502 C19.3508452,31.7957584 17.5276392,30.8197951 16.2490272,29.4778456 L18.0722332,26.8427446 C18.9483192,27.7943089 20.2269312,28.6482768 21.8370351,28.9410657 L21.8370351,25.0860107 C19.3982012,24.4516345 16.7462652,23.5244694 16.7462652,20.2061942 C16.7462652,17.7418868 18.6405052,15.6435657 21.8370351,15.3019785 L21.8370351,13.0328638 L24.0864451,13.0328638 L24.0864451,15.3507767 C26.0043631,15.5703684 27.6144671,16.32674 28.893079,17.5222951 L27.0225171,20.0597997 C26.1701091,19.2546299 25.1519551,18.7422492 24.0864451,18.4738593 L24.0864451,21.9141299 C26.5252791,22.5485061 29.248249,23.5244694 29.248249,26.8427446 C29.248249,29.5510428 27.5434331,31.6249648 24.0864451,31.9909511 L24.0864451,34.2112676 L21.8370351,34.2112676 Z M25.8386171,27.23313 C25.8386171,26.4279602 25.1045991,26.0131758 24.0864451,25.6715887 L24.0864451,28.9410657 C25.2466671,28.6970749 25.8386171,27.9895015 25.8386171,27.23313 Z M20.1795752,19.9134052 C20.1795752,20.6209786 20.8425592,21.0113639 21.8370351,21.3041529 L21.8370351,18.3274648 C20.7715252,18.4738593 20.1795752,19.0838364 20.1795752,19.9134052 Z" id="$" fill="#CBFACB" opacity="0.5"></path></g><g id="Group-76-Copy" transform="translate(763.344470, 98.788056) rotate(33.000000) translate(-763.344470, -98.788056) translate(740.844470, 75.288056)"><g id="Group-77" transform="translate(8.936965, 0.000000)"><mask id="mask-17" fill="white"><use xlink:href="#path-16"></use></mask><use id="Oval-33" fill="#075B6A" xlink:href="#path-16"></use><polygon id="Rectangle-60" fill="#2395A9" mask="url(#mask-17)" points="9.83066148 43.750948 30.3856809 43.750948 30.3856809 44.6438245 9.83066148 44.6438245"></polygon><polygon id="Rectangle-60-Copy-3" fill="#2395A9" mask="url(#mask-17)" points="15.1928405 36.6079361 35.7478599 36.6079361 35.7478599 37.5008126 15.1928405 37.5008126"></polygon><polygon id="Rectangle-60-Copy-5" fill="#2395A9" mask="url(#mask-17)" points="20.5550195 29.4649242 41.1100389 29.4649242 41.1100389 30.3578007 20.5550195 30.3578007"></polygon><polygon id="Rectangle-60-Copy-7" fill="#2395A9" mask="url(#mask-17)" points="25.9171984 22.3219122 46.4722179 22.3219122 46.4722179 23.2147887 25.9171984 23.2147887"></polygon><polygon id="Rectangle-60-Copy-8" fill="#2395A9" mask="url(#mask-17)" points="20.5550195 15.1789003 41.1100389 15.1789003 41.1100389 16.0717768 20.5550195 16.0717768"></polygon><polygon id="Rectangle-60-Copy-9" fill="#2395A9" mask="url(#mask-17)" points="15.1928405 8.03588841 35.7478599 8.03588841 35.7478599 8.9287649 15.1928405 8.9287649"></polygon><polygon id="Rectangle-60-Copy-17" fill="#2395A9" mask="url(#mask-17)" points="9.83066148 0.89287649 30.3856809 0.89287649 30.3856809 1.78575298 9.83066148 1.78575298"></polygon></g><ellipse id="Oval-33-Copy" fill="url(#linearGradient-18)" cx="19.2144747" cy="23.2147887" rx="19.2144747" ry="23.2147887"></ellipse><g id="Group-78" transform="translate(4.468482, 4.464382)"><mask id="mask-21" fill="white"><use xlink:href="#path-20"></use></mask><use id="Oval-33-Copy-2" fill="url(#linearGradient-19)" xlink:href="#path-20"></use><ellipse id="Oval-33-Copy-3" fill="url(#linearGradient-22)" mask="url(#mask-21)" cx="17.4270817" cy="18.7504063" rx="14.7459922" ry="18.7504063"></ellipse><path d="M13.1677737,30.4256593 L13.1677737,27.8726908 C10.8878031,27.617394 9.21582475,26.4827414 8.04326848,24.922594 L9.71524687,21.8590319 C10.5186651,22.9653182 11.6912213,23.9581393 13.1677737,24.2985351 L13.1677737,19.8166572 C10.9312312,19.079133 8.49926259,18.001213 8.49926259,14.143394 C8.49926259,11.2783961 10.236383,8.83889297 13.1677737,8.44176455 L13.1677737,5.80369718 L15.2306041,5.80369718 L15.2306041,8.49849718 C16.9894386,8.75379402 18.4659909,9.63314981 19.6385472,11.0230993 L17.9231408,13.9731961 C17.1414366,13.0371077 16.2077344,12.4414151 15.2306041,12.1293856 L15.2306041,16.1290361 C17.4671467,16.8665603 19.9642572,18.001213 19.9642572,21.8590319 C19.9642572,25.007693 18.4008489,27.4188298 15.2306041,27.8443245 L15.2306041,30.4256593 L13.1677737,30.4256593 Z M16.8374405,22.312893 C16.8374405,21.3768045 16.1643064,20.8945772 15.2306041,20.4974487 L15.2306041,24.2985351 C16.2945904,24.0148719 16.8374405,23.1922487 16.8374405,22.312893 Z M11.6477933,13.8029982 C11.6477933,14.6256214 12.2557855,15.0794824 13.1677737,15.4198782 L13.1677737,11.9591877 C12.1906434,12.1293856 11.6477933,12.8385435 11.6477933,13.8029982 Z" id="$" fill="#CBFACB" opacity="0.5" mask="url(#mask-21)"></path></g></g><g id="Group-82" transform="translate(842.512062, 208.525822)"><rect id="Rectangle-62" fill="#002E36" x="0" y="0" width="43.0599222" height="102.633803"></rect><g id="Group-81"><g id="Group-80" transform="translate(0.000000, 52.131455)"><g id="Group-79" transform="translate(0.000000, 45.615023)"><rect id="Rectangle-61" fill="#075B6A" x="0" y="0" width="43.0599222" height="5.70187793"></rect><rect id="Rectangle-61-Copy" fill="#1A7B8D" x="0" y="0" width="21.5299611" height="5.70187793"></rect><polygon id="Rectangle-61-Copy-2" fill="#39A4B8" points="2.7780595 0 3.47257437 0 3.47257437 5.70187793 2.7780595 5.70187793"></polygon><polygon id="Rectangle-61-Copy-3" fill="#39A4B8" points="10.4177231 0 11.112238 0 11.112238 5.70187793 10.4177231 5.70187793"></polygon><polygon id="Rectangle-61-Copy-4" fill="#39A4B8" points="18.0573867 0 18.7519016 0 18.7519016 5.70187793 18.0573867 5.70187793"></polygon><polygon id="Rectangle-61-Copy-5" fill="#39A4B8" points="25.6970503 0 26.3915652 0 26.3915652 5.70187793 25.6970503 5.70187793"></polygon><polygon id="Rectangle-61-Copy-6" fill="#39A4B8" points="33.3367139 0 34.0312288 0 34.0312288 5.70187793 33.3367139 5.70187793"></polygon><polygon id="Rectangle-61-Copy-7" fill="#39A4B8" points="40.9763776 0 41.6708924 0 41.6708924 5.70187793 40.9763776 5.70187793"></polygon></g><g id="Group-79-Copy" transform="translate(0.000000, 39.098592)"><rect id="Rectangle-61" fill="#075B6A" x="0" y="0" width="43.0599222" height="5.70187793"></rect><rect id="Rectangle-61-Copy" fill="#1A7B8D" x="0" y="0" width="21.5299611" height="5.70187793"></rect><polygon id="Rectangle-61-Copy-2" fill="#39A4B8" points="2.7780595 0 3.47257437 0 3.47257437 5.70187793 2.7780595 5.70187793"></polygon><polygon id="Rectangle-61-Copy-3" fill="#39A4B8" points="10.4177231 0 11.112238 0 11.112238 5.70187793 10.4177231 5.70187793"></polygon><polygon id="Rectangle-61-Copy-4" fill="#39A4B8" points="18.0573867 0 18.7519016 0 18.7519016 5.70187793 18.0573867 5.70187793"></polygon><polygon id="Rectangle-61-Copy-5" fill="#39A4B8" points="25.6970503 0 26.3915652 0 26.3915652 5.70187793 25.6970503 5.70187793"></polygon><polygon id="Rectangle-61-Copy-6" fill="#39A4B8" points="33.3367139 0 34.0312288 0 34.0312288 5.70187793 33.3367139 5.70187793"></polygon><polygon id="Rectangle-61-Copy-7" fill="#39A4B8" points="40.9763776 0 41.6708924 0 41.6708924 5.70187793 40.9763776 5.70187793"></polygon></g><g id="Group-79-Copy-2" transform="translate(0.000000, 32.582160)"><rect id="Rectangle-61" fill="#075B6A" x="0" y="0" width="43.0599222" height="5.70187793"></rect><rect id="Rectangle-61-Copy" fill="#1A7B8D" x="0" y="0" width="21.5299611" height="5.70187793"></rect><polygon id="Rectangle-61-Copy-2" fill="#39A4B8" points="2.7780595 0 3.47257437 0 3.47257437 5.70187793 2.7780595 5.70187793"></polygon><polygon id="Rectangle-61-Copy-3" fill="#39A4B8" points="10.4177231 0 11.112238 0 11.112238 5.70187793 10.4177231 5.70187793"></polygon><polygon id="Rectangle-61-Copy-4" fill="#39A4B8" points="18.0573867 0 18.7519016 0 18.7519016 5.70187793 18.0573867 5.70187793"></polygon><polygon id="Rectangle-61-Copy-5" fill="#39A4B8" points="25.6970503 0 26.3915652 0 26.3915652 5.70187793 25.6970503 5.70187793"></polygon><polygon id="Rectangle-61-Copy-6" fill="#39A4B8" points="33.3367139 0 34.0312288 0 34.0312288 5.70187793 33.3367139 5.70187793"></polygon><polygon id="Rectangle-61-Copy-7" fill="#39A4B8" points="40.9763776 0 41.6708924 0 41.6708924 5.70187793 40.9763776 5.70187793"></polygon></g><g id="Group-79-Copy-3" transform="translate(0.000000, 26.065728)"><rect id="Rectangle-61" fill="#075B6A" x="0" y="0" width="43.0599222" height="5.70187793"></rect><rect id="Rectangle-61-Copy" fill="#1A7B8D" x="0" y="0" width="21.5299611" height="5.70187793"></rect><polygon id="Rectangle-61-Copy-2" fill="#39A4B8" points="2.7780595 0 3.47257437 0 3.47257437 5.70187793 2.7780595 5.70187793"></polygon><polygon id="Rectangle-61-Copy-3" fill="#39A4B8" points="10.4177231 0 11.112238 0 11.112238 5.70187793 10.4177231 5.70187793"></polygon><polygon id="Rectangle-61-Copy-4" fill="#39A4B8" points="18.0573867 0 18.7519016 0 18.7519016 5.70187793 18.0573867 5.70187793"></polygon><polygon id="Rectangle-61-Copy-5" fill="#39A4B8" points="25.6970503 0 26.3915652 0 26.3915652 5.70187793 25.6970503 5.70187793"></polygon><polygon id="Rectangle-61-Copy-6" fill="#39A4B8" points="33.3367139 0 34.0312288 0 34.0312288 5.70187793 33.3367139 5.70187793"></polygon><polygon id="Rectangle-61-Copy-7" fill="#39A4B8" points="40.9763776 0 41.6708924 0 41.6708924 5.70187793 40.9763776 5.70187793"></polygon></g><g id="Group-79-Copy-4" transform="translate(0.000000, 19.549296)"><rect id="Rectangle-61" fill="#075B6A" x="0" y="0" width="43.0599222" height="5.70187793"></rect><rect id="Rectangle-61-Copy" fill="#1A7B8D" x="0" y="0" width="21.5299611" height="5.70187793"></rect><polygon id="Rectangle-61-Copy-2" fill="#39A4B8" points="2.7780595 0 3.47257437 0 3.47257437 5.70187793 2.7780595 5.70187793"></polygon><polygon id="Rectangle-61-Copy-3" fill="#39A4B8" points="10.4177231 0 11.112238 0 11.112238 5.70187793 10.4177231 5.70187793"></polygon><polygon id="Rectangle-61-Copy-4" fill="#39A4B8" points="18.0573867 0 18.7519016 0 18.7519016 5.70187793 18.0573867 5.70187793"></polygon><polygon id="Rectangle-61-Copy-5" fill="#39A4B8" points="25.6970503 0 26.3915652 0 26.3915652 5.70187793 25.6970503 5.70187793"></polygon><polygon id="Rectangle-61-Copy-6" fill="#39A4B8" points="33.3367139 0 34.0312288 0 34.0312288 5.70187793 33.3367139 5.70187793"></polygon><polygon id="Rectangle-61-Copy-7" fill="#39A4B8" points="40.9763776 0 41.6708924 0 41.6708924 5.70187793 40.9763776 5.70187793"></polygon></g><g id="Group-79-Copy-5" transform="translate(0.000000, 13.032864)"><rect id="Rectangle-61" fill="#075B6A" x="0" y="0" width="43.0599222" height="5.70187793"></rect><rect id="Rectangle-61-Copy" fill="#1A7B8D" x="0" y="0" width="21.5299611" height="5.70187793"></rect><polygon id="Rectangle-61-Copy-2" fill="#39A4B8" points="2.7780595 0 3.47257437 0 3.47257437 5.70187793 2.7780595 5.70187793"></polygon><polygon id="Rectangle-61-Copy-3" fill="#39A4B8" points="10.4177231 0 11.112238 0 11.112238 5.70187793 10.4177231 5.70187793"></polygon><polygon id="Rectangle-61-Copy-4" fill="#39A4B8" points="18.0573867 0 18.7519016 0 18.7519016 5.70187793 18.0573867 5.70187793"></polygon><polygon id="Rectangle-61-Copy-5" fill="#39A4B8" points="25.6970503 0 26.3915652 0 26.3915652 5.70187793 25.6970503 5.70187793"></polygon><polygon id="Rectangle-61-Copy-6" fill="#39A4B8" points="33.3367139 0 34.0312288 0 34.0312288 5.70187793 33.3367139 5.70187793"></polygon><polygon id="Rectangle-61-Copy-7" fill="#39A4B8" points="40.9763776 0 41.6708924 0 41.6708924 5.70187793 40.9763776 5.70187793"></polygon></g><g id="Group-79-Copy-6" transform="translate(0.000000, 6.516432)"><rect id="Rectangle-61" fill="#075B6A" x="0" y="0" width="43.0599222" height="5.70187793"></rect><rect id="Rectangle-61-Copy" fill="#1A7B8D" x="0" y="0" width="21.5299611" height="5.70187793"></rect><polygon id="Rectangle-61-Copy-2" fill="#39A4B8" points="2.7780595 0 3.47257437 0 3.47257437 5.70187793 2.7780595 5.70187793"></polygon><polygon id="Rectangle-61-Copy-3" fill="#39A4B8" points="10.4177231 0 11.112238 0 11.112238 5.70187793 10.4177231 5.70187793"></polygon><polygon id="Rectangle-61-Copy-4" fill="#39A4B8" points="18.0573867 0 18.7519016 0 18.7519016 5.70187793 18.0573867 5.70187793"></polygon><polygon id="Rectangle-61-Copy-5" fill="#39A4B8" points="25.6970503 0 26.3915652 0 26.3915652 5.70187793 25.6970503 5.70187793"></polygon><polygon id="Rectangle-61-Copy-6" fill="#39A4B8" points="33.3367139 0 34.0312288 0 34.0312288 5.70187793 33.3367139 5.70187793"></polygon><polygon id="Rectangle-61-Copy-7" fill="#39A4B8" points="40.9763776 0 41.6708924 0 41.6708924 5.70187793 40.9763776 5.70187793"></polygon></g><g id="Group-79-Copy-7"><rect id="Rectangle-61" fill="#075B6A" x="0" y="0" width="43.0599222" height="5.70187793"></rect><rect id="Rectangle-61-Copy" fill="#1A7B8D" x="0" y="0" width="21.5299611" height="5.70187793"></rect><polygon id="Rectangle-61-Copy-2" fill="#39A4B8" points="2.7780595 0 3.47257437 0 3.47257437 5.70187793 2.7780595 5.70187793"></polygon><polygon id="Rectangle-61-Copy-3" fill="#39A4B8" points="10.4177231 0 11.112238 0 11.112238 5.70187793 10.4177231 5.70187793"></polygon><polygon id="Rectangle-61-Copy-4" fill="#39A4B8" points="18.0573867 0 18.7519016 0 18.7519016 5.70187793 18.0573867 5.70187793"></polygon><polygon id="Rectangle-61-Copy-5" fill="#39A4B8" points="25.6970503 0 26.3915652 0 26.3915652 5.70187793 25.6970503 5.70187793"></polygon><polygon id="Rectangle-61-Copy-6" fill="#39A4B8" points="33.3367139 0 34.0312288 0 34.0312288 5.70187793 33.3367139 5.70187793"></polygon><polygon id="Rectangle-61-Copy-7" fill="#39A4B8" points="40.9763776 0 41.6708924 0 41.6708924 5.70187793 40.9763776 5.70187793"></polygon></g></g><g id="Group-80-Copy"><g id="Group-79" transform="translate(0.000000, 45.615023)"><rect id="Rectangle-61" fill="#075B6A" x="0" y="0" width="43.0599222" height="5.70187793"></rect><rect id="Rectangle-61-Copy" fill="#1A7B8D" x="0" y="0" width="21.5299611" height="5.70187793"></rect><polygon id="Rectangle-61-Copy-2" fill="#39A4B8" points="2.7780595 0 3.47257437 0 3.47257437 5.70187793 2.7780595 5.70187793"></polygon><polygon id="Rectangle-61-Copy-3" fill="#39A4B8" points="10.4177231 0 11.112238 0 11.112238 5.70187793 10.4177231 5.70187793"></polygon><polygon id="Rectangle-61-Copy-4" fill="#39A4B8" points="18.0573867 0 18.7519016 0 18.7519016 5.70187793 18.0573867 5.70187793"></polygon><polygon id="Rectangle-61-Copy-5" fill="#39A4B8" points="25.6970503 0 26.3915652 0 26.3915652 5.70187793 25.6970503 5.70187793"></polygon><polygon id="Rectangle-61-Copy-6" fill="#39A4B8" points="33.3367139 0 34.0312288 0 34.0312288 5.70187793 33.3367139 5.70187793"></polygon><polygon id="Rectangle-61-Copy-7" fill="#39A4B8" points="40.9763776 0 41.6708924 0 41.6708924 5.70187793 40.9763776 5.70187793"></polygon></g><g id="Group-79-Copy" transform="translate(0.000000, 39.098592)"><rect id="Rectangle-61" fill="#075B6A" x="0" y="0" width="43.0599222" height="5.70187793"></rect><rect id="Rectangle-61-Copy" fill="#1A7B8D" x="0" y="0" width="21.5299611" height="5.70187793"></rect><polygon id="Rectangle-61-Copy-2" fill="#39A4B8" points="2.7780595 0 3.47257437 0 3.47257437 5.70187793 2.7780595 5.70187793"></polygon><polygon id="Rectangle-61-Copy-3" fill="#39A4B8" points="10.4177231 0 11.112238 0 11.112238 5.70187793 10.4177231 5.70187793"></polygon><polygon id="Rectangle-61-Copy-4" fill="#39A4B8" points="18.0573867 0 18.7519016 0 18.7519016 5.70187793 18.0573867 5.70187793"></polygon><polygon id="Rectangle-61-Copy-5" fill="#39A4B8" points="25.6970503 0 26.3915652 0 26.3915652 5.70187793 25.6970503 5.70187793"></polygon><polygon id="Rectangle-61-Copy-6" fill="#39A4B8" points="33.3367139 0 34.0312288 0 34.0312288 5.70187793 33.3367139 5.70187793"></polygon><polygon id="Rectangle-61-Copy-7" fill="#39A4B8" points="40.9763776 0 41.6708924 0 41.6708924 5.70187793 40.9763776 5.70187793"></polygon></g><g id="Group-79-Copy-2" transform="translate(0.000000, 32.582160)"><rect id="Rectangle-61" fill="#075B6A" x="0" y="0" width="43.0599222" height="5.70187793"></rect><rect id="Rectangle-61-Copy" fill="#1A7B8D" x="0" y="0" width="21.5299611" height="5.70187793"></rect><polygon id="Rectangle-61-Copy-2" fill="#39A4B8" points="2.7780595 0 3.47257437 0 3.47257437 5.70187793 2.7780595 5.70187793"></polygon><polygon id="Rectangle-61-Copy-3" fill="#39A4B8" points="10.4177231 0 11.112238 0 11.112238 5.70187793 10.4177231 5.70187793"></polygon><polygon id="Rectangle-61-Copy-4" fill="#39A4B8" points="18.0573867 0 18.7519016 0 18.7519016 5.70187793 18.0573867 5.70187793"></polygon><polygon id="Rectangle-61-Copy-5" fill="#39A4B8" points="25.6970503 0 26.3915652 0 26.3915652 5.70187793 25.6970503 5.70187793"></polygon><polygon id="Rectangle-61-Copy-6" fill="#39A4B8" points="33.3367139 0 34.0312288 0 34.0312288 5.70187793 33.3367139 5.70187793"></polygon><polygon id="Rectangle-61-Copy-7" fill="#39A4B8" points="40.9763776 0 41.6708924 0 41.6708924 5.70187793 40.9763776 5.70187793"></polygon></g><g id="Group-79-Copy-3" transform="translate(0.000000, 26.065728)"><rect id="Rectangle-61" fill="#075B6A" x="0" y="0" width="43.0599222" height="5.70187793"></rect><rect id="Rectangle-61-Copy" fill="#1A7B8D" x="0" y="0" width="21.5299611" height="5.70187793"></rect><polygon id="Rectangle-61-Copy-2" fill="#39A4B8" points="2.7780595 0 3.47257437 0 3.47257437 5.70187793 2.7780595 5.70187793"></polygon><polygon id="Rectangle-61-Copy-3" fill="#39A4B8" points="10.4177231 0 11.112238 0 11.112238 5.70187793 10.4177231 5.70187793"></polygon><polygon id="Rectangle-61-Copy-4" fill="#39A4B8" points="18.0573867 0 18.7519016 0 18.7519016 5.70187793 18.0573867 5.70187793"></polygon><polygon id="Rectangle-61-Copy-5" fill="#39A4B8" points="25.6970503 0 26.3915652 0 26.3915652 5.70187793 25.6970503 5.70187793"></polygon><polygon id="Rectangle-61-Copy-6" fill="#39A4B8" points="33.3367139 0 34.0312288 0 34.0312288 5.70187793 33.3367139 5.70187793"></polygon><polygon id="Rectangle-61-Copy-7" fill="#39A4B8" points="40.9763776 0 41.6708924 0 41.6708924 5.70187793 40.9763776 5.70187793"></polygon></g><g id="Group-79-Copy-4" transform="translate(0.000000, 19.549296)"><rect id="Rectangle-61" fill="#075B6A" x="0" y="0" width="43.0599222" height="5.70187793"></rect><rect id="Rectangle-61-Copy" fill="#1A7B8D" x="0" y="0" width="21.5299611" height="5.70187793"></rect><polygon id="Rectangle-61-Copy-2" fill="#39A4B8" points="2.7780595 0 3.47257437 0 3.47257437 5.70187793 2.7780595 5.70187793"></polygon><polygon id="Rectangle-61-Copy-3" fill="#39A4B8" points="10.4177231 0 11.112238 0 11.112238 5.70187793 10.4177231 5.70187793"></polygon><polygon id="Rectangle-61-Copy-4" fill="#39A4B8" points="18.0573867 0 18.7519016 0 18.7519016 5.70187793 18.0573867 5.70187793"></polygon><polygon id="Rectangle-61-Copy-5" fill="#39A4B8" points="25.6970503 0 26.3915652 0 26.3915652 5.70187793 25.6970503 5.70187793"></polygon><polygon id="Rectangle-61-Copy-6" fill="#39A4B8" points="33.3367139 0 34.0312288 0 34.0312288 5.70187793 33.3367139 5.70187793"></polygon><polygon id="Rectangle-61-Copy-7" fill="#39A4B8" points="40.9763776 0 41.6708924 0 41.6708924 5.70187793 40.9763776 5.70187793"></polygon></g><g id="Group-79-Copy-5" transform="translate(0.000000, 13.032864)"><rect id="Rectangle-61" fill="#075B6A" x="0" y="0" width="43.0599222" height="5.70187793"></rect><rect id="Rectangle-61-Copy" fill="#1A7B8D" x="0" y="0" width="21.5299611" height="5.70187793"></rect><polygon id="Rectangle-61-Copy-2" fill="#39A4B8" points="2.7780595 0 3.47257437 0 3.47257437 5.70187793 2.7780595 5.70187793"></polygon><polygon id="Rectangle-61-Copy-3" fill="#39A4B8" points="10.4177231 0 11.112238 0 11.112238 5.70187793 10.4177231 5.70187793"></polygon><polygon id="Rectangle-61-Copy-4" fill="#39A4B8" points="18.0573867 0 18.7519016 0 18.7519016 5.70187793 18.0573867 5.70187793"></polygon><polygon id="Rectangle-61-Copy-5" fill="#39A4B8" points="25.6970503 0 26.3915652 0 26.3915652 5.70187793 25.6970503 5.70187793"></polygon><polygon id="Rectangle-61-Copy-6" fill="#39A4B8" points="33.3367139 0 34.0312288 0 34.0312288 5.70187793 33.3367139 5.70187793"></polygon><polygon id="Rectangle-61-Copy-7" fill="#39A4B8" points="40.9763776 0 41.6708924 0 41.6708924 5.70187793 40.9763776 5.70187793"></polygon></g><g id="Group-79-Copy-6" transform="translate(0.000000, 6.516432)"><rect id="Rectangle-61" fill="#075B6A" x="0" y="0" width="43.0599222" height="5.70187793"></rect><rect id="Rectangle-61-Copy" fill="#1A7B8D" x="0" y="0" width="21.5299611" height="5.70187793"></rect><polygon id="Rectangle-61-Copy-2" fill="#39A4B8" points="2.7780595 0 3.47257437 0 3.47257437 5.70187793 2.7780595 5.70187793"></polygon><polygon id="Rectangle-61-Copy-3" fill="#39A4B8" points="10.4177231 0 11.112238 0 11.112238 5.70187793 10.4177231 5.70187793"></polygon><polygon id="Rectangle-61-Copy-4" fill="#39A4B8" points="18.0573867 0 18.7519016 0 18.7519016 5.70187793 18.0573867 5.70187793"></polygon><polygon id="Rectangle-61-Copy-5" fill="#39A4B8" points="25.6970503 0 26.3915652 0 26.3915652 5.70187793 25.6970503 5.70187793"></polygon><polygon id="Rectangle-61-Copy-6" fill="#39A4B8" points="33.3367139 0 34.0312288 0 34.0312288 5.70187793 33.3367139 5.70187793"></polygon><polygon id="Rectangle-61-Copy-7" fill="#39A4B8" points="40.9763776 0 41.6708924 0 41.6708924 5.70187793 40.9763776 5.70187793"></polygon></g><g id="Group-79-Copy-7"><rect id="Rectangle-61" fill="#075B6A" x="0" y="0" width="43.0599222" height="5.70187793"></rect><rect id="Rectangle-61-Copy" fill="#1A7B8D" x="0" y="0" width="21.5299611" height="5.70187793"></rect><polygon id="Rectangle-61-Copy-2" fill="#39A4B8" points="2.7780595 0 3.47257437 0 3.47257437 5.70187793 2.7780595 5.70187793"></polygon><polygon id="Rectangle-61-Copy-3" fill="#39A4B8" points="10.4177231 0 11.112238 0 11.112238 5.70187793 10.4177231 5.70187793"></polygon><polygon id="Rectangle-61-Copy-4" fill="#39A4B8" points="18.0573867 0 18.7519016 0 18.7519016 5.70187793 18.0573867 5.70187793"></polygon><polygon id="Rectangle-61-Copy-5" fill="#39A4B8" points="25.6970503 0 26.3915652 0 26.3915652 5.70187793 25.6970503 5.70187793"></polygon><polygon id="Rectangle-61-Copy-6" fill="#39A4B8" points="33.3367139 0 34.0312288 0 34.0312288 5.70187793 33.3367139 5.70187793"></polygon><polygon id="Rectangle-61-Copy-7" fill="#39A4B8" points="40.9763776 0 41.6708924 0 41.6708924 5.70187793 40.9763776 5.70187793"></polygon></g></g></g></g><g id="Group-82-Copy" transform="translate(794.577432, 260.657277)"><rect id="Rectangle-62" fill="#002E36" x="0" y="4.88732394" width="43.0599222" height="45.6150235"></rect><g id="Group-81"><g id="Group-80"><g id="Group-79" transform="translate(0.000000, 45.615023)"><rect id="Rectangle-61" fill="#075B6A" x="0" y="0" width="43.0599222" height="5.70187793"></rect><rect id="Rectangle-61-Copy" fill="#1A7B8D" x="0" y="0" width="21.5299611" height="5.70187793"></rect><polygon id="Rectangle-61-Copy-2" fill="#39A4B8" points="2.7780595 0 3.47257437 0 3.47257437 5.70187793 2.7780595 5.70187793"></polygon><polygon id="Rectangle-61-Copy-3" fill="#39A4B8" points="10.4177231 0 11.112238 0 11.112238 5.70187793 10.4177231 5.70187793"></polygon><polygon id="Rectangle-61-Copy-4" fill="#39A4B8" points="18.0573867 0 18.7519016 0 18.7519016 5.70187793 18.0573867 5.70187793"></polygon><polygon id="Rectangle-61-Copy-5" fill="#39A4B8" points="25.6970503 0 26.3915652 0 26.3915652 5.70187793 25.6970503 5.70187793"></polygon><polygon id="Rectangle-61-Copy-6" fill="#39A4B8" points="33.3367139 0 34.0312288 0 34.0312288 5.70187793 33.3367139 5.70187793"></polygon><polygon id="Rectangle-61-Copy-7" fill="#39A4B8" points="40.9763776 0 41.6708924 0 41.6708924 5.70187793 40.9763776 5.70187793"></polygon></g><g id="Group-79-Copy" transform="translate(0.000000, 39.098592)"><rect id="Rectangle-61" fill="#075B6A" x="0" y="0" width="43.0599222" height="5.70187793"></rect><rect id="Rectangle-61-Copy" fill="#1A7B8D" x="0" y="0" width="21.5299611" height="5.70187793"></rect><polygon id="Rectangle-61-Copy-2" fill="#39A4B8" points="2.7780595 0 3.47257437 0 3.47257437 5.70187793 2.7780595 5.70187793"></polygon><polygon id="Rectangle-61-Copy-3" fill="#39A4B8" points="10.4177231 0 11.112238 0 11.112238 5.70187793 10.4177231 5.70187793"></polygon><polygon id="Rectangle-61-Copy-4" fill="#39A4B8" points="18.0573867 0 18.7519016 0 18.7519016 5.70187793 18.0573867 5.70187793"></polygon><polygon id="Rectangle-61-Copy-5" fill="#39A4B8" points="25.6970503 0 26.3915652 0 26.3915652 5.70187793 25.6970503 5.70187793"></polygon><polygon id="Rectangle-61-Copy-6" fill="#39A4B8" points="33.3367139 0 34.0312288 0 34.0312288 5.70187793 33.3367139 5.70187793"></polygon><polygon id="Rectangle-61-Copy-7" fill="#39A4B8" points="40.9763776 0 41.6708924 0 41.6708924 5.70187793 40.9763776 5.70187793"></polygon></g><g id="Group-79-Copy-2" transform="translate(0.000000, 32.582160)"><rect id="Rectangle-61" fill="#075B6A" x="0" y="0" width="43.0599222" height="5.70187793"></rect><rect id="Rectangle-61-Copy" fill="#1A7B8D" x="0" y="0" width="21.5299611" height="5.70187793"></rect><polygon id="Rectangle-61-Copy-2" fill="#39A4B8" points="2.7780595 0 3.47257437 0 3.47257437 5.70187793 2.7780595 5.70187793"></polygon><polygon id="Rectangle-61-Copy-3" fill="#39A4B8" points="10.4177231 0 11.112238 0 11.112238 5.70187793 10.4177231 5.70187793"></polygon><polygon id="Rectangle-61-Copy-4" fill="#39A4B8" points="18.0573867 0 18.7519016 0 18.7519016 5.70187793 18.0573867 5.70187793"></polygon><polygon id="Rectangle-61-Copy-5" fill="#39A4B8" points="25.6970503 0 26.3915652 0 26.3915652 5.70187793 25.6970503 5.70187793"></polygon><polygon id="Rectangle-61-Copy-6" fill="#39A4B8" points="33.3367139 0 34.0312288 0 34.0312288 5.70187793 33.3367139 5.70187793"></polygon><polygon id="Rectangle-61-Copy-7" fill="#39A4B8" points="40.9763776 0 41.6708924 0 41.6708924 5.70187793 40.9763776 5.70187793"></polygon></g><g id="Group-79-Copy-3" transform="translate(0.000000, 26.065728)"><rect id="Rectangle-61" fill="#075B6A" x="0" y="0" width="43.0599222" height="5.70187793"></rect><rect id="Rectangle-61-Copy" fill="#1A7B8D" x="0" y="0" width="21.5299611" height="5.70187793"></rect><polygon id="Rectangle-61-Copy-2" fill="#39A4B8" points="2.7780595 0 3.47257437 0 3.47257437 5.70187793 2.7780595 5.70187793"></polygon><polygon id="Rectangle-61-Copy-3" fill="#39A4B8" points="10.4177231 0 11.112238 0 11.112238 5.70187793 10.4177231 5.70187793"></polygon><polygon id="Rectangle-61-Copy-4" fill="#39A4B8" points="18.0573867 0 18.7519016 0 18.7519016 5.70187793 18.0573867 5.70187793"></polygon><polygon id="Rectangle-61-Copy-5" fill="#39A4B8" points="25.6970503 0 26.3915652 0 26.3915652 5.70187793 25.6970503 5.70187793"></polygon><polygon id="Rectangle-61-Copy-6" fill="#39A4B8" points="33.3367139 0 34.0312288 0 34.0312288 5.70187793 33.3367139 5.70187793"></polygon><polygon id="Rectangle-61-Copy-7" fill="#39A4B8" points="40.9763776 0 41.6708924 0 41.6708924 5.70187793 40.9763776 5.70187793"></polygon></g><g id="Group-79-Copy-4" transform="translate(0.000000, 19.549296)"><rect id="Rectangle-61" fill="#075B6A" x="0" y="0" width="43.0599222" height="5.70187793"></rect><rect id="Rectangle-61-Copy" fill="#1A7B8D" x="0" y="0" width="21.5299611" height="5.70187793"></rect><polygon id="Rectangle-61-Copy-2" fill="#39A4B8" points="2.7780595 0 3.47257437 0 3.47257437 5.70187793 2.7780595 5.70187793"></polygon><polygon id="Rectangle-61-Copy-3" fill="#39A4B8" points="10.4177231 0 11.112238 0 11.112238 5.70187793 10.4177231 5.70187793"></polygon><polygon id="Rectangle-61-Copy-4" fill="#39A4B8" points="18.0573867 0 18.7519016 0 18.7519016 5.70187793 18.0573867 5.70187793"></polygon><polygon id="Rectangle-61-Copy-5" fill="#39A4B8" points="25.6970503 0 26.3915652 0 26.3915652 5.70187793 25.6970503 5.70187793"></polygon><polygon id="Rectangle-61-Copy-6" fill="#39A4B8" points="33.3367139 0 34.0312288 0 34.0312288 5.70187793 33.3367139 5.70187793"></polygon><polygon id="Rectangle-61-Copy-7" fill="#39A4B8" points="40.9763776 0 41.6708924 0 41.6708924 5.70187793 40.9763776 5.70187793"></polygon></g><g id="Group-79-Copy-5" transform="translate(0.000000, 13.032864)"><rect id="Rectangle-61" fill="#075B6A" x="0" y="0" width="43.0599222" height="5.70187793"></rect><rect id="Rectangle-61-Copy" fill="#1A7B8D" x="0" y="0" width="21.5299611" height="5.70187793"></rect><polygon id="Rectangle-61-Copy-2" fill="#39A4B8" points="2.7780595 0 3.47257437 0 3.47257437 5.70187793 2.7780595 5.70187793"></polygon><polygon id="Rectangle-61-Copy-3" fill="#39A4B8" points="10.4177231 0 11.112238 0 11.112238 5.70187793 10.4177231 5.70187793"></polygon><polygon id="Rectangle-61-Copy-4" fill="#39A4B8" points="18.0573867 0 18.7519016 0 18.7519016 5.70187793 18.0573867 5.70187793"></polygon><polygon id="Rectangle-61-Copy-5" fill="#39A4B8" points="25.6970503 0 26.3915652 0 26.3915652 5.70187793 25.6970503 5.70187793"></polygon><polygon id="Rectangle-61-Copy-6" fill="#39A4B8" points="33.3367139 0 34.0312288 0 34.0312288 5.70187793 33.3367139 5.70187793"></polygon><polygon id="Rectangle-61-Copy-7" fill="#39A4B8" points="40.9763776 0 41.6708924 0 41.6708924 5.70187793 40.9763776 5.70187793"></polygon></g><g id="Group-79-Copy-6" transform="translate(0.000000, 6.516432)"><rect id="Rectangle-61" fill="#075B6A" x="0" y="0" width="43.0599222" height="5.70187793"></rect><rect id="Rectangle-61-Copy" fill="#1A7B8D" x="0" y="0" width="21.5299611" height="5.70187793"></rect><polygon id="Rectangle-61-Copy-2" fill="#39A4B8" points="2.7780595 0 3.47257437 0 3.47257437 5.70187793 2.7780595 5.70187793"></polygon><polygon id="Rectangle-61-Copy-3" fill="#39A4B8" points="10.4177231 0 11.112238 0 11.112238 5.70187793 10.4177231 5.70187793"></polygon><polygon id="Rectangle-61-Copy-4" fill="#39A4B8" points="18.0573867 0 18.7519016 0 18.7519016 5.70187793 18.0573867 5.70187793"></polygon><polygon id="Rectangle-61-Copy-5" fill="#39A4B8" points="25.6970503 0 26.3915652 0 26.3915652 5.70187793 25.6970503 5.70187793"></polygon><polygon id="Rectangle-61-Copy-6" fill="#39A4B8" points="33.3367139 0 34.0312288 0 34.0312288 5.70187793 33.3367139 5.70187793"></polygon><polygon id="Rectangle-61-Copy-7" fill="#39A4B8" points="40.9763776 0 41.6708924 0 41.6708924 5.70187793 40.9763776 5.70187793"></polygon></g><g id="Group-79-Copy-7"><rect id="Rectangle-61" fill="#075B6A" x="0" y="0" width="43.0599222" height="5.70187793"></rect><rect id="Rectangle-61-Copy" fill="#1A7B8D" x="0" y="0" width="21.5299611" height="5.70187793"></rect><polygon id="Rectangle-61-Copy-2" fill="#39A4B8" points="2.7780595 0 3.47257437 0 3.47257437 5.70187793 2.7780595 5.70187793"></polygon><polygon id="Rectangle-61-Copy-3" fill="#39A4B8" points="10.4177231 0 11.112238 0 11.112238 5.70187793 10.4177231 5.70187793"></polygon><polygon id="Rectangle-61-Copy-4" fill="#39A4B8" points="18.0573867 0 18.7519016 0 18.7519016 5.70187793 18.0573867 5.70187793"></polygon><polygon id="Rectangle-61-Copy-5" fill="#39A4B8" points="25.6970503 0 26.3915652 0 26.3915652 5.70187793 25.6970503 5.70187793"></polygon><polygon id="Rectangle-61-Copy-6" fill="#39A4B8" points="33.3367139 0 34.0312288 0 34.0312288 5.70187793 33.3367139 5.70187793"></polygon><polygon id="Rectangle-61-Copy-7" fill="#39A4B8" points="40.9763776 0 41.6708924 0 41.6708924 5.70187793 40.9763776 5.70187793"></polygon></g></g></g></g><g id="Group-76-Copy-2" transform="translate(866.073152, 264.730047)"><g id="Group-77" transform="translate(8.936965, 0.000000)"><mask id="mask-24" fill="white"><use xlink:href="#path-23"></use></mask><use id="Oval-33" fill="#075B6A" xlink:href="#path-23"></use><polygon id="Rectangle-60" fill="#2395A9" mask="url(#mask-24)" points="9.83066148 43.750948 30.3856809 43.750948 30.3856809 44.6438245 9.83066148 44.6438245"></polygon><polygon id="Rectangle-60-Copy-3" fill="#2395A9" mask="url(#mask-24)" points="15.1928405 36.6079361 35.7478599 36.6079361 35.7478599 37.5008126 15.1928405 37.5008126"></polygon><polygon id="Rectangle-60-Copy-5" fill="#2395A9" mask="url(#mask-24)" points="20.5550195 29.4649242 41.1100389 29.4649242 41.1100389 30.3578007 20.5550195 30.3578007"></polygon><polygon id="Rectangle-60-Copy-7" fill="#2395A9" mask="url(#mask-24)" points="25.9171984 22.3219122 46.4722179 22.3219122 46.4722179 23.2147887 25.9171984 23.2147887"></polygon><polygon id="Rectangle-60-Copy-8" fill="#2395A9" mask="url(#mask-24)" points="20.5550195 15.1789003 41.1100389 15.1789003 41.1100389 16.0717768 20.5550195 16.0717768"></polygon><polygon id="Rectangle-60-Copy-9" fill="#2395A9" mask="url(#mask-24)" points="15.1928405 8.03588841 35.7478599 8.03588841 35.7478599 8.9287649 15.1928405 8.9287649"></polygon><polygon id="Rectangle-60-Copy-17" fill="#2395A9" mask="url(#mask-24)" points="9.83066148 0.89287649 30.3856809 0.89287649 30.3856809 1.78575298 9.83066148 1.78575298"></polygon></g><ellipse id="Oval-33-Copy" fill="url(#linearGradient-18)" cx="19.2144747" cy="23.2147887" rx="19.2144747" ry="23.2147887"></ellipse><g id="Group-78" transform="translate(4.468482, 4.464382)"><mask id="mask-26" fill="white"><use xlink:href="#path-25"></use></mask><use id="Oval-33-Copy-2" fill="url(#linearGradient-19)" xlink:href="#path-25"></use><ellipse id="Oval-33-Copy-3" fill="url(#linearGradient-22)" mask="url(#mask-26)" cx="17.4270817" cy="18.7504063" rx="14.7459922" ry="18.7504063"></ellipse><path d="M13.1677737,30.4256593 L13.1677737,27.8726908 C10.8878031,27.617394 9.21582475,26.4827414 8.04326848,24.922594 L9.71524687,21.8590319 C10.5186651,22.9653182 11.6912213,23.9581393 13.1677737,24.2985351 L13.1677737,19.8166572 C10.9312312,19.079133 8.49926259,18.001213 8.49926259,14.143394 C8.49926259,11.2783961 10.236383,8.83889297 13.1677737,8.44176455 L13.1677737,5.80369718 L15.2306041,5.80369718 L15.2306041,8.49849718 C16.9894386,8.75379402 18.4659909,9.63314981 19.6385472,11.0230993 L17.9231408,13.9731961 C17.1414366,13.0371077 16.2077344,12.4414151 15.2306041,12.1293856 L15.2306041,16.1290361 C17.4671467,16.8665603 19.9642572,18.001213 19.9642572,21.8590319 C19.9642572,25.007693 18.4008489,27.4188298 15.2306041,27.8443245 L15.2306041,30.4256593 L13.1677737,30.4256593 Z M16.8374405,22.312893 C16.8374405,21.3768045 16.1643064,20.8945772 15.2306041,20.4974487 L15.2306041,24.2985351 C16.2945904,24.0148719 16.8374405,23.1922487 16.8374405,22.312893 Z M11.6477933,13.8029982 C11.6477933,14.6256214 12.2557855,15.0794824 13.1677737,15.4198782 L13.1677737,11.9591877 C12.1906434,12.1293856 11.6477933,12.8385435 11.6477933,13.8029982 Z" id="$" fill="#CBFACB" opacity="0.5" mask="url(#mask-26)"></path></g></g><g id="Group-76" transform="translate(758.017121, 264.730047)"><g id="Group-77" transform="translate(8.936965, 0.000000)"><mask id="mask-28" fill="white"><use xlink:href="#path-27"></use></mask><use id="Oval-33" fill="#075B6A" xlink:href="#path-27"></use><polygon id="Rectangle-60" fill="#2395A9" mask="url(#mask-28)" points="9.83066148 43.750948 30.3856809 43.750948 30.3856809 44.6438245 9.83066148 44.6438245"></polygon><polygon id="Rectangle-60-Copy-3" fill="#2395A9" mask="url(#mask-28)" points="15.1928405 36.6079361 35.7478599 36.6079361 35.7478599 37.5008126 15.1928405 37.5008126"></polygon><polygon id="Rectangle-60-Copy-5" fill="#2395A9" mask="url(#mask-28)" points="20.5550195 29.4649242 41.1100389 29.4649242 41.1100389 30.3578007 20.5550195 30.3578007"></polygon><polygon id="Rectangle-60-Copy-7" fill="#2395A9" mask="url(#mask-28)" points="25.9171984 22.3219122 46.4722179 22.3219122 46.4722179 23.2147887 25.9171984 23.2147887"></polygon><polygon id="Rectangle-60-Copy-8" fill="#2395A9" mask="url(#mask-28)" points="20.5550195 15.1789003 41.1100389 15.1789003 41.1100389 16.0717768 20.5550195 16.0717768"></polygon><polygon id="Rectangle-60-Copy-9" fill="#2395A9" mask="url(#mask-28)" points="15.1928405 8.03588841 35.7478599 8.03588841 35.7478599 8.9287649 15.1928405 8.9287649"></polygon><polygon id="Rectangle-60-Copy-17" fill="#2395A9" mask="url(#mask-28)" points="9.83066148 0.89287649 30.3856809 0.89287649 30.3856809 1.78575298 9.83066148 1.78575298"></polygon></g><ellipse id="Oval-33-Copy" fill="url(#linearGradient-18)" cx="19.2144747" cy="23.2147887" rx="19.2144747" ry="23.2147887"></ellipse><g id="Group-78" transform="translate(4.468482, 4.464382)"><mask id="mask-30" fill="white"><use xlink:href="#path-29"></use></mask><use id="Oval-33-Copy-2" fill="url(#linearGradient-19)" xlink:href="#path-29"></use><ellipse id="Oval-33-Copy-3" fill="url(#linearGradient-22)" mask="url(#mask-30)" cx="17.4270817" cy="18.7504063" rx="14.7459922" ry="18.7504063"></ellipse><path d="M13.1677737,30.4256593 L13.1677737,27.8726908 C10.8878031,27.617394 9.21582475,26.4827414 8.04326848,24.922594 L9.71524687,21.8590319 C10.5186651,22.9653182 11.6912213,23.9581393 13.1677737,24.2985351 L13.1677737,19.8166572 C10.9312312,19.079133 8.49926259,18.001213 8.49926259,14.143394 C8.49926259,11.2783961 10.236383,8.83889297 13.1677737,8.44176455 L13.1677737,5.80369718 L15.2306041,5.80369718 L15.2306041,8.49849718 C16.9894386,8.75379402 18.4659909,9.63314981 19.6385472,11.0230993 L17.9231408,13.9731961 C17.1414366,13.0371077 16.2077344,12.4414151 15.2306041,12.1293856 L15.2306041,16.1290361 C17.4671467,16.8665603 19.9642572,18.001213 19.9642572,21.8590319 C19.9642572,25.007693 18.4008489,27.4188298 15.2306041,27.8443245 L15.2306041,30.4256593 L13.1677737,30.4256593 Z M16.8374405,22.312893 C16.8374405,21.3768045 16.1643064,20.8945772 15.2306041,20.4974487 L15.2306041,24.2985351 C16.2945904,24.0148719 16.8374405,23.1922487 16.8374405,22.312893 Z M11.6477933,13.8029982 C11.6477933,14.6256214 12.2557855,15.0794824 13.1677737,15.4198782 L13.1677737,11.9591877 C12.1906434,12.1293856 11.6477933,12.8385435 11.6477933,13.8029982 Z" id="$" fill="#CBFACB" opacity="0.5" mask="url(#mask-30)"></path></g></g><path d="M766.141634,199.565728 L766.141634,239.478873 L760.454475,239.478873 L760.454475,199.565728 L754.767315,199.565728 L763.70428,175.943662 L772.641245,199.565728 L766.141634,199.565728 Z" id="Combined-Shape" fill="#A8DFC5"></path><path d="M902.633463,183.274648 L902.633463,223.187793 L896.946304,223.187793 L896.946304,183.274648 L891.259144,183.274648 L900.196109,159.652582 L909.133074,183.274648 L902.633463,183.274648 Z" id="Combined-Shape-Copy-4" fill="#A8DFC5"></path><g id="Group-83" transform="translate(782.390661, 129.514085)"><path d="M0,8.14553991 C41.873542,19.3385633 51.6318535,0.768698472 92.6194553,0.0181996368 L92.6194553,42.3750071 C59.0472302,42.3750071 44.2936465,63.3585741 0,50.5023474 L0,8.14553991 Z" id="Rectangle-64" fill="url(#linearGradient-14)"></path><path d="M10.5618677,10.4774452 C43.8807601,16.1433422 55.3170926,0.701220318 92.6194553,0.0181996368 L92.6194553,34.9134695 C65.965119,38.4571877 49.933123,53.7661109 10.5618677,42.3386079 L10.5618677,10.4774452 Z" id="Combined-Shape" fill="#0D6574" opacity="0.427536232"></path><path d="M4.19237133,12.7576686 C39.7514958,22.2628142 54.2169636,3.56273781 89.0237453,2.92541218 L89.0237453,38.894927 C60.5141215,38.894927 41.8066551,58.5082236 4.19237133,47.5906813 L4.19237133,12.7576686 Z" id="Rectangle-64-Copy" stroke="#075B6A" stroke-width="1.6245" opacity="0.5"></path><path d="M43.8723735,45.7907419 C49.705532,45.121505 54.4342412,37.7501237 54.4342412,29.3263009 C54.4342412,20.9024781 49.705532,14.6161442 43.8723735,15.2853811 C38.0392151,15.954618 33.3105058,23.3259993 33.3105058,31.7498221 C33.3105058,40.1736449 38.0392151,46.4599788 43.8723735,45.7907419 Z" id="Oval-30" fill="url(#linearGradient-15)"></path><path d="M42.6900179,40.7276995 L42.6900179,38.7236958 C40.4211103,39.2632978 38.7572447,38.9152979 37.5903779,38.0712016 L39.2542435,35.1237288 C40.0537633,35.7313676 41.2206301,36.1301298 42.6900179,35.9180907 L42.6900179,32.3999509 C40.4643276,32.5469235 38.0441594,32.4901244 38.0441594,29.4618522 C38.0441594,27.2129147 39.7728509,24.7341666 42.6900179,23.4710011 L42.6900179,21.4001973 L44.7428391,20.7306714 L44.7428391,22.8460086 C46.4931393,22.47555 47.9625271,22.6865783 49.1293939,23.3970744 L47.422311,26.2695756 C46.6443998,25.7884894 45.7152281,25.6239371 44.7428391,25.6961472 L44.7428391,28.8357529 C46.9685295,28.6887803 49.4535235,28.7689699 49.4535235,31.7972421 C49.4535235,34.2688467 47.8977012,36.668947 44.7428391,38.0319032 L44.7428391,40.0581736 L42.6900179,40.7276995 Z M46.3418788,33.1683698 C46.3418788,32.4335684 45.6720108,32.2735113 44.7428391,32.2648259 L44.7428391,35.2485648 C45.8016627,34.6805633 46.3418788,33.8586377 46.3418788,33.1683698 Z M41.1774128,28.1727437 C41.1774128,28.8184782 41.7824549,28.9774116 42.6900179,28.9486112 L42.6900179,26.2320728 C41.7176289,26.6828169 41.1774128,27.4156757 41.1774128,28.1727437 Z" id="$" fill="#CBFACB" opacity="0.5"></path></g><g id="Group-83-Copy" transform="translate(799.452140, 115.666667)"><path d="M0,8.12734027 C41.873542,19.3203637 51.6318535,0.750498835 92.6194553,0 L92.6194553,42.3568075 C59.0472302,42.3568075 44.2936465,63.3403744 0,50.4841478 L0,8.12734027 Z" id="Rectangle-64" fill="url(#linearGradient-14)"></path><path d="M4.19237133,12.7576686 C39.7514958,22.2628142 54.2169636,3.56273781 89.0237453,2.92541218 L89.0237453,38.894927 C60.5141215,38.894927 41.8066551,58.5082236 4.19237133,47.5906813 L4.19237133,12.7576686 Z" id="Rectangle-64-Copy" stroke="#075B6A" stroke-width="1.6245" opacity="0.5"></path><path d="M43.8723735,45.7907419 C49.705532,45.121505 54.4342412,37.7501237 54.4342412,29.3263009 C54.4342412,20.9024781 49.705532,14.6161442 43.8723735,15.2853811 C38.0392151,15.954618 33.3105058,23.3259993 33.3105058,31.7498221 C33.3105058,40.1736449 38.0392151,46.4599788 43.8723735,45.7907419 Z" id="Oval-30" fill="url(#linearGradient-15)"></path><path d="M42.6900179,40.7276995 L42.6900179,38.7236958 C40.4211103,39.2632978 38.7572447,38.9152979 37.5903779,38.0712016 L39.2542435,35.1237288 C40.0537633,35.7313676 41.2206301,36.1301298 42.6900179,35.9180907 L42.6900179,32.3999509 C40.4643276,32.5469235 38.0441594,32.4901244 38.0441594,29.4618522 C38.0441594,27.2129147 39.7728509,24.7341666 42.6900179,23.4710011 L42.6900179,21.4001973 L44.7428391,20.7306714 L44.7428391,22.8460086 C46.4931393,22.47555 47.9625271,22.6865783 49.1293939,23.3970744 L47.422311,26.2695756 C46.6443998,25.7884894 45.7152281,25.6239371 44.7428391,25.6961472 L44.7428391,28.8357529 C46.9685295,28.6887803 49.4535235,28.7689699 49.4535235,31.7972421 C49.4535235,34.2688467 47.8977012,36.668947 44.7428391,38.0319032 L44.7428391,40.0581736 L42.6900179,40.7276995 Z M46.3418788,33.1683698 C46.3418788,32.4335684 45.6720108,32.2735113 44.7428391,32.2648259 L44.7428391,35.2485648 C45.8016627,34.6805633 46.3418788,33.8586377 46.3418788,33.1683698 Z M41.1774128,28.1727437 C41.1774128,28.8184782 41.7824549,28.9774116 42.6900179,28.9486112 L42.6900179,26.2320728 C41.7176289,26.6828169 41.1774128,27.4156757 41.1774128,28.1727437 Z" id="$" fill="#CBFACB" opacity="0.5"></path></g><g id="Group-69" transform="translate(191.738521, 280.206573)"><path d="M33.2443761,64.015478 L66.6958027,64.015478 C62.3126256,56.134793 56.7373879,52.1548365 49.9700894,52.0756085 C43.202791,51.9963805 37.6275532,55.976337 33.2443761,64.015478 Z" id="Path-83" fill="#0D505D"></path><g id="Group-68" transform="translate(46.933237, 0.000000)"><path d="M65.0637016,58.9515217 C39.9295039,63.9982798 27.3624051,60.4994072 27.3624051,48.4549039 C27.3624051,30.3881489 -6.5074173,36.6127975 6.52995667,25.2968181 C17.6562109,15.639623 7.7119743,13.7870491 4.90631584,11.6885858 C2.12982232,9.61193604 -2.53442963,4.69895643 1.92550326,2.01981747 C8.70720322,-2.05403679 19.7019705,-0.695062428 27.3624051,13.6566674 C29.4626549,17.5914597 33.3646369,0.255840638 35.9951321,4.35241748 C39.9256474,10.4735684 39.8237971,28.3847802 44.7014132,29.3206638 C48.0208442,29.9575735 50.6722263,17.3433548 53.8274124,19.6634687 C61.0902669,25.0040886 64.8356967,38.1001063 65.0637016,58.9515217 Z M52.4908837,28.8619589 C50.8336196,35.0795015 51.3336496,37.9312931 53.9909739,37.4173339 C56.6482981,36.9033746 56.148268,34.051583 52.4908837,28.8619589 Z" id="Combined-Shape" fill="#2EAD9E" transform="translate(32.570701, 30.604723) scale(-1, 1) translate(-32.570701, -30.604723) "></path><path d="M14.3407112,46.5627117 C22.8585168,42.7290532 29.1597315,41.451167 33.2443554,42.7290532" id="Path-86" stroke="#0D6574" stroke-width="0.9747"></path><path d="M23.4666184,34.8627544 C31.9844239,31.0290959 38.2856386,29.7512097 42.3702626,31.0290959" id="Path-86-Copy" stroke="#0D6574" stroke-width="0.9747"></path><path d="M32.5925256,24.4627923 C41.1103311,20.6291338 47.4115458,19.3512476 51.4961697,20.6291338" id="Path-86-Copy-2" stroke="#0D6574" stroke-width="0.9747"></path><path d="M14.9191073,30.5498886 C16.2563218,38.5765222 15.6289561,44.3695556 13.0370102,47.9289888" id="Path-87-Copy" stroke="#0D6574" stroke-width="0.9747"></path><path d="M8.11489763,55.2904945 C27.3684298,26.0835088 45.6872802,9.76056454 63.0714488,6.32166162" id="Path-85" stroke="#0D6574" stroke-width="0.9747"></path><path d="M29.9116691,11.6999573 C31.2488836,19.726591 30.6215179,25.5196244 28.029572,29.0790576" id="Path-87" stroke="#0D6574" stroke-width="0.9747"></path></g><path d="M50.896312,30.6662241 C56.349716,39.7997631 60.7534118,49.9631004 64.1073994,61.156236 C59.2628544,61.0022391 53.5640335,60.2673343 47.0109368,58.9515217 C47.1420969,46.9567199 48.437222,37.5282873 50.896312,30.6662241 Z" id="Combined-Shape" fill="#0D6574" opacity="0.320652174"></path><g id="Group-67" transform="translate(0.000000, 13.649950)"><path d="M59.3183965,46.7034687 C48.4123449,20.2838051 33.94356,5.43001531 15.9120417,2.14209943 C10.9402458,1.2355287 5.67084008,0.521495557 0.103824438,0 C-1.63249767,14.8630506 19.0179694,11.1318435 16.5806504,15.2068987 C13.2154516,20.8333146 11.9246751,23.1585227 28.2487509,29.6690864 C48.8818307,37.8982187 32.0085981,32.3588534 29.1302632,35.2453689 C21.5481909,42.8489905 37.7029149,48.8276956 45.8407377,48.0279641 L59.3183965,46.7034687 Z" id="Path-31" fill="#33BAAA"></path><path d="M48.8887883,27.6776693 C42.8144282,26.4914451 37.8169076,28.0988491 33.8962266,32.4998814" id="Path-33" stroke="#0D6574" stroke-width="0.925965" transform="translate(41.392507, 29.899891) scale(-1, 1) translate(-41.392507, -29.899891) "></path><path d="M53.4517419,37.0498648 C48.7691119,37.0644565 44.8580088,38.7977836 41.7184327,42.2498459" id="Path-33-Copy-3" stroke="#0D6574" stroke-width="0.925965" transform="translate(47.585087, 39.649855) scale(-1, 1) translate(-47.585087, -39.649855) "></path><path d="M40.4147317,18.833844 C34.1435935,15.179328 26.9732379,15.4013563 18.9036648,19.4999289" id="Path-33-Copy-2" stroke="#0D6574" stroke-width="0.925965" transform="translate(29.659198, 17.874935) scale(-1, 1) translate(-29.659198, -17.874935) "></path><path d="M33.8962266,11.31948 C26.8647132,8.04928735 19.2597906,8.39277901 11.0814587,12.3499549" id="Path-33-Copy" stroke="#0D6574" stroke-width="0.925965" transform="translate(22.488843, 10.724961) scale(-1, 1) translate(-22.488843, -10.724961) "></path><path d="M54.1035924,1.94999289 C28.6457383,2.76757861 11.697625,17.5008582 3.25925256,46.1498316" id="Path-34" stroke="#0D6574" stroke-width="0.925965" transform="translate(28.681422, 24.049912) scale(-1, 1) translate(-28.681422, -24.049912) "></path></g><path d="M52.7998914,64.015478 L86.2513181,64.015478 C79.7082262,55.2182921 73.053031,50.7800852 66.2857326,50.7008572 C59.5184341,50.6216292 55.0231537,55.0598362 52.7998914,64.015478 Z" id="Path-83-Copy" fill="#176574"></path></g></g></g></g></g></svg> 