<?xml version="1.0" encoding="UTF-8"?> <svg xmlns="http://www.w3.org/2000/svg" xmlns:xlink="http://www.w3.org/1999/xlink" width="1126px" height="410px" viewBox="0 0 1126 410"><!-- Generator: Sketch 52.5 (67469) - http://www.bohemiancoding.com/sketch --><title>adoption-illustration@3x</title><desc>Created with Sketch.</desc><defs><linearGradient x1="57.6964029%" y1="16.5761832%" x2="43.1413235%" y2="68.356163%" id="linearGradient-1"><stop stop-color="#7ECC79" offset="0%"></stop><stop stop-color="#33BAAA" offset="100%"></stop></linearGradient><linearGradient x1="57.6964029%" y1="28.8699116%" x2="43.1413235%" y2="61.6045199%" id="linearGradient-2"><stop stop-color="#7ECC79" offset="0%"></stop><stop stop-color="#33BAAA" offset="100%"></stop></linearGradient></defs><g id="Pages" stroke="none" stroke-width="1" fill="none" fill-rule="evenodd"><g id="Company" transform="translate(-252.000000, -1916.000000)"><g id="Pitch" transform="translate(208.000000, 1160.000000)"><g id="adoption-illustration@3x" transform="translate(0.000000, 751.000000)"><g id="Group-14"><path d="M564.016067,33 L567.217178,33 L567.217178,60.7429611 L564.016067,60.7429611 L564.016067,33 Z M721.382066,107.204312 L723.396591,109.692043 L701.83626,127.151254 L699.821736,124.663523 L721.382066,107.204312 Z M761.542345,276.715481 L760.822252,279.834548 L733.790341,273.59374 L734.510434,270.474673 L761.542345,276.715481 Z M654.155797,413.608157 L651.278657,415.011431 L639.116943,390.076223 L641.994083,388.672948 L654.155797,413.608157 Z M479.954587,415.011431 L477.077448,413.608157 L489.239161,388.672948 L492.116301,390.076223 L479.954587,415.011431 Z M370.410992,279.834548 L369.690899,276.715481 L396.72281,270.474673 L397.442903,273.59374 L370.410992,279.834548 Z M407.836654,109.692043 L409.851178,107.204312 L431.411508,124.663523 L429.396984,127.151254 L407.836654,109.692043 Z" id="Rectangle-18" fill="#D6F1EE" fill-rule="nonzero"></path><circle id="Oval-3" fill="#D6F1EE" fill-rule="nonzero" cx="559.5" cy="219.5" r="86.5"></circle><circle id="Oval-3-Copy" stroke="#D6F1EE" stroke-width="3" cx="559" cy="224" r="129"></circle><path d="M766.096243,143.191717 C793.732106,118.928239 810.221834,106.228206 815.565425,105.091619 C820.84698,103.968227 842.802342,111.610134 881.431513,128.017339 L881.431515,128.017336 C882.336479,128.401707 883.172345,128.931769 883.90589,129.586455 L948.660617,187.379726 C1008.75187,212.562956 1064.97754,217.452382 1117.33764,202.048004 C1106.30503,261.031515 1100.78873,290.52327 1100.78873,290.52327 C1057.03461,293.278085 1017.17374,289.756845 981.206116,279.95955 C945.238496,270.162254 912.436335,255.820222 882.799633,236.933452" id="Path-89" fill="#B28C6A" fill-rule="nonzero"></path><g id="Group-4" transform="translate(167.000000, 117.000000)"><path d="M406.992156,172.035105 C415.278136,151.618717 423.021717,138.36064 430.2229,132.260875 C437.424083,126.16111 444.013835,124.61928 449.992156,127.635384 L426.588571,178.138508 L406.992156,172.035105 Z" id="Path-71" fill="#FFD7B3" fill-rule="nonzero" transform="translate(428.492156, 152.138508) rotate(5.000000) translate(-428.492156, -152.138508) "></path><path d="M363.54439,166.402105 C381.646751,155.159464 394.88949,149.532993 403.272605,149.522693 C401.582141,165.23205 400.736909,173.086729 400.736909,173.086729 C364.427373,184.044038 346.272605,189.522693 346.272605,189.522693 L363.54439,166.402105 Z" id="Path-72" fill="#C09A78" fill-rule="nonzero" transform="translate(374.772605, 169.522693) rotate(5.000000) translate(-374.772605, -169.522693) "></path><path d="M383.818211,173.019107 C392.10419,152.602719 399.847772,139.344642 407.048955,133.244877 C414.250138,127.145112 420.83989,125.603282 426.818211,128.619386 L403.414626,179.12251 L383.818211,173.019107 Z" id="Path-71-Copy" fill="#FFD7B3" fill-rule="nonzero"></path><path d="M339.244099,191.221384 C359.984476,165.101769 378.306539,151.772083 394.210286,151.232325 C410.114034,150.692566 423.3695,157.907034 433.976685,172.875728 L383.336968,217.204146 L306.976685,212.349352 L339.244099,191.221384 Z" id="Path-66" fill="#0B4651" fill-rule="nonzero" transform="translate(370.476685, 184.204146) rotate(5.000000) translate(-370.476685, -184.204146) "></path><g id="Group-2" transform="translate(398.898264, 88.818278) rotate(11.000000) translate(-398.898264, -88.818278) translate(338.398264, 10.318278)"><path d="M45.4150906,92.3299433 C47.3017361,61.3985377 69.297664,32.5361303 111.402874,5.74272111 C98.9829209,45.17784 89.4282408,70.284745 82.7388338,81.063436 C72.7047234,97.2314726 64.6447246,108.115764 53.119679,108.115764 C45.4363153,108.115764 42.8681192,102.853824 45.4150906,92.3299433 Z" id="Path-8" fill="url(#linearGradient-1)" fill-rule="nonzero" transform="translate(77.933407, 56.929243) rotate(-11.000000) translate(-77.933407, -56.929243) "></path><path d="M67.7197059,112.517462 C69.2555807,94.8639962 66.2093992,76.6930608 58.5811612,58.0046553 C55.3819757,65.6567547 53.5593042,72.0585035 53.1131467,77.2099017 C52.6669893,82.3612999 57.5358423,94.1304865 67.7197059,112.517462 Z" id="Path-13" fill="#25877C" fill-rule="nonzero"></path><path d="M75.7821984,154.612963 C70.8673029,87.6839015 45.6065701,39.7626497 0,10.849208 C7.07169803,63.3726482 24.4241548,99.7389606 52.0573704,119.948145 L66.2595884,127.603238 L69.1768184,155.305893 C69.365474,156.375855 70.5419102,156.797319 72.7061271,156.570285 C74.870344,156.34325 75.8957011,155.69081 75.7821984,154.612963 Z" id="Path-7" fill="url(#linearGradient-2)" fill-rule="nonzero"></path><path d="M71.0171474,121.906517 C56.9846927,77.4047373 33.669325,40.7690592 1.07104432,11.9994823" id="Path-9" stroke="#0D6574" stroke-width="1.5"></path><path d="M58.6818619,90.5552061 C47.592902,81.5334094 34.4030861,77.5648513 19.1124142,78.6495321" id="Path-10" stroke="#0D6574" stroke-width="1.5"></path><path d="M43.8115562,61.9052188 C43.577596,59.6156217 44.2778202,57.2458562 45.9122287,54.7959222" id="Path-11" stroke="#0D6574" stroke-width="1.5"></path><path d="M34.2761459,48.1881313 C27.9529027,44.3172007 19.5446117,42.9321309 9.05127289,44.0329218" id="Path-12" stroke="#0D6574" stroke-width="1.5"></path><path d="M60.6622324,82.7673388 C64.8768376,51.0647303 78.1684825,23.7076694 100.537167,0.696156355" id="Path-14" stroke="#0D6574" stroke-width="1.5"></path><path d="M68.8802427,49.8770443 C74.6476394,43.8819029 83.7582885,40.1079537 96.21219,38.555197" id="Path-15" stroke="#0D6574" stroke-width="1.5"></path><path d="M62.0564867,72.7796767 C71.4782915,66.6456199 80.5841777,65.690378 89.3741453,69.913951" id="Path-16" stroke="#0D6574" stroke-width="1.5"></path><path d="M64.4404148,63.7351555 C64.584479,58.8550235 63.6382346,55.1833684 61.6016815,52.72019" id="Path-17" stroke="#0D6574" stroke-width="1.5"></path></g><path d="M278.172863,173.765674 C305.054737,160.288831 325.212368,151.392487 338.645758,147.076644 C358.795843,140.60288 373.628765,137.024374 384.193018,139.703808 C394.757272,142.383242 359.743016,166.149733 356.802532,176.193043 C354.84221,182.888583 359.785357,184.400601 371.631973,180.729095 C365.600953,193.202427 354.605548,199.221085 338.645758,198.785068 C322.685968,198.349051 306.390218,198.131042 289.758507,198.131042 L278.172863,173.765674 Z" id="Path-62" fill="#FFD7B3" fill-rule="nonzero" transform="translate(332.172863, 168.807158) rotate(5.000000) translate(-332.172863, -168.807158) "></path><path d="M324.048747,177.690853 C361.279919,173.728148 388.110812,168.599733 404.541425,162.305607 C429.187345,152.864419 451.627206,118.179137 473.231845,118.25444 C481.725026,118.25444 431.042574,190.490542 415.661344,199.017453 C405.407191,204.70206 365.95061,215.251696 297.291602,230.666361 C217.775989,261.15696 140.210385,277.528368 64.5947916,279.780584 C-48.8285991,283.158909 64.5947916,267.996696 64.5947916,249.331528 C64.5947916,230.666361 18.1182463,244.757541 19.9245884,231.88071 C21.7309305,219.003879 55.1056153,216.653125 49.9844036,205.895628 C44.863192,195.138131 30.8241953,198.095286 28.6104749,190.795146 C27.1346614,185.928386 34.2593043,183.09842 49.9844036,182.305247 L84.1690636,188.496821 L90.197191,223.140943" id="Path-63" fill="#FFD7B3" fill-rule="nonzero" transform="translate(244.184396, 199.254318) rotate(5.000000) translate(-244.184396, -199.254318) "></path><path d="M355.865161,176.758465 C352.833748,183.361601 351.525359,188.694934 351.939996,192.758465" id="Path-77" stroke="#AA927C" stroke-width="1.5" transform="translate(353.865161, 184.758465) rotate(5.000000) translate(-353.865161, -184.758465) "></path><path d="M267.663504,159.946965 C193.554212,172.637011 120.208384,178.479743 47.6260211,177.47516 C61.8030485,209.280423 69.9667076,230.243668 72.1169986,240.364897 C75.7873299,257.64082 67.059531,268.946965 67.059531,268.946965 L135.341092,257.265607 L317.626021,190.486837 L317.626021,159.946965 L267.663504,159.946965 Z" id="Path-65" fill="#FFD7B3" fill-rule="nonzero" transform="translate(182.626021, 214.446965) rotate(5.000000) translate(-182.626021, -214.446965) "></path><path d="M372.138843,145.745306 C374.803158,148.613872 376.257968,150.539982 376.503274,151.523637 C376.871234,152.999118 386.030486,147.678283 385.068022,145.745306 C384.426379,144.456655 380.116653,144.456655 372.138843,145.745306 Z" id="Path-78" stroke="#AA927C" stroke-width="1.5" transform="translate(378.638843, 148.278818) rotate(5.000000) translate(-378.638843, -148.278818) "></path><path d="M472.859539,155.089056 L468.474585,149.560999 C474.417195,143.992469 477.901136,141.536435 478.926406,142.192898 C480.464311,143.177592 478.509978,145.511442 476.232483,149.319702 C474.714152,151.858542 473.589838,153.78166 472.859539,155.089056 Z" id="Path-79" stroke="#AA927C" stroke-width="1.5" transform="translate(473.974585, 148.589056) rotate(5.000000) translate(-473.974585, -148.589056) "></path><path d="M413.123073,157.140022 C415.683969,151.639454 418.350636,146.972788 421.123073,143.140022" id="Path-80" stroke="#AA927C" stroke-width="1.5" transform="translate(417.123073, 150.140022) rotate(5.000000) translate(-417.123073, -150.140022) "></path><path d="M445.227988,142.552209 L440.371243,139.964106 C443.129889,135.308808 446.463222,132.504843 450.371243,131.552209" id="Path-81" stroke="#AA927C" stroke-width="1.5" transform="translate(445.371243, 137.052209) rotate(5.000000) translate(-445.371243, -137.052209) "></path><path d="M278.902798,166.992663 C276.856968,168.915177 275.523635,170.581844 274.902798,171.992663" id="Path-82" stroke="#AA927C" stroke-width="1.5" transform="translate(276.902798, 169.492663) rotate(5.000000) translate(-276.902798, -169.492663) "></path><path d="M59.7040795,167.312722 C36.0943542,165.678185 16.9996834,163.314045 2.42006718,160.220303" id="Path-83" stroke="#AA927C" stroke-width="1.5"></path><path d="M0.477384151,255.100112 C22.9513528,262.312792 58.0320628,265.46083 105.719514,264.544226" id="Path-84" stroke="#AA927C" stroke-width="1.5"></path></g><g id="Group-11" transform="translate(719.544509, 185.935966) rotate(-29.000000) translate(-719.544509, -185.935966) translate(646.544509, 159.435966)"><rect id="Rectangle-17" stroke="#0D6574" stroke-width="8" x="115.975063" y="9.31186637" width="29.6286657" height="33.0147989" rx="14.8143328"></rect><polygon id="Path-86" fill="#25877C" fill-rule="nonzero" points="54.4362836 30.9734804 78.3570276 17.1445251 76.1607718 13.3341064 52.3708352 27.3671212"></polygon><rect id="Rectangle-16" fill="#33BAAA" fill-rule="nonzero" x="72.8018643" y="0" width="57.5642648" height="52.485065" rx="8"></rect><polygon id="Path-85" fill="#33BAAA" fill-rule="nonzero" points="77.4213671 52.0584614 8.00978861 11.2244545 14.2172226 5.50530402 81.4938593 39.6903441"></polygon><polygon id="Path-87" fill="#33BAAA" fill-rule="nonzero" points="14.4804216 6.07515675 14.4804216 0.558547179 0.76642278 10.1571303 8.86652571 11.4789412"></polygon></g><path d="M893.986372,242.653466 C858.390894,235.248172 837.635388,229.361983 831.719854,224.9949 C822.846552,218.444275 761.616595,154.812144 770.574963,148.561492 C779.53333,142.31084 800.426506,156.365607 817.866863,163.590271 C829.493768,168.406714 845.2843,176.016681 865.23846,186.420173" id="Path-88" fill="#B28C6A" fill-rule="nonzero"></path><path d="M789,151.098034 C800.729663,142.378183 808.725552,137.649478 812.987669,136.911919 C819.380844,135.805582 835.184623,164.808855 847.803343,176.276056 C832.916872,173.292981 820.983922,168.925497 812.004493,163.173603 L789,151.098034 Z" id="Path-90" fill="#85684E" fill-rule="nonzero"></path><path d="M784.539461,147.489464 C820.503708,169.76733 850.549776,180.877244 874.677663,180.819432" id="Path-91" stroke="#85684E" stroke-width="1.5"></path><path d="M776.585521,163.918717 C778.106256,160.900295 779.858099,158.877159 781.841047,157.849307 C777.347523,150.991244 773.624575,148.572993 770.672202,150.594554 C769.097743,151.488157 771.068849,155.929545 776.585521,163.918717 Z" id="Path-92" stroke="#85684E" stroke-width="1.5"></path><path d="M805,158.880798 C811.247527,152.934496 817.526082,148.640897 823.835664,146" id="Path-93" stroke="#6B5541" stroke-width="1.5"></path><path d="M885.817869,239.609183 C896.658882,240.413239 909.032912,236.218963 922.939959,227.026355" id="Path-95" stroke="#85684E" stroke-width="1.5"></path><path d="M793.247076,185.456983 C793.70782,180.544472 795.968855,177.257748 800.030182,175.596809" id="Path-94" stroke="#85684E" stroke-width="1.5"></path><path d="M1116.08322,202.58637 C1132.47928,200.49783 1139.81202,201.288225 1138.08144,204.957557 C1135.48557,210.461554 1110.6922,224.924779 1116.08322,230.866709 C1121.47424,236.80864 1157.4584,241.774423 1151.8135,254.404675 C1146.16861,267.034926 1136.3297,264.691665 1138.08144,269.969714 C1139.83317,275.247763 1154.08568,289.119461 1100.97008,290.021984 C1065.55968,290.623667 1055.15463,271.559391 1069.75495,232.829158 L1116.08322,202.58637 Z" id="Path-96" fill="#B28C6A" fill-rule="nonzero"></path><path d="M1109.79309,204.422206 C1134.1596,198.099921 1147.43252,194.798969 1149.61186,194.519352" id="Path-97" stroke="#85684E" stroke-width="1.5"></path><path d="M1100.71809,289.989842 C1123.06968,290.559549 1145.92814,285.157802 1169.29347,273.7846" id="Path-98" stroke="#85684E" stroke-width="1.5"></path><path d="M647.512149,196.157496 C616.268907,197.336209 594.271161,216.230651 581.518909,252.840824" id="Path-99" stroke="#D6F1EE" stroke-width="2" stroke-dasharray="3,5"></path><path d="M646.005137,200.392048 C622.925868,204.173422 607.215532,221.240464 598.874131,251.593173" id="Path-100" stroke="#D6F1EE" stroke-width="2" stroke-dasharray="3,5"></path><g id="Group-13" transform="translate(586.101422, 281.436748) rotate(8.000000) translate(-586.101422, -281.436748) translate(23.101422, 76.436748)"><path d="M296.72617,67.8244664 C218.740628,73.446828 150.757746,59.8386726 92.7775245,27 C78.7321175,79.861464 69.8558267,111.762931 66.1486521,122.704401 C148.452561,141.661283 220.853859,151.014287 283.352545,150.763414 C317.670842,151.604593 347.362911,175.37448 363.123188,170.876249 C393.155995,162.304415 401.279898,132.010763 387.494895,79.9952924 L296.72617,67.8244664 Z" id="Path-108" fill="#FFCDB3" fill-rule="nonzero"></path><path d="M399.941738,147 C392.019421,163.649275 392.019421,171.636102 399.941738,170.960479 C407.864054,170.284856 418.216808,162.29803 431,147 L399.941738,147 Z" id="Path-105" fill="#FFCDB3" fill-rule="nonzero"></path><path d="M433.298692,138.481224 C440.928715,124.819702 444.478588,115.399348 443.948312,110.220165 C443.418036,105.040981 427.435265,96.6342593 396,85 L408.37987,141 L433.298692,138.481224 Z" id="Path-116" fill="#FFCDB3" fill-rule="nonzero"></path><g id="Group-12" transform="translate(418.850863, 129.318246) rotate(82.000000) translate(-418.850863, -129.318246) translate(372.850863, 76.818246)" fill-rule="nonzero"><path d="M50.6513115,7.7907474 C52.4811833,6.27733787 53.7929742,5.67760859 54.5866844,5.99155955 C55.3803945,6.30551051 57.0189795,8.07225693 59.5024392,11.2917988 L56.8145527,18.4492095 L62.8096863,26.6452798 L60.9765079,31.1089184 C68.3492513,35.6219893 72.3099321,38.568755 72.8585504,39.9492157 C73.4071686,41.3296763 73.1328595,44.5778392 72.035623,49.6937043 L74.8819231,53.6046667 L72.035623,53.6046667 L66.5652134,51.6944465 L66.5652134,48.5261761 L64.8668155,60.9646141 C60.3737954,56.6117038 58.0036865,54.380412 57.7564888,54.2707388 C57.5092911,54.1610655 56.8205376,51.4644303 55.6902282,46.1808332 L52.6247932,43.426673 L52.8100939,39.8909243 L49.143642,36.5587945 C48.2275037,30.6889034 47.5042963,26.5032019 46.9740196,24.0016901 C45.5271146,22.5085316 46.1872973,18.7790301 48.9545677,12.8131857 L50.6513115,7.7907474 Z" id="Path-123" fill="#0B4651" transform="translate(60.555384, 33.437633) rotate(87.000000) translate(-60.555384, -33.437633) "></path><path d="M11.2468717,38.6 L59.4720394,38.6 L59.4720394,38.5999959 C61.8678163,38.5999959 63.9269002,40.2993936 64.3812899,42.6516854 C66.5179012,53.7125301 67.5862069,63.4596179 67.5862069,71.892949 C67.5862069,80.0700941 66.5818209,88.2376027 64.573049,96.3954748 L64.5730512,96.3954753 C64.022905,98.6296873 62.0190171,100.2 59.7180686,100.2 L10.8645918,100.2 L10.8645918,100.200003 C8.63269624,100.200003 6.67108203,98.720776 6.0573455,96.574923 C4.16470904,89.9575563 3.2183908,81.9161357 3.2183908,72.4506612 C3.2183908,62.50419 4.26332873,52.5454111 6.35320459,42.5743247 L6.3531987,42.5743235 C6.83857471,40.2585275 8.88075655,38.6 11.2468717,38.6 Z" id="Rectangle-19" fill="#33BAAA"></path><path d="M6.02298851,37 L64.7816092,37 C65.8861787,37 66.7816092,37.8954305 66.7816092,39 L66.7816092,39 C66.7816092,40.1045695 65.8861787,41 64.7816092,41 L6.02298851,41 C4.91841901,41 4.02298851,40.1045695 4.02298851,39 L4.02298851,39 C4.02298851,37.8954305 4.91841901,37 6.02298851,37 Z" id="Rectangle-20" fill="#D6F1EE"></path><ellipse id="Oval-4" fill="#FFFFFF" cx="35.8045977" cy="69" rx="19.7126437" ry="23.2"></ellipse><path d="M41.8585467,74.8007688 L41.8585467,74.8007688 C42.6114177,73.4979841 42.8153485,71.9495729 42.4254383,70.4964593 C42.0355282,69.0433458 41.0837468,67.8046746 39.7796542,67.0531722 L39.7796542,67.0531722 C38.9162875,66.5560607 37.9371854,66.2948685 36.9407841,66.2958551 L35.898024,66.2958551 C35.7779379,66.2960459 35.6627941,66.3436632 35.5776846,66.4283304 L35.5776846,66.4283304 C35.4487527,66.5583554 35.4103823,66.7529577 35.4803171,66.9221473 C35.5502519,67.0913368 35.7148609,67.2021371 35.898024,67.2033108 L36.9429933,67.2033108 C39.5745218,67.2045301 41.7069223,69.3373076 41.706109,71.9672688 C41.7052958,74.59723 39.5715768,76.72869 36.940048,76.7282837 C34.3085193,76.7278775 32.1754592,74.5957589 32.1754589,71.9657976 L32.1754589,71.9194312 L32.1754589,58.7204763 L32.1754589,58.67411 L32.1754589,57.6297631 C32.1767591,57.5094559 32.1288843,57.3938274 32.0429047,57.3096144 L32.0429047,57.3096144 C31.9579629,57.2246728 31.8427268,57.1769488 31.7225652,57.1769488 C31.6024037,57.1769488 31.4871676,57.2246728 31.4022258,57.3096144 L31.4022258,57.3096144 C31.3162462,57.3938274 31.2683714,57.5094559 31.2696716,57.6297631 L31.2696716,59.1753081 C31.2696716,59.3859216 31.1572437,59.5805364 30.9747384,59.6858432 C30.7922331,59.7911499 30.5673773,59.7911499 30.384872,59.6858432 C30.2023667,59.5805364 30.0899388,59.3859216 30.0899388,59.1753081 L30.0899388,57.6297631 C30.0906857,57.1979372 30.2631477,56.7841162 30.5693433,56.479436 L30.5693433,56.479436 C30.8745547,56.1725583 31.2896216,56 31.7225652,56 C32.1555089,56 32.5705758,56.1725583 32.8757872,56.479436 L32.8757872,56.479436 C33.1833352,56.7842933 33.3566558,57.1990616 33.357401,57.631971 L33.357401,58.6763179 L33.357401,58.7226842 L33.357401,71.9194312 L33.357401,71.9657976 C33.3574012,73.4162644 34.2317803,74.7238673 35.5727211,75.2787304 C36.9136619,75.8335935 38.4570125,75.5264144 39.4829426,74.5004636 C40.5088727,73.4745129 40.8152842,71.9318926 40.2592646,70.5920926 C39.7032449,69.2522925 38.3943243,68.3792399 36.9429933,68.380133 L35.898024,68.380133 C35.2374749,68.3800406 34.6420675,67.982164 34.3895908,67.3721338 C34.1371141,66.7621035 34.2773228,66.0601359 34.7448021,65.593736 L34.7448021,65.593736 C35.0495255,65.2875169 35.4636827,65.1151204 35.8958148,65.1146171 L36.9407841,65.1146171 C38.1455558,65.1145798 39.3290194,65.4321653 40.3717299,66.0353203 L40.3717299,66.0353203 C41.9458907,66.943233 43.0943933,68.4392562 43.5642915,70.1939058 C44.0341896,71.9485555 43.786943,73.8179175 42.8770051,75.3902839 L42.8770051,75.3902839 L42.3600436,76.2933238 C42.248592,76.508217 42.3250627,76.7727008 42.5340255,76.8950624 C42.7429882,77.0174239 43.0112338,76.9547945 43.1443229,76.7525715 L43.6634937,75.8539474 L43.6634937,75.8539474 L43.6634937,75.8539474 C44.6950311,74.0698079 44.9742775,71.9489268 44.4396762,69.9588269 C43.905075,67.9687269 42.6005173,66.272797 40.8135773,65.2448844 L40.8135773,65.2448844 C39.0309681,64.2132108 36.9101434,63.9350531 34.9215411,64.4721119 C34.6161118,64.529883 34.3182395,64.3408526 34.2406528,64.040019 C34.1630662,63.7391853 34.3323955,63.4298046 34.6277125,63.3328244 C36.9160496,62.7139693 39.3568001,63.031793 41.4100715,64.215993 L41.4100715,64.215993 C45.688697,66.6806827 47.1584222,72.144883 44.6929983,76.4213832 L44.6929983,76.4346308 L44.6929983,76.4346308 L44.1716183,77.3376707 C43.7103402,78.0957463 42.7274891,78.3465114 41.9590634,77.9021827 C41.1906377,77.4578541 40.918307,76.4813023 41.3460036,75.7038087 L41.8673836,74.8007688 L41.8585467,74.8007688 Z M36.9429933,77.6357401 C37.2687675,77.6357401 37.5328597,77.8996749 37.5328597,78.2252551 C37.5328597,78.5508353 37.2687675,78.8147702 36.9429933,78.8147702 C35.7421689,78.8135399 34.5627752,78.4967857 33.5230938,77.8962748 L33.5230938,77.8962748 C31.3989627,76.6759011 30.0889621,74.4144441 30.0877295,71.9657976 L30.0877295,71.9657976 L30.0877295,61.9815764 C30.0890297,61.8612692 30.0411549,61.7456407 29.9551753,61.6614278 L29.9551753,61.6614278 C29.8258611,61.5303049 29.6299621,61.4905274 29.4597012,61.5608212 C29.2894404,61.6311149 29.1787474,61.7974719 29.1797329,61.9815764 L29.1797329,71.9657976 L29.1797329,71.9657976 C29.177448,73.3266428 29.5324327,74.6642747 30.2092376,75.8451157 L30.2092376,75.8451157 C32.3531976,79.5553156 37.099945,80.8272792 40.8135773,78.6867107 C40.9955074,78.581404 41.2198317,78.5810973 41.4020494,78.6859062 C41.5842671,78.790715 41.696695,78.9847165 41.6969826,79.1948321 C41.6972702,79.4049477 41.5853738,79.5992558 41.4034437,79.7045625 C37.1294304,82.1656671 31.6685104,80.7024511 29.1996161,76.4346308 L29.1996161,76.4346308 C28.4135075,75.0763587 27.9997219,73.5349163 28.0000001,71.9657976 L28.0000001,71.9657976 L28.0000001,61.9815764 C28.0007471,61.5497505 28.173209,61.1359295 28.4794047,60.8312493 L28.4794047,60.8312493 C28.7846161,60.5243716 29.199683,60.3518133 29.6326266,60.3518133 C30.0655702,60.3518133 30.4806372,60.5243716 30.7858486,60.8312493 L30.7858486,60.8312493 C31.0931903,61.1362454 31.2664734,61.550924 31.2674623,61.9837843 L31.2674623,71.9657976 L31.2674623,71.9657976 C31.2643493,73.9929095 32.3464023,75.8668455 34.1041232,76.878423 L34.1041232,76.878423 C34.96749,77.3755344 35.946592,77.6367266 36.9429933,77.6357401 L36.9429933,77.6357401 Z" id="Shape" fill="#2F8F83"></path><path d="M7.9697674,98.6 C2.94015406,99.7132058 0.283564923,101.769817 -2.84217094e-13,104.769834 C3.26450135,104.918092 5.40334554,104.298131 6.41653257,102.90995 C7.4297196,101.521769 7.94746454,100.085119 7.9697674,98.6 Z" id="Path-101" fill="#33BAAA"></path><path d="M69.923791,98.6 C64.8941776,99.7132058 62.2375885,101.769817 61.9540236,104.769834 C65.2185249,104.918092 67.3573691,104.298131 68.3705562,102.90995 C69.3837432,101.521769 69.9014881,100.085119 69.923791,98.6 Z" id="Path-101-Copy" fill="#33BAAA" transform="translate(65.938907, 101.695647) scale(-1, 1) translate(-65.938907, -101.695647) "></path><polygon id="Path-124" fill="#0B4651" points="55.7399323 18.480487 60.7934575 18.480487 58.2666949 14.1777431 55.7399323 15.4843981"></polygon><polygon id="Path-125" fill="#0B4651" points="77.4157746 13.124763 82.2091841 10.8140525 78.7428091 6.69436826"></polygon><path d="M81.1153859,6.42586803 L91.6104038,5.58757817 L90.5104191,3.34492079 C89.4694136,1.36849519 88.5179082,0.561550976 87.6559029,0.924088142 C86.3628949,1.46789389 87.06446,3.05700819 85.0971081,3.34492079 C83.7855402,3.53686252 82.4582995,4.56384493 81.1153859,6.42586803 Z" id="Path-126" fill="#0B4651"></path></g><path d="M296,67.3591748 C327.917561,61.1197249 347.011741,58 353.282539,58 C362.688736,58 407.585933,67.3591748 425.021501,70.6677073 C442.457068,73.9762399 411.114747,95.9072231 377.18464,92.9888981 C356.704447,93.5542653 338.178159,106.891299 321.605778,133" id="Path-104" fill="#FFCDB3" fill-rule="nonzero"></path><path d="M395.246398,164.070447 C386.78823,175.356816 379.695373,181 373.967826,181 C365.376506,181 347.115136,161.837912 351.738268,153.945971 C354.820356,148.684676 365.730676,148.684676 384.469229,153.945971 L398,153.945971 L395.246398,164.070447 Z" id="Path-106" fill="#FFCDB3" fill-rule="nonzero"></path><path d="M362,169.544906 C359.716353,178.514969 355.459593,183 349.229719,183 C339.884909,183 311,163.463779 311,150.266721 C311,141.468682 326.187388,143.693463 356.562163,156.941064 L362,169.544906 Z" id="Path-107" fill="#FFCDB3" fill-rule="nonzero"></path><g id="Path-109" transform="translate(0.000000, 0.000000)"></g><path d="M378.119709,92.7119219 C352.888946,96.0857941 338.273288,103.735232 334.272735,115.660235 C330.272181,127.585239 321.221173,137.602467 307.119709,145.711922" id="Path-110" stroke="#AA8E7C" stroke-width="1.5"></path><path d="M293,154 C290.002349,152.165936 288.002349,146.832602 287,138" id="Path-111" stroke="#AA8E7C" stroke-width="1.5"></path><path d="M319.685245,164 C313.64834,157.268921 311.168012,152.174496 312.244261,148.716727 C313.32051,145.258957 324.405454,146.77054 345.499092,153.251474" id="Path-112" stroke="#AA8E7C" stroke-width="1.5"></path><path d="M360.54122,173 C345.895869,157.226742 340.562209,146.621509 344.540238,141.184302 C348.714342,135.479097 353.328589,138.433711 370.046707,149.185602 C372.511178,150.770572 377.828942,152.652746 386,154.832124" id="Path-114" stroke="#AA8E7C" stroke-width="1.5"></path><path d="M396,154 C393.333333,158.595878 392.444444,163.262545 393.333333,168" id="Path-115" stroke="#AA8E7C" stroke-width="1.5"></path><path d="M322.513945,167.208595 C325.446609,162.923745 328.424471,159.844604 331.44753,157.971174 C321.882475,153.577029 316.442224,151.811409 315.126775,152.674312 C313.811327,153.537215 313.736436,155.41655 314.902102,158.312317" id="Path-117" stroke="#AA8E7C" stroke-width="1.5"></path><path d="M350.088798,160.127361 C353.218564,156.405373 355.858875,153.665387 358.009732,151.907404 C349.775553,146.178871 344.886521,144.62488 343.342637,147.245433" id="Path-118" stroke="#AA8E7C" stroke-width="1.5"></path><path d="M407.93156,67.3898136 L405.148905,74.7112236 C410.801646,76.39439 416.793445,75.0166439 423.124302,70.5779851" id="Path-119" stroke="#AA8E7C" stroke-width="1.5"></path><path d="M0.238017491,92.1818795 C15.8587687,106.044377 42.8368652,117.030848 81.172307,125.141291" id="Path-121" stroke="#AA8E7C" stroke-width="1.5"></path><path d="M79.5052782,125.461286 C50.2612642,116.661335 35.268631,109.624216 34.5273784,104.34993 C33.4154995,96.4385006 68.3540222,104.44927 65.8112854,91.8855698 C63.2685485,79.3218699 34.2803994,73.1337091 43.0791866,66.2636966 C51.8779737,59.3936841 83.5694009,70.7989246 80.6022989,49.6868969 C78.6242309,35.6122117 83.6114508,29.0057194 95.5639585,29.8674198 L104.646813,94.4952863 L83.9074618,124.8426 L79.5052782,125.461286 Z" id="Path-122" fill="#FFCDB3" fill-rule="nonzero"></path><path d="M109.328728,36.3966136 C83.9270586,26.0271134 62.1508157,13.8949089 44,-2.4158453e-13" id="Path-120" stroke="#AA8E7C" stroke-width="1.5"></path></g></g></g></g></g></g></svg> 