<?xml version="1.0" encoding="UTF-8"?> <svg xmlns="http://www.w3.org/2000/svg" xmlns:xlink="http://www.w3.org/1999/xlink" width="51px" height="51px" viewBox="0 0 51 51"><!-- Generator: Sketch 52.6 (67491) - http://www.bohemiancoding.com/sketch --><title>Android</title><desc>Created with Sketch.</desc><defs><radialGradient cx="10.1475267%" cy="12.3100204%" fx="10.1475267%" fy="12.3100204%" r="99.9669394%" id="radialGradient-1"><stop stop-color="#7ECC79" offset="0%"></stop><stop stop-color="#28AD9D" offset="100%"></stop></radialGradient><circle id="path-2" cx="25.5" cy="25.5" r="25.5"></circle></defs><g id="Illustrations" stroke="none" stroke-width="1" fill="none" fill-rule="evenodd"><g id="All-Icons" transform="translate(-1310.000000, -2197.000000)"><g id="Group-34-Copy" transform="translate(1310.000000, 2197.000000)"><g id="Android"><mask id="mask-3" fill="white"><use xlink:href="#path-2"></use></mask><use id="Oval" fill="url(#radialGradient-1)" xlink:href="#path-2"></use><circle id="Oval" fill="#0D6574" mask="url(#mask-3)" cx="-27.5" cy="-3.5" r="48.5"></circle><circle id="Oval-Copy-2" fill="#0B4651" opacity="0.200000003" mask="url(#mask-3)" cx="43.5" cy="-7.5" r="34.5"></circle><g id="android-logo" mask="url(#mask-3)" fill="#FFFFFF"><g transform="translate(12.000000, 10.000000)"><path d="M1.94075177,9.9979356 C1.40893422,9.9979356 0.957706918,10.1833936 0.586790824,10.5543097 C0.215874729,10.9252258 0.030360872,11.370314 0.030360872,11.8897974 L0.030360872,19.8658887 C0.030360872,20.398376 0.215818919,20.8492126 0.586790824,21.2201845 C0.957706918,21.5911006 1.40893422,21.7766145 1.94075177,21.7766145 C2.47217865,21.7766145 2.92067124,21.5911564 3.28583886,21.2201845 C3.65028094,20.8492684 3.83300428,20.398376 3.83300428,19.8658887 L3.83300428,11.8897974 C3.83300428,11.3702582 3.64754623,10.9252258 3.27657433,10.5543097 C2.90560242,10.1833936 2.46023522,9.9979356 1.94075177,9.9979356 Z" id="Path" fill-rule="evenodd"></path><path d="M17.2996695,2.83779275 L18.6166839,0.408253269 C18.7031343,0.24740762 18.6723828,0.124066578 18.5241503,0.0373371753 C18.3632488,-0.0374487961 18.2396287,0.000446483412 18.1532342,0.148344113 L16.8178023,2.59730563 C15.6427138,2.07776637 14.3998714,1.81752235 13.0892751,1.81752235 C11.7783998,1.81752235 10.5354458,2.07782218 9.36080377,2.59730563 L8.02531608,0.148344113 C7.93853087,0.000446483412 7.81491077,-0.0371139336 7.65439999,0.0373371753 C7.50583263,0.124457251 7.47508109,0.24740762 7.5618663,0.408253269 L8.87893655,2.83779275 C7.54344886,3.51884739 6.47981375,4.46734558 5.6884219,5.68535233 C4.89703006,6.9040288 4.5011667,8.2357772 4.5011667,9.68294156 L21.6587429,9.68294156 C21.6587429,8.23611206 21.2628237,6.90430785 20.4714877,5.68535233 C19.68004,4.46734558 18.622544,3.51884739 17.2996695,2.83779275 Z M9.68528559,6.37159733 C9.54285739,6.51436041 9.37274721,6.58540708 9.17501086,6.58540708 C8.97688385,6.58540708 8.81023392,6.51436041 8.67427972,6.37159733 C8.53832552,6.22950399 8.47034842,6.06006353 8.47034842,5.86165747 C8.47034842,5.66392113 8.53832552,5.49414581 8.67427972,5.3517176 C8.81023392,5.20962426 8.97727452,5.13857758 9.17501086,5.13857758 C9.37274721,5.13857758 9.54285739,5.20962426 9.68528559,5.3517176 C9.82737894,5.49448067 9.89876047,5.66392113 9.89876047,5.86165747 C9.8983698,6.05972867 9.82704408,6.22950399 9.68528559,6.37159733 Z M17.503545,6.37159733 C17.3673117,6.51436041 17.2002711,6.58540708 17.0028697,6.58540708 C16.8046868,6.58540708 16.6346325,6.51436041 16.4924833,6.37159733 C16.3501109,6.22950399 16.2790642,6.06006353 16.2790642,5.86165747 C16.2790642,5.66392113 16.3501109,5.49414581 16.4924833,5.3517176 C16.6346325,5.20962426 16.8046868,5.13857758 17.0028697,5.13857758 C17.200606,5.13857758 17.3672559,5.20962426 17.503545,5.3517176 C17.6396108,5.49448067 17.7074763,5.66392113 17.7074763,5.86165747 C17.7074763,6.05972867 17.639555,6.22950399 17.503545,6.37159733 Z" id="Shape" fill-rule="nonzero"></path><path d="M4.57483647,22.7039047 C4.57483647,23.2732827 4.77257281,23.7552615 5.1681013,24.15079 C5.56396465,24.5463185 6.0459435,24.7440549 6.61493079,24.7440549 L7.98764404,24.7440549 L8.00645216,28.9551748 C8.00645216,29.4869365 8.1919102,29.9384987 8.5628263,30.3094706 C8.93374239,30.6804425 9.3791654,30.8659005 9.89831399,30.8659005 C10.4297967,30.8659005 10.881303,30.6804425 11.2522749,30.3094706 C11.6232468,29.9384987 11.8087049,29.4869923 11.8087049,28.9551748 L11.8087049,24.7444455 L14.3683943,24.7444455 L14.3683943,28.9551748 C14.3683943,29.4869365 14.5537965,29.9384987 14.9247684,30.3094706 C15.2957403,30.6804425 15.746856,30.8659005 16.2787294,30.8659005 C16.8102121,30.8659005 17.2617184,30.6804425 17.6326903,30.3094706 C18.0036622,29.9384987 18.1890645,29.4869923 18.1890645,28.9551748 L18.1890645,24.7444455 L19.5803068,24.7444455 C20.1366809,24.7444455 20.6124648,24.5466534 21.0087188,24.1511249 C21.4041915,23.7555964 21.6020395,23.2736176 21.6020395,22.7042954 L21.6020395,10.3500436 L4.57483647,10.3500436 L4.57483647,22.7039047 Z" id="Path" fill-rule="evenodd"></path><path d="M24.2370729,9.9979356 C23.7175337,9.9979356 23.2725013,10.1806589 22.9015294,10.545101 C22.5306133,10.9102128 22.3451553,11.3587054 22.3451553,11.8897974 L22.3451553,19.8658887 C22.3451553,20.398376 22.5305575,20.8492126 22.9015294,21.2201845 C23.2725013,21.5911564 23.7178685,21.7766145 24.2370729,21.7766145 C24.7685556,21.7766145 25.220062,21.5911564 25.5910339,21.2201845 C25.9620058,20.8492126 26.147408,20.398376 26.147408,19.8658887 L26.147408,11.8897974 C26.147408,11.3586496 25.9620058,10.9102128 25.5910339,10.545101 C25.220062,10.1806589 24.7685556,9.9979356 24.2370729,9.9979356 Z" id="Path" fill-rule="evenodd"></path></g></g></g></g></g></g></svg> 