<?xml version="1.0" encoding="UTF-8"?> <svg xmlns="http://www.w3.org/2000/svg" xmlns:xlink="http://www.w3.org/1999/xlink" width="653px" height="395px" viewBox="0 0 653 395"><!-- Generator: Sketch 52.5 (67469) - http://www.bohemiancoding.com/sketch --><title>Big Bot</title><desc>Created with Sketch.</desc><defs><linearGradient x1="50%" y1="0%" x2="50%" y2="100%" id="linearGradient-1"><stop stop-color="#B0EFAB" offset="0%"></stop><stop stop-color="#8CED85" offset="100%"></stop></linearGradient><linearGradient x1="57.6964029%" y1="-28.1753217%" x2="43.7542636%" y2="87.8333223%" id="linearGradient-2"><stop stop-color="#66AD62" offset="0%"></stop><stop stop-color="#2DA193" offset="100%"></stop></linearGradient><linearGradient x1="57.6964029%" y1="-28.1753217%" x2="43.1413235%" y2="92.9334256%" id="linearGradient-3"><stop stop-color="#7ECC79" offset="0%"></stop><stop stop-color="#33BAAA" offset="100%"></stop></linearGradient><linearGradient x1="11.5884416%" y1="20.3503406%" x2="81.0877102%" y2="92.6145286%" id="linearGradient-4"><stop stop-color="#C9F1E5" offset="0%"></stop><stop stop-color="#A4F5DA" offset="100%"></stop></linearGradient><linearGradient x1="11.5884416%" y1="20.3503406%" x2="81.0877102%" y2="92.6145286%" id="linearGradient-5"><stop stop-color="#A0ECD5" offset="0%"></stop><stop stop-color="#A4F5DA" offset="100%"></stop></linearGradient><linearGradient x1="50%" y1="0%" x2="50%" y2="100%" id="linearGradient-6"><stop stop-color="#0D6574" offset="0%"></stop><stop stop-color="#188294" offset="100%"></stop></linearGradient><path d="M0.207346518,86.7304358 L12.990951,12.2257836 C14.1916871,5.2277242 20.2919567,0.134347097 27.3919607,0.201761976 L31.0352936,0.236355596 C36.0320485,0.283800025 40.2531158,3.9562923 40.9912801,8.89845019 L50.4798074,72.4260394 C57.1036433,77.5288323 61.8838481,85.8425123 64.8204219,97.3670794 L42.7580857,105.555207 L13.2546211,103.402786 C5.38166984,102.828416 -0.534999167,95.9805088 0.0393709589,88.1075575 C0.0730388245,87.6460686 0.129096694,87.1864868 0.207346518,86.7304358 Z" id="path-7"></path><linearGradient x1="30.5740261%" y1="16.8943476%" x2="46.4132263%" y2="102.836117%" id="linearGradient-9"><stop stop-color="#147787" offset="0%"></stop><stop stop-color="#229BB0" offset="42.0105796%"></stop><stop stop-color="#0D7082" offset="70.9710356%"></stop><stop stop-color="#095F6F" offset="100%"></stop></linearGradient><linearGradient x1="57.6964029%" y1="-28.1753217%" x2="43.1413235%" y2="92.9334256%" id="linearGradient-10"><stop stop-color="#B8FFB3" offset="0%"></stop><stop stop-color="#25A596" offset="100%"></stop></linearGradient><linearGradient x1="11.5884416%" y1="20.3503406%" x2="81.0877102%" y2="92.6145286%" id="linearGradient-11"><stop stop-color="#9DE0CC" offset="0%"></stop><stop stop-color="#A4F5DA" offset="100%"></stop></linearGradient><linearGradient x1="11.5884416%" y1="20.3503406%" x2="81.0877102%" y2="92.6145286%" id="linearGradient-12"><stop stop-color="#CAF9EB" offset="0%"></stop><stop stop-color="#A4F5DA" offset="100%"></stop></linearGradient><path d="M0,0 L52.235793,0 L46.2134224,45.8310303 C45.1541361,53.892338 38.2832215,59.9194544 30.1526145,59.9194544 L22.0831785,59.9194544 C13.9525715,59.9194544 7.08165695,53.892338 6.02237064,45.8310303 L0,0 Z" id="path-13"></path><path d="M0.997713095,49.8787347 L30.026945,0.156299837 C56.1739993,-0.80241823 71.0088704,8.14794998 74.5315583,27.0074045 C69.1677129,45.8929111 53.8313709,64.4119717 28.5225321,82.5645864 C18.4770438,83.3904035 11.0899505,80.9956365 6.36125233,75.3802852 C0.731755971,69.2689389 -1.05609044,60.7684221 0.997713095,49.8787347 Z" id="path-15"></path><path d="M0,0 L8.66036435,18.546903 C18.8977292,21.8477978 29.4447537,23.4982453 40.3014378,23.4982453 C51.158122,23.4982453 62.0148062,21.8477978 72.8714903,18.546903 L81.291727,0 L0,0 Z" id="path-17"></path><linearGradient x1="23.2916903%" y1="14.537225%" x2="78.8050321%" y2="119.862794%" id="linearGradient-19"><stop stop-color="#AFF7E7" offset="0%"></stop><stop stop-color="#5DD1E4" offset="100%"></stop></linearGradient><linearGradient x1="57.6964029%" y1="-28.1753217%" x2="43.1413235%" y2="92.9334256%" id="linearGradient-20"><stop stop-color="#3FA739" offset="0%"></stop><stop stop-color="#23867B" offset="100%"></stop></linearGradient><ellipse id="path-21" cx="24.6845973" cy="24.7008389" rx="24.6845973" ry="24.7008389"></ellipse><ellipse id="path-23" cx="22.6142762" cy="22.6291556" rx="22.6142762" ry="22.6291556"></ellipse><linearGradient x1="9.38355439%" y1="15.4514204%" x2="90.1666618%" y2="50%" id="linearGradient-25"><stop stop-color="#93E6CA" offset="0%"></stop><stop stop-color="#79DDBA" offset="100%"></stop></linearGradient><linearGradient x1="9.38355439%" y1="15.4514204%" x2="90.1666618%" y2="50%" id="linearGradient-26"><stop stop-color="#B6F4DF" offset="0%"></stop><stop stop-color="#79DDBA" offset="100%"></stop></linearGradient><path d="M43.2635114,25.0238554 L43.4895784,22.5200664 C43.5942535,21.360745 44.566041,20.4727471 45.7300784,20.4727471" id="path-27"></path><filter x="-196.4%" y="-105.9%" width="491.7%" height="312.3%" id="filter-28"><feMorphology radius="0.317625" operator="dilate" in="SourceAlpha" result="shadowSpreadOuter1"></feMorphology><feOffset dx="0" dy="0" in="shadowSpreadOuter1" result="shadowOffsetOuter1"></feOffset><feMorphology radius="1" operator="erode" in="SourceAlpha" result="shadowInner"></feMorphology><feOffset dx="0" dy="0" in="shadowInner" result="shadowInner"></feOffset><feComposite in="shadowOffsetOuter1" in2="shadowInner" operator="out" result="shadowOffsetOuter1"></feComposite><feGaussianBlur stdDeviation="1.5" in="shadowOffsetOuter1" result="shadowBlurOuter1"></feGaussianBlur><feColorMatrix values="0 0 0 0 0.414386489 0 0 0 0 0.762223639 0 0 0 0 0.392089236 0 0 0 1 0" type="matrix" in="shadowBlurOuter1"></feColorMatrix></filter><path d="M1.96312297,9.16586929 C0.473203418,8.63017218 -0.300632256,6.98729073 0.234712617,5.49639086 C0.770057491,4.00549099 2.4118587,3.23114616 3.90177825,3.76684327 C10.6119208,6.17945942 15.3753062,5.27517576 18.83979,1.17817288 C19.8624437,-0.0311891595 21.6712053,-0.182000695 22.8797722,0.841325883 C24.088339,1.86465246 24.2390514,3.6746042 23.2163977,4.88396623 C18.0853266,10.9518291 10.7849498,12.3377366 1.96312297,9.16586929 Z" id="path-29"></path><linearGradient x1="57.6964029%" y1="-28.1753217%" x2="43.1413235%" y2="92.9334256%" id="linearGradient-31"><stop stop-color="#58AC52" offset="0%"></stop><stop stop-color="#23A091" offset="100%"></stop></linearGradient><linearGradient x1="11.5884416%" y1="20.3503406%" x2="81.0877102%" y2="92.6145286%" id="linearGradient-32"><stop stop-color="#56CBA7" offset="0%"></stop><stop stop-color="#A4F5DA" offset="100%"></stop></linearGradient><path d="M17.9746925,2.47928515 C47.1350249,21.5340001 89.6730281,16.4391527 117.180759,0 C131.672371,14.9205708 140.650873,43.4492242 135.879145,61.9762087 C106.808459,84.6454732 35.500724,87.5092312 1.01255636,61.9762087 C-2.20984955,37.9757981 1.94892839,18.6772516 17.9746925,2.47928515 Z" id="path-33"></path><linearGradient x1="57.6964029%" y1="-28.1753217%" x2="43.1413235%" y2="92.9334256%" id="linearGradient-35"><stop stop-color="#BEFFBA" offset="0%"></stop><stop stop-color="#33BAAA" offset="100%"></stop></linearGradient><path d="M4.45874225,28.6554304 L0.279293822,10.9166168 C-0.745772823,6.56593121 1.705554,2.14918038 5.93987753,0.717492159 L5.93987753,0.717492159 C10.2290146,-0.732729323 14.9327761,1.18246312 16.9890208,5.21628222 L23.0568493,17.1197889 C18.0656023,18.1895529 15.1613262,22.6018257 14.3440208,30.3566074 L4.45874225,28.6554304 Z" id="path-36"></path></defs><g id="Pages" stroke="none" stroke-width="1" fill="none" fill-rule="evenodd"><g id="Bots/AI" transform="translate(-863.000000, -4500.000000)"><g id="Group-8" transform="translate(149.000000, 4270.000000)"><g id="Big-Bot" transform="translate(714.000000, 230.000000)"><path d="M27.9761795,141.701537 C36.0732947,136.341012 35.3317378,133.045493 40.3541595,132.2006 C45.3765813,131.355706 46.7286004,135.462847 54.4083703,133.813406 C62.0881403,132.163965 61.9595766,111.980344 84.1584401,112.312139 C106.357304,112.643935 105.513527,138.235307 112.284106,138.235307 C119.054685,138.235307 118.734085,132.2006 128.884707,132.2006 C139.03533,132.2006 143.548384,149.930368 165.11471,149.930368 L0,149.930368 C13.2527095,148.018164 22.5781027,145.275221 27.9761795,141.701537 Z" id="Path-72-Copy-5" fill="#33BAAA" opacity="0.200000003"></path><polyline id="Path-289" stroke="#3FBDA1" points="113.210069 325.71414 113.210069 258.320775 30.7627688 258.320775 52.450175 223.030916 82.4598441 223.030916 87.4724406 165.910839 142.699527 165.910839 142.699527 74.2040214 186.546172 74.2040214 186.546172 181.388195 531.898994 181.388195 531.898994 258.472725 551.965496 258.472725 551.965496 216.912151 583.839776 244.86687 583.839776 302.134947 557.634941 302.134947 557.634941 339.282137"></polyline><path d="M121.394636,363.917844 L500.871777,363.917844" id="Path-288" stroke="#0B4651" stroke-width="0.99"></path><path d="M573.228379,363.483211 L526.630528,363.483211" id="Path-288-Copy" stroke="#0B4651" stroke-width="0.99"></path><path d="M62.6155392,363.483211 L16.0176879,363.483211" id="Path-288-Copy-2" stroke="#0B4651" stroke-width="0.99"></path><path d="M284.909532,38.5651808 L476.872864,38.5651808 C486.520934,38.5651808 494.342239,46.3864864 494.342239,56.0345558 L494.342239,359.895699 C494.342239,369.543769 486.520934,377.365074 476.872864,377.365074 L284.909532,377.365074 C275.261462,377.365074 267.440157,369.543769 267.440157,359.895699 L267.440157,56.0345558 C267.440157,46.3864864 275.261462,38.5651808 284.909532,38.5651808 Z" id="Rectangle-60-Copy" fill="#0D6574"></path><path d="M284.554064,38.5651808 L465.08796,38.5651808 C474.736029,38.5651808 482.557335,46.3864864 482.557335,56.0345558 L482.557335,359.895699 C482.557335,369.543769 474.736029,377.365074 465.08796,377.365074 L284.554064,377.365074 C274.905994,377.365074 267.084689,369.543769 267.084689,359.895699 L267.084689,56.0345558 C267.084689,46.3864864 274.905994,38.5651808 284.554064,38.5651808 Z" id="Rectangle-60" fill="url(#linearGradient-1)"></path><rect id="Rectangle-65-Copy-3" fill="#0D6574" opacity="0.5" x="433.506651" y="66.024908" width="28.347473" height="18.4857891" rx="9.24289456"></rect><rect id="Rectangle-66" fill="#0D6574" x="423.632812" y="314.577136" width="18.4736341" height="18.4857891"></rect><polyline id="Path-283" stroke="#0D6574" stroke-width="1.2705" opacity="0.400000006" points="366.655307 265.3824 350.687764 265.3824 332.052459 265.3824 332.052459 212.713728 356.783813 212.713728 356.783813 163.764175 327.091969 163.764175 327.091969 226.320188 303.785556 226.320188 303.785556 266.249717 296.686988 259.146478 296.686988 235.417647 287.569815 235.417647 287.569815 160.802038 312.523312 160.802038 312.523312 128.915268 337.759912 128.915268 337.759912 109.993058 272.571928 109.993058 272.571928 88.7150268 283.560809 88.6764817 283.560809 100.089374 330.796692 100.089374 330.796692 88.6764817 342.931084 88.6764817 342.931084 68.5938425 319.17994 68.5938425 319.17994 47.5733537"></polyline><polyline id="Path-282" stroke="#0D6574" stroke-width="1.2705" opacity="0.400000006" points="365.378851 280.540447 365.378851 287.066028 336.391814 287.066028 336.391814 316.453447 372.184741 316.453447 372.184741 297.872906 382.216622 297.872906 382.216622 330.128203 398.043123 330.128203 398.043123 377.514919"></polyline><polyline id="Path-281" stroke="#0D6574" stroke-width="1.2705" opacity="0.400000006" points="378.92573 259.758427 378.92573 227.464046 363.434246 227.464046 363.434246 146.365724 372.724809 146.365724 372.724809 191.248884 400.469389 191.248884 400.469389 166.414431 442.604469 166.414431 442.604469 139.437102 413.231371 139.437102 413.231371 110.885469 369.80437 110.885469 377.218308 103.466654 424.069536 103.466654 424.069536 116.945875 452.176739 116.945875 452.176739 85.0115311 442.063806 85.0115311 442.063806 103.283929 436.408239 97.6246414 436.408239 91.6410125 381.823254 91.6410125 381.823254 64.725947 418.691309 64.725947 418.691309 54.8199264"></polyline><ellipse id="Oval-74" fill="#0D6574" cx="363.593501" cy="227.407078" rx="2.388832" ry="2.39040377"></ellipse><ellipse id="Oval-74-Copy-7" fill="#0D6574" cx="332.141322" cy="264.890404" rx="2.388832" ry="2.39040377"></ellipse><ellipse id="Oval-74-Copy-19" fill="#0D6574" cx="321.132893" cy="274.890404" rx="2.388832" ry="2.39040377"></ellipse><ellipse id="Oval-74-Copy-8" fill="#0D6574" cx="336.838583" cy="316.967539" rx="2.388832" ry="2.39040377"></ellipse><ellipse id="Oval-74-Copy" fill="#0D6574" cx="393.85204" cy="213.064656" rx="2.388832" ry="2.39040377"></ellipse><ellipse id="Oval-74-Copy-2" fill="#0D6574" cx="373.148829" cy="190.754221" rx="2.388832" ry="2.39040377"></ellipse><ellipse id="Oval-74-Copy-3" fill="#0D6574" cx="400.54077" cy="191.710382" rx="2.388832" ry="2.39040377"></ellipse><ellipse id="Oval-74-Copy-14" fill="#0D6574" cx="419.014404" cy="54.9792866" rx="2.388832" ry="2.39040377"></ellipse><ellipse id="Oval-74-Copy-15" fill="#0D6574" cx="451.82103" cy="116.173623" rx="2.388832" ry="2.39040377"></ellipse><ellipse id="Oval-74-Copy-16" fill="#0D6574" cx="424.110579" cy="103.424803" rx="2.388832" ry="2.39040377"></ellipse><ellipse id="Oval-74-Copy-17" fill="#0D6574" cx="413.281207" cy="139.121499" rx="2.388832" ry="2.39040377"></ellipse><ellipse id="Oval-74-Copy-4" fill="#0D6574" cx="412.644185" cy="192.347823" rx="2.388832" ry="2.39040377"></ellipse><ellipse id="Oval-74-Copy-5" fill="#0D6574" cx="419.969937" cy="227.407078" rx="2.388832" ry="2.39040377"></ellipse><ellipse id="Oval-74-Copy-9" fill="#0D6574" cx="449.591453" cy="248.761352" rx="2.388832" ry="2.39040377"></ellipse><ellipse id="Oval-74-Copy-10" fill="#0D6574" cx="460.73979" cy="256.390404" rx="2.388832" ry="2.39040377"></ellipse><ellipse id="Oval-74-Copy-18" fill="#0D6574" cx="304.62025" cy="333.390404" rx="2.388832" ry="2.39040377"></ellipse><ellipse id="Oval-74-Copy-11" fill="#0D6574" cx="457.872738" cy="280.952123" rx="2.388832" ry="2.39040377"></ellipse><ellipse id="Oval-74-Copy-12" fill="#0D6574" cx="450.865497" cy="327.485316" rx="2.388832" ry="2.39040377"></ellipse><ellipse id="Oval-74-Copy-13" fill="#FFFFFF" cx="433.347396" cy="323.97939" rx="2.388832" ry="2.39040377"></ellipse><ellipse id="Oval-74-Copy-6" fill="#0D6574" cx="332.37943" cy="213.064656" rx="2.388832" ry="2.39040377"></ellipse><path d="M293.357944,239.645593 L292.109735,252.727611 L270.652681,258.923159 L270.652681,273.171482 C284.914929,279.933818 292.046053,293.525662 292.046053,313.947014 C292.046053,314.667649 292.057846,322.052919 292.046053,322.731076 C291.870374,332.83368 295.405801,351.162076 302.652335,377.716264 L272.208774,376.341383 L267.080434,301.682498 L267.080434,214.049517 C310.793149,185.177152 340.421497,172.440532 355.965477,175.83966 C353.092931,188.857843 345.833769,232.194875 293.357944,239.645593 Z" id="Path-278" fill="#0D6574" opacity="0.5"></path><path d="M324.887336,79.361405 L386.692631,79.361405 C388.095987,79.361405 389.233631,80.4990495 389.233631,81.902405 L389.233631,143.75171 C389.233631,145.155066 388.095987,146.29271 386.692631,146.29271 L324.887336,146.29271 C323.48398,146.29271 322.346336,145.155066 322.346336,143.75171 L322.346336,81.902405 C322.346336,80.4990495 323.48398,79.361405 324.887336,79.361405 Z" id="Rectangle-61" fill="#0D6574"></path><g id="Group-120" transform="translate(130.921265, 94.341269)"><polygon id="Path-271" fill="#66BFCE" points="229.514455 7.25547863 206.395085 3.73875608 228.031138 9.47954518"></polygon><path d="M229.222407,28.0504392 C235.084244,25.83408 238.225527,21.5886196 238.646258,15.3140581 C241.434438,15.7123363 242.828528,16.1671794 242.828528,16.6785873 L242.828528,21.6822486 L236.025467,30.505197 L232.649684,30.505197 L229.222407,28.0504392 Z" id="Path-269" fill="#9DD5CB"></path><path d="M220.013176,31.045753 C219.944449,30.8918455 219.894638,30.7776275 219.863743,30.703099 C219.198119,29.0974197 219.247929,27.9920771 220.013176,27.3870712 C220.831701,26.7399429 223.28826,27.1937557 227.382853,28.7485099 L223.391067,33.3612453 L220.013176,31.045753 Z" id="Path-266" fill="url(#linearGradient-2)"></path><ellipse id="Oval-67" fill="url(#linearGradient-3)" cx="228.69085" cy="31.8720502" rx="4.777664" ry="4.78080753"></ellipse><path d="M207.549167,36.6744153 L218.981683,30.2054707 C225.673169,30.4163686 230.706184,33.1048626 234.080728,38.2709526 C233.276159,45.7181143 232.290784,50.8561931 231.124605,53.685189 L207.549167,36.6744153 Z" id="Path-263" fill="#1D8B9D"></path><polygon id="Path-261" fill="url(#linearGradient-3)" points="123.714244 28.5594862 118.038632 28.5594862 111.994054 34.0625405 116.747078 36.0826739"></polygon><polygon id="Path-259" fill="url(#linearGradient-4)" points="108.18327 26.7609126 115.848629 34.921208 123.399344 28.5358532 126.69725 28.5358532 116.48827 37.4622533 109.963932 37.4622533 103.447467 31.0537577"></polygon><polygon id="Path-260" fill="#0D6574" opacity="0.200000003" points="116.455304 37.5818956 107.665161 27.759409 101.887426 28.9692003 109.83625 37.5818956"></polygon><polygon id="Path-258" fill="url(#linearGradient-3)" points="124.655008 22.4296637 119.673112 22.4296637 110.655237 16.0379083 115.93375 9.63827518"></polygon><polygon id="Path-256" fill="url(#linearGradient-4)" points="109.306578 26.0391198 115.3266 13.2437924 124.578157 22.6902125 127.847342 22.6902125 115.512099 8.93561688 107.615958 8.07553972 102.805858 24.4374883"></polygon><path d="M106.939128,25.4558332 L102.805858,24.4374883 L107.615958,8.07553972 L115.241042,8.90609241 L107.153449,25.4133364 L106.939128,25.4558332 Z" id="Combined-Shape" fill="#0D6574" opacity="0.200000003"></path><ellipse id="Oval-65" fill="url(#linearGradient-3)" cx="106.223396" cy="26.6131619" rx="3.66287573" ry="3.66528577"></ellipse><path d="M97.5862992,23.707858 L103.437944,22.6414206 C105.895383,24.7606582 107.13448,28.0896421 107.155232,32.6283725 L100.076035,37.9747855 L97.5862992,23.707858 Z" id="Path-255" fill="#0D6574"></path><path d="M30.0810885,63.3431406 L31.9581454,48.2561147 C38.0667448,33.8501707 55.3682224,22.8179938 83.8625784,15.159584 C100.445226,19.9687196 107.039548,31.0008965 103.645545,48.2561147 C79.4055402,63.9350022 60.6836992,73.1215667 47.4800218,75.8158082 L30.0810885,63.3431406 Z" id="Path-254" fill="url(#linearGradient-3)"></path><path d="M54.9565619,56.5298993 C49.5250307,43.1156204 53.9711164,28.4841329 63.5952728,25.5009624 C71.2746412,23.1206118 73.0259448,37.5376859 73.0259448,55.3426475 L54.0045261,72.2853021 L34.4619924,66.4836525 L30.0810885,63.3431406 L31.9581454,48.2561147 C32.0968786,47.9289395 32.241385,47.6035045 32.3916646,47.2798096 C42.6992935,47.1085902 50.2209259,50.1919534 54.9565619,56.5298993 Z" id="Combined-Shape" fill="#0D6574" opacity="0.300000012"></path><path d="M35.9240158,85.7560916 L53.0134525,65.5189855 C53.0134525,57.4916478 47.3169736,52.6055115 35.9240158,50.8605766 C12.6862427,68.6134854 9.02159556,88.0152729 24.9300743,109.065939 C27.396068,109.018176 31.0607152,101.248227 35.9240158,85.7560916 Z" id="Path-253" fill="#0D6574"></path><path d="M28.5900125,117.696471 C24.8659273,118.045836 22.2896879,117.198082 20.8612943,115.153209 C15.6210011,107.65126 26.0166826,76.0395372 38.1826691,80.1708493 L44.9322048,85.4566737 C44.0630546,83.3847978 38.6156572,94.1313968 28.5900125,117.696471 Z" id="Path-252" fill="url(#linearGradient-5)"></path><g id="Group-115-Copy" transform="translate(50.637599, 234.287486) rotate(23.000000) translate(-50.637599, -234.287486) translate(18.137599, 181.287486)"><g id="Group-118" transform="translate(0.000000, 0.000000)"><mask id="mask-8" fill="white"><use xlink:href="#path-7"></use></mask><use id="Path-244" fill="url(#linearGradient-6)" xlink:href="#path-7"></use><polygon id="Path-248" fill="url(#linearGradient-9)" mask="url(#mask-8)" points="67.6446587 97.4868965 55.6250395 96.6527894 24.5971401 66.799823 -14.3796202 69.7001192 -3.30301797 108.789927 40.8573471 108.864917"></polygon></g><path d="M14.2589554,79.0866134 L23.8132722,8.32129651 C24.4305506,3.74934176 28.3553184,0.352282603 32.9685387,0.397010481 L32.9685387,0.397010481 C37.6355796,0.442260179 41.5933972,3.83854228 42.3467116,8.44460736 L56.8043163,96.8441798 L27.6535221,95.2714023 C19.7711115,94.8461213 13.7259134,88.1114065 14.1511944,80.2289959 C14.171809,79.8469128 14.2077583,79.4658116 14.2589554,79.0866134 Z" id="Path-244-Copy" fill="url(#linearGradient-10)"></path><ellipse id="Oval-60" fill="url(#linearGradient-6)" cx="34.7176917" cy="12.1113791" rx="6.05170773" ry="6.05568954"></ellipse></g><path d="M55.6843138,184.102875 L61.7354175,187.8783 C65.9399993,184.896794 70.1930328,184.896794 74.4945179,187.8783 L79.6500071,181.280901 L72.6213243,167.970783 L55.6843138,184.102875 Z" id="Path-249" fill="url(#linearGradient-11)"></path><path d="M66.7085209,173.602585 L72.6213243,167.970783 L79.6500071,181.280901 L74.4945179,187.8783 C73.8575642,187.436806 73.2216728,187.060687 72.5868438,186.749943 C69.5789728,184.103593 67.6195319,179.72114 66.7085209,173.602585 Z" id="Combined-Shape" fill="#0D6574" opacity="0.200000003"></path><path d="M79.3927081,180.793658 L79.6500071,181.280901 L74.4945179,187.8783 C70.1930328,184.896794 65.9399993,184.896794 61.7354175,187.8783 L61.3308659,187.625891 L75.7630025,176.121437 L79.3927081,180.793658 Z" id="Combined-Shape" fill="#0D6574" opacity="0.200000003"></path><g id="Group-116" transform="translate(64.976230, 128.125642)"><mask id="mask-14" fill="white"><use xlink:href="#path-13"></use></mask><use id="Rectangle-57" fill="url(#linearGradient-12)" xlink:href="#path-13"></use><path d="M-13.0589483,28.4317736 L-4.39858391,57.4308042 C5.83878092,61.48617 16.3858054,63.5138528 27.2424896,63.5138528 C38.0991738,63.5138528 48.9558579,61.48617 59.8125421,57.4308042 L68.2327787,28.4317736 L-13.0589483,28.4317736 Z" id="Path-235-Copy-4" fill="#0D6574" opacity="0.200000003" mask="url(#mask-14)"></path><path d="M-13.0589483,29.0035657 L-4.39858391,47.5504687 C5.83878092,51.6058344 16.3858054,53.6335173 27.2424896,53.6335173 C38.0991738,53.6335173 48.9558579,51.6058344 59.8125421,47.5504687 L68.2327787,29.0035657 L-13.0589483,29.0035657 Z" id="Path-235-Copy-3" fill="#0D6574" opacity="0.200000003" mask="url(#mask-14)"></path><path d="M-13.0589483,23.2665967 L-4.39858391,41.8134996 C5.83878092,45.8688654 16.3858054,47.8965482 27.2424896,47.8965482 C38.0991738,47.8965482 48.9558579,45.8688654 59.8125421,41.8134996 L68.2327787,23.2665967 L-13.0589483,23.2665967 Z" id="Path-235-Copy-2" fill="#0D6574" opacity="0.200000003" mask="url(#mask-14)"></path><path d="M-12.4219264,17.5296276 L-3.76156204,36.0765306 C6.47580279,40.1318963 17.0228273,42.1595792 27.8795115,42.1595792 C38.7361956,42.1595792 49.5928798,40.1318963 60.449564,36.0765306 L68.8698006,17.5296276 L-12.4219264,17.5296276 Z" id="Path-235-Copy" fill="#0D6574" opacity="0.200000003" mask="url(#mask-14)"></path><path d="M17.5550317,17.5292045 C18.0070299,46.935467 20.4465042,63.5533317 24.8734548,67.3827987 C17.8881572,68.0899218 11.7474194,67.2605566 6.45124163,64.894703 L1.33595705,24.5872717 L17.5550317,17.5292045 Z" id="Path-243" fill="#0D6574" opacity="0.200000003" mask="url(#mask-14)"></path></g><g id="Group-113" transform="translate(163.077598, 33.146932)"><mask id="mask-16" fill="white"><use xlink:href="#path-15"></use></mask><use id="Path-238" fill="url(#linearGradient-3)" xlink:href="#path-15"></use><path d="M54.4238283,11.8434835 C54.2497,11.6060272 54.1468586,11.3129601 54.1468586,10.9958573 C54.1468586,10.2037472 54.7885685,9.56161506 55.5801578,9.56161506 C56.3717471,9.56161506 57.013457,10.2037472 57.013457,10.9958573 C57.013457,11.7879674 56.3717471,12.4300996 55.5801578,12.4300996 C55.4557392,12.4300996 55.3350232,12.4142362 55.2199196,12.3844205 C53.6205056,14.218889 51.4151396,17.187682 48.6105587,21.2843138 C56.0650819,26.2622111 62.8069051,34.8742223 68.8483554,47.113323 L67.9916355,47.5367727 C61.9098218,35.2159016 55.135589,26.6453628 47.6819526,21.8177396 L47.2709851,21.5515613 L47.5469145,21.1469254 C50.4557263,16.8813056 52.7456827,13.782419 54.4238283,11.8434835 Z" id="Combined-Shape" fill="#C4F9E8" fill-rule="nonzero" opacity="0.300000012" mask="url(#mask-16)"></path><path d="M26.4547554,31.2063456 L18.2634611,43.349598 L17.8795209,43.133183 C12.7892827,40.2639749 6.14848556,39.8929053 -2.0605064,42.0450509 L-2.30267932,41.1201077 C5.92497316,38.9630699 12.6851936,39.2779541 17.9615866,42.0880726 L25.6103604,30.7490843 C25.3330273,30.4623027 25.1623637,30.0715981 25.1623637,29.6410067 C25.1623637,28.7608843 25.8753747,28.0474042 26.7549184,28.0474042 C27.634462,28.0474042 28.347473,28.7608843 28.347473,29.6410067 C28.347473,30.5211291 27.634462,31.2346092 26.7549184,31.2346092 C26.6523083,31.2346092 26.5519647,31.2248986 26.4547554,31.2063456 Z" id="Combined-Shape" fill="#C4F9E8" fill-rule="nonzero" opacity="0.340000004" mask="url(#mask-16)"></path><path d="M31.2135454,8.39213613 C30.950771,8.71669845 30.5492404,8.92417406 30.0992832,8.92417406 C29.3076939,8.92417406 28.665984,8.28204193 28.665984,7.4899318 C28.665984,6.69782167 29.3076939,6.05568954 30.0992832,6.05568954 C30.8864871,6.05568954 31.5254677,6.69072662 31.5325234,7.47678095 C33.686577,7.85221013 35.2764347,8.26110754 36.3178867,8.71472514 L42.8760874,-2.30750521 L43.6971155,-1.81835243 L30.4472949,20.4503429 C37.9241761,21.9246179 43.2890011,25.2069399 46.5093956,30.3010299 L46.6847771,30.5784522 L35.9286126,45.0536878 C36.3560402,45.404395 36.6287573,45.9369249 36.6287573,46.5331933 C36.6287573,47.5893401 35.7731441,48.4455163 34.7176917,48.4455163 C33.6622393,48.4455163 32.8066261,47.5893401 32.8066261,46.5331933 C32.8066261,45.4770465 33.6622393,44.6208703 34.7176917,44.6208703 C34.8273429,44.6208703 34.9348372,44.6301112 35.0394393,44.6478571 L45.5246499,30.5372609 C42.3417512,25.6939381 37.0455415,22.6016197 29.6025785,21.2641495 L28.9236042,21.1421405 L35.8251607,9.54283944 C34.8524964,9.13925288 33.3099835,8.7519028 31.2135454,8.39213613 Z" id="Combined-Shape" fill="#C4F9E8" fill-rule="nonzero" opacity="0.340000004" mask="url(#mask-16)"></path><path d="M0.58936148,48.4022649 C15.0966988,47.659579 25.6668282,53.3958894 32.2997499,65.6111961 C41.1738831,61.5819379 55.5590201,46.404515 75.4551611,20.0789274 L78.6398631,22.4318912 L63.991021,59.779987 L29.7279231,90.1957855 L0.58936148,87.5198659 L-3.13062238,62.3653214 L0.58936148,48.4022649 Z" id="Path-239" fill="#0D6574" opacity="0.300000012" mask="url(#mask-16)"></path></g><g id="Group-112" transform="translate(52.554304, 140.874462)"><mask id="mask-18" fill="white"><use xlink:href="#path-17"></use></mask><use id="Path-235" fill="#0D6574" xlink:href="#path-17"></use><path d="M14.4873748,13.0675406 L14.4971201,13.0675406 C15.461927,13.0675406 16.2440576,13.8496711 16.2440576,14.8144781 L16.2440576,24.0694232 C16.2440576,25.0342301 15.461927,25.8163607 14.4971201,25.8163607 L14.4873748,25.8163607 C13.5225679,25.8163607 12.7404373,25.0342301 12.7404373,24.0694232 L12.7404373,14.8144781 C12.7404373,13.8496711 13.5225679,13.0675406 14.4873748,13.0675406 Z" id="Rectangle-56" fill="url(#linearGradient-19)" mask="url(#mask-18)"></path><rect id="Rectangle-56-Copy" fill="url(#linearGradient-19)" mask="url(#mask-18)" x="22.6142762" y="15.2985841" width="3.50362026" height="12.7488201" rx="1.75181013"></rect><rect id="Rectangle-56-Copy-2" fill="url(#linearGradient-19)" mask="url(#mask-18)" x="32.4881152" y="16.5734661" width="3.50362026" height="12.7488201" rx="1.75181013"></rect><path d="M45.7014463,16.5734661 L45.7111915,16.5734661 C46.6759985,16.5734661 47.458129,17.3555967 47.458129,18.3204036 L47.458129,27.5753487 C47.458129,28.5401556 46.6759985,29.3222862 45.7111915,29.3222862 L45.7014463,29.3222862 C44.7366393,29.3222862 43.9545088,28.5401556 43.9545088,27.5753487 L43.9545088,18.3204036 C43.9545088,17.3555967 44.7366393,16.5734661 45.7014463,16.5734661 Z" id="Rectangle-56-Copy-3" fill="url(#linearGradient-19)" mask="url(#mask-18)"></path><path d="M55.8937961,15.2985841 L55.9035414,15.2985841 C56.8683483,15.2985841 57.6504789,16.0807147 57.6504789,17.0455216 L57.6504789,26.3004667 C57.6504789,27.2652736 56.8683483,28.0474042 55.9035414,28.0474042 L55.8937961,28.0474042 C54.9289892,28.0474042 54.1468586,27.2652736 54.1468586,26.3004667 L54.1468586,17.0455216 C54.1468586,16.0807147 54.9289892,15.2985841 55.8937961,15.2985841 Z" id="Rectangle-56-Copy-4" fill="url(#linearGradient-19)" mask="url(#mask-18)"></path><path d="M66.4046569,13.0675406 L66.4144022,13.0675406 C67.3792091,13.0675406 68.1613397,13.8496711 68.1613397,14.8144781 L68.1613397,24.0694232 C68.1613397,25.0342301 67.3792091,25.8163607 66.4144022,25.8163607 L66.4046569,25.8163607 C65.43985,25.8163607 64.6577194,25.0342301 64.6577194,24.0694232 L64.6577194,14.8144781 C64.6577194,13.8496711 65.43985,13.0675406 66.4046569,13.0675406 Z" id="Rectangle-56-Copy-5" fill="url(#linearGradient-19)" mask="url(#mask-18)"></path></g><polygon id="Path-234" fill="#0D6574" points="129.206027 83.9767205 129.206027 83.5899016 129.206027 74.7802162 107.816234 68.8469489 107.816234 78.1210422 91.4045852 78.1210422 91.4045852 88.0433633"></polygon><path d="M95.6288801,74.5121402 C114.413538,75.4589084 126.304736,78.3657453 131.302474,83.2326509 C136.762995,84.2100451 139.985853,80.44383 140.971048,71.9340056 C126.133501,64.8636067 108.20449,62.1996662 87.1840161,63.9421842 C84.7107398,72.352738 87.5256944,75.8760566 95.6288801,74.5121402 Z" id="Path-233" fill="#0D6574"></path><path d="M93.0807926,78.0180658 C111.86545,78.9648339 123.756648,81.8716708 128.754387,86.7385765 C134.214908,87.7159707 137.437766,83.9497556 138.42296,75.4399311 C123.585413,68.3695322 105.656403,65.7055917 84.6359286,67.4481098 C82.1626523,75.8586635 84.977607,79.3819821 93.0807926,78.0180658 Z" id="Path-233-Copy" fill="#188294"></path><ellipse id="Oval-57" fill="url(#linearGradient-19)" cx="116.097235" cy="74.1025167" rx="1.4332992" ry="1.43424226"></ellipse><ellipse id="Oval-57-Copy" fill="url(#linearGradient-19)" cx="106.223396" cy="72.8276347" rx="1.4332992" ry="1.43424226"></ellipse><ellipse id="Oval-57-Copy-2" fill="url(#linearGradient-19)" cx="128.519161" cy="77.2897218" rx="1.4332992" ry="1.43424226"></ellipse><g id="Group-111" transform="translate(51.280260, 17.848348)"><g id="Group-110-Copy" transform="translate(30.258539, 21.991715)"><polygon id="Path-178" fill="url(#linearGradient-19)" fill-rule="nonzero" points="22.1501233 8.69306539 26.1119239 7.48850726 32.9820079 30.1140086 29.0202072 31.3185668"></polygon><ellipse id="Oval-56" fill="#0D6574" cx="23.88832" cy="7.64929205" rx="4.45915306" ry="4.46208703"></ellipse><path d="M15.3776354,5.34821921 C16.501723,1.94969821 18.8939825,0.250437707 22.5544137,0.250437707 C26.2148449,0.250437707 28.6071044,1.27936228 29.731192,3.33721141 C28.1061465,7.11281014 26.293831,8.92972391 24.2942456,8.78795272 C22.2946602,8.64618152 21.2948675,9.69626519 21.2948675,11.9382037 L15.3776354,5.34821921 Z" id="Path-173" fill="url(#linearGradient-19)"></path><path d="M15.9365198,3.99674725 C18.7812341,4.78100147 20.9377839,6.50508983 22.4061691,9.16901232 C21.6653013,9.65048116 21.2948675,10.573545 21.2948675,11.9382037 L15.3776354,5.34821921 C15.5380906,4.86310534 15.7243854,4.41261469 15.9365198,3.99674725 Z" id="Combined-Shape" fill="#0D6574" opacity="0.300000012"></path><path d="M0,20.773714 C0.0953426898,24.4321219 2.26993555,26.9531652 6.52377857,28.3368438 C14.4492146,24.7276387 20.073234,19.7263545 23.3958368,13.3329912 C21.6616792,7.41905507 17.7623731,4.46208703 11.6979184,4.46208703 C5.98613274,9.30976252 2.0868266,14.7469715 0,20.773714 Z" id="Path-170" fill="url(#linearGradient-20)"></path><path d="M22.7563284,11.5158476 C22.9948853,12.0868902 23.2080548,12.6926048 23.3958368,13.3329912 C20.073234,19.7263545 14.4492146,24.7276387 6.52377857,28.3368438 C5.53310563,28.0146004 4.6552055,27.6306694 3.89007819,27.1850509 L4.17564001,25.2654778 L4.17564001,25.8721475 C14.9053754,19.7300727 21.0989382,14.9446394 22.7563284,11.5158476 Z" id="Combined-Shape" fill="#0D6574" opacity="0.300000012"></path></g><g id="Group-108" transform="translate(0.000000, 33.784373)"><mask id="mask-22" fill="white"><use xlink:href="#path-21"></use></mask><use id="Oval-54" fill="url(#linearGradient-12)" xlink:href="#path-21"></use><path d="M26.885004,6.70270429 C14.8664571,4.4863308 2.61190403,27.8567335 14.8664571,48.3305144 C15.7390133,49.788301 17.6760748,50.5172048 18.6150102,52.4002347 C14.8418654,53.2191989 11.2143598,52.6126559 7.73249367,50.5806055 C3.15814519,40.3738984 1.63847908,31.0760692 3.17349535,22.687118 C5.47601975,10.1036912 11.4550835,7.22771637 18.6150102,2.85327264 C27.1298578,6.36103211 26.6696558,-1.38669256 26.885004,6.70270429 Z" id="Path-168" stroke="#0D6574" stroke-width="0.63525" fill-opacity="0.280000001" fill="#0D6574" stroke-linecap="round" stroke-linejoin="round" mask="url(#mask-22)"></path><ellipse id="Oval-54-Copy" fill="#0D6574" opacity="0.300000012" mask="url(#mask-22)" cx="24.6845973" cy="-9.40225481" rx="27.5511957" ry="27.5693234"></ellipse></g><g id="Group-107" transform="translate(4.459153, 0.000000)"><mask id="mask-24" fill="white"><use xlink:href="#path-23"></use></mask><use id="Oval-53" fill="url(#linearGradient-4)" xlink:href="#path-23"></use><path d="M28.665984,53.2263239 C41.1555039,53.2263239 51.2802602,42.1673816 51.2802602,28.5254849 C51.2802602,14.8835883 41.1555039,3.82464603 28.665984,3.82464603 C16.1764641,3.82464603 6.05170773,14.8835883 6.05170773,28.5254849 C6.05170773,42.1673816 16.1764641,53.2263239 28.665984,53.2263239 Z" id="Oval-53-Copy" stroke="#0D6574" stroke-width="0.63525" opacity="0.5" stroke-linecap="round" stroke-linejoin="round" stroke-dasharray="0.8575875163078308,2.401244878768921" mask="url(#mask-24)"></path><g id="Group-95" mask="url(#mask-24)" stroke-linecap="round" stroke-linejoin="round" stroke-width="0.63525"><g transform="translate(24.042041, 26.934712) rotate(4.000000) translate(-24.042041, -26.934712) translate(19.742143, 21.994544)"><path d="M0.105899194,0.214097281 C3.32763939,-0.0995669828 5.84731055,0.628349783 7.66491268,2.39784758 C10.3913159,5.05209427 5.59425133,7.85817869 6.35831602,9.21155017 C1.94530464,9.57221274 -0.138834302,6.57306177 0.105899194,0.214097281 Z" id="Path-153" stroke="#70C9AC" fill="url(#linearGradient-25)" fill-rule="evenodd"></path><path d="M2.60372932,1.27488201 C5.49348441,1.4451747 7.29799172,1.96595412 8.01725125,2.83722027 C9.09614055,4.14411949 7.82382786,8.17689919 8.58789255,9.53027068 C4.17488117,9.89093324 2.1801601,7.13913702 2.60372932,1.27488201 Z" id="Path-153-Copy" stroke="#70C9AC" fill="url(#linearGradient-26)" fill-rule="evenodd"></path><path d="M3.82208269,2.55532646 C5.36546134,2.58939921 6.28215756,2.94506192 6.57217134,3.62231459 C7.00719202,4.6381936 6.79890738,7.55516164 7.00719202,7.97357499" id="Path-154" stroke="#0D6574" fill="none"></path></g></g><path d="M40.3583926,48.3330272 C33.3178136,29.4391115 33.7072304,18.4833027 41.5266431,15.4656009 C49.3460558,12.447899 53.8593061,17.9202555 55.0663939,31.8826702 L40.3583926,48.3330272 Z" id="Path-166" fill="#0D6574" mask="url(#mask-24)"></path><path d="M38.765838,47.8549465 C31.725259,28.7821908 32.1146758,17.72268 39.9340885,14.6764142 C47.7535011,11.6301484 52.2667514,17.1543033 53.4738392,31.2488789 L38.765838,47.8549465 Z" id="Path-166-Copy" stroke="#0D6574" stroke-width="0.63525" stroke-linecap="round" stroke-linejoin="round" mask="url(#mask-24)"></path><g id="Path-167" stroke-linecap="round" stroke-linejoin="round" mask="url(#mask-24)"><use fill="black" fill-opacity="1" filter="url(#filter-28)" xlink:href="#path-27"></use><use stroke="#A8FFA2" stroke-width="0.63525" xlink:href="#path-27"></use></g></g><g id="Group-110" transform="translate(56.057924, 26.135081)"><path d="M13.9307385,10.8840252 L17.8925392,9.67946707 L24.161069,30.3238479 C24.4933338,31.4181078 23.8758611,32.5745823 22.7817228,32.9072475 L22.7817228,32.9072475 C21.688102,33.2397554 20.5319964,32.6227514 20.1994885,31.5291306 C20.1994151,31.5288891 20.1993417,31.5286476 20.1992683,31.528406 L13.9307385,10.8840252 Z" id="Path-178" fill="url(#linearGradient-19)" fill-rule="nonzero" transform="translate(19.346681, 21.594497) rotate(39.000000) translate(-19.346681, -21.594497) "></path><ellipse id="Oval-56" fill="#0D6574" cx="23.88832" cy="7.64929205" rx="4.45915306" ry="4.46208703"></ellipse><path d="M15.3776354,5.34821921 C16.501723,1.94969821 18.8939825,0.250437707 22.5544137,0.250437707 C26.2148449,0.250437707 28.6071044,1.27936228 29.731192,3.33721141 C28.1061465,7.11281014 26.293831,8.92972391 24.2942456,8.78795272 C22.2946602,8.64618152 21.2948675,9.69626519 21.2948675,11.9382037 L15.3776354,5.34821921 Z" id="Path-173" fill="url(#linearGradient-19)"></path><path d="M15.9365198,3.99674725 C18.7812341,4.78100147 20.9377839,6.50508983 22.4061691,9.16901232 C21.6653013,9.65048116 21.2948675,10.573545 21.2948675,11.9382037 L15.3776354,5.34821921 C15.5380906,4.86310534 15.7243854,4.41261469 15.9365198,3.99674725 Z" id="Combined-Shape" fill="#0D6574" opacity="0.300000012"></path><path d="M0,20.773714 C0.0953426898,24.4321219 2.26993555,26.9531652 6.52377857,28.3368438 C14.4492146,24.7276387 20.073234,19.7263545 23.3958368,13.3329912 C21.6616792,7.41905507 17.7623731,4.46208703 11.6979184,4.46208703 C5.98613274,9.30976252 2.0868266,14.7469715 0,20.773714 Z" id="Path-170" fill="url(#linearGradient-3)"></path><path d="M22.7563284,11.5158476 C22.9948853,12.0868902 23.2080548,12.6926048 23.3958368,13.3329912 C20.073234,19.7263545 14.4492146,24.7276387 6.52377857,28.3368438 C5.53310563,28.0146004 4.6552055,27.6306694 3.89007819,27.1850509 L4.17564001,25.2654778 L4.17564001,25.8721475 C14.9053754,19.7300727 21.0989382,14.9446394 22.7563284,11.5158476 Z" id="Combined-Shape" fill="#0D6574" opacity="0.300000012"></path></g><path d="M56.4790447,46.8112 C56.4790447,46.8112 56.4161584,51.8579727 62.4120617,54.0852084 C65.6911375,51.96534 61.154673,44.2789936 56.4790447,46.8112 Z" id="Path-172" fill="#0D6574" opacity="0.300000012"></path><g id="Group-109" transform="translate(37.902801, 48.764237)"><mask id="mask-30" fill="white"><use xlink:href="#path-29"></use></mask><use id="Path-169" fill="#87E3D6" fill-rule="nonzero" xlink:href="#path-29"></use><path d="M17.1995904,0.956161506 C20.1066604,1.38790036 21.9082912,3.24358925 22.6044828,6.52322817" id="Path-171" stroke="#F8FAFC" stroke-width="0.63525" opacity="0.699999988" mask="url(#mask-30)"></path><path d="M14.6515029,3.82464603 C17.558573,4.25638487 19.3602038,6.11207376 20.0563953,9.39171269" id="Path-171-Copy" stroke="#F8FAFC" stroke-width="0.63525" opacity="0.699999988" mask="url(#mask-30)" transform="translate(17.353949, 6.608179) rotate(14.000000) translate(-17.353949, -6.608179) "></path><path d="M10.011798,4.86094945 C12.918868,5.2926883 14.7204988,7.14837719 15.4166904,10.4280161" id="Path-171-Copy-2" stroke="#F8FAFC" stroke-width="0.63525" opacity="0.699999988" mask="url(#mask-30)" transform="translate(12.714244, 7.644483) rotate(34.000000) translate(-12.714244, -7.644483) "></path><path d="M5.55264492,4.86094945 C8.45971498,5.2926883 10.2613458,7.14837719 10.9575373,10.4280161" id="Path-171-Copy-3" stroke="#F8FAFC" stroke-width="0.63525" opacity="0.699999988" mask="url(#mask-30)" transform="translate(8.255091, 7.644483) rotate(50.000000) translate(-8.255091, -7.644483) "></path></g><ellipse id="Oval-55" fill="url(#linearGradient-31)" cx="37.902801" cy="53.5450444" rx="7.32575146" ry="7.33057155"></ellipse></g><path d="M53.9823278,64.258768 L71.5292096,68.996429 C72.9149197,69.3705709 73.8775192,70.6275421 73.8775192,72.062873 L73.8775192,95.2405745 L51.2802602,95.6161506 L45.1542927,64.7201208 L48.532869,64.0633126 C50.3404816,63.7119058 52.2045353,63.7787637 53.9823278,64.258768 Z" id="Rectangle-3-Copy-2" fill="#0D6574"></path><path d="M46.0297169,64.6968721 L64.9353982,69.7046314 C67.0248004,70.2580747 68.4798506,72.1487197 68.4798506,74.3101778 L68.4798506,96.2535916 L43.6359978,96.2535916 L43.6359978,66.5390906 C43.6359978,65.486574 44.4892312,64.6333406 45.5417478,64.6333406 C45.7064662,64.6333406 45.8704896,64.6546958 46.0297169,64.6968721 Z" id="Rectangle-3" fill="#26A1B6"></path><path d="M55.8920243,72.0308335 L55.9053132,72.0308335 C57.2209591,72.0308335 58.2875007,73.0973751 58.2875007,74.413021 L58.2875007,89.7280376 C58.2875007,91.0436834 57.2209591,92.1102251 55.9053132,92.1102251 L55.8920243,92.1102251 C54.5763784,92.1102251 53.5098368,91.0436834 53.5098368,89.7280376 L53.5098368,74.413021 C53.5098368,73.0973751 54.5763784,72.0308335 55.8920243,72.0308335 Z" id="Rectangle-55" fill="url(#linearGradient-32)"></path><rect id="Rectangle-55-Copy" fill="url(#linearGradient-12)" x="52.554304" y="72.0308335" width="4.777664" height="20.0793916" rx="2.388832"></rect><g id="Group-114" transform="translate(24.206831, 72.030833)"><mask id="mask-34" fill="white"><use xlink:href="#path-33"></use></mask><use id="Path-179" fill="url(#linearGradient-3)" xlink:href="#path-33"></use><ellipse id="Oval-66" fill="url(#linearGradient-12)" opacity="0.5" mask="url(#mask-34)" cx="53.6690922" cy="26.9318824" rx="1.4332992" ry="1.43424226"></ellipse><ellipse id="Oval-66-Copy-5" fill="url(#linearGradient-12)" opacity="0.200000003" mask="url(#mask-34)" cx="13.5367147" cy="11.9520188" rx="1.4332992" ry="1.43424226"></ellipse><ellipse id="Oval-66-Copy-3" fill="url(#linearGradient-12)" opacity="0.5" mask="url(#mask-34)" cx="73.4167701" cy="28.8442054" rx="1.4332992" ry="1.43424226"></ellipse><ellipse id="Oval-66-Copy-4" fill="url(#linearGradient-12)" opacity="0.5" mask="url(#mask-34)" cx="116.415746" cy="12.9081803" rx="1.4332992" ry="1.43424226"></ellipse><ellipse id="Oval-66-Copy-2" fill="url(#linearGradient-12)" opacity="0.5" mask="url(#mask-34)" cx="52.3950485" cy="59.1226531" rx="1.4332992" ry="1.43424226"></ellipse><ellipse id="Oval-66-Copy-6" fill="url(#linearGradient-12)" opacity="0.5" mask="url(#mask-34)" cx="3.66287573" cy="43.824069" rx="1.4332992" ry="1.43424226"></ellipse><ellipse id="Oval-66-Copy" fill="url(#linearGradient-12)" opacity="0.5" mask="url(#mask-34)" cx="73.4167701" cy="60.3975351" rx="1.4332992" ry="1.43424226"></ellipse><path d="M25.3561705,6.66415657 C11.9549312,24.8992564 12.7550584,52.5646143 19.7490224,71.9645349 C12.7955362,69.3177519 6.44694734,65.999514 1.01255636,61.9762087 C-2.20984955,37.9757981 1.94892839,18.6772516 17.9746925,2.47928515 C20.3514411,4.03236301 22.8170611,5.42500894 25.3561705,6.66415657 Z" id="Combined-Shape" fill="#0D6574" opacity="0.200000003" mask="url(#mask-34)"></path><path d="M46.9064538,7.01185105 C35.8119982,36.4568422 34.9706267,63.5796979 44.3823391,88.3804181" id="Path-240" stroke="#C4F9E8" stroke-width="0.952875" mask="url(#mask-34)"></path><path d="M9.19663759,47.8880914 C17.5712178,54.7897756 27.3205789,58.0466108 38.4447206,57.658597" id="Path-242" stroke="#C4F9E8" stroke-width="0.952875" opacity="0.200000003" mask="url(#mask-34)"></path><path d="M17.9653681,15.2635338 C24.3631926,19.6576642 32.433299,22.2423556 42.1756874,23.017608" id="Path-241" stroke="#C4F9E8" stroke-width="0.952875" opacity="0.200000003" mask="url(#mask-34)"></path><path d="M20.7593477,-0.607464199 C20.7593477,-0.607464199 -1.51858281,34.4625049 18.235233,80.7611028" id="Path-240-Copy" stroke="#C4F9E8" stroke-width="0.952875" mask="url(#mask-34)" transform="translate(15.412450, 40.076819) rotate(8.000000) translate(-15.412450, -40.076819) "></path></g><ellipse id="Oval-58" fill="url(#linearGradient-12)" cx="128.837672" cy="112.986418" rx="18.6328896" ry="25.0195594"></ellipse><ellipse id="Oval-59" fill="#0D6574" opacity="0.200000003" cx="134.411614" cy="112.986418" rx="12.4219264" ry="20.8761929"></ellipse><path d="" id="Path-236" stroke="#979797" stroke-width="0.63525"></path><path d="M135.208075,97.8485224 C130.418672,101.947 128.023971,107.190589 128.023971,113.579291 C128.023971,119.967993 130.116439,125.232395 134.301374,129.372496 C156.201979,131.199547 173.628376,125.226214 186.580565,111.452499 C187.648514,94.5238804 176.485802,88.5225682 169.611346,88.084519 C165.338375,90.1778997 157.470905,102.611122 135.208075,97.8485224 Z" id="Path-237" fill="#0D6574"></path><g id="Group-115" transform="translate(87.909018, 191.869742)"><path d="M0.132857709,80.4671699 L9.72263038,12.5674871 C10.7406954,5.35915262 16.9099309,6.17334234e-14 24.1898033,6.03961325e-14 L33.2269117,5.68434189e-14 C38.6428444,5.58485282e-14 43.1074697,4.2467543 43.3782045,9.655916 L47.72449,96.4927719 L14.3995735,96.758684 C6.50594983,96.8216702 0.0558430931,90.4736843 -0.00714312046,82.5800607 C-0.0127828634,81.8732709 0.0340124652,81.1670364 0.132857709,80.4671699 Z" id="Path-244" fill="url(#linearGradient-6)"></path><path d="M46.6668228,66.6125849 L48.3695598,67.3270885 C58.5961254,71.6183662 65.8438277,80.9330063 67.4901329,91.900567 L68.2221401,96.7771437 L35.9917354,96.7771437 L46.6668228,66.6125849 Z" id="Path-247" fill="url(#linearGradient-6)"></path><path d="M16.6954799,80.5990635 L26.7965125,9.07944204 C27.5320185,3.8717458 31.9890126,9.66132278e-16 37.2483917,0 L37.2483917,0 C42.4982896,-9.64390594e-16 46.9379045,3.88501052 47.6343323,9.08851088 L59.385675,96.8910326 L30.848149,96.8910326 C22.9542741,96.8910326 16.555024,90.4917826 16.555024,82.5979076 C16.555024,81.9291609 16.6019579,81.2612386 16.6954799,80.5990635 Z" id="Path-244-Copy" fill="url(#linearGradient-35)"></path><ellipse id="Oval-60" fill="url(#linearGradient-6)" cx="37.902801" cy="11.7926586" rx="6.68872959" ry="6.69313054"></ellipse><ellipse id="Oval-60-Copy" fill="url(#linearGradient-12)" opacity="0.200000003" cx="40.610144" cy="11.6332983" rx="3.3443648" ry="3.34656527"></ellipse></g><g id="Group-117" transform="translate(96.508813, 174.658835)"><mask id="mask-37" fill="white"><use xlink:href="#path-36"></use></mask><use id="Path-245" fill="url(#linearGradient-12)" xlink:href="#path-36"></use><path d="M14.5008466,30.6266816 L-0.656806416,32.4988902 L-1.22630431,0.458312811 C5.10146541,-2.67438593 10.2296816,-2.67438593 14.1583443,0.458312811 C8.21838115,-1.26569892 5.4444132,5.12623007 6.86983425,9.13982778 L14.5008466,30.6266816 Z" id="Path-246" fill="#0D6574" opacity="0.200000003" mask="url(#mask-37)"></path></g><ellipse id="Oval-61" fill="url(#linearGradient-3)" cx="108.293717" cy="180.714525" rx="2.22957653" ry="2.23104351"></ellipse><path d="M119.036157,22.3053565 L129.68512,21.464412 C131.934912,21.2867467 133.902755,22.9665376 134.080421,25.2163298 C134.088872,25.3233521 134.093103,25.4306658 134.093103,25.5380212 L134.093103,25.5380212 C134.093103,27.8247249 132.239363,29.6784646 129.952659,29.6784646 C129.862009,29.6784646 129.771384,29.6754876 129.680929,29.6695384 L119.039102,28.969625 C117.294429,28.8548778 115.93798,27.4062844 115.93798,25.6578412 L115.93798,25.6578412 C115.93798,23.9032224 117.286984,22.443488 119.036157,22.3053565 Z" id="Rectangle-58" fill="#208192"></path><path d="M129.704893,21.4628977 C131.946431,21.2965976 133.903276,22.9731311 134.080421,25.2163298 C134.088872,25.3233521 134.093103,25.4306658 134.093103,25.5380212 C134.093103,27.8247249 132.239363,29.6784646 129.952659,29.6784646 C129.862009,29.6784646 129.771384,29.6754876 129.680929,29.6695384 L119.039102,28.969625 C117.92566,28.8963939 116.970339,28.2798965 116.424812,27.3889021 C120.041695,27.8070253 124.469546,28.0952115 129.708363,28.2534607 C128.23909,26.0560958 128.237933,23.7925748 129.704893,21.4628977 Z" id="Combined-Shape" fill="#0D6574" opacity="0.400000006"></path><rect id="Rectangle-59" fill="url(#linearGradient-3)" x="130.589483" y="23.9040377" width="12.4219264" height="3.50592552" rx="1.75296276"></rect><path d="M136.087919,23.9040377 L141.264471,23.9040377 C142.229278,23.9040377 143.011409,24.6861682 143.011409,25.6509752 L143.011409,25.6630257 C143.011409,26.6278326 142.229278,27.4099632 141.264471,27.4099632 L136.022322,27.4099632 C136.01026,27.0400526 136.004168,26.6681575 136.004168,26.2944414 C136.004168,25.488661 136.032487,24.6913459 136.087919,23.9040377 Z" id="Combined-Shape" fill="#0D6574" opacity="0.200000003"></path><g id="Group-119" transform="translate(138.870767, 0.000000)"><ellipse id="Oval-62-Copy" fill="#0D6574" cx="20.5439552" cy="26.2944414" rx="20.5439552" ry="26.2944414"></ellipse><ellipse id="Oval-62" fill="url(#linearGradient-12)" cx="16.5625685" cy="26.1350812" rx="14.6515029" ry="21.9917146"></ellipse><path d="M19.5459036,4.59959329 C13.9080528,6.66786465 8.30859374,15.5238175 8.30859374,26.1350812 C8.30859374,36.7463449 13.9080528,45.6022977 19.5459036,47.6705691 C18.58267,47.9696481 17.5848458,48.1267958 16.5625685,48.1267958 C8.47076689,48.1267958 1.9110656,38.2807698 1.9110656,26.1350812 C1.9110656,13.9893926 8.47076689,4.14336653 16.5625685,4.14336653 C17.5848458,4.14336653 18.58267,4.30051421 19.5459036,4.59959329 Z" id="Combined-Shape" fill="url(#linearGradient-3)" opacity="0.300000012"></path><ellipse id="Oval-63" fill="#FFFFFF" cx="25.958641" cy="30.5971682" rx="3.3443648" ry="6.69313054"></ellipse><ellipse id="Oval-64" fill="#FFFFFF" cx="22.6142762" cy="41.1149448" rx="1.59255467" ry="1.59360251"></ellipse></g><path d="M228.495823,5.2027337 C236.887619,4.61678109 242.663356,5.02787646 245.823033,6.43601983 C247.247425,7.4187034 248.648418,16.9900279 244.30869,17.8014458 C239.681468,18.1731372 233.858224,16.0163908 226.838958,11.3312065 L226.838945,11.3312257 C225.64356,10.5333361 225.094293,9.05902147 225.476226,7.67348907 L225.476226,7.67348907 C225.856823,6.29280553 227.06712,5.30249122 228.495822,5.20273289 Z" id="Path-264" fill="url(#linearGradient-3)"></path><path d="M240.232648,5.16619358 C242.588614,5.40176282 244.452076,5.82503823 245.823033,6.43601983 C247.247425,7.4187034 248.648418,16.9900279 244.30869,17.8014458 C239.681468,18.1731372 233.858224,16.0163908 226.838958,11.3312065 L226.838945,11.3312257 C225.74063,10.5981279 225.187759,9.2940015 225.401451,8.0123679 L238.521922,11.7294585 C238.585659,8.74385057 239.155901,6.55609561 240.232648,5.16619358 Z" id="Combined-Shape" fill="#0D6574" opacity="0.200000003"></path><ellipse id="Oval-68" fill="#0D6574" opacity="0.5" cx="244.616397" cy="11.9520188" rx="2.22957653" ry="5.25888828"></ellipse><path d="M229.165483,8.29528609 C230.345923,9.42707452 230.558781,10.6581316 229.804058,11.9884574 C227.225949,11.8177701 222.033474,16.1375574 223.153793,21.4585718 C223.719843,24.1470523 225.470119,25.9491458 228.404622,26.8648524 L228.404627,26.8648379 C229.187914,27.1092615 229.656073,27.9101096 229.484771,28.7125668 L229.484771,28.7125668 C229.306583,29.547277 228.499813,30.0913164 227.659166,29.9436497 L219.749274,28.5542103 C215.565462,24.6165137 214.189006,20.5469582 215.619905,16.3455438 C217.496971,10.8340927 222.012164,8.15067343 229.165483,8.29528609 Z" id="Path-265" fill="url(#linearGradient-4)"></path><path d="M230.175516,9.90050166 C224.686848,10.9472798 221.253395,14.0752576 220.239147,18.2624241 C218.388946,25.9006945 224.400659,28.7373031 227.542201,29.9231038 L219.749274,28.5542103 C215.565462,24.6165137 214.189006,20.5469582 215.619905,16.3455438 C217.496971,10.8340927 222.012164,8.15067343 229.165483,8.29528609 C229.702156,8.80983958 230.038833,9.34491144 230.175516,9.90050166 Z" id="Combined-Shape" fill="#0D6574" opacity="0.200000003"></path><path d="M232.504135,29.0187958 C231.004556,29.2269471 230.768403,31.0161202 231.636269,32.3127001 C232.504135,33.60928 246.147909,34.5308466 244.641313,17.6151491 C243.732338,17.8986868 242.56029,17.8986868 241.125171,17.6151491 C241.679018,24.3429323 238.80534,28.1441479 232.504135,29.0187958 Z" id="Path-268" fill="url(#linearGradient-4)"></path><path d="M245.367777,12.7085351 C245.016158,12.6967139 244.740691,12.4018999 244.752505,12.0500494 C244.764318,11.698199 245.058938,11.4225508 245.410557,11.434372 C249.853096,11.5837266 252.391914,13.2138277 252.778695,16.3316282 C252.982226,17.9722684 252.288312,19.5745568 250.036613,23.6179233 C248.560252,26.2690272 247.991388,27.4092136 247.640686,28.60428 C247.22917,30.0065839 247.40515,30.8070916 248.223324,31.2378985 C251.403754,32.9125447 251.770282,36.5902679 249.509978,42.0311975 C249.374931,42.3562773 249.002098,42.5102576 248.677232,42.3751221 C248.352366,42.2399867 248.198487,41.8669085 248.333534,41.5418287 C250.372923,36.6326789 250.076069,33.6540656 247.630044,32.3661182 C246.170371,31.5975314 245.855189,30.1638198 246.418259,28.2450769 C246.806559,26.9218873 247.395136,25.7421888 248.917185,23.0090423 C250.995297,19.2773857 251.667699,17.7247691 251.514356,16.4886831 C251.218211,14.1014907 249.252124,12.8391237 245.367777,12.7085351 Z" id="Path-270" fill="url(#linearGradient-4)" fill-rule="nonzero"></path></g><ellipse id="Oval-72" fill="#FFFFFF" opacity="0.300000012" cx="337.63486" cy="97.5284736" rx="28.347473" ry="28.3661247"></ellipse><ellipse id="Oval-72-Copy-3" fill="#FFFFFF" opacity="0.300000012" cx="337.316349" cy="97.8471941" rx="97.7828564" ry="97.8471941"></ellipse><ellipse id="Oval-72-Copy-4" fill="#FFFFFF" opacity="0.300000012" cx="337.157094" cy="98.0065544" rx="59.0837781" ry="59.1226531"></ellipse><ellipse id="Oval-72-Copy" fill="#FFFFFF" opacity="0.300000012" cx="337.475605" cy="97.6878339" rx="13.5367147" ry="13.5456213"></ellipse><ellipse id="Oval-72-Copy-2" fill="#FFFFFF" opacity="0.680000007" cx="337.316349" cy="97.8471941" rx="4.777664" ry="4.78080753"></ellipse><g id="Group-124" transform="translate(401.371959, 273.376874)" opacity="0.400000006" stroke="#0D6574" stroke-width="1.2705"><polyline id="Path-286" points="49.0000956 54.9400869 49.0000956 24.0300292 32.6763343 24.0300292 32.6763343 34.0639536 14.2757089 34.0639536 14.2757089 18.2419325 0.0539297676 18.2419325 0.0539297676 11.0663926 19.6230291 11.0663926 19.6230291 0.319467874 45.3960665 0.319467874 45.3960665 7.74014017 57.4917523 7.74014017"></polyline></g><path d="M282.278733,45.1331593 L292.203956,45.1331593 C297.29112,45.1331593 301.415081,49.2571204 301.415081,54.3442843 L301.415081,54.4078234 C301.415081,59.4949873 297.29112,63.6189484 292.203956,63.6189484 L282.278733,63.6189484 C277.191569,63.6189484 273.067608,59.4949873 273.067608,54.4078234 L273.067608,54.3442843 C273.067608,49.2571204 277.191569,45.1331593 282.278733,45.1331593 Z" id="Rectangle-65-Copy-4" fill="#0D6574" opacity="0.300000012"></path><rect id="Rectangle-65-Copy-5" fill="#53A983" x="317.242912" y="354" width="28.347473" height="18.4857891" rx="9.24289456"></rect><polyline id="Path-279" stroke="#0D6574" stroke-width="1.2705" opacity="0.400000006" points="393.18385 251.997817 393.18385 212.154746 412.342245 212.154746 412.342245 182.51852 444.212942 182.51852"></polyline><polyline id="Path-280" stroke="#0D6574" stroke-width="1.2705" opacity="0.400000006" points="398.720744 254.564092 398.720744 227.790502 420.114498 227.790502 420.114498 210.664241 448.161275 210.664241"></polyline><polyline id="Path-284" stroke="#0D6574" stroke-width="1.2705" opacity="0.400000006" points="365.914215 274.919969 321.054156 274.919969 321.054156 297.147075 305.563418 297.147075 305.563418 333.49762 284.396446 333.49762 284.396446 375.819812"></polyline><polyline id="Path-285" stroke="#0D6574" stroke-width="1.2705" opacity="0.400000006" points="459.069448 256.566676 433.142026 256.566676 433.142026 264.284482 447.77931 264.284482 447.77931 268.747431 414.291455 268.747431 414.291455 273.310757 401.765206 273.310757 401.765206 261.935674 413.968768 261.935674 413.968768 249.02733 451.458353 249.02733"></polyline><path d="M467.195161,285 C459.018795,291.780346 455.992487,297.590315 458.116239,302.429907 C461.301866,309.689296 443.791282,300.681615 444.414357,309.689296 C445.037431,318.696976 459.381967,336.518722 447.389221,335.707386 C439.394057,335.166494 431.739415,337.088425 424.425296,341.473177 L380.707574,321.798264 L371.284291,321.798264 C375.216993,338.569729 381.810527,347.199016 391.064893,347.686125 C388.95381,356.995752 395.897464,374.041888 410.16138,372.813358 C419.670657,371.994338 424.425296,373.432617 424.425296,377.128194 C454.791255,377.561521 469.974234,377.561521 469.974234,377.128194 C469.974234,376.694866 471.966307,356.645018 475.950452,316.978648 L467.195161,285 Z" id="Path-287" fill="#1C9486" opacity="0.400000006"></path><g id="Group-27" transform="translate(451.499558, 340.061719) scale(-1, 1) translate(-451.499558, -340.061719) translate(367.935574, 278.561719)"><g id="Group-21" transform="translate(0.000000, 0.000000)"><g id="Group-19" transform="translate(51.241070, 41.310894)"><path d="M5.25933895,61.9569303 C30.4796541,26.6732415 57.0485145,9.69489313 84.9659199,11.0218851 C92.6635326,11.387774 100.737721,12.1401122 109.188485,13.2788996 C106.698023,35.8280728 77.2833983,23.2352508 79.5151128,30.0902054 C82.5964342,39.55482 76.1455338,58.8115347 57.2418024,47.4505571 C38.3380709,36.0895796 44.4124821,75.1133391 24.8359105,68.5351347 C11.7848628,64.1496651 5.25933895,61.9569303 5.25933895,61.9569303 Z" id="Path-31" fill="#33BAAA" transform="translate(57.223912, 40.118721) rotate(-13.000000) translate(-57.223912, -40.118721) "></path><path d="M49.6441363,18.0887756 C50.0955541,19.1224833 50.4912431,20.4680069 50.8151819,22.1916857 C52.7843561,32.6696639 39.9878193,49.6646567 12.4255716,73.1766638 L11.5037158,73.0867039 C22.0390029,47.7232729 34.7524764,29.3906302 49.6441363,18.0887756 Z" id="Combined-Shape" fill="#1C9486" opacity="0.400000006"></path><path d="M70.3387148,33.5624566 C60.2154879,28.5618333 48.9466592,28.9834798 36.5322286,34.8273962" id="Path-33" stroke="#0D6574" stroke-width="1.90109189"></path><path d="M90.9873658,14.5877431 C80.8641389,9.58711982 69.5953102,10.0087663 57.1808796,15.8526827" id="Path-33-Copy" stroke="#0D6574" stroke-width="1.90109189"></path><path d="M61.3668766,12.5165844 C38.4330562,30.2739404 24.4757723,50.3479919 19.4950249,72.7387388" id="Path-34" stroke="#0D6574" stroke-width="1.90109189"></path></g><g id="Group-7-Copy-4" transform="translate(56.825600, 61.500000) scale(-1, 1) translate(-56.825600, -61.500000) translate(0.782689, 0.000000)"><path d="M6.10807289,83.4657587 C16.0841478,54.4722195 25.3995879,38.3136796 34.0543931,34.9901391 C47.0366011,30.0048283 41.9916806,53.1250756 47.7528103,48.8632458 C53.51394,44.6014159 58.9823443,26.0384804 69.39837,26.0384804 C79.8143956,26.0384804 69.6135228,43.4690529 75.9410829,39.370126 C82.268643,35.2711991 95.1908091,17.7431209 104.003706,30.0048283 C112.816603,42.2665356 88.924995,48.4787505 88.0749138,53.7101549 C87.2248327,58.9415592 99.1631524,56.8194476 97.01861,64.6937375 C94.8740677,72.5680274 73.2080863,74.0249806 69.39837,78.5919334 C65.5886536,83.1588862 85.9204651,82.4009632 73.4571646,93.0998058 C65.1482975,100.232368 42.6986003,97.0210185 6.10807289,83.4657587 Z M65.0578054,50.0441688 C68.0374888,42.3981678 68.7824096,38.5180629 67.292568,38.4038541 C65.8027263,38.2896453 65.0578054,42.1697502 65.0578054,50.0441688 Z" id="Combined-Shape" fill="#33BAAA" transform="translate(56.030098, 61.253555) rotate(-60.000000) translate(-56.030098, -61.253555) "></path><path d="M5.91176089,87.4424861 C45.9128326,78.1276086 76.2725156,61.3917609 96.9908097,37.2349431" id="Path-117" stroke="#0D6574" stroke-width="1.90109189" transform="translate(51.451285, 62.338715) rotate(-60.000000) translate(-51.451285, -62.338715) "></path><path d="M44.2554998,97.26066 C47.8526661,91.7010451 49.5870571,82.9618901 49.4586728,71.043195" id="Path-118" stroke="#0D6574" stroke-width="1.90109189" transform="translate(46.860404, 84.151927) rotate(-60.000000) translate(-46.860404, -84.151927) "></path><path d="M56.7309472,43.7122346 C67.3146718,43.1259626 74.5011643,44.9573865 78.2904248,49.2065064" id="Path-119" stroke="#0D6574" stroke-width="1.90109189" transform="translate(67.510686, 46.406058) rotate(-60.000000) translate(-67.510686, -46.406058) "></path><path d="M52.1947971,25.3979914 L52.3969707,16.7364693" id="Path-120" stroke="#0D6574" stroke-width="1.90109189" transform="translate(52.295884, 21.067230) rotate(-60.000000) translate(-52.295884, -21.067230) "></path></g></g></g><path d="M450.961659,100.186525 C462.889203,92.2901451 461.796844,87.4356457 469.195177,86.1910659 C476.59351,84.9464861 478.585116,90.9965546 489.897885,88.5668279 C501.210654,86.1371012 501.021271,56.4053987 533.721548,56.8941538 C566.421825,57.3829088 565.178891,95.0805568 575.152366,95.0805568 C585.125842,95.0805568 584.653577,86.1910659 599.606062,86.1910659 C614.558547,86.1910659 621.20655,112.308094 652.975061,112.308094 L409.751044,112.308094 C429.273092,109.491301 443.009963,105.450778 450.961659,100.186525 Z" id="Path-72-Copy-4" fill="#C6FFF8" opacity="0.541610054"></path><g id="Group-126" transform="translate(361.841691, 249.876874)"><rect id="Rectangle-62" fill="#53A983" x="0" y="0" width="44.5915306" height="53.5450444" rx="3.43035"></rect><g id="Group-123" transform="translate(9.146981, 12.621332)"><g id="Group-121" transform="translate(0.000000, 9.179150)" fill="url(#linearGradient-12)" fill-rule="nonzero"><path d="M7.17420722,-1.52775867 L7.17420722,6.05204501 L6.41195883,6.05204501 L6.41195883,-1.52775867 C5.96787583,-1.68527152 5.64971045,-2.11028113 5.64971045,-2.60986359 C5.64971045,-3.24355169 6.16161579,-3.7572574 6.79308303,-3.7572574 C7.42455027,-3.7572574 7.93645561,-3.24355169 7.93645561,-2.60986359 C7.93645561,-2.11028113 7.61829022,-1.68527152 7.17420722,-1.52775867 Z" id="Combined-Shape-Copy-21" transform="translate(6.793083, 1.147394) rotate(-90.000000) translate(-6.793083, -1.147394) "></path><path d="M7.17420722,6.12153338 L7.17420722,13.7013371 L6.41195883,13.7013371 L6.41195883,6.12153338 C5.96787583,5.96402053 5.64971045,5.53901092 5.64971045,5.03942846 C5.64971045,4.40574036 6.16161579,3.89203465 6.79308303,3.89203465 C7.42455027,3.89203465 7.93645561,4.40574036 7.93645561,5.03942846 C7.93645561,5.53901092 7.61829022,5.96402053 7.17420722,6.12153338 Z" id="Combined-Shape-Copy-23" transform="translate(6.793083, 8.796686) rotate(-90.000000) translate(-6.793083, -8.796686) "></path><path d="M5.26858625,2.29688735 L5.26858625,9.87669104 L4.50633787,9.87669104 L4.50633787,2.29688735 C4.06225486,2.1393745 3.74408948,1.7143649 3.74408948,1.21478244 C3.74408948,0.581094333 4.25599482,0.0673886274 4.88746206,0.0673886274 C5.5189293,0.0673886274 6.03083464,0.581094333 6.03083464,1.21478244 C6.03083464,1.7143649 5.71266926,2.1393745 5.26858625,2.29688735 Z" id="Combined-Shape-Copy-22" transform="translate(4.887462, 4.972040) rotate(-90.000000) translate(-4.887462, -4.972040) "></path></g><g id="Group-121-Copy" transform="translate(20.009020, 14.151190) scale(-1, 1) translate(-20.009020, -14.151190) translate(14.101595, 9.179150)" fill="url(#linearGradient-12)" fill-rule="nonzero"><path d="M7.17420722,-1.52775867 L7.17420722,6.05204501 L6.41195883,6.05204501 L6.41195883,-1.52775867 C5.96787583,-1.68527152 5.64971045,-2.11028113 5.64971045,-2.60986359 C5.64971045,-3.24355169 6.16161579,-3.7572574 6.79308303,-3.7572574 C7.42455027,-3.7572574 7.93645561,-3.24355169 7.93645561,-2.60986359 C7.93645561,-2.11028113 7.61829022,-1.68527152 7.17420722,-1.52775867 Z" id="Combined-Shape-Copy-21" transform="translate(6.793083, 1.147394) rotate(-90.000000) translate(-6.793083, -1.147394) "></path><path d="M7.17420722,6.12153338 L7.17420722,13.7013371 L6.41195883,13.7013371 L6.41195883,6.12153338 C5.96787583,5.96402053 5.64971045,5.53901092 5.64971045,5.03942846 C5.64971045,4.40574036 6.16161579,3.89203465 6.79308303,3.89203465 C7.42455027,3.89203465 7.93645561,4.40574036 7.93645561,5.03942846 C7.93645561,5.53901092 7.61829022,5.96402053 7.17420722,6.12153338 Z" id="Combined-Shape-Copy-23" transform="translate(6.793083, 8.796686) rotate(-90.000000) translate(-6.793083, -8.796686) "></path><path d="M5.26858625,2.29688735 L5.26858625,9.87669104 L4.50633787,9.87669104 L4.50633787,2.29688735 C4.06225486,2.1393745 3.74408948,1.7143649 3.74408948,1.21478244 C3.74408948,0.581094333 4.25599482,0.0673886274 4.88746206,0.0673886274 C5.5189293,0.0673886274 6.03083464,0.581094333 6.03083464,1.21478244 C6.03083464,1.7143649 5.71266926,2.1393745 5.26858625,2.29688735 Z" id="Combined-Shape-Copy-22" transform="translate(4.887462, 4.972040) rotate(-90.000000) translate(-4.887462, -4.972040) "></path></g><g id="Group-122" transform="translate(8.003608, 0.000000)" fill="url(#linearGradient-12)" fill-rule="nonzero"><path d="M1.52449677,4.14182174 L1.52449677,11.7216254 L0.762248387,11.7216254 L0.762248387,4.14182174 C0.318165384,3.98430889 0,3.55929928 0,3.05971682 C0,2.42602872 0.511905341,1.91232301 1.14337258,1.91232301 C1.77483982,1.91232301 2.28674516,2.42602872 2.28674516,3.05971682 C2.28674516,3.55929928 1.96857978,3.98430889 1.52449677,4.14182174 Z" id="Combined-Shape"></path><path d="M8.76585645,4.14182174 L8.76585645,11.7216254 L8.00360806,11.7216254 L8.00360806,4.14182174 C7.55952506,3.98430889 7.24135967,3.55929928 7.24135967,3.05971682 C7.24135967,2.42602872 7.75326502,1.91232301 8.38473225,1.91232301 C9.01619949,1.91232301 9.52810484,2.42602872 9.52810484,3.05971682 C9.52810484,3.55929928 9.20993945,3.98430889 8.76585645,4.14182174 Z" id="Combined-Shape-Copy-20"></path><path d="M5.14517661,2.22949872 L5.14517661,9.80930241 L4.38292822,9.80930241 L4.38292822,2.22949872 C3.93884522,2.07198588 3.62067984,1.64697627 3.62067984,1.14739381 C3.62067984,0.513705706 4.13258518,0 4.76405242,0 C5.39551966,0 5.907425,0.513705706 5.907425,1.14739381 C5.907425,1.64697627 5.58925961,2.07198588 5.14517661,2.22949872 Z" id="Combined-Shape-Copy-19"></path></g><g id="Group-122-Copy" transform="translate(12.767660, 22.374179) scale(1, -1) translate(-12.767660, -22.374179) translate(8.003608, 16.445978)" fill="url(#linearGradient-12)" fill-rule="nonzero"><path d="M1.52449677,4.14182174 L1.52449677,11.7216254 L0.762248387,11.7216254 L0.762248387,4.14182174 C0.318165384,3.98430889 0,3.55929928 0,3.05971682 C0,2.42602872 0.511905341,1.91232301 1.14337258,1.91232301 C1.77483982,1.91232301 2.28674516,2.42602872 2.28674516,3.05971682 C2.28674516,3.55929928 1.96857978,3.98430889 1.52449677,4.14182174 Z" id="Combined-Shape"></path><path d="M8.76585645,4.14182174 L8.76585645,11.7216254 L8.00360806,11.7216254 L8.00360806,4.14182174 C7.55952506,3.98430889 7.24135967,3.55929928 7.24135967,3.05971682 C7.24135967,2.42602872 7.75326502,1.91232301 8.38473225,1.91232301 C9.01619949,1.91232301 9.52810484,2.42602872 9.52810484,3.05971682 C9.52810484,3.55929928 9.20993945,3.98430889 8.76585645,4.14182174 Z" id="Combined-Shape-Copy-20"></path><path d="M5.14517661,2.22949872 L5.14517661,9.80930241 L4.38292822,9.80930241 L4.38292822,2.22949872 C3.93884522,2.07198588 3.62067984,1.64697627 3.62067984,1.14739381 C3.62067984,0.513705706 4.13258518,0 4.76405242,0 C5.39551966,0 5.907425,0.513705706 5.907425,1.14739381 C5.907425,1.64697627 5.58925961,2.07198588 5.14517661,2.22949872 Z" id="Combined-Shape-Copy-19"></path></g><rect id="Rectangle-63" fill="url(#linearGradient-12)" x="6.86023548" y="7.64929205" width="11.81485" height="13.7687257"></rect><path d="M10.2903532,11.0914735 L15.2449677,11.0914735 L15.2449677,12.6213319 L10.2903532,12.6213319 L10.2903532,11.0914735 Z M10.2903532,13.7687257 L15.2449677,13.7687257 L15.2449677,15.2985841 L10.2903532,15.2985841 L10.2903532,13.7687257 Z M10.2903532,16.4459779 L15.2449677,16.4459779 L15.2449677,17.9758363 L10.2903532,17.9758363 L10.2903532,16.4459779 Z" id="Combined-Shape" fill="#0D6574"></path></g></g><rect id="Rectangle-65" fill="#53A983" x="429.328736" y="174.165971" width="28.347473" height="18.4857891" rx="9.24289456"></rect><rect id="Rectangle-65-Copy-2" fill="#53A983" x="429.328736" y="200" width="28.347473" height="18.4857891" rx="9.24289456"></rect></g></g></g></g></svg> 