<?xml version="1.0" encoding="UTF-8"?> <svg xmlns="http://www.w3.org/2000/svg" xmlns:xlink="http://www.w3.org/1999/xlink" width="683px" height="437px" viewBox="0 0 683 437"><!-- Generator: Sketch 52.5 (67469) - http://www.bohemiancoding.com/sketch --><title>Bot Assist</title><desc>Created with Sketch.</desc><defs><linearGradient x1="50%" y1="97.642683%" x2="50%" y2="-5.51359343%" id="linearGradient-1"><stop stop-color="#B8F3B3" stop-opacity="0" offset="0%"></stop><stop stop-color="#AFF1AA" stop-opacity="0.352099257" offset="15.7096761%"></stop><stop stop-color="#81E37B" offset="100%"></stop></linearGradient><linearGradient x1="50%" y1="98.1159467%" x2="50%" y2="-1.24943355%" id="linearGradient-2"><stop stop-color="#8CFF82" stop-opacity="0" offset="0%"></stop><stop stop-color="#FFFFFF" stop-opacity="0.97376019" offset="100%"></stop></linearGradient><linearGradient x1="50%" y1="11.6070897%" x2="50%" y2="90.2861696%" id="linearGradient-3"><stop stop-color="#A7E6D2" offset="0%"></stop><stop stop-color="#E3FFF6" offset="100%"></stop></linearGradient><linearGradient x1="57.6964029%" y1="-28.1753217%" x2="43.1413235%" y2="92.9334256%" id="linearGradient-4"><stop stop-color="#7ECC79" offset="0%"></stop><stop stop-color="#33BAAA" offset="100%"></stop></linearGradient><linearGradient x1="17.8690048%" y1="77.3844919%" x2="88.1219682%" y2="49.1255442%" id="linearGradient-5"><stop stop-color="#316654" stop-opacity="0.182150136" offset="0%"></stop><stop stop-color="#185F46" offset="100%"></stop></linearGradient><path d="M1.02084929,12.0235198 C-1.15219248,8.11634582 0.257781254,3.18967981 4.17011378,1.01950327 C8.08244631,-1.15067328 13.0156169,0.25744136 15.1886587,4.16461533 C23.4182581,18.961605 35.1575039,25.1132592 51.8203054,23.3899544 C56.2718155,22.9295691 60.2541862,26.1602568 60.7151793,30.6058974 C61.1761724,35.0515379 57.9412193,39.0286577 53.4897093,39.489043 C30.3533712,41.8818557 12.3924481,32.4698892 1.02084929,12.0235198 Z" id="path-6"></path><path d="M15.324721,3.98284075 C17.9817992,0.386423699 23.055108,-0.377900985 26.6562733,2.27567379 C30.2574386,4.92924856 31.0227724,9.99586801 28.3656942,13.5922851 C18.976154,26.3012456 15.9239286,40.164654 19.0908419,55.7611832 C19.9802646,60.1414442 17.1456928,64.4124162 12.7596486,65.3006662 C8.37360443,66.1889161 4.09699354,63.3580819 3.20757084,58.9778208 C-0.868311052,38.9047705 3.21013094,20.3802196 15.324721,3.98284075 Z" id="path-8"></path><linearGradient x1="11.5884416%" y1="20.3503406%" x2="81.0877102%" y2="92.6145286%" id="linearGradient-10"><stop stop-color="#CAF9EB" offset="0%"></stop><stop stop-color="#A4F5DA" offset="100%"></stop></linearGradient><ellipse id="path-11" cx="68.3376365" cy="68.2475309" rx="68.3376365" ry="68.2475309"></ellipse><linearGradient x1="11.5884416%" y1="20.3503406%" x2="79.3937209%" y2="90.8531466%" id="linearGradient-13"><stop stop-color="#8BDFC6" offset="0%"></stop><stop stop-color="#7DEAC5" offset="100%"></stop></linearGradient><linearGradient x1="11.5884416%" y1="20.3503406%" x2="81.0877102%" y2="92.6145286%" id="linearGradient-14"><stop stop-color="#C9F1E5" offset="0%"></stop><stop stop-color="#A4F5DA" offset="100%"></stop></linearGradient><ellipse id="path-15" cx="68.3376365" cy="68.2475309" rx="68.3376365" ry="68.2475309"></ellipse><ellipse id="path-17" cx="9.183714" cy="20.7709877" rx="9.183714" ry="1.8882716"></ellipse><filter x="-113.4%" y="-556.1%" width="326.8%" height="1212.1%" id="filter-18"><feOffset dx="0" dy="0" in="SourceAlpha" result="shadowOffsetOuter1"></feOffset><feGaussianBlur stdDeviation="7" in="shadowOffsetOuter1" result="shadowBlurOuter1"></feGaussianBlur><feColorMatrix values="0 0 0 0 0.414386489 0 0 0 0 0.762223639 0 0 0 0 0.392089236 0 0 0 0.759992074 0" type="matrix" in="shadowBlurOuter1"></feColorMatrix></filter><path d="M2.16087388,12.7970174 L2.16087388,6.21202822 C2.16087388,2.78121977 5.3051065,0 9.183714,0 C13.0623215,0 16.2065541,2.78121977 16.2065541,6.21202822 L16.2065541,12.7970174" id="path-19"></path><filter x="-101.9%" y="-111.8%" width="303.8%" height="323.6%" id="filter-20"><feMorphology radius="0.81" operator="dilate" in="SourceAlpha" result="shadowSpreadOuter1"></feMorphology><feOffset dx="0" dy="0" in="shadowSpreadOuter1" result="shadowOffsetOuter1"></feOffset><feMorphology radius="1" operator="erode" in="SourceAlpha" result="shadowInner"></feMorphology><feOffset dx="0" dy="0" in="shadowInner" result="shadowInner"></feOffset><feComposite in="shadowOffsetOuter1" in2="shadowInner" operator="out" result="shadowOffsetOuter1"></feComposite><feGaussianBlur stdDeviation="4.5" in="shadowOffsetOuter1" result="shadowBlurOuter1"></feGaussianBlur><feColorMatrix values="0 0 0 0 0.414386489 0 0 0 0 0.762223639 0 0 0 0 0.392089236 0 0 0 1 0" type="matrix" in="shadowBlurOuter1"></feColorMatrix></filter><ellipse id="path-21" cx="9.183714" cy="20.7709877" rx="9.183714" ry="1.8882716"></ellipse><filter x="-113.4%" y="-556.1%" width="326.8%" height="1212.1%" id="filter-22"><feOffset dx="0" dy="0" in="SourceAlpha" result="shadowOffsetOuter1"></feOffset><feGaussianBlur stdDeviation="7" in="shadowOffsetOuter1" result="shadowBlurOuter1"></feGaussianBlur><feColorMatrix values="0 0 0 0 0.414386489 0 0 0 0 0.762223639 0 0 0 0 0.392089236 0 0 0 0.759992074 0" type="matrix" in="shadowBlurOuter1"></feColorMatrix></filter><path d="M2.16087388,12.7970174 L2.16087388,6.21202822 C2.16087388,2.78121977 5.3051065,0 9.183714,0 C13.0623215,0 16.2065541,2.78121977 16.2065541,6.21202822 L16.2065541,12.7970174" id="path-23"></path><filter x="-101.9%" y="-111.8%" width="303.8%" height="323.6%" id="filter-24"><feMorphology radius="0.81" operator="dilate" in="SourceAlpha" result="shadowSpreadOuter1"></feMorphology><feOffset dx="0" dy="0" in="shadowSpreadOuter1" result="shadowOffsetOuter1"></feOffset><feMorphology radius="1" operator="erode" in="SourceAlpha" result="shadowInner"></feMorphology><feOffset dx="0" dy="0" in="shadowInner" result="shadowInner"></feOffset><feComposite in="shadowOffsetOuter1" in2="shadowInner" operator="out" result="shadowOffsetOuter1"></feComposite><feGaussianBlur stdDeviation="4.5" in="shadowOffsetOuter1" result="shadowBlurOuter1"></feGaussianBlur><feColorMatrix values="0 0 0 0 0.414386489 0 0 0 0 0.762223639 0 0 0 0 0.392089236 0 0 0 1 0" type="matrix" in="shadowBlurOuter1"></feColorMatrix></filter><path d="M68.3376365,115.454321 C61.624662,115.454321 56.182721,111.953998 56.182721,107.636132 C56.182721,103.318265 61.624662,104.97756 68.3376365,104.97756 C75.0506111,104.97756 80.4925521,103.318265 80.4925521,107.636132 C80.4925521,111.953998 75.0506111,115.454321 68.3376365,115.454321 Z M68.6077458,114.375309 C70.6962267,114.375309 72.3892751,113.650673 72.3892751,112.75679 C72.3892751,111.862907 70.6962267,111.138272 68.6077458,111.138272 C66.5192648,111.138272 64.8262165,111.862907 64.8262165,112.75679 C64.8262165,113.650673 66.5192648,114.375309 68.6077458,114.375309 Z" id="path-25"></path><filter x="-86.4%" y="-194.6%" width="272.8%" height="489.2%" id="filter-26"><feOffset dx="0" dy="0" in="SourceAlpha" result="shadowOffsetOuter1"></feOffset><feGaussianBlur stdDeviation="7" in="shadowOffsetOuter1" result="shadowBlurOuter1"></feGaussianBlur><feColorMatrix values="0 0 0 0 0.414386489 0 0 0 0 0.762223639 0 0 0 0 0.392089236 0 0 0 0.759992074 0" type="matrix" in="shadowBlurOuter1"></feColorMatrix></filter><linearGradient x1="23.2916903%" y1="14.537225%" x2="78.8050321%" y2="119.862794%" id="linearGradient-27"><stop stop-color="#AFF7E7" offset="0%"></stop><stop stop-color="#5DD1E4" offset="100%"></stop></linearGradient><linearGradient x1="50%" y1="0%" x2="50%" y2="100%" id="linearGradient-28"><stop stop-color="#1E9EAC" offset="0%"></stop><stop stop-color="#0D6574" offset="100%"></stop></linearGradient></defs><g id="Pages" stroke="none" stroke-width="1" fill="none" fill-rule="evenodd"><g id="Bots/AI" transform="translate(-790.000000, -2451.000000)"><g id="Messaging" transform="translate(237.000000, 2451.000000)"><g id="Bot-Assist" transform="translate(553.000000, 0.000000)"><path d="M642,409.469967 L269.789474,409.469967 C306.72481,406.472663 326.552632,401.831217 329.272939,395.545631 C333.353399,386.117251 337.882858,378.216363 349.733658,376.982969 C361.584458,375.749575 366.143384,386.177419 377.641319,385.334939 C389.139254,384.492459 361.262355,326.293329 399.096215,344.508433 C436.930075,362.723537 439.754929,275.925519 485.349856,297.747076 C530.944784,319.568633 510.53263,352.879371 526.127267,357.325827 C541.721904,361.772282 567.389104,344.323405 572.58975,368.824165 C576.056848,385.158005 599.193598,398.706606 642,409.469967 Z" id="Path-113-Copy-2" fill="#D6F1EE"></path><path d="M83.4958859,409.539506 L562.456237,409.539506" id="Path-79" stroke="#0B4651" stroke-width="1.5"></path><path d="M0.495885905,409.539506 L45.2142436,409.539506" id="Path-79-Copy-2" stroke="#0B4651" stroke-width="1.5"></path><polyline id="Path-232" stroke="#3FBDA1" points="303.538818 218.596166 228.073845 181.356418 228.073845 147.760253 151.071641 194.162728 151.071641 299.331021 87.1164064 299.331021 46 262.749794 46 320.931457"></polyline><polyline id="Path-81" stroke="#3FBDA1" points="406.759132 224.494624 444.723881 224.494624 444.723881 269.408066 499.629189 269.408066 499.629189 207.5269 570.040415 224.494624 570.040415 258.325512 626.671401 258.325512 626.671401 326.427368 682.640254 326.427368"></polyline><path d="M603.10427,409.485185 L664.880149,409.485185" id="Path-79-Copy" stroke="#0B4651" stroke-width="1.5"></path><g id="Group-62" transform="translate(251.962264, 14.566667)"><polygon id="Rectangle-22" fill="url(#linearGradient-1)" opacity="0.622735507" points="66.0816205 257.344444 122.80456 257.344444 150.530669 413.888093 38.3555114 413.888093"></polygon><polygon id="Rectangle-22-Copy" fill="url(#linearGradient-2)" opacity="0.622735507" points="77.9644735 252.488889 110.921707 252.488889 127.031166 397.874639 61.8550149 397.874639"></polygon><rect id="Rectangle-21" fill="#1D8192" x="69.6881827" y="240.619753" width="49.1598808" height="18.882716"></rect><path d="M77.5562476,259.461072 L65.973497,267.918653 C64.2874909,269.149753 61.9227086,268.78098 60.6916078,267.094974 C60.1502292,266.35355 59.8971767,265.440443 59.9796916,264.526117 L61.5057071,247.616745 C61.9461509,242.736304 66.2595801,239.136975 71.1400209,239.577419 C71.557536,239.615099 71.9718558,239.68232 72.3798667,239.778579 L77.5562476,259.461072 Z M111.285005,259.461072 L116.461386,239.778579 C116.869397,239.68232 117.283717,239.615099 117.701232,239.577419 C122.581672,239.136975 126.895102,242.736304 127.335546,247.616745 L128.861561,264.526117 C128.944076,265.440443 128.691023,266.35355 128.149645,267.094974 C126.918544,268.78098 124.553762,269.149753 122.867756,267.918653 L111.285005,259.461072 Z" id="Combined-Shape" fill="url(#linearGradient-3)"></path><path d="M127.440412,248.778745 C117.61726,254.235905 106.30619,257.344444 94.2681231,257.344444 C82.3485568,257.344444 71.1417448,254.296804 61.386358,248.93922 L61.5068455,247.60413 C61.9465604,242.731767 66.2580658,239.137925 71.1368623,239.57706 C71.5554546,239.614737 71.970836,239.68208 72.3798667,239.778579 L72.6010906,240.619753 L116.240162,240.619753 L116.461386,239.778579 C116.870417,239.68208 117.285798,239.614737 117.70439,239.57706 C122.583187,239.137925 126.894692,242.731767 127.334407,247.60413 L127.440412,248.778745 Z" id="Combined-Shape" fill="#094F5B" opacity="0.200000003"></path><g id="Group-59" transform="translate(10.804369, 126.244444)"><ellipse id="Oval-23" fill="url(#linearGradient-4)" cx="20.2581927" cy="20.2314815" rx="20.2581927" ry="20.2314815"></ellipse><path d="M2.1210224,29.2538354 C8.75744667,18.055616 18.2166257,8.72313577 29.5201512,2.23351304 C36.0503277,5.59192645 40.5163853,12.3908398 40.5163853,20.2314815 C40.5163853,31.4050202 31.4464835,40.462963 20.2581927,40.462963 C12.3162792,40.462963 5.4417691,35.8988922 2.12101941,29.2538294 Z" id="Combined-Shape" fill="url(#linearGradient-5)" opacity="0.200000003"></path></g><g id="Group-59-Copy" transform="translate(153.450348, 144.046914) scale(-1, 1) translate(-153.450348, -144.046914) translate(132.950348, 123.546914)"><ellipse id="Oval-23" fill="url(#linearGradient-4)" cx="20.2581927" cy="20.2314815" rx="20.2581927" ry="20.2314815"></ellipse><path d="M2.1210224,29.2538354 C8.75744667,18.055616 18.2166257,8.72313577 29.5201512,2.23351304 C36.0503277,5.59192645 40.5163853,12.3908398 40.5163853,20.2314815 C40.5163853,31.4050202 31.4464835,40.462963 20.2581927,40.462963 C12.3162792,40.462963 5.4417691,35.8988922 2.12101941,29.2538294 Z" id="Combined-Shape" fill="url(#linearGradient-5)" opacity="0.200000003"></path></g><g id="Group-61" transform="translate(154.502483, 145.666667)"><mask id="mask-7" fill="white"><use xlink:href="#path-6"></use></mask><use id="Path-59" fill="#87E3D6" fill-rule="nonzero" xlink:href="#path-6"></use><path d="M-1.29740399,2.26190539 C1.97860543,1.73094336 5.38098617,3.25810184 7.08538161,6.32264003 C15.314981,21.1196296 27.0542269,27.2712839 43.7170284,25.5479791 C48.1685384,25.0875938 52.1509091,28.3182815 52.6119022,32.763922 C52.8790639,35.3403264 51.904902,37.7593729 50.1720126,39.4277479 C50.0189699,39.4524187 49.8643233,39.4728943 49.70818,39.489043 C26.5718419,41.8818557 8.61091883,32.4698892 -2.76068,12.0235198 C-4.58493623,8.74346945 -3.88405972,4.74493136 -1.29740399,2.26190539 Z" id="Combined-Shape" fill-opacity="0.479999989" fill="#0D6574" fill-rule="nonzero" opacity="0.300000012" mask="url(#mask-7)"></path><path d="M3.75902056,3.71563089 C11.1523967,4.08017561 15.1126938,8.28341433 15.6399117,16.325347" id="Path-18-Copy-6" stroke="#F8FAFC" stroke-width="1.62" opacity="0.699999988" mask="url(#mask-7)" transform="translate(9.699466, 10.020489) rotate(-68.000000) translate(-9.699466, -10.020489) "></path><path d="M9.29214649,11.6937228 C17.6150243,12.1040984 22.0732133,16.8357719 22.6667135,25.8887433" id="Path-18-Copy-9" stroke="#F8FAFC" stroke-width="1.62" opacity="0.699999988" mask="url(#mask-7)" transform="translate(15.979430, 18.791233) rotate(-92.000000) translate(-15.979430, -18.791233) "></path><path d="M17.5745683,18.454561 C25.8974461,18.8649366 30.3556351,23.5966101 30.9491353,32.6495815" id="Path-18-Copy-11" stroke="#F8FAFC" stroke-width="1.62" opacity="0.699999988" mask="url(#mask-7)" transform="translate(24.261852, 25.552071) rotate(-105.000000) translate(-24.261852, -25.552071) "></path><path d="M27.6722466,24.7446512 C35.9951244,25.1550268 40.4533134,29.8867003 41.0468136,38.9396717" id="Path-18-Copy-10" stroke="#F8FAFC" stroke-width="1.62" opacity="0.699999988" mask="url(#mask-7)" transform="translate(34.359530, 31.842161) rotate(-131.000000) translate(-34.359530, -31.842161) "></path></g><g id="Group-58" transform="translate(5.402185, 151.061728)"><mask id="mask-9" fill="white"><use xlink:href="#path-8"></use></mask><use id="Path-56" fill="#87E3D6" fill-rule="nonzero" transform="translate(15.813378, 33.079061) rotate(-3.000000) translate(-15.813378, -33.079061) " xlink:href="#path-8"></use><path d="M24.508435,2.36432223 C27.1655132,-1.23209482 32.238822,-1.9964195 35.8399873,0.657155269 C39.4411526,3.31073004 40.2064864,8.37734949 37.5494082,11.9737665 C28.1598681,24.6827271 25.1076426,38.5461355 28.2745559,54.1426646 C29.1639786,58.5229257 26.3294068,62.7938977 21.9433626,63.6821477 C17.5573184,64.5703976 13.2807075,61.7395633 12.3912848,57.3593023 C8.31540295,37.286252 12.3938449,18.761701 24.508435,2.36432223 Z" id="Path-56-Copy-4" fill-opacity="0.479999989" fill="#0D6574" fill-rule="nonzero" opacity="0.300000012" mask="url(#mask-9)" transform="translate(24.997092, 31.460543) rotate(-3.000000) translate(-24.997092, -31.460543) "></path><path d="M12.8916235,2.31591908 C20.2849996,2.6804638 24.2452967,6.88370252 24.7725146,14.9256352" id="Path-18-Copy-5" stroke="#F8FAFC" stroke-width="1.62" opacity="0.699999988" mask="url(#mask-9)" transform="translate(18.832069, 8.620777) rotate(-38.000000) translate(-18.832069, -8.620777) "></path><path d="M9.65031263,10.9480178 C17.0436888,11.3125626 21.0039859,15.5158013 21.5312038,23.557734" id="Path-18-Copy-6" stroke="#F8FAFC" stroke-width="1.62" opacity="0.699999988" mask="url(#mask-9)" transform="translate(15.590758, 17.252876) rotate(-38.000000) translate(-15.590758, -17.252876) "></path><path d="M4.91125294,22.6370246 C14.1705793,23.0935736 19.1303813,28.3576313 19.7906592,38.4291977" id="Path-18-Copy-7" stroke="#F8FAFC" stroke-width="1.62" opacity="0.699999988" mask="url(#mask-9)" transform="translate(12.350956, 30.533111) rotate(-38.000000) translate(-12.350956, -30.533111) "></path><path d="M4.24812792,35.2257956 C11.6415041,35.5903403 15.6018012,39.7935791 16.1290191,47.8355118" id="Path-18-Copy-8" stroke="#F8FAFC" stroke-width="1.62" opacity="0.699999988" mask="url(#mask-9)" transform="translate(10.188573, 41.530654) rotate(-59.000000) translate(-10.188573, -41.530654) "></path></g><g id="Group-57" transform="translate(25.930487, 115.993827)"><mask id="mask-12" fill="white"><use xlink:href="#path-11"></use></mask><use id="Oval-12-Copy" fill="url(#linearGradient-10)" xlink:href="#path-11"></use><path d="M4.1284858,91.6635545 C18.9034277,104.149417 38.0132883,111.677778 58.8838133,111.677778 C93.4055983,111.677778 123.110165,91.0800089 136.347376,61.5192473 C136.564266,63.7327036 136.675273,65.9771707 136.675273,68.2475309 C136.675273,105.939601 106.079471,136.495062 68.3376365,136.495062 C38.8331141,136.495062 13.6957219,117.821808 4.1284858,91.6635545 Z" id="Combined-Shape" fill="#0D6574" opacity="0.100000001" mask="url(#mask-12)"></path><path d="M52.8095049,36.0202035 L40.5257693,43.6981519 L39.7281724,36.0202035 L23.6753046,53.2910978 C14.6277417,63.4442124 9.19621182,68.1633388 7.38071505,67.448477 C1.16154036,64.9996426 3.85233842,46.2154555 1.32969877,48.6580445 C-2.29755147,52.1701915 -3.35442547,61.5932506 -1.84092323,76.9272216 L7.38071505,109.883529 C35.4934962,96.8930212 49.5498868,86.8162383 49.5498868,79.65318 C49.5498868,76.4436058 50.9042494,72.1178592 50.5872506,70.3969585 C55.1281786,66.2922263 58.8227906,60.5902728 61.6710868,53.2910978 L52.8095049,36.0202035 Z" id="Path-58" fill="#0D6574" opacity="0.200000003" mask="url(#mask-12)"></path><path d="M51.8609732,11.8691358 L84.2740814,11.8691358 L84.2740814,50.6922113 C84.2740814,59.642844 77.01816,66.8987654 68.0675273,66.8987654 L68.0675273,66.8987654 C59.1168946,66.8987654 51.8609732,59.642844 51.8609732,50.6922113 L51.8609732,11.8691358 Z" id="Rectangle-19" stroke="#0D6574" stroke-width="1.62" fill-opacity="0.280000001" fill="#0D6574" stroke-linecap="round" stroke-linejoin="round" mask="url(#mask-12)"></path><path d="M68.0675273,111.677778 L68.0675273,111.677778 C77.01816,111.677778 84.2740814,118.933699 84.2740814,127.884332 L84.2740814,166.707407 L51.8609732,166.707407 L51.8609732,127.884332 C51.8609732,118.933699 59.1168946,111.677778 68.0675273,111.677778 Z" id="Rectangle-19-Copy" stroke="#0D6574" stroke-width="1.62" fill-opacity="0.280000001" fill="#0D6574" stroke-linecap="round" stroke-linejoin="round" mask="url(#mask-12)"></path><rect id="Rectangle-19-Copy-2" fill="#0D6574" opacity="0.100000001" mask="url(#mask-12)" x="51.8609732" y="129.481481" width="32.4131082" height="55.0296296"></rect><path d="M18.8020781,21.2322227 C31.2521931,8.1534308 48.8414898,0 68.3376365,0 C88.0821845,0 105.870982,8.36252079 118.346568,21.734527 C104.880095,32.7643132 87.6530455,39.3839506 68.877855,39.3839506 C49.8193481,39.3839506 32.3560569,32.5630261 18.8020781,21.2322227 Z" id="Combined-Shape" fill="#0D6574" opacity="0.300000012" mask="url(#mask-12)"></path></g><g id="Group-56" transform="translate(89.857093, 76.359915) rotate(-6.000000) translate(-89.857093, -76.359915) translate(12.857093, 7.859915)"><path d="M10.26,53.4111111 L12.9652433,53.4111111 L12.9652433,83.0839506 L10.26,83.0839506 C4.59355847,83.0839506 -1.08241789e-15,78.4903922 -1.77635684e-15,72.8239506 L-1.77635684e-15,63.6711111 C-2.47029579e-15,58.0046696 4.59355847,53.4111111 10.26,53.4111111 Z" id="Rectangle-18" fill="url(#linearGradient-13)"></path><path d="M150.716802,53.4111111 L153.422046,53.4111111 L153.422046,83.0839506 L150.716802,83.0839506 C145.050361,83.0839506 140.456802,78.4903922 140.456802,72.8239506 L140.456802,63.6711111 C140.456802,58.0046696 145.050361,53.4111111 150.716802,53.4111111 Z" id="Rectangle-18-Copy" fill="url(#linearGradient-13)" transform="translate(146.939424, 68.247531) scale(-1, 1) translate(-146.939424, -68.247531) "></path><g id="Group-53" transform="translate(9.183714, 0.000000)"><mask id="mask-16" fill="white"><use xlink:href="#path-15"></use></mask><use id="Oval-12" fill="url(#linearGradient-14)" xlink:href="#path-15"></use><path d="M25.5875836,136.421646 C18.7415786,116.204669 14.6148034,100.887124 13.2072581,90.4690121 C8.73639572,57.3774 24.3459852,42.6349783 36.7776965,42.6349783 C41.2600114,42.6349783 45.6402646,43.885855 49.3572942,46.2273562 C55.5417696,50.1231974 61.726245,52.071118 67.9107203,52.071118 C74.0951957,52.071118 80.2796711,50.1231974 86.4641465,46.2273562 C90.3592322,43.7736906 94.7834128,42.4802301 99.147157,42.633157 C124.159626,43.5097163 125.557602,76.4243945 124.159626,92.1258774 C123.227642,102.593533 118.346782,117.698738 109.517046,137.441495 L25.5875836,136.421646 Z" id="Path-52" fill="#0D6574" mask="url(#mask-16)"></path><ellipse id="Oval-18" fill="#FFFFFF" mask="url(#mask-16)" cx="42.40715" cy="113.026543" rx="5.13207547" ry="5.12530864"></ellipse><g id="Group-55" mask="url(#mask-16)"><g transform="translate(35.114201, 72.293827)"><g id="Group-54"><g id="Oval-17" opacity="0.300000012"><use fill="black" fill-opacity="1" filter="url(#filter-18)" xlink:href="#path-17"></use><use fill="#AFFFAA" fill-rule="evenodd" xlink:href="#path-17"></use></g><g id="Rectangle-6" stroke-linecap="round" stroke-linejoin="round"><use fill="black" fill-opacity="1" filter="url(#filter-20)" xlink:href="#path-19"></use><use stroke="#A8FFA2" stroke-width="1.62" xlink:href="#path-19"></use></g></g><g id="Group-54-Copy" transform="translate(48.079444, 0.000000)"><g id="Oval-17" opacity="0.300000012"><use fill="black" fill-opacity="1" filter="url(#filter-22)" xlink:href="#path-21"></use><use fill="#AFFFAA" fill-rule="evenodd" xlink:href="#path-21"></use></g><g id="Rectangle-6" stroke-linecap="round" stroke-linejoin="round"><use fill="black" fill-opacity="1" filter="url(#filter-24)" xlink:href="#path-23"></use><use stroke="#A8FFA2" stroke-width="1.62" xlink:href="#path-23"></use></g></g></g></g><g id="Combined-Shape" mask="url(#mask-16)"><use fill="black" fill-opacity="1" filter="url(#filter-26)" xlink:href="#path-25"></use><use fill="#AFFFAA" fill-rule="evenodd" xlink:href="#path-25"></use></g><path d="M22.1316454,137.488585 C14.7340153,115.860862 10.2747202,99.474456 8.75376021,88.3293658 C3.92265273,52.9286132 20.7900036,37.1574619 34.2234151,37.1574619 C39.0668979,37.1574619 43.8000953,38.495625 47.816629,41.0005168 C54.4994259,45.1682107 61.1822228,47.2520576 67.8650197,47.2520576 C74.5478167,47.2520576 81.2306136,45.1682107 87.9134106,41.0005167 C92.1223474,38.3756338 96.9030117,36.9919153 101.61837,37.1555135 C128.646249,38.0932393 130.156868,73.3047115 128.646249,90.1018475 C127.639169,101.299938 122.365028,117.459189 112.823825,138.579599 L22.1316454,137.488585 Z" id="Path-52-Copy" stroke="#0D6574" stroke-width="1.62" stroke-linecap="round" stroke-linejoin="round" mask="url(#mask-16)"></path><path d="M69.3255417,46.6803729 L69.3255417,-7.56505076" id="Path-53" stroke="#0D6574" stroke-width="1.62" opacity="0.5" stroke-linecap="round" stroke-linejoin="round" stroke-dasharray="2.7,7.559999656677246" mask="url(#mask-16)"></path></g><polyline id="Path-54" stroke="#0D6574" stroke-width="2.7" stroke-linecap="round" stroke-linejoin="round" points="7.03291908 75.5625743 14.5544276 113.098615 28.5109834 113.098615"></polyline><path d="M28.4989402,113.098615 L48.6186499,113.098615" id="Path-54-Copy" stroke="#FFFFFF" stroke-width="2.7" stroke-linecap="round" stroke-linejoin="round"></path></g><g id="Group-60" transform="translate(0.000000, 151.061728)"><path d="M38.8826544,10.267524 L40.0446041,10.1861401 C50.164268,9.47735093 58.9424636,17.1063722 59.6512528,27.226036 C59.7174595,28.1712953 59.7104212,29.1202607 59.6302009,30.064434 L56.6232088,65.455989 C55.9230083,73.6971772 49.2131936,80.1373333 40.9502284,80.4990931 L40.9502284,80.4990931 C32.814369,80.855288 25.7910873,74.8529429 24.8753574,66.7609394 L20.9242138,31.8459864 C19.7169352,21.1776642 27.3866265,11.5505878 38.0549486,10.3433092 C38.3302789,10.3121515 38.6062439,10.286884 38.8826544,10.267524 Z" id="Rectangle-20" fill="url(#linearGradient-4)" transform="translate(40.247587, 45.366895) rotate(53.000000) translate(-40.247587, -45.366895) "></path><path d="M71.8355356,30.4105118 C74.0388583,37.2066727 72.144483,44.9624134 66.4129388,49.9459101 C65.6978654,50.5676564 64.9357522,51.1331369 64.1334241,51.6372878 L34.0588185,70.5349667 C28.4637708,74.0506708 21.4783014,73.8109924 16.2121922,70.3182009 L71.8355356,30.4105118 Z" id="Combined-Shape" fill-opacity="0.479999989" fill="#0D6574" opacity="0.300000012"></path><ellipse id="Oval-24" fill-opacity="0.479999989" fill="#0D6574" opacity="0.535212862" transform="translate(56.722939, 33.719136) rotate(-31.000000) translate(-56.722939, -33.719136) " cx="56.7229394" cy="33.7191358" rx="13.5054618" ry="17.5339506"></ellipse><path d="M50.3506558,25.3384392 C55.0463679,16.65549 58.0838339,11.6137716 59.4630538,10.2132838 C61.1742609,8.47568969 63.2005577,5.61787446 65.5419442,1.63983815 L65.5419442,1.63983815 C67.2797579,3.09179881 67.9803192,5.44255062 67.3208325,7.6089448 L66.0456521,11.7978747 L76.9418487,1.43297058 C78.7093188,-0.248318702 81.4998891,-0.196766931 83.2040557,1.54865584 L83.8775982,1.34098986 C85.1473438,0.949503159 86.5201973,1.47658291 87.2017151,2.61721835 L87.3879888,2.92897882 C87.9864983,3.93068576 87.9748097,5.1829265 87.3577061,6.17328681 L87.3577061,6.17328681 C89.3379992,8.58632221 89.5533842,11.9953538 87.8925404,14.6384388 L87.3577061,15.4895799 L87.3577061,15.4895799 C87.7943757,18.336947 86.8289969,21.2199135 84.7657257,23.2301602 L76.9041408,30.8897088 L64.8335174,38.4537068 C60.9368236,40.8955511 55.8955589,40.4695352 52.4638985,37.4084026 L52.4638985,37.4084026 C49.047549,34.3609278 48.1729029,29.3653411 50.3506428,25.3384322 Z" id="Path-55" fill="url(#linearGradient-27)"></path><path d="M82.9218501,2.15802469 L71.8490566,13.3219288" id="Path-56-Copy" stroke="#0D6574" stroke-width="1.08" opacity="0.400000006" stroke-linecap="round" stroke-linejoin="round"></path><path d="M66.715296,11.3296296 L63.5007092,14.9556021" id="Path-56-Copy-5" stroke="#0D6574" stroke-width="1.08" opacity="0.400000006" stroke-linecap="round" stroke-linejoin="round"></path><path d="M87.0457206,15.4771772 L79.7288384,22.561539" id="Path-56-Copy-2" stroke="#0D6574" stroke-width="1.08" opacity="0.400000006" stroke-linecap="round" stroke-linejoin="round"></path><path d="M86.7033794,7.01358025 L75.6305859,18.1774843" id="Path-56-Copy-3" stroke="#0D6574" stroke-width="1.08" opacity="0.400000006" stroke-linecap="round" stroke-linejoin="round"></path></g><g id="Group-60-Copy" transform="translate(228.864359, 168.747114) rotate(24.000000) translate(-228.864359, -168.747114) translate(183.864359, 127.247114)"><path d="M38.8826544,10.267524 L40.0446041,10.1861401 C50.164268,9.47735093 58.9424636,17.1063722 59.6512528,27.226036 C59.7174595,28.1712953 59.7104212,29.1202607 59.6302009,30.064434 L56.6232088,65.455989 C55.9230083,73.6971772 49.2131936,80.1373333 40.9502284,80.4990931 L40.9502284,80.4990931 C32.814369,80.855288 25.7910873,74.8529429 24.8753574,66.7609394 L20.9242138,31.8459864 C19.7169352,21.1776642 27.3866265,11.5505878 38.0549486,10.3433092 C38.3302789,10.3121515 38.6062439,10.286884 38.8826544,10.267524 Z" id="Rectangle-20" fill="url(#linearGradient-4)" transform="translate(40.247587, 45.366895) rotate(53.000000) translate(-40.247587, -45.366895) "></path><path d="M71.8355356,30.4105118 C74.0388583,37.2066727 72.144483,44.9624134 66.4129388,49.9459101 C65.6978654,50.5676564 64.9357522,51.1331369 64.1334241,51.6372878 L34.0588185,70.5349667 C28.4637708,74.0506708 21.4783014,73.8109924 16.2121922,70.3182009 L71.8355356,30.4105118 Z" id="Combined-Shape" fill-opacity="0.479999989" fill="#0D6574" opacity="0.300000012"></path><ellipse id="Oval-24" fill-opacity="0.479999989" fill="#0D6574" opacity="0.535212862" transform="translate(56.722939, 33.719136) rotate(-31.000000) translate(-56.722939, -33.719136) " cx="56.7229394" cy="33.7191358" rx="13.5054618" ry="17.5339506"></ellipse><path d="M50.3506558,25.3384392 C55.0463679,16.65549 58.0838339,11.6137716 59.4630538,10.2132838 C61.1742609,8.47568969 63.2005577,5.61787446 65.5419442,1.63983815 L65.5419442,1.63983815 C67.2797579,3.09179881 67.9803192,5.44255062 67.3208325,7.6089448 L66.0456521,11.7978747 L76.9418487,1.43297058 C78.7093188,-0.248318702 81.4998891,-0.196766931 83.2040557,1.54865584 L83.8775982,1.34098986 C85.1473438,0.949503159 86.5201973,1.47658291 87.2017151,2.61721835 L87.3879888,2.92897882 C87.9864983,3.93068576 87.9748097,5.1829265 87.3577061,6.17328681 L87.3577061,6.17328681 C89.3379992,8.58632221 89.5533842,11.9953538 87.8925404,14.6384388 L87.3577061,15.4895799 L87.3577061,15.4895799 C87.7943757,18.336947 86.8289969,21.2199135 84.7657257,23.2301602 L76.9041408,30.8897088 L64.8335174,38.4537068 C60.9368236,40.8955511 55.8955589,40.4695352 52.4638985,37.4084026 L52.4638985,37.4084026 C49.047549,34.3609278 48.1729029,29.3653411 50.3506428,25.3384322 Z" id="Path-55" fill="url(#linearGradient-27)"></path><path d="M71.3088381,12.408642 C77.1933032,18.9142577 79.9706753,22.8121834 79.6409546,24.102419" id="Path-62" stroke="#0D6574" stroke-width="1.08" opacity="0.400000006" stroke-linecap="round" stroke-linejoin="round"></path><path d="M82.9218501,2.15802469 L71.8490566,13.3219288" id="Path-56-Copy" stroke="#0D6574" stroke-width="1.08" opacity="0.400000006" stroke-linecap="round" stroke-linejoin="round"></path><path d="M66.715296,11.3296296 L63.5007092,14.9556021 C65.6550441,20.0619536 65.9182744,24.4078501 64.2904001,27.9932917" id="Path-56-Copy-5" stroke="#0D6574" stroke-width="1.08" opacity="0.400000006" stroke-linecap="round" stroke-linejoin="round"></path><path d="M87.0457206,15.4771772 L79.7288384,22.561539" id="Path-56-Copy-2" stroke="#0D6574" stroke-width="1.08" opacity="0.400000006" stroke-linecap="round" stroke-linejoin="round"></path><path d="M86.7033794,7.01358025 L75.6305859,18.1774843" id="Path-56-Copy-3" stroke="#0D6574" stroke-width="1.08" opacity="0.400000006" stroke-linecap="round" stroke-linejoin="round"></path></g></g><g id="Group-64" transform="translate(442.119166, 0.000000)"><path d="M23.7288319,73.6248523 L13.5641305,78.9953585 L16.3832793,69.5983003 C6.57306363,62.7177077 0.161199613,51.3319796 0.161199613,38.4506551 C0.161199613,17.4444024 17.212615,0.415469951 38.2466018,0.415469951 C59.2805886,0.415469951 76.332004,17.4444024 76.332004,38.4506551 C76.332004,59.4569079 59.2805886,76.4858403 38.2466018,76.4858403 C33.1058619,76.4858403 28.2030096,75.4686658 23.7288319,73.6248523 Z" id="Combined-Shape" fill="#0D6574"></path><path d="M38.6458787,28.054321 L36.2419065,47.4765432 L33.1896721,47.4765432 L34.2566036,38.7904938 L25.464548,38.7904938 L24.3841111,47.4765432 L21.3318767,47.4765432 L23.7223434,28.054321 L26.7880833,28.054321 L25.7346572,36.6054938 L34.5267128,36.6054938 L35.5801389,28.054321 L38.6458787,28.054321 Z M44.5702747,47.4765432 L41.5180403,47.4765432 L43.8950016,28.054321 L46.947236,28.054321 L44.5702747,47.4765432 Z M54.7623966,28.054321 L53.8170143,35.7827469 C53.7719959,36.1873786 53.7157237,36.5852604 53.648196,36.9764043 C53.5806684,37.3675483 53.5063891,37.7609342 53.4253559,38.1565741 C53.3443227,38.5522139 53.2542872,38.9568395 53.1552467,39.370463 C53.0562061,39.7840864 52.9526653,40.2201829 52.844621,40.6787654 L50.9538564,40.6787654 C50.9538564,40.2201829 50.9561073,39.7840864 50.9606091,39.370463 C50.965111,38.9568395 50.9763654,38.5522139 50.9943728,38.1565741 C51.0123802,37.7609342 51.0371399,37.3675483 51.0686528,36.9764043 C51.1001657,36.5852604 51.1429326,36.1873786 51.1969547,35.7827469 L52.142337,28.054321 L54.7623966,28.054321 Z M49.5762993,45.8040741 C49.5762993,45.5433115 49.6235679,45.2982882 49.7181066,45.0689969 C49.8126453,44.8397056 49.9454477,44.6396408 50.1165178,44.4687963 C50.2875878,44.2979518 50.4856659,44.1630766 50.7107581,44.0641667 C50.9358502,43.9652567 51.1834479,43.9158025 51.4535585,43.9158025 C51.7146654,43.9158025 51.9600121,43.9652567 52.1896061,44.0641667 C52.4192001,44.1630766 52.6172783,44.2979518 52.7838465,44.4687963 C52.9504147,44.6396408 53.083217,44.8397056 53.1822576,45.0689969 C53.2812981,45.2982882 53.3308177,45.5433115 53.3308177,45.8040741 C53.3308177,46.0738285 53.2812981,46.3210997 53.1822576,46.5458951 C53.083217,46.7706904 52.9504147,46.9685074 52.7838465,47.1393519 C52.6172783,47.3101963 52.4192001,47.4428236 52.1896061,47.5372377 C51.9600121,47.6316517 51.7146654,47.678858 51.4535585,47.678858 C51.1834479,47.678858 50.9358502,47.6316517 50.7107581,47.5372377 C50.4856659,47.4428236 50.2875878,47.3101963 50.1165178,47.1393519 C49.9454477,46.9685074 49.8126453,46.7706904 49.7181066,46.5458951 C49.6235679,46.3210997 49.5762993,46.0738285 49.5762993,45.8040741 Z" id="HI!" fill="#FFFFFF"></path></g><g id="Group-63" transform="translate(145.539225, 165.088889)"><path d="M33.3843371,147.968537 C38.1341776,134.803076 38.1341776,126.40647 33.3843371,122.778717 C26.2595763,117.337088 7.54123825,98.41379 14.9501357,85.5374855 C22.3590332,72.661181 32.48257,92.4719037 37.0887859,85.5374855 C41.6950017,78.6030673 13.2533195,66.2988656 6.99697643,43.1193888 C0.74063339,19.9399119 8.01213145,3.27442419 24.0385078,0.354038943 C40.0648842,-2.5663463 65.7292304,12.0409018 57.6293338,64.3510552 C66.018703,60.9916143 69.2949458,36.3020521 76.023516,37.1189617 C82.7520862,37.9358713 91.908491,41.9485737 82.7520862,55.7389123 C73.5956814,69.5292508 55.1201268,94.5194995 68.9361065,88.8383856 C75.1631057,86.2778512 90.5425597,75.6693794 97.4738349,80.0865432 C106.027283,85.5374855 102.823997,95.1706873 93.2598077,101.292931 C74.6575255,113.200652 54.9520459,123.368116 57.6293338,147.968537 C47.8815334,152.623413 39.7998678,152.623413 33.3843371,147.968537 Z" id="Path-65" fill="#0D6574"></path><path d="M33.346455,136.063973 L69.2950545,136.063973 C75.9754908,136.063973 81.3910545,141.479537 81.3910545,148.159973 C81.3910545,148.311171 81.3882196,148.462355 81.3825512,148.613446 L77.2341918,259.189572 C76.9903607,265.688982 71.6506776,270.832099 65.146695,270.832099 L37.4948145,270.832099 C30.9908318,270.832099 25.6511487,265.688982 25.4073177,259.189572 L21.2589582,148.613446 C21.008512,141.937706 26.2172419,136.322922 32.892982,136.072476 C33.0440732,136.066808 33.1952575,136.063973 33.346455,136.063973 Z" id="Rectangle-23" fill="url(#linearGradient-4)"></path><path d="M62.672967,136.063973 L69.2950545,136.063973 C75.9754908,136.063973 81.3910545,141.479537 81.3910545,148.159973 C81.3910545,148.311171 81.3882196,148.462355 81.3825512,148.613446 L77.2341918,259.189572 C76.9903607,265.688982 71.6506776,270.832099 65.146695,270.832099 L54.9666109,270.832099 L62.672967,136.063973 Z" id="Combined-Shape" fill="url(#linearGradient-28)" opacity="0.300000012"></path><path d="M30.3160576,125.285547 C35.6897726,124.313647 38.7341474,123.155015 39.4491821,121.809652" id="Path-71" stroke="#6AC264" stroke-width="0.864" stroke-linecap="round" stroke-linejoin="round"></path><path d="M25.5521057,120.966055 C30.9258207,119.994156 33.9701955,118.835524 34.6852302,117.490161" id="Path-71-Copy" stroke="#6AC264" stroke-width="0.864" stroke-linecap="round" stroke-linejoin="round"></path><path d="M0,20.3219103 C4.93291718,22.5462469 7.75689313,22.9857335 8.47192785,21.6403701" id="Path-71-Copy-2" stroke="#6AC264" stroke-width="0.864" stroke-linecap="round" stroke-linejoin="round"></path><path d="M8.52200792,58.0519935 C13.8957229,57.0800938 16.9400977,55.9214623 17.6551324,54.5760989" id="Path-71-Copy-3" stroke="#6AC264" stroke-width="0.864" stroke-linecap="round" stroke-linejoin="round" transform="translate(13.088570, 56.314046) rotate(27.000000) translate(-13.088570, -56.314046) "></path><path d="M10.2543541,96.9274143 C15.628069,95.9555147 18.6724438,94.7968832 19.3874786,93.4515198" id="Path-71-Copy-5" stroke="#6AC264" stroke-width="0.864" stroke-linecap="round" stroke-linejoin="round" transform="translate(14.820916, 95.189467) rotate(27.000000) translate(-14.820916, -95.189467) "></path><path d="M0.2933637,37.3184357 C5.66707865,36.346536 8.71145348,35.1879045 9.4264882,33.8425411" id="Path-71-Copy-4" stroke="#6AC264" stroke-width="0.864" stroke-linecap="round" stroke-linejoin="round" transform="translate(4.859926, 35.580488) rotate(27.000000) translate(-4.859926, -35.580488) "></path><path d="M55.8681634,32.1386734 L60.7690763,26.7808455" id="Path-77" stroke="#6AC264" stroke-width="0.864" stroke-linecap="round" stroke-linejoin="round"></path><path d="M29.8829711,40.3457067 L34.783884,34.9878788" id="Path-77-Copy" stroke="#6AC264" stroke-width="0.864" stroke-linecap="round" stroke-linejoin="round"></path><path d="M69.7269326,102.114431 L74.6278455,96.7566031" id="Path-77-Copy-7" stroke="#6AC264" stroke-width="0.864" stroke-linecap="round" stroke-linejoin="round"></path><path d="M22.9535865,21.3399454 L27.8544994,15.9821175" id="Path-77-Copy-2" stroke="#6AC264" stroke-width="0.864" stroke-linecap="round" stroke-linejoin="round"></path><path d="M55.8681634,45.5290962 L60.7690763,40.1712682" id="Path-77-Copy-3" stroke="#6AC264" stroke-width="0.864" stroke-linecap="round" stroke-linejoin="round"></path><path d="M65.8291537,45.3546577 L71.1147391,50.3354619" id="Path-77-Copy-8" stroke="#6AC264" stroke-width="0.864" stroke-linecap="round" stroke-linejoin="round"></path><path d="M68.427673,70.8396558 L73.7132584,75.82046" id="Path-77-Copy-9" stroke="#6AC264" stroke-width="0.864" stroke-linecap="round" stroke-linejoin="round"></path><path d="M54.1358172,78.1827909 L59.4214026,83.163595" id="Path-77-Copy-10" stroke="#6AC264" stroke-width="0.864" stroke-linecap="round" stroke-linejoin="round"></path><path d="M81.4202691,80.3425365 L86.7058545,85.3233406" id="Path-77-Copy-11" stroke="#6AC264" stroke-width="0.864" stroke-linecap="round" stroke-linejoin="round"></path><path d="M86.6173075,101.939993 L91.9028929,106.920797" id="Path-77-Copy-12" stroke="#6AC264" stroke-width="0.864" stroke-linecap="round" stroke-linejoin="round"></path><path d="M65.8291537,117.490161 L71.1147391,122.470965" id="Path-77-Copy-14" stroke="#6AC264" stroke-width="0.864" stroke-linecap="round" stroke-linejoin="round"></path><path d="M97.0113844,92.869061 L102.29697,97.8498651" id="Path-77-Copy-13" stroke="#6AC264" stroke-width="0.864" stroke-linecap="round" stroke-linejoin="round"></path><path d="M55.8681634,61.5112137 L60.7690763,56.1533857" id="Path-77-Copy-6" stroke="#6AC264" stroke-width="0.864" stroke-linecap="round" stroke-linejoin="round"></path><path d="M97.444471,85.7003644 L102.345384,80.3425365" id="Path-77-Copy-5" stroke="#6AC264" stroke-width="0.864" stroke-linecap="round" stroke-linejoin="round"></path><path d="M48.9387788,18.7482507 L53.8396917,13.3904227" id="Path-77-Copy-4" stroke="#6AC264" stroke-width="0.864" stroke-linecap="round" stroke-linejoin="round"></path><path d="M32.9145769,56.1533857 L36.2196854,61.1914194" id="Path-78" stroke="#6AC264" stroke-width="0.864" stroke-linecap="round" stroke-linejoin="round"></path><path d="M52.4034711,98.9163487 L55.7085796,103.954382" id="Path-78-Copy-3" stroke="#6AC264" stroke-width="0.864" stroke-linecap="round" stroke-linejoin="round"></path><path d="M31.6153173,91.5732136 L34.9204257,96.6112473" id="Path-78-Copy" stroke="#6AC264" stroke-width="0.864" stroke-linecap="round" stroke-linejoin="round"></path><path d="M76.2232306,61.3367752 L79.5283391,66.3748088" id="Path-78-Copy-4" stroke="#6AC264" stroke-width="0.864" stroke-linecap="round" stroke-linejoin="round"></path><path d="M81.4202691,50.106098 L84.7253776,55.1441317" id="Path-78-Copy-5" stroke="#6AC264" stroke-width="0.864" stroke-linecap="round" stroke-linejoin="round"></path><path d="M16.4572884,80.7744856 L19.7623969,85.8125193" id="Path-78-Copy-2" stroke="#6AC264" stroke-width="0.864" stroke-linecap="round" stroke-linejoin="round"></path></g><ellipse id="Oval-25" fill="#0D6574" opacity="0.100000001" cx="348.66137" cy="429.446914" rx="64.8262165" ry="7.55308642"></ellipse></g></g></g></g></svg> 