<?xml version="1.0" encoding="UTF-8"?> <svg xmlns="http://www.w3.org/2000/svg" xmlns:xlink="http://www.w3.org/1999/xlink" width="567px" height="312px" viewBox="0 0 567 312"><!-- Generator: Sketch 52.5 (67469) - http://www.bohemiancoding.com/sketch --><title>Bot Collaboration</title><desc>Created with Sketch.</desc><defs><linearGradient x1="50%" y1="3.64317602%" x2="50%" y2="100%" id="linearGradient-1"><stop stop-color="#298494" offset="0%"></stop><stop stop-color="#1C8091" offset="100%"></stop></linearGradient><linearGradient x1="50%" y1="0%" x2="50%" y2="100%" id="linearGradient-2"><stop stop-color="#B0EFAB" offset="0%"></stop><stop stop-color="#8CED85" offset="100%"></stop></linearGradient><path d="M8.976,3.63982005e-15 L32.4297758,3.10862447e-14 C35.1479347,2.57585069e-14 37.496305,1.89983293 38.0639589,4.55805729 L38.0639589,4.55805729 C38.6316127,7.21628165 40.9799831,9.11611458 43.698142,9.11611458 L109.552372,9.11611458 C112.33138,9.11611458 114.761947,7.2447215 115.472383,4.55805729 L115.472383,4.55805729 C116.182818,1.87139308 118.613386,1.07760751e-14 121.392394,5.32907052e-15 L141.502601,-1.77635684e-15 C146.459909,-2.68699953e-15 150.478601,4.01869209 150.478601,8.976 L150.478601,272.55252 C150.478601,277.509828 146.459909,281.52852 141.502601,281.52852 L8.976,281.52852 C4.01869209,281.52852 2.78751988e-14,277.509828 -3.55271368e-15,272.55252 L-3.55271368e-15,8.976 C-4.15980881e-15,4.01869209 4.01869209,-8.65714149e-16 8.976,-1.77635684e-15 Z" id="path-3"></path><linearGradient x1="50%" y1="0%" x2="50%" y2="100%" id="linearGradient-5"><stop stop-color="#78D770" offset="0%"></stop><stop stop-color="#8CED85" offset="100%"></stop></linearGradient><ellipse id="path-6" cx="130.678785" cy="24.6072861" rx="7.06790904" ry="7.08389037"></ellipse><filter x="-254.7%" y="-254.1%" width="609.3%" height="608.2%" id="filter-7"><feOffset dx="0" dy="0" in="SourceAlpha" result="shadowOffsetOuter1"></feOffset><feGaussianBlur stdDeviation="12" in="shadowOffsetOuter1" result="shadowBlurOuter1"></feGaussianBlur><feColorMatrix values="0 0 0 0 1 0 0 0 0 1 0 0 0 0 1 0 0 0 0.5 0" type="matrix" in="shadowBlurOuter1"></feColorMatrix></filter><linearGradient x1="50%" y1="2.87189094%" x2="50%" y2="100%" id="linearGradient-8"><stop stop-color="#FFFFFF" stop-opacity="0.428640172" offset="0%"></stop><stop stop-color="#FFFFFF" stop-opacity="0" offset="100%"></stop></linearGradient><linearGradient x1="69.374577%" y1="0%" x2="50%" y2="119.213221%" id="linearGradient-9"><stop stop-color="#2F9186" offset="0%"></stop><stop stop-color="#87CBC2" offset="100%"></stop></linearGradient><linearGradient x1="103.551656%" y1="50.1412175%" x2="-1.45429779%" y2="65.0121411%" id="linearGradient-10"><stop stop-color="#206961" offset="0%"></stop><stop stop-color="#518C84" offset="100%"></stop></linearGradient><linearGradient x1="104.548815%" y1="50%" x2="-1.45429779%" y2="65.0121411%" id="linearGradient-11"><stop stop-color="#2F9186" offset="0%"></stop><stop stop-color="#87CBC2" offset="100%"></stop></linearGradient><linearGradient x1="50%" y1="97.642683%" x2="50%" y2="-5.51359343%" id="linearGradient-12"><stop stop-color="#B8F3B3" stop-opacity="0" offset="0%"></stop><stop stop-color="#AFF1AA" stop-opacity="0.352099257" offset="15.7096761%"></stop><stop stop-color="#81E37B" offset="100%"></stop></linearGradient><linearGradient x1="50%" y1="98.1159467%" x2="50%" y2="-1.24943355%" id="linearGradient-13"><stop stop-color="#8CFF82" stop-opacity="0" offset="0%"></stop><stop stop-color="#FFFFFF" stop-opacity="0.97376019" offset="100%"></stop></linearGradient><linearGradient x1="50%" y1="11.6070897%" x2="50%" y2="90.2861696%" id="linearGradient-14"><stop stop-color="#A7E6D2" offset="0%"></stop><stop stop-color="#E3FFF6" offset="100%"></stop></linearGradient><linearGradient x1="11.5884416%" y1="20.3503406%" x2="81.0877102%" y2="92.6145286%" id="linearGradient-15"><stop stop-color="#C9F1E5" offset="0%"></stop><stop stop-color="#A4F5DA" offset="100%"></stop></linearGradient><ellipse id="path-16" cx="35.6389455" cy="35.6573165" rx="35.6389455" ry="35.6573165"></ellipse><linearGradient x1="57.6964029%" y1="-28.1753217%" x2="43.1413235%" y2="92.9334256%" id="linearGradient-18"><stop stop-color="#7ECC79" offset="0%"></stop><stop stop-color="#33BAAA" offset="100%"></stop></linearGradient><path d="M2.3607404,11.8663894 C0.431775699,11.0900647 -0.502947854,8.8961882 0.272976904,6.96622917 C1.04890166,5.03627014 3.24164781,4.10106476 5.17061251,4.87738948 C18.1768962,10.1118552 27.9798378,8.79572015 35.3588446,1.15018217 C36.8031197,-0.346260411 39.1864174,-0.387946996 40.682089,1.05707257 C42.1777606,2.50209214 42.2194257,4.88661835 40.7751506,6.38306093 C31.0909388,16.4170683 18.026333,18.1711118 2.3607404,11.8663894 Z" id="path-19"></path><linearGradient x1="23.2916903%" y1="14.537225%" x2="78.8050321%" y2="119.862794%" id="linearGradient-21"><stop stop-color="#AFF7E7" offset="0%"></stop><stop stop-color="#5DD1E4" offset="100%"></stop></linearGradient><ellipse id="path-22" cx="35.6389455" cy="35.6573165" rx="35.6389455" ry="35.6573165"></ellipse><path d="M56.7211386,45.701631 L56.7211386,40.4283659 C56.7211386,38.6254863 58.1819082,37.1639637 59.9838589,37.1639637 C61.7858096,37.1639637 63.2465793,38.6254863 63.2465793,40.4283659 L63.2465793,45.701631" id="path-24"></path><filter x="-98.2%" y="-75.0%" width="296.3%" height="250.1%" id="filter-25"><feMorphology radius="0.406296" operator="dilate" in="SourceAlpha" result="shadowSpreadOuter1"></feMorphology><feOffset dx="0" dy="0" in="shadowSpreadOuter1" result="shadowOffsetOuter1"></feOffset><feMorphology radius="1" operator="erode" in="SourceAlpha" result="shadowInner"></feMorphology><feOffset dx="0" dy="0" in="shadowInner" result="shadowInner"></feOffset><feComposite in="shadowOffsetOuter1" in2="shadowInner" operator="out" result="shadowOffsetOuter1"></feComposite><feGaussianBlur stdDeviation="2" in="shadowOffsetOuter1" result="shadowBlurOuter1"></feGaussianBlur><feColorMatrix values="0 0 0 0 0.414386489 0 0 0 0 0.762223639 0 0 0 0 0.392089236 0 0 0 1 0" type="matrix" in="shadowBlurOuter1"></feColorMatrix></filter><path d="M55.3936057,55.0715355 C57.2752486,57.7439235 59.6518223,59.0885977 62.5233268,59.1055579" id="path-26"></path><filter x="-92.1%" y="-162.8%" width="282.0%" height="421.6%" id="filter-27"><feMorphology radius="0.406296" operator="dilate" in="SourceAlpha" result="shadowSpreadOuter1"></feMorphology><feOffset dx="0" dy="0" in="shadowSpreadOuter1" result="shadowOffsetOuter1"></feOffset><feMorphology radius="1" operator="erode" in="SourceAlpha" result="shadowInner"></feMorphology><feOffset dx="0" dy="0" in="shadowInner" result="shadowInner"></feOffset><feComposite in="shadowOffsetOuter1" in2="shadowInner" operator="out" result="shadowOffsetOuter1"></feComposite><feGaussianBlur stdDeviation="2" in="shadowOffsetOuter1" result="shadowBlurOuter1"></feGaussianBlur><feColorMatrix values="0 0 0 0 0.414386489 0 0 0 0 0.762223639 0 0 0 0 0.392089236 0 0 0 1 0" type="matrix" in="shadowBlurOuter1"></feColorMatrix></filter><linearGradient x1="9.38355439%" y1="15.4514204%" x2="90.1666618%" y2="50%" id="linearGradient-28"><stop stop-color="#B6F4DF" offset="0%"></stop><stop stop-color="#79DDBA" offset="100%"></stop></linearGradient><linearGradient x1="11.5884416%" y1="20.3503406%" x2="81.0877102%" y2="92.6145286%" id="linearGradient-29"><stop stop-color="#6AC4A8" offset="0%"></stop><stop stop-color="#A4F5DA" offset="100%"></stop></linearGradient><ellipse id="path-30" cx="35.6389455" cy="35.6573165" rx="35.6389455" ry="35.6573165"></ellipse><path d="M2.3607404,11.8663894 C0.431775699,11.0900647 -0.502947854,8.8961882 0.272976904,6.96622917 C1.04890166,5.03627014 3.24164781,4.10106476 5.17061251,4.87738948 C18.1768962,10.1118552 27.9798378,8.79572015 35.3588446,1.15018217 C36.8031197,-0.346260411 39.1864174,-0.387946996 40.682089,1.05707257 C42.1777606,2.50209214 42.2194257,4.88661835 40.7751506,6.38306093 C31.0909388,16.4170683 18.026333,18.1711118 2.3607404,11.8663894 Z" id="path-32"></path><ellipse id="path-34" cx="35.6389455" cy="35.6573165" rx="35.6389455" ry="35.6573165"></ellipse><path d="M56.7211386,45.701631 L56.7211386,40.4283659 C56.7211386,38.6254863 58.1819082,37.1639637 59.9838589,37.1639637 C61.7858096,37.1639637 63.2465793,38.6254863 63.2465793,40.4283659 L63.2465793,45.701631" id="path-36"></path><filter x="-98.2%" y="-75.0%" width="296.3%" height="250.1%" id="filter-37"><feMorphology radius="0.406296" operator="dilate" in="SourceAlpha" result="shadowSpreadOuter1"></feMorphology><feOffset dx="0" dy="0" in="shadowSpreadOuter1" result="shadowOffsetOuter1"></feOffset><feMorphology radius="1" operator="erode" in="SourceAlpha" result="shadowInner"></feMorphology><feOffset dx="0" dy="0" in="shadowInner" result="shadowInner"></feOffset><feComposite in="shadowOffsetOuter1" in2="shadowInner" operator="out" result="shadowOffsetOuter1"></feComposite><feGaussianBlur stdDeviation="2" in="shadowOffsetOuter1" result="shadowBlurOuter1"></feGaussianBlur><feColorMatrix values="0 0 0 0 0.414386489 0 0 0 0 0.762223639 0 0 0 0 0.392089236 0 0 0 1 0" type="matrix" in="shadowBlurOuter1"></feColorMatrix></filter><path d="M55.3936057,55.0715355 C57.2752486,57.7439235 59.6518223,59.0885977 62.5233268,59.1055579" id="path-38"></path><filter x="-92.1%" y="-162.8%" width="282.0%" height="421.6%" id="filter-39"><feMorphology radius="0.406296" operator="dilate" in="SourceAlpha" result="shadowSpreadOuter1"></feMorphology><feOffset dx="0" dy="0" in="shadowSpreadOuter1" result="shadowOffsetOuter1"></feOffset><feMorphology radius="1" operator="erode" in="SourceAlpha" result="shadowInner"></feMorphology><feOffset dx="0" dy="0" in="shadowInner" result="shadowInner"></feOffset><feComposite in="shadowOffsetOuter1" in2="shadowInner" operator="out" result="shadowOffsetOuter1"></feComposite><feGaussianBlur stdDeviation="2" in="shadowOffsetOuter1" result="shadowBlurOuter1"></feGaussianBlur><feColorMatrix values="0 0 0 0 0.414386489 0 0 0 0 0.762223639 0 0 0 0 0.392089236 0 0 0 1 0" type="matrix" in="shadowBlurOuter1"></feColorMatrix></filter><path d="M21.1050297,2.77778054 C21.8300412,0.709756981 24.0904614,-0.37764042 26.1538195,0.349010472 C28.2171776,1.07566136 29.3021218,3.34119264 28.5771103,5.4092162 C23.7768295,19.101541 15.8577088,27.4181757 4.89015541,29.8075927 C2.75303496,30.2731907 0.643966235,28.9142368 0.179418553,26.7722841 C-0.28512913,24.6303314 1.07075899,22.5164938 3.20787943,22.0508957 C11.2045696,20.308718 17.1468172,14.0681889 21.1050297,2.77778054 Z" id="path-40"></path><linearGradient x1="50%" y1="11.6070897%" x2="50%" y2="90.2861696%" id="linearGradient-42"><stop stop-color="#93D2BE" offset="0%"></stop><stop stop-color="#D3F2E8" offset="100%"></stop></linearGradient><path d="M0.539003418,6.3627138 C-0.608351977,4.29508051 0.136107237,1.6879433 2.20179961,0.539509862 C4.26749199,-0.608923581 6.87218184,0.136235123 8.01953724,2.20386841 C12.3647253,10.0342718 18.5629895,13.2896592 27.360867,12.3777053 C29.7112424,12.1340745 31.8139146,13.8437188 32.0573167,16.1963026 C32.3007188,18.5488865 30.5926794,20.6535343 28.242304,20.8971651 C16.026431,22.1634152 6.54315179,17.1827065 0.539003418,6.3627138 Z" id="path-43"></path><linearGradient x1="11.5884416%" y1="20.3503406%" x2="81.0877102%" y2="92.6145286%" id="linearGradient-45"><stop stop-color="#CAF9EB" offset="0%"></stop><stop stop-color="#A4F5DA" offset="100%"></stop></linearGradient><ellipse id="path-46" cx="36.0819367" cy="36.1158391" rx="36.0819367" ry="36.1158391"></ellipse><ellipse id="path-48" cx="36.0819367" cy="36.1158391" rx="36.0819367" ry="36.1158391"></ellipse><ellipse id="path-50" cx="4.84895592" cy="10.9917771" rx="4.84895592" ry="1"></ellipse><filter x="-120.0%" y="-600.4%" width="339.9%" height="1300.9%" id="filter-51"><feOffset dx="0" dy="0" in="SourceAlpha" result="shadowOffsetOuter1"></feOffset><feGaussianBlur stdDeviation="4" in="shadowOffsetOuter1" result="shadowBlurOuter1"></feGaussianBlur><feColorMatrix values="0 0 0 0 0.414386489 0 0 0 0 0.762223639 0 0 0 0 0.392089236 0 0 0 0.759992074 0" type="matrix" in="shadowBlurOuter1"></feColorMatrix></filter><path d="M1.14093081,6.7720402 L1.14093081,3.28733668 C1.14093081,1.47179076 2.8010702,0 4.84895592,0 C6.89684165,0 8.55698104,1.47179076 8.55698104,3.28733668 L8.55698104,6.7720402" id="path-52"></path><filter x="-86.7%" y="-94.9%" width="273.3%" height="289.8%" id="filter-53"><feMorphology radius="0.42768" operator="dilate" in="SourceAlpha" result="shadowSpreadOuter1"></feMorphology><feOffset dx="0" dy="0" in="shadowSpreadOuter1" result="shadowOffsetOuter1"></feOffset><feMorphology radius="1" operator="erode" in="SourceAlpha" result="shadowInner"></feMorphology><feOffset dx="0" dy="0" in="shadowInner" result="shadowInner"></feOffset><feComposite in="shadowOffsetOuter1" in2="shadowInner" operator="out" result="shadowOffsetOuter1"></feComposite><feGaussianBlur stdDeviation="2" in="shadowOffsetOuter1" result="shadowBlurOuter1"></feGaussianBlur><feColorMatrix values="0 0 0 0 0.414386489 0 0 0 0 0.762223639 0 0 0 0 0.392089236 0 0 0 1 0" type="matrix" in="shadowBlurOuter1"></feColorMatrix></filter><ellipse id="path-54" cx="4.84895592" cy="10.9917771" rx="4.84895592" ry="1"></ellipse><filter x="-120.0%" y="-600.4%" width="339.9%" height="1300.9%" id="filter-55"><feOffset dx="0" dy="0" in="SourceAlpha" result="shadowOffsetOuter1"></feOffset><feGaussianBlur stdDeviation="4" in="shadowOffsetOuter1" result="shadowBlurOuter1"></feGaussianBlur><feColorMatrix values="0 0 0 0 0.414386489 0 0 0 0 0.762223639 0 0 0 0 0.392089236 0 0 0 0.759992074 0" type="matrix" in="shadowBlurOuter1"></feColorMatrix></filter><path d="M1.14093081,6.7720402 L1.14093081,3.28733668 C1.14093081,1.47179076 2.8010702,0 4.84895592,0 C6.89684165,0 8.55698104,1.47179076 8.55698104,3.28733668 L8.55698104,6.7720402" id="path-56"></path><filter x="-86.7%" y="-94.9%" width="273.3%" height="289.8%" id="filter-57"><feMorphology radius="0.42768" operator="dilate" in="SourceAlpha" result="shadowSpreadOuter1"></feMorphology><feOffset dx="0" dy="0" in="shadowSpreadOuter1" result="shadowOffsetOuter1"></feOffset><feMorphology radius="1" operator="erode" in="SourceAlpha" result="shadowInner"></feMorphology><feOffset dx="0" dy="0" in="shadowInner" result="shadowInner"></feOffset><feComposite in="shadowOffsetOuter1" in2="shadowInner" operator="out" result="shadowOffsetOuter1"></feComposite><feGaussianBlur stdDeviation="2" in="shadowOffsetOuter1" result="shadowBlurOuter1"></feGaussianBlur><feColorMatrix values="0 0 0 0 0.414386489 0 0 0 0 0.762223639 0 0 0 0 0.392089236 0 0 0 1 0" type="matrix" in="shadowBlurOuter1"></feColorMatrix></filter><path d="M36.0819367,61.0971507 C32.5375191,61.0971507 29.6642009,59.2448186 29.6642009,56.9598512 C29.6642009,54.6748838 32.5375191,55.5529647 36.0819367,55.5529647 C39.6263543,55.5529647 42.4996725,54.6748838 42.4996725,56.9598512 C42.4996725,59.2448186 39.6263543,61.0971507 36.0819367,61.0971507 Z M36.2245531,60.5261493 C37.3272608,60.5261493 38.221182,60.1426802 38.221182,59.6696472 C38.221182,59.1966141 37.3272608,58.8131451 36.2245531,58.8131451 C35.1218454,58.8131451 34.2279242,59.1966141 34.2279242,59.6696472 C34.2279242,60.1426802 35.1218454,60.5261493 36.2245531,60.5261493 Z" id="path-58"></path><filter x="-93.5%" y="-210.2%" width="287.0%" height="520.3%" id="filter-59"><feOffset dx="0" dy="0" in="SourceAlpha" result="shadowOffsetOuter1"></feOffset><feGaussianBlur stdDeviation="4" in="shadowOffsetOuter1" result="shadowBlurOuter1"></feGaussianBlur><feColorMatrix values="0 0 0 0 0.414386489 0 0 0 0 0.762223639 0 0 0 0 0.392089236 0 0 0 0.759992074 0" type="matrix" in="shadowBlurOuter1"></feColorMatrix></filter><path d="M11.0785227,20.0617547 C11.0785227,19.6259831 11.0785227,18.9723257 11.0785227,18.1007824 C11.0785227,16.5483466 12.4980737,15.2898486 14.2491786,15.2898486 C16.0002834,15.2898486 17.4198344,16.5483466 17.4198344,18.1007824 L17.4198344,21.0804806" id="path-60"></path><filter x="-101.4%" y="-111.0%" width="302.7%" height="322.0%" id="filter-61"><feMorphology radius="0.42768" operator="dilate" in="SourceAlpha" result="shadowSpreadOuter1"></feMorphology><feOffset dx="0" dy="0" in="shadowSpreadOuter1" result="shadowOffsetOuter1"></feOffset><feMorphology radius="1" operator="erode" in="SourceAlpha" result="shadowInner"></feMorphology><feOffset dx="0" dy="0" in="shadowInner" result="shadowInner"></feOffset><feComposite in="shadowOffsetOuter1" in2="shadowInner" operator="out" result="shadowOffsetOuter1"></feComposite><feGaussianBlur stdDeviation="2" in="shadowOffsetOuter1" result="shadowBlurOuter1"></feGaussianBlur><feColorMatrix values="0 0 0 0 0.414386489 0 0 0 0 0.762223639 0 0 0 0 0.392089236 0 0 0 1 0" type="matrix" in="shadowBlurOuter1"></feColorMatrix></filter><path d="M32.7356957,25.6898386 C32.7356957,25.1802115 32.7356957,24.4157709 32.7356957,23.3965167 C32.7356957,21.5809708 34.3958351,20.10918 36.4437209,20.10918 C38.4916066,20.10918 40.151746,21.5809708 40.151746,23.3965167 L40.151746,26.8812202" id="path-62"></path><filter x="-86.7%" y="-94.9%" width="273.3%" height="289.8%" id="filter-63"><feMorphology radius="0.42768" operator="dilate" in="SourceAlpha" result="shadowSpreadOuter1"></feMorphology><feOffset dx="0" dy="0" in="shadowSpreadOuter1" result="shadowOffsetOuter1"></feOffset><feMorphology radius="1" operator="erode" in="SourceAlpha" result="shadowInner"></feMorphology><feOffset dx="0" dy="0" in="shadowInner" result="shadowInner"></feOffset><feComposite in="shadowOffsetOuter1" in2="shadowInner" operator="out" result="shadowOffsetOuter1"></feComposite><feGaussianBlur stdDeviation="2" in="shadowOffsetOuter1" result="shadowBlurOuter1"></feGaussianBlur><feColorMatrix values="0 0 0 0 0.414386489 0 0 0 0 0.762223639 0 0 0 0 0.392089236 0 0 0 1 0" type="matrix" in="shadowBlurOuter1"></feColorMatrix></filter><ellipse id="path-64" cx="24.0237767" cy="32.5451203" rx="2.37597792" ry="2.38135027"></ellipse><filter x="-252.5%" y="-252.0%" width="605.1%" height="603.9%" id="filter-65"><feOffset dx="0" dy="0" in="SourceAlpha" result="shadowOffsetOuter1"></feOffset><feGaussianBlur stdDeviation="4" in="shadowOffsetOuter1" result="shadowBlurOuter1"></feGaussianBlur><feColorMatrix values="0 0 0 0 0.414386489 0 0 0 0 0.762223639 0 0 0 0 0.392089236 0 0 0 0.759992074 0" type="matrix" in="shadowBlurOuter1"></feColorMatrix></filter><linearGradient x1="0%" y1="34.7205331%" x2="100%" y2="43.4353966%" id="linearGradient-66"><stop stop-color="#56A78B" offset="0%"></stop><stop stop-color="#79DDBA" stop-opacity="0" offset="100%"></stop></linearGradient><path d="M21.1050297,2.77778054 C21.8300412,0.709756981 24.0904614,-0.37764042 26.1538195,0.349010472 C28.2171776,1.07566136 29.3021218,3.34119264 28.5771103,5.4092162 C23.7768295,19.101541 15.8577088,27.4181757 4.89015541,29.8075927 C2.75303496,30.2731907 0.643966235,28.9142368 0.179418553,26.7722841 C-0.28512913,24.6303314 1.07075899,22.5164938 3.20787943,22.0508957 C11.2045696,20.308718 17.1468172,14.0681889 21.1050297,2.77778054 Z" id="path-67"></path><linearGradient x1="23.2916903%" y1="14.537225%" x2="78.8050321%" y2="119.862794%" id="linearGradient-69"><stop stop-color="#9FF2E1" offset="0%"></stop><stop stop-color="#71E0F3" offset="100%"></stop></linearGradient><linearGradient x1="23.2916903%" y1="14.537225%" x2="77.6355965%" y2="117.644022%" id="linearGradient-70"><stop stop-color="#C0FFF2" offset="0%"></stop><stop stop-color="#8CE7F6" offset="100%"></stop></linearGradient><linearGradient x1="23.2916903%" y1="14.537225%" x2="78.8050321%" y2="119.862794%" id="linearGradient-71"><stop stop-color="#D8FFF7" offset="0%"></stop><stop stop-color="#A4F2FF" offset="100%"></stop></linearGradient><linearGradient x1="57.6964029%" y1="-28.1753217%" x2="43.1413235%" y2="92.9334256%" id="linearGradient-72"><stop stop-color="#5DC777" offset="0%"></stop><stop stop-color="#33BAAA" offset="100%"></stop></linearGradient><linearGradient x1="11.5884416%" y1="20.3503406%" x2="81.0877102%" y2="92.6145286%" id="linearGradient-73"><stop stop-color="#9EE4CE" offset="0%"></stop><stop stop-color="#A4F5DA" offset="100%"></stop></linearGradient><linearGradient x1="11.5884416%" y1="20.3503406%" x2="81.0877102%" y2="92.6145286%" id="linearGradient-74"><stop stop-color="#8AD7BF" offset="0%"></stop><stop stop-color="#73DDB9" offset="100%"></stop></linearGradient></defs><g id="Pages" stroke="none" stroke-width="1" fill="none" fill-rule="evenodd"><g id="Bots/AI" transform="translate(-150.000000, -4580.000000)"><g id="Group-8" transform="translate(149.000000, 4270.000000)"><g id="Bot-Collaboration" transform="translate(0.000000, 310.000000)"><path d="M167.492864,286.901144 L483.776025,286.901144" id="Path-79" stroke="#0B4651" stroke-width="0.99"></path><rect id="Rectangle-5-Copy" fill="#054A55" x="317.055586" y="0" width="164.206474" height="299.520945" rx="15.84"></rect><rect id="Rectangle-5" fill="url(#linearGradient-1)" x="304.383704" y="0" width="164.206474" height="299.520945" rx="15.84"></rect><ellipse id="Oval-52" fill="#0D6574" cx="361.309343" cy="9.26470588" rx="3.96212121" ry="3.97058824"></ellipse><ellipse id="Oval-52-Copy" fill="#0D6574" cx="416.77904" cy="9.26470588" rx="2.64141414" ry="2.64705882"></ellipse><path d="M373.524293,5.95588235 L405.224444,5.95588235 C406.86473,5.95588235 408.194444,7.28559665 408.194444,8.92588235 L408.194444,8.94176471 C408.194444,10.5820504 406.86473,11.9117647 405.224444,11.9117647 L373.524293,11.9117647 C371.884007,11.9117647 370.554293,10.5820504 370.554293,8.94176471 L370.554293,8.92588235 C370.554293,7.28559665 371.884007,5.95588235 373.524293,5.95588235 Z" id="Rectangle-54" fill="#0D6574"></path><g id="Group-105" transform="translate(311.247640, 9.525401)"><mask id="mask-4" fill="white"><use xlink:href="#path-3"></use></mask><use id="Rectangle-5-Copy-2" fill="url(#linearGradient-2)" xlink:href="#path-3"></use><path d="M98.7351657,-17.4632353 L121.6346,-17.4632353 C124.660199,-17.4632353 127.258429,-15.3121395 127.823125,-12.3397047 L127.823125,-12.3397047 C128.387821,-9.36726995 130.986051,-7.21617417 134.01165,-7.21617417 L198.762869,-7.21617417 C201.846726,-7.21617417 204.525362,-9.33779342 205.231549,-12.3397047 L205.231549,-12.3397047 C205.937735,-15.341616 208.616372,-17.4632353 211.700228,-17.4632353 L231.261767,-17.4632353 C236.219075,-17.4632353 240.237767,-13.4445432 240.237767,-8.48723529 L240.237767,290.015756 C240.237767,294.973064 236.219075,298.991756 231.261767,298.991756 L98.7351657,298.991756 C93.7778578,298.991756 89.7591657,294.973064 89.7591657,290.015756 L89.7591657,-8.48723529 C89.7591657,-13.4445432 93.7778578,-17.4632353 98.7351657,-17.4632353 Z" id="Rectangle-5-Copy-6" fill="url(#linearGradient-5)" mask="url(#mask-4)"></path><g id="Oval-48" mask="url(#mask-4)"><use fill="black" fill-opacity="1" filter="url(#filter-7)" xlink:href="#path-6"></use><use fill="#FFFFFF" fill-rule="evenodd" xlink:href="#path-6"></use></g><polygon id="Path-164" fill="url(#linearGradient-8)" mask="url(#mask-4)" points="124.120844 22.3219254 -17.0232768 238.120127 -17.0232768 288.694657 165.676645 293.385528 158.763299 39.7435578 137.005614 22.3219254"></polygon><rect id="Rectangle-48" fill="url(#linearGradient-9)" mask="url(#mask-4)" x="128.830803" y="-7.40864528" width="3.16797056" height="21.6967469"></rect><path d="M125.485517,11.9117647 L136.014483,11.9117647 C140.765756,11.9117647 144.617424,15.7634327 144.617424,20.5147059 L116.882576,20.5147059 L116.882576,20.5147059 C116.882576,15.7634327 120.734244,11.9117647 125.485517,11.9117647 Z" id="Rectangle-53" fill="url(#linearGradient-1)" mask="url(#mask-4)"></path></g><path d="M28.7372663,86.7730768 C36.6387907,81.5256886 35.9151466,78.2997239 40.8162486,77.4726622 C45.7173507,76.6456006 47.0367109,80.6660578 54.5309713,79.0514294 C62.0252317,77.4368011 61.8997736,57.6791673 83.5624098,58.0039601 C105.225046,58.3287529 104.401651,83.3800033 111.008683,83.3800033 C117.615715,83.3800033 117.302858,77.4726622 127.208287,77.4726622 C137.113715,77.4726622 141.517753,94.8282334 162.563131,94.8282334 L1.43686869,94.8282334 C14.3694508,92.9563878 23.4695834,90.2713356 28.7372663,86.7730768 Z" id="Path-72-Copy-2" fill="#33BAAA" opacity="0.200000003"></path><g id="Group-100" transform="translate(237.328327, 107.425357)"><polygon id="Rectangle-47-Copy-3" fill="url(#linearGradient-10)" points="3.17302318 28.2366439 224.412041 19.495767 224.412041 24.4430463 3.17302318 57.538929 1.98951966e-13 54.5796747"></polygon><polygon id="Rectangle-47" fill="url(#linearGradient-11)" points="5.81299864 31.4117776 224.409729 24.1774903 224.409729 57.7548084 2.63997546 57.7548084"></polygon><path d="M35.1896044,30.1378369 L105.012633,27.1099036 C105.685969,29.8482671 106.043113,32.7110625 106.043113,35.6573165 C106.043113,44.0033183 103.177218,51.6796094 98.3763298,57.7548084 L42.4320053,57.7548084 C37.631117,51.6796094 34.7652221,44.0033183 34.7652221,35.6573165 C34.7652221,33.7800749 34.9102139,31.9367155 35.1896044,30.1378369 Z" id="Combined-Shape" fill="#0D6574" opacity="0.200000003"></path><path d="M22.0549658,30.7074313 L92.0946802,27.6701012 C92.6819961,30.2378948 92.9922316,32.9113573 92.9922316,35.6573165 C92.9922316,44.0033183 90.1263366,51.6796094 85.3254483,57.7548084 L29.3811239,57.7548084 C24.5802356,51.6796094 21.7143406,44.0033183 21.7143406,35.6573165 C21.7143406,33.9777005 21.8304115,32.3252083 22.0549658,30.7074313 Z" id="Combined-Shape" fill="#0D6574" opacity="0.200000003"></path><g id="Group-97" transform="translate(48.724356, 160.962333) rotate(4.000000) translate(-48.724356, -160.962333) translate(20.363787, 117.018457)"><polygon id="Rectangle-22" fill="url(#linearGradient-12)" opacity="0.622735507" points="14.0957654 9.21286847 42.5682407 9.21286847 56.4855546 87.8315504 0.178451438 87.8315504"></polygon><polygon id="Rectangle-22-Copy" fill="url(#linearGradient-13)" opacity="0.622735507" points="20.0604464 6.77433212 36.6035596 6.77433212 44.6898148 79.7893423 11.9741912 79.7893423"></polygon><rect id="Rectangle-21" fill="#1D8192" x="15.9061044" y="0.813465471" width="24.6761452" height="9.48319693"></rect><path d="M19.8555345,10.2758721 L14.0393755,14.5249484 C13.1938265,15.1426761 12.0076063,14.9579904 11.3898786,14.1124413 C11.118155,13.7405046 10.991119,13.2823713 11.0324991,12.8236139 L11.799077,4.3249893 C12.0200178,1.87554036 14.1847965,0.068977627 16.6342454,0.289918491 C16.8440313,0.30884122 17.0522101,0.342624716 17.257214,0.391014513 L19.8555345,10.2758721 Z M36.7859197,10.2758721 L39.3842402,0.391014513 C39.5892441,0.342624716 39.7974229,0.30884122 40.0072088,0.289918491 C42.4566577,0.068977627 44.6214363,1.87554036 44.8423772,4.3249893 L45.6089551,12.8236139 C45.6503352,13.2823713 45.5232992,13.7405046 45.2515756,14.1124413 C44.6338479,14.9579904 43.4476277,15.1426761 42.6020787,14.5249484 L36.7859197,10.2758721 Z" id="Combined-Shape" fill="url(#linearGradient-14)"></path></g><g id="Group-99" transform="translate(18.702599, 53.234867)"><mask id="mask-17" fill="white"><use xlink:href="#path-16"></use></mask><use id="Oval-42-Copy" fill="url(#linearGradient-15)" xlink:href="#path-16"></use><path d="M54.8186772,13.9441991 C62.1011059,19.795354 65.8157015,25.0498008 65.962464,29.7075397 C66.1092265,34.3652786 69.4164647,32.3705575 75.8841785,23.7233764 L64.3165693,10.4133719 L54.8186772,13.9441991 Z" id="Path-160" stroke="#0D6574" stroke-width="0.812592" fill-opacity="0.280000001" fill="#0D6574" stroke-linecap="round" stroke-linejoin="round" mask="url(#mask-17)"></path><path d="M0.350732245,30.6351592 C2.79025983,47.9501381 17.6598567,61.2703185 35.6389455,61.2703185 C53.6180343,61.2703185 68.4876311,47.9501381 70.9271587,30.6351592 C71.1583363,32.2759833 71.2778909,33.952681 71.2778909,35.6573165 C71.2778909,55.3503086 55.3217915,71.314633 35.6389455,71.314633 C15.9560994,71.314633 0,55.3503086 0,35.6573165 C0,33.952681 0.119554628,32.2759833 0.350732245,30.6351592 Z" id="Combined-Shape" fill="#0D6574" opacity="0.200000003" mask="url(#mask-17)"></path><path d="M11.7173304,9.2257111 C18.0416133,3.49258779 26.4326207,0 35.6389455,0 C48.7010217,0 60.1218338,7.03070996 66.3272015,17.5161074 C59.882323,22.5877666 51.7529311,25.613002 42.9173217,25.613002 C29.9790948,25.613002 18.5551787,19.1261249 11.7173304,9.2257111 Z" id="Combined-Shape" fill="#0D6574" opacity="0.200000003" mask="url(#mask-17)"></path></g><ellipse id="Oval-45" fill="url(#linearGradient-18)" cx="52.5846948" cy="81.6100553" rx="10.2901181" ry="10.2954224"></ellipse><path d="M43.5659148,86.5711874 C45.3393032,88.0219093 47.6055272,88.8921834 50.0749099,88.8921834 C55.7579852,88.8921834 60.365028,84.2827658 60.365028,78.596761 C60.365028,76.7980331 59.9039878,75.1070423 59.09369,73.6356289 C61.4016048,75.5236206 62.8748129,78.3947062 62.8748129,81.6100553 C62.8748129,87.2960601 58.2677701,91.9054777 52.5846948,91.9054777 C48.6994208,91.9054777 45.3170701,89.7510965 43.5659148,86.5711874 Z" id="Combined-Shape" fill="#0D6574" opacity="0.200000003"></path><g id="Group-98" transform="translate(54.341544, 78.345653)"><mask id="mask-20" fill="white"><use xlink:href="#path-19"></use></mask><use id="Path-155" fill="#87E3D6" fill-rule="nonzero" xlink:href="#path-19"></use><path d="M0.0418866645,8.92958889 C9.42349508,12.6710915 17.8686161,13.5142361 25.2091695,11.4113212 C25.7737893,11.2495694 25.1074659,8.76652123 25.0087461,7.34647368 C26.5333894,6.95810119 27.9873299,6.40427259 29.3737922,5.68590303 C32.6001418,5.51779562 36.0533869,5.66164249 38.2653657,3.36976658 C39.109572,2.49506738 39.4460882,1.31694329 39.2812918,0.200379167 C39.7901582,0.373443596 40.2698404,0.658785057 40.682089,1.05707257 C42.1777606,2.50209214 42.2194257,4.88661835 40.7751506,6.38306093 C31.0909388,16.4170683 18.026333,18.1711118 2.3607404,11.8663894 C1.07734599,11.3498787 0.234063831,10.2058725 0.0418866644,8.92958889 Z" id="Combined-Shape" fill="#0D6574" fill-rule="nonzero" opacity="0.200000003" mask="url(#mask-20)"></path><path d="M7.56059574,4.51994153 C5.301906,7.52600272 4.54900942,10.8713133 5.301906,14.5558733" id="Path-158" stroke="#F8FAFC" stroke-width="0.812592" opacity="0.699999988" mask="url(#mask-20)"></path><path d="M14.5879934,5.52437298 C12.3293037,8.53043417 11.5764071,11.8757448 12.3293037,15.5603048" id="Path-158-Copy" stroke="#F8FAFC" stroke-width="0.812592" opacity="0.699999988" mask="url(#mask-20)"></path><path d="M22.1173481,7.53323588 C19.8586584,10.5392971 19.1057618,13.8846077 19.8586584,17.5691677" id="Path-158-Copy-3" stroke="#F8FAFC" stroke-width="0.812592" opacity="0.699999988" mask="url(#mask-20)" transform="translate(20.846835, 12.551202) rotate(-16.000000) translate(-20.846835, -12.551202) "></path><path d="M28.8498826,5.14441193 C26.5911929,8.15047312 25.8382963,11.4957837 26.5911929,15.1803437" id="Path-158-Copy-2" stroke="#F8FAFC" stroke-width="0.812592" opacity="0.699999988" mask="url(#mask-20)" transform="translate(27.579370, 10.162378) rotate(-21.000000) translate(-27.579370, -10.162378) "></path></g><path d="M111.758067,62.5116366 L116.387036,57.0557774 L122.649472,57.0557774 L132.481768,50.5368956 C138.217436,50.5368956 141.085269,52.1729831 141.085269,55.4451581 C141.085269,60.3534206 131.741617,69.9475632 125.857642,70.5970869 C121.934991,71.0301027 120.182834,71.3247681 120.601169,71.4810831 L111.758067,62.5116366 Z" id="Path-157" fill="url(#linearGradient-21)"></path><path d="M114.662125,59.0888156 C119.325113,61.7844135 122.726882,65.6577324 124.867435,70.7087721 C121.641935,71.0811612 120.219846,71.3385982 120.601169,71.4810831 L111.758067,62.5116366 L114.662125,59.0888156 Z" id="Combined-Shape" fill="#0D6574" opacity="0.200000003"></path><path d="M81.4472211,82.6570305 C81.9594895,89.0483682 84.00277,92.7963135 87.5770628,93.9008665 C98.1683567,92.1210789 119.853696,82.6570305 122.897513,75.38263 C122.897513,68.9987443 117.744623,61.3169674 109.609983,59.2614556 C103.388281,59.4527237 94.0006933,67.2512487 81.4472211,82.6570305 Z" id="Path-156" fill="url(#linearGradient-18)"></path><path d="M122.372228,71.7143006 C122.717701,72.9522771 122.897513,74.1900988 122.897513,75.38263 C119.853696,82.6570305 98.1683567,92.1210789 87.5770628,93.9008665 C86.8333675,93.6710446 86.1559532,93.3267844 85.5448198,92.8680859 C96.5127948,90.7553808 118.43545,80.1346688 122.372228,71.7143006 Z" id="Combined-Shape" fill="#0D6574" opacity="0.200000003"></path><g id="Group-96" transform="translate(29.745652, 0.000000)"><g id="Group-94"><mask id="mask-23" fill="white"><use xlink:href="#path-22"></use></mask><use id="Oval-42" fill="url(#linearGradient-15)" xlink:href="#path-22"></use><path d="M49.99589,72.3616688 C36.4356548,69.8469112 30.019349,38.1423239 41.8132797,27.1488148 C53.6072104,16.1553058 66.3814549,36.1343611 72.0587722,23.7631539 C75.8436504,15.5156825 78.4174124,15.5156825 79.7800584,23.7631539 L66.4370159,69.8469112 C58.1960957,75.853247 52.7157204,76.6914995 49.99589,72.3616688 Z" id="Path-151" fill="#0D6574" mask="url(#mask-23)"></path><path d="M48.4535066,74.4530276 C33.5054519,71.6808977 26.4324707,36.7315112 39.4334488,24.6128738 C52.4344268,12.4942364 66.5160486,34.5180438 72.7744097,20.8807081 C76.9466505,11.789151 79.7838237,11.789151 81.2859293,20.8807081 L66.577296,71.6808977 C57.4929605,78.3019507 51.4516974,79.225994 48.4535066,74.4530276 Z" id="Path-151-Copy" stroke="#0D6574" stroke-width="0.812592" stroke-linecap="round" stroke-linejoin="round" mask="url(#mask-23)"></path></g><g id="Rectangle-46" stroke-linecap="round" stroke-linejoin="round"><use fill="black" fill-opacity="1" filter="url(#filter-25)" xlink:href="#path-24"></use><use stroke="#A8FFA2" stroke-width="0.812592" xlink:href="#path-24"></use></g><g id="Path-152" stroke-linecap="round" stroke-linejoin="round"><use fill="black" fill-opacity="1" filter="url(#filter-27)" xlink:href="#path-26"></use><use stroke="#A8FFA2" stroke-width="0.812592" xlink:href="#path-26"></use></g><g id="Group-95" transform="translate(13.050881, 33.648454)" stroke-linecap="round" stroke-linejoin="round"><path d="M0.106149516,0 C5.82646976,0.0522869137 9.37270555,0.923276818 10.7448569,2.61296971 C12.8030839,5.14750905 10.0646761,13.3854499 11.5223035,16.0101154 C3.10347943,16.7095675 -0.701905235,11.3728624 0.106149516,0 Z" id="Path-153" stroke="#70C9AC" stroke-width="0.55" fill="url(#linearGradient-28)"></path><path d="M2.50978489,2.51107863 C5.4285281,2.57424247 7.16212786,3.23356773 7.71058417,4.48905441 C8.53326863,6.37228442 8.13937347,11.7797411 8.53326863,12.5553931" id="Path-154" stroke="#0D6574" stroke-width="0.812592"></path></g></g></g><g id="Group-103" transform="translate(148.695707, 210.566176) scale(-1, 1) translate(-148.695707, -210.566176) translate(82.000000, 107.000000)"><g id="Group-100-Copy"><polygon id="Path-163" fill="url(#linearGradient-29)" points="122.361965 72.225594 122.361965 55.1487715 92.7018628 55.1487715 80.5378652 74.9786477"></polygon><path d="M100.750767,63.3194739 L98.7350823,75.1448307 L115.860383,73.7371607 L112.70291,63.1843717 C111.874614,60.4160725 109.327609,58.5195837 106.43805,58.5195837 L106.43805,58.5195837 C103.625816,58.5195837 101.223309,60.5472253 100.750767,63.3194739 Z" id="Path-162" fill="url(#linearGradient-21)"></path><ellipse id="Oval-46" fill="url(#linearGradient-18)" cx="91.6071486" cy="70.1175357" rx="10.8238994" ry="10.8483734"></ellipse><ellipse id="Oval-46-Copy" fill="url(#linearGradient-18)" cx="119.854886" cy="68.2653743" rx="6.8639362" ry="6.87945633"></ellipse><polygon id="Path-161" fill="#2796A8" points="73.0996595 99.3952251 73.0996595 69.2831925 132.165754 66.2719892 118.984318 121.804148 73.0996595 125.08283"></polygon><polygon id="Path-161-Copy-2" fill="#0D6574" opacity="0.200000003" points="73.0996595 99.3952251 73.0996595 69.2831925 95.4665752 68.1429219 88.08635 124.011958 73.0996595 125.08283"></polygon><polygon id="Path-161-Copy" fill="#0D6574" points="73.0996595 69.2831925 133.019961 66.465151 133.019961 82.5075916 71.9807966 77.2438372"></polygon><g id="Group-97" transform="translate(31.828514, 160.962333) rotate(4.000000) translate(-31.828514, -160.962333) translate(3.467944, 117.018457)"><polygon id="Rectangle-22" fill="url(#linearGradient-12)" opacity="0.622735507" points="14.0957654 9.21286847 42.5682407 9.21286847 56.4855546 87.8315504 0.178451438 87.8315504"></polygon><polygon id="Rectangle-22-Copy" fill="url(#linearGradient-13)" opacity="0.622735507" points="20.0604464 6.77433212 36.6035596 6.77433212 44.6898148 79.7893423 11.9741912 79.7893423"></polygon><rect id="Rectangle-21" fill="#1D8192" x="15.9061044" y="0.813465471" width="24.6761452" height="9.48319693"></rect><path d="M19.8555345,10.2758721 L14.0393755,14.5249484 C13.1938265,15.1426761 12.0076063,14.9579904 11.3898786,14.1124413 C11.118155,13.7405046 10.991119,13.2823713 11.0324991,12.8236139 L11.799077,4.3249893 C12.0200178,1.87554036 14.1847965,0.068977627 16.6342454,0.289918491 C16.8440313,0.30884122 17.0522101,0.342624716 17.257214,0.391014513 L19.8555345,10.2758721 Z M36.7859197,10.2758721 L39.3842402,0.391014513 C39.5892441,0.342624716 39.7974229,0.30884122 40.0072088,0.289918491 C42.4566577,0.068977627 44.6214363,1.87554036 44.8423772,4.3249893 L45.6089551,12.8236139 C45.6503352,13.2823713 45.5232992,13.7405046 45.2515756,14.1124413 C44.6338479,14.9579904 43.4476277,15.1426761 42.6020787,14.5249484 L36.7859197,10.2758721 Z" id="Combined-Shape" fill="url(#linearGradient-14)"></path></g><g id="Group-99" transform="translate(1.806756, 53.234867)"><mask id="mask-31" fill="white"><use xlink:href="#path-30"></use></mask><use id="Oval-42-Copy" fill="url(#linearGradient-15)" xlink:href="#path-30"></use><path d="M54.8186772,13.9441991 C62.1011059,19.795354 65.8157015,25.0498008 65.962464,29.7075397 C66.1092265,34.3652786 69.4164647,32.3705575 75.8841785,23.7233764 L64.3165693,10.4133719 L54.8186772,13.9441991 Z" id="Path-160" stroke="#0D6574" stroke-width="0.812592" fill-opacity="0.280000001" fill="#0D6574" stroke-linecap="round" stroke-linejoin="round" mask="url(#mask-31)"></path><path d="M1.84208466,47.0032042 C8.34390566,55.6663681 18.6973509,61.2703185 30.3589945,61.2703185 C50.0418406,61.2703185 65.99794,45.3059941 65.99794,25.613002 C65.99794,21.6464389 65.3506006,17.831148 64.1558553,14.2671143 C68.6279884,20.2258791 71.2778909,27.6319793 71.2778909,35.6573165 C71.2778909,55.3503086 55.3217915,71.314633 35.6389455,71.314633 C19.9206189,71.314633 6.57895029,61.1337049 1.84208466,47.0032042 Z" id="Combined-Shape" fill="#0D6574" opacity="0.200000003" mask="url(#mask-31)"></path><path d="M11.7173304,9.2257111 C18.0416133,3.49258779 26.4326207,0 35.6389455,0 C48.7010217,0 60.1218338,7.03070996 66.3272015,17.5161074 C59.882323,22.5877666 51.7529311,25.613002 42.9173217,25.613002 C29.9790948,25.613002 18.5551787,19.1261249 11.7173304,9.2257111 Z" id="Combined-Shape" fill="#0D6574" opacity="0.200000003" mask="url(#mask-31)"></path></g><ellipse id="Oval-45" fill="url(#linearGradient-18)" cx="35.6888519" cy="81.6100553" rx="10.2901181" ry="10.2954224"></ellipse><path d="M26.6700718,86.5711874 C28.4434602,88.0219093 30.7096842,88.8921834 33.179067,88.8921834 C38.8621422,88.8921834 43.469185,84.2827658 43.469185,78.596761 C43.469185,76.7980331 43.0081448,75.1070423 42.197847,73.6356289 C44.5057619,75.5236206 45.9789699,78.3947062 45.9789699,81.6100553 C45.9789699,87.2960601 41.3719271,91.9054777 35.6888519,91.9054777 C31.8035778,91.9054777 28.4212272,89.7510965 26.6700718,86.5711874 Z" id="Combined-Shape" fill="#0D6574" opacity="0.200000003"></path><g id="Group-98" transform="translate(56.186677, 94.298467) rotate(30.000000) translate(-56.186677, -94.298467) translate(35.066873, 86.360632)"><mask id="mask-33" fill="white"><use xlink:href="#path-32"></use></mask><use id="Path-155" fill="#87E3D6" fill-rule="nonzero" xlink:href="#path-32"></use><path d="M0.0418866644,8.92958889 C9.42349508,12.6710915 17.8686161,13.5142361 25.2091695,11.4113212 C25.7737893,11.2495694 25.1074659,8.76652123 25.0087461,7.34647368 C26.5333894,6.95810119 27.9873299,6.40427259 29.3737922,5.68590303 C32.6001418,5.51779562 36.0533869,5.66164249 38.2653657,3.36976658 C39.109572,2.49506738 39.4460882,1.31694329 39.2812918,0.200379167 C39.7901582,0.373443596 40.2698404,0.658785057 40.682089,1.05707257 C42.1777606,2.50209214 42.2194257,4.88661835 40.7751506,6.38306093 C31.0909388,16.4170683 18.026333,18.1711118 2.3607404,11.8663894 C1.07734599,11.3498787 0.234063831,10.2058725 0.0418866644,8.92958889 Z" id="Combined-Shape" fill="#0D6574" fill-rule="nonzero" opacity="0.200000003" mask="url(#mask-33)"></path><path d="M7.56059574,4.51994153 C5.301906,7.52600272 4.54900942,10.8713133 5.301906,14.5558733" id="Path-158" stroke="#F8FAFC" stroke-width="0.812592" opacity="0.699999988" mask="url(#mask-33)"></path><path d="M14.5879934,5.52437298 C12.3293037,8.53043417 11.5764071,11.8757448 12.3293037,15.5603048" id="Path-158-Copy" stroke="#F8FAFC" stroke-width="0.812592" opacity="0.699999988" mask="url(#mask-33)"></path><path d="M22.1173481,7.53323588 C19.8586584,10.5392971 19.1057618,13.8846077 19.8586584,17.5691677" id="Path-158-Copy-3" stroke="#F8FAFC" stroke-width="0.812592" opacity="0.699999988" mask="url(#mask-33)" transform="translate(20.846835, 12.551202) rotate(-16.000000) translate(-20.846835, -12.551202) "></path><path d="M28.8498826,5.14441193 C26.5911929,8.15047312 25.8382963,11.4957837 26.5911929,15.1803437" id="Path-158-Copy-2" stroke="#F8FAFC" stroke-width="0.812592" opacity="0.699999988" mask="url(#mask-33)" transform="translate(27.579370, 10.162378) rotate(-21.000000) translate(-27.579370, -10.162378) "></path></g><g id="Group-102" transform="translate(110.939335, 107.560202) rotate(35.000000) translate(-110.939335, -107.560202) translate(98.003455, 96.447234)"><path d="M0.351102058,12.7678755 C4.42932416,10.0223844 5.80682081,7.17544547 4.483592,4.22705855 C4.36770128,3.96883361 4.2677897,3.72452169 4.18385726,3.49412279 C3.60092397,1.89394078 4.46078251,1.0036851 6.76343289,0.823355752 L9.83435692,5.21900642 L19.8340674,0.350710049 C23.6267053,2.50723054 25.5230243,5.22157827 25.5230243,8.49375327 C25.5230243,13.4020158 20.3346526,20.2038021 14.4506771,20.8533258 C10.5280268,21.2863416 8.77586925,21.581007 9.19420444,21.7373219 L0.351102058,12.7678755 Z" id="Path-157" fill="url(#linearGradient-21)"></path><path d="M3.2551608,9.34505442 C7.91814813,12.0406524 11.319918,15.9139713 13.4604703,20.965011 C10.2349704,21.3374001 8.81288177,21.5948371 9.19420444,21.7373219 L0.351102058,12.7678755 L3.2551608,9.34505442 Z" id="Combined-Shape" fill="#0D6574" opacity="0.200000003"></path></g><g id="Group-101" transform="translate(84.183160, 105.168586) rotate(47.000000) translate(-84.183160, -105.168586) translate(63.327353, 87.440756)"><path d="M0.135976818,23.9170572 C0.648245214,30.3083949 2.69152578,34.0563403 6.26581851,35.1608933 C16.8571124,33.3811057 38.5424515,23.9170572 41.5862692,16.6426567 C41.5862692,10.258771 36.4333788,2.57699415 28.2987388,0.521482313 C22.0770363,0.712750484 12.689449,8.51127545 0.135976818,23.9170572 Z" id="Path-156" fill="url(#linearGradient-18)"></path><path d="M41.0609841,12.9743273 C41.4064566,14.2123038 41.5862692,15.4501255 41.5862692,16.6426567 C38.5424515,23.9170572 16.8571124,33.3811057 6.26581851,35.1608933 C5.52212328,34.9310713 4.84470895,34.5868111 4.23357552,34.1281126 C15.2015505,32.0154075 37.1242058,21.3946955 41.0609841,12.9743273 Z" id="Combined-Shape" fill="#0D6574" opacity="0.200000003"></path></g><g id="Group-96" transform="translate(12.849809, 0.000000)"><g id="Group-94"><mask id="mask-35" fill="white"><use xlink:href="#path-34"></use></mask><use id="Oval-42" fill="url(#linearGradient-15)" xlink:href="#path-34"></use><path d="M49.99589,72.3616688 C36.4356548,69.8469112 30.019349,38.1423239 41.8132797,27.1488148 C53.6072104,16.1553058 66.3814549,36.1343611 72.0587722,23.7631539 C75.8436504,15.5156825 78.4174124,15.5156825 79.7800584,23.7631539 L66.4370159,69.8469112 C58.1960957,75.853247 52.7157204,76.6914995 49.99589,72.3616688 Z" id="Path-151" fill="#0D6574" mask="url(#mask-35)"></path><path d="M48.4535066,74.4530276 C33.5054519,71.6808977 26.4324707,36.7315112 39.4334488,24.6128738 C52.4344268,12.4942364 66.5160486,34.5180438 72.7744097,20.8807081 C76.9466505,11.789151 79.7838237,11.789151 81.2859293,20.8807081 L66.577296,71.6808977 C57.4929605,78.3019507 51.4516974,79.225994 48.4535066,74.4530276 Z" id="Path-151-Copy" stroke="#0D6574" stroke-width="0.812592" stroke-linecap="round" stroke-linejoin="round" mask="url(#mask-35)"></path></g><g id="Rectangle-46" stroke-linecap="round" stroke-linejoin="round"><use fill="black" fill-opacity="1" filter="url(#filter-37)" xlink:href="#path-36"></use><use stroke="#A8FFA2" stroke-width="0.812592" xlink:href="#path-36"></use></g><g id="Path-152" stroke-linecap="round" stroke-linejoin="round"><use fill="black" fill-opacity="1" filter="url(#filter-39)" xlink:href="#path-38"></use><use stroke="#A8FFA2" stroke-width="0.812592" xlink:href="#path-38"></use></g><g id="Group-95" transform="translate(13.050881, 33.648454)" stroke-linecap="round" stroke-linejoin="round"><path d="M0.106149516,0 C5.82646976,0.0522869137 9.37270555,0.923276818 10.7448569,2.61296971 C12.8030839,5.14750905 10.0646761,13.3854499 11.5223035,16.0101154 C3.10347943,16.7095675 -0.701905235,11.3728624 0.106149516,0 Z" id="Path-153" stroke="#70C9AC" stroke-width="0.55" fill="url(#linearGradient-28)"></path><path d="M2.50978489,2.51107863 C5.4285281,2.57424247 7.16212786,3.23356773 7.71058417,4.48905441 C8.53326863,6.37228442 8.13937347,11.7797411 8.53326863,12.5553931" id="Path-154" stroke="#0D6574" stroke-width="0.812592"></path></g></g></g></g><g id="Group-93" transform="translate(421.000000, 95.000000)"><g id="Group-90" transform="translate(33.255867, 82.553476)"><mask id="mask-41" fill="white"><use xlink:href="#path-40"></use></mask><use id="Path-143" fill="#83E1D4" fill-rule="nonzero" xlink:href="#path-40"></use><path d="M10.0319068,18.5216132 C14.2039915,19.3993685 16.4043858,22.1910444 16.6330898,26.8966409" id="Path-145" stroke="#F8FAFC" stroke-width="0.85536" opacity="0.699999988" mask="url(#mask-41)"></path><path d="M17.4451963,8.35747384 C21.6172811,9.23522915 23.8176754,12.0269051 24.0463794,16.7325016" id="Path-145-Copy" stroke="#F8FAFC" stroke-width="0.85536" opacity="0.699999988" mask="url(#mask-41)" transform="translate(20.745788, 12.544988) rotate(-8.000000) translate(-20.745788, -12.544988) "></path><path d="M13.7492307,13.1201744 C17.9213154,13.9979297 20.1217098,16.7896056 20.3504138,21.4952021" id="Path-145-Copy-3" stroke="#F8FAFC" stroke-width="0.85536" opacity="0.699999988" mask="url(#mask-41)" transform="translate(17.049822, 17.307688) rotate(-8.000000) translate(-17.049822, -17.307688) "></path><path d="M19.3658549,2.57104425 C23.5379396,3.44879956 25.738334,6.24047547 25.9670379,10.946072" id="Path-145-Copy-2" stroke="#F8FAFC" stroke-width="0.85536" opacity="0.699999988" mask="url(#mask-41)" transform="translate(22.666446, 6.758558) rotate(-24.000000) translate(-22.666446, -6.758558) "></path></g><g id="Group-91" transform="translate(20.583985, 96.841578)"><path d="M33.3344496,5.08736396 L33.3344496,5.08736396 C35.2763857,8.85158773 34.163212,13.4705423 30.7197058,15.9368679 L16.1420408,26.3777575 C11.8117616,29.4792122 5.78715093,28.4830531 2.68569624,24.1527738 C1.99112217,23.1830032 1.48248075,22.0927946 1.18558908,20.9374835 L1.18558908,20.9374835 C-0.758183265,13.3735745 3.73588182,5.65143911 11.2726443,3.60493403 L22.8349633,0.46534394 C26.9867871,-0.662027189 31.3620061,1.26400512 33.3344496,5.08736396 Z" id="Path-144" fill="url(#linearGradient-18)"></path><path d="M9.15228293,27.5324796 C12.5057248,27.5324796 14.6780884,23.2544338 14.6780884,18.1398316 C14.6780884,13.0252293 11.0975502,9.08083915 7.74410837,9.08083915 C4.39066654,9.08083915 1.772823,13.8983427 1.772823,19.012945 C1.772823,24.1275472 5.7988411,27.5324796 9.15228293,27.5324796 Z" id="Oval-44" fill-opacity="0.479999989" fill="#0D6574" opacity="0.535212862" transform="translate(8.225456, 18.306659) rotate(-12.000000) translate(-8.225456, -18.306659) "></path></g><g id="Group-89" transform="translate(71.799509, 125.946970)"><polygon id="Rectangle-22" fill="url(#linearGradient-12)" opacity="0.622735507" points="5.49685557 10.2368662 39.0424405 10.2368662 66.5423888 93.0780349 0.202715467 93.0780349"></polygon><polygon id="Rectangle-22-Copy" fill="url(#linearGradient-13)" opacity="0.622735507" points="11.0691391 7.66735987 30.0926701 7.66735987 49.6230831 84.6038923 13.5881219 84.6038923"></polygon><polygon id="Rectangle-21" fill="#1D8192" points="5.64330802 1.38634438 31.5994839 1.38634438 31.5994839 11.378869 5.64330802 11.378869"></polygon><path d="M9.79760769,11.3569621 L3.68334877,15.8316129 C2.7938375,16.4825916 1.54502365,16.2892228 0.89404495,15.3997115 C0.607421135,15.0080626 0.473325337,14.525394 0.516849595,14.0420228 L1.32402948,5.07765347 C1.5559232,2.50229075 3.83165419,0.60253377 6.40701691,0.834427493 C6.62843636,0.854364793 6.8481546,0.890047322 7.06450394,0.941204241 L9.79760769,11.3569621 Z M27.606226,11.3569621 L30.3393298,0.941204241 C30.5556791,0.890047322 30.7753974,0.854364793 30.9968168,0.834427493 C33.5721795,0.60253377 35.8479105,2.50229075 36.0798042,5.07765347 L36.8869841,14.0420228 C36.9305084,14.525394 36.7964126,15.0080626 36.5097888,15.3997115 C35.8588101,16.2892228 34.6099962,16.4825916 33.720485,15.8316129 L27.606226,11.3569621 Z" id="Combined-Shape" fill="url(#linearGradient-14)"></path><path d="M35.3578211,16.1550744 L39.2909196,15.1750467 C40.5370147,14.8645477 41.3789201,13.7024165 41.2856446,12.4216111 C40.7330871,4.83420893 40.1290503,0.794892838 39.4735341,0.30366288 C38.7568111,-0.233434147 36.5722871,0.552148203 32.9199622,2.66040993 L35.3578211,16.1550744 Z" id="Path-142" fill="url(#linearGradient-42)"></path><path d="M18.6213959,10.2368662 C12.3279234,10.2368662 6.41078169,8.62408857 1.25998533,5.78891429 L1.32360212,5.08239959 C1.55576942,2.50399859 3.8322231,0.602177222 6.40820372,0.834562664 C6.6292184,0.854500932 6.84853774,0.890137917 7.06450394,0.941204241 L7.18130909,1.38634438 L30.2225246,1.38634438 L30.3393298,0.941204241 C30.555296,0.890137917 30.7746153,0.854500932 30.99563,0.834562664 C33.5716106,0.602177222 39.7755826,-1.19205662 40.0077499,1.38634438 L40.3643199,3.48087926 L36.1362018,5.70399294 C30.9496258,8.59186169 24.9774362,10.2368662 18.6213959,10.2368662 Z" id="Combined-Shape" fill="#094F5B" opacity="0.200000003"></path></g><g id="Group-61" transform="translate(72.855499, 20.109180)"><mask id="mask-44" fill="white"><use xlink:href="#path-43"></use></mask><use id="Path-59" fill="#87E3D6" fill-rule="nonzero" xlink:href="#path-43"></use><path d="M-0.685022939,1.19697534 C1.04469396,0.915996097 2.84113429,1.72415149 3.74104672,3.34587123 C8.08623482,11.1762746 14.284499,14.431662 23.0823764,13.5197082 C25.4327519,13.2760774 27.5354241,14.9857216 27.7788262,17.3383055 C27.9198862,18.7017101 27.4055335,19.9818428 26.4905765,20.8647284 C26.4097706,20.877784 26.328118,20.8886194 26.2456751,20.8971651 C14.0298021,22.1634152 4.54652288,17.1827065 -1.45762549,6.3627138 C-2.42082383,4.6269474 -2.05076447,2.51096524 -0.685022939,1.19697534 Z" id="Combined-Shape" fill-opacity="0.479999989" fill="#0D6574" fill-rule="nonzero" opacity="0.300000012" mask="url(#mask-44)"></path><path d="M1.98474441,1.9662708 C5.88841075,2.15918384 7.97942816,4.38349132 8.25779663,8.63919324" id="Path-18-Copy-6" stroke="#F8FAFC" stroke-width="0.85536" opacity="0.699999988" mask="url(#mask-44)" transform="translate(5.121271, 5.302732) rotate(-68.000000) translate(-5.121271, -5.302732) "></path><path d="M4.90620774,6.18818887 C9.30064638,6.4053551 11.6545483,8.90930443 11.9679135,13.7000369" id="Path-18-Copy-9" stroke="#F8FAFC" stroke-width="0.85536" opacity="0.699999988" mask="url(#mask-44)" transform="translate(8.437061, 9.944113) rotate(-92.000000) translate(-8.437061, -9.944113) "></path><path d="M9.27928583,9.7659497 C13.6737245,9.98311593 16.0276264,12.4870653 16.3409916,17.2777977" id="Path-18-Copy-11" stroke="#F8FAFC" stroke-width="0.85536" opacity="0.699999988" mask="url(#mask-44)" transform="translate(12.810139, 13.521874) rotate(-105.000000) translate(-12.810139, -13.521874) "></path><path d="M14.6108104,13.0945959 C19.0052491,13.3117622 21.359151,15.8157115 21.6725162,20.6064439" id="Path-18-Copy-10" stroke="#F8FAFC" stroke-width="0.85536" opacity="0.699999988" mask="url(#mask-44)" transform="translate(18.141663, 16.850520) rotate(-131.000000) translate(-18.141663, -16.850520) "></path></g><g id="Group-59-Copy-2" transform="translate(60.447615, 83.876448) scale(-1, 1) translate(-60.447615, -83.876448) translate(49.623715, 73.028075)" fill="url(#linearGradient-18)"><ellipse id="Oval-23" cx="10.6962263" cy="10.7062764" rx="10.6962263" ry="10.7062764"></ellipse></g><g id="Group-57" transform="translate(90.716112, 97.879881) rotate(-7.000000) translate(-90.716112, -97.879881) translate(54.548448, 61.630438)"><mask id="mask-47" fill="white"><use xlink:href="#path-46"></use></mask><use id="Oval-12-Copy" fill="url(#linearGradient-45)" xlink:href="#path-46"></use><path d="M5.93017933,13.6253088 C12.3824365,3.82318781 23.4774223,-2.64594474 36.0819367,-2.64594474 C48.6864511,-2.64594474 59.781437,3.82318781 66.2336941,13.6253088 C59.781437,23.4274298 48.6864511,29.8965623 36.0819367,29.8965623 C23.4774223,29.8965623 12.3824365,23.4274298 5.93017933,13.6253088 Z" id="Combined-Shape" fill="#0D6574" opacity="0.300000012" mask="url(#mask-47)"></path><path d="M2.17982024,48.50734 C9.98091707,55.1147203 20.0708297,59.0986458 31.0903645,59.0986458 C49.3176975,59.0986458 65.0015629,48.1985341 71.9907455,32.5553058 C72.1052622,33.7266424 72.1638735,34.9143896 72.1638735,36.1158391 C72.1638735,56.0620662 56.0094401,72.2316782 36.0819367,72.2316782 C20.5036937,72.2316782 7.23127396,62.3499986 2.17982024,48.50734 Z" id="Combined-Shape" fill="#06272C" opacity="0.143399004" mask="url(#mask-47)"></path><path d="M40.1303622,16.092069 C32.2876901,17.0976485 28.366354,21.3754468 28.366354,28.9254638 C28.366354,38.2222137 14.8469511,33.6968417 14.7844938,25.8615934 C14.7220365,18.026345 21.8673093,12.3018492 26.6086357,9.32059458 L40.1303622,16.092069 Z" id="Path-12" stroke="#0D6574" stroke-width="0.85536" fill-opacity="0.280000001" fill="#0D6574" stroke-linecap="round" stroke-linejoin="round" mask="url(#mask-47)"></path><path d="M36.3380963,55.5648396 C31.7276838,58.2694061 29.4224775,64.0612576 29.4224775,72.9403943 C29.4224775,82.2371442 15.9030746,85.343617 15.8406173,77.5083687 C15.77816,69.6731204 19.5502686,61.7683432 24.291595,58.7870886 L36.3380963,55.5648396 Z" id="Path-12-Copy" stroke="#0D6574" stroke-width="0.85536" fill-opacity="0.280000001" fill="#0D6574" stroke-linecap="round" stroke-linejoin="round" mask="url(#mask-47)" transform="translate(26.088975, 68.764819) scale(1, -1) translate(-26.088975, -68.764819) "></path></g><g id="Group-88" transform="translate(87.435391, 48.817416) rotate(14.000000) translate(-87.435391, -48.817416) translate(47.043766, 8.599056)"><g id="Group-56" transform="translate(40.514599, 40.254828) rotate(-6.000000) translate(-40.514599, -40.254828) translate(4.082937, 4.005385)"><g id="Group-53" transform="translate(0.097000, 0.000000)"><mask id="mask-49" fill="white"><use xlink:href="#path-48"></use></mask><use id="Oval-12" fill="url(#linearGradient-15)" xlink:href="#path-48"></use><path d="M61.5941651,70.5974929 C81.5216685,70.5974929 97.6761019,54.4278809 97.6761019,34.4816538 C97.6761019,14.5354266 81.5216685,-1.6341853 61.5941651,-1.6341853 C41.6666617,-1.6341853 25.5122284,14.5354266 25.5122284,34.4816538 C25.5122284,54.4278809 41.6666617,70.5974929 61.5941651,70.5974929 Z" id="Oval-12-Copy-8" stroke="#0D6574" stroke-width="0.85536" opacity="0.5" stroke-linecap="round" stroke-linejoin="round" stroke-dasharray="1.425600004196167,3.991679644584656" mask="url(#mask-49)"></path><g id="Group-55" mask="url(#mask-49)"><g transform="translate(18.540126, 38.257094)"><g id="Group-54"><g id="Oval-17" opacity="0.300000012"><use fill="black" fill-opacity="1" filter="url(#filter-51)" xlink:href="#path-50"></use><use fill="#AFFFAA" fill-rule="evenodd" xlink:href="#path-50"></use></g><g id="Rectangle-6" stroke-linecap="round" stroke-linejoin="round"><use fill="black" fill-opacity="1" filter="url(#filter-53)" xlink:href="#path-52"></use><use stroke="#A8FFA2" stroke-width="0.85536" xlink:href="#path-52"></use></g></g><g id="Group-54-Copy" transform="translate(25.385710, 0.000000)"><g id="Oval-17" opacity="0.300000012"><use fill="black" fill-opacity="1" filter="url(#filter-55)" xlink:href="#path-54"></use><use fill="#AFFFAA" fill-rule="evenodd" xlink:href="#path-54"></use></g><g id="Rectangle-6" stroke-linecap="round" stroke-linejoin="round"><use fill="black" fill-opacity="1" filter="url(#filter-57)" xlink:href="#path-56"></use><use stroke="#A8FFA2" stroke-width="0.85536" xlink:href="#path-56"></use></g></g></g></g><g id="Combined-Shape" mask="url(#mask-49)"><use fill="black" fill-opacity="1" filter="url(#filter-59)" xlink:href="#path-58"></use><use fill="#AFFFAA" fill-rule="evenodd" xlink:href="#path-58"></use></g><g id="Group-87" mask="url(#mask-49)"><g transform="translate(25.835018, 50.534970) rotate(8.000000) translate(-25.835018, -50.534970) translate(-6.900678, 23.281739)"><path d="M10.117737,52.8134053 C5.61001167,40.3205216 2.98456048,31.3175048 2.24138345,25.8043552 C-0.119209936,8.29263976 8.0875195,3.03476662 14.6514021,3.03476662 C17.0180424,3.03476662 19.6791585,4.29554804 21.6417319,5.53464464 C24.9071045,7.59628073 28.1724772,8.62709878 31.4378498,8.62709878 C34.7032225,8.62709878 38.9948908,7.14522017 42.2602635,5.08358406 C44.3168496,3.78513137 46.6527952,3.10064634 48.9568307,3.18157359 C62.1632916,3.64543907 62.9014161,21.063523 62.1632916,29.3725742 C61.6712086,34.9119417 59.0941385,42.9054496 54.4320814,53.353098 L10.117737,52.8134053 Z" id="Path-52" stroke="none" fill="#0D6574" fill-rule="evenodd"></path><g id="Rectangle-6" stroke="none" fill="none" stroke-linecap="round" stroke-linejoin="round"><use fill="black" fill-opacity="1" filter="url(#filter-61)" xlink:href="#path-60"></use><use stroke="#A8FFA2" stroke-width="0.85536" xlink:href="#path-60"></use></g><g id="Rectangle-6-Copy-2" stroke="none" fill="none" stroke-linecap="round" stroke-linejoin="round"><use fill="black" fill-opacity="1" filter="url(#filter-63)" xlink:href="#path-62"></use><use stroke="#A8FFA2" stroke-width="0.85536" xlink:href="#path-62"></use></g><g id="Oval-43" stroke="none" fill="none"><use fill="black" fill-opacity="1" filter="url(#filter-65)" xlink:href="#path-64"></use><use fill="#AFFFAA" fill-rule="evenodd" xlink:href="#path-64"></use></g><path d="M8.03774734,53.1020419 C4.13183494,41.6568901 1.77734903,32.9853849 0.974289623,27.0875263 C-1.57651142,8.35383932 6.60586522,0.78365575 13.6986405,0.78365575 C16.2559757,0.78365575 18.7550807,1.49179688 20.8757908,2.81735792 C24.4042748,5.02285547 27.8016786,6.2845321 31.3301626,6.2845321 C34.8586466,6.2845321 39.2417126,4.24712005 42.7701965,2.04162249 C44.9924945,0.652563458 47.5166618,-0.0796850963 50.0063478,0.00688927495 C64.2769351,0.5031234 65.7064377,19.0201618 64.9088379,27.9090206 C64.3771047,33.8349264 62.0303103,42.5994622 57.8684547,54.2026281 L8.03774734,53.1020419 Z" id="Path-52-Copy" stroke="#0D6574" stroke-width="0.85536" fill="none" stroke-linecap="round" stroke-linejoin="round"></path></g></g></g></g><g id="Group-11" transform="translate(72.707678, 41.343323) rotate(-1.000000) translate(-72.707678, -41.343323) translate(67.427727, 32.082516)"><path d="M9.34304678,0.659973702 C7.96845888,-0.910192334 0.984457869,0.347130702 0.109854326,4.15676667 C-0.764749217,7.96640265 3.91890904,12.693302 2.32671502,17.5254869 C2.96210367,17.9602287 3.76787376,18.1775996 4.74402528,18.1775996 C11.2931493,13.5029674 11.195384,2.77586381 9.34304678,0.659973702 Z" id="Path-6" stroke="#70C9AC" stroke-width="0.55" fill="url(#linearGradient-28)" stroke-linecap="round" stroke-linejoin="round"></path><path d="M2.48583224,5.23048338 C1.76963851,8.35011102 5.11753186,12.7303383 4.81945397,18.2656487 C4.18863903,18.4369992 3.35772605,18.1902786 2.32671502,17.5254869 C3.91890904,12.693302 -0.764749217,7.96640265 0.109854326,4.15676667 C0.984457869,0.347130702 7.96845888,-0.910192334 9.34304678,0.659973702 C9.44693246,0.778640378 9.54586155,0.917729284 9.63890794,1.07540109 C7.04802896,1.01778673 3.12671367,2.43890432 2.48583224,5.23048338 Z" id="Combined-Shape" fill="#0D6574" opacity="0.200000003"></path><path d="M8.41963448,2.62352019 C6.16111248,3.70302165 5.06049847,4.76449924 5.11779244,5.80795294 C5.2037334,7.37313351 6.81287097,9.46116742 5.9653317,12.4331759" id="Path-7" stroke="#0D6574" stroke-width="0.792" fill="url(#linearGradient-66)" stroke-linecap="round" stroke-linejoin="round"></path></g></g><g id="Group-59-Copy" transform="translate(120.111060, 85.993204) scale(-1, 1) translate(-120.111060, -85.993204) translate(109.287161, 75.144831)" fill="url(#linearGradient-18)"><ellipse id="Oval-23" cx="10.6962263" cy="10.7062764" rx="10.6962263" ry="10.7062764"></ellipse></g><g id="Group-92" transform="translate(68.103544, 87.316176)"><g id="Group-90" transform="translate(26.399755, 0.000000)"><mask id="mask-68" fill="white"><use xlink:href="#path-67"></use></mask><use id="Path-143" fill="#83E1D4" fill-rule="nonzero" xlink:href="#path-67"></use><path d="M10.0319068,18.5216132 C14.2039915,19.3993685 16.4043858,22.1910444 16.6330898,26.8966409" id="Path-145" stroke="#F8FAFC" stroke-width="0.85536" opacity="0.699999988" mask="url(#mask-68)"></path><path d="M17.4451963,8.35747384 C21.6172811,9.23522915 23.8176754,12.0269051 24.0463794,16.7325016" id="Path-145-Copy" stroke="#F8FAFC" stroke-width="0.85536" opacity="0.699999988" mask="url(#mask-68)" transform="translate(20.745788, 12.544988) rotate(-8.000000) translate(-20.745788, -12.544988) "></path><path d="M13.7492307,13.1201744 C17.9213154,13.9979297 20.1217098,16.7896056 20.3504138,21.4952021" id="Path-145-Copy-3" stroke="#F8FAFC" stroke-width="0.85536" opacity="0.699999988" mask="url(#mask-68)" transform="translate(17.049822, 17.307688) rotate(-8.000000) translate(-17.049822, -17.307688) "></path><path d="M19.3658549,2.57104425 C23.5379396,3.44879956 25.738334,6.24047547 25.9670379,10.946072" id="Path-145-Copy-2" stroke="#F8FAFC" stroke-width="0.85536" opacity="0.699999988" mask="url(#mask-68)" transform="translate(22.666446, 6.758558) rotate(-24.000000) translate(-22.666446, -6.758558) "></path></g><g id="Group-91" transform="translate(0.000000, 16.934046)"><path d="M39.4012536,5.97521446 L39.4012536,5.97521446 C41.224499,9.50936962 39.8375326,13.8524009 36.3033774,15.6756462 C36.252123,15.702088 36.2005527,15.7279131 36.1486777,15.7531158 L17.0939412,25.0105962 C11.3633318,27.7947336 4.46076564,25.4061461 1.67662826,19.6755366 C1.39429474,19.0944076 1.16128019,18.4905871 0.980042692,17.8704451 L0.980042692,17.8704451 C-0.844045816,11.6289444 2.73697435,5.09049239 8.97847509,3.26640388 C9.53531634,3.10366614 10.1034239,2.98230639 10.6781554,2.9033163 L28.7127136,0.424678492 C33.0918058,-0.177176196 37.3746665,2.04690417 39.4012536,5.97521446 Z" id="Path-144" fill="url(#linearGradient-18)"></path><path d="M9.47221502,24.7024424 C12.8256568,24.7024424 14.9980205,20.4243966 14.9980205,15.3097944 C14.9980205,10.1951921 11.4174823,6.25080194 8.06404046,6.25080194 C4.71059863,6.25080194 2.09275509,11.0683055 2.09275509,16.1829078 C2.09275509,21.29751 6.11877319,24.7024424 9.47221502,24.7024424 Z" id="Oval-44" fill-opacity="0.479999989" fill="#0D6574" opacity="0.535212862" transform="translate(8.545388, 15.476622) rotate(-12.000000) translate(-8.545388, -15.476622) "></path></g></g><g id="Group-92-Copy" transform="translate(19.000000, 82.553476)"></g><polygon id="Path-147" fill="#2A92A4" points="60.0821074 106.778909 30.6912062 105.04693 27.5246359 114.949315 60.0821074 118.057247 62.7242776 112.429679"></polygon><polygon id="Path-148" fill="#0D6574" points="27.793319 114.763049 37.4925613 123.067018 60.8053187 123.067018 59.7790991 117.967881"></polygon><path d="M73.3347608,114.241666 L60.0431374,107.031671 L60.0431374,112.693987 L49.0544879,112.693987 C51.7906343,120.659354 55.2803115,124.57163 59.5235196,124.430812 C63.7667278,124.289995 69.0236677,124.289995 75.2943393,124.430812 C76.3425956,121.306958 76.7475141,119.12518 76.5090947,117.88548 C76.2706752,116.645779 75.2125639,115.431175 73.3347608,114.241666 Z" id="Path-146" fill="url(#linearGradient-69)"></path><path d="M29.5181646,108.483734 C34.6271241,113.163335 37.3892909,116.394217 37.804665,118.176378 C38.220039,119.95854 37.6475808,121.193339 36.0872903,121.880776 C31.1845466,122.408643 27.9913612,121.173844 26.507734,118.176378 C25.0241069,115.178912 26.0275838,111.948031 29.5181646,108.483734 Z" id="Path-149" fill="url(#linearGradient-70)"></path><path d="M38.2230438,110.349661 L24.4782417,98.3714845 C24.1055658,98.0467088 24.0553729,97.485798 24.3644647,97.1000146 L24.3644647,97.1000146 C24.6737209,96.7140259 25.232142,96.6401366 25.6311446,96.9324098 L43.0961034,109.725652 C43.5662289,110.070024 43.6681728,110.730304 43.3238016,111.200429 C43.1592039,111.425133 42.9124355,111.575641 42.6373119,111.61913 L42.6373119,111.61913 C41.0505369,111.869953 39.4341572,111.405109 38.2230438,110.349661 Z" id="Path-150" fill="url(#linearGradient-71)"></path><circle id="Oval-10" stroke="#0D6574" cx="24.5" cy="96.5" r="5.5"></circle><circle id="Oval-10-Copy" stroke="#0D6574" cx="24" cy="97" r="14"></circle><circle id="Oval-10-Copy-2" stroke="#0D6574" cx="24" cy="97" r="24"></circle></g><path d="M1.39637942,286.901144 L142.213446,286.901144" id="Path-79-Copy-2" stroke="#0B4651" stroke-width="0.99"></path><path d="M499.983586,286.901144 L540.777506,286.901144" id="Path-79-Copy" stroke="#0B4651" stroke-width="0.99"></path><g id="Group-104" transform="translate(65.241657, 83.378342)" fill="#6AC264"><path d="M37.3133942,52.0475686 C34.139693,53.3584116 30.6619167,54.0815629 27.015398,54.0815629 C12.0952057,54.0815629 0,41.9749927 0,27.0407814 C0,12.1065702 12.0952057,-9.9475983e-14 27.015398,-9.9475983e-14 C41.9355903,-9.9475983e-14 54.0307959,12.1065702 54.0307959,27.0407814 C54.0307959,36.1986462 49.4826213,44.2932297 42.523869,49.1849267 L44.5235966,55.8656828 L37.3133942,52.0475686 Z M13.1998773,30.692959 C14.6578955,30.692959 15.8398528,29.5083292 15.8398528,28.0470143 C15.8398528,26.5856993 14.6578955,25.4010695 13.1998773,25.4010695 C11.7418591,25.4010695 10.5599019,26.5856993 10.5599019,28.0470143 C10.5599019,29.5083292 11.7418591,30.692959 13.1998773,30.692959 Z M26.9277497,30.692959 C28.3857679,30.692959 29.5677252,29.5083292 29.5677252,28.0470143 C29.5677252,26.5856993 28.3857679,25.4010695 26.9277497,25.4010695 C25.4697315,25.4010695 24.2877743,26.5856993 24.2877743,28.0470143 C24.2877743,29.5083292 25.4697315,30.692959 26.9277497,30.692959 Z M40.6556221,30.692959 C42.1136403,30.692959 43.2955976,29.5083292 43.2955976,28.0470143 C43.2955976,26.5856993 42.1136403,25.4010695 40.6556221,25.4010695 C39.1976039,25.4010695 38.0156467,26.5856993 38.0156467,28.0470143 C38.0156467,29.5083292 39.1976039,30.692959 40.6556221,30.692959 Z" id="Combined-Shape"></path></g><g id="Group-63" transform="translate(45.338384, 241.573529) scale(-1, 1) translate(-45.338384, -241.573529) translate(11.000000, 184.000000)"><path d="M17.379357,112.374729 C20.8855368,102.61174 20.8855368,96.3851453 17.379357,93.6949461 C12.1200873,89.6596471 -1.69718891,75.6268705 3.77182136,66.0783075 C9.24083164,56.5297444 16.7137015,71.2206004 20.1138621,66.0783075 C23.5140228,60.9360146 10.8482128,47.3620189 6.22998121,30.1730268 C1.61174963,12.9840347 10.5201875,2.6804791 22.350344,0.514835795 C34.1805005,-1.65080751 41.2553189,11.5761199 35.2762352,50.3672806 C41.4689982,47.8760509 43.8874154,29.5672387 48.85423,30.1730268 C53.8210445,30.778815 60.5800086,33.7544779 53.8210445,43.9808528 C47.0620804,54.2072277 33.4240191,72.7390172 43.6225318,68.5261257 C48.2191028,66.6273337 59.571722,58.7605065 64.6881668,62.0361022 C71.0020476,66.0783075 68.6374846,73.2219126 61.5775072,77.7619284 C47.8458997,86.592228 33.2999472,94.1320212 35.2762352,112.374729 C28.0807219,115.826604 22.1150958,115.826604 17.379357,112.374729 Z" id="Path-65" fill="#0D6574"></path><path d="M15.1144516,95.5539126 C19.0811555,94.8331899 21.3284152,93.9739942 21.8562309,92.9763254" id="Path-71" stroke="#6AC264" stroke-width="0.6386688" stroke-linecap="round" stroke-linejoin="round"></path><path d="M11.5978552,92.3507471 C15.5645591,91.6300244 17.8118189,90.7708287 18.3396345,89.7731599" id="Path-71-Copy" stroke="#6AC264" stroke-width="0.6386688" stroke-linecap="round" stroke-linejoin="round"></path><path d="M0.305546082,74.5246325 C4.27224994,73.8039098 6.51950971,72.9447141 7.04732538,71.9470453" id="Path-71-Copy-5" stroke="#6AC264" stroke-width="0.6386688" stroke-linecap="round" stroke-linejoin="round" transform="translate(3.676436, 73.235839) rotate(27.000000) translate(-3.676436, -73.235839) "></path><path d="M33.9761957,26.4798401 L37.5938923,22.5066848" id="Path-77" stroke="#6AC264" stroke-width="0.6386688" stroke-linecap="round" stroke-linejoin="round"></path><path d="M14.794761,32.5658546 L18.4124576,28.5926992" id="Path-77-Copy" stroke="#6AC264" stroke-width="0.6386688" stroke-linecap="round" stroke-linejoin="round"></path><path d="M44.2062942,78.3711209 L47.8239908,74.3979656" id="Path-77-Copy-7" stroke="#6AC264" stroke-width="0.6386688" stroke-linecap="round" stroke-linejoin="round"></path><path d="M9.67971177,18.4719264 L13.2974084,14.4987711" id="Path-77-Copy-2" stroke="#6AC264" stroke-width="0.6386688" stroke-linecap="round" stroke-linejoin="round"></path><path d="M33.9761957,36.4096531 L37.5938923,32.4364978" id="Path-77-Copy-3" stroke="#6AC264" stroke-width="0.6386688" stroke-linecap="round" stroke-linejoin="round"></path><path d="M41.329079,36.2802964 L45.2307285,39.9738656" id="Path-77-Copy-8" stroke="#6AC264" stroke-width="0.6386688" stroke-linecap="round" stroke-linejoin="round"></path><path d="M43.2472225,55.1789727 L47.148872,58.872542" id="Path-77-Copy-9" stroke="#6AC264" stroke-width="0.6386688" stroke-linecap="round" stroke-linejoin="round"></path><path d="M32.6974334,60.624354 L36.5990829,64.3179233" id="Path-77-Copy-10" stroke="#6AC264" stroke-width="0.6386688" stroke-linecap="round" stroke-linejoin="round"></path><path d="M52.8379399,62.2259368 L56.7395893,65.919506" id="Path-77-Copy-11" stroke="#6AC264" stroke-width="0.6386688" stroke-linecap="round" stroke-linejoin="round"></path><path d="M56.6742268,78.2417642 L60.5758763,81.9353334" id="Path-77-Copy-12" stroke="#6AC264" stroke-width="0.6386688" stroke-linecap="round" stroke-linejoin="round"></path><path d="M41.329079,89.7731599 L45.2307285,93.4667292" id="Path-77-Copy-14" stroke="#6AC264" stroke-width="0.6386688" stroke-linecap="round" stroke-linejoin="round"></path><path d="M64.3468007,71.5151167 L68.2484501,75.2086859" id="Path-77-Copy-13" stroke="#6AC264" stroke-width="0.6386688" stroke-linecap="round" stroke-linejoin="round"></path><path d="M33.9761957,48.2613654 L37.5938923,44.2882101" id="Path-77-Copy-6" stroke="#6AC264" stroke-width="0.6386688" stroke-linecap="round" stroke-linejoin="round"></path><path d="M64.6664913,66.1990921 L68.2841879,62.2259368" id="Path-77-Copy-5" stroke="#6AC264" stroke-width="0.6386688" stroke-linecap="round" stroke-linejoin="round"></path><path d="M28.8611465,16.5500272 L32.4788431,12.5768718" id="Path-77-Copy-4" stroke="#6AC264" stroke-width="0.6386688" stroke-linecap="round" stroke-linejoin="round"></path><path d="M17.0325951,44.2882101 L19.4723201,48.0242185" id="Path-78" stroke="#6AC264" stroke-width="0.6386688" stroke-linecap="round" stroke-linejoin="round"></path><path d="M31.4186711,75.9995483 L33.8583961,79.7355568" id="Path-78-Copy-3" stroke="#6AC264" stroke-width="0.6386688" stroke-linecap="round" stroke-linejoin="round"></path><path d="M16.0735233,70.554167 L18.5132483,74.2901754" id="Path-78-Copy" stroke="#6AC264" stroke-width="0.6386688" stroke-linecap="round" stroke-linejoin="round"></path><path d="M49.0016529,48.1320087 L51.4413779,51.8680171" id="Path-78-Copy-4" stroke="#6AC264" stroke-width="0.6386688" stroke-linecap="round" stroke-linejoin="round"></path><path d="M52.8379399,39.8037784 L55.2776648,43.5397868" id="Path-78-Copy-5" stroke="#6AC264" stroke-width="0.6386688" stroke-linecap="round" stroke-linejoin="round"></path><path d="M4.88435309,62.5462533 L7.32407807,66.2822617" id="Path-78-Copy-2" stroke="#6AC264" stroke-width="0.6386688" stroke-linecap="round" stroke-linejoin="round"></path></g><g id="Group-106" transform="translate(209.485483, 44.496032) rotate(-14.000000) translate(-209.485483, -44.496032) translate(140.846121, 20.153341)"><polygon id="Rectangle-50" fill="url(#linearGradient-72)" points="23.7597792 3.70432264 30.5901276 3.70432264 33.7916859 14.2881016 23.7597792 14.2881016"></polygon><polygon id="Rectangle-50-Copy" fill="url(#linearGradient-72)" transform="translate(106.919006, 8.996212) scale(-1, 1) translate(-106.919006, -8.996212) " points="101.903053 3.70432264 108.733401 3.70432264 111.93496 14.2881016 101.903053 14.2881016"></polygon><path d="M23.7597792,13.2297237 L111.93496,13.2297237 L111.93496,13.2297237 C111.93496,19.9517724 106.485662,25.4010695 99.7636138,25.4010695 L35.931125,25.4010695 C29.2090763,25.4010695 23.7597792,19.9517724 23.7597792,13.2297237 Z" id="Rectangle-49" fill="url(#linearGradient-15)"></path><path d="M44.6051837,13.2297237 L91.0895551,13.2297237 C91.9385232,14.9727731 92.3991412,16.8418091 92.3991412,18.7862077 C92.3991412,21.1302526 91.7297157,23.3647716 90.5174806,25.4010698 L45.1772552,25.4010695 C43.965023,23.3647716 43.2955976,21.1302526 43.2955976,18.7862077 C43.2955976,16.8418091 43.7562156,14.9727731 44.6051837,13.2297237 Z" id="Combined-Shape" fill="#0D6574" opacity="0.300000012"></path><path d="M54.2280077,25.1346916 C53.3654237,25.1346916 52.5705933,25.6021832 52.1514186,26.3560689 L44.4932707,40.1292489 C44.2969108,40.4824023 44.1938598,40.8797992 44.1938598,41.2838717 C44.1938598,42.5961002 45.2576312,43.6598717 46.5698598,43.6598717 L81.7329477,43.6598717 C82.1370201,43.6598717 82.534417,43.5568207 82.8875704,43.3604608 C84.0344389,42.7227803 84.4472173,41.2761174 83.8095368,40.1292489 L76.1513889,26.3560689 C75.7322142,25.6021832 74.9373837,25.1346916 74.0747998,25.1346916 L54.2280077,25.1346916 Z" id="Rectangle-51-Copy" stroke="#0D6574" stroke-width="1.584"></path><polygon id="Rectangle-52" fill="#2F8F83" points="64.4154013 30.692959 69.1673571 30.692959 69.1673571 40.2183601 64.4154013 40.2183601"></polygon><ellipse id="Oval-49" fill="url(#linearGradient-73)" cx="67.8473694" cy="18.7862077" rx="19.2718209" ry="13.4943182"></ellipse><ellipse id="Oval-49-Copy" fill="url(#linearGradient-74)" cx="67.5833718" cy="19.0508021" rx="15.8398528" ry="6.35026738"></ellipse><ellipse id="Oval-50" fill="#0D6574" cx="26.6637522" cy="0.793783422" rx="26.6637522" ry="1"></ellipse><ellipse id="Oval-50-Copy" fill="#0D6574" cx="110.614972" cy="0.793783422" rx="26.6637522" ry="1"></ellipse><path d="M58.9799635,29.3682032 C58.1173796,29.3682032 57.3225491,29.8356948 56.9033744,30.5895805 L49.2452265,44.3627605 C49.0488666,44.7159139 48.9458156,45.1133108 48.9458156,45.5173832 C48.9458156,46.8296118 50.0095871,47.8933832 51.3218156,47.8933832 L86.4849035,47.8933832 C86.8889759,47.8933832 87.2863728,47.7903323 87.6395262,47.5939724 C88.7863947,46.9562918 89.1991731,45.509629 88.5614926,44.3627605 L80.9033447,30.5895805 C80.4841701,29.8356948 79.6893396,29.3682032 78.8267556,29.3682032 L58.9799635,29.3682032 Z" id="Rectangle-51" stroke="#45BF93" stroke-width="1.584"></path><ellipse id="Oval-51" fill="url(#linearGradient-73)" cx="67.0553768" cy="40.2183601" rx="5.80794602" ry="5.82107843"></ellipse><ellipse id="Oval-51-Copy" fill="#156573" cx="67.0553768" cy="40.2183601" rx="3.16797056" ry="3.17513369"></ellipse></g><path d="M272.703998,28.5762032 L342.253138,28.5762032" id="Path-165" stroke="#0D6574" stroke-width="1.056"></path><path d="M277.455954,43.9226827 L330.258103,43.9226827" id="Path-165-Copy" stroke="#0D6574" stroke-width="1.056"></path><path d="M263.728081,59.2691622 L292.244705,59.2691622" id="Path-165-Copy-2" stroke="#0D6574" stroke-width="1.056"></path><path d="M438.561868,62.3575083 C446.204326,57.2821656 445.504408,54.1619703 450.244818,53.3620254 C454.985229,52.5620805 456.261331,56.4507194 463.509878,54.8890297 C470.758425,53.32734 470.63708,34.2174975 491.589466,34.5316413 C512.541852,34.8457852 511.745454,59.0756831 518.135862,59.0756831 C524.526269,59.0756831 524.22367,53.3620254 533.804331,53.3620254 C543.384991,53.3620254 547.644634,70.1485614 568,70.1485614 L412.156566,70.1485614 C424.665129,68.3380878 433.466896,65.7410701 438.561868,62.3575083 Z" id="Path-72-Copy-3" fill="#33BAAA" opacity="0.200000003"></path></g></g></g></g></svg> 