<?xml version="1.0" encoding="UTF-8"?> <svg xmlns="http://www.w3.org/2000/svg" xmlns:xlink="http://www.w3.org/1999/xlink" width="1600px" height="721px" viewBox="0 0 1600 721"><!-- Generator: Sketch 52.6 (67491) - http://www.bohemiancoding.com/sketch --><title>bottom-hex-bg</title><desc>Created with Sketch.</desc><defs><linearGradient x1="50%" y1="0%" x2="50%" y2="100%" id="linearGradient-1"><stop stop-color="#F7FBFA" offset="0%"></stop><stop stop-color="#EDF5F4" offset="100%"></stop></linearGradient><linearGradient x1="34.723648%" y1="9.66465956%" x2="19.6657453%" y2="86.1596355%" id="linearGradient-2"><stop stop-color="#1E9EAC" stop-opacity="0" offset="0%"></stop><stop stop-color="#86D39C" offset="100%"></stop></linearGradient><linearGradient x1="-11.0518587%" y1="-14.4074383%" x2="50%" y2="111.203462%" id="linearGradient-3"><stop stop-color="#1E9EAC" stop-opacity="0" offset="0%"></stop><stop stop-color="#86D39C" offset="100%"></stop></linearGradient></defs><g id="Home" stroke="none" stroke-width="1" fill="none" fill-rule="evenodd"><g id="Home---Approach-v3" transform="translate(0.000000, -5152.000000)"><g id="bottom-hex-bg" transform="translate(-60.000000, 5145.000000)"><g id="right-bg-ornament-bottom" transform="translate(1347.000000, 0.000000)"><path d="M262.653946,14.6422446 L450.153946,123.786981 C465.537186,132.741646 475,149.199284 475,166.999005 L475,386.000995 C475,403.800716 465.537186,420.258354 450.153946,429.213019 L262.653946,538.357755 C247.105839,547.408391 227.894161,547.408391 212.346054,538.357755 L24.8460536,429.213019 C9.4628144,420.258354 1.53791522e-13,403.800716 1.27897692e-13,386.000995 L1.42108547e-14,166.999005 C-1.16829745e-14,149.199284 9.4628144,132.741646 24.8460536,123.786981 L212.346054,14.6422446 C227.894161,5.59160935 247.105839,5.59160935 262.653946,14.6422446 Z" id="Ornament-1-Line-Copy-2" fill="url(#linearGradient-1)"></path><path d="M350.085904,393.549825 L450.085904,451.549825 C465.507529,460.494367 475,476.973559 475,494.801384 L475,611.198616 C475,629.026441 465.507529,645.505633 450.085904,654.450175 L350.085904,712.450175 C334.572248,721.448096 315.427752,721.448096 299.914096,712.450175 L199.914096,654.450175 C184.492471,645.505633 175,629.026441 175,611.198616 L175,494.801384 C175,476.973559 184.492471,460.494367 199.914096,451.549825 L299.914096,393.549825 C315.427752,384.551904 334.572248,384.551904 350.085904,393.549825 Z" id="Ornament-1-Line-Copy-5" stroke="url(#linearGradient-2)" stroke-width="20"></path></g><g id="left-bg-ornament-copy" transform="translate(0.000000, 199.000000)"><rect id="Rectangle" fill="#FFFFFF" opacity="0" x="0" y="0" width="254" height="327"></rect><path d="M94.536338,25.8226083 L140.036338,52.2195549 C146.203873,55.797667 150,62.3887182 150,69.5190323 L150,122.480968 C150,129.611282 146.203873,136.202333 140.036338,139.780445 L94.536338,166.177392 C88.3298738,169.778088 80.6701262,169.778088 74.463662,166.177392 L28.963662,139.780445 C22.7961266,136.202333 19,129.611282 19,122.480968 L19,69.5190323 C19,62.3887182 22.7961266,55.797667 28.963662,52.2195549 L74.463662,25.8226083 C80.6701262,22.2219115 88.3298738,22.2219115 94.536338,25.8226083 Z" id="Ornament-1-Line-Copy-2" fill="url(#linearGradient-1)"></path><path d="M193.012669,193.347218 L222.512669,210.417443 C227.146544,213.098843 230,218.046745 230,223.400502 L230,257.599498 C230,262.953255 227.146544,267.901157 222.512669,270.582557 L193.012669,287.652782 C188.365218,290.342037 182.634782,290.342037 177.987331,287.652782 L148.487331,270.582557 C143.853456,267.901157 141,262.953255 141,257.599498 L141,223.400502 C141,218.046745 143.853456,213.098843 148.487331,210.417443 L177.987331,193.347218 C182.634782,190.657963 188.365218,190.657963 193.012669,193.347218 Z" id="Ornament-1-Line-Copy-3" stroke="url(#linearGradient-3)" stroke-width="4"></path></g></g></g></g></svg> 