<?xml version="1.0" encoding="UTF-8"?> <svg xmlns="http://www.w3.org/2000/svg" xmlns:xlink="http://www.w3.org/1999/xlink" width="51px" height="51px" viewBox="0 0 51 51"><!-- Generator: Sketch 52.6 (67491) - http://www.bohemiancoding.com/sketch --><title>Branding</title><desc>Created with Sketch.</desc><defs><radialGradient cx="10.1475267%" cy="12.3100204%" fx="10.1475267%" fy="12.3100204%" r="99.9669394%" id="radialGradient-1"><stop stop-color="#7ECC79" offset="0%"></stop><stop stop-color="#28AD9D" offset="100%"></stop></radialGradient><circle id="path-2" cx="25.5" cy="25.5" r="25.5"></circle></defs><g id="Illustrations" stroke="none" stroke-width="1" fill="none" fill-rule="evenodd"><g id="All-Icons" transform="translate(-484.000000, -3047.000000)"><g id="Group-23-Copy-4" transform="translate(484.000000, 3047.000000)"><g id="Branding"><mask id="mask-3" fill="white"><use xlink:href="#path-2"></use></mask><use id="Oval-Copy-11" fill="url(#radialGradient-1)" xlink:href="#path-2"></use><circle id="Oval-Copy-2" fill="#0B4651" opacity="0.200000003" mask="url(#mask-3)" cx="3.5" cy="14.5" r="34.5"></circle><circle id="Oval" fill="#0D6574" mask="url(#mask-3)" cx="58.5" cy="4.5" r="48.5"></circle><g id="paint-bucket" mask="url(#mask-3)"><g transform="translate(11.000000, 12.000000)"><path d="M20.9680851,26.1382979 C19.8765957,25.0468085 19.8765957,23.2085106 20.9680851,22.1170213 L22.9787234,20.106383 L24.9893617,22.1170213 C26.0808511,23.2085106 26.0808511,25.0468085 24.9893617,26.1382979 C23.8978723,27.287234 22.0595745,27.287234 20.9680851,26.1382979 C20.9680851,26.1382979 20.9680851,26.1382979 20.9680851,26.1382979 Z" id="Path" stroke="#FFFFFF" stroke-width="1.97" fill="none"></path><circle id="Oval" stroke="none" fill="#FFFFFF" fill-rule="evenodd" cx="12.0638298" cy="14.3617021" r="1.72340426"></circle><path d="M12.0638298,14.3617021 L12.0638298,0" id="Path" stroke="#FFFFFF" stroke-width="1.97" fill="none"></path><path d="M20.6234043,16.487234 L12.4659574,24.6446809 C10.6851064,26.4255319 7.75531915,26.4255319 5.97446809,24.6446809 L1.89574468,20.5659574 C0.114893617,18.7851064 0.114893617,15.8553191 1.89574468,14.0744681 L9.99574468,5.97446809" id="Path" stroke="#FFFFFF" stroke-width="2" fill="none"></path><path d="M8.44468085,4.30851064 L22.2319149,18.0957447" id="Path" stroke="#FFFFFF" stroke-width="2" fill="none"></path></g></g></g></g></g></g></svg> 