<?xml version="1.0" encoding="UTF-8"?> <svg xmlns="http://www.w3.org/2000/svg" xmlns:xlink="http://www.w3.org/1999/xlink" width="178px" height="176px" viewBox="0 0 178 176"><!-- Generator: Sketch 52.6 (67491) - http://www.bohemiancoding.com/sketch --><title>Business Strategy</title><desc>Created with Sketch.</desc><defs><linearGradient x1="100%" y1="0%" x2="0%" y2="100%" id="linearGradient-1"><stop stop-color="#8CD987" offset="0%"></stop><stop stop-color="#1FA595" offset="100%"></stop></linearGradient><path d="M4,0 L116,0 C118.209139,-4.05812251e-16 120,1.790861 120,4 L120,116 C120,118.209139 118.209139,120 116,120 L4,120 C1.790861,120 2.705415e-16,118.209139 0,116 L0,4 C-2.705415e-16,1.790861 1.790861,4.05812251e-16 4,0 Z" id="path-2"></path><filter x="-35.8%" y="-34.2%" width="171.7%" height="171.7%" id="filter-3"><feOffset dx="0" dy="2" in="SourceAlpha" result="shadowOffsetOuter1"></feOffset><feGaussianBlur stdDeviation="14" in="shadowOffsetOuter1" result="shadowBlurOuter1"></feGaussianBlur><feColorMatrix values="0 0 0 0 0.0509803922 0 0 0 0 0.396078431 0 0 0 0 0.454901961 0 0 0 0.604194973 0" type="matrix" in="shadowBlurOuter1"></feColorMatrix></filter><circle id="path-4" cx="37" cy="51" r="37"></circle><filter x="-95.3%" y="-95.3%" width="290.5%" height="290.5%" id="filter-5"><feOffset dx="0" dy="0" in="SourceAlpha" result="shadowOffsetOuter1"></feOffset><feGaussianBlur stdDeviation="23.5" in="shadowOffsetOuter1" result="shadowBlurOuter1"></feGaussianBlur><feColorMatrix values="0 0 0 0 0.0509803922 0 0 0 0 0.396078431 0 0 0 0 0.454901961 0 0 0 0.799932065 0" type="matrix" in="shadowBlurOuter1"></feColorMatrix></filter><circle id="path-6" cx="37" cy="51" r="6"></circle><filter x="-400.0%" y="-400.0%" width="900.0%" height="900.0%" id="filter-7"><feOffset dx="0" dy="0" in="SourceAlpha" result="shadowOffsetOuter1"></feOffset><feGaussianBlur stdDeviation="16" in="shadowOffsetOuter1" result="shadowBlurOuter1"></feGaussianBlur><feColorMatrix values="0 0 0 0 1 0 0 0 0 1 0 0 0 0 1 0 0 0 0.725996377 0" type="matrix" in="shadowBlurOuter1"></feColorMatrix></filter></defs><g id="Home" stroke="none" stroke-width="1" fill="none" fill-rule="evenodd"><g id="Company" transform="translate(-1201.000000, -2558.000000)"><g id="Services" transform="translate(150.000000, 2371.000000)"><g id="Business-Strategy" transform="translate(1079.000000, 198.000000)"><path d="M34,0 L146,0 C148.209139,-4.05812251e-16 150,1.790861 150,4 L150,116 C150,118.209139 148.209139,120 146,120 L34,120 C31.790861,120 30,118.209139 30,116 L30,4 C30,1.790861 31.790861,4.05812251e-16 34,0 Z" id="Rectangle-4-Copy-2" fill="#0D6574"></path><path d="M18,7 L130,7 C132.209139,7 134,8.790861 134,11 L134,123 C134,125.209139 132.209139,127 130,127 L18,127 C15.790861,127 14,125.209139 14,123 L14,11 C14,8.790861 15.790861,7 18,7 Z" id="Rectangle-4-Copy-10" fill="url(#linearGradient-1)" opacity="0.45"></path><g id="Group-55" transform="translate(0.000000, 15.000000)"><g id="Rectangle-4-Copy-6"><use fill="black" fill-opacity="1" filter="url(#filter-3)" xlink:href="#path-2"></use><use fill="url(#linearGradient-1)" fill-rule="evenodd" xlink:href="#path-2"></use></g><g id="Group-32" transform="translate(23.000000, 12.000000)"><g id="Group-31" transform="translate(64.000000, 0.000000)" fill="#369C85"><polygon id="Rectangle-30" transform="translate(8.443291, 8.443291) rotate(-315.000000) translate(-8.443291, -8.443291) " points="5.44329134 -0.497325783 11.4432913 3.38390846 11.4432913 17.3839085 5.44329134 13.5026742"></polygon><polygon id="Rectangle-30-Copy" transform="translate(14.443291, 14.443291) scale(-1, 1) rotate(-225.000000) translate(-14.443291, -14.443291) " points="11.4432913 5.50267422 17.4432913 9.38390846 17.4432913 23.3839085 11.4432913 19.5026742"></polygon></g><g id="Oval-19"><use fill="black" fill-opacity="1" filter="url(#filter-5)" xlink:href="#path-4"></use><use fill="#FFFFFF" fill-rule="evenodd" xlink:href="#path-4"></use></g><circle id="Oval-19-Copy" fill="url(#linearGradient-1)" cx="37" cy="51" r="30"></circle><circle id="Oval-19-Copy-2" fill="#FFFFFF" cx="37" cy="51" r="22"></circle><circle id="Oval-19-Copy-3" fill="url(#linearGradient-1)" cx="37" cy="51" r="14"></circle><g id="Oval-19-Copy-4"><use fill="black" fill-opacity="1" filter="url(#filter-7)" xlink:href="#path-6"></use><use fill="#FFFFFF" fill-rule="evenodd" xlink:href="#path-6"></use></g><path d="M36.9021173,50.1568342 L80.0327258,7.02622569" id="Path-52" stroke="#FFFFFF" stroke-width="5" stroke-linecap="round" stroke-linejoin="round"></path></g></g></g></g></g></g></svg> 