<?xml version="1.0" encoding="UTF-8"?> <svg xmlns="http://www.w3.org/2000/svg" xmlns:xlink="http://www.w3.org/1999/xlink" width="51px" height="51px" viewBox="0 0 51 51"><!-- Generator: Sketch 52.6 (67491) - http://www.bohemiancoding.com/sketch --><title>Cloud Migration</title><desc>Created with Sketch.</desc><defs><radialGradient cx="10.1475267%" cy="12.3100204%" fx="10.1475267%" fy="12.3100204%" r="99.9669394%" id="radialGradient-1"><stop stop-color="#7ECC79" offset="0%"></stop><stop stop-color="#28AD9D" offset="100%"></stop></radialGradient><circle id="path-2" cx="25.5" cy="25.5" r="25.5"></circle></defs><g id="Illustrations" stroke="none" stroke-width="1" fill="none" fill-rule="evenodd"><g id="All-Icons" transform="translate(-897.000000, -3851.000000)"><g id="Group-33-Copy-5" transform="translate(897.000000, 3851.000000)"><g id="Cloud-Migration"><mask id="mask-3" fill="white"><use xlink:href="#path-2"></use></mask><use id="Oval-Copy-13" fill="url(#radialGradient-1)" xlink:href="#path-2"></use><circle id="Oval" fill="#0D6574" mask="url(#mask-3)" cx="25.5" cy="71.5" r="48.5"></circle><circle id="Oval-Copy-2" fill="#0B4651" opacity="0.200000003" mask="url(#mask-3)" cx="43.5" cy="-7.5" r="34.5"></circle><g id="cloud-upload" mask="url(#mask-3)" stroke="#FFFFFF" stroke-width="2"><g transform="translate(13.000000, 14.000000)" id="Path"><path d="M12.8372093,24 L12.8372093,10.3255814"></path><polyline points="17.3023256 14.7906977 12.8372093 10.3255814 8.37209302 14.7906977"></polyline><path d="M17.3023256,18.4186047 L20.0930233,18.4186047 C23.1627907,18.4186047 25.6744186,15.9069767 25.6744186,12.8372093 C25.6744186,9.76744186 23.1627907,7.25581395 20.0930233,7.25581395 C19.9255814,3.2372093 16.5767442,0.111627907 12.5581395,0.279069767 C8.53953488,0.446511628 5.41395349,3.79534884 5.58139535,7.81395349 L5.58139535,8.93023256 L4.74418605,8.93023256 C2.23255814,8.93023256 0.16744186,10.8837209 0,13.3953488 L0,18.4186047 L8.37209302,18.4186047"></path></g></g></g></g></g></g></svg> 