<?xml version="1.0" encoding="UTF-8"?> <svg xmlns="http://www.w3.org/2000/svg" xmlns:xlink="http://www.w3.org/1999/xlink" width="100px" height="93px" viewBox="0 0 100 93"><!-- Generator: Sketch 52.6 (67491) - http://www.bohemiancoding.com/sketch --><title>Continued Learning</title><desc>Created with Sketch.</desc><defs><radialGradient cx="10.1475267%" cy="12.3100204%" fx="10.1475267%" fy="12.3100204%" r="118.530049%" gradientTransform="translate(0.101475,0.123100),scale(1.000000,0.745684),rotate(53.745625),translate(-0.101475,-0.123100)" id="radialGradient-1"><stop stop-color="#7ECC79" offset="0%"></stop><stop stop-color="#28AD9D" offset="100%"></stop></radialGradient><radialGradient cx="10.1475267%" cy="12.3100204%" fx="10.1475267%" fy="12.3100204%" r="145.559946%" gradientTransform="translate(0.101475,0.123100),scale(1.000000,0.558704),rotate(61.212926),translate(-0.101475,-0.123100)" id="radialGradient-2"><stop stop-color="#7ECC79" offset="0%"></stop><stop stop-color="#28AD9D" offset="100%"></stop></radialGradient><radialGradient cx="10.1475267%" cy="12.3100204%" fx="10.1475267%" fy="12.3100204%" r="116.971859%" gradientTransform="translate(0.101475,0.123100),scale(1.000000,0.761127),rotate(53.183875),translate(-0.101475,-0.123100)" id="radialGradient-3"><stop stop-color="#7ECC79" offset="0%"></stop><stop stop-color="#28AD9D" offset="100%"></stop></radialGradient><radialGradient cx="10.1475267%" cy="12.3100204%" fx="10.1475267%" fy="12.3100204%" r="123.383639%" gradientTransform="translate(0.101475,0.123100),scale(0.695977,1.000000),rotate(35.286486),translate(-0.101475,-0.123100)" id="radialGradient-4"><stop stop-color="#7ECC79" offset="0%"></stop><stop stop-color="#28AD9D" offset="100%"></stop></radialGradient></defs><g id="Home" stroke="none" stroke-width="1" fill="none" fill-rule="evenodd"><g id="Careers" transform="translate(-573.000000, -2764.000000)"><g id="Group-2" transform="translate(126.000000, 2717.000000)"><g id="Continued-Learning" transform="translate(427.000000, 18.000000)"><rect id="Rectangle" fill-rule="nonzero" x="0" y="0" width="144" height="144"></rect><g id="Group-14" transform="translate(20.000000, 29.000000)"><g id="Group-12" transform="translate(0.014458, 0.740500)"><path d="M94.1182685,31.784343 L94.1182685,71.0103705 C90.0944639,70.7358784 85.3818595,71.315246 79.9804552,72.748473 C74.5790509,74.1817001 69.5249433,76.1938654 64.8181321,78.7849688 C70.3478219,76.8484526 76.1890938,75.635391 82.3419477,75.145784 C88.4948016,74.6561771 94.3360735,74.9396124 99.8657633,75.9960901 L99.8657633,32.4539654 L94.1182685,31.784343 Z" id="Path-8" fill="url(#radialGradient-1)"></path><path d="M62.0085155,37.0116682 C64.3490433,34.000914 68.6378036,31.2729573 74.8747965,28.8277982 C81.1117894,26.3826391 86.6272168,25.2669487 91.4210788,25.4807271 L91.4210788,68.9239184 C86.7708915,68.9413153 81.8687976,69.7699254 76.7147972,71.4097487 C71.5607967,73.049572 66.6587028,75.2793907 62.0085155,78.0992046 L62.0085155,37.0116682 Z" id="Path-9" fill="url(#radialGradient-2)"></path><path d="M62.0121443,37.0183315 C59.628645,34.9435149 56.9121237,33.0667674 53.8625804,31.3880889 C50.8130371,29.7094104 47.777863,28.4406337 44.7570581,27.5817588 C33.305702,31.4346049 29.6939662,39.3494456 33.9218506,51.3262809 C38.1497351,63.3031162 47.5131663,72.2263007 62.0121443,78.0958342 L62.0121443,37.0183315 Z" id="Path-10" fill="#73C87E"></path><path d="M62.0121443,78.0958342 C47.5131663,72.2263007 38.1497351,63.3031162 33.9218506,51.3262809 C29.8586549,39.8159791 32.8046885,32.0918824 44.6186962,27.5282099 C36.2838456,31.7851215 30.6981493,37.5758403 35.0102081,50.8902897 C38.2235428,60.8121815 47.2241882,69.8806964 62.0121443,78.0958342 Z" id="Path" fill="#0D6574" fill-rule="nonzero" opacity="0.340000004"></path><path d="M57.020562,16.5831052 L57.020562,25.9807961 C49.0432161,24.2988733 42.7276708,24.8568921 38.0739261,27.6548524 C33.4201814,30.4528126 30.7952378,35.2700635 30.1990955,42.1066049 L20.2815791,39.2775671 C20.9033139,29.9617782 24.7828333,23.2292126 31.9201374,19.0798703 C39.0574414,14.9305279 47.4242497,14.0982729 57.020562,16.5831052 Z" id="Path-11" fill="#177383"></path><path d="M57.020562,18.4725805 C48.0168314,16.4242222 39.6076152,16.6800237 33.4464693,21.0766941 C26.81481,25.8091286 25.3457617,32.5058818 24.1809896,40.3697708 L20.2815791,39.2775671 C20.9033139,29.9617782 24.7828333,23.2292126 31.9201374,19.0798703 C39.0574414,14.9305279 47.4242497,14.0982729 57.020562,16.5831052 L57.020562,18.4725805 Z" id="Path" fill="#000000" fill-rule="nonzero" opacity="0.200000003"></path><path d="M60.7928668,17.7094483 L60.7928668,27.1891497 L66.8608838,30.1272095 L76.5125079,26.084611 C74.2993858,24.2510985 71.8577518,22.6230376 69.1876058,21.2004283 C66.5174599,19.7778191 63.7192135,18.614159 60.7928668,17.7094483 Z" id="Path-12" fill="#177383"></path><path d="M67.6837621,21.3162038 C65.1508651,20.4346402 63.4637937,19.8847117 60.7928668,19.2746032 L60.7928668,17.7094483 C63.7192135,18.614159 66.5174599,19.7778191 69.1876058,21.2004283 C71.8577518,22.6230376 74.2993858,24.2510985 76.5125079,26.084611 C72.7249595,23.6359706 69.7820443,22.0465016 67.6837621,21.3162038 Z" id="Path" fill="#000000" fill-rule="nonzero" opacity="0.200000003"></path><path d="M30.2155624,45.9265867 C32.5175425,57.5815199 38.5489021,67.7193938 50.2046542,75.3904972 C61.281078,82.6803222 72.9433884,82.2468379 85.498441,77.5074679 L99.3193667,77.5074679 C98.1017089,79.7663448 97.210673,80.7232971 95.914036,81.9929958 C82.9485096,94.6891574 59.8596833,94.981251 43.9675664,84.7651552 C27.9778561,74.4863225 20.4,59.693291 20.4,43.3846154 L30.2155624,45.9265867 Z" id="Path" fill="#177383"></path><polygon id="Path-182" fill="url(#radialGradient-3)" points="0.302745429 38.9050051 17.331279 42.6097633 7.77666641 61.2778035"></polygon><polygon id="Path-182-Copy" fill="#000000" fill-rule="nonzero" opacity="0.100000001" points="0.302745429 38.9050051 6.0535143 40.1561527 9.35084049 58.202143 7.77666641 61.2778035"></polygon><path d="M62.0085155,37.0116682 C64.3490433,34.000914 68.6378036,31.2729573 74.8747965,28.8277982 C81.1117894,26.3826391 86.6272168,25.2669487 91.4210788,25.4807271 L91.4210788,68.9239184 C86.7708915,68.9413153 81.8687976,69.7699254 76.7147972,71.4097487 C71.5607967,73.049572 66.6587028,75.2793907 62.0085155,78.0992046 L62.0085155,37.0116682 Z" id="Path-9" fill="#0D6574" fill-rule="nonzero" opacity="0.340000004"></path><path d="M66.2759869,43.9752735 C69.865429,41.9910985 73.3422614,40.4014393 76.7064839,39.206296 C80.0707064,38.0111527 82.5400513,37.3422679 84.1145186,37.1996415" id="Path-13" stroke="#FFFFFF" stroke-width="1.32599994" stroke-linecap="round" fill-rule="nonzero"></path><path d="M66.9516039,51.9732529 C70.541046,49.9890779 74.0178783,48.3994187 77.3821009,47.2042754 C80.7463234,46.0091321 83.2156683,45.3402473 84.7901356,45.1976209" id="Path-13" stroke="#FFFFFF" stroke-width="1.32599994" stroke-linecap="round" fill-rule="nonzero"></path><path d="M67.6272209,60.6377306 C71.216663,58.6535556 74.6934953,57.0638964 78.0577179,55.8687531 C81.4219404,54.6736098 83.8912853,54.004725 85.4657526,53.8620986" id="Path-13" stroke="#FFFFFF" stroke-width="1.32599994" stroke-linecap="round" fill-rule="nonzero"></path><path d="M39.9269244,43.9752735 C43.5163666,41.9910985 46.9931989,40.4014393 50.3574214,39.206296 C53.721644,38.0111527 56.1909889,37.3422679 57.7654561,37.1996415" id="Path-13" stroke="#FFFFFF" stroke-width="1.32599994" stroke-linecap="round" fill-rule="nonzero" transform="translate(48.846190, 40.587457) scale(-1, 1) translate(-48.846190, -40.587457) "></path><path d="M40.6025414,51.9732529 C44.1919835,49.9890779 47.6688159,48.3994187 51.0330384,47.2042754 C54.397261,46.0091321 56.8666059,45.3402473 58.4410731,45.1976209" id="Path-13" stroke="#FFFFFF" stroke-width="1.32599994" stroke-linecap="round" fill-rule="nonzero" transform="translate(49.521807, 48.585437) scale(-1, 1) translate(-49.521807, -48.585437) "></path><path d="M41.2781584,60.6377306 C44.8676005,58.6535556 48.3444329,57.0638964 51.7086554,55.8687531 C55.072878,54.6736098 57.5422229,54.004725 59.1166901,53.8620986" id="Path-13" stroke="#FFFFFF" stroke-width="1.32599994" stroke-linecap="round" fill-rule="nonzero" transform="translate(50.197424, 57.249915) scale(-1, 1) translate(-50.197424, -57.249915) "></path><path d="M57.3954552,12.5544753 L57.3954552,2.59985867 C44.0017405,-1.55435113 32.0557092,-0.730177127 21.5573613,5.07238067 C11.0590133,10.8749385 5.28052493,20.4875534 4.22189605,33.9102254 L15.4237702,37.0075996 C16.1399124,27.1365117 20.4083798,19.7671629 28.2291722,14.8995533 C36.0499646,10.0319436 45.7720589,9.25025097 57.3954552,12.5544753 Z" id="Path-5" fill="url(#radialGradient-4)"></path><path d="M4.22189605,33.9102254 C5.28052493,20.4875534 11.0590133,10.8749385 21.5573613,5.07238067 C32.0557092,-0.730177127 44.0017405,-1.55435113 57.3954552,2.59985867 L57.3954552,3.72357349 C44.6427666,0.112974981 32.9473648,2.59985867 24.285566,7.63172031 C15.6237672,12.6635819 10.2083549,22.8278693 8.72376443,35.1339544 L4.22189605,33.9102254 Z" id="Path" fill="#000000" fill-rule="nonzero" opacity="0.100000001"></path></g></g></g></g></g></g></svg> 