<?xml version="1.0" encoding="UTF-8"?> <svg xmlns="http://www.w3.org/2000/svg" xmlns:xlink="http://www.w3.org/1999/xlink" width="51px" height="51px" viewBox="0 0 51 51"><!-- Generator: Sketch 52.6 (67491) - http://www.bohemiancoding.com/sketch --><title>Content Production</title><desc>Created with Sketch.</desc><defs><radialGradient cx="10.1475267%" cy="12.3100204%" fx="10.1475267%" fy="12.3100204%" r="99.9669394%" id="radialGradient-1"><stop stop-color="#7ECC79" offset="0%"></stop><stop stop-color="#28AD9D" offset="100%"></stop></radialGradient><circle id="path-2" cx="25.5" cy="25.5" r="25.5"></circle></defs><g id="Illustrations" stroke="none" stroke-width="1" fill="none" fill-rule="evenodd"><g id="All-Icons" transform="translate(-1310.000000, -3309.000000)"><g id="Group-34-Copy-6" transform="translate(1310.000000, 3309.000000)"><g id="Content-Production"><mask id="mask-3" fill="white"><use xlink:href="#path-2"></use></mask><use id="Oval-Copy-15" fill="url(#radialGradient-1)" xlink:href="#path-2"></use><circle id="Oval" fill="#0D6574" mask="url(#mask-3)" cx="-27.5" cy="-3.5" r="48.5"></circle><circle id="Oval-Copy-2" fill="#0B4651" opacity="0.200000003" mask="url(#mask-3)" cx="43.5" cy="-7.5" r="34.5"></circle><g id="quill" mask="url(#mask-3)" stroke="#FFFFFF" stroke-width="2"><g transform="translate(14.000000, 14.000000)" id="Path"><path d="M5.45217391,14.1182609 L10.4347826,5.49913043 C11.7454233,3.2117778 13.9131831,1.54068936 16.458778,0.8553369 C19.0043728,0.16998444 21.718113,0.52682289 24,1.84695652 L21.3913043,6 L17.2173913,6 L20.3478261,8.17043478 L19.0330435,10.4347826 C17.7226483,12.7263968 15.5544393,14.4025762 13.0066711,15.0935959 C10.4589028,15.7846157 7.74089477,15.433703 5.45217391,14.1182609 Z"></path><path d="M5.45217391,14.1182609 L0,23.4782609"></path></g></g></g></g></g></g></svg> 