<?xml version="1.0" encoding="UTF-8"?> <svg xmlns="http://www.w3.org/2000/svg" xmlns:xlink="http://www.w3.org/1999/xlink" width="177px" height="159px" viewBox="0 0 177 159"><!-- Generator: Sketch 52.5 (67469) - http://www.bohemiancoding.com/sketch --><title>Cost Savings</title><desc>Created with Sketch.</desc><defs><linearGradient x1="23.2916903%" y1="14.537225%" x2="78.8050321%" y2="119.862794%" id="linearGradient-1"><stop stop-color="#AFF7E7" offset="0%"></stop><stop stop-color="#5DD1E4" offset="100%"></stop></linearGradient><rect id="path-2" x="0" y="0" width="84.8" height="104.245283" rx="42.4"></rect><linearGradient x1="11.5884416%" y1="20.3503406%" x2="79.3937209%" y2="90.8531466%" id="linearGradient-4"><stop stop-color="#8BDFC6" offset="0%"></stop><stop stop-color="#7DEAC5" offset="100%"></stop></linearGradient><linearGradient x1="35.3833382%" y1="3.37710113%" x2="22.3074002%" y2="94.5399843%" id="linearGradient-5"><stop stop-color="#C9F1E5" offset="0%"></stop><stop stop-color="#72E5BE" offset="100%"></stop></linearGradient><ellipse id="path-6" cx="55.3560235" cy="55.6366277" rx="55.3560235" ry="55.6366277"></ellipse><path d="M54.503245,96.3771546 C52.7359338,96.3771546 51.303245,94.9410869 51.303245,93.1696075 C51.303245,91.8049054 52.1535121,90.6392622 53.3520114,90.1758968 C52.1535121,89.7125314 51.303245,88.5468882 51.303245,87.1821861 C51.303245,85.4107067 52.7359338,83.9746389 54.503245,83.9746389" id="path-8"></path><filter x="-412.5%" y="-106.4%" width="925.0%" height="312.9%" id="filter-9"><feMorphology radius="1.2" operator="dilate" in="SourceAlpha" result="shadowSpreadOuter1"></feMorphology><feOffset dx="0" dy="0" in="shadowSpreadOuter1" result="shadowOffsetOuter1"></feOffset><feMorphology radius="1.2" operator="erode" in="SourceAlpha" result="shadowInner"></feMorphology><feOffset dx="0" dy="0" in="shadowInner" result="shadowInner"></feOffset><feComposite in="shadowOffsetOuter1" in2="shadowInner" operator="out" result="shadowOffsetOuter1"></feComposite><feGaussianBlur stdDeviation="4" in="shadowOffsetOuter1" result="shadowBlurOuter1"></feGaussianBlur><feColorMatrix values="0 0 0 0 0.414386489 0 0 0 0 0.762223639 0 0 0 0 0.392089236 0 0 0 1 0" type="matrix" in="shadowBlurOuter1"></feColorMatrix></filter><ellipse id="path-10" cx="7.4391494" cy="16.7752024" rx="7.4391494" ry="1.53935334"></ellipse><filter x="-109.9%" y="-535.9%" width="319.9%" height="1171.9%" id="filter-11"><feOffset dx="0" dy="0" in="SourceAlpha" result="shadowOffsetOuter1"></feOffset><feGaussianBlur stdDeviation="5.5" in="shadowOffsetOuter1" result="shadowBlurOuter1"></feGaussianBlur><feColorMatrix values="0 0 0 0 0.414386489 0 0 0 0 0.762223639 0 0 0 0 0.392089236 0 0 0 0.759992074 0" type="matrix" in="shadowBlurOuter1"></feColorMatrix></filter><ellipse id="path-12" cx="46.6391494" cy="16.7752024" rx="7.4391494" ry="1.53935334"></ellipse><filter x="-109.9%" y="-535.9%" width="319.9%" height="1171.9%" id="filter-13"><feOffset dx="0" dy="0" in="SourceAlpha" result="shadowOffsetOuter1"></feOffset><feGaussianBlur stdDeviation="5.5" in="shadowOffsetOuter1" result="shadowBlurOuter1"></feGaussianBlur><feColorMatrix values="0 0 0 0 0.414386489 0 0 0 0 0.762223639 0 0 0 0 0.392089236 0 0 0 0.759992074 0" type="matrix" in="shadowBlurOuter1"></feColorMatrix></filter><polyline id="path-14" points="3.15790796 0 10.233195 6.31439894 0 11.0607335"></polyline><filter x="-132.8%" y="-123.8%" width="361.8%" height="346.7%" id="filter-15"><feMorphology radius="1.2" operator="dilate" in="SourceAlpha" result="shadowSpreadOuter1"></feMorphology><feOffset dx="0" dy="0" in="shadowSpreadOuter1" result="shadowOffsetOuter1"></feOffset><feMorphology radius="1.2" operator="erode" in="SourceAlpha" result="shadowInner"></feMorphology><feOffset dx="0" dy="0" in="shadowInner" result="shadowInner"></feOffset><feComposite in="shadowOffsetOuter1" in2="shadowInner" operator="out" result="shadowOffsetOuter1"></feComposite><feGaussianBlur stdDeviation="4" in="shadowOffsetOuter1" result="shadowBlurOuter1"></feGaussianBlur><feColorMatrix values="0 0 0 0 0.414386489 0 0 0 0 0.762223639 0 0 0 0 0.392089236 0 0 0 1 0" type="matrix" in="shadowBlurOuter1"></feColorMatrix></filter><polyline id="path-16" points="44.757908 0 51.833195 6.31439894 41.6 11.0607335"></polyline><filter x="-132.8%" y="-123.8%" width="361.8%" height="346.7%" id="filter-17"><feMorphology radius="1.2" operator="dilate" in="SourceAlpha" result="shadowSpreadOuter1"></feMorphology><feOffset dx="0" dy="0" in="shadowSpreadOuter1" result="shadowOffsetOuter1"></feOffset><feMorphology radius="1.2" operator="erode" in="SourceAlpha" result="shadowInner"></feMorphology><feOffset dx="0" dy="0" in="shadowInner" result="shadowInner"></feOffset><feComposite in="shadowOffsetOuter1" in2="shadowInner" operator="out" result="shadowOffsetOuter1"></feComposite><feGaussianBlur stdDeviation="4" in="shadowOffsetOuter1" result="shadowBlurOuter1"></feGaussianBlur><feColorMatrix values="0 0 0 0 0.414386489 0 0 0 0 0.762223639 0 0 0 0 0.392089236 0 0 0 1 0" type="matrix" in="shadowBlurOuter1"></feColorMatrix></filter><linearGradient x1="0%" y1="22.6288417%" x2="157.910643%" y2="109.975606%" id="linearGradient-18"><stop stop-color="#90E28A" offset="0%"></stop><stop stop-color="#28AD9D" offset="100%"></stop></linearGradient><linearGradient x1="11.5884416%" y1="20.3503406%" x2="36.6454877%" y2="100%" id="linearGradient-19"><stop stop-color="#80DA8E" offset="0%"></stop><stop stop-color="#7DD88E" offset="100%"></stop></linearGradient></defs><g id="Pages" stroke="none" stroke-width="1" fill="none" fill-rule="evenodd"><g id="Bots/AI" transform="translate(-710.000000, -1920.000000)"><g id="Group-4" transform="translate(231.000000, 1213.000000)"><g id="Group-6-Copy" transform="translate(403.000000, 699.000000)"><g id="Cost-Savings" transform="translate(76.000000, 0.000000)"><g id="Group-135" transform="translate(0.800000, 51.320755)"><mask id="mask-3" fill="white"><use xlink:href="#path-2"></use></mask><use id="Rectangle-76" fill="url(#linearGradient-1)" opacity="0.400000006" xlink:href="#path-2"></use><path d="M76.0425844,115.582789 C75.3361709,117.878775 73.9417794,119.848438 71.7017449,121.251469 C67.6134343,123.812154 63.0168176,122.984166 58.8934851,120.301859 C55.906118,118.35852 53.0913112,115.350379 50.8613367,111.773257 C48.6313622,108.196136 47.1679551,104.341555 46.7349785,100.798291 C46.1373599,95.9076776 47.4099445,91.4035561 51.4982551,88.8428709 C52.9651796,87.9240729 54.5044576,87.4440453 56.0660849,87.3310078 C57.0783471,85.3916033 58.2274012,83.5264694 59.5046932,81.7499049 L59.5046932,75.7569071 C59.5046932,75.5726484 59.5094086,75.3894936 59.518725,75.2075574 C40.1756537,68.9001198 24.8884191,53.3437215 18.9947198,33.5690857 C13.1235292,31.3971425 8.93720016,25.7377567 8.93720016,19.0982953 L8.93720016,11.589591 C8.93720016,4.89979724 13.1872411,-0.795005125 19.128534,-2.92999224 C27.0662043,-28.8840815 51.0798181,-47.173797 78.7951729,-47.173797 C113.272413,-47.173797 141.213996,-19.0905759 141.213996,15.5422881 C141.213996,26.2105616 138.548628,36.4715545 133.62391,45.5415635 C149.894416,46.6365553 162.753697,60.2124163 162.753697,76.7988069 L162.753697,82.8842981 C162.753697,100.186559 148.760447,114.212812 131.498897,114.212812 L95.3892802,114.212812 C93.0908365,114.212812 90.8212394,113.9629 88.6114248,113.472614 C84.1376417,114.578152 79.6834339,115.346603 76.0425844,115.582789 Z" id="Combined-Shape" fill="#000000" fill-rule="nonzero" opacity="0.100000001" mask="url(#mask-3)"></path></g><g id="Group-134" transform="translate(81.665533, 63.903233) rotate(8.000000) translate(-81.665533, -63.903233) translate(19.265533, 8.172101)"><g id="Lead-Nurturing"><g id="Group-56"><path d="M8.32094208,43.3433637 L10.5023286,43.3433637 L10.5023286,67.5332018 L8.32094208,67.5332018 C3.72541266,67.5332018 5.62790039e-16,63.8077892 0,59.2122597 L0,51.6643058 C-5.62790039e-16,47.0687764 3.72541266,43.3433637 8.32094208,43.3433637 Z" id="Rectangle-18" fill="url(#linearGradient-4)"></path><rect id="Rectangle-18-Copy-2" fill="#000000" opacity="0.100000001" x="4.8" y="43.3018868" width="10.5023286" height="24.1898381" rx="2.88"></rect><path d="M122.096168,43.5417086 L124.277555,43.5417086 L124.277555,67.7315468 L122.096168,67.7315468 C117.500639,67.7315468 113.775226,64.0061341 113.775226,59.4106047 L113.775226,51.8626507 C113.775226,47.2671213 117.500639,43.5417086 122.096168,43.5417086 Z" id="Rectangle-18-Copy" fill="url(#linearGradient-4)" transform="translate(119.026390, 55.636628) scale(-1, 1) translate(-119.026390, -55.636628) "></path><rect id="Rectangle-18-Copy-3" fill="#000000" opacity="0.100000001" x="109.6" y="43.3018868" width="10.5023286" height="24.1898381" rx="2.88"></rect><g id="Group-53" transform="translate(7.439149, 0.000000)"><mask id="mask-7" fill="white"><use xlink:href="#path-6"></use></mask><use id="Oval-12" fill="url(#linearGradient-5)" xlink:href="#path-6"></use><path d="M20.726893,111.213405 C15.1813747,94.7321581 11.8385335,82.2450173 10.6983695,73.7519831 C7.07680498,46.7750994 19.7211521,34.7568093 29.7913,34.7568093 C33.4221415,34.7568093 36.9703093,35.7765467 39.9812413,37.6853811 C44.9908961,40.8613416 50.0005508,42.4493219 55.0102055,42.4493219 C60.0198603,42.4493219 65.029515,40.8613416 70.0391698,37.685381 C73.1943338,35.6851083 76.7780844,34.6306557 80.3128792,34.7553246 C100.573908,35.4699116 101.706321,62.3025556 100.573908,75.1026898 C99.8189663,83.6361126 95.8652885,95.9501509 88.7128747,112.044805 L20.726893,111.213405 Z" id="Path-52" fill="#0D6574" mask="url(#mask-7)"></path><g id="Combined-Shape" stroke-linecap="round" stroke-linejoin="round" mask="url(#mask-7)"><use fill="black" fill-opacity="1" filter="url(#filter-9)" xlink:href="#path-8"></use><use stroke="#A8FFA2" stroke-width="2.4" xlink:href="#path-8"></use></g><g id="Group-55" mask="url(#mask-7)"><g transform="translate(28.443807, 57.331468)" id="Group-54"><g transform="translate(0.000000, 0.000000)"><g id="Oval-17" opacity="0.300000012"><use fill="black" fill-opacity="1" filter="url(#filter-11)" xlink:href="#path-10"></use><use fill="#AFFFAA" fill-rule="evenodd" xlink:href="#path-10"></use></g><g id="Oval-17-Copy" opacity="0.300000012"><use fill="black" fill-opacity="1" filter="url(#filter-13)" xlink:href="#path-12"></use><use fill="#AFFFAA" fill-rule="evenodd" xlink:href="#path-12"></use></g><g id="Path-295" stroke-linecap="round" stroke-linejoin="round"><use fill="black" fill-opacity="1" filter="url(#filter-15)" xlink:href="#path-14"></use><use stroke="#A8FFA2" stroke-width="2.4" xlink:href="#path-14"></use></g><g id="Path-295-Copy" stroke-linecap="round" stroke-linejoin="round" transform="translate(46.716597, 5.530367) scale(-1, 1) translate(-46.716597, -5.530367) "><use fill="black" fill-opacity="1" filter="url(#filter-17)" xlink:href="#path-16"></use><use stroke="#A8FFA2" stroke-width="2.4" xlink:href="#path-16"></use></g></g></g></g><path d="M17.9274547,112.083194 C11.9350995,94.451881 8.32290494,81.0933847 7.09087086,72.0077046 C3.17749439,43.1483676 16.840675,30.2914384 27.7222372,30.2914384 C31.6456381,30.2914384 35.4797038,31.3823333 38.7332453,33.4243666 C44.146559,36.8219464 49.5598726,38.5207363 54.9731863,38.5207363 C60.3865,38.5207363 65.7998137,36.8219464 71.2131274,33.4243665 C74.6225226,31.2845143 78.4950382,30.1564818 82.3146534,30.28985 C104.208239,31.0543011 105.431897,59.7593333 104.208239,73.4526639 C103.392467,82.581551 99.1202168,95.7548657 91.3914886,112.972608 L17.9274547,112.083194 Z" id="Path-52-Copy" stroke="#0D6574" stroke-width="1.31383296" stroke-linecap="round" stroke-linejoin="round" mask="url(#mask-7)"></path><path d="M56.1562634,38.0546885 L56.1562634,-6.16716689" id="Path-53" stroke="#0D6574" stroke-width="1.31383296" opacity="0.5" stroke-linecap="round" stroke-linejoin="round" stroke-dasharray="2.1897216796875,6.131219863891602" mask="url(#mask-7)"></path><path d="M109.013172,57.6971724 C113.572085,61.7178438 116.448851,67.6094414 116.448851,74.1745283 C116.448851,75.9900887 116.226902,77.7705557 115.801664,79.4840575 C129.3327,81.3908141 140.35457,92.3117167 141.847426,106.548797 L142.482037,112.600952 C144.241631,129.381859 132.09646,144.41527 115.355037,146.179014 L79.4432321,149.962399 C67.4393569,151.227033 56.0755749,145.291997 50.0930916,135.265279 C45.7327396,134.68614 42.1706589,131.180699 41.6906219,126.602681 L40.5964901,116.16816 C40.1577445,111.983929 42.4232167,108.139554 45.9809019,106.382828 C47.5101986,100.009298 51.0589711,94.2923987 56.0605539,90.0924585 L54.1035891,71.4292695 L63.7644422,75.2747704 C67.7301837,76.8533331 71.0638969,78.7235232 73.7319592,80.9272504 C73.0410476,78.7846418 72.6728505,76.5118948 72.6728505,74.1745283 C72.6728505,62.0576092 82.4724419,52.2349056 94.5608506,52.2349056 C95.7268473,52.2349056 96.8715495,52.3262932 97.988217,52.5023124 C95.1208018,49.4816627 93.3608506,45.3949586 93.3608506,40.8962264 C93.3608506,31.5959596 100.882467,24.0566038 110.160851,24.0566038 C119.439234,24.0566038 126.960851,31.5959596 126.960851,40.8962264 C126.960851,50.1964932 119.439234,57.7358491 110.160851,57.7358491 C109.775117,57.7358491 109.392419,57.7228184 109.013172,57.6971724 Z" id="Combined-Shape" fill="#000000" opacity="0.200000003" mask="url(#mask-7)"></path></g></g></g></g><g id="Group-138-Copy" transform="translate(126.400000, 44.905660)"><ellipse id="Oval-80" fill="#AFFFAA" cx="12.4" cy="12.4292453" rx="12.4" ry="12.4292453"></ellipse><ellipse id="Oval-80-Copy" fill="#0D6574" opacity="0.300000012" cx="12.4" cy="12.4292453" rx="9.22051282" ry="9.24225931"></ellipse><path d="M15.4538791,13.9799516 C15.4538791,15.2831348 14.4602938,16.0459738 13.1284667,16.2260886 L13.1284667,17.8471214 L11.7226491,17.8471214 L11.7226491,16.2154936 C10.7290638,16.0777588 9.76718866,15.6645543 9.05899487,15.0818301 L9.80946889,13.5667471 C10.570513,14.2236362 11.7226491,14.6898156 12.4942633,14.6898156 C13.0650463,14.6898156 13.4244282,14.4779159 13.4244282,14.0859014 C13.4244282,12.8250981 9.52407736,13.5879371 9.52407736,10.9603806 C9.52407736,9.78433711 10.3696819,8.9685232 11.7226491,8.74602849 L11.7226491,7.18856555 L13.1284667,7.18856555 L13.1284667,8.7354335 C13.9952113,8.83078838 14.8196757,9.12744799 15.443309,9.53005745 L14.7139751,11.0663304 C13.931791,10.621341 12.9382056,10.2717065 12.3251424,10.2717065 C11.8600599,10.2717065 11.5535282,10.4412262 11.5535282,10.7802658 C11.5535282,12.0092842 15.4538791,11.3100151 15.4538791,13.9799516 Z" id="$" fill="#0D6574"></path></g><g id="Group-139" transform="translate(51.200000, 80.792453)"><g id="Group-137" transform="translate(73.890335, 42.244070) rotate(-8.000000) translate(-73.890335, -42.244070) translate(19.390335, 8.244070)"><g id="Group-136" transform="translate(0.000000, -0.000000)"><path d="M94.9365828,33.0497122 C96.1299253,34.0876074 97.5204444,33.9738424 98.1718045,32.7178184 C98.6175946,31.858197 96.9125212,30.423141 93.8328581,29.5067112 C93.542472,30.9553434 93.9736525,32.2122152 94.9365828,33.0497122 Z M100.225332,33.7899555 C98.8219855,36.496042 95.6620962,36.7545677 93.4203428,34.8048296 C91.7955784,33.3917105 91.1054932,31.26724 91.5815684,28.985846 C87.9006189,28.365289 84.5511669,28.9236098 83.2507852,30.5437711 C82.8498379,31.0433162 82.1212068,31.1221485 81.623342,30.7198479 C81.1254772,30.3175474 81.0469101,29.5864571 81.4478574,29.086912 C83.4628104,26.5764577 87.8154383,25.8951312 92.4006983,26.7726386 C92.509546,26.569139 92.6278925,26.3657921 92.755893,26.1629697 C95.6818387,21.5266815 100.633485,20.4387186 107.246571,22.8069945 C107.848614,23.0225978 108.162473,23.6870781 107.947595,24.2911528 C107.732717,24.8952275 107.070471,25.2101457 106.468429,24.9945424 C100.814353,22.9697068 97.0257674,23.7869733 94.7434565,27.3555307 C98.9832948,28.6726425 101.628468,31.0842746 100.225332,33.7899555 Z" id="Path-298" fill="#3DA68B" fill-rule="nonzero"></path><path d="M5.59031774,44.1314249 L3.456,44.1314249 C1.5473039,44.1314249 1.14808764e-13,42.5841209 1.14575016e-13,40.6754249 L1.13686838e-13,30.1671256 C1.1345309e-13,28.2584295 1.5473039,26.7111256 3.456,26.7111256 L5.03800525,26.7111256 C7.12660829,15.4753041 16.9807181,6.96811971 28.8217872,6.96811971 L64.9314043,6.96811971 C78.2922769,6.96811971 89.1234043,17.799247 89.1234043,31.1601197 L89.1234043,37.3597241 C89.1234043,50.7205968 78.2922769,61.5517241 64.9314043,61.5517241 L28.8217872,61.5517241 C17.811517,61.5517241 8.51916754,54.1964314 5.59031774,44.1314249 Z" id="Combined-Shape" fill="url(#linearGradient-18)"></path><path d="M70.8990851,7.7097485 C70.8978772,7.71685966 70.8966466,7.72396922 70.8953933,7.73107714 C70.1648096,11.8744229 61.9888433,13.8960554 52.6338612,12.2465196 C47.1798042,11.2848222 42.5291137,9.28760634 39.7436677,6.96811971 L64.9314043,6.96811971 C66.9908713,6.96811971 68.9902324,7.2254635 70.8990851,7.7097485 Z" id="Combined-Shape" fill="#0D6574" opacity="0.400000006"></path><path d="M18.1951159,59.0988779 C19.0248929,59.1849188 19.8671263,59.2290176 20.7196596,59.2290176 L56.8292766,59.2290176 C70.1901493,59.2290176 81.0212766,48.3978902 81.0212766,35.0370176 L81.0212766,21.8692934 C81.0212766,18.0165242 80.1206391,14.3741101 78.5184155,11.1411024 C84.9192339,15.4938235 89.1234043,22.8360033 89.1234043,31.1601197 L89.1234043,37.3597241 C89.1234043,50.7205968 78.2922769,61.5517241 64.9314043,61.5517241 L28.8217872,61.5517241 C25.0092917,61.5517241 21.4027766,60.6698173 18.1951159,59.0988779 Z" id="Combined-Shape" fill="#0D6574" opacity="0.300000012"></path><ellipse id="Oval-79" fill="#0D6574" cx="15.6255319" cy="23.8077424" rx="2.89361702" ry="2.90338321"></ellipse><path d="M19.3615453,14.5938197 C19.3615453,14.3002471 18.8017393,12.6057624 17.6821274,9.51036585 C23.32839,7.50646829 27.4653129,6.61856933 30.0928963,6.84666897 C30.4976742,11.4960999 19.3615453,15.0341788 19.3615453,14.5938197 Z" id="Path-297" fill="#0D6574" opacity="0.400000006"></path><path d="M19.2348515,14.9835128 L19.2348515,0.132690255 C27.1828043,4.30797443 31.1715643,9.2582486 31.2011316,14.9835128" id="Path-296" fill="url(#linearGradient-19)"></path><path d="M38.7662979,9.29082628 L57.3017872,9.29082628 C58.2561353,9.29082628 59.0297872,10.0644782 59.0297872,11.0188263 L59.0297872,11.0468861 C59.0297872,12.0012342 58.2561353,12.7748861 57.3017872,12.7748861 L38.7662979,12.7748861 C37.8119498,12.7748861 37.0382979,12.0012342 37.0382979,11.0468861 L37.0382979,11.0188263 C37.0382979,10.0644782 37.8119498,9.29082628 38.7662979,9.29082628 Z" id="Rectangle-75" fill="#0D6574"></path><rect id="Rectangle-76-Copy" fill="#3FA68B" x="61.3446809" y="59.2290176" width="9.25957447" height="8.129473" rx="1.152"></rect><rect id="Rectangle-76-Copy-2" fill="#3FA68B" x="25.4638298" y="59.2290176" width="9.25957447" height="8.129473" rx="1.152"></rect></g></g><path d="M43.1979282,49.3162953 C32.1814557,54.6642262 26.420791,57.1255747 25.9159341,56.7003407 C25.4110771,56.2751068 23.4981876,54.2946903 20.1772656,50.7590914 L22.4361644,72.6336258 L49.9150534,71.2344028 L43.1979282,49.3162953 Z" id="Path-301" fill="#0D6574" opacity="0.400000006"></path><ellipse id="Oval-82" fill="#0D6574" transform="translate(11.200000, 75.575472) rotate(58.000000) translate(-11.200000, -75.575472) " cx="11.2" cy="75.5754717" rx="12" ry="5.61320755"></ellipse><path d="M20.1782338,50.406019 L20.8056262,54.7757603 C21.206742,57.5695017 23.7607108,59.5349868 26.5640141,59.2073044 L43.2036085,49.1058789 L49.1360389,54.8742319 C53.8222978,59.4308811 53.9273673,66.9237385 49.3707181,71.6099975 C48.8558708,72.1394891 48.2925923,72.6196277 47.6882527,73.0441308 C47.6882527,73.0441308 47.6882527,73.0441308 47.6882527,73.0441308 C43.1194571,76.2533662 26.2592216,79.8948843 21.5264371,78.9776714 C20.6958848,78.8167104 18.4062667,80.8849641 17.1709665,80.5648242 C13.088147,79.5067223 10.0826302,75.4458559 8.15441597,68.3822249 L10.0043916,65.4302797 L10.0076515,65.4216362 C12.1706073,59.6866563 15.6550347,54.5423267 20.1782338,50.406019 Z" id="Path-300" fill="url(#linearGradient-1)"></path></g><ellipse id="Oval-83" fill="url(#linearGradient-1)" opacity="0.400000006" cx="12.4" cy="22.0518868" rx="12.4" ry="12.4292453"></ellipse><g id="Group-138" transform="translate(103.200000, 69.764151)"><ellipse id="Oval-80" fill="#AFFFAA" cx="15.6" cy="15.6367925" rx="15.6" ry="15.6367925"></ellipse><ellipse id="Oval-80-Copy" fill="#0D6574" opacity="0.300000012" cx="15.6" cy="15.6367925" rx="11.6" ry="11.6273585"></ellipse><path d="M19.2,17.5067988 C19.2,19.1735436 17.9570248,20.1491991 16.2909091,20.3795622 L16.2909091,22.4528302 L14.5322314,22.4528302 L14.5322314,20.3660115 C13.2892562,20.1898515 12.0859504,19.6613714 11.2,18.916079 L12.138843,16.9783188 C13.0909091,17.8184666 14.5322314,18.4147005 15.4975207,18.4147005 C16.2115702,18.4147005 16.661157,18.1436851 16.661157,17.6423065 C16.661157,16.0297648 11.7818182,17.0054203 11.7818182,13.6448291 C11.7818182,12.1406936 12.8396694,11.0972842 14.5322314,10.812718 L14.5322314,8.82075472 L16.2909091,8.82075472 L16.2909091,10.7991673 C17.3752066,10.9211242 18.4066116,11.3005458 19.1867769,11.8154751 L18.2743802,13.7803368 C17.2958678,13.2112045 16.0528926,12.764029 15.2859504,12.764029 C14.7041322,12.764029 14.3206612,12.9808414 14.3206612,13.414466 C14.3206612,14.9863555 19.2,14.0920046 19.2,17.5067988 Z" id="$" fill="#0D6574"></path></g></g></g></g></g></g></svg> 