<?xml version="1.0" encoding="UTF-8"?> <svg xmlns="http://www.w3.org/2000/svg" xmlns:xlink="http://www.w3.org/1999/xlink" width="90px" height="118px" viewBox="0 0 90 118"><!-- Generator: Sketch 52.6 (67491) - http://www.bohemiancoding.com/sketch --><title>Creative Environment</title><desc>Created with Sketch.</desc><defs><path d="M13.296922,39.6689189 L22.7359654,39.6689189 L5.58025758,82.7074709 C5.21873661,83.6144191 4.34097412,84.2094595 3.36462762,84.2094595 C2.673648,84.2094595 2.11349834,83.6493098 2.11349834,82.9583302 C2.11349834,82.8523804 2.12695639,82.7468598 2.15354936,82.6443017 L13.296922,39.6689189 Z M34.7610773,39.6689189 L45.9044499,82.6443017 C45.9310429,82.7468598 45.944501,82.8523804 45.944501,82.9583302 C45.944501,83.6493098 45.3843513,84.2094595 44.6933717,84.2094595 C43.7170252,84.2094595 42.8392627,83.6144191 42.4777417,82.7074709 L25.3220339,39.6689189 L34.7610773,39.6689189 Z" id="path-1"></path><filter x="-37.6%" y="-23.6%" width="175.2%" height="174.1%" id="filter-2"><feOffset dx="0" dy="6" in="SourceAlpha" result="shadowOffsetOuter1"></feOffset><feGaussianBlur stdDeviation="4.5" in="shadowOffsetOuter1" result="shadowBlurOuter1"></feGaussianBlur><feColorMatrix values="0 0 0 0 0.0431372549 0 0 0 0 0.274509804 0 0 0 0 0.317647059 0 0 0 0.431046196 0" type="matrix" in="shadowBlurOuter1"></feColorMatrix></filter><radialGradient cx="10.1475267%" cy="12.3100204%" fx="10.1475267%" fy="12.3100204%" r="110.299286%" gradientTransform="translate(0.101475,0.123100),scale(1.000000,0.836926),rotate(50.542878),translate(-0.101475,-0.123100)" id="radialGradient-3"><stop stop-color="#7ECC79" offset="0%"></stop><stop stop-color="#28AD9D" offset="100%"></stop></radialGradient><path d="M15.3085315,1.73484445 L15.3085315,1.73484445 C20.6334436,-0.288536105 26.5085861,-0.328598167 31.8605963,1.62197743 L32.170282,1.73484445 C37.492605,3.67460035 41.3678099,8.31706658 42.3252013,13.900361 L47.0315336,41.3466685 C47.9745617,46.8461999 44.7491613,52.2073005 39.4486642,53.9505381 C34.1536292,55.6919793 28.8585943,56.5626999 23.5635593,56.5626999 C18.3225395,56.5626999 13.0815197,55.7096533 7.84049995,54.0035601 L7.84049979,54.0035606 C2.46109536,52.2524194 -0.784883678,46.782878 0.255122623,41.222044 L5.43006585,13.5520193 C6.43839572,8.16055687 10.1812696,3.68312113 15.3085315,1.73484445 Z" id="path-4"></path><path d="M4.68703082,43.1486486 C6.64190688,46.7322042 14.5084189,49.4121622 23.9152542,49.4121622 C33.3220896,49.4121622 41.1886016,46.7322042 43.1434777,43.1486486 C43.4490409,43.708788 43.6101695,44.2910042 43.6101695,44.8885135 C43.6101695,49.3086573 34.7924556,52.8918919 23.9152542,52.8918919 C13.0380529,52.8918919 4.22033898,49.3086573 4.22033898,44.8885135 C4.22033898,44.2910042 4.38146756,43.708788 4.68703082,43.1486486 Z" id="path-6"></path><filter x="-41.9%" y="-107.8%" width="183.8%" height="438.7%" id="filter-7"><feOffset dx="0" dy="6" in="SourceAlpha" result="shadowOffsetOuter1"></feOffset><feGaussianBlur stdDeviation="4.5" in="shadowOffsetOuter1" result="shadowBlurOuter1"></feGaussianBlur><feColorMatrix values="0 0 0 0 0.0431372549 0 0 0 0 0.274509804 0 0 0 0 0.317647059 0 0 0 0.431046196 0" type="matrix" in="shadowBlurOuter1"></feColorMatrix></filter><radialGradient cx="10.1475267%" cy="12.3100204%" fx="10.1475267%" fy="12.3100204%" r="100.49407%" gradientTransform="translate(0.101475,0.123100),scale(0.989417,1.000000),rotate(45.173121),translate(-0.101475,-0.123100)" id="radialGradient-8"><stop stop-color="#7ECC79" offset="0%"></stop><stop stop-color="#28AD9D" offset="100%"></stop></radialGradient><radialGradient cx="10.1475267%" cy="12.3100204%" fx="10.1475267%" fy="12.3100204%" r="1060.12192%" gradientTransform="translate(0.101475,0.123100),scale(1.000000,0.067380),rotate(86.208837),translate(-0.101475,-0.123100)" id="radialGradient-9"><stop stop-color="#7ECC79" offset="0%"></stop><stop stop-color="#28AD9D" offset="100%"></stop></radialGradient></defs><g id="Home" stroke="none" stroke-width="1" fill="none" fill-rule="evenodd"><g id="Careers" transform="translate(-931.000000, -2755.000000)"><g id="Group-2" transform="translate(126.000000, 2717.000000)"><g id="Creative-Environment" transform="translate(774.000000, 18.000000)"><rect id="Rectangle" fill-rule="nonzero" x="0" y="0" width="144" height="144"></rect><g id="Group-150" transform="translate(31.000000, 20.000000)"><g id="Group-148" transform="translate(35.169492, 18.790541)"><g id="Combined-Shape"><use fill="black" fill-opacity="1" filter="url(#filter-2)" xlink:href="#path-1"></use><use fill="#0D6574" fill-rule="evenodd" xlink:href="#path-1"></use></g><g id="Group-147"><mask id="mask-5" fill="white"><use xlink:href="#path-4"></use></mask><use id="Rectangle" fill="url(#radialGradient-3)" xlink:href="#path-4"></use><rect id="Rectangle" fill="#000000" fill-rule="nonzero" opacity="0.100000001" mask="url(#mask-5)" x="23.9152542" y="-7.65540541" width="28.1355932" height="73.7702703"></rect><g id="Combined-Shape" mask="url(#mask-5)"><use fill="black" fill-opacity="1" filter="url(#filter-7)" xlink:href="#path-6"></use><use fill="#FFFFFF" fill-rule="evenodd" xlink:href="#path-6"></use></g></g></g><path d="M11.0989363,8.14934906e-11 L21.2569959,8.14939227e-11 C24.7183478,8.14932869e-11 27.6661803,2.51618384 28.2096711,5.93460089 L32.3559322,32.0135135 L0,32.0135135 L4.14626109,5.93460089 C4.68975191,2.51618384 7.63758435,8.14927822e-11 11.0989363,8.14921464e-11 Z" id="Rectangle" fill="url(#radialGradient-8)"></path><path d="M13.3644068,34.7972973 L19.6949153,34.7972973 L19.6949153,99.8347458 C19.6949153,101.582867 18.2777827,103 16.529661,103 L16.529661,103 C14.7815394,103 13.3644068,101.582867 13.3644068,99.8347458 L13.3644068,34.7972973 Z" id="Rectangle" fill="#0D6574"></path><path d="M7.73728814,34.7972973 L9.1440678,34.7972973 L9.1440678,54.9722858 C9.1440678,55.3607573 8.82914944,55.6756757 8.44067797,55.6756757 L8.44067797,55.6756757 C8.05220649,55.6756757 7.73728814,55.3607573 7.73728814,54.9722858 L7.73728814,34.7972973 Z" id="Rectangle" fill="url(#radialGradient-9)"></path></g></g></g></g></g></svg> 