<?xml version="1.0" encoding="UTF-8"?> <svg xmlns="http://www.w3.org/2000/svg" xmlns:xlink="http://www.w3.org/1999/xlink" width="322px" height="40px" viewBox="0 0 322 40"><!-- Generator: Sketch 52.6 (67491) - http://www.bohemiancoding.com/sketch --><title>csswinner-logo2</title><desc>Created with Sketch.</desc><g id="Pages" stroke="none" stroke-width="1" fill="none" fill-rule="evenodd"><g id="Technology-Template" transform="translate(-204.000000, -4095.000000)" fill="#156573"><g id="Group-5" transform="translate(204.000000, 3999.000000)"><g id="csswinner-logo2" transform="translate(0.000000, 96.000000)"><path d="M19.3347945,0 C16.3879452,0 13.6909589,0.534794521 11.3183562,1.5830137 C8.94630137,2.63123288 6.89369863,4.09589041 5.21863014,5.93753425 C3.54794521,7.77917808 2.24547945,9.97643836 1.35123288,12.4717808 C0.456438356,14.9621918 0,17.6854795 0,20.5709589 C0,23.3161644 0.429589041,25.8871233 1.27123288,28.210411 C2.11342466,30.5391781 3.33260274,32.5791781 4.89369863,34.2712329 C6.45041096,35.9643836 8.36219178,37.3063014 10.5726027,38.2619178 C12.7780822,39.2131507 15.2646575,39.6958904 17.9660274,39.6958904 C21.7331507,39.6958904 25.1358904,38.9939726 28.0827397,37.6120548 L28.2756164,37.52 L28.2756164,33.3139726 L27.7758904,33.5912329 C25.0832877,35.0821918 21.9172603,35.8367123 18.3605479,35.8367123 C16.0542466,35.8367123 14.0016438,35.4246575 12.269589,34.6093151 C10.5331507,33.7884932 9.05972603,32.6712329 7.89753425,31.2767123 C6.7309589,29.8767123 5.83232877,28.220274 5.23561644,26.3517808 C4.63506849,24.470137 4.33260274,22.44 4.33260274,20.3128767 C4.33260274,17.940274 4.67013699,15.7216438 5.34082192,13.7221918 C6.00767123,11.7309589 6.98520548,9.98136986 8.24821918,8.52109589 C9.50684932,7.06520548 11.0810959,5.91616438 12.9189041,5.09643836 C14.7605479,4.27616438 16.900274,3.86410959 19.2816438,3.86410959 C22.2854795,3.86410959 25.1446575,4.53479452 27.7890411,5.85479452 L28.2756164,6.09589041 L28.2756164,1.58082192 L28.0613699,1.49589041 C25.5090411,0.504109589 22.5709589,0 19.3347945,0" id="Path"></path><path d="M54.8641096,23.1238356 C54.070137,22.2378082 53.0619178,21.3780822 51.8690411,20.5665753 C50.6893151,19.7687671 49.290411,18.9353425 47.7073973,18.0893151 C46.2120548,17.2909589 44.9271233,16.5715068 43.8920548,15.9539726 C42.8794521,15.3490411 42.050411,14.730411 41.4323288,14.1210959 C40.8268493,13.5243836 40.3841096,12.8887671 40.1123288,12.2219178 C39.8405479,11.5556164 39.7041096,10.7441096 39.7041096,9.81041096 C39.7041096,8.83671233 39.9063014,7.9769863 40.3052055,7.24931507 C40.7084932,6.51671233 41.270137,5.89424658 41.9671233,5.40328767 C42.6778082,4.89863014 43.5194521,4.51287671 44.4668493,4.25424658 C45.4268493,3.99123288 46.4619178,3.85972603 47.549589,3.85972603 C50.4745205,3.85972603 53.0575342,4.4909589 55.2235616,5.73643836 L55.7282192,6.02575342 L55.7282192,1.35068493 L55.5172603,1.2630137 C53.4871233,0.425205479 50.9391781,0 47.9441096,0 C46.2339726,0 44.6027397,0.236712329 43.0942466,0.701369863 C41.5813699,1.16657534 40.2394521,1.84164384 39.1079452,2.71452055 C37.9720548,3.59123288 37.0558904,4.66575342 36.3846575,5.91561644 C35.7139726,7.16986301 35.3715068,8.60383562 35.3715068,10.1780822 C35.3715068,11.4235616 35.5517808,12.5506849 35.9068493,13.5282192 C36.2619178,14.5106849 36.8230137,15.4405479 37.5775342,16.2821918 C38.3189041,17.1156164 39.2876712,17.9391781 40.4542466,18.7336986 C41.6076712,19.5139726 43.0109589,20.3561644 44.6246575,21.2339726 C46.0673973,22.0367123 47.3391781,22.7643836 48.4049315,23.4 C49.4482192,24.0279452 50.3210959,24.6630137 51.0049315,25.289863 C51.6673973,25.9084932 52.1627397,26.5753425 52.4783562,27.2717808 C52.790137,27.9736986 52.9479452,28.8076712 52.9479452,29.7545205 C52.9479452,31.7309589 52.2942466,33.2049315 50.9479452,34.2482192 C49.5928767,35.300274 47.5013699,35.8350685 44.7342466,35.8350685 C44.0191781,35.8350685 43.2564384,35.770411 42.4712329,35.6416438 C41.6865753,35.5150685 40.8926027,35.3205479 40.1123288,35.0761644 C39.3358904,34.8257534 38.5643836,34.5161644 37.8186301,34.1473973 C37.0778082,33.7824658 36.3934247,33.3610959 35.779726,32.9052055 L35.24,32.4969863 L35.24,37.4624658 L35.3983562,37.5654795 C35.8936986,37.8739726 36.5424658,38.1660274 37.3276712,38.4273973 C38.0947945,38.6838356 38.9194521,38.9117808 39.770411,39.0958904 C40.6164384,39.28 41.4673973,39.4268493 42.300274,39.5189041 C43.1336986,39.6219178 43.8657534,39.6673973 44.4712329,39.6673973 C46.3172603,39.6673973 48.0361644,39.449863 49.5841096,39.0213699 C51.1452055,38.5928767 52.5090411,37.9424658 53.6449315,37.100274 C54.789589,36.2438356 55.6887671,35.1578082 56.3243836,33.859726 C56.96,32.5676712 57.2805479,31.0482192 57.2805479,29.3561644 C57.2805479,28.1276712 57.0789041,26.9928767 56.6750685,25.9841096 C56.2761644,24.9780822 55.6668493,24.0180822 54.8641096,23.1238356" id="Path"></path><path d="M85.4383562,25.9873973 C85.0394521,24.9780822 84.429589,24.0180822 83.6273973,23.1232877 C82.8334247,22.2372603 81.8252055,21.3764384 80.6323288,20.5660274 C79.4526027,19.7687671 78.0536986,18.9347945 76.4706849,18.0887671 C74.9753425,17.290411 73.690411,16.5709589 72.6553425,15.9534247 C71.6421918,15.3484932 70.8136986,14.729863 70.1950685,14.1205479 C69.590137,13.5238356 69.1473973,12.8882192 68.8756164,12.2213699 C68.6032877,11.5550685 68.4673973,10.7435616 68.4673973,9.80986301 C68.4673973,8.83616438 68.6690411,7.9769863 69.0684932,7.24876712 C69.4717808,6.51616438 70.0328767,5.89369863 70.730411,5.40273973 C71.4405479,4.89808219 72.2827397,4.51232877 73.230137,4.25369863 C74.190137,3.99068493 75.2252055,3.85917808 76.3128767,3.85917808 C79.2378082,3.85917808 81.820274,4.49041096 83.9868493,5.73589041 L84.4909589,6.02520548 L84.4909589,1.35068493 L84.2805479,1.2630137 C82.250411,0.425205479 79.7024658,0 76.7073973,0 C74.9972603,0 73.3660274,0.236712329 71.8575342,0.701369863 C70.3446575,1.16657534 69.0027397,1.84164384 67.8712329,2.71452055 C66.7353425,3.59123288 65.8186301,4.66575342 65.1479452,5.91561644 C64.4767123,7.16986301 64.1347945,8.60383562 64.1347945,10.1780822 C64.1347945,11.4235616 64.3145205,12.5506849 64.670137,13.5282192 C65.0252055,14.5106849 65.5863014,15.4405479 66.3408219,16.2821918 C67.0816438,17.1156164 68.0509589,17.9391781 69.2175342,18.7336986 C70.3709589,19.5150685 71.7742466,20.3561644 73.3879452,21.2339726 C74.8306849,22.0367123 76.1024658,22.7643836 77.1676712,23.4 C78.2115068,24.0279452 79.0843836,24.6630137 79.7682192,25.2909589 C80.4306849,25.9084932 80.9260274,26.5753425 81.2416438,27.2717808 C81.5528767,27.9736986 81.7106849,28.8076712 81.7106849,29.7545205 C81.7106849,31.7309589 81.0575342,33.2049315 79.7112329,34.2482192 C78.3561644,35.300274 76.2646575,35.8350685 73.4975342,35.8350685 C72.7824658,35.8350685 72.019726,35.770411 71.2345205,35.6416438 C70.449863,35.5150685 69.6558904,35.3205479 68.8756164,35.0761644 C68.0991781,34.8257534 67.3271233,34.5161644 66.5819178,34.1473973 C65.8405479,33.7824658 65.1567123,33.3610959 64.5430137,32.9052055 L64.0032877,32.4980822 L64.0032877,37.4624658 L64.1610959,37.5654795 C64.6569863,37.8739726 65.3057534,38.1660274 66.0909589,38.4273973 C66.8580822,38.6838356 67.6827397,38.9117808 68.5331507,39.0958904 C69.379726,39.28 70.230137,39.4268493 71.0635616,39.5189041 C71.8969863,39.6219178 72.6290411,39.6673973 73.2345205,39.6673973 C75.0805479,39.6673973 76.7994521,39.449863 78.3473973,39.0213699 C79.9084932,38.5928767 81.2723288,37.9424658 82.4082192,37.100274 C83.5528767,36.2438356 84.4515068,35.1578082 85.0876712,33.859726 C85.7232877,32.5676712 86.0432877,31.0493151 86.0432877,29.3561644 C86.0432877,28.1309589 85.8416438,26.9956164 85.4383562,25.9873973" id="Path"></path><rect id="Rectangle" x="160.413151" y="0.644383562" width="4.17479452" height="38.4060274"></rect><path d="M246.543562,32.0717808 C246.509589,32.0235616 222.219178,0.644931507 222.219178,0.644931507 L217.84,0.644931507 L217.84,39.0509589 L222.013699,39.0509589 C222.013699,39.0509589 222.002192,7.93369863 221.97863,7.36767123 C221.990137,7.38520548 246.579178,39.0509589 246.579178,39.0509589 L250.723288,39.0509589 L250.723288,0.644383562 L246.52274,0.644383562 C246.525479,0.644383562 246.526575,31.8263014 246.543562,32.0717808" id="Path"></path><path d="M203.490411,32.0717808 C203.45863,32.0235616 179.169315,0.644931507 179.169315,0.644931507 L174.789589,0.644931507 L174.789589,39.0509589 L178.96274,39.0509589 C178.96274,39.0509589 178.950685,7.93369863 178.924932,7.36767123 C178.936986,7.38520548 203.528219,39.0509589 203.528219,39.0509589 L207.672329,39.0509589 L207.672329,0.644383562 L203.471781,0.644383562 C203.471781,0.644383562 203.472877,31.8263014 203.490411,32.0717808" id="Path"></path><polygon id="Path" points="265.075068 21.5282192 281.139178 21.5282192 281.139178 17.6942466 265.075068 17.6942466 265.075068 4.52986301 284.436164 4.52986301 284.436164 0.644931507 260.900274 0.644931507 260.900274 39.050411 285.27726 39.050411 285.27726 35.1912329 265.075068 35.1912329"></polygon><path d="M314.602192,26.8684932 C314.179726,26.0805479 313.768767,25.3649315 313.380822,24.7463014 C312.991233,24.1243836 312.586849,23.5627397 312.183014,23.08 C311.775342,22.5890411 311.346301,22.1682192 310.911781,21.8213699 C310.671781,21.6284932 310.412055,21.4575342 310.140274,21.3046575 C311.206027,21.0060274 312.183562,20.6060274 313.065205,20.1057534 C314.156712,19.4827397 315.095342,18.7156164 315.863562,17.8208219 C316.633973,16.9260274 317.235616,15.8871233 317.647671,14.7293151 C318.06411,13.5758904 318.275616,12.2953425 318.275616,10.9315068 C318.275616,9.23890411 317.945753,7.7260274 317.305753,6.44109589 C316.660274,5.15616438 315.796712,4.07342466 314.726575,3.22246575 C313.664658,2.37589041 312.43726,1.72712329 311.078356,1.29753425 C309.727671,0.86739726 308.306301,0.648219178 306.86411,0.648219178 L293.524384,0.648219178 L293.524384,39.0536986 L297.69863,39.0536986 L297.69863,22.6323288 L303.649863,22.6323288 C304.404384,22.6323288 305.092603,22.72 305.70137,22.8953425 C306.29863,23.0668493 306.867945,23.3556164 307.390137,23.7550685 C307.925479,24.1638356 308.450959,24.7243836 308.953973,25.410411 C309.467945,26.1167123 310.006027,27.0027397 310.56274,28.0547945 L316.243836,38.8663014 L316.343014,39.0443836 L321.214795,39.0443836 L314.602192,26.8684932 Z M297.70137,4.53041096 L306.046575,4.53041096 C308.615342,4.53041096 310.598356,5.13534247 311.940274,6.32383562 C313.269589,7.50794521 313.943562,9.16109589 313.943562,11.2443836 C313.943562,12.4016438 313.746849,13.4542466 313.351781,14.3753425 C312.962192,15.2915068 312.404384,16.0854795 311.696438,16.729863 C310.990137,17.3841096 310.122192,17.8882192 309.11726,18.2427397 C308.104658,18.5945205 306.972603,18.7742466 305.754521,18.7742466 L297.69863,18.7742466 L297.70137,4.53041096 Z" id="Shape" fill-rule="nonzero"></path><polygon id="Path" points="92.0887671 0.644931507 117.893699 39.0438356 120.134247 35.7561644 96.5660274 0.644931507"></polygon><polygon id="Path" points="149.143562 0.644931507 127.83726 32.4438356 112.432329 9.25424658 107.900274 9.25424658 127.888219 39.0482192 153.629589 0.644931507"></polygon><polygon id="Path" points="143.6 0.644931507 139.120548 0.644931507 125.597808 20.8843836 127.820822 24.2021918"></polygon></g></g></g></g></svg> 