<?xml version="1.0" encoding="UTF-8"?> <svg xmlns="http://www.w3.org/2000/svg" xmlns:xlink="http://www.w3.org/1999/xlink" width="38px" height="35px" viewBox="0 0 38 35"><!-- Generator: Sketch 52.6 (67491) - http://www.bohemiancoding.com/sketch --><title>Custom Equipment</title><desc>Created with Sketch.</desc><defs><linearGradient x1="100%" y1="0%" x2="0%" y2="100%" id="linearGradient-1"><stop stop-color="#8CD987" offset="0%"></stop><stop stop-color="#1FA595" offset="100%"></stop></linearGradient><path d="M1.1495,2.45945946 L6.86357521,2.45945946 L7.53305272,0.826358454 C7.70998365,0.394759074 8.13019377,0.112872693 8.59665125,0.112872693 L13.291541,0.112872693 C13.7521518,0.112872693 14.1682861,0.38782675 14.3489402,0.811532251 L15.0515625,2.45945946 L20.8489375,2.45945946 C21.4837888,2.45945946 21.9984375,2.97410814 21.9984375,3.60895946 L21.9984375,17.2018514 C21.9984375,17.8367027 21.4837888,18.3513514 20.8489375,18.3513514 L1.1495,18.3513514 C0.51464868,18.3513514 7.77468637e-17,17.8367027 0,17.2018514 L-2.22044605e-16,3.60895946 C-5.8172209e-16,2.97410814 0.51464868,2.45945946 1.1495,2.45945946 Z" id="path-2"></path></defs><g id="Home" stroke="none" stroke-width="1" fill="none" fill-rule="evenodd"><g id="Careers" transform="translate(-626.000000, -4299.000000)"><g id="Group-13" transform="translate(200.000000, 4293.000000)"><g id="content"><g id="Custom-Equipment" transform="translate(425.000000, 3.000000)"><polygon id="Rectangle-38" points="0 0 40 0 40 40 0 40"></polygon><g id="Group-8" transform="translate(1.000000, 3.000000)"><g id="Group-7"><rect id="Rectangle" fill="url(#linearGradient-1)" x="0" y="0" width="23.15625" height="29.5135135"></rect><path d="M3.465125,2.27027027 L19.691125,2.27027027 C20.3259763,2.27027027 20.840625,2.78491895 20.840625,3.41977027 L20.840625,23.823473 C20.840625,24.4583243 20.3259763,24.972973 19.691125,24.972973 L3.465125,24.972973 C2.83027368,24.972973 2.315625,24.4583243 2.315625,23.823473 L2.315625,3.41977027 C2.315625,2.78491895 2.83027368,2.27027027 3.465125,2.27027027 Z" id="Rectangle" fill="#D9F1EE"></path><ellipse id="Oval" fill="#D9F1EE" cx="11.578125" cy="27.2432432" rx="1.1578125" ry="1.13513514"></ellipse></g><g id="Group-5" transform="translate(15.051562, 15.702703)"><g id="Group-6"><mask id="mask-3" fill="white"><use xlink:href="#path-2"></use></mask><use id="Rectangle" fill="url(#linearGradient-1)" xlink:href="#path-2"></use><path d="M-2.315625,1.32432432 C2.92219811,-0.552950413 7.35591366,-1.49158778 10.9855216,-1.49158778 C14.6151296,-1.49158778 18.6720391,-0.552950413 23.15625,1.32432432 L23.15625,7 L-2.315625,7 L-2.315625,1.32432432 Z" id="Rectangle" fill="#0D6574" mask="url(#mask-3)"></path><ellipse id="Oval" fill="#D9F1EE" mask="url(#mask-3)" cx="10.4203125" cy="11.5405405" rx="5.7890625" ry="5.67567568"></ellipse><ellipse id="Oval" fill="#0D6574" mask="url(#mask-3)" cx="10.4203125" cy="11.5405405" rx="4.63125" ry="4.54054054"></ellipse></g></g></g></g></g></g></g></g></svg> 