<?xml version="1.0" encoding="UTF-8"?> <svg xmlns="http://www.w3.org/2000/svg" xmlns:xlink="http://www.w3.org/1999/xlink" width="71px" height="57px" viewBox="0 0 71 57"><!-- Generator: Sketch 52.5 (67469) - http://www.bohemiancoding.com/sketch --><title>CUSTOMER ONBOARDING</title><desc>Created with Sketch.</desc><defs><radialGradient cx="10.1475267%" cy="12.3100204%" fx="10.1475267%" fy="12.3100204%" r="118.356435%" gradientTransform="translate(0.101475,0.123100),scale(1.000000,0.747368),rotate(53.683966),translate(-0.101475,-0.123100)" id="radialGradient-1"><stop stop-color="#7ECC79" offset="0%"></stop><stop stop-color="#28AD9D" offset="100%"></stop></radialGradient></defs><g id="Pages" stroke="none" stroke-width="1" fill="none" fill-rule="evenodd"><g id="Messaging" transform="translate(-424.000000, -1852.000000)"><g id="Feature-(8-icons)" transform="translate(0.000000, 1249.000000)"><g id="CUSTOMER-ONBOARDING" transform="translate(418.000000, 590.000000)"><rect id="Rectangle-8-Copy-9" x="0" y="0" width="83" height="83" rx="12"></rect><g id="Group-58" transform="translate(6.000000, 13.000000)"><path d="M20.815,0 L56.8,0 L56.8,50.385 C56.8,54.0383636 53.8383636,57 50.185,57 L14.2,57 L14.2,6.615 C14.2,2.96163638 17.1616364,2.44746885e-15 20.815,1.77635684e-15 Z" id="Rectangle-38" fill="url(#radialGradient-1)"></path><path d="M35.5,0 L56.8,0 L56.8,50.385 C56.8,54.0383636 53.8383636,57 50.185,57 L35.5,57 L35.5,0 Z" id="Rectangle-38-Copy" fill="#0D6574" opacity="0.200000003"></path><ellipse id="Oval-26" fill="#0D505D" cx="35.5" cy="20.6764706" rx="4.91538462" ry="5.02941176"></ellipse><path d="M35.5672456,43.5882353 L43.826799,37.5099821 C43.826799,32.8425361 40.128871,29.0588235 35.5672456,29.0588235 C31.0056203,29.0588235 27.3076923,32.8425361 27.3076923,37.5099821 L35.5672456,43.5882353 Z" id="Oval-26-Copy" fill="#0D505D"></path><path d="M6.615,16.7647059 L10.9230769,16.7647059 L10.9230769,57 L6.615,57 C2.96163638,57 1.33558643e-15,54.0383636 8.8817842e-16,50.385 L8.8817842e-16,23.3797059 C4.40770413e-16,19.7263423 2.96163638,16.7647059 6.615,16.7647059 Z" id="Rectangle-39" fill="#0D505D"></path><path d="M60.0769231,0 L64.385,0 C68.0383636,-6.7111201e-16 71,2.96163638 71,6.615 L71,33.6202941 C71,37.2736577 68.0383636,40.2352941 64.385,40.2352941 L60.0769231,40.2352941 L60.0769231,0 Z" id="Rectangle-39-Copy" fill="#6AC264"></path></g></g></g></g></g></svg> 