<?xml version="1.0" encoding="UTF-8"?> <svg xmlns="http://www.w3.org/2000/svg" xmlns:xlink="http://www.w3.org/1999/xlink" width="64px" height="66px" viewBox="0 0 64 66"><!-- Generator: Sketch 52.5 (67469) - http://www.bohemiancoding.com/sketch --><title>CUSTOM DEVELOPMENT</title><desc>Created with Sketch.</desc><defs><radialGradient cx="10.1475267%" cy="12.3100204%" fx="10.1475267%" fy="12.3100204%" r="120.792975%" gradientTransform="translate(0.101475,0.123100),scale(0.718750,1.000000),rotate(36.160867),translate(-0.101475,-0.123100)" id="radialGradient-1"><stop stop-color="#7ECC79" offset="0%"></stop><stop stop-color="#28AD9D" offset="100%"></stop></radialGradient></defs><g id="Pages" stroke="none" stroke-width="1" fill="none" fill-rule="evenodd"><g id="Messaging" transform="translate(-926.000000, -1638.000000)"><g id="Feature-(8-icons)" transform="translate(0.000000, 1249.000000)"><g id="CUSTOM-DEVELOPMENT" transform="translate(916.000000, 380.000000)"><rect id="Rectangle-8-Copy-8" x="0" y="0" width="83" height="83" rx="12"></rect><g id="Group-47" transform="translate(10.000000, 9.000000)"><path d="M8,0 L56,0 C60.418278,0 64,3.581722 64,8 L64,38 C64,42.418278 60.418278,46 56,46 L8,46 C3.581722,46 0,42.418278 0,38 L0,8 C0,3.581722 3.581722,0 8,0 Z" id="Rectangle-28" fill="url(#radialGradient-1)" fill-rule="nonzero"></path><path d="M31.9994981,0 L56,0 C60.418278,-8.8817842e-16 64,3.581722 64,8 L64,38 C64,42.418278 60.418278,46 56,46 L31.9994981,46 L31.9994981,0 Z" id="Rectangle-28-Copy" fill="#0D6574" fill-rule="nonzero" opacity="0.200000003"></path><rect id="Rectangle-32" fill="#137383" x="1" y="51" width="61" height="15" rx="3"></rect><path d="M31.5,51 L59,51 C60.6568542,51 62,52.3431458 62,54 L62,63 C62,64.6568542 60.6568542,66 59,66 L31.5,66 L31.5,51 Z" id="Rectangle-32-Copy" fill="#04353D" opacity="0.200000003"></path><g id="Group-46" transform="translate(15.500000, 16.000000)" stroke="#0B4651" stroke-linecap="round" stroke-linejoin="round" stroke-width="2.5"><polyline id="Rectangle-33" points="7.1390873 14.2781746 0 7.1390873 7.1390873 0 7.1390873 0"></polyline><polyline id="Rectangle-33-Copy" transform="translate(28.569544, 7.139087) scale(-1, -1) translate(-28.569544, -7.139087) " points="32.1390873 14.2781746 25 7.1390873 32.1390873 0 32.1390873 0"></polyline><path d="M13.0612778,14.8117491 L19.2579917,0.0287984156" id="Path-97"></path></g></g></g></g></g></g></svg> 