<?xml version="1.0" encoding="UTF-8"?> <svg xmlns="http://www.w3.org/2000/svg" xmlns:xlink="http://www.w3.org/1999/xlink" width="708px" height="426px" viewBox="0 0 708 426"><!-- Generator: Sketch 52.5 (67469) - http://www.bohemiancoding.com/sketch --><title>Custom Applications</title><desc>Created with Sketch.</desc><defs><linearGradient x1="113.153674%" y1="0%" x2="-24.5716445%" y2="140.05799%" id="linearGradient-1"><stop stop-color="#7ECC79" offset="0%"></stop><stop stop-color="#33BAAA" offset="100%"></stop></linearGradient><linearGradient x1="57.6964029%" y1="-28.1753217%" x2="43.1413235%" y2="92.9334256%" id="linearGradient-2"><stop stop-color="#65B460" offset="0%"></stop><stop stop-color="#20887C" offset="100%"></stop></linearGradient><linearGradient x1="57.6964029%" y1="-28.1753217%" x2="43.1413235%" y2="92.9334256%" id="linearGradient-3"><stop stop-color="#7ECC79" offset="0%"></stop><stop stop-color="#33BAAA" offset="100%"></stop></linearGradient><linearGradient x1="101.209503%" y1="66.4060919%" x2="1.43722966%" y2="26.6857839%" id="linearGradient-4"><stop stop-color="#61C58B" offset="0%"></stop><stop stop-color="#33BAAA" offset="100%"></stop></linearGradient><linearGradient x1="2.88529403%" y1="95.9689527%" x2="98.5564819%" y2="0%" id="linearGradient-5"><stop stop-color="#AAE2D4" offset="0%"></stop><stop stop-color="#4BBB65" offset="26.6711251%"></stop><stop stop-color="#33BAAA" offset="100%"></stop></linearGradient></defs><g id="Pages" stroke="none" stroke-width="1" fill="none" fill-rule="evenodd"><g id="Business-Intelligence" transform="translate(-752.000000, -2491.000000)"><g id="Integration" transform="translate(0.000000, 2299.000000)"><g id="Custom-Applications" transform="translate(753.000000, 192.000000)"><path d="M310.060307,383.999976 L91.9479049,383.999976 C113.591718,382.25102 125.210663,379.542692 126.804741,375.874993 C129.195859,370.373443 131.850086,365.7632 138.79456,365.043503 C145.739034,364.323806 148.410529,370.408552 155.148227,369.916957 C161.885925,369.425361 161.02392,361.378129 169.460827,360.317989 C177.897734,359.257848 179.169515,365.998293 184.921718,365.998293 C190.673921,365.998293 191.052559,337.883339 212.920113,336.22687 C234.787668,334.5704 231.8857,363.403743 241.024033,365.998293 C250.162366,368.592842 253.283681,363.791047 261.700165,371.133348 C267.311155,376.028216 283.431203,380.317092 310.060307,383.999976 Z" id="Path-113" fill="#D6F1EE"></path><path d="M95.0073628,149.376543 L324.675824,149.376543 C301.885276,147.534924 289.650734,144.683103 287.972198,140.821081 C285.454394,135.028048 282.659541,130.173544 275.347134,129.415716 C268.034726,128.657888 265.221691,135.065017 258.127015,134.547376 C251.032339,134.029735 251.940015,125.556143 243.056103,124.439834 C234.172191,123.323525 232.833028,130.421093 226.776061,130.421093 C220.719094,130.421093 220.320395,100.816549 197.294251,99.0723165 C174.268107,97.3280837 177.323827,127.689079 167.701326,130.421093 C158.078824,133.153107 154.792136,128.096903 145.929728,135.828215 C140.021456,140.982423 123.047334,145.498532 95.0073628,149.376543 Z" id="Path-113-Copy" fill="#D6F1EE"></path><path d="M703.224001,149.087068 L476,149.087068 C521.655236,148.064104 547.433796,141.812871 553.335679,130.333369 C562.188504,113.114115 566.865274,130.333369 572.857774,130.333369 C578.850274,130.333369 579.24473,101.043919 602.025796,99.3182511 C624.806863,97.5925829 621.783666,127.630433 631.303751,130.333369 C640.823836,133.036305 644.075543,128.033916 652.843624,135.68294 C658.689012,140.78229 675.482471,145.250332 703.224001,149.087068 Z" id="Path-113-Copy-2" fill="#D6F1EE"></path><path d="M485.747217,332.337124 L313.422424,332.337124 C348.046975,331.561317 367.597221,326.820433 372.07316,318.114474 C378.787068,305.055536 382.333892,318.114474 386.878554,318.114474 C391.423216,318.114474 391.722368,295.901599 408.99934,294.592867 C426.276312,293.284134 423.983544,316.06459 431.203497,318.114474 C438.423451,320.164359 440.889518,316.370588 447.539158,322.171545 C451.972252,326.038849 464.708272,329.427376 485.747217,332.337124 Z" id="Path-113-Copy-3" fill="#D6F1EE"></path><g id="Group-29" transform="translate(118.132503, 294.538606)"><g id="Group-19" transform="translate(66.925255, 47.000000) scale(-1, 1) translate(-66.925255, -47.000000) translate(0.925255, 0.000000)"><path d="M6.06173447,72.0978893 C35.1298085,31.4126747 65.7521696,11.8351369 97.9288179,13.365276 C106.800823,13.7871783 116.106857,14.6546908 125.846919,15.9678134 C122.976497,41.969005 89.0742057,27.4483672 91.6464037,35.3527363 C95.1978296,46.2662742 87.762742,68.47097 65.9749467,55.3707577 C44.1871514,42.2705455 51.1883102,87.2683926 28.6250224,79.683141 C13.5828304,74.6263065 6.06173447,72.0978893 6.06173447,72.0978893 Z" id="Path-31" fill="#33BAAA" transform="translate(65.954327, 46.916502) rotate(-13.000000) translate(-65.954327, -46.916502) "></path><path d="M55.7546885,53.6116819 C44.0870029,47.8455208 31.0989357,48.3317165 16.790487,55.0702691" id="Path-33" stroke="#0D6574" stroke-width="1.5"></path><path d="M85.3379275,36.0033956 C73.6702419,30.2372345 60.6821747,30.7234302 46.3737259,37.4619828" id="Path-33-Copy-2" stroke="#0D6574" stroke-width="1.5"></path><path d="M98.9642015,22.9883297 C87.2965159,17.2221686 74.3084488,17.7083643 60,24.4469169" id="Path-33-Copy" stroke="#0D6574" stroke-width="1.5"></path><path d="M70.7293664,15.0887965 C44.2966281,35.5645991 28.2099393,58.7117563 22.4692999,84.5302684" id="Path-34" stroke="#0D6574" stroke-width="1.5"></path></g><path d="M82.5537939,77.4272219 L82.5537939,27.269599 C96.8002481,40.4370731 109.17224,59.6603314 119.669769,84.9393739 L95.9802353,87.249314 C87.7229151,88.054476 84.4011727,83.443556 82.5537939,77.4272219 Z" id="Combined-Shape" fill="#075B6A" opacity="0.407325634"></path></g><rect id="Rectangle-36-Copy" fill="url(#linearGradient-1)" x="283.839185" y="132.062147" width="63.1642129" height="251.318267"></rect><polygon id="Path-65" fill="#FFD7B3" points="291.183267 124.858757 287.83692 130.79005 287.83692 132.165134 304.562046 132.165134 295.186704 128.511946"></polygon><polygon id="Path-65-Copy" fill="#FFD7B3" points="333.506394 126.473765 332.611552 130.79005 332.611552 132.165134 349.336678 132.165134 338.132617 126.473765"></polygon><rect id="Rectangle-36-Copy-3" fill="#075B6A" x="360.595696" y="188.888889" width="63.1642129" height="194.491525"></rect><polygon id="Rectangle-36-Copy-2" fill="url(#linearGradient-1)" transform="translate(530.751828, 301.095867) rotate(39.000000) translate(-530.751828, -301.095867) " points="499.169722 220.419703 562.333935 220.419703 562.333935 381.772031 499.169722 381.772031"></polygon><g id="Group-28" transform="translate(558.630958, 259.322034)"><path d="M121.312268,120.680351 C121.312268,120.76549 120.852195,121.741174 119.93205,123.607403 L136.646644,123.607403 C128.24764,121.869805 123.998372,120.664065 123.89884,119.990183 C123.612429,118.051045 121.312268,120.552643 121.312268,120.680351 Z" id="Path-92-Copy" fill="#0B4651" transform="translate(128.289347, 121.431762) scale(-1, 1) translate(-128.289347, -121.431762) "></path><path d="M80.5353709,120.680351 C80.5353709,120.76549 80.0752982,121.741174 79.1551529,123.607403 L95.869747,123.607403 C87.4707436,121.869805 83.2214755,120.664065 83.1219429,119.990183 C82.8355316,118.051045 80.5353709,120.552643 80.5353709,120.680351 Z" id="Path-92-Copy-2" fill="#0B4651" transform="translate(87.512450, 121.431762) scale(-1, 1) translate(-87.512450, -121.431762) "></path><polygon id="Combined-Shape" fill="#176574" transform="translate(107.375498, 94.346429) scale(-1, 1) translate(-107.375498, -94.346429) " points="121.639067 69.6327684 135.538808 98.2375417 122.871423 119.45896 120.806878 120.105313 127.506263 98.2375417 114.986968 85.8998678 110.101405 96.3024653 81.7272246 120.499817 79.2121876 121.065655 100.894884 92.2387749 110.957299 67.6272032"></polygon><g id="Group-26" transform="translate(38.378256, 0.000000)"><polygon id="Path-54" fill="url(#linearGradient-2)" points="3.85313537 6.36042384 1.88099962 8.15461423 29.7352716 50.8478368 37.9303006 46.8675649"></polygon><polygon id="Path-56" fill="#FFD7B3" points="0.606363596 9.23433136 2.87866014 9.72063496 4.90270971 7.77638041 7.32275884 0.789849991"></polygon></g><path d="M76.2809837,35.9838702 C87.3187755,37.7396061 91.7635711,43.4166706 89.6153704,53.0150637 C87.4671697,62.6134567 86.8984207,70.8355774 87.9091232,77.6814256 L72.4345111,82.6223923 C71.5882042,68.8335931 71.1650507,58.2045474 71.1650507,50.7352552 C71.1650507,43.265963 72.8703617,38.3488346 76.2809837,35.9838702 Z" id="Path-88" fill="url(#linearGradient-3)" transform="translate(80.652692, 59.303131) scale(-1, 1) rotate(51.000000) translate(-80.652692, -59.303131) "></path><g id="Group-25" transform="translate(58.578741, 39.248214) rotate(-31.000000) translate(-58.578741, -39.248214) translate(46.578741, 27.748214)"><path d="M13.0846518,2.2001638 C8.21847647,0.803362595 3.14250459,3.61993934 1.74715127,8.49116404 L0.953665573,11.2612489 C-0.441687745,16.1324736 2.37196941,21.2137126 7.23814473,22.6105138 C12.10432,24.007315 17.1802919,21.1907382 18.5756452,16.3195135 L19.3691309,13.5494287 C20.7644843,8.67820396 17.9508271,3.59696501 13.0846518,2.2001638 Z" id="Rectangle-11" fill="#FFD7B3"></path><path d="M14.2494853,21.9476842 C9.94889809,17.6215814 8.54014045,13.4266199 10.0232124,9.36279959 C6.09109095,10.0514601 3.33449539,8.51617659 1.75342573,4.75694913 C4.01760905,2.11276818 6.7742046,0.611442528 10.0232124,0.25297219 C14.9530979,-0.29095317 21.9817645,2.3121653 20.3114137,4.75694913 C23.2204984,4.75694913 24.9864819,11.0639277 23.2204984,13.8746889 C21.4706765,16.6597272 18.4803388,19.3507256 14.2494853,21.9476842 Z" id="Path-94" fill="#0B4651"></path></g><g id="Group-27" transform="translate(0.000000, 45.621469)"><polygon id="Path-55" fill="#FFD7B3" points="9.02354214 0.234886114 0.730539714 9.98775603 10.454514 4.7954444 11.4055547 2.1557729"></polygon><polygon id="Path-53" fill="url(#linearGradient-4)" points="65.9117316 1.89897508 11.0950732 1.89897508 10.1941974 4.97618989 65.9117316 10.427311"></polygon></g></g><rect id="Rectangle-36" fill="#075B6A" x="209.481314" y="67.2316384" width="63.1642129" height="316.148776"></rect><ellipse id="Oval-10" stroke="#3FBDA1" stroke-width="0.88" cx="271.446206" cy="419.797552" rx="5.19705549" ry="5.20244821"></ellipse><ellipse id="Oval-3" stroke="#3FBDA1" stroke-width="0.88" cx="214.678369" cy="411.393597" rx="13.9920725" ry="3.20150659"></ellipse><ellipse id="Oval-3-Copy" stroke="#3FBDA1" stroke-width="0.88" cx="237.065685" cy="403.790019" rx="8.39524349" ry="2.00094162"></ellipse><path d="M0.394220331,383.333333 L705.501046,383.333333" id="Path-19" stroke="url(#linearGradient-5)" stroke-width="2" stroke-linecap="square"></path><path d="M304.274123,101.951238 L289.918843,124.766399 L294.965306,128.818431 L310.506585,101.951238 L304.274123,81.7231965 L333.229396,127.049961 L338.319964,127.049961 L310.506585,70.3360694 C300.323377,70.5927242 293.460797,70.5927242 289.918843,70.3360694 C286.376889,70.0794146 291.161983,80.617804 304.274123,101.951238 Z" id="Path-57" fill="#176574"></path><path d="M298.823367,49.2465634 L323.335818,72.6956332 L326.663944,70.1855957 C311.095748,53.5201601 303.08609,44.9327825 302.634972,44.4234628 C300.553762,42.0737415 299.283227,43.6814417 298.823367,49.2465634 Z" id="Path-58-Copy-2" fill="#F6CDA7" transform="translate(312.743656, 58.036367) rotate(15.000000) translate(-312.743656, -58.036367) "></path><polygon id="Path-60" fill="url(#linearGradient-3)" points="299.612276 32.1768642 307.200499 42.1181777 303.406387 45.8185966"></polygon><path d="M288.851617,70.6896534 C284.407856,52.9759895 282.753149,41.2981631 283.887495,35.6561745 C285.589014,27.1931915 296.246685,27.4592515 299.86713,32.1858856 C302.28076,35.336975 306.004662,48.1715642 311.038837,70.6896534 C307.262828,72.0263798 303.538926,73.1088024 299.86713,73.9369214 C296.195334,74.7650403 292.523497,73.6826177 288.851617,70.6896534 Z" id="Path-59" fill="url(#linearGradient-3)"></path><path d="M280.181321,12.0056497 L296.631937,12.0056497 L296.905333,21.5684871 C296.978335,24.121961 295.038639,26.2852642 292.492355,26.4901905 L290.922223,26.6165554 L292.198614,28.8768354 C292.785381,29.2919986 293.180137,29.5831853 293.38288,29.7503956 C294.956538,31.0482512 293.952478,33.4385862 289.882205,33.2575477 C288.66074,33.2032191 287.592276,32.6622886 286.676813,31.6347563 L282.527434,24.0112994 L280.181321,12.0056497 Z" id="Rectangle-12" fill="#FFD7B3"></path><path d="M279.752448,7.99533974 C275.115718,13.3141197 275.197753,16.7944194 276.711803,21.179486 C277.525759,23.5369032 280.026689,25.7128261 282.099863,26.1919527 C283.008968,22.2501031 285.351793,22.1372393 284.311042,16.6043468 C291.971362,21.1414404 294.18192,17.3217327 298.236017,14.0277679 C300.074972,3.92255389 284.389179,2.67655977 279.752448,7.99533974 Z" id="Path-38" fill="#137384" transform="translate(287.085488, 15.546822) rotate(-13.000000) translate(-287.085488, -15.546822) "></path><path d="M275.052188,16.6492781 C272.451327,10.2513504 274.010308,5.49788542 279.729132,2.38888328 C284.357645,-0.127378588 292.021147,-2.19258846 296.306488,5.28912634 C301.412403,4.29747552 301.03197,4.70502215 301.683694,5.81600497 C302.377574,6.99885021 300.357116,8.2865696 295.622319,9.67916313 L275.052188,16.6492781 Z" id="Combined-Shape" fill="url(#linearGradient-3)"></path><path d="M299.019616,149.044703 C308.713201,126.742975 288.342162,119.058709 299.019616,105.101972 C306.137918,95.797481 305.208905,88.264374 296.232578,82.5026513 C304.556608,72.3494053 310.070241,68.0948661 312.773477,69.7390336 C315.476713,71.3832011 392.565499,126.313148 544.039835,234.528874 L590.417091,277.070323 L592.829907,274.285681 L544.039835,234.528874 C541.870485,238.43428 541.566462,242.240956 543.127767,245.948902 C546.495069,253.945915 548.050735,257.638774 541.429552,262.770142" id="Path-63" stroke="#2A7380" stroke-width="2" stroke-linecap="round" stroke-linejoin="round"></path><path d="" id="Path-64" stroke="#979797" stroke-width="0.8"></path><g id="Group-32" transform="translate(139.920725, 341.760829)"><g id="Group-30" transform="translate(115.134768, 0.000000)"><polygon id="Rectangle-37-Copy-8" fill="#29A99A" points="106.397354 51.8449104 111.501873 60.8040649 50.812307 60.8040649 54.2250187 51.8449104"></polygon><polygon id="Rectangle-37-Copy-6" fill="#0C6575" points="100.915069 34.3077398 48.1727067 34.3077398 60.1486931 2.86801632 88.9876723 2.99355095"></polygon><polygon id="Rectangle-37-Copy-3" fill="#0C6575" transform="translate(100.546543, 34.416196) scale(-1, 1) translate(-100.546543, -34.416196) " points="109.58694 0 117.725708 0 91.506146 68.8323917 83.3673782 68.8323917"></polygon><polygon id="Rectangle-37-Copy-4" fill="#0C6575" transform="translate(43.135235, 34.416196) scale(-1, 1) translate(-43.135235, -34.416196) " points="52.1756325 0 60.3144003 0 34.0948381 68.8323917 25.9560703 68.8323917"></polygon><polygon id="Rectangle-37" fill="#10788A" points="26.2195622 0 34.35833 0 8.1387678 68.8323917 0 68.8323917"></polygon><polygon id="Rectangle-37-Copy-5" fill="url(#linearGradient-1)" points="64.6036817 51.8449104 61.7609971 60.8040649 9.01863458 60.8040649 12.4313463 51.8449104"></polygon><polygon id="Rectangle-37-Copy" fill="url(#linearGradient-1)" points="84.5440711 3.0996412 72.0994318 34.3077398 19.3570694 34.3077398 31.3330557 2.86801632"></polygon><path d="M81.256169,11.344892 L77.1501654,21.6417406 L58.5498735,2.98648976 L72.9850413,3.04932533 L81.256169,11.344892 Z M73.4941867,30.8100372 L72.0994318,34.3077398 L61.7919044,34.3077398 L31.0875123,3.51262442 L31.3330557,2.86801632 L45.6968244,2.93054109 L73.4941867,30.8100372 Z M44.9667522,34.3077398 L33.3729948,34.3077398 L23.2315516,24.1363313 L26.4364635,15.7226991 L44.9667522,34.3077398 Z" id="Combined-Shape" fill="#E0FAE7"></path><polygon id="Rectangle-37-Copy-2" fill="#10788A" points="83.6308702 0 91.769638 0 65.5500758 68.8323917 57.411308 68.8323917"></polygon></g><g id="Group-31" transform="translate(212.360048, 24.929680)"><polygon id="Rectangle-38" fill="url(#linearGradient-1)" points="16.8418365 0 24.7318693 0 35.2659711 39.0246323 6.30773467 39.0246323"></polygon><path d="M26.2173243,5.50301656 L28.4920286,13.9298857 C25.9908403,14.2047072 23.4142322,14.3472913 20.7868529,14.3472913 C18.1594736,14.3472913 15.5828654,14.2047072 13.0816772,13.9298857 L15.3563815,5.50301656 C17.117347,5.6576015 18.931122,5.73891652 20.7868529,5.73891652 C22.6425838,5.73891652 24.4563587,5.6576015 26.2173243,5.50301656 Z" id="Combined-Shape" fill="#E0FAE7"></path><path d="M30.4145163,21.0519334 L32.6694872,29.4056985 C28.8965119,30.0661332 24.9040183,30.4162576 20.7868529,30.4162576 C16.6696875,30.4162576 12.6771939,30.0661332 8.90421855,29.4056985 L11.1591895,21.0519334 C14.1868141,21.5398512 17.4176856,21.8078828 20.7868529,21.8078828 C24.1560202,21.8078828 27.3868917,21.5398512 30.4145163,21.0519334 Z" id="Combined-Shape" fill="#E0FAE7"></path><path d="M3.299877,37.3029574 L38.2738288,37.3029574 C40.0963005,37.3029574 41.5737058,38.7803626 41.5737058,40.6028344 L41.5737058,40.6028344 C41.5737058,42.4253061 40.0963005,43.9027114 38.2738288,43.9027114 L3.299877,43.9027114 C1.47740526,43.9027114 2.23188419e-16,42.4253061 0,40.6028344 L0,40.6028344 C-2.23188419e-16,38.7803626 1.47740526,37.3029574 3.299877,37.3029574 Z" id="Rectangle-39" fill="#10788A"></path></g><g id="Group-31-Copy" transform="translate(0.000000, 24.811676)"><polygon id="Rectangle-38" fill="url(#linearGradient-1)" points="16.8418365 0 24.7318693 0 35.2659711 39.0246323 6.30773467 39.0246323"></polygon><path d="M26.2173243,5.50301656 L28.4920286,13.9298857 C25.9908403,14.2047072 23.4142322,14.3472913 20.7868529,14.3472913 C18.1594736,14.3472913 15.5828654,14.2047072 13.0816772,13.9298857 L15.3563815,5.50301656 C17.117347,5.6576015 18.931122,5.73891652 20.7868529,5.73891652 C22.6425838,5.73891652 24.4563587,5.6576015 26.2173243,5.50301656 Z" id="Combined-Shape" fill="#E0FAE7"></path><path d="M30.4145163,21.0519334 L32.6694872,29.4056985 C28.8965119,30.0661332 24.9040183,30.4162576 20.7868529,30.4162576 C16.6696875,30.4162576 12.6771939,30.0661332 8.90421855,29.4056985 L11.1591895,21.0519334 C14.1868141,21.5398512 17.4176856,21.8078828 20.7868529,21.8078828 C24.1560202,21.8078828 27.3868917,21.5398512 30.4145163,21.0519334 Z" id="Combined-Shape" fill="#E0FAE7"></path><path d="M3.299877,37.3029574 L38.2738288,37.3029574 C40.0963005,37.3029574 41.5737058,38.7803626 41.5737058,40.6028344 L41.5737058,40.6028344 C41.5737058,42.4253061 40.0963005,43.9027114 38.2738288,43.9027114 L3.299877,43.9027114 C1.47740526,43.9027114 2.23188419e-16,42.4253061 0,40.6028344 L0,40.6028344 C-2.23188419e-16,38.7803626 1.47740526,37.3029574 3.299877,37.3029574 Z" id="Rectangle-39" fill="#10788A"></path></g></g><path d="M284.878947,40.7330067 L312.155956,69.5563756 L315.484082,67.0463381 C307.755266,57.348649 301.91296,50.2005667 297.957163,45.6020911 C294.001366,41.0036154 290.487079,37.2749837 287.4143,34.4161959 C286.044353,35.433772 285.199235,36.3415571 284.878947,37.139551 C284.55866,37.9375449 284.55866,39.1353635 284.878947,40.7330067 Z" id="Path-58" fill="#FFD7B3"></path><path d="M317.502011,72.5004592 C317.272018,74.5373783 317.526709,75.8679538 318.266083,76.4921856 C319.375144,77.4285332 323.61663,80.1678266 324.170991,79.5298716 C324.725351,78.8919167 325.145455,74.1043629 323.61663,73.302411 C322.597414,72.7677764 321.741201,71.8113544 321.047991,70.433145 L317.502011,72.5004592 Z" id="Path-61-Copy" fill="#F6CDA7"></path><path d="M311.905182,68.4985759 C311.675189,70.5354951 311.92988,71.8660705 312.669254,72.4903023 C313.778315,73.42665 318.019801,76.1659433 318.574162,75.5279884 C319.128522,74.8900335 319.548626,70.1024796 318.019801,69.3005278 C317.000585,68.7658932 316.144372,67.8094712 315.451162,66.4312618 L311.905182,68.4985759 Z" id="Path-61" fill="#FFD7B3"></path><path d="M284.768238,40.4486797 L291.069356,51.7019588 L299.071379,44.4572754 L287.303591,34.1318689 C285.933643,35.149445 285.088526,36.0572301 284.768238,36.855224 C284.44795,37.6532179 284.44795,38.8510365 284.768238,40.4486797 Z" id="Path-58-Copy" fill="url(#linearGradient-3)"></path></g></g></g></g></svg> 