<?xml version="1.0" encoding="UTF-8"?> <svg xmlns="http://www.w3.org/2000/svg" xmlns:xlink="http://www.w3.org/1999/xlink" width="186px" height="162px" viewBox="0 0 186 162"><!-- Generator: Sketch 52.5 (67469) - http://www.bohemiancoding.com/sketch --><title>Data Minining</title><desc>Created with Sketch.</desc><defs><linearGradient x1="23.2916903%" y1="14.537225%" x2="78.8050321%" y2="119.862794%" id="linearGradient-1"><stop stop-color="#AFF7E7" offset="0%"></stop><stop stop-color="#5DD1E4" offset="100%"></stop></linearGradient><linearGradient x1="11.5884416%" y1="20.3503406%" x2="79.3937209%" y2="90.8531466%" id="linearGradient-2"><stop stop-color="#8BDFC6" offset="0%"></stop><stop stop-color="#7DEAC5" offset="100%"></stop></linearGradient><linearGradient x1="35.3833382%" y1="3.37710113%" x2="22.3074002%" y2="94.5399843%" id="linearGradient-3"><stop stop-color="#C9F1E5" offset="0%"></stop><stop stop-color="#72E5BE" offset="100%"></stop></linearGradient><ellipse id="path-4" cx="55.3004451" cy="55.6431084" rx="55.3004451" ry="55.6431084"></ellipse><ellipse id="path-6" cx="7.43168038" cy="17.7368393" rx="7.43168038" ry="1.53953264"></ellipse><filter x="-110.1%" y="-535.9%" width="320.1%" height="1171.8%" id="filter-7"><feOffset dx="0" dy="0" in="SourceAlpha" result="shadowOffsetOuter1"></feOffset><feGaussianBlur stdDeviation="5.5" in="shadowOffsetOuter1" result="shadowBlurOuter1"></feGaussianBlur><feColorMatrix values="0 0 0 0 0.414386489 0 0 0 0 0.762223639 0 0 0 0 0.392089236 0 0 0 0.759992074 0" type="matrix" in="shadowBlurOuter1"></feColorMatrix></filter><path d="M1.91412564,10.4335764 L1.91412564,5.0647482 C1.91412564,2.26756501 4.45851366,8.52651283e-14 7.59717534,8.52651283e-14 C10.735837,8.52651283e-14 13.280225,2.26756501 13.280225,5.0647482 L13.280225,10.4335764" id="path-8"></path><filter x="-116.1%" y="-126.5%" width="332.3%" height="353.0%" id="filter-9"><feMorphology radius="1.2" operator="dilate" in="SourceAlpha" result="shadowSpreadOuter1"></feMorphology><feOffset dx="0" dy="0" in="shadowSpreadOuter1" result="shadowOffsetOuter1"></feOffset><feMorphology radius="1.2" operator="erode" in="SourceAlpha" result="shadowInner"></feMorphology><feOffset dx="0" dy="0" in="shadowInner" result="shadowInner"></feOffset><feComposite in="shadowOffsetOuter1" in2="shadowInner" operator="out" result="shadowOffsetOuter1"></feComposite><feGaussianBlur stdDeviation="4" in="shadowOffsetOuter1" result="shadowBlurOuter1"></feGaussianBlur><feColorMatrix values="0 0 0 0 0.414386489 0 0 0 0 0.762223639 0 0 0 0 0.392089236 0 0 0 1 0" type="matrix" in="shadowBlurOuter1"></feColorMatrix></filter><path d="M21.5043745,31.5990083 C21.5043745,28.8018251 24.0487625,26.5342601 27.1874242,26.5342601 C30.3260858,26.5342601 32.8704739,28.8018251 32.8704739,31.5990083" id="path-10"></path><filter x="-111.4%" y="-249.9%" width="322.7%" height="599.8%" id="filter-11"><feMorphology radius="0.65691648" operator="dilate" in="SourceAlpha" result="shadowSpreadOuter1"></feMorphology><feOffset dx="0" dy="0" in="shadowSpreadOuter1" result="shadowOffsetOuter1"></feOffset><feMorphology radius="1" operator="erode" in="SourceAlpha" result="shadowInner"></feMorphology><feOffset dx="0" dy="0" in="shadowInner" result="shadowInner"></feOffset><feComposite in="shadowOffsetOuter1" in2="shadowInner" operator="out" result="shadowOffsetOuter1"></feComposite><feGaussianBlur stdDeviation="4" in="shadowOffsetOuter1" result="shadowBlurOuter1"></feGaussianBlur><feColorMatrix values="0 0 0 0 0.414386489 0 0 0 0 0.762223639 0 0 0 0 0.392089236 0 0 0 1 0" type="matrix" in="shadowBlurOuter1"></feColorMatrix></filter><ellipse id="path-12" cx="7.43168038" cy="16.9348591" rx="7.43168038" ry="1.53953264"></ellipse><filter x="-110.1%" y="-535.9%" width="320.1%" height="1171.8%" id="filter-13"><feOffset dx="0" dy="0" in="SourceAlpha" result="shadowOffsetOuter1"></feOffset><feGaussianBlur stdDeviation="5.5" in="shadowOffsetOuter1" result="shadowBlurOuter1"></feGaussianBlur><feColorMatrix values="0 0 0 0 0.414386489 0 0 0 0 0.762223639 0 0 0 0 0.392089236 0 0 0 0.759992074 0" type="matrix" in="shadowBlurOuter1"></feColorMatrix></filter><path d="M1.74863068,10.4335764 L1.74863068,5.0647482 C1.74863068,2.26756501 4.29301869,0 7.43168038,0 C10.5703421,0 13.1147301,2.26756501 13.1147301,5.0647482 L13.1147301,10.4335764" id="path-14"></path><filter x="-116.1%" y="-126.5%" width="332.3%" height="353.0%" id="filter-15"><feMorphology radius="1.2" operator="dilate" in="SourceAlpha" result="shadowSpreadOuter1"></feMorphology><feOffset dx="0" dy="0" in="shadowSpreadOuter1" result="shadowOffsetOuter1"></feOffset><feMorphology radius="1.2" operator="erode" in="SourceAlpha" result="shadowInner"></feMorphology><feOffset dx="0" dy="0" in="shadowInner" result="shadowInner"></feOffset><feComposite in="shadowOffsetOuter1" in2="shadowInner" operator="out" result="shadowOffsetOuter1"></feComposite><feGaussianBlur stdDeviation="4" in="shadowOffsetOuter1" result="shadowBlurOuter1"></feGaussianBlur><feColorMatrix values="0 0 0 0 0.414386489 0 0 0 0 0.762223639 0 0 0 0 0.392089236 0 0 0 1 0" type="matrix" in="shadowBlurOuter1"></feColorMatrix></filter><linearGradient x1="23.2916903%" y1="14.537225%" x2="78.8050321%" y2="119.862794%" id="linearGradient-16"><stop stop-color="#6FC4B2" offset="0%"></stop><stop stop-color="#5DD1E4" offset="100%"></stop></linearGradient><linearGradient x1="0%" y1="22.6288417%" x2="157.910643%" y2="109.975606%" id="linearGradient-17"><stop stop-color="#90E28A" offset="0%"></stop><stop stop-color="#28AD9D" offset="100%"></stop></linearGradient></defs><g id="Pages" stroke="none" stroke-width="1" fill="none" fill-rule="evenodd"><g id="Bots/AI" transform="translate(-1116.000000, -1921.000000)"><g id="Group-4" transform="translate(231.000000, 1213.000000)"><g id="Group-7-Copy" transform="translate(807.000000, 708.000000)"><g id="Data-Minining" transform="translate(64.000000, 0.000000)"><g id="Lead-Nurturing" transform="translate(13.787149, 0.000000)"><path d="M71.6454097,27.9055556 C93.2802424,35.5354542 86.9951063,36.5687474 52.7900013,31.0054354 C1.48234393,22.6604674 -18.2828429,89.3545419 22.9007622,112.621046 C64.0843673,135.88755 91.1737036,102.060846 120.375648,130.557849 C149.577592,159.054853 190.719696,112.621046 169.174616,94.1862528 C154.81123,81.8963905 122.301494,59.8028248 71.6454097,27.9055556 Z" id="Path-30" fill="url(#linearGradient-1)" opacity="0.400000006"></path><path d="M94.8788696,118.559174 C80.1224112,117.428522 64.7014012,123.218179 46.5567284,120.756021 C44.9220727,116.443073 47.133845,107.221402 53.1920455,93.0910081 C42.005469,83.8283943 34.830402,77.267758 31.6668446,73.409099 C25.701127,76.8134837 18.3073196,84.6533411 9.48542242,96.9286712 L10.9530757,80.049138 L28.0456441,61.6647736 L60.3842312,85.085856 C97.3692458,81.89143 110.575462,90.4623253 100.002881,110.798542 C98.4433606,113.798258 96.7209792,116.368333 94.8788696,118.559174 Z" id="Combined-Shape" fill="#000000" opacity="0.100000001"></path><ellipse id="Oval-15" fill="url(#linearGradient-1)" opacity="0.400000006" cx="83.1164659" cy="146.762376" rx="15.184739" ry="15.2376238"></ellipse><g id="Group-56" transform="translate(37.562249, 0.000000)"><path d="M8.32094208,43.3484124 L10.4917841,43.3484124 L10.4917841,67.5410682 L8.32094208,67.5410682 C3.72541266,67.5410682 2.33914688e-15,63.8156556 1.77635684e-15,59.2201262 L1.77635684e-15,51.6693545 C1.2135668e-15,47.0738251 3.72541266,43.3484124 8.32094208,43.3484124 Z" id="Rectangle-18" fill="url(#linearGradient-2)"></path><rect id="Rectangle-18-Copy-2" fill="#000000" opacity="0.100000001" x="4.7853141" y="43.3484124" width="10.4917841" height="24.1926558" rx="2.88"></rect><path d="M121.981936,43.5467805 L124.152778,43.5467805 L124.152778,67.7394363 L121.981936,67.7394363 C117.386407,67.7394363 113.660994,64.0140236 113.660994,59.4184942 L113.660994,51.8677226 C113.660994,47.2721931 117.386407,43.5467805 121.981936,43.5467805 Z" id="Rectangle-18-Copy" fill="url(#linearGradient-2)" transform="translate(118.906886, 55.643108) scale(-1, 1) translate(-118.906886, -55.643108) "></path><g id="Group-53" transform="translate(7.431680, 0.000000)"><mask id="mask-5" fill="white"><use xlink:href="#path-4"></use></mask><use id="Oval-12" fill="url(#linearGradient-3)" xlink:href="#path-4"></use><path d="M20.7060829,111.22636 C15.1661323,94.7431927 11.8266475,82.2545974 10.6876282,73.7605739 C7.06969976,46.7805479 19.7013518,34.7608579 29.7613891,34.7608579 C33.3885852,34.7608579 36.9331905,35.780714 39.9410995,37.6897708 C44.9457245,40.8661012 49.9503494,42.4542665 54.9549744,42.4542665 C59.9595994,42.4542665 64.9642243,40.8661012 69.9688493,37.6897707 C73.1208455,35.689265 76.7009979,34.6346896 80.2322438,34.7593729 C100.47293,35.4740432 101.604206,62.3098127 100.47293,75.111438 C99.7187464,83.6458548 95.7690382,95.9613274 88.6238055,112.057856 L20.7060829,111.22636 Z" id="Path-52" fill="#0D6574" mask="url(#mask-5)"></path><g id="Group-55" mask="url(#mask-5)"><g transform="translate(28.415248, 58.140127)"><g id="Group-54" transform="translate(0.000000, -0.000000)"><g id="Oval-17" opacity="0.300000012"><use fill="black" fill-opacity="1" filter="url(#filter-7)" xlink:href="#path-6"></use><use fill="#AFFFAA" fill-rule="evenodd" xlink:href="#path-6"></use></g><g id="Rectangle-6" stroke-linecap="round" stroke-linejoin="round"><use fill="black" fill-opacity="1" filter="url(#filter-9)" xlink:href="#path-8"></use><use stroke="#A8FFA2" stroke-width="2.4" xlink:href="#path-8"></use></g><g id="Rectangle-6-Copy" stroke-linecap="round" stroke-linejoin="round" transform="translate(27.187424, 29.066634) scale(1, -1) translate(-27.187424, -29.066634) "><use fill="black" fill-opacity="1" filter="url(#filter-11)" xlink:href="#path-10"></use><use stroke="#A8FFA2" stroke-width="1.31383296" xlink:href="#path-10"></use></g></g><g id="Group-54-Copy" transform="translate(38.907033, 0.801980)"><g id="Oval-17" opacity="0.300000012"><use fill="black" fill-opacity="1" filter="url(#filter-13)" xlink:href="#path-12"></use><use fill="#AFFFAA" fill-rule="evenodd" xlink:href="#path-12"></use></g><g id="Rectangle-6" stroke-linecap="round" stroke-linejoin="round"><use fill="black" fill-opacity="1" filter="url(#filter-15)" xlink:href="#path-14"></use><use stroke="#A8FFA2" stroke-width="2.4" xlink:href="#path-14"></use></g></g></g></g><path d="M17.9094552,112.096249 C11.9231165,94.462883 8.31454861,81.1028306 7.08375151,72.0160922 C3.17430414,43.1533936 16.8237667,30.2949668 27.6944036,30.2949668 C31.6138654,30.2949668 35.4440816,31.3859887 38.6943565,33.4282599 C44.1022351,36.8262355 49.5101137,38.5252233 54.9179924,38.5252233 C60.325871,38.5252233 65.7337497,36.8262355 71.1416283,33.4282599 C74.5476004,31.2881583 78.4162279,30.1599944 82.2320082,30.2933782 C104.103612,31.0579184 105.326042,59.7662942 104.103612,73.4612198 C103.288659,82.5911702 99.0206985,95.7660195 91.2997301,112.985768 L17.9094552,112.096249 Z" id="Path-52-Copy" stroke="#0D6574" stroke-width="1.31383296" stroke-linecap="round" stroke-linejoin="round" mask="url(#mask-5)"></path><path d="M56.0998816,38.0591212 L56.0998816,-6.16788526" id="Path-53" stroke="#0D6574" stroke-width="1.31383296" opacity="0.5" stroke-linecap="round" stroke-linejoin="round" stroke-dasharray="2.1897216796875,6.131219863891602" mask="url(#mask-5)"></path></g></g></g><path d="M72.4102174,33.7303919 C66.4913824,42.8619571 63.5523847,52.5736508 63.5932244,62.865473 C73.353226,71.4864445 81.3564541,78.4190977 87.6029087,83.6634324 C93.5758638,81.4996283 97.3835194,81.6522739 99.0258755,84.1213693 C102.286521,82.3857751 107.166393,84.4356248 109.987139,87.7400018 C119.297506,98.6466784 116.009501,105.496562 113.567874,111.422934 C102.320562,112.186599 81.4327661,97.4193554 50.9044858,67.1212043 L52.3395636,47.4085924 L76.5846587,33.7303919 L72.4102174,33.7303919 Z" id="Path-306" fill="#000000" opacity="0.100000001"></path><g id="Group-129" transform="translate(68.014190, 81.727332) rotate(-50.000000) translate(-68.014190, -81.727332) translate(25.514190, 29.727332)"><path d="M47.1496532,65.0816249 C53.6172053,67.5468464 56.8509814,70.609738 56.8509814,74.2702999 C56.8509814,77.9308617 56.0506706,79.9759833 54.4500489,80.4056646 L46.6329594,71.8428817 L47.1496532,65.0816249 Z" id="Path-292" fill="url(#linearGradient-16)"></path><path d="M42.2504328,0 L42.2504328,0 C45.0720616,-5.18324813e-16 47.3594438,2.28738214 47.3594438,5.109011 L47.3594438,98.7889064 C47.3594438,101.610535 45.0720616,103.897917 42.2504328,103.897917 L42.2504328,103.897917 C39.4288039,103.897917 37.1414218,101.610535 37.1414218,98.7889064 L37.1414218,5.109011 C37.1414218,2.28738214 39.4288039,5.18324813e-16 42.2504328,0 Z" id="Rectangle-68" fill="#1F889A"></path><path d="M0.0930468554,27.4499444 C8.03259171,16.9691639 24.046648,9.80638002 42.5088638,9.80638002 C60.9710795,9.80638002 76.9851358,16.9691639 84.9246769,27.4499444 C74.568099,23.4783146 59.404265,20.9727697 42.5088638,20.9727697 C25.6134625,20.9727697 10.4496286,23.4783146 0.0930468554,27.4499444 Z" id="Combined-Shape" fill="url(#linearGradient-17)"></path><g id="Group-128" transform="translate(10.314232, 64.595357)"><rect id="Rectangle-69" fill="#0D6574" x="0" y="8.47702287" width="13.7076094" height="20.807238" rx="6.85380471"></rect><path d="M26.7880279,0.27061142 C18.5406934,1.40361187 13.5497745,3.21171704 11.8152712,5.69492694 C11.1649712,6.62593202 10.3339508,7.38241088 9.32220991,7.96436352 L9.32220544,7.96435574 C5.4556095,10.1884191 3.25034059,14.4712032 3.68587518,18.9104972 L3.68587518,18.9104972 C4.25831018,24.7451825 8.46871541,29.5744826 14.170941,30.9367813 C26.8654037,33.9695555 35.8538451,34.5868714 41.1362687,32.7887146 C49.0030856,27.3643991 46.9974379,10.3631635 41.1362687,8.45955026 C36.129725,8.13852814 31.3469781,7.98195803 26.7880279,7.98983993 L26.7880279,0.27061142 Z" id="Path-290" fill="url(#linearGradient-1)"></path><path d="M26.7880279,7.73466158 C24.1550276,5.45715919 22.6558682,3.21870697 22.2905499,1.01930491 C23.6631812,0.743509227 25.1623405,0.493944729 26.7880279,0.27061142 L26.7880279,7.73466158 Z" id="Combined-Shape" fill="#0D6574" opacity="0.200000003"></path></g></g><rect id="Rectangle-79" fill="#000000" opacity="0.100000001" x="140.859438" y="64.1584158" width="51.9477912" height="20.8514851" rx="4.8"></rect><rect id="Rectangle-79-Copy-2" fill="#000000" opacity="0.100000001" x="140.859438" y="85.8118812" width="51.9477912" height="20.8514851" rx="4.8"></rect><rect id="Rectangle-79-Copy-3" fill="#000000" opacity="0.100000001" x="140.859438" y="107.465347" width="51.9477912" height="20.8514851" rx="4.8"></rect><g id="Group-142" transform="translate(148.851406, 108.267327)"><rect id="Rectangle-79" fill="url(#linearGradient-17)" x="0" y="0" width="51.1485944" height="20.049505" rx="4.8"></rect><path d="M4.8,0 L25.5742972,0 L25.5742972,20.049505 L4.8,20.049505 C2.1490332,20.049505 3.24649801e-16,17.9004717 0,15.249505 L0,4.8 C-3.24649801e-16,2.1490332 2.1490332,4.86974701e-16 4.8,0 Z" id="Rectangle-79-Copy" fill="#000000" opacity="0.100000001"></path></g><g id="Group-142-Copy" transform="translate(148.851406, 86.613861)"><rect id="Rectangle-79" fill="url(#linearGradient-17)" x="0" y="0" width="51.1485944" height="20.049505" rx="4.8"></rect><path d="M4.8,0 L25.5742972,0 L25.5742972,20.049505 L4.8,20.049505 C2.1490332,20.049505 3.24649801e-16,17.9004717 0,15.249505 L0,4.8 C-3.24649801e-16,2.1490332 2.1490332,4.86974701e-16 4.8,0 Z" id="Rectangle-79-Copy" fill="#000000" opacity="0.100000001"></path></g><g id="Group-142-Copy-2" transform="translate(148.851406, 64.960396)"><rect id="Rectangle-79" fill="url(#linearGradient-17)" x="0" y="0" width="51.1485944" height="20.049505" rx="4.8"></rect><path d="M4.8,0 L25.5742972,0 L25.5742972,20.049505 L4.8,20.049505 C2.1490332,20.049505 3.24649801e-16,17.9004717 0,15.249505 L0,4.8 C-3.24649801e-16,2.1490332 2.1490332,-4.01203719e-16 4.8,-8.8817842e-16 Z" id="Rectangle-79-Copy" fill="#000000" opacity="0.100000001"></path></g></g></g></g></g></g></svg> 