<?xml version="1.0" encoding="UTF-8"?> <svg xmlns="http://www.w3.org/2000/svg" xmlns:xlink="http://www.w3.org/1999/xlink" width="51px" height="51px" viewBox="0 0 51 51"><!-- Generator: Sketch 52.6 (67491) - http://www.bohemiancoding.com/sketch --><title>Data Science</title><desc>Created with Sketch.</desc><defs><radialGradient cx="10.1475267%" cy="12.3100204%" fx="10.1475267%" fy="12.3100204%" r="99.9669394%" id="radialGradient-1"><stop stop-color="#7ECC79" offset="0%"></stop><stop stop-color="#28AD9D" offset="100%"></stop></radialGradient><circle id="path-2" cx="25.5" cy="25.5" r="25.5"></circle></defs><g id="Illustrations" stroke="none" stroke-width="1" fill="none" fill-rule="evenodd"><g id="All-Icons" transform="translate(-484.000000, -3849.000000)"><g id="Group-23-Copy-5" transform="translate(484.000000, 3849.000000)"><g id="Data-Science"><mask id="mask-3" fill="white"><use xlink:href="#path-2"></use></mask><use id="Oval-Copy-14" fill="url(#radialGradient-1)" xlink:href="#path-2"></use><circle id="Oval-Copy-2" fill="#0B4651" opacity="0.200000003" mask="url(#mask-3)" cx="3.5" cy="14.5" r="34.5"></circle><circle id="Oval" fill="#0D6574" mask="url(#mask-3)" cx="58.5" cy="4.5" r="48.5"></circle><g id="monitor" mask="url(#mask-3)" stroke="#FFFFFF" stroke-width="2"><g transform="translate(14.000000, 16.000000)" id="Path"><path d="M2.08695652,0 L21.9130435,0 C23.0608696,0 24,0.939130435 24,2.08695652 L24,17.7391304 C24,18.8869565 23.0608696,19.826087 21.9130435,19.826087 L2.08695652,19.826087 C0.939130435,19.826087 0,18.8869565 0,17.7391304 L0,2.08695652 C0,0.939130435 0.939130435,0 2.08695652,0 Z"></path><polyline points="3.65217391 10.4347826 8.34782609 10.4347826 10.9565217 4.69565217 13.0434783 14.6086957 15.6521739 10.4347826 20.3478261 10.4347826"></polyline></g></g></g></g></g></g></svg> 