<?xml version="1.0" encoding="UTF-8"?> <svg xmlns="http://www.w3.org/2000/svg" xmlns:xlink="http://www.w3.org/1999/xlink" width="1258px" height="1025px" viewBox="0 0 1258 1025"><!-- Generator: Sketch 52.5 (67469) - http://www.bohemiancoding.com/sketch --><title>data-intro</title><desc>Created with Sketch.</desc><defs><linearGradient x1="2.88529403%" y1="95.9689527%" x2="98.5564819%" y2="0%" id="linearGradient-1"><stop stop-color="#54BC4C" offset="0%"></stop><stop stop-color="#4BBB65" offset="26.6711251%"></stop><stop stop-color="#33BAAA" offset="100%"></stop></linearGradient><linearGradient x1="100%" y1="100%" x2="-75.8263442%" y2="-67.8979891%" id="linearGradient-2"><stop stop-color="#218699" offset="0%"></stop><stop stop-color="#35AB9D" offset="100%"></stop></linearGradient><linearGradient x1="100%" y1="100%" x2="-75.8263442%" y2="-67.8979891%" id="linearGradient-3"><stop stop-color="#075B6A" offset="0%"></stop><stop stop-color="#2D9E90" offset="100%"></stop></linearGradient><linearGradient x1="88.2304152%" y1="0%" x2="50%" y2="93.5861231%" id="linearGradient-4"><stop stop-color="#C6F1C4" offset="0%"></stop><stop stop-color="#8AE0C4" offset="100%"></stop></linearGradient><linearGradient x1="50%" y1="100%" x2="50%" y2="0%" id="linearGradient-5"><stop stop-color="#70C977" offset="0%"></stop><stop stop-color="#86D688" stop-opacity="0" offset="100%"></stop></linearGradient><linearGradient x1="88.2304152%" y1="0%" x2="50%" y2="93.5861231%" id="linearGradient-6"><stop stop-color="#FFFFFF" offset="0%"></stop><stop stop-color="#F1FFFA" offset="100%"></stop></linearGradient><linearGradient x1="50%" y1="100%" x2="50%" y2="2.57692921%" id="linearGradient-7"><stop stop-color="#FFFFFF" offset="0%"></stop><stop stop-color="#FFFFFF" stop-opacity="0" offset="100%"></stop></linearGradient><linearGradient x1="28.8928333%" y1="-21.42775%" x2="50%" y2="108.59409%" id="linearGradient-8"><stop stop-color="#EAF9F3" stop-opacity="0" offset="0%"></stop><stop stop-color="#CFF4E9" offset="100%"></stop></linearGradient><linearGradient x1="54.0426279%" y1="19.27083%" x2="100%" y2="76.2600894%" id="linearGradient-9"><stop stop-color="#EAF9F3" stop-opacity="0" offset="0%"></stop><stop stop-color="#B2E9D8" offset="100%"></stop></linearGradient><linearGradient x1="19.0797055%" y1="12.9283675%" x2="90.3581558%" y2="93.9893216%" id="linearGradient-10"><stop stop-color="#126F75" stop-opacity="0" offset="0%"></stop><stop stop-color="#116D74" stop-opacity="0.276296422" offset="100%"></stop></linearGradient><linearGradient x1="10.9187341%" y1="3.16726288%" x2="84.1387214%" y2="110.391306%" id="linearGradient-11"><stop stop-color="#126F75" stop-opacity="0" offset="0%"></stop><stop stop-color="#116D74" stop-opacity="0.276296422" offset="100%"></stop></linearGradient><linearGradient x1="0%" y1="-3.17505782%" x2="90.3581558%" y2="93.9893216%" id="linearGradient-12"><stop stop-color="#126F75" stop-opacity="0" offset="0%"></stop><stop stop-color="#116D74" stop-opacity="0.276296422" offset="100%"></stop></linearGradient><linearGradient x1="7.49300492%" y1="7.19357879%" x2="46.0929232%" y2="92.172158%" id="linearGradient-13"><stop stop-color="#126F75" stop-opacity="0" offset="0%"></stop><stop stop-color="#116D74" stop-opacity="0.276296422" offset="100%"></stop></linearGradient><linearGradient x1="134.614292%" y1="9.57265714%" x2="16.0789239%" y2="47.91796%" id="linearGradient-14"><stop stop-color="#8CD987" offset="0%"></stop><stop stop-color="#3EAD88" offset="100%"></stop></linearGradient><linearGradient x1="88.2304152%" y1="0%" x2="50%" y2="93.5861231%" id="linearGradient-15"><stop stop-color="#79CC74" offset="0%"></stop><stop stop-color="#53BF85" offset="45.3042286%"></stop><stop stop-color="#37A681" offset="100%"></stop></linearGradient><linearGradient x1="94.3779833%" y1="50%" x2="-56.6478944%" y2="50%" id="linearGradient-16"><stop stop-color="#8CD987" offset="0%"></stop><stop stop-color="#25AB9B" offset="100%"></stop></linearGradient><linearGradient x1="10.7006144%" y1="7.21670496%" x2="189.838004%" y2="178.854972%" id="linearGradient-17"><stop stop-color="#075B6A" offset="0%"></stop><stop stop-color="#2D9E90" offset="100%"></stop></linearGradient><linearGradient x1="100%" y1="100%" x2="-48.8486301%" y2="-25.1002485%" id="linearGradient-18"><stop stop-color="#075B6A" offset="0%"></stop><stop stop-color="#2D9E90" offset="100%"></stop></linearGradient><linearGradient x1="-35.7042478%" y1="128.179966%" x2="139.589581%" y2="-9.08943727%" id="linearGradient-19"><stop stop-color="#117386" offset="0%"></stop><stop stop-color="#127486" offset="0%"></stop><stop stop-color="#2D9E90" offset="100%"></stop></linearGradient><linearGradient x1="10.7006144%" y1="7.21670496%" x2="50%" y2="93.5861231%" id="linearGradient-20"><stop stop-color="#8CD987" offset="0%"></stop><stop stop-color="#47BA94" offset="100%"></stop></linearGradient><linearGradient x1="72.1825719%" y1="96.5362386%" x2="58.1433849%" y2="-66.7973449%" id="linearGradient-21"><stop stop-color="#075B6A" offset="0%"></stop><stop stop-color="#2D9E90" offset="100%"></stop></linearGradient><linearGradient x1="33.7305737%" y1="16.066655%" x2="72.5926026%" y2="187.264598%" id="linearGradient-22"><stop stop-color="#075B6A" offset="0%"></stop><stop stop-color="#2D9E90" offset="100%"></stop></linearGradient><linearGradient x1="100%" y1="100%" x2="-20.0040382%" y2="-17.9067661%" id="linearGradient-23"><stop stop-color="#127486" offset="0%"></stop><stop stop-color="#2D9E90" offset="100%"></stop></linearGradient><linearGradient x1="68.271178%" y1="5.71783403%" x2="68.2711769%" y2="93.2025975%" id="linearGradient-24"><stop stop-color="#044550" stop-opacity="0.365432518" offset="0%"></stop><stop stop-color="#0C646F" stop-opacity="0" offset="100%"></stop></linearGradient><linearGradient x1="0%" y1="0%" x2="100%" y2="100%" id="linearGradient-25"><stop stop-color="#FFFFFF" offset="0%"></stop><stop stop-color="#FFFFFF" stop-opacity="0.360620471" offset="100%"></stop></linearGradient><linearGradient x1="0%" y1="0%" x2="100%" y2="100%" id="linearGradient-26"><stop stop-color="#FFFFFF" stop-opacity="0.283061594" offset="0%"></stop><stop stop-color="#FFFFFF" stop-opacity="0.360620471" offset="100%"></stop></linearGradient><linearGradient x1="10.7006144%" y1="7.21670496%" x2="49.8276892%" y2="93.2074307%" id="linearGradient-27"><stop stop-color="#075B6A" offset="0%"></stop><stop stop-color="#2D9E90" offset="100%"></stop></linearGradient><linearGradient x1="100%" y1="100%" x2="-75.8263442%" y2="-67.8979891%" id="linearGradient-28"><stop stop-color="#127486" offset="0%"></stop><stop stop-color="#2D9E90" offset="100%"></stop></linearGradient><linearGradient x1="0%" y1="0%" x2="100%" y2="100%" id="linearGradient-29"><stop stop-color="#70C977" offset="0%"></stop><stop stop-color="#86D688" stop-opacity="0.360620471" offset="100%"></stop></linearGradient><linearGradient x1="0%" y1="0%" x2="100%" y2="100%" id="linearGradient-30"><stop stop-color="#70C977" offset="0%"></stop><stop stop-color="#86D688" stop-opacity="0" offset="100%"></stop></linearGradient><linearGradient x1="37.4362061%" y1="9.60513285%" x2="0%" y2="138.589709%" id="linearGradient-31"><stop stop-color="#044550" stop-opacity="0.365432518" offset="0%"></stop><stop stop-color="#0C646F" stop-opacity="0" offset="100%"></stop></linearGradient><linearGradient x1="88.2304152%" y1="0%" x2="-24.072358%" y2="88.8030982%" id="linearGradient-32"><stop stop-color="#79CC74" offset="0%"></stop><stop stop-color="#37A681" offset="100%"></stop></linearGradient><linearGradient x1="88.2304152%" y1="0%" x2="50%" y2="93.5861231%" id="linearGradient-33"><stop stop-color="#ECFFEB" offset="0%"></stop><stop stop-color="#FEFEFE" offset="100%"></stop></linearGradient><linearGradient x1="50%" y1="0%" x2="50%" y2="100%" id="linearGradient-34"><stop stop-color="#218C8C" stop-opacity="0" offset="0%"></stop><stop stop-color="#1F898B" offset="47.1221301%"></stop><stop stop-color="#1F898B" stop-opacity="0" offset="100%"></stop></linearGradient><path d="M60.75,61.7070707 C59.1285901,34.1020156 50.6383439,16.1514803 35.2792615,7.85546484 C19.920179,-0.440550582 8.16042521,-2.16561127 0,2.68028279 C0.814541972,15.8053931 6.21655615,22.0608439 16.2060425,21.4466355 C31.1902721,20.5253228 29.7041651,22.4373942 25.5613764,30.8535354 C21.4185876,39.2696765 42.2553525,34.3531934 44.926147,41.9145647 C46.7066766,46.955479 51.9812943,53.552981 60.75,61.7070707 Z" id="path-35"></path></defs><g id="Pages" stroke="none" stroke-width="1" fill="none" fill-rule="evenodd"><g id="Business-Intelligence" transform="translate(-343.000000, 2.000000)"><g id="Hero" transform="translate(1.000000, 1.000000)"><g id="Group-2" transform="translate(-112.000000, -3.000000)"><g id="data-intro"><g id="Group-22" opacity="0.182687953" transform="translate(0.000000, 2.000000)" stroke="url(#linearGradient-1)" stroke-linecap="square" stroke-width="1.8"><g id="Group-21" transform="translate(470.000000, 294.000000)"><path d="M0.636295346,488.859066 L1029.59433,1182.90002" id="Line-3-Copy-40"></path><path d="M71.1387413,381.276608 L1259.59433,1182.90002" id="Line-3-Copy-45"></path><path d="M209.299438,320.647869 L1489.59433,1182.90002" id="Line-3-Copy-50"></path><path d="M354.433541,262.087445 L1719.59433,1182.90002" id="Line-3-Copy-55"></path><path d="M485.716539,195.501986 L1949.59433,1182.90002" id="Line-3-Copy-60"></path><path d="M608.02116,122.860536 L2179.59433,1182.90002" id="Line-3-Copy-65"></path><path d="M725.894508,47.2301541 L2409.59433,1182.90002" id="Line-3-Copy-70"></path><path d="M886.898358,0.691663326 L2639.59433,1182.90002" id="Line-3-Copy-75"></path></g><g id="Group-21-Copy-2" transform="translate(1555.000000, 738.500000) scale(-1, 1) translate(-1555.000000, -738.500000) "><path d="M0,0 L2189.59433,1476.90002" id="Line-3-Copy-27"></path><path d="M230,0 L2419.59433,1476.90002" id="Line-3-Copy-32"></path><path d="M460,0 L2649.59433,1476.90002" id="Line-3-Copy-37"></path><path d="M690,0 L2879.59433,1476.90002" id="Line-3-Copy-42"></path><path d="M1459.90582,364.171077 L3109.59433,1476.90002" id="Line-3-Copy-47"></path><path d="M1614.79782,313.510088 L2450.30917,877.069611" id="Line-3-Copy-52"></path><path d="M1751.56809,250.625843 L2644.91412,853.195345" id="Line-3-Copy-57"></path></g></g><g id="Hero-Illustration" transform="translate(891.000000, 216.000000)"><polygon id="Path-27" fill="url(#linearGradient-2)" points="0.839759036 497.380016 0.839759036 503.047968 310.578641 712.873898 310.578641 702.964108"></polygon><polygon id="Path-27-Copy" fill="url(#linearGradient-3)" transform="translate(500.624817, 577.569989) scale(-1, 1) translate(-500.624817, -577.569989) " points="310.458875 442.32875 310.458875 454.086966 690.79076 712.811228 690.79076 683.74713"></polygon><polygon id="Path-25" fill="url(#linearGradient-4)" points="0.433793957 497.534645 310.193344 706.309995 696.349509 444.356296 387.174911 238.947078"></polygon><g id="Group-63" opacity="0.5" transform="translate(4.000000, 374.000000)"><ellipse id="Oval-26" fill="#CBFFCF" cx="13" cy="122" rx="5" ry="2"></ellipse><ellipse id="Oval-26-Copy" fill="url(#linearGradient-2)" opacity="0.320652174" cx="12.5" cy="107" rx="12.5" ry="5"></ellipse><ellipse id="Oval-26-Copy-4" fill="url(#linearGradient-4)" cx="13" cy="79.5" rx="9" ry="3.5"></ellipse><ellipse id="Oval-26-Copy-2" fill="url(#linearGradient-4)" cx="12.5" cy="97" rx="12.5" ry="5"></ellipse><ellipse id="Oval-26-Copy-3" stroke="#2C9A9B" stroke-width="0.6967296" cx="12.5" cy="93" rx="12.5" ry="5"></ellipse><ellipse id="Oval-26-Copy-5" stroke="#B0E1B4" stroke-width="0.6967296" cx="13" cy="75" rx="10" ry="4"></ellipse><path d="M13.129024,121.306664 L13.129024,0.91995871" id="Path-50" stroke="url(#linearGradient-5)" stroke-width="0.672" stroke-linecap="round" stroke-linejoin="round"></path></g><g id="Group-63-Copy-2" opacity="0.5" transform="translate(669.000000, 323.000000)"><ellipse id="Oval-26" fill="#CBFFCF" cx="13" cy="122" rx="5" ry="2"></ellipse><ellipse id="Oval-26-Copy" fill="url(#linearGradient-2)" opacity="0.320652174" cx="12.5" cy="107" rx="12.5" ry="5"></ellipse><ellipse id="Oval-26-Copy-4" fill="url(#linearGradient-4)" cx="13" cy="79.5" rx="9" ry="3.5"></ellipse><ellipse id="Oval-26-Copy-2" fill="url(#linearGradient-4)" cx="12.5" cy="97" rx="12.5" ry="5"></ellipse><ellipse id="Oval-26-Copy-3" stroke="#2C9A9B" stroke-width="0.6967296" cx="12.5" cy="93" rx="12.5" ry="5"></ellipse><ellipse id="Oval-26-Copy-5" stroke="#B0E1B4" stroke-width="0.6967296" cx="13" cy="75" rx="10" ry="4"></ellipse><path d="M13.129024,121.306664 L13.129024,0.91995871" id="Path-50" stroke="url(#linearGradient-5)" stroke-width="0.672" stroke-linecap="round" stroke-linejoin="round"></path></g><g id="Group-63-Copy" opacity="0.5" transform="translate(296.000000, 572.000000)"><ellipse id="Oval-26" fill="#CBFFCF" cx="13" cy="122" rx="5" ry="2"></ellipse><ellipse id="Oval-26-Copy" fill="url(#linearGradient-2)" opacity="0.529664855" cx="12.5" cy="107" rx="12.5" ry="5"></ellipse><ellipse id="Oval-26-Copy-4" fill="#FFFFFF" cx="13" cy="79.5" rx="9" ry="3.5"></ellipse><ellipse id="Oval-26-Copy-2" fill="url(#linearGradient-6)" cx="12.5" cy="97" rx="12.5" ry="5"></ellipse><ellipse id="Oval-26-Copy-3" stroke="#2C9A9B" stroke-width="0.6967296" cx="12.5" cy="93" rx="12.5" ry="5"></ellipse><ellipse id="Oval-26-Copy-5" stroke="#FFFFFF" stroke-width="0.6967296" cx="13" cy="75" rx="10" ry="4"></ellipse><path d="M13.129024,121.306664 L13.129024,0.91995871" id="Path-50" stroke="url(#linearGradient-7)" stroke-width="0.672" stroke-linecap="round" stroke-linejoin="round"></path></g><polygon id="Path-25-Copy" stroke="#FFFFFF" stroke-width="0.6967296" points="28.6502965 495.514966 313.290911 687.360363 668.133007 446.648941 384.029909 257.89671"></polygon><g id="Group-7" transform="translate(78.937349, 0.000000)"><g id="Chart"><polygon id="Path-18" fill="url(#linearGradient-8)" opacity="0.593636775" points="0.0671703725 513.875625 202.1507 649.565169 542.346404 420.21477 333.877176 282.784603"></polygon><polygon id="Path-24" fill="url(#linearGradient-9)" points="0.0726280276 513.870496 -1.13686838e-13 241.015972 356.216489 0.661988878 356.216489 268.985533"></polygon><path d="" id="Path-22" stroke="#979797" stroke-width="0.672"></path><polygon id="Path-23" fill="url(#linearGradient-10)" points="160.930213 550.619422 51.6194263 477.547749 51.3706854 354.612444 93.9049329 324.875058 93.9049329 448.232767 245.958932 550.619422"></polygon><polygon id="Path-23-Copy" fill="url(#linearGradient-11)" points="230.16923 511.632018 115.27294 434.826569 115.674512 297.814799 158.208759 268.077414 158.208759 405.148582 301.847123 500.907849"></polygon><polygon id="Path-23-Copy-2" fill="url(#linearGradient-12)" points="281.258213 457.856288 182.157714 391.609951 187.558851 261.014256 230.093098 231.276871 227.000019 363.174414 352.936106 447.132119"></polygon><polygon id="Path-23-Copy-3" fill="url(#linearGradient-13)" points="335.708314 410.802524 241.926114 348.111344 247.724065 176.106748 290.258313 146.369362 287.563505 320.196255 407.386207 400.078356"></polygon><g id="Group-33" transform="translate(159.316962, 92.451920)"><g id="Group-23-Copy-3" transform="translate(198.305923, 0.000000)"><g id="Group-7-Copy-2" transform="translate(0.000000, 92.402151)"><polygon id="Path-11" fill="url(#linearGradient-14)" points="0.306967585 29.0641753 0.306967585 233.436455 42.7880426 262.191438 42.7880426 57.4288001"></polygon><polygon id="Path-11-Copy" fill="url(#linearGradient-15)" transform="translate(63.941777, 145.446616) scale(-1, 1) translate(-63.941777, -145.446616) " points="42.7012399 28.6963806 42.7012399 233.772772 85.1823149 262.196851 85.1823149 57.0610054"></polygon><polyline id="Path-7" fill="url(#linearGradient-16)" points="0.241918814 29.035924 42.8591007 58.2087957 85.8422417 29.035924 42.8591007 0.0774983225"></polyline></g><g id="Group-7-Copy-3"><polygon id="Path-11" fill="url(#linearGradient-17)" points="0.306967585 29.0641753 0.306967585 99.0726005 42.7880426 127.827584 42.7880426 57.4288001"></polygon><polygon id="Path-11-Copy" fill="url(#linearGradient-18)" transform="translate(63.941777, 78.235116) scale(-1, 1) translate(-63.941777, -78.235116) " points="42.7012399 28.6963806 42.7012399 99.3497734 85.1823149 127.773852 85.1823149 57.0610054"></polygon><polyline id="Path-7" fill="url(#linearGradient-19)" points="0.241918814 29.035924 42.8591007 58.2087957 85.8422417 29.035924 42.8591007 0.0774983225"></polyline></g></g><g id="Group-23-Copy-2" transform="translate(132.428023, 52.808910)"><g id="Group-7-Copy-2" transform="translate(0.000000, 143.111521)"><polygon id="Path-11" fill="url(#linearGradient-20)" points="0.306967585 29.0641753 0.306967585 174.549895 42.7880426 203.304879 42.7880426 57.4288001"></polygon><polygon id="Path-11-Copy" fill="url(#linearGradient-15)" transform="translate(63.941777, 115.942245) scale(-1, 1) translate(-63.941777, -115.942245) " points="42.7012399 28.6963806 42.7012399 174.76403 85.1823149 203.188109 85.1823149 57.0610054"></polygon><polyline id="Path-7" fill="url(#linearGradient-16)" points="0.241918814 29.035924 42.8591007 58.2087957 85.8422417 29.035924 42.8591007 0.0774983225"></polyline></g><g id="Group-7-Copy-3" transform="translate(0.000000, -0.000000)"><polygon id="Path-11" fill="url(#linearGradient-21)" points="0.306967585 29.0641753 0.306967585 150.300175 42.7880426 179.055158 42.7880426 57.4288001"></polygon><polygon id="Path-11-Copy" fill="url(#linearGradient-22)" transform="translate(63.941777, 103.893778) scale(-1, 1) translate(-63.941777, -103.893778) " points="42.7012399 28.6963806 42.7012399 150.667097 85.1823149 179.091176 85.1823149 57.0610054"></polygon><polyline id="Path-7" fill="url(#linearGradient-23)" points="0.241918814 29.035924 42.8591007 58.2087957 85.8422417 29.035924 42.8591007 0.0774983225"></polyline><path d="M29.7893518,44.6544376 L26.3032544,46.8408194 L26.3032544,155.196668 L0.700492217,131.660616 L0.313369606,55.9823203 L23.9173773,33.122405 L29.7293415,36.6472456 C31.9506874,37.9944477 32.6593209,40.8873274 31.3121188,43.1086733 C30.9319267,43.7355563 30.410466,44.2648923 29.7893518,44.6544376 Z" id="Combined-Shape" fill="url(#linearGradient-24)"></path></g></g><g id="Group-23-Copy" transform="translate(64.533453, 130.767128)"><g id="Group-7-Copy-2" transform="translate(0.000000, 51.037174)"><polygon id="Path-11" fill="url(#linearGradient-20)" points="0.306967585 29.0641753 0.306967585 233.436455 42.7880426 262.191438 42.7880426 57.4288001"></polygon><polygon id="Path-11-Copy" fill="url(#linearGradient-15)" transform="translate(63.941777, 145.446616) scale(-1, 1) translate(-63.941777, -145.446616) " points="42.7012399 28.6963806 42.7012399 233.772772 85.1823149 262.196851 85.1823149 57.0610054"></polygon><polyline id="Path-7" fill="url(#linearGradient-16)" points="0.241918814 29.035924 42.8591007 58.2087957 85.8422417 29.035924 42.8591007 0.0774983225"></polyline></g><g id="Group-7-Copy-3"><polygon id="Path-11" fill="url(#linearGradient-17)" points="0.306967585 29.0641753 0.306967585 60.3804545 42.7880426 89.1354377 42.7880426 57.4288001"></polygon><polygon id="Path-11-Copy" fill="url(#linearGradient-18)" transform="translate(63.941777, 58.930672) scale(-1, 1) translate(-63.941777, -58.930672) " points="42.7012399 28.6963806 42.7012399 60.7408846 85.1823149 89.1649635 85.1823149 57.0610054"></polygon><polyline id="Path-7" fill="url(#linearGradient-19)" points="0.241918814 29.035924 42.8591007 58.2087957 85.8422417 29.035924 42.8591007 0.0774983225"></polyline></g></g><g id="Group-23" transform="translate(0.000000, 208.692167)"><g id="Group-7-Copy-2" transform="translate(0.000000, 148.555454)"><polygon id="Path-11" fill="url(#linearGradient-20)" points="0.306967585 29.0641753 0.306967585 101.631336 42.7880426 130.386319 42.7880426 57.4288001"></polygon><polygon id="Path-11-Copy" fill="url(#linearGradient-15)" transform="translate(63.941777, 79.518510) scale(-1, 1) translate(-63.941777, -79.518510) " points="42.7012399 28.6963806 42.7012399 101.91656 85.1823149 130.340639 85.1823149 57.0610054"></polygon><polyline id="Path-7" fill="url(#linearGradient-16)" points="0.241918814 29.035924 42.8591007 58.2087957 85.8422417 29.035924 42.8591007 0.0774983225"></polyline><path d="M0.422652585,29.0651076 L42.693409,58.1506075" id="Path-20" stroke="url(#linearGradient-25)" stroke-width="0.525" stroke-linecap="round" stroke-linejoin="round"></path><path d="M43.0223018,29.0529999 L85.5571931,57.9899546" id="Path-20-Copy-2" stroke="url(#linearGradient-26)" stroke-width="0.525" stroke-linecap="round" stroke-linejoin="round" transform="translate(64.289747, 43.521477) scale(-1, 1) translate(-64.289747, -43.521477) "></path></g><g id="Group-7-Copy-3"><polygon id="Path-11" fill="url(#linearGradient-27)" points="0.306967585 29.0641753 0.306967585 150.300175 42.7880426 179.055158 42.7880426 57.4288001"></polygon><polygon id="Path-11-Copy" fill="url(#linearGradient-3)" transform="translate(63.941777, 103.893778) scale(-1, 1) translate(-63.941777, -103.893778) " points="42.7012399 28.6963806 42.7012399 150.667097 85.1823149 179.091176 85.1823149 57.0610054"></polygon><polyline id="Path-7" fill="url(#linearGradient-28)" points="0.241918814 29.035924 42.8591007 58.2087957 85.8422417 29.035924 42.8591007 0.0774983225"></polyline><path d="M0.681867734,29.1005566 L42.7144301,58.24938" id="Path-20" stroke="url(#linearGradient-29)" stroke-width="0.672" stroke-linecap="round" stroke-linejoin="round"></path><path d="M43.0223018,29.0616036 L85.7252001,58.0532782" id="Path-20-Copy" stroke="url(#linearGradient-30)" stroke-width="0.672" stroke-linecap="round" stroke-linejoin="round" transform="translate(64.373751, 43.557441) scale(1, -1) translate(-64.373751, -43.557441) "></path><path d="M42.6861901,58.239971 L42.6861901,178.316444" id="Path-21" stroke="url(#linearGradient-30)" stroke-width="0.672" stroke-linecap="round" stroke-linejoin="round"></path></g></g><polygon id="Path-26" fill="url(#linearGradient-31)" points="126.659333 143.726309 83.1665298 171.585304 83.1665298 202.859856 65.2056762 190.746383 65.2056762 159.226099 108.065284 130.767128"></polygon><polygon id="Path-26-Copy-3" fill="url(#linearGradient-31)" points="61.8098649 221.652975 18.9333839 250.50686 17.9608536 281.457091 0 269.343619 0 237.823334 42.9689031 208.730543"></polygon></g></g><g id="Tooltip" transform="translate(122.344671, 113.223656)"><ellipse id="Oval-22" fill="#6AD9A2" cx="77.3056986" cy="206.06974" rx="3.36111733" ry="3.36098311"></ellipse><ellipse id="Oval-22-Copy" fill="#6AD9A2" cx="77.3056986" cy="191.281414" rx="3.36111733" ry="3.36098311"></ellipse><ellipse id="Oval-22-Copy-2" fill="#6AD9A2" cx="77.3056986" cy="176.493088" rx="3.36111733" ry="3.36098311"></ellipse><ellipse id="Oval-22-Copy-3" fill="#6AD9A2" cx="77.3056986" cy="161.704762" rx="3.36111733" ry="3.36098311"></ellipse><path d="M10.4407057,196.261838 L180.62387,83.108481 C186.244265,79.3715273 189.621753,73.0699517 189.621753,66.3206061 L189.621753,7.56384527 C189.621753,3.85249175 186.613106,0.843845272 182.901753,0.843845272 C181.573933,0.843845272 180.275874,1.23721366 179.171423,1.97429756 L8.96901223,115.563279 C3.36527886,119.303076 1.33858035e-14,125.594868 1.42108547e-14,132.331923 L4.4408921e-15,190.66588 C2.13771223e-14,194.377233 3.00864648,197.38588 6.72,197.38588 C8.04388066,197.38588 9.33826804,196.994839 10.4407057,196.261838 Z" id="Path-26-Copy" fill="url(#linearGradient-32)"></path><path d="M17.1629403,198.950624 L187.346104,85.7972675 C192.9665,82.0603138 196.343987,75.7587382 196.343987,69.0093926 L196.343987,10.2526318 C196.343987,6.54127824 193.335341,3.53263176 189.623987,3.53263176 C188.296168,3.53263176 186.998109,3.92600015 185.893658,4.66308405 L15.6912469,118.252066 C10.0875135,121.991862 6.72223466,128.283654 6.72223466,135.020709 L6.72223466,193.354666 C6.72223466,197.06602 9.73088114,200.074666 13.4422347,200.074666 C14.7661153,200.074666 16.0605027,199.683626 17.1629403,198.950624 Z" id="Path-26-Copy-2" fill="url(#linearGradient-33)"></path><path d="M104.530749,84.7309435 L104.530749,115.659294" id="Line-8" stroke="url(#linearGradient-34)" stroke-width="0.672" opacity="0.489356884" stroke-linecap="square"></path><ellipse id="Oval-23" fill="#197F89" cx="22.5194861" cy="155.654993" rx="3.0250056" ry="4.03317974"></ellipse><ellipse id="Oval-23-Copy" fill="#8CD987" cx="126.0419" cy="86.4187407" rx="3.0250056" ry="4.03317974"></ellipse><path d="M42.1231231,140.957189 L41.1611935,141.505502 L46.3556134,133.073706 L46.3556134,131.069801 L35.1250852,138.598857 L35.1491334,141.383374 L42.3876538,136.530599 L37.6982469,144.14096 L37.6982469,146.000005 L40.2714086,144.274932 C42.6521844,142.678837 44.0469823,142.612915 44.0469823,144.302956 C44.0469823,145.94471 42.6762326,147.901842 40.2954569,149.497937 C38.61208,150.62649 36.9527515,151.087047 35.60605,150.782716 L34.2833968,154.301071 C35.8465324,154.412015 38.2513564,153.548244 40.5359393,152.016638 C44.6241401,149.275868 47.1973018,145.329598 47.1973018,142.142664 C47.1973018,139.486885 45.1532014,139.239659 42.1231231,140.957189 Z M61.02504,124.784359 C60.0150139,124.785474 58.6442642,125.318143 57.3697074,126.172619 C54.2674845,128.252379 52.7764936,131.473151 52.8967348,134.820909 C53.7624714,132.791904 55.2775105,130.979473 57.321611,129.609088 C60.6643164,127.368106 62.732465,128.106222 62.732465,131.413873 C62.732465,134.938816 60.3516892,138.731965 56.720405,141.166413 C52.4157699,144.052283 49.7945118,142.719239 49.7945118,137.528399 C49.7945118,132.120268 52.6562524,126.676786 57.1532733,123.66194 C58.8606983,122.517265 60.9047988,121.653892 62.2755485,121.555805 L61.02504,124.784359 Z M56.6963567,132.539183 C54.5560633,133.974057 53.3296031,136.14832 53.3536513,137.773952 C53.3296031,139.190394 54.3396292,140.0343 56.5761155,138.534937 C58.4759265,137.261285 59.7745315,135.28009 59.7745315,133.372758 C59.7745315,131.586143 58.5961677,131.265531 56.6963567,132.539183 Z M66.0992187,131.160674 C67.1092448,131.159559 68.4559462,130.643013 69.7305029,129.788537 C72.8327259,127.708777 74.2756204,124.496106 74.2034756,121.140247 C73.337739,123.169252 71.8467481,124.96556 69.8026477,126.335945 C66.4839905,128.560806 64.4158418,127.82269 64.4158418,124.515038 C64.4158418,120.990096 66.7966176,117.196947 70.3798054,114.794743 C74.6603922,111.924995 77.3056986,113.241917 77.3056986,118.432757 C77.3056986,123.840888 74.443958,129.28437 69.9469371,132.299216 C68.239512,133.443891 66.2435081,134.250876 64.8727584,134.373106 L66.0992187,131.160674 Z M70.5240949,117.426219 C68.6483321,118.683748 67.3978236,120.6327 67.3978236,122.540032 C67.3978236,124.326647 68.5521392,124.663381 70.4279019,123.405851 C72.5441471,121.987099 73.7706073,119.812836 73.7465591,118.187204 C73.7706073,116.770762 72.7846295,115.910734 70.5240949,117.426219 Z" id="369" fill="#208A8B"></path><path d="M137.133587,71.1876111 L137.133587,74.0423502 L140.68449,71.6421977 L140.68449,85.7465441 L143.967859,83.527225 L143.967859,66.5681395 L137.133587,71.1876111 Z M156.152806,58.3319999 L150.437312,72.7674706 L150.437312,75.1383556 L158.584932,69.6311564 L158.584932,73.6471453 L161.600767,71.6086596 L161.600767,67.5926707 L164.057213,65.9322913 L164.057213,63.1501303 L161.625088,64.7940704 L161.600767,60.9154845 L158.584932,62.9539701 L158.584932,66.8489955 L153.866609,70.0382392 L159.290248,56.2113172 L156.152806,58.3319999 Z M173.007434,54.0279575 L172.034584,54.5887627 L177.287975,46.0783479 L177.287975,44.0703535 L165.92995,51.7475535 L165.954271,54.5374678 L173.274968,49.5892082 L168.532324,57.2705416 L168.532324,59.1333798 L171.134698,57.3743639 C173.542502,55.7468632 174.953135,55.6643154 174.953135,57.3578046 C174.953135,59.0029085 173.566823,60.9802406 171.159019,62.6077413 C169.456531,63.7584993 167.778365,64.2396149 166.416375,63.9505862 L165.078706,67.4917579 C166.659587,67.5844467 169.091713,66.6904804 171.402232,65.1287374 C175.536845,62.3340393 178.139219,58.3492947 178.139219,55.1558577 C178.139219,52.4946603 176.071912,52.2710982 173.007434,54.0279575 Z" id="143" fill="#208A8B"></path></g></g><g id="Group-7" transform="translate(519.500000, 553.000000) scale(-1, 1) translate(-519.500000, -553.000000) translate(502.000000, 514.000000)"><path d="M12.1445815,14.1351578 C14.2124396,17.1225732 15.917217,18.4199479 17.2589137,18.0272819 C18.6006103,17.6346159 20.559103,16.8212139 23.1343916,15.5870757 L24.2694916,20.3780738 L17.2589137,23.9541727 L8.14029288,19.0446653 L12.1445815,14.1351578 Z" id="Path-15" fill="#2AAC9C"></path><path d="M1.7996379,69.3078473 L1.79964693,71.3493823 C1.79964693,71.7360989 2.04669263,72.079585 2.41331726,72.202614 C3.88009455,72.6948233 5.1384887,72.6168158 6.1884997,71.9685914 C7.0428728,71.4411441 9.74806957,69.1315372 10.8689763,67.9171192 C11.9178839,66.7807068 11.3367766,65.4894586 10.8689763,65.154805 C9.97422238,64.5147185 7.45684855,64.7157099 5.16550549,66.7807068 C3.63794346,68.1573713 2.51598759,68.9997515 1.7996379,69.3078473 Z" id="Path-12-Copy" fill="#0B4651"></path><path d="M0.89981895,38.8879908 L2.11169523,68.0773503 C2.32633767,69.0135406 3.03783903,69.4816358 4.24619929,69.4816358 C5.45455955,69.4816358 6.22495636,69.0135406 6.55738973,68.0773503 C5.93643759,60.2307287 5.93643759,54.6713104 6.55738973,51.3990953 C7.17834186,48.1268802 9.37713681,42.0993667 13.1537746,33.3165548 L0.89981895,38.8879908 Z" id="Path-10-Copy" fill="#0E6B78"></path><path d="M8.436357,74.1563965 L8.43636603,76.1979315 C8.43636603,76.5846481 8.68341173,76.9281342 9.05003636,77.0511631 C10.5168137,77.5433725 11.7752078,77.465365 12.8252188,76.8171406 C13.6795919,76.2896933 16.3847887,73.9800864 17.5056954,72.7656683 C18.554603,71.629256 17.9734957,70.3380078 17.5056954,70.0033542 C16.6109415,69.3632676 14.0935677,69.5642591 11.8022246,71.629256 C10.2746626,73.0059205 9.15270669,73.8483007 8.436357,74.1563965 Z" id="Path-12" fill="#0B4651"></path><path d="M4.49909475,45.2246794 C6.87933619,49.1453494 8.1831139,51.9261179 8.41042788,53.5669851 C8.63774186,55.2078522 8.63774186,61.8384099 8.41042788,73.4586582 C8.85501035,74.5107945 9.59355858,75.0004646 10.6260726,74.9276687 C11.6585866,74.8548727 12.4019365,74.3652025 12.8561224,73.4586582 L16.3195799,43.3837276 L14.7336775,39.9079078 L4.49909475,45.2246794 Z" id="Path-10" fill="#0E6B78"></path><path d="M0.476908704,39.6783142 C0.750873784,29.0853231 1.18244612,22.260907 1.77162572,19.2050658 C3.08109538,12.4133654 5.27606526,11.1170918 9.15631999,11.0187088 C13.6189572,10.9055597 14.9569203,16.0128101 15.5848669,26.2967828 C15.7176716,28.4717463 16.2258605,31.913103 16.4540679,36.6394009 C16.5207729,38.0208978 16.5207729,40.3414665 16.4540679,43.6011072 C10.5602651,47.4604371 6.36115587,48.159747 3.85674019,45.6990371 C1.35232451,43.2383272 0.225714015,41.2314195 0.476908704,39.6783142 Z" id="Path-7" fill="#33BAAA"></path><path d="" id="Path-8" stroke="#979797" stroke-width="0.9"></path><polygon id="Path-11" fill="#FFFFFF" transform="translate(26.445622, 17.284769) rotate(19.000000) translate(-26.445622, -17.284769) " points="23.0363142 8.6818073 32.4215457 11.8653441 29.6664887 25.8877298 20.4696975 22.530243"></polygon><path d="M31.8428663,20.0373342 L31.8428663,14.8089463 C28.2719452,14.3300785 26.3529941,14.2602822 26.0860131,14.5995572 C25.819032,14.9388322 26.7396745,16.108334 28.8479406,18.1080624 L31.8428663,20.0373342 Z" id="Path-13" fill="#FFD7B3" transform="translate(28.941933, 17.212925) rotate(68.000000) translate(-28.941933, -17.212925) "></path><path d="M11.345846,17.9338538 C13.0033231,17.1352672 14.3468926,19.1235827 18.108177,22.4655919 C18.893515,23.1633873 20.2396367,24.2423542 22.146542,25.7024928 L27.499877,18.6558134 L31.2430603,20.0097323 L25.9746729,28.8481696 C24.7021698,30.9829669 21.940007,31.6819944 19.8052098,30.4094912 C19.7255176,30.3619886 19.6473136,30.3120328 19.5707097,30.2596955 L10.2985309,23.9247554 C8.53682779,21.1160282 8.88593283,19.119061 11.345846,17.9338538 Z" id="Path-9" fill="#33BAAA"></path><path d="M10.0543891,1.80089485 L10.0543891,1.80089485 C13.1224935,1.80089485 15.6096835,4.28808487 15.6096835,7.35618924 L15.6096835,9.49104584 C15.6096835,12.5591502 13.1224935,15.0463402 10.0543891,15.0463402 L10.0543891,15.0463402 C6.98628477,15.0463402 4.49909475,12.5591502 4.49909475,9.49104584 L4.49909475,7.35618924 C4.49909475,4.28808487 6.98628477,1.80089485 10.0543891,1.80089485 Z" id="Rectangle" fill="#FFD7B3"></path><path d="M21.4799614,13.8539954 C23.3817985,13.0058409 24.3077593,12.8673851 24.257844,13.4386282 C24.2079286,14.0098713 23.3627682,14.7612473 21.7223628,15.6927563 L21.4799614,13.8539954 Z" id="Path-14" fill="#FFD7B3"></path><path d="M5.24808935,12.3269905 C6.45173259,14.2151376 7.52045519,15.056089 8.45425713,14.8498449 C9.85496005,14.5404788 9.83936101,8.85407209 10.0359675,7.10408815 C13.7809962,8.06010959 16.0574918,7.1006365 16.8654542,4.22566889 C14.7518904,4.22566889 13.1959196,0.978924902 10.6979433,0.730194155 C8.19996696,0.481463408 4.43750361,1.8094333 5.48161251,4.22566889 C4.6531908,4.23560718 4.12146535,5.11670343 3.88643617,6.86895764 C3.65140699,8.62121184 4.10529138,10.4405561 5.24808935,12.3269905 Z" id="Path-16" fill="#0B4651"></path></g><g id="Group-36" transform="translate(637.000000, 404.000000)"><path d="M78.0762324,115.136364 L78.0762324,136.174124 C76.4505902,143.324517 71.3812115,147.382578 62.8680965,148.348307 C54.3549814,149.314036 48.3989492,146.577838 45,140.139714 L45,119.264419 L79.1045642,115.136364" id="Path-39" fill="#0F798A"></path><ellipse id="Oval-4" fill="#0D6574" transform="translate(61.298573, 116.513158) rotate(-8.000000) translate(-61.298573, -116.513158) " cx="61.2985734" cy="116.513158" rx="16.7253637" ry="8.91078324"></ellipse><g id="Path-44" transform="translate(0.000000, 58.696970)"><mask id="mask-36" fill="white"><use xlink:href="#path-35"></use></mask><use id="Mask" fill="#33BAAA" xlink:href="#path-35"></use><path d="M63.0336883,20.7003217 C39.362988,-1.21373206 25.3310082,-8.10025133 20.9377488,0.0407638771 C36.6740646,13.6403523 47.1659745,33.6988231 52.4134786,60.2161762 C66.7217357,66.6527812 75.0172314,68.0453025 77.2999657,64.3937401 C79.5827001,60.7421777 76.0660448,53.5755775 66.75,42.8939394 L63.0336883,20.7003217 Z" fill="#25877C" mask="url(#mask-36)"></path><path d="M58.5,57.9444444 C51.1742577,18.3074712 32.1742577,-0.16980567 1.5,2.51261398" id="Path-38" stroke="#0D6574" stroke-width="1.0125" mask="url(#mask-36)"></path><path d="M30.75,7.80318682 C24.3169448,6.93614697 18.5669448,8.09771095 13.5,11.2878788" id="Path-45" stroke="#0D6574" stroke-width="1.0125" mask="url(#mask-36)"></path><path d="M44.25,20.4995259 C39.9713594,19.8860791 34.9713594,20.8289981 29.25,23.3282828" id="Path-46" stroke="#0D6574" stroke-width="1.0125" mask="url(#mask-36)"></path><path d="M49.5014938,28.5959596 C49.4618481,25.0685035 50.2113502,23.0617695 51.75,22.5757576" id="Path-47" stroke="#0D6574" stroke-width="1.0125" mask="url(#mask-36)"></path></g><g id="Group-10" transform="translate(75.451208, 65.890208) rotate(14.000000) translate(-75.451208, -65.890208) translate(31.951208, 8.890208)"><path d="M42.2495067,113.484259 C32.1511278,84.2811828 4.66432009,73.435602 6.46845107,63.1714457 C7.90500802,54.9985109 19.6673628,62.3054711 20.2902352,59.5741739 C20.9131076,56.8428767 3.62677029,30.44624 18.7580967,30.4541973 C33.8894232,30.4621547 27.9749652,8.4388045 52.8993866,0.221572828 C48.120674,5.51759459 49.9541311,16.2775975 63.464919,34.5633296 C76.975707,52.8490616 54.3235016,54.3378783 53.5234109,61.0604466 C52.7233201,67.783015 65.44931,50.2206514 67.4405306,63.1714457 C68.768011,71.8053086 45.0209673,81.808572 42.2495067,113.484259 Z" id="Combined-Shape" fill="#33BAAA"></path><path d="M1.32121777,89.5485509 C38.2651652,78.5320921 66.4511299,61.5273315 85.8791118,38.5342692" id="Path-117" stroke="#0D6574" stroke-width="1.8" transform="translate(43.600165, 64.041410) scale(-1, 1) rotate(-60.000000) translate(-43.600165, -64.041410) "></path><path d="M43.2112984,68.8516903 C46.5844373,63.55991 48.2108123,55.2417641 48.0904236,43.8972525" id="Path-118" stroke="#0D6574" stroke-width="1.8" transform="translate(45.653972, 56.374471) scale(-1, 1) rotate(-60.000000) translate(-45.653972, -56.374471) "></path><path d="M12.8023541,70.9438335 C26.0961773,69.691834 35.1228636,73.6028883 39.882413,82.6769964" id="Path-119" stroke="#0D6574" stroke-width="1.8" transform="translate(26.342384, 76.696565) scale(-1, 1) rotate(-60.000000) translate(-26.342384, -76.696565) "></path><path d="M44.3175797,28.4427371 L44.5071621,20.1984841" id="Path-120" stroke="#0D6574" stroke-width="1.8" transform="translate(44.412371, 24.320611) scale(-1, 1) rotate(-60.000000) translate(-44.412371, -24.320611) "></path><path d="M27.8046181,36.5279344 C33.3387187,41.3771495 36.4301715,46.3642543 37.0789765,51.4892487" id="Path-82" stroke="#0D6574" stroke-width="1.8"></path></g></g><g id="Group-64" transform="translate(76.000000, 562.000000)"><g id="Group-42"><polygon id="Path-30" fill="url(#linearGradient-20)" points="45.4007443 93.4971756 50.5764703 90.1834763 50.5764703 65.1666925 42.8526618 41.637636 37.3712492 48.8247847"></polygon><polygon id="Path-29" fill="url(#linearGradient-2)" points="24.4047292 37.9445525 34.8949436 59.6785469 34.8949436 86.4157025 45.385158 93.5251118 45.2281743 65.7348322 37.5306737 39.8239755"></polygon><polygon id="Path-32" fill="url(#linearGradient-31)" points="31.2460654 51.7866318 34.9800441 59.8821564 34.9800441 69.1571203 45.380771 75.5759203 50.7074243 73.2363971 50.7074243 65.0679175 47.3307044 57.0661923"></polygon><g id="Group-35"><polygon id="Path-28" fill="url(#linearGradient-20)" points="0 31.3470391 46.996465 63.1398182 63.8953055 31.3470391 15.6281752 0"></polygon><polygon id="Path-28-Copy" fill="url(#linearGradient-3)" points="2.79544439 30.9492467 45.7708157 59.6173709 60.5792559 31.7573843 16.4904016 3.47986179"></polygon><polygon id="Path-28-Copy-2" stroke="#85D688" stroke-width="0.5640192" points="6.20116115 31.0198992 44.1106865 56.3086854 57.1735391 31.7327752 18.2817858 6.78854722"></polygon><ellipse id="Oval-25" fill="#73CE8C" cx="40" cy="28.5" rx="1" ry="1.5"></ellipse><ellipse id="Oval-25-Copy-3" fill="#73CE8C" cx="37" cy="35.5" rx="1" ry="1.5"></ellipse><ellipse id="Oval-25-Copy" fill="#73CE8C" cx="45" cy="31.5" rx="1" ry="1.5"></ellipse><ellipse id="Oval-25-Copy-4" fill="#73CE8C" cx="42" cy="38.5" rx="1" ry="1.5"></ellipse><ellipse id="Oval-25-Copy-2" fill="#73CE8C" cx="50" cy="34.5" rx="1" ry="1.5"></ellipse><ellipse id="Oval-25-Copy-5" fill="#73CE8C" cx="47" cy="41.5" rx="1" ry="1.5"></ellipse><g id="Group-62" transform="translate(9.000000, 12.000000)"><ellipse id="Oval-24" stroke="#89D887" stroke-width="2.4" opacity="0.680989583" transform="translate(14.076302, 13.801334) rotate(31.000000) translate(-14.076302, -13.801334) " cx="14.0763021" cy="13.801334" rx="9.2" ry="8.20225793"></ellipse><ellipse id="Oval-24-Copy-2" stroke="#FFFFFF" stroke-width="0.8" opacity="0.487318841" transform="translate(14.076302, 13.801334) rotate(31.000000) translate(-14.076302, -13.801334) " cx="14.0763021" cy="13.801334" rx="9.01035703" ry="8.10755808"></ellipse><ellipse id="Oval-24-Copy" stroke="#89D887" stroke-width="0.8" transform="translate(14.076302, 13.801334) rotate(31.000000) translate(-14.076302, -13.801334) " cx="14.0763021" cy="13.801334" rx="6.43210284" ry="5.77665318"></ellipse></g><path d="M29,38 L44.9008761,48.2415188" id="Path-49" stroke="#85D688" stroke-width="0.5640192"></path><path d="M27,41 L42.9008761,51.2415188" id="Path-49-Copy" stroke="#85D688" stroke-width="0.5640192"></path></g></g><g id="Group-7" transform="translate(0.000000, 20.000000)"><path d="M5.00003746,76.9496948 L5,78.5083079 C5,78.9032913 5.25752493,79.2521204 5.63499377,79.3684354 C6.80305568,79.7283674 7.80925588,79.6510299 8.65359439,79.1364228 C9.3648268,78.7029411 14.1703542,73.4741063 13.7809287,73.1990718 C13.0360808,72.6730178 9.70944553,73.1756546 7.80199146,74.8727687 C6.53035541,76.0041781 5.59637074,76.6964868 5.00003746,76.9496948 Z" id="Path-12-Copy-3" fill="#0B4651"></path><path d="M1.89981895,47.8879908 L5.87915146,77.5702588 L8.22742342,77.5702588 C7.78073429,71.3088852 7.55738973,65.585164 7.55738973,60.3990953 C7.55738973,55.2130266 5.6715328,51.0426585 1.89981895,47.8879908 Z" id="Path-10-Copy" fill="#FFD7B3"></path><path d="M11.0000375,81.9496948 L11,83.5083079 C11,83.9032913 11.2575249,84.2521204 11.6349938,84.3684354 C12.8030557,84.7283674 13.8092559,84.6510299 14.6535944,84.1364228 C15.3648268,83.7029411 20.1703542,78.4741063 19.7809287,78.1990718 C19.0360808,77.6730178 15.7094455,78.1756546 13.8019915,79.8727687 C12.5303554,81.0041781 11.5963707,81.6964868 11.0000375,81.9496948 Z" id="Path-12" fill="#0B4651"></path><path d="M5.49909475,54.2246794 C7.87933619,58.1453494 9.1831139,60.9261179 9.41042788,62.5669851 C9.63774186,64.2078522 10.3762901,70.8384099 11.6260726,82.4586582 L13.8561224,82.4586582 L15.9713113,51.9457433 L5.49909475,54.2246794 Z" id="Path-10" fill="#FFD7B3"></path><path d="M1.85315561,49.6969583 L3.09705458,60.06814 C4.3383346,64.9989805 8.36970637,67.0663451 15.1911699,66.2702338 C16.4938975,59.0195844 16.6211872,54.3108652 15.5730391,52.1440761 L1.85315561,49.6969583 Z" id="Path-36" fill="#147F8D"></path><path d="M1.4769087,48.6783142 C2.34005338,44.8200774 2.77162572,42.062566 2.77162572,40.4057798 C2.77162572,35.2967828 2.35682355,30.3564803 2.77162572,28.2050658 C4.08109538,21.4133654 5.59307425,24.8549655 9.47332898,24.7565826 C13.9359662,24.6434335 15.5276099,22.9948392 16.1555564,33.2788118 C16.2419571,34.6938088 14.0459659,38.949783 14.2696711,41.4419144 C14.3497695,42.3342303 14.9783979,45.8763295 16.1555564,52.0682121 C11.2448888,55.6979754 7.53734712,56.2825021 5.03293144,53.8217921 C2.52851576,51.3610822 1.34317485,49.6465895 1.4769087,48.6783142 Z" id="Path-7" fill="#33BAAA"></path><path d="" id="Path-8" stroke="#979797" stroke-width="0.9"></path><path d="M14.1616671,27.6863227 C14.7995196,27.3789999 17.8778139,31.3544647 23.5381174,32.0010824 C25.4278598,32.2169614 33.9253049,30.3509216 35.033187,29.8708598 C35.4161329,28.6294174 35.7803998,27.4335482 36.2867218,27.4335482 C37.2121782,27.4335482 36.293749,28.527721 36.8859991,28.3959445 C37.3574751,28.2910404 38.0876248,27.8257255 39.0764482,27 C40.1780556,27.9093583 40.4306266,28.7752702 39.8341612,29.5977356 C39.2376959,30.4202011 38.1532099,31.2213167 36.5807035,32.0010824 C31.3117865,34.4790406 27.1138213,35.7180198 23.9868079,35.7180198 C20.8597946,35.7180198 17.2655476,34.8666905 13.204067,33.1640319 C11.5932748,30.5959057 11.9124748,28.7700026 14.1616671,27.6863227 Z" id="Path-9" fill="#FFD7B3"></path><path d="M11.0543891,10.8008949 L11.0543891,10.8008949 C14.1224935,10.8008949 16.6096835,13.2880849 16.6096835,16.3561892 L16.6096835,18.4910458 C16.6096835,21.5591502 14.1224935,24.0463402 11.0543891,24.0463402 L11.0543891,24.0463402 C7.98628477,24.0463402 5.49909475,21.5591502 5.49909475,18.4910458 L5.49909475,16.3561892 C5.49909475,13.2880849 7.98628477,10.8008949 11.0543891,10.8008949 Z" id="Rectangle" fill="#FFD7B3"></path><path d="M8.81750393,19.2948024 C8.07755905,12.6099799 7.87145875,7.83154081 8.19920304,4.95948494 C8.32425774,3.8636181 9.37352426,3.13606046 9.69312012,2.83615058 C10.7510684,1.84336815 10.4591964,1.44714685 8.81750393,1.64748668 C8.40056684,0.357401841 8.02756738,-0.0941404997 7.69850555,0.29285966 C6.52966858,0.622014794 5.81078077,1.46977843 5.54184212,2.83615058 C5.9517182,4.09337041 6.14484344,5.05675674 6.12121781,5.72630956 C5.82858963,14.0194257 5.29903719,19.1173868 5.94525009,20.4691254 C6.66972193,21.9845649 7.62713987,21.5931239 8.81750393,19.2948024 Z" id="Path-48" fill="#FFD7B3"></path><path d="M1.08286058,23.1402833 C0.76107216,26.8521368 3.19287106,28.7100375 2.10126808,30.3775809 C-3.77632932,39.356256 14.2690992,41.8405005 12.9439111,36.7921241 C10.5362397,27.6199685 12.1267298,31.2501624 13.4819399,24.5696595 C14.0644607,21.6981255 12.4629312,21.5074971 11.3458768,20.4308234 C10.0329126,19.1653217 16.6535106,17.5381203 17.8654542,13.2256689 C15.7518904,13.2256689 14.1959196,9.9789249 11.6979433,9.73019415 C9.19996696,9.48146341 5.43750361,10.8094333 6.48161251,13.2256689 C5.6531908,13.2356072 5.12146535,14.1167034 4.88643617,15.8689576 C4.5338924,18.4973389 1.404649,19.4284297 1.08286058,23.1402833 Z" id="Path-16" fill="#0B4651"></path></g></g></g></g></g></g></g></g></svg> 