<?xml version="1.0" encoding="UTF-8"?> <svg xmlns="http://www.w3.org/2000/svg" xmlns:xlink="http://www.w3.org/1999/xlink" width="428px" height="246px" viewBox="0 0 428 246"><!-- Generator: Sketch 52.5 (67469) - http://www.bohemiancoding.com/sketch --><title>deployment-illustration@3x</title><desc>Created with Sketch.</desc><defs><linearGradient x1="57.6964029%" y1="2.60670307%" x2="43.1413235%" y2="76.0281191%" id="linearGradient-1"><stop stop-color="#7ECC79" offset="0%"></stop><stop stop-color="#33BAAA" offset="100%"></stop></linearGradient><linearGradient x1="50.1170527%" y1="-28.1753217%" x2="49.895688%" y2="92.9334256%" id="linearGradient-2"><stop stop-color="#7ECC79" offset="0%"></stop><stop stop-color="#33BAAA" offset="100%"></stop></linearGradient><linearGradient x1="57.6964029%" y1="-5.98042787%" x2="43.1413235%" y2="80.7441208%" id="linearGradient-3"><stop stop-color="#7ECC79" offset="0%"></stop><stop stop-color="#33BAAA" offset="100%"></stop></linearGradient><linearGradient x1="57.6964029%" y1="22.5131095%" x2="43.1413235%" y2="65.0956381%" id="linearGradient-4"><stop stop-color="#7ECC79" offset="0%"></stop><stop stop-color="#33BAAA" offset="100%"></stop></linearGradient><ellipse id="path-5" cx="24.3327206" cy="24.3642173" rx="24.3327206" ry="24.3642173"></ellipse><ellipse id="path-7" cx="24.3327206" cy="24.3642173" rx="24.3327206" ry="24.3642173"></ellipse></defs><g id="Pages" stroke="none" stroke-width="1" fill="none" fill-rule="evenodd"><g id="Company" transform="translate(-260.000000, -3301.000000)"><g id="Brands/Startups" transform="translate(239.000000, 3040.000000)"><g id="deployment-illustration@3x" transform="translate(21.000000, 261.000000)"><g id="Group-18"><polyline id="Path-156" stroke="#3FBDA1" points="278.648897 53.4440895 374.97369 53.4440895 374.97369 132.002319 396.408374 144.807618 396.408374 177.397017 427 177.397017 427 233.42492"></polyline><rect id="Rectangle-25" fill="#D6F1EE" fill-rule="nonzero" x="223.704044" y="206.702875" width="109.889706" height="32.2236422"></rect><polygon id="Rectangle-25-Copy" fill="#3FBDA2" fill-rule="nonzero" points="210.360294 229.495208 346.152574 229.495208 346.152574 238.926518 210.360294 238.926518"></polygon><g id="Group-16" transform="translate(0.000000, 9.431310)"><polygon id="Rectangle-3" fill="#D6F1EE" fill-rule="nonzero" points="24.419427 12.7043467 195.402584 12.7043467 195.402584 134.861527 24.419427 134.861527"></polygon><path d="M24.5048701,133.884269 L195.690686,133.884269 L231.553309,148.543131 L1.78180822,148.543131 C0.914802382,148.543131 0.211955284,147.839374 0.211955284,146.971246 C0.211955284,146.374958 0.548916103,145.830009 1.08198703,145.564191 L24.5048701,133.884269 Z" id="Rectangle-3-Copy" fill="#B5E5E0" fill-rule="nonzero"></path><path d="M38.1669398,73.294308 L76.1340373,73.294308 C77.7908916,73.294308 79.1340373,74.6374538 79.1340373,76.294308 L79.1340373,120.134438 C79.1340373,121.791292 77.7908916,123.134438 76.1340373,123.134438 L38.1669398,123.134438 C36.5100855,123.134438 35.1669398,121.791292 35.1669398,120.134438 L35.1669398,76.294308 C35.1669398,74.6374538 36.5100855,73.294308 38.1669398,73.294308 Z" id="Rectangle-21" stroke="#3FBDA1"></path><path d="M89.9504103,23.4541786 L212.920563,23.4541786 C214.577418,23.4541786 215.920563,24.7973244 215.920563,26.4541786 L215.920563,121.111695 C215.920563,122.768549 214.577418,124.111695 212.920563,124.111695 L89.9504103,124.111695 C88.2935561,124.111695 86.9504103,122.768549 86.9504103,121.111695 L86.9504103,26.4541786 C86.9504103,24.7973244 88.2935561,23.4541786 89.9504103,23.4541786 Z" id="Rectangle-21-Copy-2" stroke="#3FBDA1"></path><path d="M38.1669398,23.4541786 L76.1340373,23.4541786 C77.7908916,23.4541786 79.1340373,24.7973244 79.1340373,26.4541786 L79.1340373,63.453506 C79.1340373,65.1103602 77.7908916,66.453506 76.1340373,66.453506 L38.1669398,66.453506 C36.5100855,66.453506 35.1669398,65.1103602 35.1669398,63.453506 L35.1669398,26.4541786 C35.1669398,24.7973244 36.5100855,23.4541786 38.1669398,23.4541786 Z" id="Rectangle-21-Copy" stroke="#3FBDA1"></path><path d="M45.0062661,0 L80.0422237,-4.4408921e-16 C81.699078,-7.48448398e-16 83.0422237,1.34314575 83.0422237,3 L83.0422237,49.7719018 C83.0422237,51.428756 81.699078,52.7719018 80.0422237,52.7719018 L45.0062661,52.7719018 C43.3494118,52.7719018 42.0062661,51.428756 42.0062661,49.7719018 L42.0062661,3 C42.0062661,1.34314575 43.3494118,-1.39730022e-16 45.0062661,-4.4408921e-16 Z" id="Rectangle-22" fill="url(#linearGradient-1)" fill-rule="nonzero"></path><path d="M38.0980796,12.7043467 L76.7792579,12.7043467 C78.0797667,12.7043467 79.1340372,13.759982 79.1340372,15.0621742 L79.1340372,55.3003615 C79.1340372,56.6025537 78.0797667,57.658189 76.7792579,57.658189 L40.452859,57.658189 C39.1523502,57.658189 38.0980796,56.6025537 38.0980796,55.3003615 L38.0980796,12.7043467 Z" id="Rectangle-22-Copy-2" fill="#33BAAA" fill-rule="nonzero" opacity="0.200000003"></path><path d="M45.0062661,0 L80.0422237,-4.4408921e-16 C81.699078,-7.48448398e-16 83.0422237,1.34314575 83.0422237,3 L83.0422237,49.7719018 C83.0422237,51.428756 81.699078,52.7719018 80.0422237,52.7719018 L45.0062661,52.7719018 C43.3494118,52.7719018 42.0062661,51.428756 42.0062661,49.7719018 L42.0062661,3 C42.0062661,1.34314575 43.3494118,-1.39730022e-16 45.0062661,-4.4408921e-16 Z" id="Rectangle-22-Copy" fill="url(#linearGradient-1)" fill-rule="nonzero"></path><path d="M102.652016,34.2040104 L175.792792,34.2040104 C177.449646,34.2040104 178.792792,35.5471561 178.792792,37.2040104 L178.792792,40.9765848 C178.792792,42.633439 177.449646,43.9765848 175.792792,43.9765848 L102.652016,43.9765848 C100.995162,43.9765848 99.6520159,42.633439 99.6520159,40.9765848 L99.6520159,37.2040104 C99.6520159,35.5471561 100.995162,34.2040104 102.652016,34.2040104 Z" id="Rectangle-24" fill="url(#linearGradient-2)" fill-rule="nonzero"></path><path d="M102.652016,57.658189 L175.792792,57.658189 C177.449646,57.658189 178.792792,59.0013347 178.792792,60.658189 L178.792792,64.4307634 C178.792792,66.0876176 177.449646,67.4307634 175.792792,67.4307634 L102.652016,67.4307634 C100.995162,67.4307634 99.6520159,66.0876176 99.6520159,64.4307634 L99.6520159,60.658189 C99.6520159,59.0013347 100.995162,57.658189 102.652016,57.658189 Z" id="Rectangle-24-Copy" fill="url(#linearGradient-2)" fill-rule="nonzero"></path><path d="M102.652016,81.1123673 L175.792792,81.1123673 C177.449646,81.1123673 178.792792,82.455513 178.792792,84.1123673 L178.792792,87.8849417 C178.792792,89.5417959 177.449646,90.8849417 175.792792,90.8849417 L102.652016,90.8849417 C100.995162,90.8849417 99.6520159,89.5417959 99.6520159,87.8849417 L99.6520159,84.1123673 C99.6520159,82.455513 100.995162,81.1123673 102.652016,81.1123673 Z" id="Rectangle-24-Copy-2" fill="url(#linearGradient-2)" fill-rule="nonzero"></path></g><path d="M300.626838,35.8430955 L306.888977,27.7354835 C307.154181,27.3921232 307.647159,27.3290431 307.990076,27.5945902 C308.182281,27.7434294 308.294808,27.9730063 308.294808,28.2162991 L308.294808,32.9810297 C308.294808,34.2832218 309.349079,35.3388572 310.649588,35.3388572 C310.800882,35.3388572 310.951825,35.3242574 311.100322,35.2952602 L317.711079,34.0043715 C318.136567,33.9212862 318.548759,34.1993043 318.631737,34.6253424 C318.673829,34.8414604 318.62345,35.0653476 318.492861,35.2425079 L316.356419,38.1408611 C315.584122,39.1885804 315.806297,40.664806 316.852662,41.4381033 C317.028321,41.5679212 317.221157,41.672648 317.42563,41.7492742 L320.562972,42.9249974 C320.968971,43.0771461 321.174917,43.5300405 321.022966,43.9365652 C320.934976,44.1719662 320.739851,44.3510298 320.497993,44.4183249 L311.72451,46.8594719 L319.690424,53.4429123 L305.940002,55.8019169 L300.626838,35.8430955 Z" id="Path-153" fill="#D6F1EE" fill-rule="nonzero"></path><path d="M302.981618,38.3338294 L306.300521,34.0237402 C306.56522,33.6799894 307.058106,33.6161829 307.401412,33.8812244 C307.594156,34.0300282 307.707059,34.259941 307.707059,34.5036402 L307.707059,35.4700939 C307.707059,36.7722861 308.76133,37.8279214 310.061838,37.8279214 C310.213583,37.8279214 310.364973,37.8132345 310.513895,37.7840656 L312.75314,37.3454739 C313.178579,37.2621447 313.590931,37.5399266 313.674152,37.965917 C313.716322,38.1817744 313.666228,38.4054486 313.536039,38.5826046 L313.131515,39.1330644 C312.463617,40.0419137 312.657994,41.3208209 313.565669,41.9895837 C313.716695,42.1008579 313.882319,42.1907571 314.057863,42.2567432 L315.043697,42.6273113 C315.449544,42.7798665 315.655037,43.2329668 315.50268,43.6393392 C315.436012,43.8171568 315.30729,43.9647853 315.14032,44.05492 L308.971524,47.3850117 L315.184312,53.4440895 L306.255893,50.6710747 L302.981618,38.3338294 Z" id="Path-153-Copy" fill="#25877C" fill-rule="nonzero" opacity="0.300000012"></path><g id="Group-17" transform="translate(306.906250, 22.792332)"><g id="Group-7" fill-rule="nonzero"><g id="Group"><path d="M34.644989,3.36250494 C34.8884749,1.01125499 36.1185104,-0.106901675 38.3350956,0.00803492934 C41.6599735,0.180439837 45.6193553,5.52305483 42.3519631,10.2677412 C39.0845709,15.0124275 43.8541552,18.1901879 41.3578494,19.7741176 C38.8615436,21.3580473 41.4252763,24.1143735 38.0351327,23.6550576 C34.644989,23.1957416 35.121083,22.4912706 35.1279986,20.823829 C35.1349142,19.1563872 30.4355661,19.8767857 32.5402776,16.6488752 C33.9434186,14.4969348 34.644989,10.0681446 34.644989,3.36250494 Z" id="Path-141" fill="#0B4651"></path><path d="M33.7786825,2.19644823 C34.7281022,1.6091831 35.7943872,1.6091831 36.9775376,2.19644823 C38.160688,2.78371337 38.5061211,4.39289647 38.0138368,7.02399752 L33.7786825,2.19644823 Z" id="Path-143" fill="url(#linearGradient-3)"></path><path d="M10.6471204,28.8665217 C7.97573543,26.946142 6.46484146,26.2032086 6.11443845,26.6377214 C5.76403545,27.0722341 6.00166307,27.9831272 6.82732132,29.3704004 C7.17945517,31.3825638 7.63146447,32.6721333 8.18334919,33.2391089 C8.73523398,33.8060844 10.3148945,34.3532893 12.9223308,34.8807238 L10.6471204,28.8665217 Z" id="Path-152" fill="#FFD7B3"></path><path d="M0.510262715,19.4913302 L5.51415738,19.4913302 C9.1440915,28.0674747 12.5466044,35.3998744 15.7216961,41.4885293 L13.8693321,41.980663 L4.45151401,20.7411249 L0.510262715,20.1505565 L0.510262715,19.4913302 Z" id="Path-150" fill="#0B4651"></path><path d="M37.1868988,67.7150049 L37.1868988,97.2240469 L41.9420529,118.008779 L46.9747567,118.008779 C45.4122542,95.9262892 45.9839338,78.7519996 48.6897954,66.4859111 C44.3776599,58.9674796 40.5433611,59.3771776 37.1868988,67.7150049 Z" id="Path-148" fill="#0B4651"></path><polygon id="Path-155" fill="#0B4651" points="27.8103755 65.8070547 25.1080899 89.2230973 32.9640012 117.639306 38.0172488 117.639306 38.0172488 68.1625695"></polygon><path d="M22.1111603,15.0620889 C19.3824206,12.8792277 18.8188351,10.4825576 20.4204038,7.87207836 C21.6261147,6.23829072 22.561738,4.64829445 24.0809145,5.57194657 C26.725963,0.688382598 32.4710459,0.744264494 37.1823717,4.30817144 C41.8936975,7.87207836 37.3500752,21.3351756 30.7154949,21.0680735 C26.2924413,20.8900053 24.3970103,19.5141744 25.0292018,16.9405808 L22.1111603,15.0620889 Z" id="Path-140" fill="#0B4651"></path><path d="M21.3127402,12.943608 C21.5983489,20.2355164 22.9968688,23.8220239 25.5083,23.7031304 C29.2754468,23.5247903 34.1449149,18.3247998 34.1449149,18.3247998 C37.0724153,18.8985457 38.4267715,18.0546857 38.2079835,15.7932196 C37.9891956,13.5317535 36.7603707,12.8373729 34.5215091,13.7100774 C29.4105124,14.7724074 25.8079411,13.4217138 23.713795,9.65799655 L21.3127402,12.943608 Z" id="Path-139" fill="#FFD7B3"></path><path d="M12.3692165,29.625662 C8.69426568,27.4427052 6.88083017,26.670664 6.92891004,27.3095385 C6.97698992,27.9484131 7.99956376,29.2287361 9.99663154,31.1505076 C10.3415136,33.5548217 11.1323752,34.8504528 12.3692165,35.0374008 C14.2244785,35.3178229 19.5256898,51.6416365 22.3906291,51.2848095 C24.3005886,51.046925 27.441582,44.5427594 31.8136093,31.772313 L24.579749,27.3095385 C23.8504476,36.3450887 22.954082,40.8266933 21.8906524,40.7543526 C20.8272228,40.6820119 17.6534108,36.9724483 12.3692165,29.625662 Z" id="Path-151" fill="#FFD7B3"></path><path d="M31.0994105,23.1042857 C37.7003645,24.2196909 41.6271091,25.4823802 42.8796444,26.8923538 C43.6470077,27.7561713 45.9063188,32.6744879 47.5707907,42.4082265 C48.0151899,45.0070478 48.4677921,53.206376 48.9285971,67.006211 C38.4209814,69.1860951 31.0521062,68.9542821 26.8219716,66.3107718 L28.4076937,49.7127827 C28.3511242,46.5903556 28.0787363,44.4928082 27.5905299,43.4201406 C26.0002768,39.9260996 24.284508,38.6228957 24.284508,36.7901236 C24.284508,34.7777895 25.2873629,34.5219659 25.3774566,32.6773334 C25.4269169,31.6646556 25.1740634,30.1295037 24.6188964,28.0718779 L24.6189069,28.071875 C24.4307183,27.3743884 24.7416107,26.6382729 25.3724789,26.2876044 L31.0994105,23.1042857 Z" id="Path-145" fill="#33BAAA"></path><path d="M26.4610929,10.8804055 C28.8148115,14.3126011 30.8555011,15.9503791 32.5831614,15.7937392 C34.3108218,15.6370995 35.5997533,14.4532795 36.4499559,12.2422793 C34.9189811,14.0676284 33.5179775,14.8942502 32.2469449,14.7221448 C30.9759125,14.5500392 29.5907739,13.1546564 28.0915291,10.5359962 L25.7648624,10.8804055" id="Path-142" fill="#0B4651"></path><path d="M28.4239868,18.8903707 L30.3955635,26.5944357 C30.5421222,27.1085074 31.0502741,27.486157 31.9200189,27.7273846 C32.7897638,27.9686121 33.7605921,27.5909625 34.832504,26.5944357 L32.7868145,17.8531835 L28.4239868,18.8903707 Z" id="Path-144" fill="#FFD7B3"></path><path d="M20.6373977,13.1394041 L30.6095956,13.1394041 L30.6095956,13.1393781 C31.043113,13.1393781 31.3945482,13.4912682 31.3945482,13.9253466 C31.3945482,13.9553713 31.39283,13.9853712 31.3894019,14.0151988 C31.0375773,17.0765118 29.7215896,18.6071684 27.4414388,18.6071684 C23.7092791,18.6071684 23.6925868,16.9353511 22.9191625,16.9353511 C22.1457381,16.9353511 22.6116443,18.6071684 21.0680519,18.6071684 C20.1121125,18.6071684 19.7072015,17.0343936 19.8533189,13.8888441 L19.853305,13.8888435 C19.8727879,13.4694234 20.218067,13.1394041 20.6373977,13.1394041 Z" id="Path-147" stroke="#0B4651" fill="#D6F1EE"></path><polyline id="Path-154" fill="#33BAAA" points="42.4755445 117.044356 32.958516 122.209503 51.4616834 121.431567 46.0332739 117.044356"></polyline><polyline id="Path-154-Copy" fill="#33BAAA" points="32.9552979 116.570785 23.4382695 121.735933 41.9414369 120.957996 36.5130272 116.570785"></polyline></g></g><g id="Group-21" transform="translate(2.929784, 26.448834)"><path d="M0.450223075,36.4623605 L46.4784177,187.851489" id="Path-62" stroke="#0D6574" stroke-width="6" stroke-linecap="round"></path><path d="M0.440529069,35.5946919 L33.9320321,35.5946919" id="Line-3" stroke="#0D6574" stroke-width="6" stroke-linecap="round"></path><path d="M9.69163949,65.9160963 L43.1831425,65.9160963" id="Line-3-Copy" stroke="#0D6574" stroke-width="6" stroke-linecap="round"></path><path d="M18.5022209,95.7980596 L51.9937239,95.7980596" id="Line-3-Copy-2" stroke="#0D6574" stroke-width="6" stroke-linecap="round"></path><path d="M28.1938604,125.680024 L61.6853634,125.680024" id="Line-3-Copy-3" stroke="#0D6574" stroke-width="6" stroke-linecap="round"></path><path d="M37.0044418,155.561987 L70.4959447,155.561987" id="Line-3-Copy-4" stroke="#0D6574" stroke-width="6" stroke-linecap="round"></path><path d="M34.3612674,36.0341326 L80.3894619,187.423261" id="Path-62-Copy" stroke="#0D6574" stroke-width="6" stroke-linecap="round"></path><g id="Group-15" transform="translate(33.414560, 0.000000)" fill="#FFD7B3" fill-rule="nonzero"><path d="M0.059713868,29.3700979 C6.64496592,27.5165101 10.672891,25.6882719 12.1434891,23.8853831 C13.6140872,22.0824944 11.3781814,17.4053627 5.43577152,9.85398828 C3.15405503,5.53235979 3.15405503,2.4108491 5.43577152,0.489456235 C8.85834624,-2.39263307 23.3245935,24.039078 17.4110368,27.8482221 C13.4686656,30.3876517 8.49861585,32.7457322 2.50088762,34.9224639 L0.059713868,29.3700979 Z" id="Path-149"></path></g><path d="M33.4803854,29.3208066 L27.6417014,29.3208066 C23.2772353,34.2036191 21.8299213,36.5817259 23.2997596,36.4551272 C24.7695978,36.3285285 26.5232515,35.3116321 28.560721,33.404438 C25.6878803,36.3087968 24.6691456,37.6526475 25.5045169,37.4359901 C26.7575738,37.1110039 30.725134,34.5271924 30.725134,34.5271924 C33.4458752,35.5512053 35.3590773,35.5694172 36.4647402,34.5818281 L33.4803854,29.3208066 Z" id="Path-146" fill="#FFD7B3" fill-rule="nonzero"></path></g></g><path d="M224.765278,146.971246 C215.193363,150.664394 207.101082,158.821176 200.488433,171.441594 C183.523076,203.820435 184.167737,215.534191 182.179896,228.73619 C182.179896,228.73619 182.179896,228.73619 182.179896,228.73619 C181.619011,232.461239 184.180168,235.936263 187.900402,236.497874 C190.700776,236.920623 193.470275,235.564453 194.856418,233.09165 C195.241947,232.403856 195.587837,231.849995 195.894073,231.430061 C207.853029,215.031041 217.831563,206.255638 233.9484,206.255638 C255.411862,206.255638 252.350821,186.494174 224.765278,146.971246 Z" id="Path-128" fill="#25877C" fill-rule="nonzero"></path><path d="M350.353619,146.971246 C340.781705,150.664394 332.689423,158.821176 326.076774,171.441594 C309.111416,203.820435 309.756078,215.534191 307.768236,228.73619 C307.768236,228.73619 307.768236,228.73619 307.768236,228.73619 C307.207351,232.461239 309.768509,235.936263 313.488742,236.497874 C316.289116,236.920623 319.058616,235.564453 320.444758,233.09165 C320.830288,232.403856 321.176177,231.849995 321.482414,231.430061 C333.44137,215.031041 343.419904,206.255638 359.53674,206.255638 C381.000202,206.255638 377.939161,186.494174 350.353619,146.971246 Z" id="Path-128-Copy" fill="#25877C" fill-rule="nonzero" transform="translate(340.658141, 191.772809) scale(-1, 1) translate(-340.658141, -191.772809) "></path><path d="M237.693015,176.051118 L317.25,176.051118 C318.906854,176.051118 320.25,177.394264 320.25,179.051118 L320.25,209.990415 C320.25,211.64727 318.906854,212.990415 317.25,212.990415 L237.693015,212.990415 C236.03616,212.990415 234.693015,211.64727 234.693015,209.990415 L234.693015,179.051118 C234.693015,177.394264 236.03616,176.051118 237.693015,176.051118 Z" id="Rectangle-23" fill="#25877C" fill-rule="nonzero"></path><path d="M228.190832,201.987209 L326.157104,201.987209 L327.479297,201.987209 L327.479297,201.987214 C331.599468,201.987214 335.091308,198.95073 335.668522,194.86591 C335.668522,194.86591 335.668522,194.86591 335.668522,194.86591 C339.519887,167.610618 337.357415,137.426521 329.181108,104.313622 C321.07129,71.4699994 306.148416,38.0777927 284.412485,4.1370019 L284.412482,4.13700401 C282.07247,0.483060811 277.217239,-0.579635478 273.568019,1.76340541 C272.644167,2.35657958 271.854812,3.13714709 271.250914,4.05471531 C249.362374,37.3123679 234.409161,70.9867517 226.391275,105.077866 C218.337179,139.322942 216.229433,169.269376 220.068036,194.917169 C220.072202,194.945007 220.076421,194.973076 220.080691,195.001376 L220.080678,195.001378 C220.686753,199.017773 224.134101,201.987209 228.190832,201.987209 Z" id="Path-33" fill="url(#linearGradient-4)" fill-rule="nonzero"></path><g id="Path-127" transform="translate(252.746324, 58.159744)"><g id="Mask" fill="#FFFFFF" fill-rule="nonzero"><ellipse id="path-3" cx="24.3327206" cy="24.3642173" rx="24.3327206" ry="24.3642173"></ellipse></g><g id="Clipped"><mask id="mask-6" fill="white"><use xlink:href="#path-5"></use></mask><g id="path-3"></g><polygon id="Shape" fill="#D6F1EE" fill-rule="nonzero" mask="url(#mask-6)" points="44.0172661 -4.45329707 6.18534891 57.0079513 -8.57238999 41.9846444 29.6245987 -19.4336802"></polygon></g><g id="Path-127-Copy-Clipped"><mask id="mask-8" fill="white"><use xlink:href="#path-7"></use></mask><g id="path-3"></g><polygon id="Path-127-Copy" fill="#D6F1EE" fill-rule="nonzero" mask="url(#mask-8)" points="54.3021418 1.57328769 16.4702246 63.0345361 12.6530147 57.5200499 50.8500034 -3.89827476"></polygon></g></g><path d="M111.462607,136.753994 L112.241437,136.753994 C113.543629,136.753994 114.599265,137.809629 114.599265,139.111821 L114.599265,139.111821 C114.599265,140.414013 113.543629,141.469649 112.241437,141.469649 L111.462607,141.469649 C110.160415,141.469649 109.104779,140.414013 109.104779,139.111821 L109.104779,139.111821 C109.104779,137.809629 110.160415,136.753994 111.462607,136.753994 Z" id="Rectangle-26" fill="#FFD7B3" fill-rule="nonzero"></path><path d="M119.169118,140.683706 L121.803309,140.683706 C123.460163,140.683706 124.803309,142.026852 124.803309,143.683706 L124.803309,148.686901 C124.803309,150.343755 123.460163,151.686901 121.803309,151.686901 L119.169118,151.686901 C117.512263,151.686901 116.169118,150.343755 116.169118,148.686901 L116.169118,143.683706 C116.169118,142.026852 117.512263,140.683706 119.169118,140.683706 Z" id="Rectangle-27" fill="#FFD7B3" fill-rule="nonzero"></path><path d="M126.37621,136.753994 L127.15504,136.753994 C128.457232,136.753994 129.512868,137.809629 129.512868,139.111821 L129.512868,139.111821 C129.512868,140.414013 128.457232,141.469649 127.15504,141.469649 L126.37621,141.469649 C125.074018,141.469649 124.018382,140.414013 124.018382,139.111821 L124.018382,139.111821 C124.018382,137.809629 125.074018,136.753994 126.37621,136.753994 Z" id="Rectangle-26-Copy" fill="#FFD7B3" fill-rule="nonzero"></path><path d="M115.300722,143.559021 C113.819088,141.022172 112.093057,133.154693 113.630168,130.279532 C115.167278,127.404372 124.582843,126.18928 128.911219,125.750799 C129.508011,125.960212 129.121596,127.469789 127.751975,130.279532 L131.082721,130.261651 C129.66674,139.845319 127.500114,144.991302 124.582843,145.6996 C120.206937,146.762045 116.782357,146.09587 115.300722,143.559021 Z" id="Path-129" fill="#0B4651" fill-rule="nonzero"></path><path d="M141.286765,164.470748 C142.310839,159.466644 143.809228,156.551021 145.781931,155.72388 C148.740986,154.48317 153.845588,164.36759 153.845588,166.692399 C153.845588,169.017207 150.277097,175.096031 145.781931,174.428318 C142.785153,173.983175 141.286765,170.663985 141.286765,164.470748 Z" id="Path-135" fill="#FFD7B3" fill-rule="nonzero"></path><path d="M86.3419118,165.256691 C87.3659857,160.252586 88.864375,157.336964 90.8370781,156.509823 C93.7961332,155.269113 98.9007353,165.153533 98.9007353,167.478341 C98.9007353,169.80315 95.3322445,175.881974 90.8370781,175.21426 C87.8403003,174.769117 86.3419118,171.449928 86.3419118,165.256691 Z" id="Path-135-Copy" fill="#FFD7B3" fill-rule="nonzero" transform="translate(92.621324, 165.833866) scale(-1, 1) translate(-92.621324, -165.833866) "></path><path d="M148.351103,156.678893 C147.084756,150.207128 145.861713,146.971246 144.681974,146.971246 C142.912364,146.971246 135.392307,148.1194 136.389857,149.363459 C137.054891,150.192833 138.010568,150.60752 139.256889,150.60752 C139.60072,151.988423 139.899946,152.988167 140.154568,153.606754 C140.536501,154.534633 134.612055,150.534615 135.028319,153.606754 C135.305828,155.654846 138.724758,157.372723 145.285107,158.760383 L148.351103,156.678893 Z" id="Path-136" fill="#FFD7B3" fill-rule="nonzero"></path><polygon id="Path-137" fill="#FFD7B3" fill-rule="nonzero" points="93.40625 156.545285 101.742806 151.686901 107.534926 151.686901 100.865359 162.690096 93.40625 162.690096"></polygon><path d="M96.5459559,197.458901 C98.1794813,221.229861 99.6763714,236.624285 101.036627,243.642173 C106.209964,243.236554 109.208292,242.493499 110.03161,241.413009 C113.44539,223.893414 115.15228,215.133618 115.15228,215.133618 C116.568396,215.133618 117.780678,215.133618 118.789128,215.133618 C122.34946,215.133618 122.549578,214.569641 122.549578,214.569641 C127.507211,231.362965 130.369491,239.976146 131.136417,240.409182 C136.423056,240.015452 139.066375,239.818587 139.066375,239.818587 C139.555354,230.982098 139.768675,224.77159 139.70634,221.187063 C139.414538,204.407572 138.185201,195.741963 137.844091,195.185218 C137.393678,194.450071 123.627633,195.207965 96.5459559,197.458901 Z" id="Path-131" fill="#0B4651" fill-rule="nonzero"></path><path d="M95.7610294,197.250868 C95.7626495,164.315602 103.470612,146.586392 118.884915,144.063238 C134.299218,141.540083 141.159346,159.269294 139.465298,197.250868 C132.541087,201.980321 125.257043,204.345048 117.613163,204.345048 C109.969285,204.345048 102.68524,201.980321 95.7610294,197.250868 Z" id="Path-130" fill="#33BAAA" fill-rule="nonzero"></path><path d="M116.954044,150.900958 C110.075599,152.100796 104.766233,153.386041 101.025947,154.756693 C97.2856603,156.127346 92.9142667,158.20118 87.9117647,160.978194 C87.9448179,167.519702 89.1338065,170.958162 91.4787296,171.293576 C93.8236535,171.628989 99.7901111,169.950034 109.378103,166.25671 L116.954044,150.900958 Z" id="Path-132" fill="#33BAAA" fill-rule="nonzero" transform="translate(102.432904, 161.118211) rotate(-21.000000) translate(-102.432904, -161.118211) "></path><path d="M151.490809,150.900958 C144.612364,152.100796 139.302998,153.386041 135.562712,154.756693 C131.822425,156.127346 127.451031,158.20118 122.448529,160.978194 C122.481583,167.519702 123.670571,170.958162 126.015494,171.293576 C128.360418,171.628989 134.326876,169.950034 143.914868,166.25671 L151.490809,150.900958 Z" id="Path-132-Copy" fill="#33BAAA" fill-rule="nonzero" transform="translate(136.969669, 161.118211) scale(-1, 1) rotate(-21.000000) translate(-136.969669, -161.118211) "></path><polygon id="Path-133" fill="#0B4651" fill-rule="nonzero" points="113.814338 209.060703 119.307933 191.769968 120.878676 209.060703"></polygon><path d="M138.931985,172.121406 C137.550684,165.133907 136.504116,160.156271 135.792279,157.188498" id="Path-134" stroke="#0B4651"></path><path d="M101.255515,174.479233 C99.8742137,167.491734 98.8276453,162.514099 98.1158088,159.546326" id="Path-134-Copy" stroke="#0B4651" transform="translate(99.685662, 167.012780) scale(-1, 1) translate(-99.685662, -167.012780) "></path><path d="M131.116054,241.047165 C130.703383,241.047165 130.015765,241.633909 129.053201,242.807399 C127.671575,242.975381 126.114001,245.214058 128.103859,245.214058 C136.892463,245.136628 141.286765,245.097913 141.286765,245.097913 C140.515045,240.98365 139.051315,238.926518 136.895574,238.926518 C134.739834,238.926518 132.813327,239.6334 131.116054,241.047165 Z" id="Path-138" fill="#33BAAA" fill-rule="nonzero"></path><path d="M102.266925,241.047165 C101.930515,240.802312 101.431435,241.328065 100.769687,242.624422 C99.3443985,242.792405 99.1610985,245.214058 101.213841,245.214058 C108.910644,245.136628 112.759046,245.097913 112.759046,245.097913 C113.119534,243.053923 113.119534,241.703674 112.759046,241.047165 C111.93711,239.550278 109.570483,238.926518 108.229088,238.926518 C106.005223,238.926518 104.017835,239.6334 102.266925,241.047165 Z" id="Path-138-Copy" fill="#33BAAA" fill-rule="nonzero" transform="translate(106.357537, 242.070288) scale(-1, 1) translate(-106.357537, -242.070288) "></path></g></g></g></g></g></svg> 