<?xml version="1.0" encoding="UTF-8"?> <svg xmlns="http://www.w3.org/2000/svg" xmlns:xlink="http://www.w3.org/1999/xlink" width="73px" height="58px" viewBox="0 0 73 58"><!-- Generator: Sketch 52.5 (67469) - http://www.bohemiancoding.com/sketch --><title>EDUCATION</title><desc>Created with Sketch.</desc><defs><linearGradient x1="57.1612096%" y1="16.1841318%" x2="107.400292%" y2="117.996245%" id="linearGradient-1"><stop stop-color="#0D6574" offset="0%"></stop><stop stop-color="#158E80" offset="100%"></stop></linearGradient><linearGradient x1="36.0693908%" y1="42.1809047%" x2="125.735768%" y2="42.1809047%" id="linearGradient-2"><stop stop-color="#90E28A" offset="0%"></stop><stop stop-color="#28AD9D" offset="100%"></stop></linearGradient></defs><g id="Pages" stroke="none" stroke-width="1" fill="none" fill-rule="evenodd"><g id="Messaging" transform="translate(-654.000000, -1853.000000)"><g id="Feature-(8-icons)" transform="translate(0.000000, 1249.000000)"><g id="EDUCATION" transform="translate(649.000000, 590.000000)"><rect id="Rectangle-8-Copy-9" x="0" y="0" width="83" height="83" rx="12"></rect><g id="Group-49" transform="translate(5.000000, 14.000000)"><path d="M0,5.09344633 L73,5.09344633 L73,54.9464286 L47.2467092,54.9464286 C45.2456094,54.9464286 43.2748433,55.4355889 41.5059996,56.3713197 L40.7598882,56.7660179 C39.4809281,57.4425969 38.0562617,57.7970595 36.6093701,57.7986832 L36.6093701,57.7986832 C35.1612848,57.8003083 33.7334528,57.4585302 32.4430533,56.8013981 L31.6033705,56.3737921 C29.7609287,55.435534 27.7226656,54.9464286 25.6550776,54.9464286 L0,54.9464286 L0,5.09344633 Z" id="Rectangle-35" fill="url(#linearGradient-1)"></path><g id="Group-48" transform="translate(6.045455, 0.000000)"><path d="M0,3.05357143 L23.6439294,3.05357143 C25.3151886,3.05357143 26.9650165,3.42973364 28.4711033,4.15417131 L28.4711033,4.15417131 C29.8697983,4.82695282 30.7592214,6.24173726 30.7592214,7.79382703 L30.7592214,51.8295501 L30.7592214,51.8295501 C27.7470478,50.3806748 24.4473919,49.6283504 21.1048735,49.6283504 L4.54747351e-13,49.6283504 L0,3.05357143 Z" id="Rectangle-34" fill="#FFFFFF"></path><path d="M30.4545455,3.05357143 L54.0984748,3.05357143 C55.769734,3.05357143 57.419562,3.42973364 58.9256488,4.15417131 L58.9256488,4.15417131 C60.3243437,4.82695282 61.2137669,6.24173726 61.2137669,7.79382703 L61.2137669,51.8295501 L61.2137669,51.8295501 C58.2015933,50.3806748 54.9019374,49.6283504 51.559419,49.6283504 L30.4545455,49.6283504 L30.4545455,3.05357143 Z" id="Rectangle-34-Copy" fill="#EDF5F4" transform="translate(45.834156, 26.970040) scale(-1, 1) translate(-45.834156, -26.970040) "></path><path d="M0,0 L23.6439294,0 C25.3151886,-3.07005335e-16 26.9650165,0.376162216 28.4711033,1.10059988 L28.4711033,1.10059988 C29.8697983,1.77338139 30.7592214,3.18816584 30.7592214,4.7402556 L30.7592214,48.7759787 L30.7592214,48.7759787 C27.7470478,47.3271034 24.4473919,46.5747789 21.1048735,46.5747789 L4.54747351e-13,46.5747789 L0,0 Z" id="Rectangle-34-Copy-3" fill="url(#linearGradient-2)"></path><path d="M30.4545455,0 L54.0984748,1.77635684e-15 C55.769734,1.4693515e-15 57.419562,0.376162216 58.9256488,1.10059988 L58.9256488,1.10059988 C60.3243437,1.77338139 61.2137669,3.18816584 61.2137669,4.7402556 L61.2137669,48.7759787 L61.2137669,48.7759787 C58.2015933,47.3271034 54.9019374,46.5747789 51.559419,46.5747789 L30.4545455,46.5747789 L30.4545455,0 Z" id="Rectangle-34-Copy-2" fill="#27A092" transform="translate(45.834156, 23.916469) scale(-1, 1) translate(-45.834156, -23.916469) "></path><polygon id="Rectangle-36" fill="#0B4651" points="47.7121212 0 51.7727273 0 51.7727273 41.7321429 49.8888473 39.985968 47.7121212 41.7321429"></polygon></g></g></g></g></g></g></svg> 