<?xml version="1.0" encoding="UTF-8"?> <svg xmlns="http://www.w3.org/2000/svg" xmlns:xlink="http://www.w3.org/1999/xlink" width="178px" height="176px" viewBox="0 0 178 176"><!-- Generator: Sketch 52.6 (67491) - http://www.bohemiancoding.com/sketch --><title>Engineering</title><desc>Created with Sketch.</desc><defs><linearGradient x1="100%" y1="0%" x2="0%" y2="100%" id="linearGradient-1"><stop stop-color="#8CD987" offset="0%"></stop><stop stop-color="#1FA595" offset="100%"></stop></linearGradient><path d="M4,0 L116,0 C118.209139,-4.05812251e-16 120,1.790861 120,4 L120,116 C120,118.209139 118.209139,120 116,120 L4,120 C1.790861,120 2.705415e-16,118.209139 0,116 L0,4 C-2.705415e-16,1.790861 1.790861,4.05812251e-16 4,0 Z" id="path-2"></path><filter x="-35.8%" y="-34.2%" width="171.7%" height="171.7%" id="filter-4"><feOffset dx="0" dy="2" in="SourceAlpha" result="shadowOffsetOuter1"></feOffset><feGaussianBlur stdDeviation="14" in="shadowOffsetOuter1" result="shadowBlurOuter1"></feGaussianBlur><feColorMatrix values="0 0 0 0 0.0509803922 0 0 0 0 0.396078431 0 0 0 0 0.454901961 0 0 0 0.604194973 0" type="matrix" in="shadowBlurOuter1"></feColorMatrix></filter><linearGradient x1="100%" y1="0%" x2="-19.7297014%" y2="100%" id="linearGradient-5"><stop stop-color="#8CD987" offset="0%"></stop><stop stop-color="#1FA595" offset="100%"></stop></linearGradient><path d="M0,0 L8.92857143,0 L8.92857143,3.88186813 C8.92857143,6.34742505 6.92984263,8.34615385 4.46428571,8.34615385 L4.46428571,8.34615385 C1.9987288,8.34615385 3.01943639e-16,6.34742505 0,3.88186813 L0,0 Z" id="path-6"></path><linearGradient x1="100%" y1="0%" x2="0%" y2="100%" id="linearGradient-8"><stop stop-color="#8CD987" offset="0%"></stop><stop stop-color="#25AB9B" offset="100%"></stop></linearGradient></defs><g id="Home" stroke="none" stroke-width="1" fill="none" fill-rule="evenodd"><g id="Company" transform="translate(-867.000000, -2558.000000)"><g id="Services" transform="translate(150.000000, 2371.000000)"><g id="Engineering" transform="translate(745.000000, 198.000000)"><path d="M34,0 L146,0 C148.209139,-4.05812251e-16 150,1.790861 150,4 L150,116 C150,118.209139 148.209139,120 146,120 L34,120 C31.790861,120 30,118.209139 30,116 L30,4 C30,1.790861 31.790861,4.05812251e-16 34,0 Z" id="Rectangle-4-Copy" fill="#0D6574"></path><path d="M18,7 L130,7 C132.209139,7 134,8.790861 134,11 L134,123 C134,125.209139 132.209139,127 130,127 L18,127 C15.790861,127 14,125.209139 14,123 L14,11 C14,8.790861 15.790861,7 18,7 Z" id="Rectangle-4-Copy-9" fill="url(#linearGradient-1)" opacity="0.45"></path><g id="Group-29" transform="translate(0.000000, 15.000000)"><mask id="mask-3" fill="white"><use xlink:href="#path-2"></use></mask><g id="Rectangle-4-Copy-5"><use fill="black" fill-opacity="1" filter="url(#filter-4)" xlink:href="#path-2"></use><use fill="url(#linearGradient-1)" fill-rule="evenodd" xlink:href="#path-2"></use></g><g id="Group-7" mask="url(#mask-3)"><g transform="translate(14.000000, 29.000000)"><rect id="Rectangle" fill="#FFFFFF" x="11" y="0" width="70.4" height="57.4736842" rx="4.4"></rect><rect id="Rectangle-Copy-3" fill="url(#linearGradient-5)" opacity="0.200000003" x="16" y="6" width="60.4" height="45.4736842" rx="2"></rect><rect id="Rectangle" fill="#99E6B6" x="0" y="57" width="92" height="5.94736842" rx="2.97368421"></rect></g></g><g id="Group-30" mask="url(#mask-3)"><g transform="translate(39.000000, 36.000000)"><path d="M21.5,37.3677885 C30.2394714,37.3677885 37.3242127,30.2721475 37.3242127,21.5192308 C37.3242127,12.766314 30.2394714,5.67067308 21.5,5.67067308 C12.7605286,5.67067308 5.67578725,12.766314 5.67578725,21.5192308 C5.67578725,30.2721475 12.7605286,37.3677885 21.5,37.3677885 Z" id="Oval-17-Copy-5" stroke="#6ECB8B" stroke-width="1" fill="none" stroke-linecap="round" stroke-linejoin="round" stroke-dasharray="0.5,5"></path><ellipse id="Oval-17-Copy-4" stroke="none" fill="#FFFFFF" fill-rule="evenodd" opacity="0.110337409" cx="21.5" cy="21.5192308" rx="21.390169" ry="21.4230769"></ellipse><g id="Group-28" stroke="none" stroke-width="1" fill="none" fill-rule="evenodd" transform="translate(9.000000, 9.000000)"><g id="Group-24" transform="translate(8.333333, 22.653846)"><mask id="mask-7" fill="white"><use xlink:href="#path-6"></use></mask><use id="Rectangle-27" fill="#177383" xlink:href="#path-6"></use><ellipse id="Oval-17-Copy" stroke="#33BAAA" stroke-width="0.6" opacity="0.601732337" mask="url(#mask-7)" cx="4.16666667" cy="-5.96153846" rx="12.5" ry="12.5192308"></ellipse><ellipse id="Oval-17-Copy-2" stroke="#33BAAA" stroke-width="0.6" opacity="0.601732337" mask="url(#mask-7)" cx="4.16666667" cy="-8.34615385" rx="12.5" ry="12.5192308"></ellipse><ellipse id="Oval-17-Copy-6" fill-opacity="0.210000008" fill="#000000" mask="url(#mask-7)" cx="4" cy="-8.48076923" rx="12.5" ry="12.5192308"></ellipse></g><ellipse id="Oval-17" fill="url(#linearGradient-8)" cx="12.5" cy="12.5192308" rx="12.5" ry="12.5192308"></ellipse><ellipse id="Oval-17-Copy-3" fill="url(#linearGradient-1)" cx="12.5" cy="12.5192308" rx="12.5" ry="12.5192308"></ellipse></g></g></g><path d="M86,78 C82.1340068,78 79,74.8659932 79,71 C79,67.1340068 82.1340068,64 86,64 C89.8659932,64 93,67.1340068 93,71 C93,74.8659932 89.8659932,78 86,78 Z M85,81 L87,81 C90.8659932,81 94,84.1340068 94,88 L94,101 L78,101 L78,88 C78,84.1340068 81.1340068,81 85,81 Z M102.5,87 C105.537566,87 108,89.4624339 108,92.5 L108,101 L97,101 L97,92.5 C97,89.4624339 99.4624339,87 102.5,87 Z M102.5,84 C100.014719,84 98,81.9852814 98,79.5 C98,77.0147186 100.014719,75 102.5,75 C104.985281,75 107,77.0147186 107,79.5 C107,81.9852814 104.985281,84 102.5,84 Z" id="Combined-Shape" fill="#177383" mask="url(#mask-3)"></path></g></g></g></g></g></svg> 