<?xml version="1.0" encoding="UTF-8"?> <svg xmlns="http://www.w3.org/2000/svg" xmlns:xlink="http://www.w3.org/1999/xlink" width="85px" height="99px" viewBox="0 0 85 99"><!-- Generator: Sketch 52.6 (67491) - http://www.bohemiancoding.com/sketch --><title>Financial</title><desc>Created with Sketch.</desc><defs><radialGradient cx="10.1475267%" cy="12.3100204%" fx="10.1475267%" fy="12.3100204%" r="101.239425%" gradientTransform="translate(0.101475,0.123100),scale(0.974921,1.000000),rotate(44.750301),translate(-0.101475,-0.123100)" id="radialGradient-1"><stop stop-color="#7ECC79" offset="0%"></stop><stop stop-color="#28AD9D" offset="100%"></stop></radialGradient><path d="M16.9449042,0 L51.2085349,0 C59.8196168,6.51253657 66.2785026,17.5427317 67.7563952,30.0535714 C70.1207926,50.0689625 55.0075396,66.2946429 34,66.2946429 C12.9924604,66.2946429 -2.12079255,50.0689625 0.243604838,30.0535714 C1.72149736,17.5427317 8.3112743,6.51253657 16.9449042,-2.59792188e-14 Z" id="path-2"></path><path d="M44.4615385,69.0604839 C44.4615385,73.0076119 41.9598662,76.4129773 36.2742475,76.95474 L36.2742475,80.4375 L33.2419175,80.4375 L33.2419175,76.9934373 C29.2998885,76.6838586 26.419175,75.0972679 24.4102564,72.9302172 L26.8740245,69.4474572 C28.3522854,71.0340479 30.5128205,72.4658492 33.2419175,72.8915199 L33.2419175,65.4229345 C29.3377926,64.4168038 25.206243,62.9463051 25.206243,57.9156517 C25.206243,53.9685237 28.3522854,50.8340397 33.2419175,50.408369 L33.2419175,46.8482143 L36.2742475,46.8482143 L36.2742475,50.4857637 C39.3823857,50.7953423 41.9219621,52.033657 43.8929766,53.9685237 L41.3534002,57.3351917 C39.9509476,55.9033904 38.1694537,55.0133517 36.2742475,54.6263784 L36.2742475,61.2823198 C40.2162765,62.3658451 44.4615385,63.8750411 44.4615385,69.0604839 Z M29.754738,57.6060731 C29.754738,59.1152691 31.2329989,59.8892158 33.2419175,60.4696758 L33.2419175,54.4328917 C31.0813824,54.6650757 29.754738,55.8646931 29.754738,57.6060731 Z M36.2742475,72.8915199 C38.8896321,72.5045466 39.9509476,70.9566532 39.9509476,69.4861545 C39.9509476,67.7060772 38.3968785,66.8934332 36.2742475,66.2355785 L36.2742475,72.8915199 Z" id="path-4"></path><filter x="-34.9%" y="-14.9%" width="169.8%" height="141.7%" id="filter-5"><feOffset dx="0" dy="2" in="SourceAlpha" result="shadowOffsetOuter1"></feOffset><feGaussianBlur stdDeviation="2" in="shadowOffsetOuter1" result="shadowBlurOuter1"></feGaussianBlur><feColorMatrix values="0 0 0 0 0.0431372549 0 0 0 0 0.274509804 0 0 0 0 0.317647059 0 0 0 0.431046196 0" type="matrix" in="shadowBlurOuter1"></feColorMatrix></filter><radialGradient cx="10.1475267%" cy="12.3100204%" fx="10.1475267%" fy="12.3100204%" r="100.293444%" gradientTransform="translate(0.101475,0.123100),scale(0.993412,1.000000),rotate(45.288546),translate(-0.101475,-0.123100)" id="radialGradient-6"><stop stop-color="#7ECC79" offset="0%"></stop><stop stop-color="#28AD9D" offset="100%"></stop></radialGradient><rect id="path-7" x="5" y="11" width="16" height="3" rx="1.5"></rect><filter x="-43.8%" y="-166.7%" width="187.5%" height="566.7%" id="filter-8"><feOffset dx="0" dy="2" in="SourceAlpha" result="shadowOffsetOuter1"></feOffset><feGaussianBlur stdDeviation="2" in="shadowOffsetOuter1" result="shadowBlurOuter1"></feGaussianBlur><feColorMatrix values="0 0 0 0 0.0431372549 0 0 0 0 0.274509804 0 0 0 0 0.317647059 0 0 0 0.431046196 0" type="matrix" in="shadowBlurOuter1"></feColorMatrix></filter><rect id="path-9" x="5" y="21" width="9" height="3" rx="1.5"></rect><filter x="-77.8%" y="-166.7%" width="255.6%" height="566.7%" id="filter-10"><feOffset dx="0" dy="2" in="SourceAlpha" result="shadowOffsetOuter1"></feOffset><feGaussianBlur stdDeviation="2" in="shadowOffsetOuter1" result="shadowBlurOuter1"></feGaussianBlur><feColorMatrix values="0 0 0 0 0.0431372549 0 0 0 0 0.274509804 0 0 0 0 0.317647059 0 0 0 0.431046196 0" type="matrix" in="shadowBlurOuter1"></feColorMatrix></filter></defs><g id="Home" stroke="none" stroke-width="1" fill="none" fill-rule="evenodd"><g id="Technology-Template" transform="translate(-1282.000000, -3349.000000)"><g id="Feature-(8-icons)" transform="translate(189.000000, 3031.000000)"><g id="icons" transform="translate(0.000000, 273.000000)"><g id="Group-2"><g id="1"><g id="Group-13"><g id="Group-12" transform="translate(1055.000000, 23.000000)"><g id="Financial"><rect id="Rectangle" fill-rule="nonzero" x="0" y="0" width="144" height="144"></rect><g id="Group-106-Copy-7" transform="translate(38.000000, 22.000000)"><g id="Group-111" transform="translate(0.000000, 32.705357)"><mask id="mask-3" fill="white"><use xlink:href="#path-2"></use></mask><use id="Combined-Shape" fill="url(#radialGradient-1)" xlink:href="#path-2"></use><rect id="Rectangle" fill="#0D6574" fill-rule="nonzero" opacity="0.400000006" mask="url(#mask-3)" x="34" y="-3.53571429" width="37.4871795" height="73.3660714"></rect></g><g id="$"><use fill="black" fill-opacity="1" filter="url(#filter-5)" xlink:href="#path-4"></use><use fill="#FFFFFF" fill-rule="evenodd" xlink:href="#path-4"></use></g><rect id="Rectangle" fill="#0D505D" x="18.3076923" y="21.2142857" width="31.3846154" height="7.95535714" rx="3.96"></rect><polygon id="Rectangle-Copy-62" fill="#0D505D" points="22.316686 11.4333901 34.0225431 8.06755476 34.0225431 17.6785714 24.5582812 17.6785714"></polygon><polygon id="Rectangle" fill="url(#radialGradient-6)" points="28.158589 5.46346496 45.7063491 0.246420162 42.0024031 17.6785714 31.5188704 17.6785714"></polygon></g><g id="Group-113" transform="translate(97.000000, 88.000000)"><path d="M10,3 C10,1.34314575 11.3431458,0 13,0 C14.6568542,0 16,1.34314575 16,3 L24,3 C25.1045695,3 26,3.8954305 26,5 L26,31 C26,32.1045695 25.1045695,33 24,33 L2,33 C0.8954305,33 1.3527075e-16,32.1045695 0,31 L0,5 C-1.3527075e-16,3.8954305 0.8954305,3 2,3 L10,3 Z" id="Combined-Shape" fill="#0D505D"></path><g id="Rectangle"><use fill="black" fill-opacity="1" filter="url(#filter-8)" xlink:href="#path-7"></use><use fill="#FFFFFF" fill-rule="evenodd" xlink:href="#path-7"></use></g><g id="Rectangle-Copy-63"><use fill="black" fill-opacity="1" filter="url(#filter-10)" xlink:href="#path-9"></use><use fill="#FFFFFF" fill-rule="evenodd" xlink:href="#path-9"></use></g></g></g></g></g></g></g></g></g></g></g></svg> 