<?xml version="1.0" encoding="UTF-8"?> <svg xmlns="http://www.w3.org/2000/svg" xmlns:xlink="http://www.w3.org/1999/xlink" width="32px" height="33px" viewBox="0 0 32 33"><!-- Generator: Sketch 52.6 (67491) - http://www.bohemiancoding.com/sketch --><title>Flexible Work Hours</title><desc>Created with Sketch.</desc><defs><linearGradient x1="100%" y1="0%" x2="0%" y2="100%" id="linearGradient-1"><stop stop-color="#8CD987" offset="0%"></stop><stop stop-color="#1FA595" offset="100%"></stop></linearGradient></defs><g id="Home" stroke="none" stroke-width="1" fill="none" fill-rule="evenodd"><g id="Careers" transform="translate(-1041.000000, -4300.000000)"><g id="Group-13" transform="translate(200.000000, 4293.000000)"><g id="content"><g id="Flexible-Work-Hours" transform="translate(837.000000, 3.000000)"><polygon id="Rectangle-38" points="0 0 40 0 40 40 0 40"></polygon><g id="Group-20" transform="translate(4.000000, 4.000000)"><path d="M28.6770038,6.75945817 L28.689209,6.76253832 L21.1525752,9.85298464 L22.3581079,6.76446397 C19.668499,4.88182221 16.1917446,4.18775149 12.7978447,5.16800151 C6.87112038,6.87979963 3.41632314,13.0564885 5.00159017,19.0313923 L0.768734479,20.6680289 C0.750915627,20.6080639 0.7334177,20.5479159 0.716243135,20.4875863 C-1.68987823,12.0355282 3.16193995,3.21907446 11.5530823,0.795485787 C18.1222261,-1.10186043 24.9130909,1.48133044 28.7068894,6.7479029 L28.6770038,6.75945817 Z" id="Path" fill="url(#linearGradient-1)"></path><path d="M3.37044065,25.5688907 L3.35823547,25.5658106 L10.8948693,22.4753643 L9.68933658,25.5638849 C12.3789455,27.4465267 15.8556999,28.1405974 19.2495998,27.1603474 C25.1763241,25.4485493 28.6311213,19.2718604 27.0458543,13.2969566 L31.27871,11.66032 C31.2965288,11.720285 31.3140268,11.780433 31.3312013,11.8407626 C33.7373227,20.2928208 28.8855045,29.1092745 20.4943621,31.5328631 C13.9252184,33.4302093 7.13435355,30.8470185 3.34055508,25.580446 L3.37044065,25.5688907 Z" id="Path" fill="url(#linearGradient-1)"></path><polyline id="Path-21" stroke="#0D6574" stroke-width="1.98" stroke-linecap="square" fill-rule="nonzero" transform="translate(17.869811, 16.418957) rotate(1.000000) translate(-17.869811, -16.418957) " points="15.1737624 9.46509347 15.1606063 17.5351899 20.5790159 23.3728211"></polyline></g></g></g></g></g></g></svg> 