<?xml version="1.0" encoding="UTF-8"?> <svg xmlns="http://www.w3.org/2000/svg" xmlns:xlink="http://www.w3.org/1999/xlink" width="29px" height="30px" viewBox="0 0 29 30"><!-- Generator: Sketch 52.6 (67491) - http://www.bohemiancoding.com/sketch --><title>Free Lunches</title><desc>Created with Sketch.</desc><defs><linearGradient x1="100%" y1="0%" x2="0%" y2="100%" id="linearGradient-1"><stop stop-color="#8CD987" offset="0%"></stop><stop stop-color="#1FA595" offset="100%"></stop></linearGradient></defs><g id="Home" stroke="none" stroke-width="1" fill="none" fill-rule="evenodd"><g id="Careers" transform="translate(-1043.000000, -4489.000000)"><g id="Group-13" transform="translate(200.000000, 4293.000000)"><g id="content-copy" transform="translate(0.000000, 188.000000)"><g id="Free-Lunches" transform="translate(837.000000, 3.000000)"><polygon id="Rectangle-38" points="0 0 40 0 40 40 0 40"></polygon><g id="Group-15" transform="translate(6.000000, 5.000000)"><path d="M14,0 L15,0 C22.7319865,-1.42034288e-15 29,6.2680135 29,14 L0,14 L0,14 C-9.46895252e-16,6.2680135 6.2680135,1.42034288e-15 14,0 Z" id="Rectangle" fill="url(#linearGradient-1)"></path><path d="M5,8.54062707 C5,8.24204698 5.22385763,8 5.5,8 C5.77614237,8 6,8.24204698 6,8.54062707 C6,8.79762839 5.83333333,9.23483873 5.5,9.85225809 C5.16666667,9.23483873 5,8.79762839 5,8.54062707 Z" id="Path" fill="#0D6574" transform="translate(5.500000, 8.926129) rotate(6.000000) translate(-5.500000, -8.926129) "></path><path d="M18,3.54062707 C18,3.24204698 18.2238576,3 18.5,3 C18.7761424,3 19,3.24204698 19,3.54062707 C19,3.79762839 18.8333333,4.23483873 18.5,4.85225809 C18.1666667,4.23483873 18,3.79762839 18,3.54062707 Z" id="Path" fill="#0D6574" transform="translate(18.500000, 3.926129) rotate(15.000000) translate(-18.500000, -3.926129) "></path><path d="M11,9.54062707 C11,9.24204698 11.2238576,9 11.5,9 C11.7761424,9 12,9.24204698 12,9.54062707 C12,9.79762839 11.8333333,10.2348387 11.5,10.8522581 C11.1666667,10.2348387 11,9.79762839 11,9.54062707 Z" id="Path" fill="#0D6574" transform="translate(11.500000, 9.926129) rotate(-27.000000) translate(-11.500000, -9.926129) "></path><path d="M17,8.54062707 C17,8.24204698 17.2238576,8 17.5,8 C17.7761424,8 18,8.24204698 18,8.54062707 C18,8.79762839 17.8333333,9.23483873 17.5,9.85225809 C17.1666667,9.23483873 17,8.79762839 17,8.54062707 Z" id="Path" fill="#0D6574" transform="translate(17.500000, 8.926129) rotate(-147.000000) translate(-17.500000, -8.926129) "></path><path d="M10,3.54062707 C10,3.24204698 10.2238576,3 10.5,3 C10.7761424,3 11,3.24204698 11,3.54062707 C11,3.79762839 10.8333333,4.23483873 10.5,4.85225809 C10.1666667,4.23483873 10,3.79762839 10,3.54062707 Z" id="Path" fill="#0D6574" transform="translate(10.500000, 3.926129) rotate(131.000000) translate(-10.500000, -3.926129) "></path><path d="M24,9.54062707 C24,9.24204698 24.2238576,9 24.5,9 C24.7761424,9 25,9.24204698 25,9.54062707 C25,9.79762839 24.8333333,10.2348387 24.5,10.8522581 C24.1666667,10.2348387 24,9.79762839 24,9.54062707 Z" id="Path" fill="#0D6574" transform="translate(24.500000, 9.926129) rotate(-82.000000) translate(-24.500000, -9.926129) "></path><path d="M8,22 L21,22 C25.418278,22 29,25.581722 29,30 L0,30 L0,30 C-5.41083001e-16,25.581722 3.581722,22 8,22 Z" id="Rectangle" fill="url(#linearGradient-1)" transform="translate(14.500000, 26.000000) scale(1, -1) translate(-14.500000, -26.000000) "></path><rect id="Rectangle" fill="#0D6574" x="0" y="16" width="29" height="4"></rect></g></g></g></g></g></g></svg> 