<?xml version="1.0" encoding="UTF-8"?> <svg xmlns="http://www.w3.org/2000/svg" xmlns:xlink="http://www.w3.org/1999/xlink" width="90px" height="81px" viewBox="0 0 90 81"><!-- Generator: Sketch 52.6 (67491) - http://www.bohemiancoding.com/sketch --><title>Government</title><desc>Created with Sketch.</desc><defs><radialGradient cx="10.1475267%" cy="12.3100204%" fx="10.1475267%" fy="12.3100204%" r="122.06349%" gradientTransform="translate(0.101475,0.123100),scale(0.707367,1.000000),rotate(35.726215),translate(-0.101475,-0.123100)" id="radialGradient-1"><stop stop-color="#7ECC79" offset="0%"></stop><stop stop-color="#28AD9D" offset="100%"></stop></radialGradient><path d="M49,64 L41,64 C38.790861,64 37,62.209139 37,60 L37,32.0727657 C37,29.7943128 35.152949,27.9472617 32.874496,27.9472617 L32.874496,27.9472617 C30.5960431,27.9472617 28.7489921,29.7943128 28.7489921,32.0727657 L28.7489921,60 C28.7489921,62.209139 26.9581311,64 24.7489921,64 L16.7489921,64 C14.5398531,64 12.7489921,62.209139 12.7489921,60 L12.7489921,36.9472617 C12.7489921,31.976699 8.71955483,27.9472617 3.74899208,27.9472617 L2.48063244,27.9472617 C1.37606294,27.9472617 0.480632436,27.0518312 0.480632436,25.9472617 C0.480632436,25.2203252 0.875063735,24.5506279 1.51081732,24.1981309 L42.8244543,1.29155991 C44.3326559,0.455329329 46.1653283,0.455329329 47.6735299,1.29155991 L88.9871668,24.1981309 C89.9531851,24.733745 90.3020967,25.9510586 89.7664826,26.9170768 C89.4139855,27.5528304 88.7442883,27.9472617 88.0173517,27.9472617 L87.2489921,27.9472617 C82.5545717,27.9472617 78.7489921,31.7528414 78.7489921,36.4472617 L78.7489921,60 C78.7489921,62.209139 76.9581311,64 74.7489921,64 L66.7489921,64 C64.5398531,64 62.7489921,62.209139 62.7489921,60 L62.7489921,32.8217578 C62.7489921,30.1296479 60.5666059,27.9472617 57.874496,27.9472617 L57.874496,27.9472617 C55.1823862,27.9472617 53,30.1296479 53,32.8217578 L53,60 C53,62.209139 51.209139,64 49,64 Z" id="path-2"></path><circle id="path-4" cx="45.5" cy="16.5" r="5.5"></circle><filter x="-81.8%" y="-54.5%" width="263.6%" height="263.6%" id="filter-5"><feOffset dx="0" dy="3" in="SourceAlpha" result="shadowOffsetOuter1"></feOffset><feGaussianBlur stdDeviation="2.5" in="shadowOffsetOuter1" result="shadowBlurOuter1"></feGaussianBlur><feColorMatrix values="0 0 0 0 0.0431372549 0 0 0 0 0.274509804 0 0 0 0 0.317647059 0 0 0 0.431046196 0" type="matrix" in="shadowBlurOuter1"></feColorMatrix></filter></defs><g id="Home" stroke="none" stroke-width="1" fill="none" fill-rule="evenodd"><g id="Technology-Template" transform="translate(-472.000000, -3355.000000)"><g id="Feature-(8-icons)" transform="translate(189.000000, 3031.000000)"><g id="icons" transform="translate(0.000000, 273.000000)"><g id="Group-2"><g id="1"><g id="Group-13"><g id="Group-8" transform="translate(256.000000, 18.000000)"><g id="Government"><rect id="Rectangle" fill-rule="nonzero" x="0" y="0" width="144" height="144"></rect><g id="Group-108" transform="translate(27.000000, 33.000000)"><g id="Group-107"><mask id="mask-3" fill="white"><use xlink:href="#path-2"></use></mask><use id="Path" fill="url(#radialGradient-1)" xlink:href="#path-2"></use><rect id="Rectangle" fill="#0D6574" fill-rule="nonzero" opacity="0.400000006" mask="url(#mask-3)" x="45" y="-10" width="73" height="90"></rect><g id="Oval" mask="url(#mask-3)"><use fill="black" fill-opacity="1" filter="url(#filter-5)" xlink:href="#path-4"></use><use fill="#FFFFFF" fill-rule="evenodd" xlink:href="#path-4"></use></g></g><rect id="Rectangle" fill="#0D505D" x="8" y="69" width="75" height="12" rx="4"></rect></g></g></g></g></g></g></g></g></g></g></svg> 