<?xml version="1.0" encoding="UTF-8"?> <svg xmlns="http://www.w3.org/2000/svg" xmlns:xlink="http://www.w3.org/1999/xlink" width="76px" height="86px" viewBox="0 0 76 86"><!-- Generator: Sketch 52.6 (67491) - http://www.bohemiancoding.com/sketch --><title>Health &amp; Medical</title><desc>Created with Sketch.</desc><defs><radialGradient cx="10.1475267%" cy="12.3100204%" fx="10.1475267%" fy="12.3100204%" r="113.814164%" gradientTransform="translate(0.101475,0.123100),scale(1.000000,0.794872),rotate(51.984497),translate(-0.101475,-0.123100)" id="radialGradient-1"><stop stop-color="#7ECC79" offset="0%"></stop><stop stop-color="#28AD9D" offset="100%"></stop></radialGradient><rect id="path-2" x="0" y="0" width="62" height="78" rx="7"></rect><path d="M56.5355339,43.6066017 L46.9791847,34.2701247 C44.3402718,31.6919278 44.3402718,27.5118446 46.9791847,24.9336477 C49.6180977,22.3554508 53.8966209,22.3554508 56.5355339,24.9336477 C59.1744469,22.3554508 63.4529701,22.3554508 66.0918831,24.9336477 C68.7307961,27.5118446 68.7307961,31.6919278 66.0918831,34.2701247 L56.5355339,43.6066017 Z" id="path-4"></path><filter x="-39.0%" y="-29.1%" width="178.0%" height="187.4%" id="filter-5"><feOffset dx="0" dy="3" in="SourceAlpha" result="shadowOffsetOuter1"></feOffset><feGaussianBlur stdDeviation="2.5" in="shadowOffsetOuter1" result="shadowBlurOuter1"></feGaussianBlur><feColorMatrix values="0 0 0 0 0.0431372549 0 0 0 0 0.274509804 0 0 0 0 0.317647059 0 0 0 0.431046196 0" type="matrix" in="shadowBlurOuter1"></feColorMatrix></filter></defs><g id="Home" stroke="none" stroke-width="1" fill="none" fill-rule="evenodd"><g id="Technology-Template" transform="translate(-728.000000, -3350.000000)"><g id="Feature-(8-icons)" transform="translate(189.000000, 3031.000000)"><g id="icons" transform="translate(0.000000, 273.000000)"><g id="Group-2"><g id="1"><g id="Group-13"><g id="Group-7" transform="translate(502.000000, 18.000000)"><g id="Health-&amp;-Medical" transform="translate(8.000000, 0.000000)"><rect id="Rectangle" fill-rule="nonzero" x="0" y="0" width="144" height="144"></rect><g id="Group-110" transform="translate(32.000000, 28.000000)"><g id="Group-109" transform="translate(11.000000, 8.000000)"><mask id="mask-3" fill="white"><use xlink:href="#path-2"></use></mask><use id="Rectangle" fill="url(#radialGradient-1)" xlink:href="#path-2"></use><path d="M31,-19 L69,-19 C72.8659932,-19 76,-15.8659932 76,-12 L76,86 C76,89.8659932 72.8659932,93 69,93 L31,93 L31,-19 Z" id="Rectangle-Copy-61" fill="#0D6574" fill-rule="nonzero" opacity="0.400000006" mask="url(#mask-3)"></path></g><path d="M23,21 L23,38.5 C23,44.8512746 17.8512746,50 11.5,50 L11.5,50 C5.14872538,50 7.77806814e-16,44.8512746 0,38.5 L0,21" id="Path" stroke="#0D505D" stroke-width="5" stroke-linecap="round" stroke-linejoin="round" fill-rule="nonzero"></path><g id="Path"><use fill="black" fill-opacity="1" filter="url(#filter-5)" xlink:href="#path-4"></use><use fill="#FFFFFF" fill-rule="evenodd" xlink:href="#path-4"></use></g><path d="M11,51 L11,65.3513662 C11,70.6801595 15.3198405,75 20.6486338,75 L20.6486338,75 C25.9774271,75 30.2972677,70.6801595 30.2972677,65.3513662 L30.2972677,60.05031 C30.2972677,56.7088161 33.0060837,54 36.3475777,54 L36.3475777,54 C39.6890716,54 42.3978877,56.7088161 42.3978877,60.05031 L42.3978877,62" id="Path-176" stroke="#0D505D" stroke-width="5" stroke-linecap="round" stroke-linejoin="round" fill-rule="nonzero"></path><circle id="Oval" fill="#0D505D" cx="42" cy="72" r="4"></circle><path d="M37.0829584,5 C37.5590365,2.16228666 40.0270037,0 43,0 C45.9729963,0 48.4409635,2.16228666 48.9170416,5 L51,5 C53.209139,5 55,6.790861 55,9 C55,11.209139 53.209139,13 51,13 L34,13 C31.790861,13 30,11.209139 30,9 C30,6.790861 31.790861,5 34,5 L37.0829584,5 Z" id="Combined-Shape" fill="#0D505D"></path></g></g></g></g></g></g></g></g></g></g></svg> 