<?xml version="1.0" encoding="UTF-8"?> <svg xmlns="http://www.w3.org/2000/svg" xmlns:xlink="http://www.w3.org/1999/xlink" width="1600px" height="2392px" viewBox="0 0 1600 2392"><!-- Generator: Sketch 52.6 (67491) - http://www.bohemiancoding.com/sketch --><title>hexagon-bg4</title><desc>Created with Sketch.</desc><defs><linearGradient x1="50%" y1="0%" x2="50%" y2="100%" id="linearGradient-1"><stop stop-color="#F7FBFA" offset="0%"></stop><stop stop-color="#EDF5F4" offset="100%"></stop></linearGradient><linearGradient x1="12.422135%" y1="26.2762667%" x2="23.2654279%" y2="125.483312%" id="linearGradient-2"><stop stop-color="#1E9EAC" stop-opacity="0" offset="0%"></stop><stop stop-color="#86D39C" offset="100%"></stop></linearGradient><linearGradient x1="-6.03281912%" y1="-31.2892491%" x2="23.2654279%" y2="125.483312%" id="linearGradient-3"><stop stop-color="#1E9EAC" stop-opacity="0" offset="0%"></stop><stop stop-color="#86D39C" offset="100%"></stop></linearGradient></defs><g id="Home" stroke="none" stroke-width="1" fill="none" fill-rule="evenodd"><g id="Services" transform="translate(0.000000, -3550.000000)"><g id="hexagon-bg4" transform="translate(-277.000000, 3321.000000)"><path d="M463.181576,1710.85575 L776.371883,1891.63417 C807.316911,1909.49613 826.380614,1942.51159 826.380614,1978.24175 L826.380614,2339.75825 C826.380614,2375.48841 807.316911,2408.50387 776.371883,2426.36583 L463.181576,2607.14425 C432.245906,2625.00081 394.134708,2625.00081 363.199038,2607.14425 L50.0087306,2426.36583 C19.0637031,2408.50387 2.45960213e-13,2375.48841 2.4158453e-13,2339.75825 L1.27897692e-13,1978.24175 C1.07654631e-13,1942.51159 19.0637031,1909.49613 50.0087306,1891.63417 L363.199038,1710.85575 C394.134708,1692.99919 432.245906,1692.99919 463.181576,1710.85575 Z" id="Ornament-1-Copy" fill="url(#linearGradient-1)"></path><path d="M1890.18158,406.855754 L2203.37188,587.634167 C2234.31691,605.496128 2253.38061,638.511587 2253.38061,674.241748 L2253.38061,1035.75825 C2253.38061,1071.48841 2234.31691,1104.50387 2203.37188,1122.36583 L1890.18158,1303.14425 C1859.24591,1321.00081 1821.13471,1321.00081 1790.19904,1303.14425 L1477.00873,1122.36583 C1446.0637,1104.50387 1427,1071.48841 1427,1035.75825 L1427,674.241748 C1427,638.511587 1446.0637,605.496128 1477.00873,587.634167 L1790.19904,406.855754 C1821.13471,388.999194 1859.24591,388.999194 1890.18158,406.855754 Z" id="Ornament-1" fill="url(#linearGradient-1)"></path><path d="M1997.71137,28.8958962 L2263.40168,182.378437 C2294.32991,200.244894 2313.38061,233.250944 2313.38061,268.968814 L2313.38061,576.031186 C2313.38061,611.749056 2294.32991,644.755106 2263.40168,662.621563 L1997.71137,816.104104 C1966.76056,833.983601 1928.62006,833.983601 1897.66925,816.104104 L1631.97894,662.621563 C1601.0507,644.755106 1582,611.749056 1582,576.031186 L1582,268.968814 C1582,233.250944 1601.0507,200.244894 1631.97894,182.378437 L1897.66925,28.8958962 C1928.62006,11.0163993 1966.76056,11.0163993 1997.71137,28.8958962 Z" id="Ornament-1-Line" stroke="url(#linearGradient-2)" stroke-width="24.8"></path><path d="M1753.83488,1400.59187 L1784.23488,1418.19853 C1793.37349,1423.49131 1799,1433.25205 1799,1443.81272 L1799,1479.18728 C1799,1489.74795 1793.37349,1499.50869 1784.23488,1504.80147 L1753.83488,1522.40813 C1744.6589,1527.72256 1733.3411,1527.72256 1724.16512,1522.40813 L1693.76512,1504.80147 C1684.62651,1499.50869 1679,1489.74795 1679,1479.18728 L1679,1443.81272 C1679,1433.25205 1684.62651,1423.49131 1693.76512,1418.19853 L1724.16512,1400.59187 C1733.3411,1395.27744 1744.6589,1395.27744 1753.83488,1400.59187 Z" id="Ornament-1-Line-Copy" stroke="url(#linearGradient-3)" stroke-width="4"></path><path d="M1890.87998,1153.65303 L1953.27998,1189.93999 C1962.39315,1195.2395 1968,1204.98595 1968,1215.528 L1968,1288.472 C1968,1299.01405 1962.39315,1308.7605 1953.27998,1314.06001 L1890.87998,1350.34697 C1881.68115,1355.69629 1870.31885,1355.69629 1861.12002,1350.34697 L1798.72002,1314.06001 C1789.60685,1308.7605 1784,1299.01405 1784,1288.472 L1784,1215.528 C1784,1204.98595 1789.60685,1195.2395 1798.72002,1189.93999 L1861.12002,1153.65303 C1870.31885,1148.30371 1881.68115,1148.30371 1890.87998,1153.65303 Z" id="Ornament-1-Line-Copy-2" stroke="url(#linearGradient-3)" stroke-width="10"></path></g></g></g></svg> 