<?xml version="1.0" encoding="UTF-8"?> <svg xmlns="http://www.w3.org/2000/svg" xmlns:xlink="http://www.w3.org/1999/xlink" width="1600px" height="1639px" viewBox="0 0 1600 1639"><!-- Generator: Sketch 52.6 (67491) - http://www.bohemiancoding.com/sketch --><title>hexagon-bg3</title><desc>Created with Sketch.</desc><defs><rect id="path-1" x="0" y="0" width="1600" height="1892"></rect><linearGradient x1="50%" y1="0%" x2="50%" y2="100%" id="linearGradient-3"><stop stop-color="#F7FBFA" offset="0%"></stop><stop stop-color="#EDF5F4" offset="100%"></stop></linearGradient><linearGradient x1="34.723648%" y1="9.66465956%" x2="19.6657453%" y2="86.1596355%" id="linearGradient-4"><stop stop-color="#1E9EAC" stop-opacity="0" offset="0%"></stop><stop stop-color="#86D39C" offset="100%"></stop></linearGradient><linearGradient x1="-11.0518587%" y1="-14.4074383%" x2="50%" y2="111.203462%" id="linearGradient-5"><stop stop-color="#1E9EAC" stop-opacity="0" offset="0%"></stop><stop stop-color="#86D39C" offset="100%"></stop></linearGradient></defs><g id="Home" stroke="none" stroke-width="1" fill="none" fill-rule="evenodd"><g id="Services" transform="translate(0.000000, -1237.000000)"><g id="hexagon-bg3" transform="translate(800.000000, 1977.000000) scale(-1, 1) translate(-800.000000, -1977.000000) translate(0.000000, 1031.000000)"><mask id="mask-2" fill="white"><use xlink:href="#path-1"></use></mask><use id="Mask" fill="#FFFFFF" opacity="0" xlink:href="#path-1"></use><path d="M1387.50733,1490.26821 L1509.50733,1560.74026 C1521.56984,1567.70805 1529,1580.58068 1529,1594.51102 L1529,1735.48898 C1529,1749.41932 1521.56984,1762.29195 1509.50733,1769.25974 L1387.50733,1839.73179 C1375.43696,1846.70411 1360.56304,1846.70411 1348.49267,1839.73179 L1226.49267,1769.25974 C1214.43016,1762.29195 1207,1749.41932 1207,1735.48898 L1207,1594.51102 C1207,1580.58068 1214.43016,1567.70805 1226.49267,1560.74026 L1348.49267,1490.26821 C1360.56304,1483.29589 1375.43696,1483.29589 1387.50733,1490.26821 Z" id="Ornament-1-Copy" fill="url(#linearGradient-3)" mask="url(#mask-2)"></path><path d="M1874.19958,661.88001 L2121.38989,804.630702 C2152.32477,822.495382 2171.38061,855.505154 2171.38061,891.227887 L2171.38061,1176.77211 C2171.38061,1212.49485 2152.32477,1245.50462 2121.38989,1263.3693 L1874.19958,1406.11999 C1843.25476,1423.99041 1805.12585,1423.99041 1774.18103,1406.11999 L1526.99072,1263.3693 C1496.05584,1245.50462 1477,1212.49485 1477,1176.77211 L1477,891.227887 C1477,855.505154 1496.05584,822.495382 1526.99072,804.630702 L1774.18103,661.88001 C1805.12585,644.00959 1843.25476,644.00959 1874.19958,661.88001 Z" id="Ornament-1-Line" stroke="url(#linearGradient-4)" stroke-width="20" mask="url(#mask-2)"></path><path d="M63.5497692,214.727492 L143.049769,260.830231 C152.303744,266.196692 158,276.084768 158,286.782196 L158,379.217804 C158,389.915232 152.303744,399.803308 143.049769,405.169769 L63.5497692,451.272508 C54.2424743,456.669889 42.7575257,456.669889 33.4502308,451.272508 L-46.0497692,405.169769 C-55.3037443,399.803308 -61,389.915232 -61,379.217804 L-61,286.782196 C-61,276.084768 -55.3037443,266.196692 -46.0497692,260.830231 L33.4502308,214.727492 C42.7575257,209.330111 54.2424743,209.330111 63.5497692,214.727492 Z" id="Ornament-1-Line-Copy" stroke="url(#linearGradient-5)" stroke-width="7.44" mask="url(#mask-2)"></path><path d="M-5.45023079,468.727492 L74.0497692,514.830231 C83.3037443,520.196692 89,530.084768 89,540.782196 L89,633.217804 C89,643.915232 83.3037443,653.803308 74.0497692,659.169769 L-5.45023079,705.272508 C-14.7575257,710.669889 -26.2424743,710.669889 -35.5497692,705.272508 L-115.049769,659.169769 C-124.303744,653.803308 -130,643.915232 -130,633.217804 L-130,540.782196 C-130,530.084768 -124.303744,520.196692 -115.049769,514.830231 L-35.5497692,468.727492 C-26.2424743,463.330111 -14.7575257,463.330111 -5.45023079,468.727492 Z" id="Ornament-1-Line-Copy-2" fill="url(#linearGradient-3)" mask="url(#mask-2)"></path></g></g></g></svg> 