<?xml version="1.0" encoding="UTF-8"?> <svg xmlns="http://www.w3.org/2000/svg" xmlns:xlink="http://www.w3.org/1999/xlink" width="78px" height="75px" viewBox="0 0 78 75"><!-- Generator: Sketch 52.5 (67469) - http://www.bohemiancoding.com/sketch --><title>HIGH AVAILABILITY</title><desc>Created with Sketch.</desc><defs><linearGradient x1="30.8057882%" y1="22.7126772%" x2="81.8145032%" y2="79.6238277%" id="linearGradient-1"><stop stop-color="#7ECC79" offset="0%"></stop><stop stop-color="#28AD9D" offset="100%"></stop></linearGradient><circle id="path-2" cx="11.5" cy="11.5" r="11.5"></circle><filter x="-56.5%" y="-47.8%" width="213.0%" height="213.0%" id="filter-3"><feOffset dx="0" dy="2" in="SourceAlpha" result="shadowOffsetOuter1"></feOffset><feGaussianBlur stdDeviation="4" in="shadowOffsetOuter1" result="shadowBlurOuter1"></feGaussianBlur><feColorMatrix values="0 0 0 0 0.0431372549 0 0 0 0 0.274509804 0 0 0 0 0.317647059 0 0 0 0.431046196 0" type="matrix" in="shadowBlurOuter1"></feColorMatrix></filter></defs><g id="Pages" stroke="none" stroke-width="1" fill="none" fill-rule="evenodd"><g id="Messaging" transform="translate(-672.000000, -1635.000000)"><g id="Feature-(8-icons)" transform="translate(0.000000, 1249.000000)"><g id="HIGH-AVAILABILITY" transform="translate(664.000000, 380.000000)"><rect id="Rectangle-8-Copy-9" x="0" y="0" width="83" height="83" rx="12"></rect><g id="Group-21" transform="translate(8.000000, 6.000000)"><circle id="Oval-24" fill="url(#linearGradient-1)" cx="33.5" cy="33.5" r="33.5"></circle><path d="M33.4618736,38 C36.7991428,38 36.2948207,33.8095173 36.0681391,30.7659069 C35.5745695,24.1388429 34.1258541,20.335759 33.4618736,20.335759 C32.7978931,20.335759 31.3492039,24.1384899 30.855608,30.7659069 C30.6572654,33.4290146 30.1246043,38 33.4618736,38 Z" id="Oval-25" fill="#0D505D"></path><path d="M24.3684244,47.2544183 C27.4916529,47.4552748 27.4682859,43.1517281 26.97469,36.5243111 C26.4810941,29.8968941 25.3142292,24.5243111 24.3684244,24.5243111 C23.4226196,24.5243111 22.2557548,29.8968941 21.7621589,36.5243111 C21.268563,43.1517281 21.245196,47.0535617 24.3684244,47.2544183 Z" id="Oval-25-Copy" fill="#0D505D" transform="translate(24.368424, 35.892736) rotate(-90.000000) translate(-24.368424, -35.892736) "></path><path d="M33.5,65 C50.8969696,65 65,50.8969696 65,33.5 C65,16.1030304 50.8969696,2 33.5,2 L33.5,65 Z" id="Oval-24-Copy" fill="#0D6574" opacity="0.200000003"></path><g id="Group-52" transform="translate(47.000000, 42.000000)"><g id="Oval-21"><use fill="black" fill-opacity="1" filter="url(#filter-3)" xlink:href="#path-2"></use><use fill="#6AC264" fill-rule="evenodd" xlink:href="#path-2"></use></g><polyline id="Path-95" stroke="#FFFFFF" stroke-width="2" stroke-linecap="round" stroke-linejoin="round" points="6.71422376 12.4069495 9.64913651 15.5818623 15.8902313 9.23203664"></polyline></g></g></g></g></g></g></svg> 