<?xml version="1.0" encoding="UTF-8"?> <svg xmlns="http://www.w3.org/2000/svg" xmlns:xlink="http://www.w3.org/1999/xlink" width="216px" height="143px" viewBox="0 0 216 143"><!-- Generator: Sketch 52.5 (67469) - http://www.bohemiancoding.com/sketch --><title>Higher Engagement</title><desc>Created with Sketch.</desc><defs><linearGradient x1="23.2916903%" y1="14.537225%" x2="78.8050321%" y2="119.862794%" id="linearGradient-1"><stop stop-color="#AFF7E7" offset="0%"></stop><stop stop-color="#5DD1E4" offset="100%"></stop></linearGradient><path d="M71.4756944,125.945055 C99.9564946,118.753286 134.166667,97.7512941 134.166667,62.9725275 C134.166667,28.1937609 106.098962,0 71.4756944,0 C44.6418441,0 -3.33910495,41.8077244 0.337609836,65.3553524 C5.09148587,95.8016914 43.5791668,132.989288 71.4756944,125.945055 Z" id="path-2"></path><linearGradient x1="35.3833382%" y1="3.37710113%" x2="22.3074002%" y2="94.5399843%" id="linearGradient-4"><stop stop-color="#C9F1E5" offset="0%"></stop><stop stop-color="#72E5BE" offset="100%"></stop></linearGradient><ellipse id="path-5" cx="55.2599193" cy="55.6582062" rx="55.2599193" ry="55.6582062"></ellipse><ellipse id="path-7" cx="82.8168213" cy="85.8351648" rx="2.39583333" ry="7.21978022"></ellipse><filter x="-344.3%" y="-114.3%" width="788.7%" height="328.5%" id="filter-8"><feOffset dx="0" dy="0" in="SourceAlpha" result="shadowOffsetOuter1"></feOffset><feGaussianBlur stdDeviation="5.5" in="shadowOffsetOuter1" result="shadowBlurOuter1"></feGaussianBlur><feColorMatrix values="0 0 0 0 0.414386489 0 0 0 0 0.762223639 0 0 0 0 0.392089236 0 0 0 0.759992074 0" type="matrix" in="shadowBlurOuter1"></feColorMatrix></filter><ellipse id="path-9" cx="7.42623421" cy="16.7817086" rx="7.42623421" ry="1.53995037"></ellipse><filter x="-110.1%" y="-535.7%" width="320.3%" height="1171.5%" id="filter-10"><feOffset dx="0" dy="0" in="SourceAlpha" result="shadowOffsetOuter1"></feOffset><feGaussianBlur stdDeviation="5.5" in="shadowOffsetOuter1" result="shadowBlurOuter1"></feGaussianBlur><feColorMatrix values="0 0 0 0 0.414386489 0 0 0 0 0.762223639 0 0 0 0 0.392089236 0 0 0 0.759992074 0" type="matrix" in="shadowBlurOuter1"></feColorMatrix></filter><path d="M1.59722222,10.4364074 L1.59722222,5.06612244 C1.59722222,2.26818028 4.13974563,0 7.27610721,0 C10.4124688,0 12.9549922,2.26818028 12.9549922,5.06612244 L12.9549922,10.4364074" id="path-11"></path><filter x="-116.2%" y="-126.5%" width="332.4%" height="353.0%" id="filter-12"><feMorphology radius="1.2" operator="dilate" in="SourceAlpha" result="shadowSpreadOuter1"></feMorphology><feOffset dx="0" dy="0" in="shadowSpreadOuter1" result="shadowOffsetOuter1"></feOffset><feMorphology radius="1.2" operator="erode" in="SourceAlpha" result="shadowInner"></feMorphology><feOffset dx="0" dy="0" in="shadowInner" result="shadowInner"></feOffset><feComposite in="shadowOffsetOuter1" in2="shadowInner" operator="out" result="shadowOffsetOuter1"></feComposite><feGaussianBlur stdDeviation="4" in="shadowOffsetOuter1" result="shadowBlurOuter1"></feGaussianBlur><feColorMatrix values="0 0 0 0 0.414386489 0 0 0 0 0.762223639 0 0 0 0 0.392089236 0 0 0 1 0" type="matrix" in="shadowBlurOuter1"></feColorMatrix></filter><ellipse id="path-13" cx="23.3984564" cy="53.6828075" rx="7.42623421" ry="1.53995037"></ellipse><filter x="-110.1%" y="-535.7%" width="320.3%" height="1171.5%" id="filter-14"><feOffset dx="0" dy="0" in="SourceAlpha" result="shadowOffsetOuter1"></feOffset><feGaussianBlur stdDeviation="5.5" in="shadowOffsetOuter1" result="shadowBlurOuter1"></feGaussianBlur><feColorMatrix values="0 0 0 0 0.414386489 0 0 0 0 0.762223639 0 0 0 0 0.392089236 0 0 0 0.759992074 0" type="matrix" in="shadowBlurOuter1"></feColorMatrix></filter><path d="M17.5694444,47.3375063 L17.5694444,41.9672213 C17.5694444,39.1692792 20.1119679,36.9010989 23.2483294,36.9010989 C26.384691,36.9010989 28.9272144,39.1692792 28.9272144,41.9672213 L28.9272144,47.3375063" id="path-15"></path><filter x="-116.2%" y="-126.5%" width="332.4%" height="353.0%" id="filter-16"><feMorphology radius="1.2" operator="dilate" in="SourceAlpha" result="shadowSpreadOuter1"></feMorphology><feOffset dx="0" dy="0" in="shadowSpreadOuter1" result="shadowOffsetOuter1"></feOffset><feMorphology radius="1.2" operator="erode" in="SourceAlpha" result="shadowInner"></feMorphology><feOffset dx="0" dy="0" in="shadowInner" result="shadowInner"></feOffset><feComposite in="shadowOffsetOuter1" in2="shadowInner" operator="out" result="shadowOffsetOuter1"></feComposite><feGaussianBlur stdDeviation="4" in="shadowOffsetOuter1" result="shadowBlurOuter1"></feGaussianBlur><feColorMatrix values="0 0 0 0 0.414386489 0 0 0 0 0.762223639 0 0 0 0 0.392089236 0 0 0 1 0" type="matrix" in="shadowBlurOuter1"></feColorMatrix></filter><linearGradient x1="9.38355439%" y1="15.4514204%" x2="90.1666618%" y2="50%" id="linearGradient-17"><stop stop-color="#93E6CA" offset="0%"></stop><stop stop-color="#79DDBA" offset="100%"></stop></linearGradient><linearGradient x1="23.2916903%" y1="14.537225%" x2="78.8050321%" y2="119.862794%" id="linearGradient-18"><stop stop-color="#6FC4B2" offset="0%"></stop><stop stop-color="#5DD1E4" offset="100%"></stop></linearGradient><linearGradient x1="0%" y1="22.6288417%" x2="157.910643%" y2="109.975606%" id="linearGradient-19"><stop stop-color="#90E28A" offset="0%"></stop><stop stop-color="#28AD9D" offset="100%"></stop></linearGradient><linearGradient x1="35.3833382%" y1="3.37710113%" x2="22.3074002%" y2="94.5399843%" id="linearGradient-20"><stop stop-color="#E2FFF6" offset="0%"></stop><stop stop-color="#95F8D7" offset="100%"></stop></linearGradient></defs><g id="Pages" stroke="none" stroke-width="1" fill="none" fill-rule="evenodd"><g id="Bots/AI" transform="translate(-304.000000, -1478.000000)"><g id="Group-4" transform="translate(231.000000, 1213.000000)"><g id="Group-2" transform="translate(0.000000, 265.000000)"><g id="Higher-Engagement" transform="translate(73.000000, 0.000000)"><ellipse id="Oval-88" fill="url(#linearGradient-1)" opacity="0.400000006" cx="160.520833" cy="16.043956" rx="15.9722222" ry="16.043956"></ellipse><g id="Group-141" transform="translate(0.000000, 15.241758)"><mask id="mask-3" fill="white"><use xlink:href="#path-2"></use></mask><use id="Oval-87" fill="url(#linearGradient-1)" opacity="0.400000006" xlink:href="#path-2"></use><path d="M131.701301,34.8907277 L167.172304,47.2903505 L150.729651,125.351869 C135.739126,132.460118 125.689913,134.23718 120.58201,130.683056 C115.765284,127.331535 110.933333,117.380483 106.086156,100.829901 C98.8218724,104.577388 90.5856344,106.692308 81.8576389,106.692308 C52.5270998,106.692308 28.75,82.8084211 28.75,53.3461538 C28.75,49.6586413 29.1224719,46.058515 29.8316854,42.5816658 C39.9981044,22.5460586 60.7301471,8.82417582 84.6527778,8.82417582 C101.473225,8.82417582 116.716323,15.6079427 127.818473,26.6003649 C129.338173,29.229699 130.640674,32.0014154 131.701301,34.8907277 Z" id="Combined-Shape" fill="#0D6574" opacity="0.100000001" mask="url(#mask-3)"></path></g><g id="Group-56" transform="translate(27.152778, 0.000000)"><rect id="Rectangle-18-Copy-2" fill="#000000" opacity="0.100000001" x="4.78180727" y="43.3601743" width="10.4840954" height="24.1992201" rx="2.88"></rect><g id="Group-53" transform="translate(7.426234, 0.000000)"><mask id="mask-6" fill="white"><use xlink:href="#path-5"></use></mask><use id="Oval-12" fill="url(#linearGradient-4)" xlink:href="#path-5"></use><path d="M42.6270709,115.552595 C34.0686401,98.1305813 29.0759035,83.4808481 27.6488614,71.6033952 C24.3519877,44.1630976 38.389656,32.9015198 48.442321,32.9015198 C52.0668589,32.9015198 55.6088667,33.9216526 58.6145714,35.8312274 C63.6155288,39.0084197 68.6164862,40.5970159 73.6174436,40.5970159 C78.6184011,40.5970159 83.6193585,39.0084197 88.6203159,35.8312273 C91.7700022,33.8301788 95.347531,32.7753173 98.8761891,32.9000344 C119.102042,33.6148986 120.232489,60.4579496 119.102042,73.2630483 C118.348411,81.7997808 114.401598,94.1185951 107.261601,110.219491 L42.6270709,115.552595 Z" id="Path-52" fill="#0D6574" mask="url(#mask-6)"></path><g id="Oval-85" mask="url(#mask-6)"><use fill="black" fill-opacity="1" filter="url(#filter-8)" xlink:href="#path-7"></use><use fill="#AFFFAA" fill-rule="evenodd" xlink:href="#path-7"></use></g><g id="Group-55" mask="url(#mask-6)"><g transform="translate(50.755536, 18.046012)"><g id="Group-54" transform="translate(0.000000, 36.901099)"><g id="Oval-17" opacity="0.300000012"><use fill="black" fill-opacity="1" filter="url(#filter-10)" xlink:href="#path-9"></use><use fill="#AFFFAA" fill-rule="evenodd" xlink:href="#path-9"></use></g><g id="Rectangle-6" stroke-linecap="round" stroke-linejoin="round"><use fill="black" fill-opacity="1" filter="url(#filter-12)" xlink:href="#path-11"></use><use stroke="#A8FFA2" stroke-width="2.4" xlink:href="#path-11"></use></g></g><g id="Group-54-Copy" transform="translate(22.906298, 0.000000)"><g id="Oval-17" opacity="0.300000012"><use fill="black" fill-opacity="1" filter="url(#filter-14)" xlink:href="#path-13"></use><use fill="#AFFFAA" fill-rule="evenodd" xlink:href="#path-13"></use></g><path d="M38.6393394,71.2966605 L11.5463212,71.2966499 C11.0577109,71.2966499 10.6276732,70.9728726 10.490585,70.5017814 C9.18401072,66.0118572 8.53072359,60.9308083 8.53072359,55.2586347 C8.53072359,49.5875329 9.18376386,44.517707 10.4898444,40.0491569 C10.6273708,39.5787046 11.0571011,39.2555581 11.5452242,39.2555581 L38.6636909,39.2555561 C38.8603953,39.2555561 39.049118,39.3082623 39.2131565,39.4032906 L39.2131565,39.0779196 L122.21737,13.9596515 C126.206398,27.7201063 128.200913,41.4765038 128.200913,55.2288439 C128.200913,68.981184 126.206398,82.7335242 122.21737,96.4858643 L39.2131565,71.3675962 C39.0437227,71.2384765 38.8460721,71.2966605 38.6393394,71.2966605 Z" id="Combined-Shape" fill="#000000" opacity="0.200000003" transform="translate(68.365818, 55.222758) rotate(-14.000000) translate(-68.365818, -55.222758) "></path><g id="Rectangle-6" stroke-linecap="round" stroke-linejoin="round"><use fill="black" fill-opacity="1" filter="url(#filter-16)" xlink:href="#path-15"></use><use stroke="#A8FFA2" stroke-width="2.4" xlink:href="#path-15"></use></g></g></g></g><path d="M36.2582202,110.714805 C28.6074219,96.0709858 24.2548037,82.5799983 23.2003657,70.2418427 C20.6144743,39.9838965 35.1733273,28.8913269 46.0359979,28.8913269 C49.9525873,28.8913269 53.7799966,29.9826449 57.0278896,32.0254702 C62.4318052,35.4243678 67.8357207,37.1238166 73.2396363,37.1238166 C78.6435519,37.1238166 84.0474675,35.4243678 89.4513831,32.0254702 C92.8548591,29.884788 96.7206516,28.756318 100.533636,28.889738 C122.389211,29.6544856 123.610745,58.3706509 122.389211,72.0692924 C121.574856,81.2017201 117.310023,94.3801441 109.594712,111.604564 L36.2582202,110.714805 Z" id="Path-52-Copy" stroke="#0D6574" stroke-width="1.31383296" stroke-linecap="round" stroke-linejoin="round" mask="url(#mask-6)"></path><path d="M56.0587699,38.0694479 L56.0587699,-6.16955881" id="Path-53" opacity="0.5" mask="url(#mask-6)"></path><path d="M75.1908448,36.2925524 C72.2374938,12.6041277 63.9230484,-2.3243545 50.2475085,-8.49289422" id="Path-303" stroke="#0D6574" stroke-width="1.31383296" opacity="0.5" stroke-linecap="round" stroke-linejoin="round" stroke-dasharray="2.1897216796875,6.131219863891602" mask="url(#mask-6)"></path></g><path d="M8.32094208,43.3601743 L10.4840954,43.3601743 C12.3650862,46.2797647 13.3055816,50.6240901 13.3055816,56.3931503 C13.3055816,59.2105943 12.3650862,62.9326756 10.4840954,67.5593944 L8.32094208,67.5593944 C3.72541266,67.5593944 -1.2135668e-15,63.8339817 -1.77635684e-15,59.2384523 L-1.77635684e-15,51.6811164 C-2.33914688e-15,47.085587 3.72541266,43.3601743 8.32094208,43.3601743 Z" id="Rectangle-18" stroke="#70C9AC" stroke-width="0.608" fill="url(#linearGradient-17)" stroke-linecap="round" stroke-linejoin="round"></path><path d="M3.27341252,49.3154363 C4.77698566,53.8829307 5.15287894,58.0175209 4.40109237,61.7192071" id="Path-302" stroke="#0D6574" stroke-width="1.31383296" opacity="0.300000012" stroke-linecap="round" stroke-linejoin="round"></path></g><g id="Group-140" transform="translate(164.237548, 89.408178) rotate(-15.000000) translate(-164.237548, -89.408178) translate(107.237548, 46.908178)"><g id="Group-129" transform="translate(25.115638, 59.971686) rotate(1.000000) translate(-25.115638, -59.971686) translate(1.115638, 35.471686)"><path d="M41.1372617,12.2022485 C44.6312861,14.4840995 46.443124,16.7587711 46.5727753,19.0262631 C46.7024266,21.2937551 46.1204392,23.3102784 44.8268129,25.075833 L37.015452,16.5107267 L41.1372617,12.2022485 Z" id="Path-292" fill="url(#linearGradient-18)"></path><path d="M34.5867627,0.781912341 L34.5867627,0.781912341 C38.5793782,0.781912341 41.8160326,4.01856673 41.8160326,8.01118226 L41.8160326,41.3451901 C41.8160326,45.3378056 38.5793782,48.57446 34.5867627,48.57446 L34.5867627,48.57446 C30.5941472,48.57446 27.3574928,45.3378056 27.3574928,41.3451901 L27.3574928,8.01118226 C27.3574928,4.01856673 30.5941472,0.781912341 34.5867627,0.781912341 Z" id="Rectangle-68" fill="#0D6574"></path><g id="Group-128" transform="translate(0.723340, 9.261235)"><rect id="Rectangle-69" fill="#0D6574" x="0" y="8.47932298" width="13.6975641" height="20.8128837" rx="6.84878203"></rect><path d="M26.7683968,0.270684846 C18.5271062,1.40399272 13.5398448,3.21258849 11.8066126,5.69647217 C11.1572218,6.62710984 10.3274834,7.38340632 9.3173974,7.96536161 L9.31739266,7.96535337 C5.45198571,10.1923855 3.24802857,14.4758432 3.68317406,18.9156282 L3.68317406,18.9156282 C4.25523152,24.7523248 8.4663644,29.5837586 14.1702708,30.9474769 C26.8502995,33.9790876 35.8289172,34.595797 41.1061228,32.7976113 C48.9671747,27.3718239 46.9629968,10.3659754 41.1061228,8.46184562 C36.1032481,8.1407364 31.3240061,7.9841238 26.7683968,7.99200784 L26.7683968,0.270684846 Z" id="Path-290" fill="url(#linearGradient-1)"></path><path d="M26.7683968,7.73676026 C24.137326,5.4586399 22.6392653,3.21958031 22.2742147,1.01958149 C23.6458401,0.743710966 25.1439008,0.494078753 26.7683968,0.270684846 L26.7683968,7.73676026 Z" id="Combined-Shape" fill="#0D6574" opacity="0.200000003"></path></g></g><path d="M42.7133817,-1.01820242 C52.659616,-3.92748094 62.6029176,-5.3821202 72.5432865,-5.3821202 C82.4836554,-5.3821202 92.4240243,-3.92748094 102.364393,-1.01820242 L84.2085849,59.5184321 C80.0049691,63.4269083 75.9141438,65.3540723 71.9361091,65.2999241 C67.9580744,65.245776 64.2691013,63.318612 60.86919,59.5184321 L42.7133817,-1.01820242 Z" id="Rectangle-77" fill="url(#linearGradient-19)" transform="translate(72.538887, 29.959457) rotate(90.000000) translate(-72.538887, -29.959457) "></path><path d="M91.8853582,56.2966018 C85.475437,37.9206856 85.5503538,20.3401204 92.1101086,3.55490619 L103.516547,0.133951149 C106.425825,10.0801855 107.880465,20.0234871 107.880465,29.963856 C107.880465,39.9042249 106.425825,49.8445938 103.516547,59.7849627 L91.8853506,56.2965995 Z" id="Combined-Shape" fill="#0D6574" opacity="0.300000012"></path><path d="M103.518848,0.141820649 C106.426592,10.0854303 107.880465,20.0261087 107.880465,29.963856 C107.880465,39.9042249 106.425825,49.8445938 103.516547,59.7849627 L103.378065,59.7434301 C94.8561948,38.9613261 94.8649965,19.1027042 103.404471,0.167564414 L103.506045,0.137100713 L103.518848,0.14182065 Z" id="Combined-Shape" fill="#0D6574"></path><path d="M98.3735306,43.2793913 C96.5106888,33.7408392 96.5334402,24.4064107 98.4417848,15.2761058 C98.7672733,15.2533343 99.0958325,15.2417582 99.4270833,15.2417582 C107.145646,15.2417582 113.402778,21.5269916 113.402778,29.2802198 C113.402778,37.033448 107.145646,43.3186813 99.4270833,43.3186813 C99.0726629,43.3186813 98.7213239,43.3054292 98.3735306,43.2793913 Z" id="Combined-Shape" fill="url(#linearGradient-4)"></path><path d="M100.655141,15.2952097 C99.7342007,26.3498926 100.739579,35.4713705 103.671276,42.6596436 C102.332781,43.0876887 100.906787,43.3186813 99.4270833,43.3186813 C99.0726629,43.3186813 98.7213239,43.3054292 98.3735306,43.2793913 C96.5106888,33.7408392 96.5334402,24.4064107 98.4417848,15.2761058 C98.7672733,15.2533343 99.0958325,15.2417582 99.4270833,15.2417582 C99.8408825,15.2417582 100.250481,15.2598228 100.655141,15.2952097 Z" id="Combined-Shape" fill="#0D6574" opacity="0.300000012"></path><path d="M23.7395571,18.4381642 L44.0436011,18.0029981 C42.0850248,20.8795005 41.0357986,24.7952659 40.8959226,29.7502941 C40.7560466,34.7053223 41.7652954,38.6933331 43.9236691,41.7143266 L23.7537767,41.7143002 C23.398058,41.7143002 23.0850697,41.4794146 22.98567,41.137866 C22.03689,37.8777512 21.5625,34.1883861 21.5625,30.0697709 C21.5625,25.9464364 22.0379777,22.26089 22.9889332,19.0131318 L22.9889758,19.0131443 C23.0870155,18.6783135 23.3907484,18.4456401 23.7395571,18.4381642 Z" id="Rectangle-78" fill="url(#linearGradient-20)"></path><path d="M103.516547,59.7849627 L43.2638999,41.7143264 L23.7537766,41.7143001 C23.3980579,41.7143001 23.0850696,41.4794146 22.9856699,41.137866 C22.3851688,39.0744763 21.974702,36.8391346 21.7542696,34.4318408 L41.0285413,34.5659198 L106.704218,45.4461265 C105.977968,50.2257362 104.915411,55.0053494 103.516547,59.7849627 Z" id="Combined-Shape" fill="#0D6574" opacity="0.300000012"></path></g></g></g></g></g></g></svg> 