<?xml version="1.0" encoding="UTF-8"?> <svg xmlns="http://www.w3.org/2000/svg" xmlns:xlink="http://www.w3.org/1999/xlink" width="20px" height="17px" viewBox="0 0 20 17"><!-- Generator: Sketch 52.5 (67469) - http://www.bohemiancoding.com/sketch --><title>ic-app-development</title><desc>Created with Sketch.</desc><g id="Pages" stroke="none" stroke-width="1" fill="none" fill-rule="evenodd"><g id="Services" transform="translate(-202.000000, -3518.000000)"><g id="Activation" transform="translate(0.000000, 2878.000000)"><g id="Content" transform="translate(199.000000, 222.000000)"><g id="Features" transform="translate(0.000000, 244.000000)"><g id="Feature-2-Copy" transform="translate(0.000000, 169.000000)"><g id="ic-app-development"><polygon id="Rectangle-38" points="0 0 26 0 26 26 0 26"></polygon><g id="Group-101" transform="translate(4.500000, 6.000000)" stroke="#54B454" stroke-linecap="round" stroke-linejoin="round"><g id="Group-100" stroke-width="1.5"><rect id="Rectangle-70-Copy" x="0" y="0" width="17" height="11.7333333"></rect><polygon id="Rectangle-72" points="6.375 11.7333333 10.625 11.7333333 10.625 14.9333333 6.375 14.9333333"></polygon><path d="M5.1,14.9333333 L11.6875,14.9333333" id="Path-171"></path></g><g id="Group-98" transform="translate(2.500000, 2.500000)"><g id="Group-99"><polyline id="Rectangle-71" points="2.67768595 4.8553872 0.675990131 3.11111111 2.67768595 1.36683502"></polyline><polyline id="Rectangle-71-Copy" transform="translate(10.769443, 3.299832) scale(-1, 1) translate(-10.769443, -3.299832) " points="11.7702909 5.04410774 9.76859504 3.29983165 11.7702909 1.55555556"></polyline><path d="M5.10743802,5.83333333 L7.64182509,0.29467378" id="Path-170"></path></g></g></g></g></g></g></g></g></g></g></svg> 