<?xml version="1.0" encoding="UTF-8"?> <svg xmlns="http://www.w3.org/2000/svg" xmlns:xlink="http://www.w3.org/1999/xlink" width="113px" height="86px" viewBox="0 0 113 86"><!-- Generator: Sketch 52.6 (67491) - http://www.bohemiancoding.com/sketch --><title>ic-Apparel</title><desc>Created with Sketch.</desc><defs><radialGradient cx="10.1475267%" cy="12.3100204%" fx="10.1475267%" fy="12.3100204%" r="108.338226%" gradientTransform="translate(0.101475,0.123100),scale(0.859103,1.000000),rotate(41.139001),translate(-0.101475,-0.123100)" id="radialGradient-1"><stop stop-color="#7ECC79" offset="0%"></stop><stop stop-color="#28AD9D" offset="100%"></stop></radialGradient><path d="M23.1550388,4.28966346 C23.1550388,1.92054775 25.1211681,3.32178729e-13 27.5465116,3.32178729e-13 C29.9718551,3.32178729e-13 31.9379845,1.92054775 31.9379845,4.28966346 L29.5426357,13.2589598" id="path-2"></path><filter x="-125.2%" y="-60.3%" width="350.5%" height="269.3%" id="filter-3"><feMorphology radius="2" operator="dilate" in="SourceAlpha" result="shadowSpreadOuter1"></feMorphology><feOffset dx="0" dy="3" in="shadowSpreadOuter1" result="shadowOffsetOuter1"></feOffset><feMorphology radius="2" operator="erode" in="SourceAlpha" result="shadowInner"></feMorphology><feOffset dx="0" dy="3" in="shadowInner" result="shadowInner"></feOffset><feComposite in="shadowOffsetOuter1" in2="shadowInner" operator="out" result="shadowOffsetOuter1"></feComposite><feGaussianBlur stdDeviation="2.5" in="shadowOffsetOuter1" result="shadowBlurOuter1"></feGaussianBlur><feColorMatrix values="0 0 0 0 0.0431372549 0 0 0 0 0.274509804 0 0 0 0 0.317647059 0 0 0 0.431046196 0" type="matrix" in="shadowBlurOuter1"></feColorMatrix></filter><path d="M34.4058716,15.4224387 L55.3360974,31.4468914 C56.0377289,31.9840696 56.1710447,32.9883234 55.6338665,33.6899549 C55.3311113,34.0853964 54.861481,34.3173077 54.3634502,34.3173077 L4.72182112,34.3173077 C3.83816552,34.3173077 3.12182112,33.6009633 3.12182112,32.7173077 C3.12182112,32.2192769 3.35373246,31.7496466 3.74917393,31.4468914 L24.6793997,15.4224387 C27.5492896,13.2252138 31.5359817,13.2252138 34.4058716,15.4224387 Z" id="path-4"></path><filter x="-27.7%" y="-68.2%" width="155.4%" height="263.3%" id="filter-5"><feMorphology radius="2" operator="dilate" in="SourceAlpha" result="shadowSpreadOuter1"></feMorphology><feOffset dx="0" dy="2" in="shadowSpreadOuter1" result="shadowOffsetOuter1"></feOffset><feMorphology radius="2" operator="erode" in="SourceAlpha" result="shadowInner"></feMorphology><feOffset dx="0" dy="2" in="shadowInner" result="shadowInner"></feOffset><feComposite in="shadowOffsetOuter1" in2="shadowInner" operator="out" result="shadowOffsetOuter1"></feComposite><feGaussianBlur stdDeviation="5.5" in="shadowOffsetOuter1" result="shadowBlurOuter1"></feGaussianBlur><feColorMatrix values="0 0 0 0 0.0431372549 0 0 0 0 0.274509804 0 0 0 0 0.317647059 0 0 0 0.431046196 0" type="matrix" in="shadowBlurOuter1"></feColorMatrix></filter></defs><g id="Home" stroke="none" stroke-width="1" fill="none" fill-rule="evenodd"><g id="Resources" transform="translate(-749.000000, -610.000000)"><g id="Group-3" transform="translate(620.000000, 582.000000)"><g id="ic-Apparel" transform="translate(108.000000, 0.000000)"><rect id="Rectangle" fill-rule="nonzero" x="0" y="0" width="144" height="144"></rect><g id="Group-101" transform="translate(21.000000, 28.000000)"><path d="M57.0891473,17.5939685 L38.6449612,17.5939685 L38.5111497,0.26795594 C41.0948549,0.97902274 44.2283909,1.75939685 47.427907,1.75939685 C50.9969745,1.75939685 54.1836206,0.879581742 56.9553357,0.00955251588 L57.0891473,17.5939685 Z" id="Path" fill="#0D6574"></path><path d="M39.0090276,0.0431582043 L39.0090276,3.22927499 C39.0090276,8.17859321 43.0212428,12.1908084 47.970561,12.1908084 C52.9198792,12.1908084 56.9320944,8.17859321 56.9320944,3.22927499 L56.9320944,6.14619466e-13 C63.7169969,0.821502602 69.698318,2.63904899 74.8760578,5.45263916 L96.6124031,25.431939 L84.8326282,41.7921407 L74.8760578,35.8845 L72.0793923,83 L24.5360787,83 L21.7394132,35.8826796 L11.7797749,41.7921407 L0,25.431939 L21.7394132,5.45263916 C26.661743,2.68731633 32.4182811,0.884156011 39.0090276,0.0431582043 Z" id="Combined-Shape" fill="url(#radialGradient-1)"></path><g id="Asset-1-Copy" transform="translate(35.930233, 20.750000)" fill="#0D6574"><path d="M19.7941886,27.1173319 L19.7941886,27.1173319 C20.8695158,25.2382574 21.1607906,23.004903 20.6038811,20.9090013 C20.0469717,18.8130997 18.6875405,17.0264994 16.8249026,15.9425682 L16.8249026,15.9425682 C15.5917542,15.2255584 14.1933009,14.8488272 12.770139,14.8502501 L11.2807628,14.8502501 C11.1092435,14.8505253 10.9447835,14.9192062 10.8232214,15.0413262 L10.8232214,15.0413262 C10.6390676,15.2288681 10.5842632,15.5095531 10.6841511,15.7535841 C10.7840391,15.9976151 11.0191505,16.1574281 11.2807628,16.159121 L12.7732944,16.159121 C16.5319116,16.1608796 19.5776232,19.2370962 19.5764617,23.0304268 C19.5753002,26.8237573 16.5277052,29.8980734 12.7690877,29.8974875 C9.01047013,29.8969016 5.96381634,26.8216354 5.96381594,23.0283047 L5.96381594,22.9614281 L5.96381594,3.92388523 L5.96381594,3.85700861 L5.96381594,2.3506925 C5.96567297,2.17716714 5.89729331,2.01039011 5.77448846,1.8889254 L5.77448846,1.8889254 C5.65316596,1.76640955 5.48857401,1.69757474 5.31694704,1.69757474 C5.14532006,1.69757474 4.98072811,1.76640955 4.85940562,1.8889254 L4.85940562,1.8889254 C4.73660076,2.01039011 4.6682211,2.17716714 4.67007813,2.3506925 L4.67007813,4.57991297 C4.67007814,4.88369175 4.50949716,5.16439493 4.24882449,5.31628432 C3.98815182,5.46817371 3.66698984,5.46817371 3.40631717,5.31628432 C3.14564451,5.16439493 2.98506352,4.88369175 2.98506353,4.57991297 L2.98506353,2.3506925 C2.98613036,1.72784748 3.23245813,1.13097173 3.66979793,0.691515544 L3.66979793,0.691515544 C4.10573195,0.248889837 4.69857282,-3.81183707e-17 5.31694704,0 C5.93532126,3.81183707e-17 6.52816212,0.248889837 6.96409615,0.691515544 L6.96409615,0.691515544 C7.40336756,1.13122721 7.65092176,1.72946919 7.651986,2.3538771 L7.651986,3.86019322 L7.651986,3.92706983 L7.651986,22.9614281 L7.651986,23.0283047 C7.6519864,25.1203888 8.90086364,27.0064128 10.816132,27.8067209 C12.7314003,28.607029 14.935771,28.1639685 16.4011089,26.6841861 C17.8664468,25.2044037 18.3040949,22.9794018 17.509931,21.0469381 C16.715767,19.1144744 14.8462333,17.855225 12.7732944,17.8565132 L11.2807628,17.8565132 C10.3372992,17.8563799 9.48687768,17.2825017 9.12626475,16.4026232 C8.76565181,15.5227447 8.96591213,14.5102601 9.63361367,13.8375471 L9.63361367,13.8375471 C10.0688508,13.3958712 10.6603923,13.1472147 11.2776073,13.1464888 L12.770139,13.1464888 C14.4909167,13.146435 16.18126,13.6045053 17.6705654,14.4744673 L17.6705654,14.4744673 C19.9189423,15.7839972 21.5593507,17.9417896 22.2305072,20.4726126 C22.9016637,23.0034356 22.5485208,25.6997141 21.2488548,27.9676203 L21.2488548,27.9676203 L20.5104776,29.270122 C20.3512912,29.5800738 20.4605145,29.9615525 20.7589763,30.138041 C21.0574382,30.3145295 21.4405739,30.2241958 21.6306652,29.9325189 L22.3721979,28.6363865 L22.3721979,28.6363865 L22.3721979,28.6363865 C23.8455448,26.0630288 24.2443929,23.0039711 23.4808209,20.1335459 C22.7172489,17.2631207 20.8539468,14.8169923 18.301657,13.3343802 L18.301657,13.3343802 C15.7555528,11.8463434 12.7263748,11.4451421 9.88605031,12.21977 C9.44980516,12.3030962 9.02435354,12.0304479 8.91353635,11.5965398 C8.80271916,11.1626317 9.04457259,10.7163957 9.46637439,10.576516 C12.7348107,9.68390905 16.2209392,10.1423227 19.1536306,11.8503563 L19.1536306,11.8503563 C25.2647996,15.4053072 27.364011,23.286609 23.8426413,29.4548288 L23.8426413,29.4739364 L23.8426413,29.4739364 L23.0979532,30.7764381 C22.4391089,31.8698503 21.0353007,32.2315418 19.9377568,31.5906634 C18.840213,30.949785 18.4512425,29.5412532 19.0621224,28.4198336 L19.8068105,27.1173319 L19.7941886,27.1173319 Z M12.7732944,31.2063592 C13.2385984,31.2063592 13.6158017,31.5870463 13.6158017,32.0566476 C13.6158017,32.5262489 13.2385984,32.906936 12.7732944,32.906936 C11.0581546,32.9051615 9.37362434,32.4482903 7.88864536,31.5821421 L7.88864536,31.5821421 C4.85474486,29.8219333 2.98366857,26.5601156 2.98190807,23.0283047 L2.98190807,23.0283047 L2.98190807,8.62754042 C2.9837651,8.45401507 2.91538544,8.28723804 2.79258059,8.16577333 L2.79258059,8.16577333 C2.60788091,7.97664799 2.32807791,7.91927476 2.08489405,8.02066315 C1.84171018,8.12205154 1.68360712,8.36199686 1.68501481,8.62754042 L1.68501481,23.0283047 L1.68501481,23.0283047 C1.68175129,24.9911228 2.18877651,26.9204593 3.15545826,28.6236481 L3.15545826,28.6236481 C6.21768051,33.9750634 12.9974689,35.8096829 18.301657,32.7222291 C18.5615081,32.5703397 18.8819108,32.5698974 19.1421727,32.7210687 C19.4024346,32.87224 19.5630156,33.1520584 19.5634264,33.4551191 C19.5638372,33.7581798 19.4040154,34.0384406 19.1441643,34.19033 C13.0395829,37.7401098 5.23974046,35.6296368 1.71341393,29.4739364 L1.71341393,29.4739364 C0.590613528,27.5148296 -0.00039723256,25.2915267 2.00311738e-07,23.0283047 L2.00311738e-07,23.0283047 L2.00311738e-07,8.62754042 C0.00106702885,8.00469541 0.247394799,7.40781966 0.6847346,6.96836347 L0.6847346,6.96836347 C1.12066862,6.52573777 1.71350949,6.27684793 2.33188371,6.27684793 C2.95025793,6.27684793 3.54309879,6.52573777 3.97903282,6.96836347 L3.97903282,6.96836347 C4.41800954,7.40827531 4.66551021,8.00638792 4.66692268,8.63072503 L4.66692268,23.0283047 L4.66692268,23.0283047 C4.66247632,25.9521142 6.20797469,28.6549901 8.71853083,30.1140412 L8.71853083,30.1140412 C9.9516792,30.831051 11.3501325,31.2077821 12.7732944,31.2063592 L12.7732944,31.2063592 Z" id="Shape"></path></g><path d="M47.427907,12.1746486 C47.6074193,12.1853706 47.7883551,12.1908084 47.970561,12.1908084 C52.9198792,12.1908084 56.9320944,8.17859321 56.9320944,3.22927499 L56.9320944,6.30606678e-13 C63.7169969,0.821502602 69.698318,2.63904899 74.8760578,5.45263916 L96.6124031,25.431939 L84.8326282,41.7921407 L74.8760578,35.8845 L72.0793923,83 L47.427907,83 L47.427907,12.1746486 Z" id="Combined-Shape" fill="#0D6574" fill-rule="nonzero" opacity="0.200000003"></path><g id="Group-102" transform="translate(43.914729, 35.913462)"><g id="Path"><use fill="black" fill-opacity="1" filter="url(#filter-3)" xlink:href="#path-2"></use><use stroke="#FFFFFF" stroke-width="4" xlink:href="#path-2"></use></g><g id="Triangle"><use fill="black" fill-opacity="1" filter="url(#filter-5)" xlink:href="#path-4"></use><use stroke="#FFFFFF" stroke-width="4" xlink:href="#path-4"></use></g></g></g></g></g></g></g></svg> 