<?xml version="1.0" encoding="UTF-8"?> <svg xmlns="http://www.w3.org/2000/svg" xmlns:xlink="http://www.w3.org/1999/xlink" width="104px" height="77px" viewBox="0 0 104 77"><!-- Generator: Sketch 52.6 (67491) - http://www.bohemiancoding.com/sketch --><title>ic-Design-services</title><desc>Created with Sketch.</desc><defs><radialGradient cx="10.1475267%" cy="12.3100204%" fx="10.1475267%" fy="12.3100204%" r="116.888845%" gradientTransform="translate(0.101475,0.123100),scale(0.756607,1.000000),rotate(37.572325),translate(-0.101475,-0.123100)" id="radialGradient-1"><stop stop-color="#7ECC79" offset="0%"></stop><stop stop-color="#28AD9D" offset="100%"></stop></radialGradient><path d="M13.14,24.8158188 C11.4147728,25.2598616 10.14,26.8259619 10.14,28.6898013 C10.14,30.8989403 11.930861,32.6898013 14.14,32.6898013 C16.349139,32.6898013 18.14,30.8989403 18.14,28.6898013 C18.14,26.8259619 16.8652272,25.2598616 15.14,24.8158188 L15.14,-1.17239551e-13 L28.2842712,30.430867 L23.4513556,41.8051859 L4.8329157,41.8051859 L-2.52775578e-12,30.430867 L13.14,0.00988854848 L13.14,24.8158188 Z" id="path-2"></path><filter x="-31.8%" y="-14.4%" width="163.6%" height="143.1%" id="filter-3"><feOffset dx="0" dy="3" in="SourceAlpha" result="shadowOffsetOuter1"></feOffset><feGaussianBlur stdDeviation="2.5" in="shadowOffsetOuter1" result="shadowBlurOuter1"></feGaussianBlur><feColorMatrix values="0 0 0 0 0.0431372549 0 0 0 0 0.274509804 0 0 0 0 0.317647059 0 0 0 0.431046196 0" type="matrix" in="shadowBlurOuter1"></feColorMatrix></filter></defs><g id="Home" stroke="none" stroke-width="1" fill="none" fill-rule="evenodd"><g id="Services" transform="translate(-748.000000, -1435.000000)"><g id="Group-4" transform="translate(620.000000, 1374.000000)"><g id="ic-Design-services" transform="translate(108.000000, 27.000000)"><rect id="Rectangle" fill-rule="nonzero" x="0" y="0" width="144" height="144"></rect><g id="Group-7" transform="translate(20.000000, 34.000000)"><g id="Group-6" transform="translate(0.602410, 0.915663)"><rect id="Rectangle" fill="url(#radialGradient-1)" x="8" y="0" width="87.4501643" height="66.1653738" rx="8.3199995"></rect><g id="Group-8" transform="translate(49.096075, 33.082687) rotate(-45.000000) translate(-49.096075, -33.082687) translate(34.596075, 5.582687)"><rect id="Rectangle" fill="#0D505D" x="2" y="44" width="24" height="11" rx="5.5"></rect><g id="Combined-Shape"><use fill="black" fill-opacity="1" filter="url(#filter-3)" xlink:href="#path-2"></use><use fill="#FFFFFF" fill-rule="evenodd" xlink:href="#path-2"></use></g></g><path d="M51,9.3443159e-16 L87.4050826,1.77635684e-15 C92.0000915,-7.23010798e-15 95.7250821,3.72499066 95.7250821,8.3199995 L95.7250821,57.8453743 C95.7250821,62.4403832 92.0000915,66.1653738 87.4050826,66.1653738 L51,66.1653738 L51,1.77635684e-15 Z" id="Combined-Shape" fill="#0D6574" fill-rule="nonzero" opacity="0.200000003"></path><path d="M44.6484118,68.2330418 L44.6484118,70.3007097 L59.1851041,70.3007097 L59.1851041,68.2330418 L102.795181,68.2330418 L102.795181,69.2668757 C102.795181,72.6927001 100.00591,75.4698795 96.5651698,75.4698795 L6.23001095,75.4698795 C2.78927091,75.4698795 0,72.6927001 0,69.2668757 L0,68.2330418 L44.6484118,68.2330418 Z" id="Path" fill="#0D505D"></path><path d="M51.9167579,70.3007097 L59.1851041,70.3007097 L59.1851041,68.2330418 L102.795181,68.2330418 L102.795181,69.2668757 C102.795181,72.6927001 100.00591,75.4698795 96.5651698,75.4698795 L51.9167579,75.4698795 L51.9167579,70.3007097 Z" id="Path" fill="#000000" fill-rule="nonzero" opacity="0.200000003"></path></g></g></g></g></g></g></svg> 