<?xml version="1.0" encoding="UTF-8"?> <svg xmlns="http://www.w3.org/2000/svg" xmlns:xlink="http://www.w3.org/1999/xlink" width="19px" height="18px" viewBox="0 0 19 18"><!-- Generator: Sketch 52.5 (67469) - http://www.bohemiancoding.com/sketch --><title>ic-design</title><desc>Created with Sketch.</desc><g id="Pages" stroke="none" stroke-width="1" fill="none" fill-rule="evenodd"><g id="Services" transform="translate(-202.000000, -3348.000000)"><g id="Activation" transform="translate(0.000000, 2878.000000)"><g id="Content" transform="translate(199.000000, 222.000000)"><g id="Features" transform="translate(0.000000, 244.000000)"><g id="Feature-1"><g id="ic-design"><polygon id="Rectangle-38" points="0 0 26 0 26 26 0 26"></polygon><g id="Group-96" transform="translate(3.000000, 4.000000)"><g id="Group-94" transform="translate(9.500000, 9.000000) rotate(-315.000000) translate(-9.500000, -9.000000) translate(7.000000, 0.000000)" stroke="#54B454" stroke-linecap="round" stroke-linejoin="round"><rect id="Rectangle-52" stroke-width="1.5" x="0" y="0" width="5" height="18"></rect><g id="Group-93" transform="translate(0.000000, 1.588235)"><path d="M0,13.7647059 L2.56879881,13.7647059" id="Path-168"></path><path d="M0,10.5882353 L1.58113883,10.5882353" id="Path-168-Copy"></path><path d="M0,7.41176471 L2.56879881,7.41176471" id="Path-168-Copy-2"></path><path d="M0,4.23529412 L1.58113883,4.23529412" id="Path-168-Copy-3"></path><path d="M0,1.05882353 L2.56879881,1.05882353" id="Path-168-Copy-4"></path></g></g><g id="Group-95" transform="translate(9.500000, 9.000000) rotate(-45.000000) translate(-9.500000, -9.000000) translate(7.000000, -1.000000)"><path d="M2.5,0 L2.5,0 C3.88071187,-2.53632657e-16 5,1.11928813 5,2.5 L5,17.8947368 L2.5,20 L0,17.8947368 L0,2.5 C-1.69088438e-16,1.11928813 1.11928813,2.53632657e-16 2.5,0 Z" id="Rectangle-53" stroke="#54B454" stroke-width="1.5" fill="#FFFFFF" stroke-linecap="round" stroke-linejoin="round"></path><path d="M5,3.68421053 L-8.8817842e-16,3.68421053 L0,2.5 C-1.69088438e-16,1.11928813 1.11928813,2.53632657e-16 2.5,0 C3.88071187,-2.53632657e-16 5,1.11928813 5,2.5 L5,3.68421053 Z" id="Combined-Shape" fill="#54B454"></path><path d="M0.175459805,17.4764152 L4.88360697,17.4764152" id="Path-169" stroke="#54B454" stroke-linecap="round" stroke-linejoin="round"></path></g></g></g></g></g></g></g></g></g></svg> 