<?xml version="1.0" encoding="UTF-8"?> <svg xmlns="http://www.w3.org/2000/svg" xmlns:xlink="http://www.w3.org/1999/xlink" width="85px" height="97px" viewBox="0 0 85 97"><!-- Generator: Sketch 52.6 (67491) - http://www.bohemiancoding.com/sketch --><title>ic-Ebook</title><desc>Created with Sketch.</desc><defs><ellipse id="path-1" cx="19.2897196" cy="60.6666667" rx="2.41121495" ry="2.39473684"></ellipse><filter x="-186.6%" y="-125.3%" width="473.3%" height="475.8%" id="filter-2"><feOffset dx="0" dy="3" in="SourceAlpha" result="shadowOffsetOuter1"></feOffset><feGaussianBlur stdDeviation="2.5" in="shadowOffsetOuter1" result="shadowBlurOuter1"></feGaussianBlur><feColorMatrix values="0 0 0 0 0.0431372549 0 0 0 0 0.274509804 0 0 0 0 0.317647059 0 0 0 0.431046196 0" type="matrix" in="shadowBlurOuter1"></feColorMatrix></filter><radialGradient cx="10.1475267%" cy="12.3100204%" fx="10.1475267%" fy="12.3100204%" r="116.629611%" gradientTransform="translate(0.101475,0.123100),scale(1.000000,0.764620),rotate(53.057918),translate(-0.101475,-0.123100)" id="radialGradient-3"><stop stop-color="#7ECC79" offset="0%"></stop><stop stop-color="#28AD9D" offset="100%"></stop></radialGradient><path d="M11.2684853,63.394436 L57.7802198,63.394436 L57.7802198,75.8654726 L11.2684853,75.8654726 C7.82470367,75.8654726 5.03296703,73.0737359 5.03296703,69.6299543 L5.03296703,69.6299543 C5.03296703,66.1861726 7.82470367,63.394436 11.2684853,63.394436 Z" id="path-4"></path><filter x="-20.9%" y="-56.1%" width="141.7%" height="276.4%" id="filter-5"><feOffset dx="0" dy="4" in="SourceAlpha" result="shadowOffsetOuter1"></feOffset><feGaussianBlur stdDeviation="3" in="shadowOffsetOuter1" result="shadowBlurOuter1"></feGaussianBlur><feColorMatrix values="0 0 0 0 0.0431372549 0 0 0 0 0.274509804 0 0 0 0 0.317647059 0 0 0 0.431046196 0" type="matrix" in="shadowBlurOuter1"></feColorMatrix></filter></defs><g id="Home" stroke="none" stroke-width="1" fill="none" fill-rule="evenodd"><g id="Resources" transform="translate(-1191.000000, -607.000000)"><g id="Group-5" transform="translate(1053.000000, 582.000000)"><g id="ic-Ebook" transform="translate(108.000000, 0.000000)"><rect id="Rectangle" fill-rule="nonzero" x="0" y="0" width="144" height="144"></rect><g id="Group-103" transform="translate(30.000000, 23.000000)"><g id="Group-98" transform="translate(0.000000, 28.176261)"><rect id="Rectangle-Copy-55" fill="#0D505D" x="0" y="0" width="39.0033891" height="68.0254934" rx="5.88"></rect><g id="Oval-Copy-83"><use fill="black" fill-opacity="1" filter="url(#filter-2)" xlink:href="#path-1"></use><use fill="#FFFFFF" fill-rule="evenodd" xlink:href="#path-1"></use></g></g><g id="Group-13" transform="translate(22.000000, 2.000000)"><rect id="Rectangle" stroke="#2B4246" stroke-width="1.0374" fill="#5BD8FF" fill-rule="nonzero" x="44.5846341" y="0.5187" width="7.40216044" height="33.2579506"></rect><path d="M62,63.394436 L53.4662875,63.394436 C50.0225059,63.394436 47.2307692,66.1861726 47.2307692,69.6299543 C47.2307692,73.0737359 50.0225059,75.8654726 53.4662875,75.8654726 L62,75.8654726 L62,80.0224848 L11.1871868,80.0224848 C5.45778482,80.0224848 0.813186813,75.3778868 0.813186813,69.6484848 L0.813186813,10.374 C0.813186813,4.64459801 5.45778482,-2.20401648e-14 11.1871868,-2.30926389e-14 L62,-2.13162821e-14 L62,63.394436 Z" id="Combined-Shape" fill="url(#radialGradient-3)"></path><polygon id="Rectangle-36" fill="#0B4651" points="49.3406593 -8.97230137e-13 55.7342657 -8.97230137e-13 55.7342657 29.818479 52.7680122 28.0037614 49.3406593 29.818479"></polygon><g id="Rectangle-Copy-56"><use fill="black" fill-opacity="1" filter="url(#filter-5)" xlink:href="#path-4"></use><use fill="#FFFFFF" fill-rule="evenodd" xlink:href="#path-4"></use></g><path d="M11.1871868,-2.13162821e-14 L26.1318681,-2.13162821e-14 L26.1318681,80.0224848 L11.1871868,80.0224848 C5.45778482,80.0224848 0.813186813,75.3778868 0.813186813,69.6484848 L0.813186813,10.374 C0.813186813,4.64459801 5.45778482,-2.0263808e-14 11.1871868,-2.13162821e-14 Z" id="Rectangle-Copy-57" fill="#0D6574" fill-rule="nonzero" opacity="0.200000003"></path></g></g></g></g></g></g></svg> 