<?xml version="1.0" encoding="UTF-8"?> <svg xmlns="http://www.w3.org/2000/svg" xmlns:xlink="http://www.w3.org/1999/xlink" width="21px" height="24px" viewBox="0 0 21 24"><!-- Generator: Sketch 52.5 (67469) - http://www.bohemiancoding.com/sketch --><title>ic-growth-hacking</title><desc>Created with Sketch.</desc><g id="Pages" stroke="none" stroke-width="1" fill="none" fill-rule="evenodd"><g id="Services" transform="translate(-202.000000, -5457.000000)"><g id="Support" transform="translate(0.000000, 4797.000000)"><g id="Content-Copy" transform="translate(199.000000, 171.000000)"><g id="Features" transform="translate(0.000000, 319.000000)"><g id="Feature-2-Copy" transform="translate(0.000000, 169.000000)"><g id="ic-growth-hacking"><polygon id="Rectangle-38" points="0 0 26 0 26 26 0 26"></polygon><g id="Group-111" transform="translate(3.000000, 2.000000)"><g id="Group-83" transform="translate(7.000000, 8.000000)" stroke="#54B454" stroke-linecap="round" stroke-linejoin="round" stroke-width="1.5"><g id="Group-105"><circle id="Oval-5" cx="3.06784494" cy="3.06790597" r="2.34997559"></circle></g></g><path d="M10.04523,3.61192104 C9.17999284,3.61192104 8.47857957,2.91050777 8.47857957,2.04527065 C8.47857957,1.18003353 9.17999284,0.478620257 10.04523,0.478620257 C10.9104671,0.478620257 11.6118803,1.18003353 11.6118803,2.04527065 C11.6118803,2.91050777 10.9104671,3.61192104 10.04523,3.61192104 Z M16.443494,7.30596052 C16.0108755,6.55664319 16.2676105,5.59849485 17.0169279,5.16587629 C17.7662452,4.73325773 18.7243935,4.9899928 19.1570121,5.73931013 C19.5896307,6.48862745 19.3328956,7.4467758 18.5835783,7.87939436 C17.8342609,8.31201292 16.8761126,8.05527784 16.443494,7.30596052 Z M16.443494,14.6940395 C16.8761126,13.9447222 17.8342609,13.6879871 18.5835783,14.1206056 C19.3328956,14.5532242 19.5896307,15.5113725 19.1570121,16.2606899 C18.7243935,17.0100072 17.7662452,17.2667423 17.0169279,16.8341237 C16.2676105,16.4015052 16.0108755,15.4433568 16.443494,14.6940395 Z M10.04523,18.388079 C10.9104671,18.388079 11.6118803,19.0894922 11.6118803,19.9547294 C11.6118803,20.8199665 10.9104671,21.5213797 10.04523,21.5213797 C9.17999284,21.5213797 8.47857957,20.8199665 8.47857957,19.9547294 C8.47857957,19.0894922 9.17999284,18.388079 10.04523,18.388079 Z M3.64696589,14.6940395 C4.07958445,15.4433568 3.82284937,16.4015052 3.07353205,16.8341237 C2.32421472,17.2667423 1.36606638,17.0100072 0.933447817,16.2606899 C0.500829257,15.5113725 0.757564333,14.5532242 1.50688166,14.1206056 C2.25619898,13.6879871 3.21434733,13.9447222 3.64696589,14.6940395 Z M3.64696589,7.30596052 C3.21434733,8.05527784 2.25619898,8.31201292 1.50688166,7.87939436 C0.757564333,7.4467758 0.500829257,6.48862745 0.933447817,5.73931013 C1.36606638,4.9899928 2.32421472,4.73325773 3.07353205,5.16587629 C3.82284937,5.59849485 4.07958445,6.55664319 3.64696589,7.30596052 Z" id="Oval-5" stroke="#54B454" stroke-width="1.5" fill="#54B454" stroke-linecap="round" stroke-linejoin="round"></path><path d="M10.04523,7.30596052 C9.6126114,7.30596052 9.26190476,6.95525388 9.26190476,6.52263532 C9.26190476,6.09001676 9.6126114,5.73931013 10.04523,5.73931013 C10.4778485,5.73931013 10.8285552,6.09001676 10.8285552,6.52263532 C10.8285552,6.95525388 10.4778485,7.30596052 10.04523,7.30596052 Z M13.244362,9.15298026 C13.0280527,8.7783216 13.1564202,8.29924742 13.5310789,8.08293814 C13.9057376,7.86662886 14.3848117,7.9949964 14.601121,8.36965506 C14.8174303,8.74431373 14.6890628,9.2233879 14.3144041,9.43969718 C13.9397454,9.65600646 13.4606713,9.52763892 13.244362,9.15298026 Z M13.244362,12.8470197 C13.4606713,12.4723611 13.9397454,12.3439935 14.3144041,12.5603028 C14.6890628,12.7766121 14.8174303,13.2556863 14.601121,13.6303449 C14.3848117,14.0050036 13.9057376,14.1333711 13.5310789,13.9170619 C13.1564202,13.7007526 13.0280527,13.2216784 13.244362,12.8470197 Z M10.04523,14.6940395 C10.4778485,14.6940395 10.8285552,15.0447461 10.8285552,15.4773647 C10.8285552,15.9099832 10.4778485,16.2606899 10.04523,16.2606899 C9.6126114,16.2606899 9.26190476,15.9099832 9.26190476,15.4773647 C9.26190476,15.0447461 9.6126114,14.6940395 10.04523,14.6940395 Z M6.84609792,12.8470197 C7.0624072,13.2216784 6.93403967,13.7007526 6.559381,13.9170619 C6.18472234,14.1333711 5.70564817,14.0050036 5.48933889,13.6303449 C5.27302961,13.2556863 5.40139715,12.7766121 5.77605581,12.5603028 C6.15071447,12.3439935 6.62978864,12.4723611 6.84609792,12.8470197 Z M6.84609792,9.15298026 C6.62978864,9.52763892 6.15071447,9.65600646 5.77605581,9.43969718 C5.40139715,9.2233879 5.27302961,8.74431373 5.48933889,8.36965506 C5.70564817,7.9949964 6.18472234,7.86662886 6.559381,8.08293814 C6.93403967,8.29924742 7.0624072,8.7783216 6.84609792,9.15298026 Z" id="Oval-5-Copy" fill="#54B454"></path></g></g></g></g></g></g></g></g></svg> 