<?xml version="1.0" encoding="UTF-8"?> <svg xmlns="http://www.w3.org/2000/svg" xmlns:xlink="http://www.w3.org/1999/xlink" width="100px" height="100px" viewBox="0 0 100 100"><!-- Generator: Sketch 52.5 (67469) - http://www.bohemiancoding.com/sketch --><title>ic-growth</title><desc>Created with Sketch.</desc><defs><linearGradient x1="57.6964029%" y1="-28.1753217%" x2="43.1413235%" y2="92.9334256%" id="linearGradient-1"><stop stop-color="#7ECC79" offset="0%"></stop><stop stop-color="#33BAAA" offset="100%"></stop></linearGradient><circle id="path-2" cx="50" cy="50" r="50"></circle></defs><g id="Pages" stroke="none" stroke-width="1" fill="none" fill-rule="evenodd"><g id="Home---Approach-v3-" transform="translate(-750.000000, -5218.000000)"><g id="Growth" transform="translate(222.000000, 5218.000000)"><g id="ic-growth" transform="translate(528.000000, 0.000000)"><mask id="mask-3" fill="white"><use xlink:href="#path-2"></use></mask><use id="Mask" fill="url(#linearGradient-1)" xlink:href="#path-2"></use><polyline id="Path-5" stroke="#FFFFFF" stroke-width="2" mask="url(#mask-3)" points="2.78896837 24.594241 76.3857641 24.594241 76.3857641 100.616625"></polyline><g id="Group-3" mask="url(#mask-3)"><g transform="translate(-4.285714, 32.142857)"><polygon id="Rectangle-7" fill="#0D6574" points="0.613559467 15.7142857 57.2283051 15.7142857 57.2283051 70.1194003 0.613559467 70.1194003"></polygon><rect id="Rectangle-10" fill="#33BAAA" x="33.102247" y="41.4285714" width="16.897753" height="7.85714286" rx="3.92857143"></rect><path d="M18.4860819,55 L46.0714286,55 C48.2411187,55 50,56.7588813 50,58.9285714 L50,58.9285714 C50,61.0982615 48.2411187,62.8571429 46.0714286,62.8571429 L18.4860819,62.8571429 C16.3163919,62.8571429 14.5575105,61.0982615 14.5575105,58.9285714 L14.5575105,58.9285714 C14.5575105,56.7588813 16.3163919,55 18.4860819,55 Z" id="Rectangle-10-Copy" fill="#33BAAA"></path><polygon id="Rectangle-8-Copy-2" fill="#FFFFFF" transform="translate(53.589557, 19.303842) rotate(-315.000000) translate(-53.589557, -19.303842) " points="50.7324138 -1.09816029 56.4466995 -1.09816029 56.4466995 39.7058451 50.7324138 39.7058451"></polygon><path d="M57.2283051,19.7057041 L57.2283051,15.7142857 L53.1385032,15.7142857 L65.995646,2.85714286 L70.0362562,6.89775304 L57.2283051,19.7057041 Z" id="Combined-Shape" fill="#0D6574"></path><rect id="Rectangle-8" fill="#0D6574" x="67.1428571" y="0.714285714" width="5.71428571" height="19.2857143"></rect><polygon id="Rectangle-8-Copy-4" fill="#FFFFFF" transform="translate(18.539194, 40.782777) rotate(-315.000000) translate(-18.539194, -40.782777) " points="15.6820507 18.289245 21.3963364 18.289245 21.3963364 63.2763089 15.6820507 63.2763089"></polygon><polygon id="Rectangle-8-Copy-3" fill="#FFFFFF" transform="translate(35.975099, 30.225416) rotate(-405.000000) translate(-35.975099, -30.225416) " points="33.0929265 22.6372177 38.8072122 22.6372177 38.8572708 37.8136147 33.1429851 37.8136147"></polygon><rect id="Rectangle-8-Copy" fill="#0D6574" transform="translate(63.214286, 2.857143) rotate(-270.000000) translate(-63.214286, -2.857143) " x="60.3571429" y="-6.78571429" width="5.71428571" height="19.2857143"></rect></g></g></g></g></g></g></svg> 