<?xml version="1.0" encoding="UTF-8"?> <svg xmlns="http://www.w3.org/2000/svg" xmlns:xlink="http://www.w3.org/1999/xlink" width="103px" height="85px" viewBox="0 0 103 85"><!-- Generator: Sketch 52.6 (67491) - http://www.bohemiancoding.com/sketch --><title>ic-Implementation-services</title><desc>Created with Sketch.</desc><defs><ellipse id="path-1" cx="19.2897196" cy="60.6666667" rx="2.41121495" ry="2.39473684"></ellipse><filter x="-186.6%" y="-125.3%" width="473.3%" height="475.8%" id="filter-2"><feOffset dx="0" dy="3" in="SourceAlpha" result="shadowOffsetOuter1"></feOffset><feGaussianBlur stdDeviation="2.5" in="shadowOffsetOuter1" result="shadowBlurOuter1"></feGaussianBlur><feColorMatrix values="0 0 0 0 0.0431372549 0 0 0 0 0.274509804 0 0 0 0 0.317647059 0 0 0 0.431046196 0" type="matrix" in="shadowBlurOuter1"></feColorMatrix></filter><radialGradient cx="10.1475267%" cy="12.3100204%" fx="10.1475267%" fy="12.3100204%" r="113.300535%" gradientTransform="translate(0.101475,0.123100),scale(0.795871,1.000000),rotate(38.981839),translate(-0.101475,-0.123100)" id="radialGradient-3"><stop stop-color="#7ECC79" offset="0%"></stop><stop stop-color="#28AD9D" offset="100%"></stop></radialGradient><path d="M8.16606025,58.8621239 C7.9506397,58.2440886 7.83333333,57.5783719 7.83333333,56.8846154 C7.83333333,53.634632 10.407696,51 13.5833333,51 C16.0919135,51 18.22529,52.6440467 19.0108551,54.9367623 C19.1171746,54.9276993 19.2247265,54.9230769 19.3333333,54.9230769 C21.4504249,54.9230769 23.1666667,56.6794983 23.1666667,58.8461538 C23.1666667,58.8648709 23.1665386,58.8835572 23.1662833,58.9022122 C25.3388685,59.2457629 27,61.1269693 27,63.3961538 L27,63.45 C27,65.9628956 24.9628956,68 22.45,68 L8.55,68 C6.03710439,68 4,65.9628956 4,63.45 L4,63.3961538 C4,61.012569 5.83284454,59.0570679 8.16606025,58.8621239 Z" id="path-4"></path><filter x="-54.3%" y="-50.0%" width="208.7%" height="247.1%" id="filter-5"><feOffset dx="0" dy="4" in="SourceAlpha" result="shadowOffsetOuter1"></feOffset><feGaussianBlur stdDeviation="3.5" in="shadowOffsetOuter1" result="shadowBlurOuter1"></feGaussianBlur><feColorMatrix values="0 0 0 0 0.0431372549 0 0 0 0 0.274509804 0 0 0 0 0.317647059 0 0 0 0.431046196 0" type="matrix" in="shadowBlurOuter1"></feColorMatrix></filter></defs><g id="Home" stroke="none" stroke-width="1" fill="none" fill-rule="evenodd"><g id="Services" transform="translate(-1181.000000, -1431.000000)"><g id="Group-5" transform="translate(1052.000000, 1374.000000)"><g id="ic-Implementation-services" transform="translate(108.000000, 27.000000)"><rect id="Rectangle" fill-rule="nonzero" x="0" y="0" width="144" height="144"></rect><g id="Group-103" transform="translate(21.000000, 30.000000)"><g id="Group-98" transform="translate(0.000000, 14.176261)"><rect id="Rectangle-Copy-55" fill="#0D505D" x="0" y="0" width="39.0033891" height="68.0254934" rx="5.88"></rect><g id="Oval-Copy-83"><use fill="black" fill-opacity="1" filter="url(#filter-2)" xlink:href="#path-1"></use><use fill="#FFFFFF" fill-rule="evenodd" xlink:href="#path-1"></use></g></g><g id="Group-13" transform="translate(23.000000, 0.000000)"><rect id="Rectangle" fill="url(#radialGradient-3)" x="0" y="0" width="79.1868132" height="63.0224848" rx="3"></rect><g id="Combined-Shape"><use fill="black" fill-opacity="1" filter="url(#filter-5)" xlink:href="#path-4"></use><use fill="#FFFFFF" fill-rule="evenodd" xlink:href="#path-4"></use></g><g id="Group-2" transform="translate(15.000000, 16.000000)" fill-rule="nonzero" stroke-linecap="round" stroke-width="1.3"><path d="M5,5.65060241 L15.9918874,5.65060241" id="Path-4" stroke="#0D505D"></path><path d="M24,5.65060241 L34.9918874,5.65060241" id="Path-4-Copy-3" stroke="#FFFFFF"></path><path d="M5,16.6506024 L15.967791,16.6506024" id="Path-4" stroke="#FFFFFF"></path><path d="M0,22.6506024 L6.62694274,22.6506024" id="Path-4-Copy-5" stroke="#FFFFFF"></path><path d="M13,22.6506024 L31.0282008,22.6506024" id="Path-4-Copy-6" stroke="#FFFFFF"></path><path d="M35,22.6506024 L39.967791,22.6506024" id="Path-4-Copy-7" stroke="#0D505D"></path><path d="M25,16.6506024 L39.967791,16.6506024" id="Path-4-Copy-4" stroke="#0D505D"></path><path d="M1.02409639,10.9759036 L6.23050405,10.9759036" id="Path-4" stroke="#FFFFFF"></path><path d="M11.4337349,10.9759036 L34.5307558,10.9759036" id="Path-4" stroke="#FFFFFF"></path><path d="M0,0.65060241 L3.48078643,0.65060241" id="Path-4" stroke="#0D505D"></path><path d="M10,0.65060241 L13.4807864,0.65060241" id="Path-4-Copy" stroke="#0D505D"></path><path d="M20,0.65060241 L48.5973092,0.65060241" id="Path-4-Copy-2" stroke="#FFFFFF"></path></g></g></g></g></g></g></g></svg> 