<?xml version="1.0" encoding="UTF-8"?> <svg xmlns="http://www.w3.org/2000/svg" xmlns:xlink="http://www.w3.org/1999/xlink" width="23px" height="22px" viewBox="0 0 23 22"><!-- Generator: Sketch 52.5 (67469) - http://www.bohemiancoding.com/sketch --><title>ic-meagaphone</title><desc>Created with Sketch.</desc><g id="Pages" stroke="none" stroke-width="1" fill="none" fill-rule="evenodd"><g id="Services" transform="translate(-892.000000, -2605.000000)"><g id="Acquisition" transform="translate(0.000000, 1918.000000)"><g id="Content" transform="translate(890.000000, 206.000000)"><g id="Features" transform="translate(0.000000, 311.000000)"><g id="Feature-2" transform="translate(1.000000, 168.000000)"><g id="ic-meagaphone"><polygon id="Rectangle-38" points="0 0 26 0 26 26 0 26"></polygon><g id="Group-83" transform="translate(2.000000, 3.000000)" stroke="#54B454" stroke-linecap="round" stroke-linejoin="round" stroke-width="1.5"><polygon id="Path-166" fill="#54B454" points="8.94976497 15.8104012 9.07166529 18.8192195 7.58582475 19.3600212 6.75827303 15.8104012"></polygon><polygon id="Combined-Shape" points="15.4222362 0.545134126 20.2717983 13.8691966 5.11406145 13.9243929 4.12504899 15.4811232 2.39827858 15.9286817 0.40651422 10.456354 2.01698212 9.68925709 3.77525657 10.2460567"></polygon><path d="M19.1330595,4.2455826 L20.7074783,8.57126259" id="Combined-Shape-Copy-6"></path><polygon id="Combined-Shape-Copy-5" fill="#54B454" points="5.11406145 13.9243929 4.12504899 15.4811232 2.39827858 15.9286817 0.40651422 10.456354 2.01698212 9.68925709 3.77525657 10.2460567"></polygon></g></g></g></g></g></g></g></g></svg> 