<?xml version="1.0" encoding="UTF-8"?> <svg xmlns="http://www.w3.org/2000/svg" xmlns:xlink="http://www.w3.org/1999/xlink" width="23px" height="21px" viewBox="0 0 23 21"><!-- Generator: Sketch 52.5 (67469) - http://www.bohemiancoding.com/sketch --><title>ic-marketing-support</title><desc>Created with Sketch.</desc><g id="Pages" stroke="none" stroke-width="1" fill="none" fill-rule="evenodd"><g id="Services" transform="translate(-200.000000, -5289.000000)"><g id="Support" transform="translate(0.000000, 4797.000000)"><g id="Content-Copy" transform="translate(199.000000, 171.000000)"><g id="Features" transform="translate(0.000000, 319.000000)"><g id="Feature-1"><g id="ic-marketing-support"><g id="Group-102"><polygon id="Rectangle-38" points="0 0 26 0 26 26 0 26"></polygon><g id="Group-108" transform="translate(2.500000, 3.000000)"><path d="M10,16.8536266 C10.519672,16.8536266 12.0190003,16.9180255 12.5172967,16.8536266 L12.5172967,19.3216605 C17.7488004,16.5082619 20.2430349,12.8766462 20,8.4268133 C19.7461238,3.77848193 15.5228475,0 10,0 C4.4771525,0 0,3.77281283 0,8.4268133 C0,13.0808138 4.4771525,16.8536266 10,16.8536266 Z" id="Combined-Shape" stroke="#54B454" stroke-width="1.5" stroke-linecap="round" stroke-linejoin="round"></path><path d="M7,7 C6.44771525,7 6,6.55228475 6,6 C6,5.44771525 6.44771525,5 7,5 C7.55228475,5 8,5.44771525 8,6 C8,6.55228475 7.55228475,7 7,7 Z M13,7 C12.4477153,7 12,6.55228475 12,6 C12,5.44771525 12.4477153,5 13,5 C13.5522847,5 14,5.44771525 14,6 C14,6.55228475 13.5522847,7 13,7 Z M10,13.3436213 C7.55765508,13.3436213 5.57774332,11.6505068 5.57774332,10.4293344 C5.57774332,9.2081619 7.55765508,10.2387742 10,10.2387742 C12.4423449,10.2387742 14.4222567,9.2081619 14.4222567,10.4293344 C14.4222567,11.6505068 12.4423449,13.3436213 10,13.3436213 Z" id="Combined-Shape" fill="#54B454"></path></g></g></g></g></g></g></g></g></g></svg> 