<?xml version="1.0" encoding="UTF-8"?> <svg xmlns="http://www.w3.org/2000/svg" xmlns:xlink="http://www.w3.org/1999/xlink" width="24px" height="24px" viewBox="0 0 24 24"><!-- Generator: Sketch 52.5 (67469) - http://www.bohemiancoding.com/sketch --><title>ic-roadmapping</title><desc>Created with Sketch.</desc><g id="Pages" stroke="none" stroke-width="1" fill="none" fill-rule="evenodd"><g id="Services" transform="translate(-947.000000, -4474.000000)"><g id="Retention" transform="translate(0.000000, 3838.000000)"><g id="Content-Copy" transform="translate(946.000000, 222.000000)"><g id="Features" transform="translate(0.000000, 244.000000)"><g id="Feature-2-Copy" transform="translate(0.000000, 169.000000)"><g id="ic-roadmapping"><g id="Group-102"><polygon id="Rectangle-38" points="0 0 26 0 26 26 0 26"></polygon><g id="Group-83" transform="translate(2.000000, 2.000000)" stroke="#54B454" stroke-linecap="round" stroke-linejoin="round" stroke-width="1.5"><g id="Group-105"><path d="M10.0049185,0 L11.9950815,0 L12.5714286,3.14285714 L9.42857143,3.14285714 L10.0049185,0 Z M18.9665583,3.35912625 L20.2190084,4.9057734 L18.1392567,7.33154328 L16.1613926,4.88908454 L18.9665583,3.35912625 Z M21.9471751,12.4819714 L21.4994858,14.4211267 L18.30753,14.275713 L19.014519,11.213407 L21.9471751,12.4819714 Z M16.6741461,20.4710249 L14.8853994,21.343455 L12.9896442,18.7713276 L15.8144255,17.3935897 L16.6741461,20.4710249 Z M7.11460057,21.343455 L5.32585389,20.4710249 L6.18557447,17.3935897 L9.01035576,18.7713276 L7.11460057,21.343455 Z M0.500514219,14.4211267 L0.052824948,12.4819714 L2.98548099,11.213407 L3.69247002,14.275713 L0.500514219,14.4211267 Z M1.78099157,4.9057734 L3.03344174,3.35912625 L5.83860743,4.88908454 L3.86074335,7.33154328 L1.78099157,4.9057734 Z" id="Rectangle-70" fill="#54B454"></path><circle id="Oval-5" fill="#FFFFFF" cx="11.0678449" cy="11.067906" r="8.76785714"></circle></g><g id="Group-106" transform="translate(6.299988, 6.500000)"><path d="M4.71544436,8 L4.11663276,6.24579599" id="Path-166" fill="#54B454"></path><polygon id="Combined-Shape" points="6.80289781 0 9 6.06286923 2.1327621 6.08798531 1.68468836 6.79634677 0.902372157 7 0 4.5099181 0.72962516 4.16086476 1.52621432 4.41422618"></polygon><polygon id="Combined-Shape-Copy-5" fill="#54B454" points="2 6.03631077 1.57981836 6.78480782 0.846200481 7 0 4.36883063 0.684206795 4 1.43120916 4.26771683"></polygon></g></g></g></g></g></g></g></g></g></g></svg> 