<?xml version="1.0" encoding="UTF-8"?> <svg xmlns="http://www.w3.org/2000/svg" xmlns:xlink="http://www.w3.org/1999/xlink" width="96px" height="97px" viewBox="0 0 96 97"><!-- Generator: Sketch 52.6 (67491) - http://www.bohemiancoding.com/sketch --><title>ic-Strategy-services</title><desc>Created with Sketch.</desc><defs><radialGradient cx="10.1475267%" cy="12.3100204%" fx="10.1475267%" fy="12.3100204%" r="100.033592%" gradientTransform="translate(0.101475,0.123100),scale(1.000000,0.998691),rotate(45.515425),translate(-0.101475,-0.123100)" id="radialGradient-1"><stop stop-color="#7ECC79" offset="0%"></stop><stop stop-color="#28AD9D" offset="100%"></stop></radialGradient><radialGradient cx="10.1475267%" cy="12.3100204%" fx="10.1475267%" fy="12.3100204%" r="100.042532%" gradientTransform="translate(0.101475,0.123100),scale(1.000000,0.998515),rotate(45.520454),translate(-0.101475,-0.123100)" id="radialGradient-2"><stop stop-color="#7ECC79" offset="0%"></stop><stop stop-color="#28AD9D" offset="100%"></stop></radialGradient><ellipse id="path-3" cx="43.1641047" cy="52.5744797" rx="6.99958455" ry="7.00876232"></ellipse><filter x="-407.2%" y="-406.6%" width="914.3%" height="913.3%" id="filter-4"><feOffset dx="0" dy="0" in="SourceAlpha" result="shadowOffsetOuter1"></feOffset><feGaussianBlur stdDeviation="19" in="shadowOffsetOuter1" result="shadowBlurOuter1"></feGaussianBlur><feColorMatrix values="0 0 0 0 1 0 0 0 0 1 0 0 0 0 1 0 0 0 0.725996377 0" type="matrix" in="shadowBlurOuter1"></feColorMatrix></filter></defs><g id="Home" stroke="none" stroke-width="1" fill="none" fill-rule="evenodd"><g id="Services" transform="translate(-325.000000, -1420.000000)"><g id="Group-11" transform="translate(189.000000, 1374.000000)"><g id="ic-Strategy-services" transform="translate(108.000000, 27.000000)"><rect id="Rectangle" fill-rule="nonzero" x="0" y="0" width="144" height="144"></rect><g id="Group-3" transform="translate(28.000000, 19.000000)"><g id="Group" transform="translate(0.903614, 0.602410)"><g id="Group-31" transform="translate(67.000000, 0.000000)" fill="#0D505D"><polygon id="Rectangle-30" transform="translate(10.849922, 9.862837) rotate(-315.000000) translate(-10.849922, -9.862837) " points="7.34099729 -0.57639623 14.3481392 3.95899895 14.3588466 20.3020703 7.3517047 15.7666751"></polygon><polygon id="Rectangle-30-Copy" transform="translate(17.849506, 16.871599) scale(-1, 1) rotate(-225.000000) translate(-17.849506, -16.871599) " points="14.3542577 6.43695498 21.3554627 10.9631724 21.3447553 27.3062437 14.3435503 22.7800263"></polygon></g><ellipse id="Oval-19" fill="url(#radialGradient-1)" cx="43.1641047" cy="52.5744797" rx="43.1641047" ry="43.220701"></ellipse><ellipse id="Oval-19-Copy" fill="#FFFFFF" cx="43.1641047" cy="52.5744797" rx="31.9979227" ry="32.0438116"></ellipse><ellipse id="Oval-19-Copy" fill="url(#radialGradient-2)" cx="43.2404348" cy="52.4330269" rx="29.8313253" ry="29.8756846"></ellipse><ellipse id="Oval-19-Copy-2" fill="#FFFFFF" cx="43.1000216" cy="52.421049" rx="16.9152472" ry="16.9466046"></ellipse><ellipse id="Oval-19-Copy-3" fill="#0D505D" cx="43.1641047" cy="52.5744797" rx="14.3323639" ry="14.3537788"></ellipse><path d="M43.1641047,9.35377875 C67.0029815,9.35377875 86.3282094,28.7043457 86.3282094,52.5744797 C86.3282094,76.4446138 67.0029815,95.7951807 43.1641047,95.7951807 L43.1641047,9.35377875 Z" id="Combined-Shape" fill="#0D6574" fill-rule="nonzero" opacity="0.400000006"></path><g id="Oval-19-Copy-4"><use fill="black" fill-opacity="1" filter="url(#filter-4)" xlink:href="#path-3"></use><use fill="#FFFFFF" fill-rule="evenodd" xlink:href="#path-3"></use></g><path d="M43.049915,51.5895549 L85.4946679,9.08914894" id="Path-52" stroke="#FFFFFF" stroke-width="5.84999985" stroke-linecap="round" stroke-linejoin="round"></path></g></g></g></g></g></g></svg> 