<?xml version="1.0" encoding="UTF-8"?> <svg xmlns="http://www.w3.org/2000/svg" xmlns:xlink="http://www.w3.org/1999/xlink" width="178px" height="176px" viewBox="0 0 178 176"><!-- Generator: Sketch 52.5 (67469) - http://www.bohemiancoding.com/sketch --><title>ico-launch</title><desc>Created with Sketch.</desc><defs><linearGradient x1="100%" y1="0%" x2="0%" y2="100%" id="linearGradient-1"><stop stop-color="#8CD987" offset="0%"></stop><stop stop-color="#1FA595" offset="100%"></stop></linearGradient><path d="M4,0 L116,0 C118.209139,-4.05812251e-16 120,1.790861 120,4 L120,116 C120,118.209139 118.209139,120 116,120 L4,120 C1.790861,120 2.705415e-16,118.209139 0,116 L0,4 C-2.705415e-16,1.790861 1.790861,4.05812251e-16 4,0 Z" id="path-2"></path><filter x="-35.8%" y="-34.2%" width="171.7%" height="171.7%" id="filter-4"><feOffset dx="0" dy="2" in="SourceAlpha" result="shadowOffsetOuter1"></feOffset><feGaussianBlur stdDeviation="14" in="shadowOffsetOuter1" result="shadowBlurOuter1"></feGaussianBlur><feColorMatrix values="0 0 0 0 0.0509803922 0 0 0 0 0.396078431 0 0 0 0 0.454901961 0 0 0 0.604194973 0" type="matrix" in="shadowBlurOuter1"></feColorMatrix></filter><filter x="-104.1%" y="-82.8%" width="308.1%" height="266.7%" id="filter-5"><feOffset dx="0" dy="2" in="SourceAlpha" result="shadowOffsetOuter1"></feOffset><feGaussianBlur stdDeviation="19" in="shadowOffsetOuter1" result="shadowBlurOuter1"></feGaussianBlur><feColorMatrix values="0 0 0 0 0.066323686 0 0 0 0 0.380221335 0 0 0 0 0.433726616 0 0 0 0.555112092 0" type="matrix" in="shadowBlurOuter1" result="shadowMatrixOuter1"></feColorMatrix><feMerge><feMergeNode in="shadowMatrixOuter1"></feMergeNode><feMergeNode in="SourceGraphic"></feMergeNode></feMerge></filter></defs><g id="Pages" stroke="none" stroke-width="1" fill="none" fill-rule="evenodd"><g id="Blockchain" transform="translate(-1209.000000, -2483.000000)"><g id="Group-74" transform="translate(134.000000, 2111.000000)"><g id="ico-launch" transform="translate(1103.000000, 383.000000)"><path d="M34,0 L146,0 C148.209139,-4.05812251e-16 150,1.790861 150,4 L150,116 C150,118.209139 148.209139,120 146,120 L34,120 C31.790861,120 30,118.209139 30,116 L30,4 C30,1.790861 31.790861,4.05812251e-16 34,0 Z" id="Rectangle-4-Copy-4" fill="#0D6574"></path><path d="M19,8 L131,8 C133.209139,8 135,9.790861 135,12 L135,124 C135,126.209139 133.209139,128 131,128 L19,128 C16.790861,128 15,126.209139 15,124 L15,12 C15,9.790861 16.790861,8 19,8 Z" id="Rectangle-4-Copy-12" fill="url(#linearGradient-1)" opacity="0.45"></path><g id="Group-48" transform="translate(0.000000, 15.000000)"><mask id="mask-3" fill="white"><use xlink:href="#path-2"></use></mask><g id="Rectangle-4-Copy-8"><use fill="black" fill-opacity="1" filter="url(#filter-4)" xlink:href="#path-2"></use><use fill="url(#linearGradient-1)" fill-rule="evenodd" xlink:href="#path-2"></use></g><g id="Group-52" filter="url(#filter-5)" mask="url(#mask-3)"><g transform="translate(22.000000, 14.000000)"><path d="M10.4400162,71.0792881 C12.7166145,67.9981181 16.3749645,66 20.5,66 C22.4735619,66 24.3402994,66.4573696 26,67.2718963 L26,52 L50,52 L50,66.4966155 C51.1105964,66.1733317 52.2850563,66 53.5,66 C60.4035594,66 66,71.5964406 66,78.5 C66,85.4035594 60.4035594,91 53.5,91 C48.9772009,91 45.0154284,88.5979592 42.8208049,85 L31.1791951,85 C28.9845716,88.5979592 25.0227991,91 20.5,91 C13.5964406,91 8,85.4035594 8,78.5 C8,78.4666662 8.00013048,78.4333629 8.00039095,78.4000905 C7.25022745,78.7836462 6.4003798,79 5.5,79 C2.46243388,79 0,76.5375661 0,73.5 C0,70.4624339 2.46243388,68 5.5,68 C7.6689167,68 9.54460773,69.2554483 10.4400162,71.0792881 Z M71,71 C69.3431458,71 68,69.6568542 68,68 C68,66.3431458 69.3431458,65 71,65 C72.6568542,65 74,66.3431458 74,68 C74,69.6568542 72.6568542,71 71,71 Z" id="Combined-Shape" stroke="none" fill="#7BCCB1" fill-rule="evenodd"></path><g id="Group-50" stroke="none" stroke-width="1" fill="none" fill-rule="evenodd" transform="translate(26.000000, 52.000000)"><path d="M19,8.5 L19,32.5" id="Line-3-Copy-2" stroke="#44AC7C" stroke-width="2" stroke-linecap="round" stroke-linejoin="round"></path><rect id="Rectangle-38-Copy" fill-opacity="0.1" fill="#000000" x="0" y="0" width="24" height="3"></rect></g><path d="M32,65.5 L32,89.5" id="Line-3" stroke="#44AC7C" stroke-width="2" fill="none" stroke-linecap="round" stroke-linejoin="round"></path><path d="M38,68.5 L38,92.5" id="Line-3-Copy" stroke="#44AC7C" stroke-width="2" fill="none" stroke-linecap="round" stroke-linejoin="round"></path><g id="Group-49" stroke="none" stroke-width="1" fill="none" fill-rule="evenodd" transform="translate(12.000000, 0.000000)"><path d="M19.8606376,5.33042989 L26,0.0682684044 L32.1393624,5.33042989 C37.6363387,10.0419904 40.8,16.9203611 40.8,24.1602196 L40.8,51.8115942 L11.2,51.8115942 L11.2,24.1602196 C11.2,16.9203611 14.3636613,10.0419904 19.8606376,5.33042989 Z" id="Rectangle-36" fill="#FFFFFF"></path><ellipse id="Oval-23" fill="#369C85" cx="25.6" cy="21.5217391" rx="6.4" ry="6.37681159"></ellipse><path d="M14.4,38.2608696 L14.4,55 L0,55 L3.55271368e-15,52.6608696 C2.57876428e-15,44.7079692 6.4470996,38.2608696 14.4,38.2608696 Z" id="Rectangle-37" fill="#99E6B6"></path><path d="M52,38.2608696 L52,55 L37.6,55 L37.6,52.6608696 C37.6,44.7079692 44.0470996,38.2608696 52,38.2608696 Z" id="Rectangle-37-Copy" fill="#99E6B6" transform="translate(44.800000, 46.630435) scale(-1, 1) translate(-44.800000, -46.630435) "></path></g></g></g><g id="Group-51" mask="url(#mask-3)"><g transform="translate(12.000000, 88.000000)"><rect id="Rectangle-31" fill="#328478" x="9" y="2" width="79" height="46" rx="4"></rect><rect id="Rectangle-31-Copy-2" fill="#297D70" x="9" y="2" width="79" height="25"></rect><path d="M8.18361859,0 L87.2206949,-6.66133815e-16 C88.1007649,5.42547333e-15 88.8774146,0.575288478 89.133885,1.41715909 L94.6174678,19.4171591 C94.939362,20.4737848 94.3437443,21.591296 93.2871186,21.9131901 C93.0981903,21.9707459 92.9017786,22 92.7042777,22 L2.7000358,22 C1.5954663,22 0.700035795,21.1045695 0.700035795,20 C0.700035795,19.8024991 0.729289871,19.6060874 0.786845667,19.4171591 L6.27042846,1.41715909 C6.52689886,0.575288478 7.3035486,6.05755444e-16 8.18361859,4.4408921e-16 Z" id="Rectangle-35" fill="#369C85"></path></g></g></g></g></g></g></g></svg> 