<?xml version="1.0" encoding="UTF-8"?> <svg xmlns="http://www.w3.org/2000/svg" xmlns:xlink="http://www.w3.org/1999/xlink" width="32px" height="29px" viewBox="0 0 32 29"><!-- Generator: Sketch 52.5 (67469) - http://www.bohemiancoding.com/sketch --><title>ico-chain</title><desc>Created with Sketch.</desc><defs><linearGradient x1="100%" y1="0%" x2="0%" y2="100%" id="linearGradient-1"><stop stop-color="#8CD987" offset="0%"></stop><stop stop-color="#1FA595" offset="100%"></stop></linearGradient></defs><g id="Pages" stroke="none" stroke-width="1" fill="none" fill-rule="evenodd"><g id="Blockchain" transform="translate(-629.000000, -3464.000000)"><g id="Group-2" transform="translate(192.000000, 3043.000000)"><g id="content-copy" transform="translate(8.000000, 414.000000)"><g id="ico-chain" transform="translate(425.000000, 2.000000)"><polygon id="Rectangle-38" points="0 0 40 0 40 40 0 40"></polygon><g id="Group-67" transform="translate(4.000000, 5.000000)"><g id="Group-69"><rect id="Rectangle-38-Copy-2" fill="#0D6574" x="2.74285714" y="0" width="29.2571429" height="29" rx="14.5"></rect><rect id="Rectangle-38-Copy-9" fill="url(#linearGradient-1)" x="0" y="0" width="29.2571429" height="29" rx="14.5"></rect><g id="Group-66" transform="translate(3.250794, 3.222222)" fill="#D9F1EE" fill-rule="nonzero"><path d="M11.784127,4.43055556 C9.53992229,4.43055556 7.72063492,6.23385309 7.72063492,8.45833333 L7.72063492,14.9027778 C7.72063492,17.127258 9.53992229,18.9305556 11.784127,18.9305556 C14.0283317,18.9305556 15.847619,17.127258 15.847619,14.9027778 L15.847619,8.45833333 C15.847619,6.23385309 14.0283317,4.43055556 11.784127,4.43055556 Z M11.784127,2.01388889 C15.3748545,2.01388889 18.2857143,4.89916495 18.2857143,8.45833333 L18.2857143,14.9027778 C18.2857143,18.4619462 15.3748545,21.3472222 11.784127,21.3472222 C8.19339947,21.3472222 5.28253968,18.4619462 5.28253968,14.9027778 L5.28253968,8.45833333 C5.28253968,4.89916495 8.19339947,2.01388889 11.784127,2.01388889 Z" id="Rectangle-41" transform="translate(11.784127, 11.680556) rotate(-315.000000) translate(-11.784127, -11.680556) "></path><path d="M16.2796878,1.70329535 C16.2796878,0.816460146 17.0035479,0.0989620178 17.8947354,0.0989620178 C18.7859228,0.0989620178 19.509783,0.816460146 19.509783,1.70329535 L19.509783,9.54401199 C19.509783,10.4308472 18.7859228,11.1483453 17.8947354,11.1483453 C17.0035479,11.1483453 16.2796878,10.4308472 16.2796878,9.54401199 L16.2796878,1.70329535 Z" id="Path-53" stroke="#6DCA8B" stroke-width="0.792" transform="translate(17.894735, 5.623654) rotate(-315.000000) translate(-17.894735, -5.623654) "></path><path d="M4.21173204,13.6651851 C4.21173204,12.7783499 4.93559222,12.0608517 5.82677966,12.0608517 C6.71796709,12.0608517 7.44182728,12.7783499 7.44182728,13.6651851 L7.44182728,21.5059017 C7.44182728,22.3927369 6.71796709,23.110235 5.82677966,23.110235 C4.93559222,23.110235 4.21173204,22.3927369 4.21173204,21.5059017 L4.21173204,13.6651851 Z" id="Path-53-Copy" stroke="#4ABA90" stroke-width="0.792" transform="translate(5.826780, 17.585543) rotate(-315.000000) translate(-5.826780, -17.585543) "></path></g></g></g></g></g></g></g></g></svg> 