<?xml version="1.0" encoding="UTF-8"?> <svg xmlns="http://www.w3.org/2000/svg" xmlns:xlink="http://www.w3.org/1999/xlink" width="178px" height="176px" viewBox="0 0 178 176"><!-- Generator: Sketch 52.5 (67469) - http://www.bohemiancoding.com/sketch --><title>ico-production</title><desc>Created with Sketch.</desc><defs><linearGradient x1="100%" y1="0%" x2="0%" y2="100%" id="linearGradient-1"><stop stop-color="#8CD987" offset="0%"></stop><stop stop-color="#1FA595" offset="100%"></stop></linearGradient><path d="M4,0 L116,0 C118.209139,-4.05812251e-16 120,1.790861 120,4 L120,116 C120,118.209139 118.209139,120 116,120 L4,120 C1.790861,120 2.705415e-16,118.209139 0,116 L0,4 C-2.705415e-16,1.790861 1.790861,4.05812251e-16 4,0 Z" id="path-2"></path><filter x="-35.8%" y="-34.2%" width="171.7%" height="171.7%" id="filter-4"><feOffset dx="0" dy="2" in="SourceAlpha" result="shadowOffsetOuter1"></feOffset><feGaussianBlur stdDeviation="14" in="shadowOffsetOuter1" result="shadowBlurOuter1"></feGaussianBlur><feColorMatrix values="0 0 0 0 0.0509803922 0 0 0 0 0.396078431 0 0 0 0 0.454901961 0 0 0 0.604194973 0" type="matrix" in="shadowBlurOuter1"></feColorMatrix></filter><linearGradient x1="100%" y1="0%" x2="-19.7297014%" y2="100%" id="linearGradient-5"><stop stop-color="#8CD987" offset="0%"></stop><stop stop-color="#1FA595" offset="100%"></stop></linearGradient></defs><g id="Pages" stroke="none" stroke-width="1" fill="none" fill-rule="evenodd"><g id="Blockchain" transform="translate(-868.000000, -2483.000000)"><g id="Group-74" transform="translate(134.000000, 2111.000000)"><g id="ico-production" transform="translate(762.000000, 383.000000)"><path d="M34,0 L146,0 C148.209139,-4.05812251e-16 150,1.790861 150,4 L150,116 C150,118.209139 148.209139,120 146,120 L34,120 C31.790861,120 30,118.209139 30,116 L30,4 C30,1.790861 31.790861,4.05812251e-16 34,0 Z" id="Rectangle-4-Copy-3" fill="#0D6574"></path><path d="M18,7 L130,7 C132.209139,7 134,8.790861 134,11 L134,123 C134,125.209139 132.209139,127 130,127 L18,127 C15.790861,127 14,125.209139 14,123 L14,11 C14,8.790861 15.790861,7 18,7 Z" id="Rectangle-4-Copy-11" fill="url(#linearGradient-1)" opacity="0.45"></path><g id="Group-46" transform="translate(0.000000, 15.000000)"><mask id="mask-3" fill="white"><use xlink:href="#path-2"></use></mask><g id="Rectangle-4-Copy-7"><use fill="black" fill-opacity="1" filter="url(#filter-4)" xlink:href="#path-2"></use><use fill="url(#linearGradient-1)" fill-rule="evenodd" xlink:href="#path-2"></use></g><g id="Group-45" mask="url(#mask-3)"><g transform="translate(15.000000, -6.000000)"><path d="M106,132 L106,96 L19,96 C9.0588745,96 1,104.058875 1,114 C1,123.941125 9.0588745,132 19,132 L106,132 Z" id="Rectangle-33" stroke="#2E9183" stroke-width="2" fill="#369C85" fill-rule="evenodd"></path><path d="M19.5,124 C13.7010101,124 9,119.29899 9,113.5 C9,107.70101 13.7010101,103 19.5,103 C25.2989899,103 30,107.70101 30,113.5 C30,119.29899 25.2989899,124 19.5,124 Z M61.5,124 C55.7010101,124 51,119.29899 51,113.5 C51,107.70101 55.7010101,103 61.5,103 C67.2989899,103 72,107.70101 72,113.5 C72,119.29899 67.2989899,124 61.5,124 Z M103.5,124 C97.7010101,124 93,119.29899 93,113.5 C93,107.70101 97.7010101,103 103.5,103 C109.29899,103 114,107.70101 114,113.5 C114,119.29899 109.29899,124 103.5,124 Z M145.5,124 C139.70101,124 135,119.29899 135,113.5 C135,107.70101 139.70101,103 145.5,103 C151.29899,103 156,107.70101 156,113.5 C156,119.29899 151.29899,124 145.5,124 Z M187.5,124 C181.70101,124 177,119.29899 177,113.5 C177,107.70101 181.70101,103 187.5,103 C193.29899,103 198,107.70101 198,113.5 C198,119.29899 193.29899,124 187.5,124 Z M229.5,124 C223.70101,124 219,119.29899 219,113.5 C219,107.70101 223.70101,103 229.5,103 C235.29899,103 240,107.70101 240,113.5 C240,119.29899 235.29899,124 229.5,124 Z M271.5,124 C265.70101,124 261,119.29899 261,113.5 C261,107.70101 265.70101,103 271.5,103 C277.29899,103 282,107.70101 282,113.5 C282,119.29899 277.29899,124 271.5,124 Z" id="Combined-Shape" stroke="none" fill="url(#linearGradient-5)" fill-rule="evenodd"></path><path d="M73.2508941,77.0399393 C80.9263417,71.5354258 85.4086569,63.9354695 85.4086569,55.7072326 C85.4086569,39.0345883 67.2329271,26 45.2043284,26 C23.1757297,26 5,39.0345883 5,55.7072326 C5,64.2194369 9.79660672,72.0505152 17.9374547,77.5843376 C19.2961249,78.5079072 21.1370489,78.1414906 22.0492736,76.7659234 C22.9614983,75.3903561 22.5995828,73.5265375 21.2409126,72.6029679 C14.6358336,68.1130998 10.9262978,62.0568047 10.9262978,55.7072326 C10.9262978,42.8798824 26.0974561,32 45.2043284,32 C64.3112008,32 79.4823591,42.8798824 79.4823591,55.7072326 C79.4823591,61.8380704 76.0275354,67.6958712 69.8253399,72.1438292 C68.4899243,73.101534 68.1741924,74.9739388 69.1201331,76.3259623 C70.0660738,77.6779857 71.9154784,77.9976441 73.2508941,77.0399393 Z" id="Oval-20" stroke="none" fill="#FFFFFF" fill-rule="nonzero" opacity="0.400000006"></path><g id="Group-44" stroke="none" stroke-width="1" fill="none" fill-rule="evenodd" transform="translate(24.000000, 0.000000)"><rect id="Rectangle-34" fill="#328478" x="16" y="0" width="10" height="27"></rect><g id="Group-47" transform="translate(0.000000, 22.000000)"><rect id="Rectangle-32" fill="#369C85" x="0" y="0" width="42" height="16" rx="8"></rect><circle id="Oval-21" fill="#33BAAA" cx="8" cy="8" r="3"></circle><circle id="Oval-21-Copy" fill="#33BAAA" cx="34" cy="8" r="3"></circle></g></g><g id="Group-33" stroke="none" stroke-width="1" fill="none" fill-rule="evenodd" transform="translate(23.000000, 50.000000)"><rect id="Rectangle-31" fill="#FFFFFF" x="0" y="0" width="45" height="45" rx="4"></rect><path d="M17,0 L28,0 L28,13.5 C28,16.5375661 25.5375661,19 22.5,19 L22.5,19 C19.4624339,19 17,16.5375661 17,13.5 L17,0 Z" id="Rectangle-31-Copy" fill="#3D9083"></path></g></g></g></g></g></g></g></g></svg> 