<?xml version="1.0" encoding="UTF-8"?> <svg xmlns="http://www.w3.org/2000/svg" xmlns:xlink="http://www.w3.org/1999/xlink" width="29px" height="28px" viewBox="0 0 29 28"><!-- Generator: Sketch 52.5 (67469) - http://www.bohemiancoding.com/sketch --><title>ico-Smart Contracts</title><desc>Created with Sketch.</desc><defs><linearGradient x1="100%" y1="0%" x2="0%" y2="100%" id="linearGradient-1"><stop stop-color="#8CD987" offset="0%"></stop><stop stop-color="#1FA595" offset="100%"></stop></linearGradient></defs><g id="Pages" stroke="none" stroke-width="1" fill="none" fill-rule="evenodd"><g id="Blockchain" transform="translate(-206.000000, -3277.000000)"><g id="Group-2" transform="translate(192.000000, 3043.000000)"><g id="content" transform="translate(8.000000, 226.000000)"><g id="ico-Smart-Contracts" transform="translate(0.000000, 1.000000)"><polygon id="Rectangle-38" points="0 0 40 0 40 40 0 40"></polygon><g id="Group-62" transform="translate(6.000000, 7.000000)"><path d="M6,0 L27,0 C28.1045695,-2.02906125e-16 29,0.8954305 29,2 L29,16 L6,16 L6,0 Z" id="Rectangle-39" fill="#0D6574"></path><path d="M2,0 L25.9636075,0 L25,0 C23.8954305,2.16501571e-15 23,0.8954305 23,2 L23,28 L0,28 L-2.22044605e-16,2 C-3.57315355e-16,0.8954305 0.8954305,2.02906125e-16 2,0 Z" id="Rectangle-39-Copy" fill="url(#linearGradient-1)"></path><g id="Group-61" transform="translate(4.000000, 7.000000)" fill="#D9F1EE" fill-rule="nonzero"><path d="M0.5,1 L13.5,1 C13.7761424,1 14,0.776142375 14,0.5 C14,0.223857625 13.7761424,0 13.5,0 L0.5,0 C0.223857625,0 1.11022302e-16,0.223857625 1.11022302e-16,0.5 C1.11022302e-16,0.776142375 0.223857625,1 0.5,1 Z" id="Line-6"></path><path d="M0.5,7 L13.5,7 C13.7761424,7 14,6.77614237 14,6.5 C14,6.22385763 13.7761424,6 13.5,6 L0.5,6 C0.223857625,6 1.11022302e-16,6.22385763 1.11022302e-16,6.5 C1.11022302e-16,6.77614237 0.223857625,7 0.5,7 Z" id="Line-6-Copy"></path><path d="M0.5,13 L13.5,13 C13.7761424,13 14,12.7761424 14,12.5 C14,12.2238576 13.7761424,12 13.5,12 L0.5,12 C0.223857625,12 1.11022302e-16,12.2238576 1.11022302e-16,12.5 C1.11022302e-16,12.7761424 0.223857625,13 0.5,13 Z" id="Line-6-Copy-2"></path></g></g></g></g></g></g></g></svg> 