<?xml version="1.0" encoding="UTF-8"?> <svg xmlns="http://www.w3.org/2000/svg" xmlns:xlink="http://www.w3.org/1999/xlink" width="30px" height="30px" viewBox="0 0 30 30"><!-- Generator: Sketch 52.5 (67469) - http://www.bohemiancoding.com/sketch --><title>ico-rowdsale</title><desc>Created with Sketch.</desc><defs><linearGradient x1="100%" y1="0%" x2="0%" y2="100%" id="linearGradient-1"><stop stop-color="#8CD987" offset="0%"></stop><stop stop-color="#1FA595" offset="100%"></stop></linearGradient></defs><g id="Pages" stroke="none" stroke-width="1" fill="none" fill-rule="evenodd"><g id="Blockchain" transform="translate(-205.000000, -3651.000000)"><g id="Group-2" transform="translate(192.000000, 3043.000000)"><g id="content-copy-2" transform="translate(8.000000, 602.000000)"><g id="ico-rowdsale" transform="translate(0.000000, 1.000000)"><polygon id="Rectangle-38" points="0 0 40 0 40 40 0 40"></polygon><g id="Group-70" transform="translate(5.000000, 5.000000)" fill-rule="nonzero"><path d="M14,2 C6.2680135,2 0,8.2680135 0,16 C0,23.7319865 6.2680135,30 14,30 C21.7319865,30 28,23.7319865 28,16 L22,16 C22,20.418278 18.418278,24 14,24 C9.581722,24 6,20.418278 6,16 C6,11.581722 9.581722,8 14,8 L14,2 Z" id="Oval-27" fill="url(#linearGradient-1)"></path><path d="M30,14 C30,6.2680135 23.7319865,0 16,0 L16,6 C20.418278,6 24,9.581722 24,14 L30,14 Z" id="Oval-27-Copy" fill="#0D6574"></path></g></g></g></g></g></g></svg> 