<?xml version="1.0" encoding="UTF-8"?> <svg xmlns="http://www.w3.org/2000/svg" xmlns:xlink="http://www.w3.org/1999/xlink" width="31px" height="31px" viewBox="0 0 31 31"><!-- Generator: Sketch 52.5 (67469) - http://www.bohemiancoding.com/sketch --><title>ico-currency</title><desc>Created with Sketch.</desc><defs><linearGradient x1="100%" y1="0%" x2="0%" y2="100%" id="linearGradient-1"><stop stop-color="#7DD377" offset="0%"></stop><stop stop-color="#159385" offset="100%"></stop></linearGradient><path d="M14.5,0.5 L14.5,0.5 C22.2319865,0.5 28.5,6.7680135 28.5,14.5 L28.5,14.5 C28.5,22.2319865 22.2319865,28.5 14.5,28.5 L14.5,28.5 C6.7680135,28.5 0.5,22.2319865 0.5,14.5 L0.5,14.5 C0.5,6.7680135 6.7680135,0.5 14.5,0.5 Z" id="path-2"></path><linearGradient x1="100%" y1="0%" x2="0%" y2="100%" id="linearGradient-4"><stop stop-color="#8CD987" offset="0%"></stop><stop stop-color="#1FA595" offset="100%"></stop></linearGradient><path d="M14.5,3.375 L14.5,3.375 C20.6441678,3.375 25.625,8.35583216 25.625,14.5 L25.625,14.5 C25.625,20.6441678 20.6441678,25.625 14.5,25.625 L14.5,25.625 C8.35583216,25.625 3.375,20.6441678 3.375,14.5 L3.375,14.5 C3.375,8.35583216 8.35583216,3.375 14.5,3.375 Z" id="path-5"></path><filter x="-60.7%" y="-60.7%" width="221.3%" height="221.3%" id="filter-6"><feOffset dx="0" dy="0" in="SourceAlpha" result="shadowOffsetOuter1"></feOffset><feGaussianBlur stdDeviation="4.5" in="shadowOffsetOuter1" result="shadowBlurOuter1"></feGaussianBlur><feColorMatrix values="0 0 0 0 0.0509803922 0 0 0 0 0.396078431 0 0 0 0 0.454901961 0 0 0 1 0" type="matrix" in="shadowBlurOuter1"></feColorMatrix></filter></defs><g id="Pages" stroke="none" stroke-width="1" fill="none" fill-rule="evenodd"><g id="Blockchain" transform="translate(-630.000000, -3651.000000)"><g id="Group-2" transform="translate(192.000000, 3043.000000)"><g id="content-copy-2" transform="translate(8.000000, 602.000000)"><g id="ico-currency" transform="translate(425.000000, 1.000000)"><polygon id="Rectangle-38" points="0 0 40 0 40 40 0 40"></polygon><g id="Group-53" transform="translate(5.000000, 5.000000)"><g id="Group-54"><g id="Group-56"><g id="Group-57" transform="translate(10.000000, 0.000000)" fill="#0D6574" fill-rule="nonzero"><path d="M0,0.5 L1.11022302e-16,30.5 C1.12044235e-16,30.7761424 0.223857625,31 0.5,31 C0.776142375,31 1,30.7761424 1,30.5 L1,0.5 C1,0.223857625 0.776142375,0 0.5,0 C0.223857625,0 -1.02193208e-18,0.223857625 0,0.5 Z" id="Line-4"></path><path d="M5,0.5 L5,30.5 C5,30.7761424 5.22385763,31 5.5,31 C5.77614237,31 6,30.7761424 6,30.5 L6,0.5 C6,0.223857625 5.77614237,0 5.5,0 C5.22385763,0 5,0.223857625 5,0.5 Z" id="Line-4-Copy"></path><path d="M10,0.5 L10,30.5 C10,30.7761424 10.2238576,31 10.5,31 C10.7761424,31 11,30.7761424 11,30.5 L11,0.5 C11,0.223857625 10.7761424,0 10.5,0 C10.2238576,0 10,0.223857625 10,0.5 Z" id="Line-4-Copy-2"></path></g><g id="Group-57-Copy" transform="translate(15.500000, 15.500000) rotate(-270.000000) translate(-15.500000, -15.500000) translate(10.000000, 0.000000)" fill="#0D6574" fill-rule="nonzero"><path d="M0,0.5 L1.11022302e-16,30.5 C1.12044235e-16,30.7761424 0.223857625,31 0.5,31 C0.776142375,31 1,30.7761424 1,30.5 L1,0.5 C1,0.223857625 0.776142375,0 0.5,0 C0.223857625,0 -1.02193208e-18,0.223857625 0,0.5 Z" id="Line-4"></path><path d="M5,0.5 L5,30.5 C5,30.7761424 5.22385763,31 5.5,31 C5.77614237,31 6,30.7761424 6,30.5 L6,0.5 C6,0.223857625 5.77614237,0 5.5,0 C5.22385763,0 5,0.223857625 5,0.5 Z" id="Line-4-Copy"></path><path d="M10,0.5 L10,30.5 C10,30.7761424 10.2238576,31 10.5,31 C10.7761424,31 11,30.7761424 11,30.5 L11,0.5 C11,0.223857625 10.7761424,-7.10542736e-15 10.5,-7.10542736e-15 C10.2238576,-7.10542736e-15 10,0.223857625 10,0.5 Z" id="Line-4-Copy-2"></path></g><g id="Group-64" transform="translate(1.000000, 1.000000)"><mask id="mask-3" fill="white"><use xlink:href="#path-2"></use></mask><use id="Rectangle-38-Copy-6" fill="url(#linearGradient-1)" xlink:href="#path-2"></use><g id="Rectangle-38-Copy-7" mask="url(#mask-3)"><use fill="black" fill-opacity="1" filter="url(#filter-6)" xlink:href="#path-5"></use><use fill="url(#linearGradient-4)" fill-rule="evenodd" xlink:href="#path-5"></use></g><path d="M13.4219695,12.2092388 C13.4219695,11.6430362 13.9583719,11.3599349 14.7480755,11.3599349 C15.5824792,11.3599349 16.8936851,11.7771368 17.9962901,12.4327398 L18.9051942,10.480831 C18.0558903,9.91462844 16.9234852,9.51232663 15.7314799,9.3931261 L15.7314799,7.29221664 L14.0179722,7.29221664 L14.0179722,9.40802616 C12.1256636,9.67622737 10.9038582,10.7937324 10.9038582,12.4327398 C10.9038582,16.1279564 16.4615832,14.9806512 16.4615832,16.9474601 C16.4615832,17.588163 15.8804805,17.9457646 14.9119762,17.9457646 C13.8093712,17.9457646 12.2895644,17.3348618 11.2167596,16.3812575 L10.2780553,18.3033662 C11.2614598,19.1377699 12.6024658,19.7337726 14.0179722,19.8976734 L14.0179722,22.1177834 L15.7314799,22.1177834 L15.7314799,19.8976734 C17.6088883,19.6592723 18.9647944,18.6013675 18.9647944,16.8133595 C18.9796945,13.0585426 13.4219695,14.1313474 13.4219695,12.2092388 Z" id="$" fill="#D9F1EE" mask="url(#mask-3)"></path></g></g></g></g></g></g></g></g></g></svg> 