<?xml version="1.0" encoding="UTF-8"?> <svg xmlns="http://www.w3.org/2000/svg" xmlns:xlink="http://www.w3.org/1999/xlink" width="28px" height="28px" viewBox="0 0 28 28"><!-- Generator: Sketch 52.5 (67469) - http://www.bohemiancoding.com/sketch --><title>ico-blockchain</title><desc>Created with Sketch.</desc><defs><linearGradient x1="100%" y1="0%" x2="0%" y2="100%" id="linearGradient-1"><stop stop-color="#8CD987" offset="0%"></stop><stop stop-color="#1FA595" offset="100%"></stop></linearGradient></defs><g id="Pages" stroke="none" stroke-width="1" fill="none" fill-rule="evenodd"><g id="Blockchain" transform="translate(-1043.000000, -3276.000000)"><g id="Group-2" transform="translate(192.000000, 3043.000000)"><g id="content" transform="translate(8.000000, 226.000000)"><g id="ico-blockchain" transform="translate(837.000000, 1.000000)"><polygon id="Rectangle-38" points="0 0 40 0 40 40 0 40"></polygon><g id="Group-53" transform="translate(6.000000, 6.000000)"><g id="Group-54"><g id="Group-56"><rect id="Rectangle-38-Copy-3" fill="#0D6574" x="3" y="3" width="24.3478261" height="25"></rect><rect id="Rectangle-38-Copy-6" fill="url(#linearGradient-1)" x="0" y="0" width="24.3478261" height="25"></rect><path d="M11.7339949,18.1567817 L10.7873491,18.1567817 L10.7873491,19.2200398 L8.65683831,19.2200398 L8.65683831,18.1567817 L7,18.1567817 L7,16.026271 L7.71015916,16.026271 L7.71015916,8.21438704 L7,8.21438704 L7,6.08387627 L8.65683831,6.08387627 L8.65683831,5.01862088 L10.7873491,5.01862088 L10.7873491,6.08387627 L11.7339949,6.08387627 L11.7339949,5.01862088 L13.8645057,5.01862088 L13.8645057,6.08578334 C14.7687974,6.11508481 15.6146745,6.4811707 16.2573689,7.12386513 C16.9281802,7.79467642 17.2974576,8.68636175 17.2974576,9.63473865 C17.2974576,10.5712762 16.9371875,11.4525573 16.2824051,12.1203272 C16.9373626,12.7881781 17.2974576,13.6694078 17.2974576,14.6059194 C17.2974576,15.5542963 16.928047,16.4459816 16.2575021,17.1166597 C15.61468,17.7594818 14.7687976,18.125573 13.8645057,18.1548747 L13.8645057,19.2200398 L11.7339949,19.2200398 L11.7339949,18.1567817 Z M9.84066993,8.21438704 L9.84066993,11.055057 L13.7466285,11.055057 C14.1259926,11.055057 14.4827866,10.9073527 14.7509313,10.6390415 C15.0192425,10.3705971 15.1669469,10.0141027 15.1669469,9.63473865 C15.1669469,9.25534129 15.0192425,8.8985806 14.7507982,8.6302694 C14.4826534,8.36209136 14.1259926,8.21438704 13.7466285,8.21438704 L9.84066993,8.21438704 Z M9.84066993,16.026271 L13.7466285,16.026271 C14.1259926,16.026271 14.4827866,15.8785334 14.7509313,15.6102554 C15.0192425,15.3418111 15.1669469,14.9852834 15.1669469,14.6059194 C15.1669469,14.2265553 15.0192425,13.8697613 14.7507982,13.6014501 C14.4826534,13.3333054 14.1259926,13.1855677 13.7466285,13.1855677 L9.84066993,13.1855677 L9.84066993,16.026271 Z" id="Combined-Shape" fill="#D9F1EE"></path></g></g></g></g></g></g></g></g></svg> 