<?xml version="1.0" encoding="UTF-8"?> <svg xmlns="http://www.w3.org/2000/svg" xmlns:xlink="http://www.w3.org/1999/xlink" width="178px" height="176px" viewBox="0 0 178 176"><!-- Generator: Sketch 52.5 (67469) - http://www.bohemiancoding.com/sketch --><title>ico-light</title><desc>Created with Sketch.</desc><defs><linearGradient x1="100%" y1="0%" x2="0%" y2="100%" id="linearGradient-1"><stop stop-color="#8CD987" offset="0%"></stop><stop stop-color="#1FA595" offset="100%"></stop></linearGradient><path d="M4,0 L116,0 C118.209139,-4.05812251e-16 120,1.790861 120,4 L120,116 C120,118.209139 118.209139,120 116,120 L4,120 C1.790861,120 2.705415e-16,118.209139 0,116 L0,4 C-2.705415e-16,1.790861 1.790861,4.05812251e-16 4,0 Z" id="path-2"></path><filter x="-35.8%" y="-34.2%" width="171.7%" height="171.7%" id="filter-4"><feOffset dx="0" dy="2" in="SourceAlpha" result="shadowOffsetOuter1"></feOffset><feGaussianBlur stdDeviation="14" in="shadowOffsetOuter1" result="shadowBlurOuter1"></feGaussianBlur><feColorMatrix values="0 0 0 0 0.0509803922 0 0 0 0 0.396078431 0 0 0 0 0.454901961 0 0 0 0.604194973 0" type="matrix" in="shadowBlurOuter1"></feColorMatrix></filter><path d="M0,0 L17.8571429,0 L17.8571429,7.76373626 C17.8571429,12.6948501 13.8596853,16.6923077 8.92857143,16.6923077 L8.92857143,16.6923077 C3.99745759,16.6923077 6.03887278e-16,12.6948501 0,7.76373626 L0,0 Z" id="path-5"></path><linearGradient x1="100%" y1="0%" x2="0%" y2="100%" id="linearGradient-7"><stop stop-color="#8CD987" offset="0%"></stop><stop stop-color="#25AB9B" offset="100%"></stop></linearGradient><ellipse id="path-8" cx="25" cy="25.0384615" rx="25" ry="25.0384615"></ellipse><filter x="-96.0%" y="-95.9%" width="292.0%" height="291.7%" id="filter-9"><feOffset dx="0" dy="0" in="SourceAlpha" result="shadowOffsetOuter1"></feOffset><feGaussianBlur stdDeviation="16" in="shadowOffsetOuter1" result="shadowBlurOuter1"></feGaussianBlur><feColorMatrix values="0 0 0 0 1 0 0 0 0 1 0 0 0 0 1 0 0 0 0.725996377 0" type="matrix" in="shadowBlurOuter1"></feColorMatrix></filter></defs><g id="Pages" stroke="none" stroke-width="1" fill="none" fill-rule="evenodd"><g id="Blockchain" transform="translate(-157.000000, -2483.000000)"><g id="Group-74" transform="translate(134.000000, 2111.000000)"><g id="ico-light" transform="translate(51.000000, 383.000000)"><path d="M34,0 L146,0 C148.209139,-4.05812251e-16 150,1.790861 150,4 L150,116 C150,118.209139 148.209139,120 146,120 L34,120 C31.790861,120 30,118.209139 30,116 L30,4 C30,1.790861 31.790861,4.05812251e-16 34,0 Z" id="Rectangle-4-Copy" fill="#0D6574"></path><path d="M18,7 L130,7 C132.209139,7 134,8.790861 134,11 L134,123 C134,125.209139 132.209139,127 130,127 L18,127 C15.790861,127 14,125.209139 14,123 L14,11 C14,8.790861 15.790861,7 18,7 Z" id="Rectangle-4-Copy-9" fill="url(#linearGradient-1)" opacity="0.45"></path><g id="Group-29" transform="translate(0.000000, 15.000000)"><mask id="mask-3" fill="white"><use xlink:href="#path-2"></use></mask><g id="Rectangle-4-Copy-5"><use fill="black" fill-opacity="1" filter="url(#filter-4)" xlink:href="#path-2"></use><use fill="url(#linearGradient-1)" fill-rule="evenodd" xlink:href="#path-2"></use></g><g id="Group-30" mask="url(#mask-3)"><g transform="translate(17.000000, 5.000000)"><ellipse id="Oval-17-Copy-4" stroke="none" fill="#FFFFFF" fill-rule="evenodd" opacity="0.110337409" cx="43" cy="43.0384615" rx="42.7803379" ry="42.8461538"></ellipse><g id="Group-28" stroke="none" stroke-width="1" fill="none" fill-rule="evenodd" transform="translate(18.000000, 18.000000)"><g id="Group-24" transform="translate(16.666667, 45.307692)"><mask id="mask-6" fill="white"><use xlink:href="#path-5"></use></mask><use id="Rectangle-27" fill="#177383" xlink:href="#path-5"></use><ellipse id="Oval-17-Copy" stroke="#33BAAA" stroke-width="1.2" opacity="0.601732337" mask="url(#mask-6)" cx="8.33333333" cy="-11.9230769" rx="25" ry="25.0384615"></ellipse><ellipse id="Oval-17-Copy-2" stroke="#33BAAA" stroke-width="1.2" opacity="0.601732337" mask="url(#mask-6)" cx="8.33333333" cy="-16.6923077" rx="25" ry="25.0384615"></ellipse><ellipse id="Oval-17-Copy-6" fill-opacity="0.210000008" fill="#000000" mask="url(#mask-6)" cx="8" cy="-16.9615385" rx="25" ry="25.0384615"></ellipse></g><ellipse id="Oval-17" fill="url(#linearGradient-7)" cx="25" cy="25.0384615" rx="25" ry="25.0384615"></ellipse><g id="Oval-17-Copy-3" opacity="0.800000012"><use fill="black" fill-opacity="1" filter="url(#filter-9)" xlink:href="#path-8"></use><use fill="#FFFFFF" fill-rule="evenodd" xlink:href="#path-8"></use></g></g><path d="M43,74.7355769 C60.4789428,74.7355769 74.6484255,60.544295 74.6484255,43.0384615 C74.6484255,25.5326281 60.4789428,11.3413462 43,11.3413462 C25.5210572,11.3413462 11.3515745,25.5326281 11.3515745,43.0384615 C11.3515745,60.544295 25.5210572,74.7355769 43,74.7355769 Z" id="Oval-17-Copy-5" stroke="#FFFFFF" stroke-width="2" fill="none" stroke-linecap="round" stroke-linejoin="round" stroke-dasharray="1,10"></path></g></g><g id="Group-27" mask="url(#mask-3)"><g transform="translate(19.000000, 86.000000)"><rect id="Rectangle-29" fill="#288476" fill-rule="evenodd" x="36" y="10" width="12" height="14"></rect><path d="M15.4201499,20 L66.2341005,20 C68.8553747,20 71.1732335,21.7016231 71.9585223,24.202503 L81.3786722,54.202503 C82.3714024,57.3640138 80.6132583,60.7316916 77.4517475,61.7244218 C76.8700632,61.9070735 76.2639375,62 75.6542504,62 L6,62 C2.6862915,62 1.4616667e-14,59.3137085 1.42108547e-14,56 C1.41361896e-14,55.390313 0.0929264723,54.7841873 0.275578246,54.202503 L9.69572814,24.202503 C10.4810169,21.7016231 12.7988757,20 15.4201499,20 Z" id="Rectangle-28" fill="#2E9183" fill-rule="evenodd"></path><circle id="Oval-18" fill="#33BAAA" fill-rule="evenodd" cx="41" cy="41" r="13"></circle><path d="M65.3172422,1.87388996 C66.0978521,0.922330984 67.5020524,0.783749378 68.4536114,1.56435928 C69.4051704,2.34496918 69.543752,3.7491695 68.7631421,4.70072847 L63.8092808,10.7394569 C63.3859912,11.2554445 62.7537267,11.5545597 62.0863308,11.5545597 L19.9888117,11.5545597 C19.1953118,11.5545597 18.4616661,11.1326308 18.0626096,10.4467767 L13.9332125,3.34962614 C13.3142454,2.28581409 13.6748635,0.921652086 14.7386756,0.302685029 C15.8024876,-0.316282029 17.1666496,0.0443360907 17.7856167,1.10814814 L21.2704627,7.09751565 L61.0320492,7.09751565 L65.3172422,1.87388996 Z" id="Path-51" fill="#2E9183" fill-rule="nonzero"></path></g></g></g></g></g></g></g></svg> 