<?xml version="1.0" encoding="UTF-8"?> <svg xmlns="http://www.w3.org/2000/svg" xmlns:xlink="http://www.w3.org/1999/xlink" width="34px" height="32px" viewBox="0 0 34 32"><!-- Generator: Sketch 52.5 (67469) - http://www.bohemiancoding.com/sketch --><title>ico-puzzle</title><desc>Created with Sketch.</desc><defs><linearGradient x1="100%" y1="0%" x2="0%" y2="100%" id="linearGradient-1"><stop stop-color="#8CD987" offset="0%"></stop><stop stop-color="#1FA595" offset="100%"></stop></linearGradient></defs><g id="Pages" stroke="none" stroke-width="1" fill="none" fill-rule="evenodd"><g id="Blockchain" transform="translate(-1041.000000, -3650.000000)"><g id="Group-2" transform="translate(192.000000, 3043.000000)"><g id="content-copy-2" transform="translate(8.000000, 602.000000)"><g id="ico-puzzle" transform="translate(838.000000, 1.000000)"><polygon id="Rectangle-38" points="0 0 40 0 40 40 0 40"></polygon><g id="Group-60" transform="translate(3.000000, 4.000000)"><g id="Group-59"><path d="M3.90508193,7.64785178 L3.90508193,4.33301587 C3.90508193,3.80282251 4.33488857,3.37301587 4.86508193,3.37301587 L8.2419719,3.37301587 C8.0941629,3.06632259 8.01145673,2.72323718 8.01145673,2.36111111 C8.01145673,1.05710545 9.08390726,0 10.406842,0 C11.7297768,0 12.8022273,1.05710545 12.8022273,2.36111111 C12.8022273,2.72323718 12.7195212,3.06632259 12.5717122,3.37301587 L15.9486022,3.37301587 C16.4787955,3.37301587 16.9086022,3.80282251 16.9086022,4.33301587 L16.9086022,7.64785178 C16.5974569,7.50215769 16.2493912,7.42063492 15.8820084,7.42063492 C14.5590737,7.42063492 13.4866231,8.47774037 13.4866231,9.78174603 C13.4866231,11.0857517 14.5590737,12.1428571 15.8820084,12.1428571 C16.2493912,12.1428571 16.5974569,12.0613344 16.9086022,11.9156403 L16.9086022,15.2304762 C16.9086022,15.7606696 16.4787955,16.1904762 15.9486022,16.1904762 L12.5717122,16.1904762 C12.7195212,15.8837829 12.8022273,15.5406975 12.8022273,15.1785714 C12.8022273,13.8745658 11.7297768,12.8174603 10.406842,12.8174603 C9.08390726,12.8174603 8.01145673,13.8745658 8.01145673,15.1785714 C8.01145673,15.5406975 8.0941629,15.8837829 8.2419719,16.1904762 L4.86508193,16.1904762 C4.33488857,16.1904762 3.90508193,15.7606696 3.90508193,15.2304762 L3.90508193,11.9156403 C3.59393664,12.0613344 3.24587096,12.1428571 2.87848822,12.1428571 C1.55555345,12.1428571 0.483102919,11.0857517 0.483102919,9.78174603 C0.483102919,8.47774037 1.55555345,7.42063492 2.87848822,7.42063492 C3.24587096,7.42063492 3.59393664,7.50215769 3.90508193,7.64785178 Z" id="Combined-Shape" fill="url(#linearGradient-1)"></path><path d="M16.9488607,10.9811851 L16.9488607,7.66634921 C16.9488607,7.13615585 17.3786674,6.70634921 17.9088607,6.70634921 L21.2857507,6.70634921 C21.1379417,6.39965592 21.0552355,6.05657052 21.0552355,5.69444444 C21.0552355,4.39043879 22.1276861,3.33333333 23.4506208,3.33333333 C24.7735556,3.33333333 25.8460061,4.39043879 25.8460061,5.69444444 C25.8460061,6.05657052 25.7633,6.39965592 25.615491,6.70634921 L28.992381,6.70634921 C29.5225743,6.70634921 29.952381,7.13615585 29.952381,7.66634921 L29.952381,10.9811851 C29.6412357,10.835491 29.29317,10.7539683 28.9257873,10.7539683 C27.6028525,10.7539683 26.5304019,11.8110737 26.5304019,13.1150794 C26.5304019,14.419085 27.6028525,15.4761905 28.9257873,15.4761905 C29.29317,15.4761905 29.6412357,15.3946677 29.952381,15.2489736 L29.952381,18.5638095 C29.952381,19.0940029 29.5225743,19.5238095 28.992381,19.5238095 L25.615491,19.5238095 C25.7633,19.2171162 25.8460061,18.8740308 25.8460061,18.5119048 C25.8460061,17.2078991 24.7735556,16.1507937 23.4506208,16.1507937 C22.1276861,16.1507937 21.0552355,17.2078991 21.0552355,18.5119048 C21.0552355,18.8740308 21.1379417,19.2171162 21.2857507,19.5238095 L17.9088607,19.5238095 C17.3786674,19.5238095 16.9488607,19.0940029 16.9488607,18.5638095 L16.9488607,15.2489736 C16.6377154,15.3946677 16.2896498,15.4761905 15.922267,15.4761905 C14.5993323,15.4761905 13.5268817,14.419085 13.5268817,13.1150794 C13.5268817,11.8110737 14.5993323,10.7539683 15.922267,10.7539683 C16.2896498,10.7539683 16.6377154,10.835491 16.9488607,10.9811851 Z" id="Combined-Shape-Copy-3" fill="#0D6574" transform="translate(21.739631, 11.428571) scale(1, -1) translate(-21.739631, -11.428571) "></path></g><g id="Group-59-Copy" transform="translate(18.838135, 22.000000) scale(-1, -1) translate(-18.838135, -22.000000) translate(3.838135, 12.000000)"><path d="M3.90508193,7.64785178 L3.90508193,4.33301587 C3.90508193,3.80282251 4.33488857,3.37301587 4.86508193,3.37301587 L8.2419719,3.37301587 C8.0941629,3.06632259 8.01145673,2.72323718 8.01145673,2.36111111 C8.01145673,1.05710545 9.08390726,0 10.406842,0 C11.7297768,0 12.8022273,1.05710545 12.8022273,2.36111111 C12.8022273,2.72323718 12.7195212,3.06632259 12.5717122,3.37301587 L15.9486022,3.37301587 C16.4787955,3.37301587 16.9086022,3.80282251 16.9086022,4.33301587 L16.9086022,7.64785178 C16.5974569,7.50215769 16.2493912,7.42063492 15.8820084,7.42063492 C14.5590737,7.42063492 13.4866231,8.47774037 13.4866231,9.78174603 C13.4866231,11.0857517 14.5590737,12.1428571 15.8820084,12.1428571 C16.2493912,12.1428571 16.5974569,12.0613344 16.9086022,11.9156403 L16.9086022,15.2304762 C16.9086022,15.7606696 16.4787955,16.1904762 15.9486022,16.1904762 L12.5717122,16.1904762 C12.7195212,15.8837829 12.8022273,15.5406975 12.8022273,15.1785714 C12.8022273,13.8745658 11.7297768,12.8174603 10.406842,12.8174603 C9.08390726,12.8174603 8.01145673,13.8745658 8.01145673,15.1785714 C8.01145673,15.5406975 8.0941629,15.8837829 8.2419719,16.1904762 L4.86508193,16.1904762 C4.33488857,16.1904762 3.90508193,15.7606696 3.90508193,15.2304762 L3.90508193,11.9156403 C3.59393664,12.0613344 3.24587096,12.1428571 2.87848822,12.1428571 C1.55555345,12.1428571 0.483102919,11.0857517 0.483102919,9.78174603 C0.483102919,8.47774037 1.55555345,7.42063492 2.87848822,7.42063492 C3.24587096,7.42063492 3.59393664,7.50215769 3.90508193,7.64785178 Z" id="Combined-Shape" fill="url(#linearGradient-1)"></path><path d="M16.9488607,10.9811851 L16.9488607,7.66634921 C16.9488607,7.13615585 17.3786674,6.70634921 17.9088607,6.70634921 L21.2857507,6.70634921 C21.1379417,6.39965592 21.0552355,6.05657052 21.0552355,5.69444444 C21.0552355,4.39043879 22.1276861,3.33333333 23.4506208,3.33333333 C24.7735556,3.33333333 25.8460061,4.39043879 25.8460061,5.69444444 C25.8460061,6.05657052 25.7633,6.39965592 25.615491,6.70634921 L28.992381,6.70634921 C29.5225743,6.70634921 29.952381,7.13615585 29.952381,7.66634921 L29.952381,10.9811851 C29.6412357,10.835491 29.29317,10.7539683 28.9257873,10.7539683 C27.6028525,10.7539683 26.5304019,11.8110737 26.5304019,13.1150794 C26.5304019,14.419085 27.6028525,15.4761905 28.9257873,15.4761905 C29.29317,15.4761905 29.6412357,15.3946677 29.952381,15.2489736 L29.952381,18.5638095 C29.952381,19.0940029 29.5225743,19.5238095 28.992381,19.5238095 L25.615491,19.5238095 C25.7633,19.2171162 25.8460061,18.8740308 25.8460061,18.5119048 C25.8460061,17.2078991 24.7735556,16.1507937 23.4506208,16.1507937 C22.1276861,16.1507937 21.0552355,17.2078991 21.0552355,18.5119048 C21.0552355,18.8740308 21.1379417,19.2171162 21.2857507,19.5238095 L17.9088607,19.5238095 C17.3786674,19.5238095 16.9488607,19.0940029 16.9488607,18.5638095 L16.9488607,15.2489736 C16.6377154,15.3946677 16.2896498,15.4761905 15.922267,15.4761905 C14.5993323,15.4761905 13.5268817,14.419085 13.5268817,13.1150794 C13.5268817,11.8110737 14.5993323,10.7539683 15.922267,10.7539683 C16.2896498,10.7539683 16.6377154,10.835491 16.9488607,10.9811851 Z" id="Combined-Shape-Copy-3" fill="#0D6574" transform="translate(21.739631, 11.428571) scale(1, -1) translate(-21.739631, -11.428571) "></path></g></g></g></g></g></g></g></svg> 