<?xml version="1.0" encoding="UTF-8"?> <svg xmlns="http://www.w3.org/2000/svg" xmlns:xlink="http://www.w3.org/1999/xlink" width="28px" height="25px" viewBox="0 0 28 25"><!-- Generator: Sketch 52.5 (67469) - http://www.bohemiancoding.com/sketch --><title>ico-wallet</title><desc>Created with Sketch.</desc><defs><linearGradient x1="100%" y1="0%" x2="0%" y2="100%" id="linearGradient-1"><stop stop-color="#8CD987" offset="0%"></stop><stop stop-color="#1FA595" offset="100%"></stop></linearGradient><path d="M5,0 L19.3478261,0 C22.1092498,1.94537167e-15 24.3478261,2.23857625 24.3478261,5 L24.3478261,25 L5,25 C2.23857625,25 2.79081386e-15,22.7614237 0,20 L0,5 C-3.38176876e-16,2.23857625 2.23857625,5.07265313e-16 5,0 Z" id="path-2"></path><path d="M8.52173913,0 L15.826087,0 L15.826087,10.0978261 C15.826087,12.114866 14.190953,13.75 12.173913,13.75 L12.173913,13.75 C10.1568731,13.75 8.52173913,12.114866 8.52173913,10.0978261 L8.52173913,0 Z" id="path-4"></path><filter x="-109.5%" y="-50.9%" width="319.0%" height="216.4%" id="filter-5"><feOffset dx="0" dy="1" in="SourceAlpha" result="shadowOffsetOuter1"></feOffset><feGaussianBlur stdDeviation="2.5" in="shadowOffsetOuter1" result="shadowBlurOuter1"></feGaussianBlur><feColorMatrix values="0 0 0 0 0.0509803922 0 0 0 0 0.396078431 0 0 0 0 0.454901961 0 0 0 0.644418025 0" type="matrix" in="shadowBlurOuter1"></feColorMatrix></filter></defs><g id="Pages" stroke="none" stroke-width="1" fill="none" fill-rule="evenodd"><g id="Blockchain" transform="translate(-1043.000000, -3467.000000)"><g id="Group-2" transform="translate(192.000000, 3043.000000)"><g id="content-copy" transform="translate(8.000000, 414.000000)"><g id="ico-wallet" transform="translate(837.000000, 2.000000)"><polygon id="Rectangle-38" points="0 0 40 0 40 40 0 40"></polygon><g id="Group-53" transform="translate(6.000000, 8.000000)"><path d="M3.65217391,12.5 L28,12.5 L28,20 C28,22.7614237 25.7614237,25 23,25 L3.65217391,25 L3.65217391,12.5 Z" id="Rectangle-38-Copy-4" fill="#0D6574"></path><g id="Group-54"><mask id="mask-3" fill="white"><use xlink:href="#path-2"></use></mask><use id="Rectangle-38-Copy-3" fill="url(#linearGradient-1)" xlink:href="#path-2"></use><g id="Rectangle-38-Copy-5" mask="url(#mask-3)"><use fill="black" fill-opacity="1" filter="url(#filter-5)" xlink:href="#path-4"></use><use fill="#D9F1EE" fill-rule="evenodd" xlink:href="#path-4"></use></g><ellipse id="Oval-24" fill="url(#linearGradient-1)" mask="url(#mask-3)" cx="12.173913" cy="10.625" rx="1.2173913" ry="1.25"></ellipse></g></g></g></g></g></g></g></svg> 