<?xml version="1.0" encoding="UTF-8"?> <svg xmlns="http://www.w3.org/2000/svg" xmlns:xlink="http://www.w3.org/1999/xlink" width="34px" height="29px" viewBox="0 0 34 29"><!-- Generator: Sketch 52.5 (67469) - http://www.bohemiancoding.com/sketch --><title>ico-hyperledger</title><desc>Created with Sketch.</desc><defs><linearGradient x1="100%" y1="0%" x2="0%" y2="100%" id="linearGradient-1"><stop stop-color="#8CD987" offset="0%"></stop><stop stop-color="#1FA595" offset="100%"></stop></linearGradient></defs><g id="Pages" stroke="none" stroke-width="1" fill="none" fill-rule="evenodd"><g id="Blockchain" transform="translate(-203.000000, -3465.000000)"><g id="Group-2" transform="translate(192.000000, 3043.000000)"><g id="content-copy" transform="translate(8.000000, 414.000000)"><g id="ico-hyperledger" transform="translate(0.000000, 2.000000)"><polygon id="Rectangle-38" points="0 0 40 0 40 40 0 40"></polygon><g id="Group-68" transform="translate(3.000000, 6.000000)"><polygon id="Polygon-2" fill="url(#linearGradient-1)" transform="translate(17.000000, 14.412434) rotate(-270.000000) translate(-17.000000, -14.412434) " points="17 -2.22961132 30.8564065 6.09141141 30.8564065 22.7334569 17 31.0544796 3.14359354 22.7334569 3.14359354 6.09141141"></polygon><path d="M27.6640825,14.4124341 L25.0521214,1.22865561 L12.0234287,6.05426969 L1.25155186,14.4344102 L11.2859492,23.1832144 L25.0473003,27.620547 L27.6640825,14.4124341 Z M28.1738008,14.4124341 L25.4285791,28.2688406 L11.034767,23.6275716 L0.465510967,14.4124341 L11.7773573,5.61221633 L25.4285791,0.556027674 L28.1738008,14.4124341 Z" id="Polygon-2-Copy-3" fill="#0D6574" fill-rule="nonzero"></path><path d="M12.343818,6.09852308 L11.6951852,23.1226901 L27.095883,14.4441451 L12.343818,6.09852308 Z M28.1128388,14.444997 L11.1614971,23.9973552 L11.8754385,5.25908259 L28.1128388,14.444997 Z" id="Polygon-2-Copy-4" fill="#0D6574" fill-rule="nonzero"></path><path d="M22.6022402,4.91548404 L9.31129639,1.63437813 L5.90906852,14.4124341 L9.30811772,27.1785517 L22.6023204,23.5439123 L32.3380237,14.4056113 L22.6022402,4.91548404 Z M33.0613403,14.4124341 L22.8539674,23.9934621 L8.95445632,27.7935931 L5.39164896,14.4124341 L8.95445632,1.0312752 L22.8539674,4.46261677 L33.0613403,14.4124341 Z" id="Polygon-2-Copy" fill="#0D6574" fill-rule="nonzero"></path><path d="M22.5508662,23.1414132 L22.5508662,5.31558033 L6.61298099,14.3967941 L22.5508662,23.1414132 Z M23.0508662,23.9860627 L5.58854775,14.4050348 L23.0508662,4.4552174 L23.0508662,23.9860627 Z" id="Polygon-2-Copy-2" fill="#0D6574" fill-rule="nonzero"></path><ellipse id="Oval-26-Copy-3" fill="#0D6574" cx="9.30890784" cy="1.75350675" rx="1.10891089" ry="1.15340909"></ellipse><ellipse id="Oval-26-Copy" fill="#0D6574" cx="5.54455446" cy="14.3352273" rx="1.10891089" ry="1.15340909"></ellipse><ellipse id="Oval-26-Copy-2" fill="#0D6574" cx="23.1089109" cy="4.11931818" rx="1.10891089" ry="1.15340909"></ellipse><ellipse id="Oval-26-Copy-3" fill="#0D6574" cx="23.1089109" cy="24.2215909" rx="1.10891089" ry="1.15340909"></ellipse><ellipse id="Oval-26-Copy-3" fill="#0D6574" cx="9.10891089" cy="27.1534091" rx="1.10891089" ry="1.15340909"></ellipse><ellipse id="Oval-26-Copy-3" fill="#0D6574" cx="32.208917" cy="14.4534579" rx="1.10891089" ry="1.15340909"></ellipse><polygon id="Path-54" fill="#0D6574" fill-rule="nonzero" points="12.2763771 5.52494161 9.44781268 1.29284016 9.03211257 1.5706772 11.860677 5.80277865"></polygon><polygon id="Path-55" fill="#0D6574" fill-rule="nonzero" points="11.2655226 23.2439368 8.88249942 27.2118738 9.31113809 27.4693013 11.6941613 23.5013642"></polygon><polygon id="Path-56" fill="#0D6574" fill-rule="nonzero" points="27.6390985 14.7044352 31.9470173 14.7044352 31.9470173 14.2044352 27.6390985 14.2044352"></polygon></g></g></g></g></g></g></svg> 