<?xml version="1.0" encoding="UTF-8"?> <svg xmlns="http://www.w3.org/2000/svg" xmlns:xlink="http://www.w3.org/1999/xlink" width="27px" height="30px" viewBox="0 0 27 30"><!-- Generator: Sketch 52.5 (67469) - http://www.bohemiancoding.com/sketch --><title>ico-ryptocurrency</title><desc>Created with Sketch.</desc><defs><linearGradient x1="100%" y1="0%" x2="0%" y2="100%" id="linearGradient-1"><stop stop-color="#8CD987" offset="0%"></stop><stop stop-color="#1FA595" offset="100%"></stop></linearGradient></defs><g id="Pages" stroke="none" stroke-width="1" fill="none" fill-rule="evenodd"><g id="Blockchain" transform="translate(-631.000000, -3275.000000)"><g id="Group-2" transform="translate(192.000000, 3043.000000)"><g id="content" transform="translate(8.000000, 226.000000)"><g id="ico-ryptocurrency" transform="translate(425.000000, 1.000000)"><polygon id="Rectangle-38" points="0 0 40 0 40 40 0 40"></polygon><g id="Group-53" transform="translate(6.000000, 5.000000)"><g id="Group-54"><g id="Group-56"><g id="Group-65"><path d="M13.3913043,2.4 C9.63636836,2.4 6.5923913,5.35492065 6.5923913,9 L6.5923913,16.2 C6.5923913,19.8450793 9.63636836,22.8 13.3913043,22.8 C17.1462403,22.8 20.1902174,19.8450793 20.1902174,16.2 L20.1902174,9 C20.1902174,5.35492065 17.1462403,2.4 13.3913043,2.4 Z M13.3913043,0 C18.3978857,-7.99360578e-16 22.4565217,4.02943725 22.4565217,9 L22.4565217,16.2 C22.4565217,21.1705627 18.3978857,25.2 13.3913043,25.2 C8.38472303,25.2 4.32608696,21.1705627 4.32608696,16.2 L4.32608696,9 C4.32608696,4.02943725 8.38472303,9.32587341e-16 13.3913043,0 Z" id="Rectangle-40" fill="#0D6574" fill-rule="nonzero"></path><path d="M2.64877127,8.4 L24.5572779,8.4 C25.8827613,8.4 26.9572779,9.4745166 26.9572779,10.8 L26.9572779,27.6 C26.9572779,28.9254834 25.8827613,30 24.5572779,30 L2.64877127,30 C1.32328787,30 0.248771267,28.9254834 0.248771267,27.6 L0.248771267,10.8 C0.248771267,9.4745166 1.32328787,8.4 2.64877127,8.4 Z" id="Rectangle-38-Copy-6" fill="url(#linearGradient-1)"></path><path d="M12.0966148,16.4145695 C12.0966148,15.9104489 12.5811243,15.6583886 13.2944299,15.6583886 C14.0481114,15.6583886 15.2324679,16.0298459 16.2284042,16.6135645 L17.0493786,14.875675 C16.2822385,14.3715544 15.2593851,14.0133635 14.1826974,13.9072328 L14.1826974,12.0366801 L12.6349587,12.0366801 L12.6349587,13.9204992 C10.9257168,14.1592931 9.82211182,15.154268 9.82211182,16.6135645 C9.82211182,19.9036147 14.8421686,18.8821072 14.8421686,20.633263 C14.8421686,21.2037152 14.3172833,21.5221072 13.4424745,21.5221072 C12.4465383,21.5221072 11.0737614,20.9781876 10.1047424,20.1291424 L9.25685073,21.8404992 C10.1451182,22.5834137 11.3563919,23.114067 12.6349587,23.2599966 L12.6349587,25.2366801 L14.1826974,25.2366801 L14.1826974,23.2599966 C15.8784806,23.0477353 17.103213,22.1058258 17.103213,20.513866 C17.1166716,17.1707504 12.0966148,18.1259263 12.0966148,16.4145695 Z" id="$" fill="#D9F1EE"></path></g></g></g></g></g></g></g></g></g></svg> 