<?xml version="1.0" encoding="UTF-8"?> <svg xmlns="http://www.w3.org/2000/svg" xmlns:xlink="http://www.w3.org/1999/xlink" width="28px" height="39px" viewBox="0 0 28 39"><!-- Generator: Sketch 52.6 (67491) - http://www.bohemiancoding.com/sketch --><title>Idea Incubator</title><desc>Created with Sketch.</desc><defs><linearGradient x1="69.1882136%" y1="76.559054%" x2="0%" y2="82.2067578%" id="linearGradient-1"><stop stop-color="#8CD987" offset="0%"></stop><stop stop-color="#1FA595" offset="100%"></stop></linearGradient><linearGradient x1="100%" y1="0%" x2="0%" y2="100%" id="linearGradient-2"><stop stop-color="#8CD987" offset="0%"></stop><stop stop-color="#1FA595" offset="100%"></stop></linearGradient></defs><g id="Home" stroke="none" stroke-width="1" fill="none" fill-rule="evenodd"><g id="Careers" transform="translate(-1043.000000, -4674.000000)"><g id="Group-13" transform="translate(200.000000, 4293.000000)"><g id="content-copy-2" transform="translate(0.000000, 376.000000)"><g id="Idea-Incubator" transform="translate(837.000000, 4.000000)"><polygon id="Rectangle-38" points="0 0 40 0 40 40 0 40"></polygon><g id="Group-18" transform="translate(6.000000, 1.000000)"><polygon id="Path-20" fill="#0D6574" points="0 14.3684211 7.15919177 11.2098912 10.3703704 22.358391 17.6296296 22.358391 20.9659658 11.2894737 28 14.4266659 18.6666667 27.5668559 9.33333333 27.5668559"></polygon><polygon id="Rectangle" fill="url(#linearGradient-1)" points="0 14.3684211 14 20.3166919 28 14.3684211 28 32.8421053 14 38.7903761 0 32.8421053"></polygon><g id="Group-17" transform="translate(8.296296, 0.000000)"><path d="M0.505544107,8.46619712 C0.180805924,7.71271156 0,6.87608202 0,5.99506579 C0,2.68408238 2.55363513,0 5.7037037,0 C8.85377228,0 11.4074074,2.68408238 11.4074074,5.99506579 C11.4074074,6.84092 11.2407457,7.64585983 10.9400548,8.37558575 L8.46856417,15.0948007 L2.92515726,15.0948007 L0.505544107,8.46619712 Z" id="Path" fill="url(#linearGradient-2)"></path><path d="M4.02972046,13.2779605 L7.43265319,13.2779605 C8.11428303,13.2779605 8.66685319,13.8305307 8.66685319,14.5121605 C8.66685319,14.5753241 8.66200435,14.6383944 8.6523494,14.7008157 L8.23050358,17.4281394 C8.13744664,18.0297724 7.61959461,18.4736842 7.01080736,18.4736842 L4.5552843,18.4736842 C3.96370261,18.4736842 3.45532108,18.0539162 3.3433809,17.4730218 L2.81781707,14.7456981 C2.68883782,14.0763824 3.12686711,13.4292364 3.79618287,13.3002571 C3.87314418,13.2854264 3.95134322,13.2779605 4.02972046,13.2779605 Z" id="Rectangle" fill="#0D6574"></path><polyline id="Path-18" stroke="#0D6574" stroke-width="1.2342" fill-rule="nonzero" points="5.87360176 14.4325658 5.88431199 10.4350515 4.06003332 9.23684211 4.06003332 5.2714991"></polyline><polyline id="Path-19" stroke="#0D6574" stroke-width="1.2342" fill-rule="nonzero" points="5.88431199 10.4350515 7.60493827 8.58737664 7.60493827 3.97256818"></polyline></g></g></g></g></g></g></g></svg> 