<?xml version="1.0" encoding="UTF-8"?> <svg xmlns="http://www.w3.org/2000/svg" xmlns:xlink="http://www.w3.org/1999/xlink" width="51px" height="51px" viewBox="0 0 51 51"><!-- Generator: Sketch 52.6 (67491) - http://www.bohemiancoding.com/sketch --><title>Illustrations</title><desc>Created with Sketch.</desc><defs><radialGradient cx="10.1475267%" cy="12.3100204%" fx="10.1475267%" fy="12.3100204%" r="99.9669394%" id="radialGradient-1"><stop stop-color="#7ECC79" offset="0%"></stop><stop stop-color="#28AD9D" offset="100%"></stop></radialGradient><circle id="path-2" cx="25.5" cy="25.5" r="25.5"></circle></defs><g id="Illustrations" stroke="none" stroke-width="1" fill="none" fill-rule="evenodd"><g id="All-Icons" transform="translate(-897.000000, -3309.000000)"><g id="Group-33-Copy-6" transform="translate(897.000000, 3309.000000)"><g id="Illustrations"><mask id="mask-3" fill="white"><use xlink:href="#path-2"></use></mask><use id="Oval-Copy-16" fill="url(#radialGradient-1)" xlink:href="#path-2"></use><circle id="Oval" fill="#0D6574" mask="url(#mask-3)" cx="25.5" cy="71.5" r="48.5"></circle><circle id="Oval-Copy-2" fill="#0B4651" opacity="0.200000003" mask="url(#mask-3)" cx="43.5" cy="-7.5" r="34.5"></circle><g id="pen" mask="url(#mask-3)"><g transform="translate(17.000000, 13.000000)"><path d="M12.4347826,3.39130435 L12.4347826,4.40869565 C12.4347826,5.99130435 12.8304348,7.5173913 13.5086957,8.93043478 L16.3913043,14.6956522 L8.47826087,26 L0.565217391,14.6956522 L3.44782609,8.93043478 C4.12608696,7.5173913 4.52173913,5.99130435 4.52173913,4.40869565 L4.52173913,3.39130435" id="Path" stroke="#FFFFFF" stroke-width="2" fill="none"></path><circle id="Oval" stroke="none" fill="#FFFFFF" fill-rule="evenodd" cx="8.47826087" cy="14.6956522" r="1.69565217"></circle><path d="M8.47826087,14.6956522 L8.47826087,26" id="Path" stroke="#FFFFFF" stroke-width="2" fill="none"></path><polygon id="Path" stroke="#FFFFFF" stroke-width="2" fill="none" points="15.826087 3.39130435 1.13043478 3.39130435 0 0 16.9565217 0"></polygon></g></g></g></g></g></g></svg> 