<?xml version="1.0" encoding="UTF-8"?> <svg xmlns="http://www.w3.org/2000/svg" xmlns:xlink="http://www.w3.org/1999/xlink" width="1600px" height="1029px" viewBox="0 0 1600 1029"><!-- Generator: Sketch 52.6 (67491) - http://www.bohemiancoding.com/sketch --><title>landing-hero-v2</title><desc>Created with Sketch.</desc><defs><linearGradient x1="2.88529403%" y1="95.9689527%" x2="98.5564819%" y2="0%" id="linearGradient-1"><stop stop-color="#54BC4C" offset="0%"></stop><stop stop-color="#4BBB65" offset="26.6711251%"></stop><stop stop-color="#33BAAA" offset="100%"></stop></linearGradient><linearGradient x1="107.803402%" y1="92.6897579%" x2="36.9106881%" y2="0.270555065%" id="linearGradient-2"><stop stop-color="#095E6C" offset="0%"></stop><stop stop-color="#42C8B3" offset="40.9446899%"></stop><stop stop-color="#75DBCD" offset="51.1334899%"></stop><stop stop-color="#3AC1B3" offset="68.3624697%"></stop><stop stop-color="#0EC0A1" offset="94.6847905%"></stop><stop stop-color="#28B3A1" offset="100%"></stop></linearGradient><linearGradient x1="14.2365548%" y1="103.383429%" x2="93.3794708%" y2="15.293942%" id="linearGradient-3"><stop stop-color="#15788A" offset="0%"></stop><stop stop-color="#1FA991" offset="100%"></stop></linearGradient><linearGradient x1="-1.03203479%" y1="97.4811393%" x2="63.0891663%" y2="0.270394349%" id="linearGradient-4"><stop stop-color="#0D6574" offset="0%"></stop><stop stop-color="#0D9F8D" offset="21%"></stop><stop stop-color="#84EEB1" offset="48.5%"></stop><stop stop-color="#62DFBB" offset="74.9%"></stop><stop stop-color="#59E6BC" offset="100%"></stop></linearGradient><linearGradient x1="0%" y1="49.9993988%" x2="100%" y2="49.9993988%" id="linearGradient-5"><stop stop-color="#15A081" offset="0%"></stop><stop stop-color="#0C889C" offset="100%"></stop></linearGradient><linearGradient x1="0.000329681083%" y1="49.9993667%" x2="99.999392%" y2="49.9993667%" id="linearGradient-6"><stop stop-color="#5FFCE9" offset="0%"></stop><stop stop-color="#89FD89" offset="100%"></stop></linearGradient><linearGradient x1="0.000216494251%" y1="50.0004473%" x2="99.9998777%" y2="50.0004473%" id="linearGradient-7"><stop stop-color="#ABFFF5" offset="0%"></stop><stop stop-color="#9CFFA1" offset="100%"></stop></linearGradient><linearGradient x1="-0.000149560535%" y1="50.0028894%" x2="99.9982622%" y2="50.0028894%" id="linearGradient-8"><stop stop-color="#086055" offset="0%"></stop><stop stop-color="#238723" offset="100%"></stop></linearGradient><linearGradient x1="117.463703%" y1="45.3769573%" x2="-23.7258966%" y2="61.9391022%" id="linearGradient-9"><stop stop-color="#25F0D7" stop-opacity="0.418" offset="0%"></stop><stop stop-color="#49C59C" stop-opacity="0.484" offset="100%"></stop></linearGradient><linearGradient x1="57.6964029%" y1="-28.1753217%" x2="43.3336469%" y2="91.3331566%" id="linearGradient-10"><stop stop-color="#5AB155" offset="0%"></stop><stop stop-color="#14AD9B" offset="100%"></stop></linearGradient><linearGradient x1="25.0001922%" y1="6.69895309%" x2="74.9996071%" y2="93.3015805%" id="linearGradient-11"><stop stop-color="#3CE6D1" stop-opacity="0.418" offset="0%"></stop><stop stop-color="#54B0B7" stop-opacity="0.707" offset="100%"></stop></linearGradient><linearGradient x1="0%" y1="49.998283%" x2="100.003098%" y2="49.998283%" id="linearGradient-12"><stop stop-color="#32BBAA" offset="0%"></stop><stop stop-color="#54B754" offset="100%"></stop></linearGradient><linearGradient x1="57.2553598%" y1="-24.5055254%" x2="43.1413235%" y2="92.9334256%" id="linearGradient-13"><stop stop-color="#36BEAC" offset="0%"></stop><stop stop-color="#33BAAA" offset="100%"></stop></linearGradient><linearGradient x1="0%" y1="50%" x2="100%" y2="50%" id="linearGradient-14"><stop stop-color="#32BBAA" offset="0%"></stop><stop stop-color="#54B754" offset="100%"></stop></linearGradient><linearGradient x1="0%" y1="50%" x2="100%" y2="50%" id="linearGradient-15"><stop stop-color="#57E1D0" offset="0%"></stop><stop stop-color="#6CE16C" offset="100%"></stop></linearGradient><linearGradient x1="14.2366957%" y1="103.382066%" x2="93.3795116%" y2="15.2923977%" id="linearGradient-16"><stop stop-color="#1C877A" offset="0%"></stop><stop stop-color="#33BB75" offset="100%"></stop></linearGradient><linearGradient x1="14.2366957%" y1="103.381984%" x2="93.3795116%" y2="15.2944616%" id="linearGradient-17"><stop stop-color="#8FEDD8" offset="0%"></stop><stop stop-color="#94EFD9" offset="100%"></stop></linearGradient><linearGradient x1="14.2376297%" y1="103.384582%" x2="93.3780597%" y2="15.2943748%" id="linearGradient-18"><stop stop-color="#BDFFF7" offset="0%"></stop><stop stop-color="#D0FFE7" offset="100%"></stop></linearGradient><linearGradient x1="3.62209478%" y1="27.5051995%" x2="82.3897202%" y2="89.052751%" id="linearGradient-19"><stop stop-color="#35BDAC" offset="0%"></stop><stop stop-color="#37BB9E" offset="100%"></stop></linearGradient><linearGradient x1="18.1160504%" y1="11.6329556%" x2="100%" y2="50%" id="linearGradient-20"><stop stop-color="#32BBAA" offset="0%"></stop><stop stop-color="#3BE0CB" offset="100%"></stop></linearGradient><linearGradient x1="0.00214187518%" y1="50.0012223%" x2="99.9963352%" y2="50.0012223%" id="linearGradient-21"><stop stop-color="#5FFCE9" offset="0%"></stop><stop stop-color="#89FD89" offset="100%"></stop></linearGradient><linearGradient x1="100%" y1="50%" x2="0%" y2="50%" id="linearGradient-22"><stop stop-color="#15A081" offset="0%"></stop><stop stop-color="#0C889C" offset="100%"></stop></linearGradient><linearGradient x1="0%" y1="50%" x2="100%" y2="50%" id="linearGradient-23"><stop stop-color="#15A081" offset="0%"></stop><stop stop-color="#0C889C" offset="100%"></stop></linearGradient><linearGradient x1="-0.000506509521%" y1="50.0016984%" x2="100%" y2="50.0016984%" id="linearGradient-24"><stop stop-color="#128B7C" offset="0%"></stop><stop stop-color="#238723" offset="100%"></stop></linearGradient><linearGradient x1="0%" y1="50%" x2="100%" y2="50%" id="linearGradient-25"><stop stop-color="#0E8C70" offset="0%"></stop><stop stop-color="#0C889C" offset="100%"></stop></linearGradient><linearGradient x1="-0.00104198235%" y1="50.0010154%" x2="100.00084%" y2="50.0010154%" id="linearGradient-26"><stop stop-color="#CDFFF9" offset="0%"></stop><stop stop-color="#EBFFEB" offset="100%"></stop></linearGradient><linearGradient x1="0%" y1="50.000717%" x2="100%" y2="50.000717%" id="linearGradient-27"><stop stop-color="#32BBAA" offset="0%"></stop><stop stop-color="#54B754" offset="100%"></stop></linearGradient><path d="M13.9136368,233.86893 C7.24956129,228.543646 0.852925544,197.857727 0.852925544,179.654017 C0.852925544,141.223424 7.53177778,92.9353186 63.2991638,87.4201088 C119.06655,81.9048991 111.761013,57.2781463 119.350137,36.4744653 C149.102257,-45.0835099 186.348229,31.8034101 180.206876,70.3440322 C176.128153,95.9404296 154.658135,105.410099 131.254758,113.509101 C108.236639,121.47478 154.821617,186.857631 100.624871,186.044965 C46.4281237,185.2323 20.5777122,239.194215 13.9136368,233.86893 Z" id="path-28"></path><linearGradient x1="41.6075557%" y1="16.2516384%" x2="90.9026295%" y2="91.5420585%" id="linearGradient-30"><stop stop-color="#4AD8C8" offset="0%"></stop><stop stop-color="#2FBCAB" offset="100%"></stop></linearGradient><linearGradient x1="-0.000534497322%" y1="49.999901%" x2="99.9998895%" y2="49.999901%" id="linearGradient-31"><stop stop-color="#57E1D0" stop-opacity="0.539" offset="0%"></stop><stop stop-color="#6CE16C" stop-opacity="0.539" offset="100%"></stop></linearGradient></defs><g id="Home-OLD" stroke="none" stroke-width="1" fill="none" fill-rule="evenodd"><g id="Home---Approach" transform="translate(0.000000, -1.000000)"><g id="Hero" transform="translate(0.000000, 1.000000)"><g id="Illustration"><g id="Hero" transform="translate(488.000000, 380.000000)"><g id="Group-6" transform="translate(0.000000, 53.000000)" fill-rule="nonzero" opacity="0.431319963" stroke="url(#linearGradient-1)" stroke-linecap="square" stroke-width="1.8"><path d="M1198.59734,389.905186 L792.987398,661.474" id="Shape"></path><path d="M1111.85887,267.174835 L501.901315,684.104694" id="Shape"></path><path d="M1133.12464,85.4062492 L267.480074,665.549368" id="Shape"></path><path d="M991.5,0.5 L90.9391985,616.217036" id="Shape"></path><path d="M591.435281,123 L94.1036808,455.001455" id="Shape-Copy-5"></path><path d="M239.542174,422.787913 L645.853157,687.202091" id="Shape"></path><path d="M458.426578,715.202091 L0.582180691,415.049133 L458.426578,715.202091 Z" id="Shape-Copy-4"></path><path d="M167.980183,237.189894 L802.707691,656.407355" id="Shape"></path><path d="M332.100192,208.992478 L1007.2169,649.014521" id="Shape"></path><path d="M473.45893,163.987784 L1137.77924,607.349333" id="Shape"></path><path d="M559.635636,123.44426 L1295.4304,591.673077" id="Shape"></path><path d="M640,25 L1169.06908,353.046424" id="Shape"></path><path d="M1031,116.268544 L1158.02927,195.032356" id="Shape-Copy-6"></path></g><path d="M858.919961,25.7384543 C860.560891,26.8846767 979.96219,107.68911 979.96219,107.68911 C984.554128,111.192063 985.386712,115.078303 985.386712,118.116702 L985.459427,215.141699 C985.482454,220.262705 983.097409,222.995445 979.96219,220.643566 L858.919961,138.69291 C858.919961,138.69291 853.62269,136.070547 853.455446,129.543751 C853.399698,127.33136 853.422724,31.2403218 853.422724,31.2403218 C853.351221,25.7712035 857.279031,24.5922319 858.919961,25.7384543 Z" id="Shape" stroke="#0D6574" fill-rule="nonzero"></path><polygon id="Shape" fill="#0B4651" fill-rule="nonzero" points="481.690243 114.722913 481.92293 184.934797 543.055455 147.030617 488.330314 110.220503"></polygon><path d="M625.666712,499.974932 L612.038751,490.796662 C612.038751,490.796662 611.744257,357.315729 611.065585,342.095836 C610.386914,326.875943 608.332722,302.932631 589.388099,289.809901 C570.444687,276.68717 468.930011,208.464498 468.930011,208.464498 L468.930011,191.341513 C468.930011,191.341513 687.988124,235.708203 687.988124,235.708203 L625.666712,499.974932 Z" id="Shape" fill="#0D6574" fill-rule="nonzero"></path><path d="M813.417478,374.126991 L625.544309,499.974932 C625.544309,499.974932 625.146802,349.697292 624.468131,334.596267 C623.789459,319.494028 621.735267,295.737508 602.790644,282.716664 C583.847233,269.69582 468.930011,191.243265 468.930011,191.243265 L639.606135,74.0775032 C639.606135,74.0775032 768.693042,159.352811 786.704493,170.94118 C805.876955,183.276716 813.417478,199.03879 813.417478,224.165926 C813.417478,249.294274 813.417478,374.126991 813.417478,374.126991 Z" id="Shape" fill="url(#linearGradient-2)" fill-rule="nonzero"></path><g id="Group" transform="translate(645.202749, 277.761830)" fill-rule="nonzero"><path d="M102.642967,335.968095 L116.270928,326.861388 C116.270928,326.861388 116.65268,247.763552 117.331352,232.662527 C118.010023,217.561502 120.064215,193.803768 139.007627,180.782924 C157.95225,167.763293 293.627116,76.7750678 293.627116,76.7750678 L293.627116,59.7855047 C293.627116,59.7855047 40.4088133,127.102115 40.4088133,127.102115 L102.642967,335.968095 Z" id="Shape" fill="url(#linearGradient-3)"></path><path d="M0.170879725,268.225744 L102.642967,335.968095 C102.642967,335.968095 103.127732,241.61883 103.806403,226.517804 C104.485074,211.415566 106.539267,187.659046 125.482678,174.638202 C144.427301,161.617358 293.627116,59.7855047 293.627116,59.7855047 L202.285237,0.430591483 C202.285237,0.430591483 44.895315,109.369024 26.8838648,120.957393 C7.71140206,133.291716 0.170879725,149.05379 0.170879725,174.182139 C0.170879725,199.309274 0.170879725,268.225744 0.170879725,268.225744 Z" id="Shape" fill="url(#linearGradient-4)"></path></g><path d="M728.799292,628.23176 C726.900225,626.37961 672.835576,596.45047 671.251606,594.468536 C669.667636,592.486603 730.663214,565.977935 730.663214,565.977935 L728.799292,628.23176 Z" id="Shape" fill="#0D6574" fill-rule="nonzero"></path><path d="M539.102195,527.355699 C539.102195,527.355699 683.839746,572.749744 722.133771,560.790218 C731.032848,558.011386 739.396259,563.066894 739.396259,572.644219 C739.396259,579.235301 739.300518,619.923164 739.300518,619.923164 L728.799292,628.23176 C728.799292,628.23176 728.623565,585.413986 728.752027,580.051606 C729.05137,567.522 721.405411,574.498795 721.405411,574.498795 L654.71869,621.981513 L539.102195,541.217106 L539.102195,527.355699 Z" id="Shape" fill="url(#linearGradient-5)" fill-rule="nonzero"></path><path d="M613.330651,181.074028 C613.330651,181.074028 601.810206,176.866361 606.345184,185.792341 C610.647475,194.261044 623.078066,202.901984 628.175372,202.593899 C637.03688,202.056569 629.794488,188.554191 629.794488,188.554191 L613.330651,181.074028 Z" id="Shape" fill="#07494F" fill-rule="nonzero"></path><path d="M614.967945,479.054251 C614.967945,479.054251 723.087546,554.166386 735.275755,562.944388 C728.593267,557.902222 722.317982,561.373639 722.317982,561.373639 L655.785173,606.821054 L539.102195,527.387235 L614.967945,479.054251 Z" id="Shape" fill="#44D1C0" fill-rule="nonzero"></path><path d="M629.304875,129.82879 C623.996696,126.324625 609.711879,133.060046 613.096751,154.972907 C616.481624,176.884555 622.041881,194.601879 622.041881,194.601879 C622.041881,194.601879 625.83638,197.821005 630.303491,193.470211 C625.224364,168.142942 626.614428,154.070484 626.614428,154.070484 C626.614428,154.070484 630.591927,130.677844 629.304875,129.82879 Z" id="Shape" fill="#FFD7B2" fill-rule="nonzero"></path><path d="M819.919391,14.0372823 C821.858451,15.3921293 962.962687,110.883978 962.962687,110.883978 C968.389633,115.022508 969.372495,119.615888 969.372495,123.207385 L969.459753,237.866013 C969.485203,243.918552 966.667505,247.147382 962.962687,244.36855 L819.919391,147.523068 C819.919391,147.523068 813.65986,144.424022 813.462318,136.709763 C813.395663,134.095891 813.422325,20.5398202 813.422325,20.5398202 C813.338703,14.0760962 817.98033,12.6836483 819.919391,14.0372823 Z" id="Shape" fill="#0D6574" fill-rule="nonzero"></path><path d="M913.382117,166.454538 C901.330855,160.374101 894.332057,145.879543 894.522328,128.048203 C894.725929,108.847462 905.659808,99.0651514 918.559409,105.821192 C937.671276,115.833961 941.385789,141.250987 937.390112,154.581129 C933.405342,167.87367 922.781714,171.195896 913.382117,166.454538 Z" id="Shape" fill="url(#linearGradient-6)" fill-rule="nonzero" opacity="0.508"></path><polygon id="Shape" fill="#D6F2EE" fill-rule="nonzero" points="864.792891 90.4909227 877.453746 99.4629937 877.00655 177.23388 864.344483 168.261809"></polygon><polygon id="Shape" fill="#0D6574" fill-rule="nonzero" points="674.796451 503.348101 678.238284 501.481396 698.309986 541.94244 696.750254 542.789068"></polygon><polygon id="Shape" fill="#0D6574" fill-rule="nonzero" points="653.378314 520.833754 657.292793 520.833754 655.667617 565.977935 653.893377 565.977935"></polygon><path d="M630.256227,517.572175 C639.904266,524.86312 654.038806,526.135487 661.300589,524.965006 C669.43616,523.655038 681.779494,520.566909 689.915065,502.691904 C698.652958,483.491162 696.833876,441.205866 679.16055,437.649544 C666.466974,435.095106 662.518561,457.508909 650.681808,468.30038 C638.374832,479.520017 631.289989,473.589984 626.47627,481.178098 C618.60126,493.592475 620.6094,510.28123 630.256227,517.572175 Z" id="Shape" fill="url(#linearGradient-7)" fill-rule="nonzero"></path><polygon id="Shape" fill="#D6F2EE" fill-rule="nonzero" points="843.493521 97.7782287 856.155588 106.7503 856.349494 163.345789 843.687427 154.373718"></polygon><path d="M630.755535,516.452637 C640.403574,523.743582 657.186144,525.858938 662.827599,521.132136 C671.292811,514.038899 665.247789,494.35541 682.82901,483.135773 C700.604137,471.791203 691.810497,437.946713 674.521347,435.249148 C661.727182,433.253872 656.240852,455.181289 644.40531,465.97276 C632.098334,477.192397 626.180564,469.709809 621.365633,477.297923 C613.490623,489.7123 621.108708,509.161692 630.755535,516.452637 Z" id="Shape" fill="#F0FFFD" fill-rule="nonzero"></path><path d="M618.10074,139.062855 C618.10074,139.062855 617.487512,124.582852 628.631052,126.132981 C639.863061,127.69524 639.061986,141.708263 639.061986,141.708263 L618.10074,139.062855 Z" id="Shape" fill="url(#linearGradient-8)" fill-rule="nonzero"></path><g id="Group" transform="translate(460.780069, 273.910095)" fill-rule="nonzero"><path d="M56.7888568,19.6295773 C57.273622,19.9679858 93.4989118,44.6366325 93.4989118,44.6366325 C94.8538305,45.6700521 95.0986369,46.8174874 95.0986369,47.7138454 L95.1204513,76.3427208 C95.1277228,77.8540363 94.4236014,78.6606372 93.4989118,77.9668391 L56.7888568,52.9597839 C56.7888568,52.9597839 55.226701,52.1859322 55.1770126,50.2597934 C55.1600458,49.607235 55.1673173,21.2536956 55.1673173,21.2536956 C55.1467148,19.6392808 56.3053036,19.2911688 56.7888568,19.6295773 Z" id="Shape" stroke="#3FBEA2" stroke-width="0.606375" fill-opacity="0" fill="#000000"></path><path d="M2.38366094,0.22142429 C3.07566323,0.704171924 54.7734456,35.9095741 54.7734456,35.9095741 C56.7076586,37.3845016 57.0579015,39.0207492 57.0579015,40.3003943 L57.0894112,81.1592808 C57.0978946,83.315877 56.0944307,84.4657382 54.7734456,83.4759842 L2.38366094,47.7878344 C2.38366094,47.7878344 0.153741123,46.6828517 0.0834501718,43.9343438 C0.0592119129,43.0028107 0.0689072165,2.53812776 0.0689072165,2.53812776 C0.0386093929,0.234766562 1.69287056,-0.261323344 2.38366094,0.22142429 Z" id="Shape" fill="url(#linearGradient-9)"></path><path d="M52.4635395,12.4126215 C52.9519404,12.7534558 89.5456518,37.6731798 89.5456518,37.6731798 C90.9139015,38.7163028 91.1623436,39.8746546 91.1623436,40.7807161 L91.1841581,69.7006956 C91.1902176,71.2277792 90.4800367,72.0416577 89.5456518,71.340582 L52.4635395,46.0800237 C52.4635395,46.0800237 50.884417,45.2988943 50.8347285,43.3533486 C50.8177617,42.6935126 50.8250332,14.0525079 50.8250332,14.0525079 C50.8032188,12.4223249 51.9739267,12.0705741 52.4635395,12.4126215 Z" id="Shape" fill-opacity="0.624858469" fill="#6AC264"></path><path d="M3.42227033,21.7364432 L3.79069187,21.4756625 L4.46087973,21.0474968 L5.06926002,20.7236435 L5.62310424,20.4919732 L6.12120046,20.3452082 L6.56354868,20.276071 L6.95378465,20.274858 L7.2955441,20.3318659 L7.60094616,20.4386041 L7.87968614,20.5938596 L8.14509507,20.7976325 L8.40080871,21.0559874 L8.64803895,21.3701372 L8.88557388,21.740082 L9.11098969,22.1658218 L9.32307446,22.6412918 L9.52182818,23.1652792 L9.70482703,23.7292934 L9.9544811,24.652336 L10.2404926,25.9792855 L10.4804513,27.3862886 L10.6889003,28.844235 L10.8767468,30.3191625 L11.05611,31.7807476 L11.2403207,33.1950284 L11.3384857,33.879123 L11.3384857,33.8779101 L11.4354387,34.5583659 L11.6087423,36.0005442 L11.7687148,37.5433959 L11.9262635,39.1541719 L12.0922955,40.7964842 L12.2765063,42.4290931 L12.4885911,44.0192492 L12.7418809,45.5293517 L12.9672967,46.5930946 L13.1381764,47.2650599 L13.324811,47.8933596 L13.53326,48.4816325 L13.7659473,49.0250268 L14.0265086,49.5223297 L14.3210034,49.9686893 L14.6603391,50.3616798 L15.0529989,50.6915978 L15.5086781,50.9414621 L16.024953,51.0894401 L16.582433,51.1112729 L17.1520321,51.0045347 L17.7216312,50.780142 L18.2888064,50.4477981 L18.8620412,50.0135678 L19.1662314,49.7467224 C19.1698671,49.7430836 19.1735029,49.7406577 19.1771386,49.7370189 L19.7091684,49.2457808 L20.7526254,48.2936278 L21.7657847,47.3851404 L22.7474341,46.531235 L23.6975739,45.7404022 L24.6137801,45.0211325 L25.4948408,44.3843423 L26.3371203,43.8385221 L27.1381947,43.3921625 L27.8932165,43.0537539 L28.596126,42.8293612 L29.2408637,42.723836 L29.8262176,42.7347524 L30.2091821,42.814806 L30.4442932,42.8972855 L30.6915235,43.0113013 L30.935118,43.1580662 L31.1775006,43.3400063 L31.4186712,43.5583344 L31.5277434,43.6711372 L31.4974456,43.638388 L31.6440871,43.8057729 L31.8489003,44.1090063 L32.006449,44.4304338 L32.1361237,44.7967397 L32.2403482,45.2067114 L32.3179107,45.6591356 L32.368811,46.1491609 L32.3942612,46.6743612 L32.3906254,47.5222019 L32.3203345,48.7254322 L32.1991432,49.9856703 L32.0549255,51.2798707 L31.9155556,52.5825615 L31.8089072,53.8682713 L31.7664903,55.1151672 L31.7943643,56.0200158 L31.8513242,56.6082886 L31.9434296,57.168664 L32.07674,57.7084196 L32.2585269,58.2227035 L32.4960619,58.7103028 L32.7978282,59.1639401 L33.1686735,59.5726987 L33.6110218,59.9280883 L34.1236609,60.2167666 L34.4302749,60.3441246 C34.4460298,60.3514022 34.4617847,60.3562539 34.4787514,60.3623186 L34.6738694,60.4253912 L35.1319725,60.5309164 L35.6106781,60.5830726 L36.085748,60.575795 L36.7595716,60.4690568 L37.6333608,60.1743139 L38.4792761,59.7388707 L39.2888339,59.2063927 L40.4510584,58.3003312 L41.9804926,57.0109826 L43.1245384,56.107347 L43.8771363,55.5918502 L44.6370057,55.1648975 L45.3932394,54.8543864 L45.9446598,54.7124732 L46.3021741,54.66153 L46.6766552,54.6445489 L47.0547721,54.6651688 L47.2268637,54.6894274 L47.1880825,54.6833628 L47.4389485,54.7270284 L47.8534227,54.8361924 L48.2085132,54.9744669 L48.5272463,55.1406388 L48.8144696,55.3334953 L49.073819,55.5530363 L49.3089301,55.796836 L49.5222268,56.0636814 L49.714921,56.3547855 L49.8882245,56.6677224 L50.1160641,57.1844322 L50.3499633,57.9231088 L50.5111478,58.689683 L50.6117365,59.4708123 L50.6602131,60.2422382 L50.6662726,60.977276 L50.6420344,61.6492413 L50.5984055,62.2326625 L50.5487171,62.7044937 L50.5147835,62.9652744 L50.4953929,63.0902066 L50.4820619,63.1763249 L50.4747904,63.2175647 C50.4020756,63.6299621 50.6771798,64.0241656 51.0892302,64.0969416 C51.5012806,64.1697177 51.8939404,63.8943817 51.9666552,63.4831972 L51.969079,63.4710678 L51.9787743,63.4140599 L51.9945292,63.3109606 L52.0163436,63.1617697 L52.0551249,62.863388 L52.1096609,62.3430394 L52.1557136,61.7026104 L52.1811638,60.9615079 L52.1714685,60.1452035 L52.1132967,59.274317 L51.9921054,58.3694685 L51.7921397,57.4549164 L51.4988568,56.564623 L51.2079977,55.924194 L50.9704628,55.5057319 L50.6965704,55.1066767 L50.3851088,54.7294543 L50.034866,54.3801293 L49.6422062,54.0647666 L49.2107652,53.7882177 L48.739331,53.5541215 L48.2303276,53.3673297 L47.7019336,53.2339069 L47.4510676,53.1902413 C47.4389485,53.1878155 47.4256174,53.1853896 47.4134983,53.1841767 L47.1238511,53.1502145 L46.5918213,53.1308076 L46.0719107,53.1635568 L45.5495762,53.2484621 L44.8090974,53.4546609 L43.8904674,53.8452256 L43.0203139,54.3425284 L42.1840939,54.9186719 L41.0049026,55.851418 L39.5190974,57.1055915 L38.4514021,57.9437287 L37.7763666,58.396153 L37.1340527,58.7430521 L36.5062818,58.9735095 L36.044543,59.0596278 L35.7548958,59.07297 L35.4628247,59.0511372 L35.1404559,58.9832129 L34.944126,58.9189274 L34.9926025,58.9371215 L34.8447491,58.8825394 L34.5381352,58.7284968 L34.2751501,58.5380662 L34.0485223,58.3076088 L33.8509805,58.0322729 L33.6837365,57.7084196 L33.5455785,57.3360489 L33.4365063,56.9187997 L33.3589439,56.4590978 L33.3080435,55.9702855 L33.2801695,55.1661104 L33.3189507,53.9932035 L33.4219633,52.7438817 L33.5613333,51.4472555 L33.7079748,50.1300095 L33.8328018,48.8127634 L33.9055166,47.5270536 L33.9067285,46.5955205 L33.8752188,45.9878407 L33.8097755,45.395929 L33.705551,44.8209984 L33.5564857,44.2679006 L33.3540962,43.7390615 L33.092323,43.2429716 L32.7844971,42.8075284 L32.6378557,42.6401435 C32.6269485,42.6280142 32.6172532,42.6170978 32.6063459,42.6061814 L32.4233471,42.4230284 L32.0682566,42.1125174 L31.6949874,41.8468849 L31.3071753,41.6261309 L30.9060321,41.4526814 L30.4733792,41.3216845 L29.8262176,41.2185852 L28.9790905,41.2307145 L28.1271157,41.387183 L27.2690813,41.6722224 L26.3989278,42.0688517 L25.5118076,42.5661546 L24.6065086,43.1556404 L23.6793952,43.8288186 L22.7280435,44.5747729 L21.7536655,45.3874385 L20.7550493,46.2558991 L19.7309828,47.1740899 L18.68389,48.1298817 L18.1506483,48.6211199 L18.1615556,48.6114164 L17.9385636,48.8115505 L17.5083345,49.1487461 L17.1362772,49.3816293 L16.8296632,49.5235426 L16.5848568,49.5951057 L16.3836793,49.6157256 L16.1970447,49.5914669 L16.0019267,49.5102003 L15.7934777,49.3561577 L15.5789691,49.1232744 L15.3644605,48.8115505 L15.1572234,48.4258375 L14.9608935,47.9722003 L14.7766827,47.4591293 L14.605803,46.8902634 L14.4494662,46.2789448 L14.2361695,45.2770615 L13.9901512,43.8179022 L13.7817022,42.2604953 L13.5999152,40.6436546 L13.4338832,39.0074069 L13.2763345,37.3869274 L13.1127262,35.8186041 L12.934575,34.3448896 L12.8388339,33.6644338 C12.8388339,33.6644338 12.8388339,33.6632208 12.8388339,33.6632208 L12.7418809,32.9985331 L12.558882,31.5951688 L12.3795189,30.1275189 L12.1880367,28.6295457 L11.9735281,27.1291467 L11.7214502,25.659071 L11.4160481,24.2532808 L11.1445796,23.2586751 L10.9373425,22.6243107 L10.7046552,22.0190568 L10.4440939,21.4465521 L10.1532348,20.9104353 L9.8235945,20.4143454 L9.45396105,19.9655599 L9.03585109,19.5713565 L8.5692646,19.2438644 L8.05541352,18.9927871 L7.50278121,18.8302539 L6.91863918,18.7586909 L6.31025888,18.7817366 L5.68127606,18.8945394 L5.03047881,19.0958864 L4.35301947,19.3882035 L3.64647423,19.7690647 L2.9132669,20.23847 L2.54605727,20.4992508 C2.54605727,20.4992508 2.54605727,20.4992508 2.54605727,20.4992508 C2.20550974,20.7418375 2.12431157,21.2148817 2.36669416,21.5557161 C2.60907675,21.8977634 3.08172279,21.977817 3.42227033,21.7364432" id="Shape" fill="#54B656"></path><path d="M63.9488385,52.9852555 C59.5665613,50.7740773 57.0215441,45.5026672 57.0906231,39.0183233 C57.1645498,32.0366767 61.1408362,28.479142 65.8309393,30.9365457 C72.78126,34.5765599 74.131331,43.8203281 72.6782474,48.6672114 C71.2300115,53.5007524 67.366433,54.7088344 63.9488385,52.9852555 Z" id="Shape" fill="#EDFFFC" opacity="0.508"></path></g><path d="M629.142479,515.639972 C638.790518,522.929703 655.5743,525.046273 661.214543,520.31947 C669.679755,513.226233 663.634733,493.542744 681.215954,482.321894 C698.991081,470.978538 688.987952,437.822994 673.954172,436.164913 C661.083656,434.745781 657.890266,454.827112 646.053512,465.618584 C633.746536,476.839434 626.661693,470.908188 621.847975,478.497514 C613.971753,490.911891 619.495652,508.349027 629.142479,515.639972 Z" id="Shape" fill="#0B4651" fill-rule="nonzero"></path><g id="Group" transform="translate(542.190149, 316.362776)" fill-rule="nonzero"><path d="M19.3045613,42.3162902 C19.3106208,41.8711435 17.0225292,35.9811372 17.1849255,34.2260221 C17.3485338,32.4709069 16.8055968,29.1583849 14.5514387,28.7908659 C14.2593677,31.1209117 13.9260916,34.3861293 13.9260916,34.3861293 C13.9260916,34.3861293 9.11843299,28.9594637 4.719189,29.2784653 C0.318733104,29.5986798 0.888332188,35.6621356 0.888332188,35.6621356 C0.888332188,35.6621356 6.09228637,39.5398849 8.54883391,41.1542997 C11.4004651,43.0294953 12.459677,48.1092618 12.459677,48.1092618 C19.9553585,46.6731483 19.2972898,42.760224 19.3045613,42.3162902 Z" id="Shape" fill="#FFD7B2"></path><path d="M56.5987583,225.347994 C56.5987583,225.347994 41.749189,235.454158 43.6797663,238.724227 C45.6091317,241.994297 61.7930172,237.534339 64.9149049,233.521954 C68.0367927,229.509569 64.9149049,225.495972 64.9149049,225.495972 L56.5987583,225.347994 Z" id="Shape" fill="#07494F"></path><path d="M73.5279702,235.304967 C73.5279702,235.304967 71.8943116,242.736612 72.7862795,250.019066 C73.4673746,255.59371 75.3858328,262.503793 79.8614273,262.503793 C84.543047,262.503793 86.7353975,254.927809 86.6008751,247.789694 C86.4857434,241.71047 84.3358099,235.900517 84.3358099,235.900517 C84.3358099,235.900517 73.5279702,235.304967 73.5279702,235.304967 Z" id="Shape" fill="#07494F"></path><path d="M51.3111821,117.269532 C51.3111821,117.269532 54.5166919,226.536669 54.5166919,226.536669 C61.4027812,233.389744 66.6721787,227.393 66.6721787,227.393 L68.3361352,138.469188 L72.0009599,239.267621 C72.0009599,239.267621 77.8484399,246.317192 86.3584926,239.267621 C87.3861947,222.672262 87.8394502,117.476943 87.8394502,117.476943 C87.8394502,117.476943 51.3111821,117.269532 51.3111821,117.269532 Z" id="Shape" fill="url(#linearGradient-10)"></path><path d="M62.0438832,42.4048344 C62.2705109,41.2683155 76.6159244,45.3765221 76.6159244,45.3765221 L81.0466781,122.366279 C81.0466781,122.366279 65.1706186,136.877819 53.3132623,119.868849 C53.9592119,97.3883344 61.8160435,43.5401404 62.0438832,42.4048344 Z" id="Shape" fill="#D6F2EE"></path><polygon id="Shape" fill="#3FBEA2" points="62.3856426 55.8599085 64.6519198 61.1943912 59.623693 116.344063 64.1720023 125.743087 69.8716289 117.666161 66.4903918 61.8687823 69.1250905 56.7186656 65.7220389 53.7845789"></polygon><path d="M91.7878625,52.519489 C99.0496449,60.6437192 103.417379,97.9050442 98.0898099,99.6819921 C94.2807675,100.953147 88.5665979,96.9359101 88.5665979,96.9359101 C88.5665979,96.9359101 89.8257755,121.323156 89.8257755,121.323156 C89.8257755,121.323156 86.6008751,134.041979 72.6020687,133.804244 C63.8968981,114.242049 63.2024719,89.8438864 63.2024719,89.8438864 C63.2024719,89.8438864 75.619732,45.2370347 75.619732,45.2370347 C75.619732,45.2370347 64.1101947,42.3648076 64.1101947,42.3648076 C64.1101947,42.3648076 63.5066621,43.4443186 62.7177068,47.0151956 C61.9287514,50.5860726 65.4093654,91.7360631 65.4093654,91.7360631 C65.4093654,91.7360631 63.6278534,114.242049 59.9630286,127.893618 C50.0471569,125.367077 45.9908843,119.502543 45.9908843,114.901885 C51.3087583,90.5425363 49.350307,62.4813139 48.1614204,61.9500489 C41.7867583,68.8564937 38.9908751,78.6994511 32.3859496,78.4532256 C25.7810241,78.207 13.6546231,56.7574795 9.83830928,46.2947129 C16.4044536,47.1680252 19.0755097,40.4799085 19.0755097,40.4799085 C19.0755097,40.4799085 27.6728202,60.9542303 33.9311386,64.7482871 C37.80926,57.425806 44.4869003,43.7014606 47.5845498,41.4393391 C53.1726804,37.357817 60.7228981,41.0002571 68.5009553,42.4970174 C79.2094181,44.5577918 91.7878625,52.519489 91.7878625,52.519489 Z" id="Shape" fill="#0B4651"></path><path d="M55.0596289,11.1560221 C55.0596289,11.1560221 48.9588591,20.7976325 51.5123597,29.3318344 C53.9895097,37.6064685 65.03852,36.608224 65.03852,36.608224 L64.3004651,44.169653 C64.3004651,44.169653 63.1842932,47.9637098 63.1842932,48.911011 C63.1842932,50.8080394 65.7862703,54.9004779 65.7862703,54.9004779 C65.7862703,54.9004779 75.2997869,47.6071073 75.5058121,46.5409385 C75.7118373,45.4747697 74.3557068,37.2704858 74.3557068,37.2704858 L76.287496,28.9339921 C76.287496,28.9339921 82.4294708,21.9220221 78.9100756,15.5711009 C75.3906804,9.22017981 55.0596289,11.1560221 55.0596289,11.1560221 Z" id="Shape" fill="#FFD7B2"></path><path d="M50.6615968,7.41048265 C50.6615968,7.41048265 42.667819,18.3802555 63.5999794,20.8946672 C74.5532486,22.2107003 67.5568751,33.3320899 65.8444422,31.9675394 C64.1320092,30.602989 53.0066483,28.1941025 50.992449,30.2027208 C51.6141604,33.8160505 52.9060596,39.5835505 58.7014273,41.7365079 C63.6848133,43.5874448 71.8058419,41.8371814 72.1160916,33.3575615 C72.4263414,24.8779416 73.3316403,20.2542382 75.9190745,21.4647461 C78.6167927,22.7249842 75.9857297,26.6973423 75.9857297,26.6973423 C75.9857297,26.6973423 71.2386667,30.7424763 74.867134,34.7051309 C75.0973975,32.2622823 76.7637778,29.7369543 79.433622,27.9272571 C82.1034662,26.1175599 88.4017778,12.7971215 80.463748,8.49241956 C76.5007927,6.34310095 78.6592096,4.38906467 73.1498534,0.89338959 C67.8016816,-2.50039905 50.6615968,7.41048265 50.6615968,7.41048265 Z" id="Shape" fill="#0B4651"></path><path d="M63.9477984,42.7796309 C63.9477984,42.7796309 61.865732,50.3568281 65.7220389,53.7845789 C71.9524834,50.7194953 75.619732,45.2370347 75.619732,45.2370347 C75.619732,45.2370347 75.2307079,54.9004779 69.0051111,59.9838833 C67.7095762,57.4840268 65.6032715,54.6166514 65.6032715,54.6166514 C65.6032715,54.6166514 64.3137961,55.6452192 62.8340504,57.1262114 C59.6164215,50.2355347 63.9477984,42.7796309 63.9477984,42.7796309 Z" id="Shape" fill="#D6F2EE"></path><path d="M88.6877892,83.9466025 L88.4454066,74.1715694" id="Shape" stroke="#D6F2EE" stroke-width="0.606375" fill-opacity="0" fill="#000000"></path><path d="M64.6579794,85.494306 C64.6579794,85.494306 68.5785178,59.5508659 68.5785178,59.5508659 C68.5785178,59.5508659 36.5040298,50.6127571 36.5040298,50.6127571 C36.5040298,50.6127571 32.3035395,75.1880079 32.3035395,75.1880079 C32.3035395,75.1880079 64.6579794,85.494306 64.6579794,85.494306 Z" id="Shape" fill="#63D05C"></path><path d="M50.0144353,70.0864085 C48.4995441,69.7358707 47.5893975,68.0765773 47.9808454,66.3808959 C48.3735052,64.6864274 49.9199061,63.5972129 51.4360092,63.9489637 C52.9509003,64.2995016 53.8622589,65.958795 53.4695991,67.6544763 C53.0769393,69.3489448 51.5305384,70.4381593 50.0144353,70.0864085 Z" id="Shape" fill="#CDE5CD"></path><path d="M75.2246483,75.3590315 C72.9341329,72.7900379 70.3891157,72.4795268 70.2267194,70.1130931 C70.1564284,69.1027192 70.2158121,67.0104085 69.8716289,65.6034054 C69.5286575,64.1976151 67.9737732,63.3849495 67.9737732,63.3849495 C67.9737732,63.3849495 67.2320825,68.869836 67.2320825,68.869836 C67.2320825,68.869836 58.9535052,65.7901972 58.9535052,65.7901972 C58.9535052,65.7901972 56.1345956,74.4226467 62.4147285,76.7284338 C69.1905338,79.2173738 72.4917847,83.3401356 72.4917847,83.3401356 C72.4917847,83.3401356 75.3725017,82.0071215 75.2246483,75.3590315 Z" id="Shape" fill="#FFD7B2"></path><path d="M89.1725544,97.542377 L71.1332302,84.7459259 C71.1332302,84.7459259 75.8330286,85.439724 75.8330286,75.9654984 C82.8209187,79.928153 93.7269233,87.2845962 93.7269233,87.2845962" id="Shape" stroke="#D6F2EE" stroke-width="0.606375" fill-opacity="0" fill="#000000"></path></g><g id="Group" transform="translate(465.839633, 339.621451)" fill-rule="nonzero"><path d="M4.59557388,0.356602524 C5.89959221,1.26630284 100.748747,65.45597 100.748747,65.45597 C104.396605,68.2384401 105.058309,71.3265694 105.058309,73.7403076 L105.116481,150.813757 C105.133448,154.881937 103.239228,157.053088 100.748747,155.18517 L4.59557388,90.0845899 C4.59557388,90.0845899 0.387812142,88.0019826 0.255713631,82.8166909 C0.209660939,81.0591498 0.227839633,4.72680284 0.227839633,4.72680284 C0.172091638,0.382074132 3.29155556,-0.554310726 4.59557388,0.356602524 Z" id="Shape" fill="url(#linearGradient-11)"></path><path d="M9.07116838,57.0309322 C9.07116838,57.0309322 36.807008,75.6640205 36.807008,75.6640205 C36.807008,75.6640205 36.807008,108.939645 36.807008,108.939645 L9.07116838,90.3053438 L9.07116838,57.0309322 Z" id="Shape" fill="#0D6574" opacity="0.488"></path><path d="M22.2301191,84.8992981 C19.6329897,83.5893297 18.12537,80.4660252 18.1653631,76.6234511 C18.2102039,72.4861341 20.5661627,70.3780552 23.345079,71.8347886 C27.4631592,73.9913849 28.2630218,79.4689937 27.4025636,82.3412208 C26.5445292,85.2049574 24.2552257,85.9205883 22.2301191,84.8992981 Z" id="Shape" fill="#FFFFFF" opacity="0.508"></path><path d="M14.227858,90.1986057 L30.8371249,101.085899 C30.8371249,101.085899 29.3355647,92.5407808 22.2931386,88.2251625 C18.5871088,85.9533375 14.227858,90.1986057 14.227858,90.1986057 Z" id="Shape" fill="#FFFFFF" opacity="0.5"></path><path d="M8.3888614,20.4670442 L40.5990836,43.0591483 C40.8741879,43.2507918 41.2510928,43.1852934 41.4437869,42.9099574 C41.6352692,42.6358344 41.568614,42.258612 41.2947216,42.0657555 C41.2947216,42.0657555 41.2947216,42.0657555 41.2947216,42.0657555 L9.08449943,19.4736514 C8.80939519,19.280795 8.43249026,19.3475063 8.23979611,19.6216293 C8.04831386,19.8969653 8.11496907,20.2741877 8.3888614,20.4670442" id="Shape" fill="#FFFFFF"></path><path d="M8.39007331,33.2816893 L13.3589164,36.7518927 L18.3289714,40.2220962 L23.2978144,43.6922997 L28.2678694,47.1625032 L33.2379244,50.6327066 L38.2067675,54.1029101 L43.1768225,57.5731136 L48.1456655,61.043317 L53.1157205,64.5135205 L58.0845636,67.983724 L63.0546186,71.4539274 L68.0246735,74.9241309 L68.1652554,75.0223785 C68.4391478,75.2140221 68.8172646,75.1460978 69.0087468,74.8719748 C69.2002291,74.5966388 69.132362,74.2194164 68.8584696,74.0277729 L68.7178877,73.9295252 L63.7478328,70.4593218 L58.7789897,66.9891183 L53.8089347,63.5189148 L48.8388797,60.0487114 L43.8700367,56.5785079 L38.8999817,53.1083044 L33.9311386,49.6381009 L28.9610836,46.1678975 L23.9922405,42.697694 L19.0221856,39.2274905 L14.0521306,35.7572871 L9.08328751,32.2870836 C9.08328751,32.2870836 9.08328751,32.2870836 9.08328751,32.2870836 C8.80818328,32.0954401 8.43127835,32.1621514 8.23979611,32.4374874 C8.04831386,32.7116104 8.11496907,33.0900457 8.39007331,33.2816893" id="Shape" fill="#FFFFFF"></path><path d="M9.33051775,45.6560394 L51.3851088,75.0223785 C51.6602131,75.2140221 52.037118,75.1460978 52.2286002,74.8719748 C52.4200825,74.5966388 52.3534273,74.2194164 52.078323,74.0277729 L10.023732,44.6614338 C10.023732,44.6614338 10.023732,44.6614338 10.023732,44.6614338 C9.74862772,44.4697902 9.37172279,44.5365016 9.18024055,44.8118375 C8.9887583,45.0859606 9.05541352,45.4643959 9.33051775,45.6560394" id="Shape" fill="#FFFFFF"></path><path d="M86.6614708,84.9842035 C84.5660733,83.9277382 83.3493127,81.4072618 83.3832463,78.3082161 C83.4183918,74.9702224 85.3186712,73.2696893 87.5607102,74.4438091 C90.8837755,76.1843691 91.5297251,80.6030868 90.835299,82.9197902 C90.1420848,85.230429 88.2951294,85.8089984 86.6614708,84.9842035 Z" id="Shape" fill="#FFFFFF" opacity="0.508"></path><path d="M79.5935945,89.5751577 L94.8733929,97.8910315 C94.8733929,97.8910315 93.4918121,91.3630221 87.0141375,88.0662681 C83.6038144,86.3317729 79.5935945,89.5751577 79.5935945,89.5751577 Z" id="Shape" fill="#FFFFFF" opacity="0.5"></path><path d="M72.9098946,126.276107 C71.5901214,125.610207 70.8229805,124.022476 70.843583,122.069653 C70.8666094,119.967639 72.0639794,118.896618 73.4770699,119.636508 C75.5700435,120.733 75.9760344,123.51547 75.5385338,124.975842 C75.1022451,126.431363 73.9388087,126.795243 72.9098946,126.276107 Z" id="Shape" fill="#FFFFFF" opacity="0.508"></path><path d="M82.5809599,133.374196 C81.2611867,132.708295 80.4940458,131.120565 80.5158603,129.167741 C80.5376747,127.065727 81.7350447,125.993494 83.1481352,126.733383 C85.2411088,127.829875 85.6470997,130.613558 85.2095991,132.073931 C84.7733104,133.529451 83.609874,133.893331 82.5809599,133.374196 Z" id="Shape" fill="#FFFFFF" opacity="0.508"></path><path d="M91.2873425,139.409754 C89.9675693,138.743853 89.2004284,137.156123 89.2222428,135.2033 C89.2440573,133.101285 90.4414273,132.029052 91.8545178,132.768942 C93.9474914,133.865434 94.3534822,136.649117 93.9159817,138.109489 C93.479693,139.565009 92.3162566,139.92889 91.2873425,139.409754 Z" id="Shape" fill="#FFFFFF" opacity="0.508"></path><path d="M74.2393631,102.697888 L94.0020275,116.046224 C94.5570836,116.421021 95.3096816,116.274256 95.6841627,115.718732 C96.0586438,115.164421 95.9132142,114.409976 95.3581581,114.03518 L75.5954937,100.686844 C75.5954937,100.686844 75.5954937,100.686844 75.5954937,100.686844 C75.0404376,100.312047 74.2878396,100.458812 73.9133585,101.014336 C73.5388774,101.568647 73.684307,102.323091 74.2393631,102.697888" id="Shape" fill-opacity="0.641" fill="#07494F"></path></g><g id="Group" transform="translate(736.884307, 303.233438)" fill-rule="nonzero"><path d="M38.4718328,158.370334 L33.9683643,163.862498 L40.1709347,171.182554 C40.1709347,171.182554 44.4938282,166.456964 45.3724651,165.943893 C46.2511019,165.430822 38.4718328,158.370334 38.4718328,158.370334 Z" id="Shape" fill="#FFD7B2"></path><path d="M45.8851042,186.528591 C45.8851042,186.528591 47.0400573,186.845167 47.7369072,182.529549 C48.3392279,178.804629 43.1231546,166.566128 41.3949668,164.253063 C39.6679908,161.941211 37.1835693,160.930838 34.1283368,161.637978 C32.1444353,162.09768 30.074488,164.375569 30.074488,164.375569 L45.8851042,186.528591 Z" id="Shape" fill="#3FBEA2"></path><path d="M58.2344971,214.036716 C58.2344971,214.036716 68.2764078,232.509697 76.4192509,230.33612 C84.5620939,228.162543 71.9012394,209.82541 71.9012394,209.82541 L58.2344971,214.036716 Z" id="Shape" fill="url(#linearGradient-12)"></path><path d="M11.3055922,114.086123 C11.3055922,114.086123 7.36687514,130.611132 16.7773792,137.455718 C26.1878832,144.300303 55.6167652,148.23506 55.6167652,148.23506 L58.0587698,213.483618 C58.0587698,213.483618 66.185858,221.957174 73.9214983,212.584834 C75.2109737,199.953342 76.9415853,139.615953 73.9214983,134.44279 C72.7435189,132.423256 46.2511019,114.086123 46.2511019,114.086123 L11.3055922,114.086123 Z" id="Shape" fill="#0B4651"></path><path d="M13.6833654,59.8691972 C13.6833654,59.8691972 4.9382016,61.9833407 8.64059565,51.211276 C11.6606827,42.4259968 19.8629095,37.8386814 25.2195647,38.9582192 C30.5762199,40.0765442 29.5485178,47.6379732 29.5485178,47.6379732 L13.6833654,59.8691972 Z" id="Shape" fill="#0D6574"></path><path d="M20.649441,43.943377 C20.649441,43.943377 7.2388174,49.2393424 4.76569548,57.3115142 C2.14433584,65.867528 -0.821517035,76.6330806 0.95101123,94.3118908 C1.20808044,96.8758431 8.3085315,99.328358 8.39578923,101.697218 C8.68180069,109.490317 9.31805498,114.942454 9.31805498,114.942454 C22.9302612,134.794541 47.2630493,122.052672 53.5783276,114.086123 C50.2807125,100.845738 53.5783276,80.5363754 53.5783276,80.5363754 C53.5783276,80.5363754 56.036613,56.521364 51.8567253,48.8180217 C47.6768375,41.1158924 35.6771615,41.5211483 35.6771615,41.5211483 L20.649441,43.943377 Z" id="Shape" fill="url(#linearGradient-13)"></path><path d="M83.3550286,114.086123 C83.3550286,114.086123 95.9128706,127.658852 87.4646254,135.639956 C77.3899931,145.156634 51.777425,161.416011 44.2272073,167.993751 C43.4709737,161.21709 35.6759496,160.420192 35.6759496,160.420192 L62.454378,127.187021 L83.3550286,114.086123 Z" id="Shape" fill="#0B4651"></path><path d="M49.7074777,23.6898091 C49.7074777,23.6898091 50.5303666,40.0910994 43.1679954,42.3471562 C38.6839175,43.7214101 35.5705132,42.7328691 35.5705132,42.7328691 C35.5705132,42.7328691 40.8556655,52.5636972 36.5509507,54.7942823 C32.0656609,57.1194763 19.6556724,45.2157445 19.6556724,45.2157445 L22.9908568,33.0585095 L29.5485178,19.8399574 L49.7074777,23.6898091 Z" id="Shape" fill="#FFD7B2"></path><path d="M39.0777892,58.5046467 C39.0777892,58.5046467 43.423709,66.1800915 42.9025865,77.3148233 C42.5135624,85.6100773 38.2948935,103.458397 43.1631478,109.612823" id="Shape" stroke="#0B4651" stroke-width="0.746496" stroke-linecap="round" stroke-linejoin="round"></path><path d="M33.2266735,28.2759117 C38.3227675,29.8151246 54.5672486,30.5562271 51.9180069,20.6975016 C56.3608797,19.4590962 60.2523322,10.1740883 54.1333837,4.10820662 C45.4403322,-4.5096877 36.1958603,6.71844006 33.386646,5.80267508 C9.36410767,0.81751735 4.38678121,26.4298265 17.7759954,29.0279306 C14.3584009,29.0982808 15.2770309,34.2847855 19.6496128,33.689235 C17.1882176,38.2438013 22.6018328,37.2843707 22.6018328,37.2843707 C22.6018328,37.2843707 27.8906208,36.5687397 28.9946735,31.7570315 C29.9775349,27.4693107 28.4541604,26.2539511 28.4541604,26.2539511 C28.4541604,26.2539511 30.7713379,27.5348091 33.2266735,28.2759117 Z" id="Shape" fill="#0B4651"></path><path d="M27.0931821,33.0585095 C24.8269049,33.0585095 22.9908568,30.7163344 22.9908568,27.8283391 C22.9908568,24.9391309 24.8269049,22.5981688 27.0931821,22.5981688 C29.3582474,22.5981688 31.1942955,24.9391309 31.1942955,27.8283391 C31.1942955,30.7163344 29.3582474,33.0585095 27.0931821,33.0585095 Z" id="Shape" fill="url(#linearGradient-14)"></path><path d="M25.8691501,33.0585095 C23.8367721,33.0585095 22.1885704,30.888571 22.1885704,28.2116262 C22.1885704,25.5346814 23.8367721,23.3647429 25.8691501,23.3647429 C27.9015281,23.3647429 29.5485178,25.5346814 29.5485178,28.2116262 C29.5485178,30.888571 27.9015281,33.0585095 25.8691501,33.0585095 Z" id="Shape" fill="url(#linearGradient-15)"></path><path d="M24.6390584,29.8151246 C23.9373608,29.8151246 23.3677617,29.0546151 23.3677617,28.1170174 C23.3677617,27.1794196 23.9373608,26.4189101 24.6390584,26.4189101 C25.340756,26.4189101 25.9103551,27.1794196 25.9103551,28.1170174 C25.9103551,29.0546151 25.340756,29.8151246 24.6390584,29.8151246 Z" id="Shape" fill="#FAFAFA"></path><path d="M28.5171798,23.8729621 C28.5171798,23.8729621 24.9250699,9.9897224 33.386646,5.80267508 C32.6546506,5.33326972 31.2524674,5.19378233 30.282937,5.51642271 C28.4056838,6.58380442 23.1908225,12.4544038 26.0679038,23.2798375 C27.164685,23.8523423 28.5171798,23.8729621 28.5171798,23.8729621 Z" id="Shape" fill="#FAFAFA"></path><g transform="translate(19.602520, 71.563091)" id="Shape"><polygon fill="url(#linearGradient-16)" points="0.0531523482 47.806571 0.0531523482 45.9362271 45.8889118 17.4977823 75.6365269 36.967795 29.8007675 67.2765836"></polygon><polygon fill="url(#linearGradient-17)" points="0.0531523482 45.9714022 45.8889118 15.6614006 75.6365269 35.1314132 29.8007675 65.4414148"></polygon><polygon fill-opacity="0.666" fill="#07494F" points="18.0124903 35.8931356 33.6401077 25.8561088 43.7813952 32.3040647 28.1537778 42.3410915"></polygon><polygon fill="url(#linearGradient-18)" points="37.102543 31.7254953 82.5710928 0.795684543 75.6365269 36.967795 29.6432188 67.3808959"></polygon><path d="M57.1451592,37.4323486 C54.4971294,38.5458218 53.8742062,35.7597129 54.3117068,33.8044637 C54.7976838,31.6296735 55.9405178,30.0928864 57.4941901,29.4755032 C59.0563459,28.8532681 59.9507377,30.4458502 59.6889645,32.4957082 C59.2017755,36.3164495 57.1451592,37.4323486 57.1451592,37.4323486 C57.1451592,37.4323486 58.4382703,36.8877413 57.1451592,37.4323486 Z" fill="#FFFFFF"></path></g><path d="M46.2511019,73.53047 L52.2791569,91.2041278 C52.2791569,91.2041278 63.0712417,98.9596262 63.0712417,98.9596262 C63.0712417,98.9596262 74.356575,91.3739385 74.356575,91.3739385 L62.454378,84.9963328 C62.454378,84.9963328 52.6148568,47.9303987 52.2791569,49.9798322 C51.943457,52.0292657 46.2511019,73.53047 46.2511019,73.53047 Z" id="Shape" fill="url(#linearGradient-19)"></path><path d="M19.6556724,108.427787 C32.7843253,117.073579 43.8369714,120.457664 43.8369714,120.457664 C43.8369714,120.457664 41.9718373,113.911461 49.6141604,109.006356 C41.4882841,104.233462 25.0099038,96.0849732 21.8916518,93.8410457 C20.8301657,93.0775502 19.2734993,90.9554703 17.6808814,88.4865225 C15.6187643,85.2897359 11.473813,88.59317 5.24602749,98.3968249 L19.6556724,108.427787 Z" id="Shape" fill="url(#linearGradient-20)"></path><path d="M5.24602749,98.3968249 L19.6556724,108.427787 C32.7843253,117.073579 43.8369714,120.457664 43.8369714,120.457664 C43.8369714,120.457664 41.9718373,113.911461 49.6141604,109.006356 C41.4882841,104.233462 25.0099038,96.0849732 21.8916518,93.8410457 C20.3516338,92.7333563 18.4285506,90.7435938 17.0360501,87.5630794 C15.6046109,84.2936279 16.8342362,78.6111913 17.5165956,72.4898809" id="Shape-Copy" stroke="#0B4651" stroke-width="0.746496" stroke-linecap="round" stroke-linejoin="round"></path><path d="M44.2272073,117.067514 C44.2272073,117.067514 46.4341008,117.341637 47.22548,119.597694 C48.0515979,121.951482 50.8299134,123.30769 52.2426424,123.86068 L55.1154007,111.136391 C54.2246448,110.69256 52.2128698,109.762287 49.6141604,109.006356 C44.6113837,113.153377 44.2272073,117.067514 44.2272073,117.067514 Z" id="Shape" fill="#FFD7B2"></path><polyline id="Shape" stroke="#0B4651" stroke-width="0.746496" stroke-linecap="round" stroke-linejoin="round" points="48.3913402 75.9987902 52.8851134 91.8105946 62.5599839 98.8173443"></polyline><path d="M30.3083872,163.997134 C30.3083872,163.997134 28.8601512,168.079869 32.8630997,174.478095 C35.4626529,178.632393 44.6513769,187.870096 46.125063,186.252043 C47.7793242,184.436281 41.4289003,172.555595 35.3572165,166.242274 C32.3080435,163.072879 30.3083872,163.997134 30.3083872,163.997134 Z" id="Shape" fill="#07494F"></path><g transform="translate(56.171821, 145.552050)" id="Shape"><path d="M0.0509003436,13.4247508 L20.032921,0.893932177" fill="#FFD7B2"></path><path d="M0.0509003436,13.4247508 L20.032921,0.893932177" stroke="#D6F2EE" stroke-width="1.21275" fill-opacity="0" fill="#000000"></path></g><path d="M47.58663,147.399349 L60.3238351,131.837409" id="Shape" stroke="#D6F2EE" stroke-width="1.21275" fill-opacity="0" fill="#000000"></path></g><g id="Group-7" transform="translate(839.000000, 128.000000)" fill-rule="nonzero"><path d="M44.7459977,215.535588 C43.2904903,215.931005 41.3271913,219.0628 43.0359885,221.727615 C44.7459977,224.393644 48.8689255,225.87221 52.2840962,223.25106 C54.1080252,221.851334 62.5041581,214.681683 62.5041581,214.681683 C62.5041581,214.681683 62.0230286,212.502041 59.498614,211.758513 C56.9741993,211.016197 48.8689255,214.775079 48.8689255,214.775079 C48.8689255,214.775079 45.5616151,215.313621 44.7459977,215.535588 Z" id="Shape" fill="#07494F"></path><path d="M36.3304742,166.028484 C36.3304742,166.028484 42.2433975,216.091112 43.9727973,217.654584 C46.6002245,220.029508 50.7473906,217.654584 50.7473906,217.654584 L50.226268,164.634823 L36.3304742,166.028484 Z" id="Shape" fill="#FFD7B2"></path><path d="M19.7224192,205.156514 C18.2681237,205.551931 16.3036128,208.683726 18.013622,211.348541 C19.7224192,214.014569 23.8453471,215.493136 27.2605178,212.871986 C29.0844467,211.47226 37.4817915,204.302609 37.4817915,204.302609 C37.4817915,204.302609 36.9994502,202.122967 34.4750355,201.379438 C31.9506208,200.637123 23.8453471,204.396005 23.8453471,204.396005 C23.8453471,204.396005 20.5380367,204.934547 19.7224192,205.156514 Z" id="Shape" fill="#07494F"></path><path d="M13.8119198,154.615991 L18.918921,206.818233 C18.918921,206.818233 25.3869003,209.447874 27.0557045,206.818233 C28.552417,204.46029 26.922394,155.64941 26.922394,155.64941 L13.8119198,154.615991 Z" id="Shape" fill="#FFD7B2"></path><path d="M74.2160848,21.2442208 C74.2160848,21.2442208 72.6575647,15.4209259 71.2081168,13.1175647 C69.7598809,10.8154164 69.4156976,9.59641798 71.2081168,9.19008517 C73.0005361,8.78375237 74.4863414,14.0842729 75.0268545,10.6795678 C75.5673677,7.27486278 74.8923322,1.87609464 76.7829164,1.06342902 C78.6735006,0.250763407 84.4918946,4.02177445 83.7780779,8.4113817 C83.1260687,12.4213407 80.0199359,21.7864022 80.0199359,21.7864022 L74.2160848,21.2442208 Z" id="Shape" fill="#FFD7B2"></path><path d="M12.5406231,110.573153 C12.5406231,110.573153 9.08061168,141.635174 12.111606,154.615991 C16.968953,175.427508 49.1476655,176.608905 52.3543872,170.675233 C54.7770011,166.189804 48.7840916,110.260216 48.7840916,110.260216 L12.5406231,110.573153 Z" id="Shape" fill="#0B4651"></path><path d="M12.3964055,62.3177965 C12.3964055,62.3177965 0.0579198167,72.873959 0.0579198167,85.067582 C0.0579198167,96.8682145 17.3494937,104.781394 17.3494937,104.781394 L12.3964055,62.3177965 Z" id="Shape" fill="#6EC867"></path><path d="M41.9698691,23.0648344 C41.9698691,23.0648344 50.8959728,38.124432 42.179908,42.2307946 C33.4638432,46.3382578 27.688323,28.2255779 27.688323,28.2255779 L41.9698691,23.0648344 Z" id="Shape" fill="#FFD7B2"></path><path d="M30.4187629,48.8784905 C30.4187629,48.8784905 40.2788866,54.7636451 47.8424353,54.7211924 C58.7011753,54.6593328 65.5836289,48.6456073 65.5836289,48.6456073 L72.8987354,19.7292666 C72.8987354,19.7292666 76.1551455,16.3015158 79.6587858,19.6746845 C81.6269324,21.5705 76.7477709,53.556776 73.3229049,60.2048659 C68.5007033,69.5638628 46.7614089,73.2912082 46.7614089,73.2912082 L50.7473906,128.736836 C50.7473906,128.736836 20.6046919,135.788833 10.8669714,117.991456 C5.29580756,107.808877 12.3964055,62.3177965 12.3964055,62.3177965 L30.4187629,48.8784905 Z" id="Shape" fill="#69D462"></path><path d="M40.1989003,40.4995442 C40.1989003,40.4995442 40.733354,50.2260599 40.6921489,54.5380394 C37.2163826,59.3194243 31.1846919,56.230082 30.0927583,51.525112" id="Shape" fill="#FFD7B2"></path><path d="M23.2490859,16.314858 C28.3463918,13.989664 34.0847995,3.7901041 41.5610905,8.50599054 C52.2695533,15.2583927 47.3685773,25.2553927 41.3502176,27.4968943 C35.331858,29.7383959 47.0752944,35.7302886 44.3678809,42.7750079 C41.6592554,49.8209401 32.7444238,47.2167713 35.8990332,54.3512476 C47.3201008,80.1903754 14.2433608,90.6458644 3.57852692,73.9279984 C-7.5553173,56.4738817 11.2414525,50.6287539 11.6535029,43.4299921 C12.0764605,36.0553549 3.26706529,33.8417508 8.74612371,22.7992019 C12.3236907,15.5870978 18.1517801,18.6388391 23.2490859,16.314858 Z" id="Shape" fill="#0B4651"></path></g><polygon id="Shape" fill="#D6F2EE" fill-rule="nonzero" points="822.145675 97.7782287 834.807741 106.7503 834.807741 147.845708 822.145675 138.873637"></polygon><path d="M919.553178,203.46236 L963.628027,231.934767 C963.768609,232.025737 963.956456,231.98571 964.046137,231.845009 C964.137031,231.704309 964.097038,231.516304 963.956456,231.425334 L919.881606,202.952927 C919.881606,202.952927 919.881606,202.952927 919.881606,202.952927 C919.741024,202.861957 919.553178,202.903197 919.463496,203.043897 C919.372603,203.184598 919.412596,203.37139 919.553178,203.46236" id="Shape" fill="#FFFFFF" fill-rule="nonzero"></path><path d="M919.553178,191.178979 L963.628027,219.651386 C963.768609,219.741144 963.956456,219.701117 964.046137,219.560416 C964.137031,219.419716 964.097038,219.231711 963.956456,219.140741 L919.881606,190.669547 C919.881606,190.669547 919.881606,190.669547 919.881606,190.669547 C919.741024,190.578577 919.553178,190.618604 919.463496,190.759304 C919.372603,190.900005 919.412596,191.088009 919.553178,191.178979" id="Shape" fill="#FFFFFF" fill-rule="nonzero"></path><path d="M919.553178,180.144921 L963.628027,208.617328 C963.768609,208.708298 963.956456,208.668271 964.046137,208.527571 C964.137031,208.386871 964.097038,208.198866 963.956456,208.107896 L919.881606,179.635489 C919.881606,179.635489 919.881606,179.635489 919.881606,179.635489 C919.741024,179.544519 919.553178,179.585759 919.463496,179.726459 C919.372603,179.867159 919.412596,180.053951 919.553178,180.144921" id="Shape" fill="#FFFFFF" fill-rule="nonzero"></path><path d="M952.080921,143.812703 C946.821219,141.158804 943.767198,134.833355 943.849608,127.051172 C943.93929,118.672226 948.710591,114.402699 954.339927,117.351341 C962.680312,121.720328 964.301851,132.81382 962.557908,138.63105 C960.818813,144.4313 956.182034,145.881968 952.080921,143.812703 Z" id="Shape" fill="url(#linearGradient-21)" fill-rule="nonzero" opacity="0.508"></path><path d="M931.714724,171.602229 L931.953471,171.471232 L932.387336,171.25533 L932.784843,171.086732 L933.154477,170.956948 L933.497448,170.864765 L933.812545,170.807757 L934.100981,170.782285 L934.363966,170.784711 L934.602712,170.812609 L934.822069,170.862339 L935.13959,170.98242 L935.509223,171.212877 L935.829168,171.512472 L936.127299,171.890907 L936.403615,172.345757 L936.654481,172.869744 L936.879897,173.449527 L937.17318,174.402893 L937.484641,175.728629 L937.615528,176.376336 L937.611892,176.362994 L937.674912,176.703828 L937.785196,177.410968 L937.937897,178.571746 L938.153617,180.203142 L938.354795,181.417289 L938.523251,182.195992 L938.728064,182.921326 L938.982566,183.586014 L939.304935,184.177926 L939.621244,184.584259 L939.889077,184.831697 L940.181148,185.024554 L940.513212,185.168893 L940.877998,185.251372 L941.262174,185.264715 L941.653622,185.210132 L942.043858,185.092478 L942.432882,184.917815 L942.825542,184.688571 L943.036415,184.546658 C943.042474,184.541806 943.048534,184.538167 943.054593,184.533315 L943.392717,184.28709 L944.033819,183.786148 L944.616749,183.293697 L945.137872,182.81944 L945.60567,182.371868 L946.026204,181.953405 L946.405533,181.57497 L946.748504,181.2402 L947.061178,180.956374 L947.344765,180.730768 L947.601691,180.565809 L947.831954,180.463923 L948.041615,180.415405 L948.246428,180.411767 L948.476692,180.449368 L948.760279,180.536699 L948.903285,180.597345 L948.854809,180.576726 L948.978424,180.633733 L949.123853,180.731981 L949.230502,180.836293 L949.33109,180.963651 L949.486215,181.228071 L949.663155,181.675644 L949.803737,182.219038 L949.916444,182.854615 L950.047331,183.9317 L950.208515,185.457571 L950.384243,186.600155 L950.562394,187.343683 L950.810836,188.039907 L951.068974,188.540849 L951.289542,188.863489 L951.539196,189.148528 L951.828843,189.403244 L952.162119,189.621573 L952.532964,189.792596 L952.75838,189.867798 C952.775347,189.873863 952.792314,189.878715 952.810493,189.882353 L953.063782,189.943 L953.644289,190.020628 L954.242974,190.020628 L954.828328,189.945426 L955.654852,189.724672 L956.722548,189.280738 L957.764793,188.733705 L958.791283,188.159987 L959.818985,187.622658 L960.592186,187.281823 L961.107249,187.097457 L961.358115,187.022256 L961.315698,187.033172 L961.439313,187.002849 L961.592014,186.990719 L961.788344,187.024681 L962.035574,187.145975 L962.287652,187.348535 L962.572451,187.652981 L962.86937,188.052036 L963.160229,188.526293 L963.435333,189.05392 L963.688623,189.609443 L963.916463,190.171032 L964.114005,190.716852 L964.28246,191.222645 L964.418195,191.667792 L964.521207,192.030459 L964.590286,192.290027 L964.61816,192.40283 L964.625432,192.434366 L964.625432,192.435579 C964.722385,192.843125 965.129588,193.095415 965.53679,192.999593 C965.943993,192.903771 966.196071,192.495013 966.10033,192.087467 L966.097906,192.078976 L966.086999,192.035311 L966.054277,191.901888 L965.977927,191.616849 L965.866431,191.223858 L965.719789,190.743536 L965.53679,190.196503 L965.319858,189.600953 L965.066568,188.978718 L964.775709,188.346779 L964.447281,187.724544 L964.0728,187.130207 L963.646206,186.581961 L963.150534,186.101639 L962.56518,185.725629 L961.922866,185.514579 L961.416286,185.485468 L961.08301,185.530347 L960.959395,185.559457 C960.944852,185.563096 960.931521,185.566735 960.916978,185.571587 L960.592186,185.671047 L959.978958,185.89544 L959.117288,186.278727 L958.052016,186.836677 L957.059459,187.3922 L956.132346,187.884651 L955.253709,188.263087 L954.619879,188.443814 L954.224795,188.504461 L953.834559,188.51659 L953.414025,188.468073 L953.160735,188.407426 L953.212848,188.421981 L953.141345,188.403787 L952.965617,188.335863 L952.808069,188.246106 L952.662639,188.13209 L952.526905,187.988964 L952.406926,187.830069 L952.233622,187.519558 L952.033656,186.985868 L951.880955,186.368484 L951.714923,185.298677 L951.551315,183.747334 L951.407097,182.581705 L951.265304,181.821196 L951.06049,181.088584 L950.768419,180.419044 L950.475136,179.970259 L950.223058,179.690071 L949.928564,179.447484 L949.623162,179.263118 L949.500758,179.204897 C949.483792,179.19762 949.468037,179.190342 949.452282,179.184278 L949.160211,179.075114 L948.631817,178.940478 L948.116754,178.900451 L947.627141,178.957459 L947.178733,179.095733 L946.77153,179.298293 L946.397049,179.546945 L946.041959,179.83441 L945.691716,180.153412 L945.334202,180.502737 L944.958509,180.877533 L944.557365,181.276588 L944.118653,181.697476 L943.637523,182.136558 L943.10307,182.591409 L942.500749,183.062027 L942.162625,183.308252 L942.182016,183.29491 L942.052341,183.384667 L941.795416,183.542349 L941.577271,183.649087 L941.401544,183.714585 L941.264598,183.748547 L941.159162,183.76189 L941.06948,183.758251 L940.98101,183.736418 L940.884057,183.689114 L940.793164,183.623615 L940.627132,183.438036 L940.394444,183.036555 L940.184784,182.506503 L940.002997,181.873352 L939.849084,181.16985 L939.655178,180.005434 L939.439457,178.372825 L939.281908,177.176872 L939.164353,176.429705 L939.102545,176.090084 C939.101333,176.085232 939.101333,176.08038 939.100121,176.076741 L938.958328,175.379304 L938.620204,173.954107 L938.289352,172.895216 L938.015459,172.203844 L937.688243,171.544008 L937.296795,170.927838 L936.827785,170.372314 L936.271517,169.902909 L935.64617,169.553584 L935.131107,169.377708 L934.751778,169.303719 L934.357906,169.268544 L933.950703,169.273396 L933.53017,169.318274 L933.096305,169.40318 L932.650321,169.528112 L932.188582,169.693071 L931.711088,169.898057 L931.225111,170.141856 L930.986364,170.272853 C930.986364,170.272853 930.986364,170.272853 930.986364,170.272853 C930.619155,170.4742 930.484632,170.935115 930.687022,171.302634 C930.888199,171.66894 931.348726,171.803576 931.714724,171.602229" id="Shape" fill="#54B656" fill-rule="nonzero"></path><g id="Group" transform="translate(476.746850, 26.684543)" fill-rule="nonzero"><path d="M199.337865,48.0867587 C199.337865,48.0867587 55.6049897,89.9924069 17.3109645,78.0328801 C8.41188774,75.2540489 0.0484765178,80.3095568 0.0484765178,89.8868817 C0.0484765178,96.4779637 0.0484765178,160.537847 0.0484765178,160.537847 L10.5133448,153.350002 C10.5133448,153.350002 10.8211707,102.656648 10.6927079,97.2942681 C10.3933654,84.7646625 18.0393242,91.7414574 18.0393242,91.7414574 L84.3830745,136.275533 L199.337865,56.4754085 L199.337865,48.0867587 Z" id="Shape" fill="url(#linearGradient-22)"></path><path d="M132.103359,3.01050158 C128.855432,0.186791798 120.049672,-0.32627918 111.67293,5.31992744 C104.583239,10.0988864 13.5479748,73.4079637 3.16309278,80.8881262 C9.84679267,75.8447476 16.1220779,79.316164 16.1220779,79.316164 L84.264307,126.094167 L199.337865,48.0867587 C199.337865,48.0867587 134.199968,4.83232808 132.103359,3.01050158 Z" id="Shape" fill="#44D1C0"></path></g><path d="M595.161652,198.224912 C595.161652,198.224912 583.641207,194.017244 588.176186,202.943224 C592.479688,211.411927 604.910279,220.052868 610.006373,219.744782 C618.869093,219.207453 611.626701,205.705074 611.626701,205.705074 L595.161652,198.224912 Z" id="Shape" fill="#07494F" fill-rule="nonzero"></path><polygon id="Shape" fill="url(#linearGradient-23)" fill-rule="nonzero" points="563.773107 110.682631 578.674788 121.275181 623.33378 91.2089795 608.567833 80.65403"></polygon><path d="M612.372027,142.456644 C607.062637,138.952478 591.780415,147.712285 595.165288,169.625147 C598.55016,191.536795 604.110417,209.254118 604.110417,209.254118 C604.110417,209.254118 607.903704,212.473244 612.372027,208.122451 C607.291688,182.795181 608.681753,168.722724 608.681753,168.722724 C608.681753,168.722724 613.659079,143.305697 612.372027,142.456644 Z" id="Shape" fill="#FFD7B2" fill-rule="nonzero"></path><path d="M626.643514,138.113128 C626.643514,138.113128 610.44145,134.846697 607.046882,135.832812 C598.77194,138.236847 597.584266,158.344863 607.222609,162.877596 C616.859741,167.41033 629.647847,169.416522 629.647847,169.416522 C629.647847,169.416522 641.634877,157.629232 643.704825,157.629232 C645.77356,157.629232 651.000541,144.487095 651.000541,144.487095 L626.643514,138.113128 Z" id="Shape" fill="url(#linearGradient-24)" fill-rule="nonzero"></path><path d="M607.046882,119.631656 C607.046882,119.631656 589.405065,107.743692 586.484355,104.693164 C583.562433,101.642636 582.177216,98.8177129 578.054289,99.5151498 C573.930149,100.211374 568.092364,103.875647 572.566747,106.157175 C577.039918,108.439916 576.424266,107.880754 580.393281,108.898405 C584.363507,109.914844 583.870259,111.017401 588.149523,115.527088 C592.428788,120.035563 612.161155,135.57567 616.864589,133.261393 C621.566811,130.947115 623.765221,111.923462 623.263489,109.307164 C622.967782,107.767951 610.977116,103.686429 610.977116,103.686429 C610.977116,103.686429 607.046882,119.631656 607.046882,119.631656 Z" id="Shape" fill="#FFD7B2" fill-rule="nonzero"></path><polygon id="Shape" fill="#0D6574" fill-rule="nonzero" points="666.052499 175.614614 669.174387 173.954107 692.805478 219.000041 691.389963 219.75206"></polygon><polygon id="Shape" fill="#0D6574" fill-rule="nonzero" points="616.864589 175.837793 620.623943 179.129696 596.512935 223.698946 594.680522 222.838976"></polygon><path d="M632.946674,71.2829038 C613.374279,77.1256057 611.312816,91.291459 607.046882,109.307164 C613.597271,119.443651 622.967782,116.419808 622.967782,116.419808 L624.459647,148.655948 C624.459647,148.655948 655.559757,158.956181 662.508866,136.240358 C664.00679,87.3203139 660.075345,80.1373202 655.82759,75.0078233 C651.578623,69.8783265 646.429205,69.3616167 643.691494,69.3616167 C640.953782,69.3616167 632.946674,71.2829038 632.946674,71.2829038 Z" id="Shape" fill="#0B4651" fill-rule="nonzero"></path><path d="M617.4863,48.3414748 C617.4863,48.3414748 615.284254,54.6887571 619.163588,62.6067886 C622.485441,69.3846625 629.939918,66.7768549 629.939918,66.7768549 L629.169141,76.6962271 C629.169141,76.6962271 635.191136,80.159153 639.407381,77.5695394 C642.252953,75.8217019 642.312337,72.2908517 642.312337,72.2908517 L635.820119,44.546205 L617.4863,48.3414748 Z" id="Shape" fill="#FFD7B2" fill-rule="nonzero"></path><path d="M624.825645,30.3087886 C624.825645,30.3087886 625.980598,31.7157918 639.527361,33.3568912 C652.430598,34.9215757 652.027031,45.8707287 649.792263,51.358041 C647.557496,56.8453533 651.774953,57.7089621 646.844891,63.9507192 C642.589865,69.338571 633.382962,71.9500174 628.212942,65.8149984 C624.105769,60.9426435 635.45291,54.8585678 629.230948,52.6607319 C627.20463,51.9451009 626.947704,56.8004748 624.914115,56.6816073 C621.422593,56.4778344 615.7569,51.7680126 614.81282,48.0540095 C612.020573,37.0684685 624.825645,30.3087886 624.825645,30.3087886 Z" id="Shape" fill="#0B4651" fill-rule="nonzero"></path><path d="M636.670882,152.636797 C643.878128,147.079134 639.797617,120.23691 651.000541,113.419009 C676.697943,97.7782287 682.276378,131.051427 682.893242,141.708263 C683.510105,152.363886 681.041439,190.399063 642.089345,187.010126 C622.886584,185.338703 612.555026,175.051812 608.565409,167.890651 C604.867863,161.252265 608.855056,153.592588 610.676561,153.016445 C619.290838,149.832494 629.463636,158.195672 636.670882,152.636797 Z" id="Shape" fill="#9FFFB4" fill-rule="nonzero"></path><polygon id="Shape" fill="#0D6574" fill-rule="nonzero" points="642.622586 182.809737 647.364802 182.827931 645.200325 240.901986 643.707249 240.917754"></polygon><g id="Group" transform="translate(526.435281, 0.000000)" fill-rule="nonzero"><polygon id="Shape" fill="url(#linearGradient-25)" points="21.6677915 84.49903 38.1243574 94.5954905 53.498685 83.0107603 39.2999129 73.4200931"></polygon><path d="M0.391447881,46.0029385 C0.391447881,43.045806 0.661704467,41.215489 3.30731042,39.3572744 C5.00035281,38.1673864 58.5717526,1.6313959 59.7254937,0.68166877 C60.8780229,-0.26805836 64.245929,0.670752366 64.1986644,2.48408833 C64.1513998,4.29621136 62.2753585,49.2050836 62.2402131,51.9669338 C62.2038557,54.7299968 61.1010149,56.8077524 59.4782635,57.9733817 C57.9633723,59.0613833 6.97334708,96.4015489 5.29727148,97.4446719 C3.62119588,98.4890079 0.442348225,96.014623 0.469010309,93.7670568 C0.494460481,91.5194905 0.391447881,48.0746293 0.391447881,46.0029385 Z" id="Shape" fill="#07494F"></path><path d="M2.7340756,46.7331246 C2.7340756,43.7759921 3.00433219,41.9456751 5.64872623,40.0874606 C7.34176861,38.8975726 60.9143803,2.36036909 62.0669095,1.41064196 C63.2206506,0.460914826 64.5064903,1.2541735 64.4592257,3.06629653 C64.4119611,4.87963249 64.6179863,49.9340568 64.5816289,52.6971199 C64.5452715,55.460183 63.4436426,57.5379385 61.8208912,58.7035678 C60.3047881,59.7915694 6.97334708,96.4015489 5.29727148,97.4446719 C3.62119588,98.4890079 2.70741352,96.9413044 2.7340756,94.6949511 C2.75952577,92.4473849 2.7340756,48.8036025 2.7340756,46.7331246 Z" id="Shape" fill="url(#linearGradient-26)"></path><polygon id="Shape" fill="url(#linearGradient-27)" points="2.7340756 46.7331246 64.1986644 5.68623344 64.1247377 48.6459211 2.73286369 90.2725946"></polygon></g><polygon id="Shape" fill="#0D6574" fill-rule="nonzero" opacity="0.799" points="546.839047 46.3328565 606.042206 6.79728076 605.970703 48.1765158 546.839047 88.2712539"></polygon><path d="M557.720813,50.7103344 L575.954044,38.3808628 C576.231572,38.192858 576.304286,37.8168486 576.11644,37.5390868 C575.929805,37.2613249 575.5529,37.1885489 575.275372,37.3753407 C575.275372,37.3753407 575.275372,37.3753407 575.275372,37.3753407 L557.042142,49.7048123 C556.764614,49.892817 556.691899,50.2700394 556.879746,50.5465883 C557.06638,50.8243502 557.443285,50.8971262 557.720813,50.7103344" id="Shape" fill="#D6F2EE" fill-rule="nonzero"></path><path d="M579.117136,36.0204937 L585.919604,31.4174101 C586.197132,31.2294054 586.269847,30.852183 586.083212,30.5756341 C585.895365,30.2978722 585.51846,30.2250962 585.240932,30.411888 C585.240932,30.411888 585.240932,30.411888 585.240932,30.411888 L578.438465,35.0161845 C578.160937,35.2029763 578.088222,35.5801987 578.274857,35.8579606 C578.462703,36.1357224 578.839608,36.2084984 579.117136,36.0204937" id="Shape" fill="#FF8080" fill-rule="nonzero"></path><path d="M558.755787,60.2488454 L592.753581,37.0345063 C593.029897,36.8452886 593.1014,36.4680662 592.912341,36.1915174 C592.724495,35.9149685 592.34759,35.8434054 592.070062,36.032623 C592.070062,36.032623 592.070062,36.032623 592.070062,36.032623 L558.072268,59.2469621 C557.795952,59.4349669 557.724449,59.8134022 557.913507,60.0899511 C558.102566,60.3665 558.479471,60.4380631 558.755787,60.2488454" id="Shape" fill="#D6F2EE" fill-rule="nonzero"></path><path d="M595.625814,34.6583691 L602.429494,30.0552855 C602.707022,29.8672808 602.779737,29.4900584 602.59189,29.2135095 C602.404044,28.9357476 602.028351,28.8629716 601.750822,29.0497634 C601.750822,29.0497634 601.750822,29.0497634 601.750822,29.0497634 L594.947143,33.6540599 C594.669615,33.8408517 594.5969,34.2180741 594.784747,34.495836 C594.972593,34.7735978 595.348286,34.8463738 595.625814,34.6583691" id="Shape" fill="#FF8080" fill-rule="nonzero"></path><path d="M591.967049,27.7179621 L598.769517,23.1148785 C599.047045,22.9268738 599.119759,22.5496514 598.931913,22.2718896 C598.745278,21.9953407 598.368373,21.9213517 598.090845,22.1093565 C598.090845,22.1093565 598.090845,22.1093565 598.090845,22.1093565 L591.287166,26.7124401 C591.01085,26.9004448 590.938135,27.2776672 591.12477,27.555429 C591.312616,27.8319779 591.689521,27.9059669 591.967049,27.7179621" id="Shape" fill="#77FF7A" fill-rule="nonzero"></path><path d="M559.974971,68.642347 L566.778651,64.0380505 C567.056179,63.8512587 567.128893,63.4740363 566.941047,63.1962744 C566.7532,62.9185126 566.377507,62.8457366 566.099979,63.0337413 C566.099979,63.0337413 566.099979,63.0337413 566.099979,63.0337413 L559.2963,67.6368249 C559.018772,67.8248297 558.946057,68.2020521 559.133904,68.4798139 C559.32175,68.7563628 559.697443,68.8291388 559.974971,68.642347" id="Shape" fill="#FF8080" fill-rule="nonzero"></path><path d="M571.898983,60.2524842 L588.062266,49.4452445 C588.339794,49.2596656 588.414932,48.8824432 588.22951,48.6046814 C588.042875,48.3257066 587.667182,48.2505047 587.388442,48.4372965 C587.388442,48.4372965 587.388442,48.4372965 587.388442,48.4372965 L571.225159,59.2433233 C570.947631,59.4289022 570.872493,59.8061246 571.057915,60.0850994 C571.24455,60.3628612 571.620243,60.4380631 571.898983,60.2524842" id="Shape" fill="#80FF80" fill-rule="nonzero"></path><g id="Group-75" transform="translate(832.000000, 366.000000)"><mask id="mask-29" fill="white"><use xlink:href="#path-28"></use></mask><use id="Shape" fill="#33BAAA" fill-rule="nonzero" xlink:href="#path-28"></use><path d="M15.3492548,215.535904 C22.9194836,173.962547 37.4596197,147.160517 58.9696633,135.129812 C91.2347287,117.083755 147.321185,94.5584619 151.666342,39.3393814" id="Path-4" stroke="#0D6574" stroke-width="3" mask="url(#mask-29)"></path><path d="M12.4888625,244.717918 C33.8615388,233.473958 11.7233251,162.750196 -28.5230919,144.496756 C-68.1780953,126.512587 -113.55454,141.399429 -106.153387,157.758266 C-95.9102992,180.401314 -51.8184825,156.20935 -55.0894355,184.052244 C-57.8913783,207.907012 -61.1490003,237.226047 -28.5230919,218.603875 C4.10281647,199.982916 -8.88381384,255.961879 12.4888625,244.717918 Z" id="Shape-Copy-2" fill="#0D6574" fill-rule="nonzero" opacity="0.300000012" mask="url(#mask-29)"></path><path d="M131.791636,87.7233423 C131.791636,87.7233423 146.273642,76.2037918 164.811062,84.1400173" id="Shape" stroke="#0D6574" stroke-width="3" fill-rule="nonzero" mask="url(#mask-29)"></path><path d="M32.0693792,166.688968 C32.0693792,166.688968 38.1119771,144.18177 18.5517022,126.423207" id="Shape" stroke="#0D6574" stroke-width="3" fill-rule="nonzero" mask="url(#mask-29)"></path><path d="M45.087748,146.269229 C45.087748,146.269229 79.3994273,131.011735 104.099425,146.978795" id="Shape" stroke="#0D6574" stroke-width="3" fill-rule="nonzero" mask="url(#mask-29)"></path><path d="M131.791636,46.1354826 C131.791636,46.1354826 140.560949,61.5730661 138.796401,77.0106496" id="Shape" stroke="#0D6574" stroke-width="3" fill-rule="nonzero" mask="url(#mask-29)"></path><path d="M88.6305682,90.5191546 C88.6305682,90.5191546 91.8769843,106.421981 91.8769843,117.035751" id="Shape" stroke="#0D6574" stroke-width="3" fill-rule="nonzero" mask="url(#mask-29)"></path></g><path d="M761.715364,527.596075 C726.058323,515.522095 694.196572,521.059618 700.846613,535.758266 C711.089701,558.401314 753.50304,533.906861 750.232087,561.749755 C748.049177,580.334297 747.268169,602.537867 761.715364,602.503001 L761.715364,527.596075 Z" id="Shape-Copy-3" fill="#0A4B57" fill-rule="nonzero" opacity="0.5"></path><path d="M847.24213,599.658916 C853.790941,596.610823 827.820794,541.63126 787.574377,523.37782 C747.919373,505.393651 705.44546,510.399429 712.846613,526.758266 C723.089701,549.401314 767.181517,525.20935 763.910564,553.052244 C761.108622,576.907012 757.851,606.226047 790.476908,587.603875 C823.102816,568.982916 840.693319,602.707009 847.24213,599.658916 Z" id="Shape" fill="url(#linearGradient-30)" fill-rule="nonzero"></path><path d="M746.951324,521.440221 C746.951324,521.440221 809.290704,522.896265 839.538839,589.403848" id="Shape" stroke="#0D6574" stroke-width="3" stroke-linecap="round" stroke-linejoin="round" fill-rule="nonzero"></path><path d="M773.743084,560.033347 C773.743084,560.033347 801.600115,542.763596 818.51236,557.960443" id="Shape" stroke="#0D6574" stroke-width="3" stroke-linecap="round" stroke-linejoin="round" fill-rule="nonzero"></path><path d="M746.951324,534.353114 C746.951324,534.353114 760.633821,523.777544 771.578607,526.416888" id="Shape" stroke="#0D6574" stroke-width="3" stroke-linecap="round" stroke-linejoin="round" fill-rule="nonzero"></path><path d="M782.308884,13.7231325 C782.953622,14.1731309 829.77709,45.8610252 829.77709,45.8610252 C831.577993,47.2340662 831.903998,48.758724 831.903998,49.9498249 L831.933084,87.9983438 C831.941567,90.0069621 831.00597,91.0791956 829.77709,90.156153 L782.308884,58.0194732 C782.308884,58.0194732 780.232877,56.9909054 780.166222,54.4304022 C780.144408,53.5631546 780.154103,15.8809416 780.154103,15.8809416 C780.126229,13.7364748 781.665359,13.2731341 782.308884,13.7231325 Z" id="Shape" fill="url(#linearGradient-31)" fill-rule="nonzero"></path></g></g></g></g></g></svg> 