<?xml version="1.0" encoding="UTF-8"?> <svg xmlns="http://www.w3.org/2000/svg" xmlns:xlink="http://www.w3.org/1999/xlink" width="177px" height="156px" viewBox="0 0 177 156"><!-- Generator: Sketch 52.5 (67469) - http://www.bohemiancoding.com/sketch --><title>Lead Nurturing</title><desc>Created with Sketch.</desc><defs><linearGradient x1="23.2916903%" y1="14.537225%" x2="78.8050321%" y2="119.862794%" id="linearGradient-1"><stop stop-color="#AFF7E7" offset="0%"></stop><stop stop-color="#5DD1E4" offset="100%"></stop></linearGradient><linearGradient x1="11.5884416%" y1="20.3503406%" x2="79.3937209%" y2="90.8531466%" id="linearGradient-2"><stop stop-color="#8BDFC6" offset="0%"></stop><stop stop-color="#7DEAC5" offset="100%"></stop></linearGradient><linearGradient x1="35.3833382%" y1="3.37710113%" x2="22.3074002%" y2="94.5399843%" id="linearGradient-3"><stop stop-color="#C9F1E5" offset="0%"></stop><stop stop-color="#72E5BE" offset="100%"></stop></linearGradient><ellipse id="path-4" cx="55.2981197" cy="55.505718" rx="55.2981197" ry="55.505718"></ellipse><ellipse id="path-6" cx="7.43136786" cy="17.6930446" rx="7.43136786" ry="1.53573133"></ellipse><filter x="-110.1%" y="-537.2%" width="320.1%" height="1174.4%" id="filter-7"><feOffset dx="0" dy="0" in="SourceAlpha" result="shadowOffsetOuter1"></feOffset><feGaussianBlur stdDeviation="5.5" in="shadowOffsetOuter1" result="shadowBlurOuter1"></feGaussianBlur><feColorMatrix values="0 0 0 0 0.414386489 0 0 0 0 0.762223639 0 0 0 0 0.392089236 0 0 0 0.759992074 0" type="matrix" in="shadowBlurOuter1"></feColorMatrix></filter><path d="M1.91404515,10.4078145 L1.91404515,5.05224265 C1.91404515,2.26196608 4.45832617,8.52651283e-14 7.59685587,8.52651283e-14 C10.7353856,8.52651283e-14 13.2796666,2.26196608 13.2796666,5.05224265 L13.2796666,10.4078145" id="path-8"></path><filter x="-116.1%" y="-126.8%" width="332.3%" height="353.7%" id="filter-9"><feMorphology radius="1.2" operator="dilate" in="SourceAlpha" result="shadowSpreadOuter1"></feMorphology><feOffset dx="0" dy="0" in="shadowSpreadOuter1" result="shadowOffsetOuter1"></feOffset><feMorphology radius="1.2" operator="erode" in="SourceAlpha" result="shadowInner"></feMorphology><feOffset dx="0" dy="0" in="shadowInner" result="shadowInner"></feOffset><feComposite in="shadowOffsetOuter1" in2="shadowInner" operator="out" result="shadowOffsetOuter1"></feComposite><feGaussianBlur stdDeviation="4" in="shadowOffsetOuter1" result="shadowBlurOuter1"></feGaussianBlur><feColorMatrix values="0 0 0 0 0.414386489 0 0 0 0 0.762223639 0 0 0 0 0.392089236 0 0 0 1 0" type="matrix" in="shadowBlurOuter1"></feColorMatrix></filter><path d="M21.5034702,31.520986 C21.5034702,28.7307095 24.0477512,26.4687434 27.1862809,26.4687434 C30.3248106,26.4687434 32.8690916,28.7307095 32.8690916,31.520986" id="path-10"></path><filter x="-111.4%" y="-250.5%" width="322.7%" height="601.0%" id="filter-11"><feMorphology radius="0.65691648" operator="dilate" in="SourceAlpha" result="shadowSpreadOuter1"></feMorphology><feOffset dx="0" dy="0" in="shadowSpreadOuter1" result="shadowOffsetOuter1"></feOffset><feMorphology radius="1" operator="erode" in="SourceAlpha" result="shadowInner"></feMorphology><feOffset dx="0" dy="0" in="shadowInner" result="shadowInner"></feOffset><feComposite in="shadowOffsetOuter1" in2="shadowInner" operator="out" result="shadowOffsetOuter1"></feComposite><feGaussianBlur stdDeviation="4" in="shadowOffsetOuter1" result="shadowBlurOuter1"></feGaussianBlur><feColorMatrix values="0 0 0 0 0.414386489 0 0 0 0 0.762223639 0 0 0 0 0.392089236 0 0 0 1 0" type="matrix" in="shadowBlurOuter1"></feColorMatrix></filter><ellipse id="path-12" cx="7.43136786" cy="16.8930446" rx="7.43136786" ry="1.53573133"></ellipse><filter x="-110.1%" y="-537.2%" width="320.1%" height="1174.4%" id="filter-13"><feOffset dx="0" dy="0" in="SourceAlpha" result="shadowOffsetOuter1"></feOffset><feGaussianBlur stdDeviation="5.5" in="shadowOffsetOuter1" result="shadowBlurOuter1"></feGaussianBlur><feColorMatrix values="0 0 0 0 0.414386489 0 0 0 0 0.762223639 0 0 0 0 0.392089236 0 0 0 0.759992074 0" type="matrix" in="shadowBlurOuter1"></feColorMatrix></filter><path d="M1.74855714,10.4078145 L1.74855714,5.05224265 C1.74855714,2.26196608 4.29283817,0 7.43136786,0 C10.5698976,0 13.1141786,2.26196608 13.1141786,5.05224265 L13.1141786,10.4078145" id="path-14"></path><filter x="-111.4%" y="-121.6%" width="322.7%" height="343.2%" id="filter-15"><feMorphology radius="0.65691648" operator="dilate" in="SourceAlpha" result="shadowSpreadOuter1"></feMorphology><feOffset dx="0" dy="0" in="shadowSpreadOuter1" result="shadowOffsetOuter1"></feOffset><feMorphology radius="1" operator="erode" in="SourceAlpha" result="shadowInner"></feMorphology><feOffset dx="0" dy="0" in="shadowInner" result="shadowInner"></feOffset><feComposite in="shadowOffsetOuter1" in2="shadowInner" operator="out" result="shadowOffsetOuter1"></feComposite><feGaussianBlur stdDeviation="4" in="shadowOffsetOuter1" result="shadowBlurOuter1"></feGaussianBlur><feColorMatrix values="0 0 0 0 0.414386489 0 0 0 0 0.762223639 0 0 0 0 0.392089236 0 0 0 1 0" type="matrix" in="shadowBlurOuter1"></feColorMatrix></filter><linearGradient x1="23.2916903%" y1="14.537225%" x2="78.8050321%" y2="119.862794%" id="linearGradient-16"><stop stop-color="#6FC4B2" offset="0%"></stop><stop stop-color="#5DD1E4" offset="100%"></stop></linearGradient></defs><g id="Pages" stroke="none" stroke-width="1" fill="none" fill-rule="evenodd"><g id="Bots/AI" transform="translate(-1095.000000, -1467.000000)"><g id="Group-4" transform="translate(231.000000, 1213.000000)"><g id="Group-7" transform="translate(807.000000, 254.000000)"><g id="Lead-Nurturing" transform="translate(57.000000, 0.000000)"><path d="M70.8432338,36.636653 C82.7505256,61.423915 73.0384275,73.8175459 41.7069394,73.8175459 C-5.29029282,73.8175459 -12.1099036,127.701074 21.4714814,143.050974 C55.0528664,158.400873 107.906291,108.998073 132.305287,128.833159 C156.704283,148.668245 179.517892,115.368218 168.368339,102.753694 C160.935303,94.3440117 128.426935,72.304998 70.8432338,36.636653 Z" id="Path-30" fill="url(#linearGradient-1)" opacity="0.400000006"></path><path d="M146.577907,85.5348986 C139.619568,109.332604 117.703016,126.709362 91.7430833,126.709362 C90.8276048,126.709362 89.9171547,126.687752 89.0122117,126.645012 L94.355455,129.010012 C84.9250805,132.273718 74.9077951,136.56919 64.9677279,140.031907 C60.1423448,134.841125 60.3721359,131.978175 62.2489689,128.879179 C60.9034585,126.897086 60.6816477,123.29687 61.5835365,118.07853 C46.6778651,108.762959 36.3589173,92.7478837 34.8063322,74.2286326 C37.0012607,73.9587054 39.3014731,73.8175459 41.7069394,73.8175459 C73.0384275,73.8175459 82.7505256,61.423915 70.8432338,36.636653 C104.816035,57.6799966 130.060927,73.9794118 146.577907,85.5348986 Z" id="Combined-Shape" fill="#0D6574" opacity="0.100000001"></path><ellipse id="Oval-15" fill="url(#linearGradient-1)" opacity="0.400000006" cx="36.7615063" cy="15.2" rx="15.1841004" ry="15.2"></ellipse><g id="Group-56" transform="translate(36.761506, 8.800000)"><path d="M8.32094208,43.2413793 L10.4913429,43.2413793 L10.4913429,67.3743002 L8.32094208,67.3743002 C3.72541266,67.3743002 5.62790039e-16,63.6488875 0,59.0533581 L0,51.5623214 C-5.62790039e-16,46.966792 3.72541266,43.2413793 8.32094208,43.2413793 Z" id="Rectangle-18" fill="url(#linearGradient-2)"></path><rect id="Rectangle-18-Copy-2" fill="#000000" opacity="0.100000001" x="4.78511287" y="43.2413793" width="10.4913429" height="24.1329209" rx="2.88"></rect><path d="M121.977156,43.4392576 L124.147557,43.4392576 L124.147557,67.5721784 L121.977156,67.5721784 C117.381627,67.5721784 113.656214,63.8467658 113.656214,59.2512363 L113.656214,51.7601996 C113.656214,47.1646702 117.381627,43.4392576 121.977156,43.4392576 Z" id="Rectangle-18-Copy" fill="url(#linearGradient-2)" transform="translate(118.901886, 55.505718) scale(-1, 1) translate(-118.901886, -55.505718) "></path><g id="Group-53" transform="translate(7.431368, 0.000000)"><mask id="mask-5" fill="white"><use xlink:href="#path-4"></use></mask><use id="Oval-12" fill="url(#linearGradient-3)" xlink:href="#path-4"></use><path d="M20.7052122,110.951727 C15.1654946,94.5092589 11.8261501,82.0514996 10.6871788,73.5784491 C7.06940247,46.6650404 19.7005233,34.6750286 29.7601376,34.6750286 C33.3871811,34.6750286 36.9316374,35.6923666 39.9394199,37.5967096 C44.9438344,40.7651973 49.948249,42.3494411 54.9526635,42.3494411 C59.957078,42.3494411 64.9614925,40.7651973 69.965907,37.5967096 C73.1177706,35.6011433 76.6977726,34.5491718 80.2288699,34.6735473 C100.468705,35.386453 101.599933,62.1559613 100.468705,74.9259776 C99.7145531,83.4393218 95.765011,95.7243859 88.6200788,111.78117 L20.7052122,110.951727 Z" id="Path-52" fill="#0D6574" mask="url(#mask-5)"></path><g id="Group-55" mask="url(#mask-5)"><g transform="translate(28.414054, 57.996571)"><g id="Group-54" transform="translate(0.000000, -0.000000)"><g id="Oval-17" opacity="0.300000012"><use fill="black" fill-opacity="1" filter="url(#filter-7)" xlink:href="#path-6"></use><use fill="#AFFFAA" fill-rule="evenodd" xlink:href="#path-6"></use></g><g id="Rectangle-6" stroke-linecap="round" stroke-linejoin="round"><use fill="black" fill-opacity="1" filter="url(#filter-9)" xlink:href="#path-8"></use><use stroke="#A8FFA2" stroke-width="2.4" xlink:href="#path-8"></use></g><g id="Rectangle-6-Copy" stroke-linecap="round" stroke-linejoin="round" transform="translate(27.186281, 28.994865) scale(1, -1) translate(-27.186281, -28.994865) "><use fill="black" fill-opacity="1" filter="url(#filter-11)" xlink:href="#path-10"></use><use stroke="#A8FFA2" stroke-width="1.31383296" xlink:href="#path-10"></use></g></g><g id="Group-54-Copy" transform="translate(38.905396, 0.800000)"><g id="Oval-17" opacity="0.300000012"><use fill="black" fill-opacity="1" filter="url(#filter-13)" xlink:href="#path-12"></use><use fill="#AFFFAA" fill-rule="evenodd" xlink:href="#path-12"></use></g><g id="Rectangle-6" stroke-linecap="round" stroke-linejoin="round"><use fill="black" fill-opacity="1" filter="url(#filter-15)" xlink:href="#path-14"></use><use stroke="#A8FFA2" stroke-width="1.31383296" xlink:href="#path-14"></use></g></g></g></g><path d="M17.9087021,111.819469 C11.9226151,94.2296413 8.31419897,80.9025767 7.08345363,71.8382747 C3.17417065,43.046842 16.8230593,30.2201644 27.693239,30.2201644 C31.612536,30.2201644 35.4425911,31.3084925 38.6927293,33.345721 C44.1003806,36.7353065 49.5080318,38.4300993 54.915683,38.4300993 C60.3233342,38.4300993 65.7309855,36.7353065 71.1386367,33.3457209 C74.5444656,31.2109036 78.4129304,30.0855253 82.2285502,30.2185798 C104.099234,30.9812322 105.321613,59.6187231 104.099234,73.2798341 C103.284316,82.3872414 99.0165345,95.5295602 91.2958908,112.70679 L17.9087021,111.819469 Z" id="Path-52-Copy" stroke="#0D6574" stroke-width="1.31383296" stroke-linecap="round" stroke-linejoin="round" mask="url(#mask-5)"></path><path d="M56.0975225,37.965148 L56.0975225,-6.15265591" id="Path-53" stroke="#0D6574" stroke-width="1.31383296" opacity="0.5" stroke-linecap="round" stroke-linejoin="round" stroke-dasharray="2.1897216796875,6.131219863891602" mask="url(#mask-5)"></path></g></g><path d="M120.740022,115.565599 C114.198022,118.301024 107.020236,119.811436 99.4909938,119.811436 C88.1534009,119.811436 77.6127198,116.386642 68.839754,110.511501 C76.6591073,107.198626 90.5278285,104.413594 106.118436,112.908341 L109.607066,108.872737 C103.742724,101.510991 100.011793,92.6242499 100.011793,82.4642111 C100.011793,59.5852182 123.841445,39.3097576 152.327776,47.8801226 C153.927609,53.0709186 154.789114,58.587333 154.789114,64.305718 C154.789114,85.5924085 142.851239,104.080392 125.328963,113.392344 C123.9102,113.983773 122.486335,114.528885 121.064771,115.026439 L120.740022,115.565599 Z" id="Combined-Shape" fill="#000000" opacity="0.200000003"></path><g id="Group-129" transform="translate(124.032811, 103.248733) rotate(37.000000) translate(-124.032811, -103.248733) translate(88.532811, 39.748733)"><path d="M41.9648625,90.5688177 C45.4613023,92.8444171 47.2743926,95.1128566 47.4041336,97.3741364 C47.5338745,99.6354161 46.9514848,101.646415 45.6569642,103.407132 L37.8402034,94.8654919 L41.9648625,90.5688177 Z" id="Path-292" fill="url(#linearGradient-16)"></path><rect id="Rectangle-67" fill="url(#linearGradient-1)" x="32.7445788" y="65.3425287" width="5.33051283" height="21.5245977"></rect><g id="Group-127"><ellipse id="Oval-75" fill="#6AC264" cx="35.4098352" cy="35.7462069" rx="35.4098352" ry="35.7462069"></ellipse><ellipse id="Oval-75-Copy" fill="#0D6574" cx="35.7905861" cy="35.3618391" rx="26.6525641" ry="26.9057471"></ellipse><path d="M29.4213695,61.4944979 C43.9177205,61.2337318 55.5896338,49.2894266 55.5896338,34.5931034 C55.5896338,21.9494889 46.9505603,11.3428055 35.3062863,8.46044467 C35.4673749,8.45754694 35.6288122,8.45609195 35.7905861,8.45609195 C50.5103909,8.45609195 62.4431503,20.5022053 62.4431503,35.3618391 C62.4431503,50.2214729 50.5103909,62.2675862 35.7905861,62.2675862 C33.5954196,62.2675862 31.4622364,61.9996831 29.4213695,61.4944979 Z" id="Combined-Shape" fill="#FFFFFF" opacity="0.200000003"></path><path d="M31.1597894,61.8629112 C18.6473691,59.6500656 9.13802199,48.627015 9.13802199,35.3618391 C9.13802199,20.5022053 21.0707814,8.45609195 35.7905861,8.45609195 C39.312305,8.45609195 42.6744913,9.14562044 45.7518957,10.3982383 C44.2479221,10.1322573 42.700555,9.99356322 41.121099,9.99356322 C26.4012942,9.99356322 14.4685348,22.0396765 14.4685348,36.8993103 C14.4685348,48.2037711 21.3744998,57.8799351 31.1597894,61.8629112 Z" id="Combined-Shape" fill="#08363F" opacity="0.467787591"></path><ellipse id="Oval-77" fill="#FFFFFF" transform="translate(53.733372, 43.400202) rotate(-69.000000) translate(-53.733372, -43.400202) " cx="53.7333718" cy="43.4002016" rx="5.33051283" ry="2.69057471"></ellipse><ellipse id="Oval-77-Copy" fill="#FFFFFF" transform="translate(55.751056, 30.688032) rotate(-69.000000) translate(-55.751056, -30.688032) " cx="55.7510558" cy="30.6880324" rx="2.64517974" ry="2.22112139"></ellipse></g><rect id="Rectangle-68" fill="#0D6574" x="28.1755678" y="79.1797701" width="14.4685348" height="47.6616092" rx="7.23426741"></rect><g id="Group-128" transform="translate(1.523004, 87.635862)"><rect id="Rectangle-69" fill="#0D6574" x="0" y="8.45609195" width="13.707033" height="20.7558621" rx="6.85351649"></rect><path d="M26.7869014,0.269943244 C18.5399138,1.40014616 13.5492047,3.20378688 11.8147743,5.68086539 C11.1634503,6.61107323 10.3308286,7.36662237 9.31690933,7.94751281 L9.31691048,7.94751482 C5.45446902,10.1603687 3.2500349,14.4337533 3.68572018,18.8638046 L3.68572018,18.8638046 C4.25802498,24.6830042 8.45899998,29.4983553 14.1467772,30.8547502 C26.8531469,33.8849169 35.8490682,34.5025819 41.1345388,32.7077548 C49.001025,27.2968326 46.9954616,10.3375754 41.1345388,8.43866248 C36.1282057,8.11843301 31.3456599,7.96224949 26.7869014,7.97011193 L26.7869014,0.269943244 Z" id="Path-290" fill="url(#linearGradient-1)"></path><path d="M26.7869014,7.71556365 C24.1540118,5.44368472 22.6549155,3.21075954 22.2896125,1.01678811 C23.6621861,0.741673401 25.1612824,0.492725112 26.7869014,0.269943244 L26.7869014,7.71556365 Z" id="Combined-Shape" fill="#0D6574" opacity="0.200000003"></path></g></g><path d="M131.076761,87.2155003 L131.076761,78.4358342 C131.076761,73.8615894 135.247733,70.1534314 140.392887,70.1534314 C145.538041,70.1534314 149.709013,73.8615894 149.709013,78.4358342 L149.709013,87.2155003" id="Rectangle-6-Copy-3" stroke="#A8FFA2" stroke-width="4.8" stroke-linecap="round" stroke-linejoin="round"></path></g></g></g></g></g></svg> 