<?xml version="1.0" encoding="UTF-8"?> <svg xmlns="http://www.w3.org/2000/svg" xmlns:xlink="http://www.w3.org/1999/xlink" width="213px" height="269px" viewBox="0 0 213 269"><!-- Generator: Sketch 52.6 (67491) - http://www.bohemiancoding.com/sketch --><title>left-bg-ornament</title><desc>Created with Sketch.</desc><defs><linearGradient x1="50%" y1="0%" x2="50%" y2="100%" id="linearGradient-1"><stop stop-color="#F7FBFA" offset="0%"></stop><stop stop-color="#EDF5F4" offset="100%"></stop></linearGradient><linearGradient x1="-11.0518587%" y1="-14.4074383%" x2="50%" y2="111.203462%" id="linearGradient-2"><stop stop-color="#1E9EAC" stop-opacity="0" offset="0%"></stop><stop stop-color="#86D39C" offset="100%"></stop></linearGradient></defs><g id="Home" stroke="none" stroke-width="1" fill="none" fill-rule="evenodd"><g id="Home---Approach-v3" transform="translate(-19.000000, -1747.000000)"><g id="left-bg-ornament" transform="translate(0.000000, 1724.000000)"><rect id="Rectangle" fill="#FFFFFF" opacity="0" x="0" y="0" width="254" height="327"></rect><path d="M94.536338,25.8226083 L140.036338,52.2195549 C146.203873,55.797667 150,62.3887182 150,69.5190323 L150,122.480968 C150,129.611282 146.203873,136.202333 140.036338,139.780445 L94.536338,166.177392 C88.3298738,169.778088 80.6701262,169.778088 74.463662,166.177392 L28.963662,139.780445 C22.7961266,136.202333 19,129.611282 19,122.480968 L19,69.5190323 C19,62.3887182 22.7961266,55.797667 28.963662,52.2195549 L74.463662,25.8226083 C80.6701262,22.2219115 88.3298738,22.2219115 94.536338,25.8226083 Z" id="Ornament-1-Line-Copy-2" fill="url(#linearGradient-1)"></path><path d="M193.012669,193.347218 L222.512669,210.417443 C227.146544,213.098843 230,218.046745 230,223.400502 L230,257.599498 C230,262.953255 227.146544,267.901157 222.512669,270.582557 L193.012669,287.652782 C188.365218,290.342037 182.634782,290.342037 177.987331,287.652782 L148.487331,270.582557 C143.853456,267.901157 141,262.953255 141,257.599498 L141,223.400502 C141,218.046745 143.853456,213.098843 148.487331,210.417443 L177.987331,193.347218 C182.634782,190.657963 188.365218,190.657963 193.012669,193.347218 Z" id="Ornament-1-Line-Copy-3" stroke="url(#linearGradient-2)" stroke-width="4"></path></g></g></g></svg> 