<?xml version="1.0" encoding="UTF-8"?> <svg xmlns="http://www.w3.org/2000/svg" xmlns:xlink="http://www.w3.org/1999/xlink" width="519px" height="935px" viewBox="0 0 519 935"><!-- Generator: Sketch 52.6 (67491) - http://www.bohemiancoding.com/sketch --><title>left-ornament2</title><desc>Created with Sketch.</desc><defs><linearGradient x1="50%" y1="0%" x2="50%" y2="100%" id="linearGradient-1"><stop stop-color="#F7FBFA" offset="0%"></stop><stop stop-color="#EDF5F4" offset="100%"></stop></linearGradient><linearGradient x1="34.723648%" y1="9.66465956%" x2="100%" y2="262.681365%" id="linearGradient-2"><stop stop-color="#1E9EAC" stop-opacity="0" offset="0%"></stop><stop stop-color="#86D39C" offset="100%"></stop></linearGradient></defs><g id="Home" stroke="none" stroke-width="1" fill="none" fill-rule="evenodd"><g id="Messaging" transform="translate(0.000000, -2801.000000)"><g id="Integration" transform="translate(-354.000000, 2786.000000)"><g id="left-ornament2"><path d="M509.181576,28.8557537 L822.371883,209.634167 C853.316911,227.496128 872.380614,260.511587 872.380614,296.241748 L872.380614,657.758252 C872.380614,693.488413 853.316911,726.503872 822.371883,744.365833 L509.181576,925.144246 C478.245906,943.000806 440.134708,943.000806 409.199038,925.144246 L96.0087306,744.365833 C65.0637031,726.503872 46,693.488413 46,657.758252 L46,296.241748 C46,260.511587 65.0637031,227.496128 96.0087306,209.634167 L409.199038,28.8557537 C440.134708,10.9991943 478.245906,10.9991943 509.181576,28.8557537 Z" id="Ornament-1-Copy" fill="url(#linearGradient-1)"></path><path d="M343.613294,547.763902 L439.303601,602.897353 C470.2871,620.748976 489.380614,653.785988 489.380614,689.544312 L489.380614,799.455688 C489.380614,835.214012 470.2871,868.251024 439.303601,886.102647 L343.613294,941.236098 C312.712353,959.040154 274.668261,959.040154 243.76732,941.236098 L148.077013,886.102647 C117.093514,868.251024 98,835.214012 98,799.455688 L98,689.544312 C98,653.785988 117.093514,620.748976 148.077013,602.897353 L243.76732,547.763902 C274.668261,529.959846 312.712353,529.959846 343.613294,547.763902 Z" id="Ornament-1-Line-Copy" stroke="url(#linearGradient-2)" stroke-width="24.8" transform="translate(293.690307, 744.500000) rotate(-60.000000) translate(-293.690307, -744.500000) "></path></g></g></g></g></svg> 