<?xml version="1.0" encoding="UTF-8"?> <svg xmlns="http://www.w3.org/2000/svg" xmlns:xlink="http://www.w3.org/1999/xlink" width="1421px" height="792px" viewBox="0 0 1421 792"><!-- Generator: Sketch 52.5 (67469) - http://www.bohemiancoding.com/sketch --><title>messaging-hero</title><desc>Created with Sketch.</desc><g id="Illustrations" stroke="none" stroke-width="1" fill="none" fill-rule="evenodd"><g id="hero" transform="translate(-499.000000, -248.000000)" stroke="#FFFFFF"><g id="messaging-hero"><g transform="translate(499.000000, 249.000000)"><path d="M0.25,783.1 L204.91,666.1" id="Shape"></path><polyline id="Shape" points="272.25 626.76 340.25 666.1 406.92 626.76"></polyline><path d="M414.58,613.43 L414.58,635.43" id="Shape"></path><path d="M339.58,587.43 L475.25,508.93" id="Shape"></path><polygon id="Shape" points="342.25 820.43 342.25 742.43 475.25 666.1 475.25 768.43 459.25 752.93"></polygon><path d="M478.25,588.43 L543.75,626.77" id="Shape"></path><path d="M493.75,578.43 L628.25,655.93" id="Shape"></path><path d="M511,569.43 L643.75,646.43" id="Shape"></path><path d="M546.25,635.43 L561,626.77" id="Shape"></path><polygon id="Shape" points="543.75 392.43 543.75 470.93 680.75 548.18 734.25 516.43 747.75 528.93 747.75 431.43 679.25 470.31"></polygon><polygon id="Shape" points="814.75 874.93 814.75 783.43 882.25 820.43 882.25 899.43 824.75 864.93"></polygon><path d="M745.25,587.43 L950.75,472.43" id="Shape"></path><polyline id="Shape" points="816.25 491.93 816.25 470.31 885.75 430.93"></polyline><path d="M895.75,416.43 L895.75,438.43" id="Shape"></path><polyline id="Shape" points="747.75 684.43 747.75 666.1 814.75 626.76 877.75 662.43"></polyline><path d="M892.25,659.93 L875.25,670.43" id="Shape"></path><path d="M785.25,731.43 L785.25,753.43" id="Shape"></path><path d="M959.25,692.93 L959.25,713.43" id="Shape"></path><polyline id="Shape" points="950.75 705.43 883.75 744.26 1087.25 861.43"></polyline><path d="M824.25,376.93 L824.25,398.93" id="Shape"></path><polyline id="Shape" points="674.75 778.93 688.75 778.93 696.25 766.93 710.25 766.93 717.25 754.43 732.25 754.43 738.25 742.26 753.25 742.43 760.25 730.43 774.75 730.43 780.75 717.93 795.75 717.93 802.75 705.43 816.75 705.43"></polyline><polyline id="Shape" points="674.75 803.93 690.75 803.93 697.25 791.93 710.25 791.93 718.75 779.93 732.75 779.93 740.75 766.43 753.75 766.43 762.25 754.43 775.75 754.43"></polyline><polyline id="Shape" points="885.75 587.43 1016.75 510.43 985.5 493.43"></polyline><polyline id="Shape" points="885.75 605.43 1016.75 527.93 985.5 511.43"></polyline><path d="M884.75,624.77 L956.25,581.93" id="Shape"></path><path d="M966.75,565.93 L966.75,588.43" id="Shape"></path><path d="M1108.25,739.93 L1108.25,762.93" id="Shape"></path><polyline id="Shape" points="685.25 318.43 698.75 318.43 705.75 330.93 720.25 330.93 725.25 341.43 739.75 341.43 745.25 353.43 757.75 353.43 764.25 364.43 778.25 364.43 785.25 376.93 798.75 376.93 804.25 387.93 817.25 387.93"></polyline><path d="M1069.25,627.77 L1084.75,636.93" id="Shape"></path><polyline id="Shape" points="1087.25 626.76 1153.75 587.43 1087.25 548.18"></polyline><path d="M1245.25,717.93 L1311.25,755.93" id="Shape"></path><path d="M1262.25,707.93 L1395.75,785.43" id="Shape"></path><path d="M1278.25,698.93 L1411.75,775.93" id="Shape"></path><path d="M1311.25,765.43 L1328.5,755.93" id="Shape"></path><polyline id="Shape" points="1252.25 642.93 1386.75 565.93 1386.75 607.93"></polyline><path d="M1378.25,619.93 L1394.75,610.43" id="Shape"></path><path d="M1225.25,626.77 L1358.25,548.18" id="Shape"></path><polygon id="Shape" points="1154.75 528.93 1153.75 430.93 1221.75 470.31 1358.25 392.43 1358.25 470.31 1222.25 548.18 1170.25 517.43"></polygon><polyline id="Shape" points="1420.25 280.43 1347.25 320.93 1369.25 320.93 1420.25 351.43"></polyline><path d="M1093.75,435.93 L1108.25,427.43" id="Shape"></path><path d="M1060.75,407.93 L1093.75,427.43" id="Shape"></path><path d="M1039.25,420.43 L1108.25,459.43" id="Shape"></path><path d="M1020.75,431.68 L1084.75,470.31" id="Shape"></path><polygon id="Shape" points="952.25 314.93 952.25 392.43 1071.25 323.93 1086.25 339.43 1085.75 236.43"></polygon><path d="M1219.75,372.93 L1219.75,392.43" id="Shape"></path><path d="M1215.25,364.93 L1227.25,364.93" id="Shape"></path><path d="M1245.25,351.43 L1245.25,395.93" id="Shape"></path><path d="M1186.75,273.43 L1186.75,295.43" id="Shape"></path><polyline id="Shape" points="1169.25 341.93 1173.25 335.93 1186.75 335.93 1193.25 324.93 1206.25 324.93 1211.75 314.93 1225.25 314.93 1232.25 302.93 1245.25 302.93 1252.25 291.43 1266.75 291.43 1272.25 280.43 1284.25 280.43"></polyline><polyline id="Shape" points="1194.25 284.43 1206.75 284.43 1215.25 271.93 1226.75 271.93 1232.75 259.93 1245.25 259.93 1252.25 249.43 1266.25 249.43 1273.25 237.43 1284.25 237.43 1291.75 226.43 1304.75 226.43 1311.25 214.43 1324.25 214.43"></polyline><path d="M1328.25,140.93 L1420.25,192.93" id="Shape"></path><path d="M1383.75,145.43 L1420.25,165.43" id="Shape"></path><path d="M1374.25,114.43 L1420.25,140.93" id="Shape"></path><path d="M1153.75,119.43 L1358.25,0.43" id="Shape"></path><path d="M1108.25,26.1 L1108.25,45.43" id="Shape"></path><polyline id="Shape" points="1101 38.77 1027.58 81.43 1201.58 181.43"></polyline><path d="M1068.91,166.93 L1134.25,205.43" id="Shape"></path><path d="M1052.75,178.1 L1084.75,197.43" id="Shape"></path><path d="M1084.75,205.43 L1101,197.43" id="Shape"></path><polyline id="Shape" points="817.25 315.93 849 334.1 849 294.43 942.91 240.76"></polyline><path d="M951.25,227.43 L950.75,249.43" id="Shape"></path><polygon id="Shape" points="678.91 158.76 678.91 250.43 688.91 241.76 747.75 274.43 747.25 197.43"></polygon><path d="M899.26,187.18 L989.91,135.77" id="Shape"></path><path d="M830.25,197.43 L928.25,140.93" id="Shape"></path><path d="M965.75,117.43 L941.91,131.1" id="Shape"></path><path d="M885.75,194.43 L856.58,211.43" id="Shape"></path><path d="M1019,666.43 C1030.75,675.93 1025.25,681.43 1034,685.93 C1042.75,690.43 1053.75,683.43 1061,687.93" id="Shape"></path><path d="M1060,687.18 C1071.75,696.68 1066.25,702.18 1075,706.68 C1083.75,711.18 1094.75,704.18 1102,708.68" id="Shape"></path><path d="M1102,708.68 C1112.24,716.25 1104.79,722.13 1114.75,728.18 C1123.16,733.29 1134.08,724.59 1141.33,729.09" id="Shape"></path><path d="M1141.33,729.1 C1151.75,736.94 1147.5,744.69 1156.25,749.19 C1165,753.69 1174.92,745.8 1182.17,750.3" id="Shape"></path><path d="M1182.17,750.5 C1193.92,760 1187.93,766.62 1197.17,770" id="Shape"></path><path d="M1113.91,757.77 C1126.58,764.77 1134.02,754.51 1141.33,760.29 C1152.72,769.29 1147.9,773.52 1155.75,779.19 C1163.6,784.86 1172.25,775.71 1184.17,783.44 C1192.91,789.11 1186.43,795.77 1197.17,801.11" id="Shape"></path><ellipse id="Oval" transform="translate(892.349148, 190.235721) rotate(-67.810000) translate(-892.349148, -190.235721) " cx="892.349148" cy="190.235721" rx="9.7" ry="5.71"></ellipse><ellipse id="Oval" transform="translate(934.098093, 136.437990) rotate(-67.810000) translate(-934.098093, -136.437990) " cx="934.098093" cy="136.43799" rx="9.7" ry="5.71"></ellipse></g></g></g></g></svg> 