<?xml version="1.0" encoding="UTF-8"?> <svg xmlns="http://www.w3.org/2000/svg" xmlns:xlink="http://www.w3.org/1999/xlink" width="1920px" height="1040px" viewBox="0 0 1920 1040"><!-- Generator: Sketch 52.6 (67491) - http://www.bohemiancoding.com/sketch --><title>messaging-hero-light</title><desc>Created with Sketch.</desc><defs><linearGradient x1="50%" y1="0%" x2="50%" y2="100%" id="linearGradient-1"><stop stop-color="#FFFFFF" offset="0%"></stop><stop stop-color="#F9FAFD" offset="100%"></stop></linearGradient><rect id="path-2" x="0" y="0" width="1920" height="1040"></rect><linearGradient x1="100%" y1="0%" x2="0%" y2="100%" id="linearGradient-4"><stop stop-color="#58BA52" offset="0%"></stop><stop stop-color="#2F8F83" offset="100%"></stop></linearGradient></defs><g id="Illustrations" stroke="none" stroke-width="1" fill="none" fill-rule="evenodd"><g id="hero-copy"><g id="messaging-hero-light"><mask id="mask-3" fill="white"><use xlink:href="#path-2"></use></mask><use id="Mask" fill="url(#linearGradient-1)" xlink:href="#path-2"></use><g id="messaging-hero" mask="url(#mask-3)" fill="url(#linearGradient-4)" fill-rule="nonzero"><g transform="translate(499.000000, 248.000000)" id="Combined-Shape"><path d="M927.224697,141.943973 C927.010026,139.905976 927.37085,137.488296 928.348027,135.092602 C930.461915,129.910094 934.709249,126.6714 937.950421,127.993438 C941.191593,129.315476 941.962046,134.60087 939.848159,139.783378 C937.734272,144.965886 933.486937,148.20458 930.245765,146.882543 C928.771177,146.281074 927.807989,144.859254 927.395151,142.999992 L830.499734,198.863166 L830.000266,197.996834 L927.224697,141.943973 Z M928.224025,141.884946 L928.499734,142.363166 L928.309045,142.473104 C928.617277,144.180767 929.412379,145.462626 930.623445,145.956606 C933.22224,147.016626 936.989533,144.143974 938.922222,139.405699 C940.854912,134.667423 940.171537,129.979394 937.572742,128.919374 C934.973947,127.859355 931.206654,130.732006 929.273964,135.470282 C928.342612,137.75363 928.018768,140.02531 928.224025,141.884946 Z M899.278322,188.212306 C899.235418,189.894098 898.848523,191.744067 898.099214,193.581108 C895.985327,198.763617 891.737993,202.002311 888.496821,200.680273 C886.852643,200.009631 885.844259,198.319091 885.525664,196.139456 L856.831761,212.861991 L856.328239,211.998009 L885.425231,195.040557 C885.349997,193.160404 885.731758,191.016708 886.599083,188.890333 C888.71297,183.707824 892.960304,180.46913 896.201476,181.791168 C898.151275,182.586469 899.206948,184.816065 899.278448,187.594726 L989.663342,136.335075 L990.156658,137.204925 L899.506658,188.614925 L899.278322,188.212306 Z M1141.29454,730.147126 L1141.63061,729.700461 C1146.23491,733.164733 1147.7279,735.628854 1150.12277,741.843148 C1151.78139,746.146968 1153.111,748.013409 1156.47867,749.745356 C1158.81006,750.944356 1161.34021,751.309127 1164.42425,751.055225 C1165.89331,750.934281 1167.1525,750.731768 1169.67956,750.253714 C1176.53537,748.956772 1179.26582,748.90892 1182.43368,750.87518 L1181.90632,751.72482 C1179.03423,749.942145 1176.46878,749.987106 1169.86544,751.236286 C1167.30482,751.720689 1166.02114,751.927139 1164.5063,752.051853 C1161.25015,752.319925 1158.53795,751.928907 1156.02133,750.634644 C1152.39138,748.767816 1150.92814,746.713789 1149.18967,742.202749 C1146.85642,736.148373 1145.44831,733.824336 1141.02939,730.499539 L1141.03327,730.494385 C1138.24804,728.779255 1135.61583,728.886367 1128.89437,730.287181 C1127.49194,730.579462 1126.75445,730.726476 1125.91152,730.874184 C1121.02554,731.730368 1117.60742,731.501257 1114.49042,729.607339 C1113.57848,729.053399 1112.78735,728.487528 1112.10396,727.904292 C1109.60202,725.769033 1108.80688,724.009254 1108.00642,720.178147 C1106.99593,715.341805 1105.86534,713.16281 1101.71919,710.094206 C1098.84073,708.314054 1096.10578,708.257562 1089.12773,709.175727 C1087.40894,709.401884 1086.53877,709.507369 1085.52278,709.601687 C1081.05597,710.016359 1077.77171,709.667697 1074.77133,708.124644 C1071.24731,706.312292 1069.90969,704.567876 1068.49052,700.859899 C1066.37851,695.341716 1064.96138,692.952463 1060.396,689.151322 C1057.62982,687.561189 1054.84432,687.541965 1048.12773,688.425727 C1046.40894,688.651884 1045.53877,688.757369 1044.52278,688.851687 C1040.05597,689.266359 1036.77171,688.917697 1033.77133,687.374644 C1030.24731,685.562292 1028.90969,683.817876 1027.49052,680.109899 C1025.2727,674.315258 1023.82113,671.970916 1018.68564,667.818815 L1019.31436,667.041185 C1024.61093,671.323514 1026.14934,673.808115 1028.42445,679.75245 C1029.76294,683.249617 1030.95189,684.800152 1034.22867,686.485356 C1037.02725,687.924624 1040.13588,688.254641 1044.43034,687.855969 C1045.42973,687.763192 1046.29076,687.658814 1047.99727,687.434273 C1054.42278,686.588812 1057.40917,686.543186 1060.21111,687.918889 L1060.31436,687.791185 C1060.53931,687.97306 1060.75748,688.151693 1060.96922,688.327485 C1061.06719,688.384893 1061.1653,688.444115 1061.26368,688.50518 L1061.23577,688.550149 C1065.79985,692.386945 1067.28704,694.917892 1069.42445,700.50245 C1070.76294,703.999617 1071.95189,705.550152 1075.22867,707.235356 C1078.02725,708.674624 1081.13588,709.004641 1085.43034,708.605969 C1086.42973,708.513192 1087.29076,708.408814 1088.99727,708.184273 C1096.22912,707.232714 1099.10454,707.29433 1102.26368,709.25518 L1102,709.68 L1102.29723,709.277936 C1106.68526,712.521825 1107.9278,714.912391 1108.98528,719.973627 C1109.7446,723.607832 1110.45667,725.183753 1112.75312,727.143646 C1113.39434,727.69089 1114.14202,728.22568 1115.00963,728.752695 C1117.8743,730.493294 1121.06936,730.707453 1125.73892,729.889192 C1126.56819,729.743877 1127.29797,729.5984 1128.69035,729.308215 C1135.70257,727.846801 1138.48904,727.738161 1141.59368,729.66518 L1141.29454,730.147126 Z M1002.09253,520.625438 L1017.7739,528.905203 L886.004586,606.860332 L885.495414,605.999668 L1015.7261,528.954797 L1001.07904,521.221151 L886.003366,588.861052 L885.496634,587.998948 L1000.03946,520.67225 L985.266544,512.872152 L985.733456,511.987848 L1001.05294,520.076537 L1015.73464,511.446839 L985.261066,494.869216 L985.738934,493.990784 L1017.76536,511.413161 L1002.09253,520.625438 Z M0.498151693,784.534075 L0.00184830749,783.665925 L204.661848,666.665925 L205.158152,667.534075 L0.498151693,784.534075 Z M340.500383,666.667208 L340.247509,666.520914 L339.995903,666.669379 L340.500383,666.667208 Z M406.665903,627.329379 L407.174097,628.190621 L340.252491,667.679086 L271.999617,628.192792 L272.500383,627.327208 L340.247509,666.520914 L406.665903,627.329379 Z M414.08,614.43 L415.08,614.43 L415.08,636.43 L414.08,636.43 L414.08,614.43 Z M339.830409,588.862776 L339.329591,587.997224 L474.999591,509.497224 L475.500409,510.362776 L339.830409,588.862776 Z M459.326926,753.308376 L474.75,768.249479 L474.75,667.963447 L342.75,743.719537 L342.75,820.564295 L459.326926,753.308376 Z M341.75,822.295705 L341.75,743.140463 L475.75,666.236553 L475.75,770.610521 L459.173074,754.551624 L341.75,822.295705 Z M477.997418,589.861511 L478.502582,588.998489 L544.002582,627.338489 L543.497418,628.201511 L477.997418,589.861511 Z M493.500371,579.863227 L493.999629,578.996773 L628.499629,656.496773 L628.000371,657.363227 L493.500371,579.863227 Z M510.749129,570.862509 L511.250871,569.997491 L644.000871,646.997491 L643.499129,647.862509 L510.749129,570.862509 Z M546.503152,636.861177 L545.996848,635.998823 L560.746848,627.338823 L561.253152,628.201177 L546.503152,636.861177 Z M680.756402,549.75762 L543.25,472.222075 L543.25,392.565916 L679.251556,470.734191 L748.25,431.571278 L748.25,531.074384 L734.184182,518.050479 L680.756402,549.75762 Z M544.25,471.637925 L680.743598,548.60238 L734.315818,516.809521 L747.25,528.785616 L747.25,433.288722 L679.248444,471.885809 L544.25,394.294084 L544.25,471.637925 Z M824.672493,865.3004 L881.75,899.546905 L881.75,821.726116 L815.25,785.274264 L815.25,874.722893 L824.672493,865.3004 Z M814.25,877.137107 L814.25,783.585736 L882.75,821.133884 L882.75,901.313095 L824.827507,866.5596 L814.25,877.137107 Z M745.494172,588.866325 L745.005828,587.993675 L950.505828,472.993675 L950.994172,473.866325 L745.494172,588.866325 Z M816.75,492.93 L815.75,492.93 L815.75,471.018623 L885.50351,431.49498 L885.99649,432.36502 L816.75,471.601377 L816.75,492.93 Z M895.25,417.43 L896.25,417.43 L896.25,439.43 L895.25,439.43 L895.25,417.43 Z M748.25,685.43 L747.25,685.43 L747.25,666.813763 L814.745458,627.182848 L877.996349,662.9949 L877.503651,663.8651 L814.754542,628.337152 L748.25,667.386237 L748.25,685.43 Z M891.987254,660.504601 L892.512746,661.355399 L875.512746,671.855399 L874.987254,671.004601 L891.987254,660.504601 Z M784.75,732.43 L785.75,732.43 L785.75,754.43 L784.75,754.43 L784.75,732.43 Z M958.75,693.93 L959.75,693.93 L959.75,714.43 L958.75,714.43 L958.75,693.93 Z M1087.49949,861.996692 L1087.00051,862.863308 L882.750405,745.261416 L950.499286,705.9974 L951.000714,706.8626 L884.749595,745.258584 L1087.49949,861.996692 Z M823.75,377.93 L824.75,377.93 L824.75,399.93 L823.75,399.93 L823.75,377.93 Z M689.027124,780.43 L674.75,780.43 L674.75,779.43 L688.472876,779.43 L695.972876,767.43 L709.956938,767.43 L716.956938,754.93 L731.939044,754.93 L737.940787,742.756463 L752.96472,742.926735 L759.962815,730.93 L774.435383,730.93 L780.435383,718.43 L795.456938,718.43 L802.456938,705.93 L816.75,705.93 L816.75,706.93 L803.043062,706.93 L796.043062,719.43 L781.064617,719.43 L775.064617,731.93 L760.537185,731.93 L753.53528,743.933265 L738.559213,743.763537 L732.560956,755.93 L717.543062,755.93 L710.543062,768.43 L696.527124,768.43 L689.027124,780.43 Z M795.75,718.43 L795.456938,718.43 L795.313747,718.685698 L795.75,718.43 Z M753.255666,742.930032 L752.96472,742.926735 L752.818111,743.178064 L753.255666,742.930032 Z M688.75,779.43 L688.472876,779.43 L688.326001,779.665001 L688.75,779.43 Z M691.047806,805.43 L674.75,805.43 L674.75,804.43 L690.452194,804.43 L696.952194,792.43 L709.99144,792.43 L718.49144,780.43 L732.465098,780.43 L740.465098,766.93 L753.49144,766.93 L761.99144,754.93 L775.75,754.93 L775.75,755.93 L762.50856,755.93 L754.00856,767.93 L741.034902,767.93 L733.034902,781.43 L719.00856,781.43 L710.50856,793.43 L697.547806,793.43 L691.047806,805.43 Z M732.75,780.43 L732.465098,780.43 L732.319854,780.675099 L732.75,780.43 Z M710.25,792.43 L709.99144,792.43 L709.841988,792.640991 L710.25,792.43 Z M885.006983,626.198905 L884.493017,625.341095 L955.993017,582.501095 L956.506983,583.358905 L885.006983,626.198905 Z M966.25,566.93 L967.25,566.93 L967.25,589.43 L966.25,589.43 L966.25,566.93 Z M1107.75,740.93 L1108.75,740.93 L1108.75,763.93 L1107.75,763.93 L1107.75,740.93 Z M685.25,319.93 L685.25,318.93 L699.043062,318.93 L706.043062,331.43 L720.5657,331.43 L725.5657,341.93 L740.070849,341.93 L745.570849,353.93 L758.035315,353.93 L764.535315,364.93 L778.543062,364.93 L785.543062,377.43 L799.059017,377.43 L804.559017,388.43 L817.25,388.43 L817.25,389.43 L803.940983,389.43 L798.440983,378.43 L784.956938,378.43 L777.956938,365.93 L763.964685,365.93 L757.464685,354.93 L744.929151,354.93 L739.429151,342.93 L724.9343,342.93 L719.9343,332.43 L705.456938,332.43 L698.456938,319.93 L685.25,319.93 Z M1068.99562,629.200452 L1069.50438,628.339548 L1085.00438,637.499548 L1084.49562,638.360452 L1068.99562,629.200452 Z M1086.99585,549.610592 L1087.50415,548.749408 L1154.73294,588.429562 L1087.50453,628.190365 L1086.99547,627.329635 L1152.76706,588.430438 L1086.99585,549.610592 Z M1245.00052,719.363311 L1245.49948,718.496689 L1311.49948,756.496689 L1311.00052,757.363311 L1245.00052,719.363311 Z M1261.99897,709.362417 L1262.50103,708.497583 L1396.00103,785.997583 L1395.49897,786.862417 L1261.99897,709.362417 Z M1278.00019,700.36312 L1278.49981,699.49688 L1411.99981,776.49688 L1411.50019,777.36312 L1278.00019,700.36312 Z M1311.4912,766.867974 L1311.0088,765.992026 L1328.2588,756.492026 L1328.7412,757.367974 L1311.4912,766.867974 Z M1252.49842,644.363923 L1252.00158,643.496077 L1387.25,566.067615 L1387.25,608.93 L1386.25,608.93 L1386.25,567.792385 L1252.49842,644.363923 Z M1378.49948,621.363311 L1378.00052,620.496689 L1394.50052,610.996689 L1394.99948,611.863311 L1378.49948,621.363311 Z M1225.50436,628.200465 L1224.99564,627.339535 L1357.99564,548.749535 L1358.50436,549.610465 L1225.50436,628.200465 Z M1170.21872,517.83062 L1222.25406,548.601518 L1357.75,471.020127 L1357.75,394.290932 L1221.74814,471.886717 L1154.25893,432.802523 L1155.23996,528.94389 L1170.21872,517.83062 Z M1154.26004,530.91611 L1153.24107,431.057477 L1221.75186,470.733283 L1358.75,392.569068 L1358.75,471.599873 L1222.24594,549.758482 L1170.28128,519.02938 L1154.26004,530.91611 Z M1345.31812,322.43 L1420.00743,280.99278 L1420.49257,281.86722 L1349.18188,321.43 L1369.3881,321.43 L1420.50663,352.000883 L1419.99337,352.859117 L1369.1119,322.43 L1345.31812,322.43 Z M1094.00286,437.361349 L1093.49714,436.498651 L1107.99714,427.998651 L1108.50286,428.861349 L1094.00286,437.361349 Z M1060.49564,409.360463 L1061.00436,408.499537 L1094.00436,427.999537 L1093.49564,428.860463 L1060.49564,409.360463 Z M1039.00397,421.865281 L1039.49603,420.994719 L1108.49603,459.994719 L1108.00397,460.865281 L1039.00397,421.865281 Z M1020.49162,433.108066 L1021.00838,432.251934 L1085.00838,470.881934 L1084.49162,471.738066 L1020.49162,433.108066 Z M951.75,394.294736 L951.75,315.643973 L1086.24578,236.558442 L1086.75603,341.671891 L1071.1617,325.557748 L951.75,394.294736 Z M952.75,392.565264 L1071.3383,324.302252 L1085.74397,339.188109 L1085.25422,238.301558 L952.75,316.216027 L952.75,392.565264 Z M1219.25,373.93 L1220.25,373.93 L1220.25,393.43 L1219.25,393.43 L1219.25,373.93 Z M1215.25,366.43 L1215.25,365.43 L1227.25,365.43 L1227.25,366.43 L1215.25,366.43 Z M1244.75,352.43 L1245.75,352.43 L1245.75,396.93 L1244.75,396.93 L1244.75,352.43 Z M1186.25,274.43 L1187.25,274.43 L1187.25,296.43 L1186.25,296.43 L1186.25,274.43 Z M1169.66603,343.20735 L1168.83397,342.65265 L1172.98241,336.43 L1186.46468,336.43 L1192.96468,325.43 L1205.95436,325.43 L1211.45436,315.43 L1224.96281,315.43 L1231.96281,303.43 L1244.969,303.43 L1251.969,291.93 L1266.44098,291.93 L1271.94098,280.93 L1284.25,280.93 L1284.25,281.93 L1272.55902,281.93 L1267.05902,292.93 L1252.531,292.93 L1245.531,304.43 L1232.53719,304.43 L1225.53719,316.43 L1212.04564,316.43 L1206.54564,326.43 L1193.53532,326.43 L1187.03532,337.43 L1173.51759,337.43 L1169.66603,343.20735 Z M1266.75,291.93 L1266.44098,291.93 L1266.30279,292.206393 L1266.75,291.93 Z M1207.01465,285.93 L1194.25,285.93 L1194.25,284.93 L1206.48535,284.93 L1214.98535,272.43 L1226.44098,272.43 L1232.44098,260.43 L1244.98241,260.43 L1251.98241,249.93 L1265.96281,249.93 L1272.96281,237.93 L1283.98575,237.93 L1291.48575,226.93 L1304.45219,226.93 L1310.95219,214.93 L1324.25,214.93 L1324.25,215.93 L1311.54781,215.93 L1305.04781,227.93 L1292.01425,227.93 L1284.51425,238.93 L1273.53719,238.93 L1266.53719,250.93 L1252.51759,250.93 L1245.51759,261.43 L1233.05902,261.43 L1227.05902,273.43 L1215.51465,273.43 L1207.01465,285.93 Z M1284.25,237.93 L1283.98575,237.93 L1283.83689,238.148332 L1284.25,237.93 Z M1206.75,284.93 L1206.48535,284.93 L1206.33654,285.148845 L1206.75,284.93 Z M1328.00397,142.365281 L1328.49603,141.494719 L1420.49603,193.494719 L1420.00397,194.365281 L1328.00397,142.365281 Z M1383.50973,146.868488 L1383.99027,145.991512 L1420.49027,165.991512 L1420.00973,166.868488 L1383.50973,146.868488 Z M1374.00041,115.86325 L1374.49959,114.99675 L1420.49959,141.49675 L1420.00041,142.36325 L1374.00041,115.86325 Z M1154.00148,120.862157 L1153.49852,119.997843 L1357.99852,0.997842533 L1358.50148,1.86215747 L1154.00148,120.862157 Z M1107.75,27.1 L1108.75,27.1 L1108.75,46.43 L1107.75,46.43 L1107.75,27.1 Z M1201.82914,181.996493 L1201.33086,182.863507 L1026.58068,82.4323703 L1100.7488,39.3376798 L1101.2512,40.2023202 L1028.57932,82.4276297 L1201.82914,181.996493 Z M1068.65617,168.360781 L1069.16383,167.499219 L1134.50383,205.999219 L1133.99617,206.860781 L1068.65617,168.360781 Z M1052.49147,179.527978 L1053.00853,178.672022 L1085.00853,198.002022 L1084.49147,198.857978 L1052.49147,179.527978 Z M1084.97084,206.878585 L1084.52916,205.981415 L1100.77916,197.981415 L1101.22084,198.878585 L1084.97084,206.878585 Z M849.5,335.962229 L817.001651,317.363962 L817.498349,316.496038 L848.5,334.237771 L848.5,295.139858 L942.661906,241.325893 L943.158094,242.194107 L849.5,295.720142 L849.5,335.962229 Z M950.750129,228.418639 L951.749871,228.441361 L951.249871,250.441361 L950.250129,250.418639 L950.750129,228.418639 Z M678.41,252.525257 L678.41,158.90258 L747.74811,198.137358 L748.255547,276.282599 L688.973179,243.366981 L678.41,252.525257 Z M679.41,250.334743 L688.846821,242.153019 L747.244453,274.577401 L746.75189,198.722642 L679.41,160.61742 L679.41,250.334743 Z M965.501284,117.996248 L965.998716,118.863752 L942.158716,132.533752 L941.661284,131.666248 L965.501284,117.996248 Z M1181.85564,751.888815 L1182.48436,751.111185 C1187.67837,755.310597 1189.13558,757.825799 1191.33674,764.112132 C1192.61809,767.771553 1193.81724,769.241156 1197.34177,770.530431 L1196.99823,771.469569 C1193.15466,770.063588 1191.76462,768.360045 1190.39293,764.442609 C1188.24764,758.315845 1186.87544,755.947381 1181.85564,751.888815 Z M1113.66821,759.207648 L1114.15179,758.332352 C1119.48917,761.281179 1123.36501,761.390425 1129.99613,759.893033 C1136.36934,758.45388 1138.54404,758.449731 1141.63999,760.897691 C1146.94765,765.091632 1148.58662,767.536643 1150.75825,772.845303 C1151.38286,774.372187 1151.78829,775.214506 1152.38997,776.12481 C1153.24769,777.422498 1154.39123,778.591782 1156.04276,779.784674 C1158.9665,781.896468 1161.24648,782.02566 1167.46853,781.168759 C1174.9887,780.133081 1179.04472,780.520375 1184.44212,784.020537 C1187.74744,786.164834 1189.05909,788.283802 1190.05677,791.96281 C1190.11288,792.169712 1190.15443,792.326735 1190.25477,792.708867 C1191.489,797.409455 1192.78574,799.371722 1197.39261,801.662287 L1196.94739,802.557713 C1192.0438,800.119614 1190.58846,797.917342 1189.28755,792.962828 C1189.18791,792.583338 1189.14679,792.427955 1189.09163,792.224537 C1188.15308,788.76357 1186.97017,786.852588 1183.89795,784.859511 C1178.74834,781.52004 1174.90926,781.15346 1167.60496,782.159408 C1161.13549,783.050385 1158.66218,782.910238 1155.45724,780.595326 C1153.71032,779.333541 1152.48191,778.077475 1151.55573,776.67621 C1150.90918,775.698022 1150.48022,774.806814 1149.8327,773.223922 C1147.72101,768.061792 1146.17522,765.755789 1141.01988,761.682208 C1138.24795,759.49045 1136.30246,759.494161 1130.2164,760.868473 C1123.36899,762.414707 1119.26353,762.298989 1113.66821,759.207648 Z M897.173278,193.203429 C899.105968,188.465154 898.422592,183.777124 895.823797,182.717105 C893.225002,181.657085 889.457709,184.529736 887.525019,189.268012 C885.592329,194.006288 886.275705,198.694317 888.8745,199.754337 C891.473295,200.814356 895.240588,197.941705 897.173278,193.203429 Z"></path></g></g></g></g></g></svg> 