<?xml version="1.0" encoding="UTF-8"?> <svg xmlns="http://www.w3.org/2000/svg" xmlns:xlink="http://www.w3.org/1999/xlink" width="51px" height="51px" viewBox="0 0 51 51"><!-- Generator: Sketch 52.6 (67491) - http://www.bohemiancoding.com/sketch --><title>Mobile Development</title><desc>Created with Sketch.</desc><defs><radialGradient cx="10.1475267%" cy="12.3100204%" fx="10.1475267%" fy="12.3100204%" r="99.9669394%" id="radialGradient-1"><stop stop-color="#7ECC79" offset="0%"></stop><stop stop-color="#28AD9D" offset="100%"></stop></radialGradient><circle id="path-2" cx="25.5" cy="25.5" r="25.5"></circle></defs><g id="Illustrations" stroke="none" stroke-width="1" fill="none" fill-rule="evenodd"><g id="All-Icons" transform="translate(-897.000000, -3593.000000)"><g id="Group-33-Copy-7" transform="translate(897.000000, 3593.000000)"><g id="Mobile-Development"><mask id="mask-3" fill="white"><use xlink:href="#path-2"></use></mask><use id="Oval-Copy-19" fill="url(#radialGradient-1)" xlink:href="#path-2"></use><circle id="Oval" fill="#0D6574" mask="url(#mask-3)" cx="25.5" cy="71.5" r="48.5"></circle><circle id="Oval-Copy-2" fill="#0B4651" opacity="0.200000003" mask="url(#mask-3)" cx="43.5" cy="-7.5" r="34.5"></circle><g id="smart-phone" mask="url(#mask-3)"><g transform="translate(18.000000, 12.000000)"><path d="M2.43478261,0 L13.3913043,0 C14.7304348,0 15.826087,1.09565217 15.826087,2.43478261 L15.826087,25.5652174 C15.826087,26.9043478 14.7304348,28 13.3913043,28 L2.43478261,28 C1.09565217,28 0,26.9043478 0,25.5652174 L0,2.43478261 C0,1.09565217 1.09565217,0 2.43478261,0 Z" id="Path" stroke="#FFFFFF" stroke-width="2" fill="none"></path><circle id="Oval" stroke="none" fill="#FFFFFF" fill-rule="evenodd" cx="7.91304348" cy="25.5652174" r="1.2173913"></circle><path d="M0,23.1304348 L15.826087,23.1304348" id="Path" stroke="#FFFFFF" stroke-width="2" fill="none"></path></g></g></g></g></g></g></svg> 