<?xml version="1.0" encoding="UTF-8"?> <svg xmlns="http://www.w3.org/2000/svg" xmlns:xlink="http://www.w3.org/1999/xlink" width="178px" height="176px" viewBox="0 0 178 176"><!-- Generator: Sketch 52.6 (67491) - http://www.bohemiancoding.com/sketch --><title>Multi-discipline Design</title><desc>Created with Sketch.</desc><defs><linearGradient x1="100%" y1="0%" x2="0%" y2="100%" id="linearGradient-1"><stop stop-color="#8CD987" offset="0%"></stop><stop stop-color="#1FA595" offset="100%"></stop></linearGradient><path d="M4,0 L116,0 C118.209139,-4.05812251e-16 120,1.790861 120,4 L120,116 C120,118.209139 118.209139,120 116,120 L4,120 C1.790861,120 2.705415e-16,118.209139 0,116 L0,4 C-2.705415e-16,1.790861 1.790861,4.05812251e-16 4,0 Z" id="path-2"></path><filter x="-35.8%" y="-34.2%" width="171.7%" height="171.7%" id="filter-4"><feOffset dx="0" dy="2" in="SourceAlpha" result="shadowOffsetOuter1"></feOffset><feGaussianBlur stdDeviation="14" in="shadowOffsetOuter1" result="shadowBlurOuter1"></feGaussianBlur><feColorMatrix values="0 0 0 0 0.0509803922 0 0 0 0 0.396078431 0 0 0 0 0.454901961 0 0 0 0.604194973 0" type="matrix" in="shadowBlurOuter1"></feColorMatrix></filter><rect id="path-5" x="20" y="33" width="80" height="55" rx="3"></rect><filter x="-97.5%" y="-141.8%" width="295.0%" height="383.6%" id="filter-6"><feOffset dx="0" dy="0" in="SourceAlpha" result="shadowOffsetOuter1"></feOffset><feGaussianBlur stdDeviation="26" in="shadowOffsetOuter1" result="shadowBlurOuter1"></feGaussianBlur><feColorMatrix values="0 0 0 0 0.0509803922 0 0 0 0 0.396078431 0 0 0 0 0.454901961 0 0 0 0.799932065 0" type="matrix" in="shadowBlurOuter1"></feColorMatrix></filter><linearGradient x1="100%" y1="0%" x2="-19.7297014%" y2="100%" id="linearGradient-7"><stop stop-color="#8CD987" offset="0%"></stop><stop stop-color="#1FA595" offset="100%"></stop></linearGradient><filter x="-62.5%" y="-35.7%" width="225.0%" height="171.4%" id="filter-8"><feOffset dx="0" dy="3" in="SourceAlpha" result="shadowOffsetOuter1"></feOffset><feGaussianBlur stdDeviation="4.5" in="shadowOffsetOuter1" result="shadowBlurOuter1"></feGaussianBlur><feColorMatrix values="0 0 0 0 0.0901960784 0 0 0 0 0.450980392 0 0 0 0 0.51372549 0 0 0 0.593466938 0" type="matrix" in="shadowBlurOuter1" result="shadowMatrixOuter1"></feColorMatrix><feMerge><feMergeNode in="shadowMatrixOuter1"></feMergeNode><feMergeNode in="SourceGraphic"></feMergeNode></feMerge></filter></defs><g id="Home" stroke="none" stroke-width="1" fill="none" fill-rule="evenodd"><g id="Company" transform="translate(-181.000000, -2558.000000)"><g id="Services" transform="translate(150.000000, 2371.000000)"><g id="Multi-discipline-Design" transform="translate(59.000000, 198.000000)"><path d="M34,0 L146,0 C148.209139,-4.05812251e-16 150,1.790861 150,4 L150,116 C150,118.209139 148.209139,120 146,120 L34,120 C31.790861,120 30,118.209139 30,116 L30,4 C30,1.790861 31.790861,4.05812251e-16 34,0 Z" id="Rectangle-4-Copy" fill="#0D6574"></path><path d="M18,7 L130,7 C132.209139,7 134,8.790861 134,11 L134,123 C134,125.209139 132.209139,127 130,127 L18,127 C15.790861,127 14,125.209139 14,123 L14,11 C14,8.790861 15.790861,7 18,7 Z" id="Rectangle-4-Copy-9" fill="url(#linearGradient-1)" opacity="0.45"></path><g id="Group-29" transform="translate(0.000000, 15.000000)"><mask id="mask-3" fill="white"><use xlink:href="#path-2"></use></mask><g id="Rectangle-4-Copy-5"><use fill="black" fill-opacity="1" filter="url(#filter-4)" xlink:href="#path-2"></use><use fill="url(#linearGradient-1)" fill-rule="evenodd" xlink:href="#path-2"></use></g><g id="Rectangle-Copy-5" mask="url(#mask-3)"><use fill="black" fill-opacity="1" filter="url(#filter-6)" xlink:href="#path-5"></use><use fill="#FFFFFF" fill-rule="evenodd" xlink:href="#path-5"></use></g><rect id="Rectangle-Copy-6" fill="url(#linearGradient-7)" opacity="0.200000003" mask="url(#mask-3)" x="32" y="37" width="64" height="47" rx="3"></rect><g id="Group-9" filter="url(#filter-8)" mask="url(#mask-3)" fill-rule="nonzero" stroke="#177383" stroke-width="3"><g transform="translate(26.000000, 26.000000)"><path d="M6,66 C23.1208272,66 37,52.1208272 37,35 C37,17.8791728 23.1208272,4 6,4" id="Path" fill="none"></path><circle id="Oval" fill="#FFFFFF" cx="4" cy="4" r="4"></circle><circle id="Oval-Copy-2" fill="#FFFFFF" cx="4" cy="66" r="4"></circle><rect id="Rectangle" fill="#FFFFFF" x="34" y="32" width="6" height="6"></rect></g></g><circle id="Oval" fill="#177383" mask="url(#mask-3)" cx="26.5" cy="60.5" r="2.5"></circle><g id="Group-8" mask="url(#mask-3)"><g transform="translate(89.698485, 84.698485) rotate(-45.000000) translate(-89.698485, -84.698485) translate(75.198485, 57.198485)"><rect id="Rectangle" fill="#99E6B6" x="2" y="44" width="24" height="11" rx="5.5"></rect><path d="M13.14,24.8158188 C11.4147728,25.2598616 10.14,26.8259619 10.14,28.6898013 C10.14,30.8989403 11.930861,32.6898013 14.14,32.6898013 C16.349139,32.6898013 18.14,30.8989403 18.14,28.6898013 C18.14,26.8259619 16.8652272,25.2598616 15.14,24.8158188 L15.14,-1.17239551e-13 L28.2842712,30.430867 L23.4513556,41.8051859 L4.8329157,41.8051859 L-2.52775578e-12,30.430867 L13.14,0.00988854848 L13.14,24.8158188 Z" id="Combined-Shape" fill="#177383"></path></g></g></g></g></g></g></g></svg> 