<?xml version="1.0" encoding="UTF-8"?> <svg xmlns="http://www.w3.org/2000/svg" xmlns:xlink="http://www.w3.org/1999/xlink" width="51px" height="51px" viewBox="0 0 51 51"><!-- Generator: Sketch 52.6 (67491) - http://www.bohemiancoding.com/sketch --><title>Native iOS Development</title><desc>Created with Sketch.</desc><defs><radialGradient cx="10.1475267%" cy="12.3100204%" fx="10.1475267%" fy="12.3100204%" r="99.9669394%" id="radialGradient-1"><stop stop-color="#7ECC79" offset="0%"></stop><stop stop-color="#28AD9D" offset="100%"></stop></radialGradient><circle id="path-2" cx="25.5" cy="25.5" r="25.5"></circle><circle id="path-4" cx="26" cy="35" r="2"></circle><filter x="-437.5%" y="-312.5%" width="975.0%" height="975.0%" id="filter-5"><feOffset dx="0" dy="5" in="SourceAlpha" result="shadowOffsetOuter1"></feOffset><feGaussianBlur stdDeviation="5" in="shadowOffsetOuter1" result="shadowBlurOuter1"></feGaussianBlur><feColorMatrix values="0 0 0 0 0.0431372549 0 0 0 0 0.274509804 0 0 0 0 0.317647059 0 0 0 0.431046196 0" type="matrix" in="shadowBlurOuter1"></feColorMatrix></filter></defs><g id="Home" stroke="none" stroke-width="1" fill="none" fill-rule="evenodd"><g id="Technology-Template" transform="translate(-644.000000, -6138.000000)"><g id="Group-23" transform="translate(83.000000, 5890.000000)"><g id="Group-18" transform="translate(124.000000, 214.000000)"><g id="Group-16" transform="translate(413.000000, 0.000000)"><g id="Native-iOS-Development" transform="translate(24.000000, 34.000000)"><mask id="mask-3" fill="white"><use xlink:href="#path-2"></use></mask><use id="Oval" fill="url(#radialGradient-1)" xlink:href="#path-2"></use><circle id="Oval" fill="#0D6574" mask="url(#mask-3)" cx="25.5" cy="71.5" r="48.5"></circle><circle id="Oval-Copy-2" fill="#0B4651" opacity="0.200000003" mask="url(#mask-3)" cx="43.5" cy="-7.5" r="34.5"></circle><path d="M36,30.1008592 L36,37 C36,38.6568542 34.6568542,40 33,40 L19,40 C17.3431458,40 16,38.6568542 16,37 L16,15 C16,13.3431458 17.3431458,12 19,12 L33,12 C34.6568542,12 36,13.3431458 36,15 L36,15.3472381" id="Path" stroke="#FFFFFF" stroke-width="2" fill-rule="nonzero" mask="url(#mask-3)"></path><g id="Group-22" mask="url(#mask-3)" fill-rule="nonzero" stroke="#FFFFFF" stroke-width="2"><g transform="translate(28.000000, 19.000000)"><polyline id="Path-2" points="3.23070157 0 0 3.23070157 3.23070157 6.46140314"></polyline><polyline id="Path-2-Copy" transform="translate(14.615351, 3.230702) scale(-1, 1) translate(-14.615351, -3.230702) " points="16.2307016 0 13 3.23070157 16.2307016 6.46140314"></polyline><path d="M9.68026187,0.0234590773 L6.89310189,7.69428951" id="Path-3"></path></g></g><g id="-g-Oval" mask="url(#mask-3)"><use fill="black" fill-opacity="1" filter="url(#filter-5)" xlink:href="#path-4"></use><use fill="#FFFFFF" fill-rule="evenodd" xlink:href="#path-4"></use></g></g></g></g></g></g></g></svg> 