<?xml version="1.0" encoding="UTF-8"?> <svg xmlns="http://www.w3.org/2000/svg" xmlns:xlink="http://www.w3.org/1999/xlink" width="51px" height="51px" viewBox="0 0 51 51"><!-- Generator: Sketch 52.6 (67491) - http://www.bohemiancoding.com/sketch --><title>Node.js Development</title><desc>Created with Sketch.</desc><defs><radialGradient cx="10.1475267%" cy="12.3100204%" fx="10.1475267%" fy="12.3100204%" r="99.9669394%" id="radialGradient-1"><stop stop-color="#7ECC79" offset="0%"></stop><stop stop-color="#28AD9D" offset="100%"></stop></radialGradient><circle id="path-2" cx="25.5" cy="25.5" r="25.5"></circle><path d="M24.1915588,9.35206352 C24.983957,8.88370387 26.0160551,8.88158831 26.8077704,9.35206352 C30.7908176,11.6761147 34.7751168,13.9965223 38.7574811,16.3219838 C39.5065148,16.75767 40.0075399,17.6184645 39.9999141,18.5096994 L39.9999141,32.4920862 C40.0054912,33.4202258 39.4549554,34.3015881 38.6647198,34.7274017 C34.6947616,37.038642 30.7268521,39.352703 26.7575768,41.6639433 C25.9487889,42.1414703 24.895976,42.1046833 24.1124556,41.5880185 C22.9222648,40.8755477 21.7300254,40.1666028 20.5397208,39.4548371 C20.2964926,39.3051031 20.022306,39.185927 19.8505552,38.9424035 C20.0023879,38.7310834 20.2738429,38.7047565 20.4944214,38.612495 C20.9912353,38.4493624 21.4475301,38.1875041 21.9039387,37.9334028 C22.0193498,37.8518366 22.160256,37.8830997 22.2708867,37.9560863 C23.2886437,38.5586659 24.2974092,39.1787576 25.3185808,39.7755783 C25.5364277,39.9054497 25.7570062,39.7330322 25.9432118,39.6258442 C29.8389609,37.3522138 33.7394904,35.087163 37.6345566,32.8128273 C37.7788773,32.7411336 37.8586635,32.5829374 37.8469403,32.4196873 C37.8496719,27.8071968 37.8476232,23.1938836 37.8483061,18.5813931 C37.8648096,18.3961648 37.761008,18.2258629 37.5988179,18.1500556 C33.6426316,15.8493931 29.6884941,13.5452046 25.7329907,11.2439544 C25.5927142,11.1443699 25.40758,11.1440897 25.2670214,11.2432493 C21.311518,13.5452046 17.3580634,15.8515086 13.40256,18.1520537 C13.240939,18.2279785 13.1324709,18.3954596 13.151706,18.5813931 C13.1523889,23.1938836 13.151706,27.8071968 13.151706,32.4203925 C13.1376583,32.583532 13.2234989,32.7384426 13.3668213,32.8085962 C14.4223658,33.4266899 15.4792761,34.040435 16.5355035,34.6564132 C17.130542,34.9871444 17.8611372,35.1836557 18.5167267,34.9302596 C19.0952616,34.7160012 19.5007937,34.1063697 19.4897534,33.4720568 C19.4952166,28.8864808 19.4870218,24.3001997 19.4938508,19.7153289 C19.479396,19.5117658 19.6663983,19.3435794 19.8580672,19.3627369 C20.3652385,19.359211 20.8730926,19.3556851 21.3802639,19.3641473 C21.5919646,19.359211 21.7376512,19.5784057 21.7114731,19.7834966 C21.7094244,24.3981027 21.7169364,29.0128263 21.7080586,33.6274323 C21.7094244,34.8572731 21.2201225,36.1954771 20.1184819,36.797234 C18.7613207,37.5232209 17.0838768,37.3692557 15.7431054,36.6731216 C14.5823934,36.0748906 13.4747204,35.368884 12.3346094,34.7279893 C11.5423251,34.3045264 10.9945209,33.4196381 11.000098,32.4922037 L11.000098,18.5096994 C10.9917893,17.6000122 11.5127325,16.7235861 12.2850988,16.2942466 C16.2543741,13.9811258 20.2229664,11.6662421 24.1915588,9.35206352 Z M27.6543458,19.0377647 C29.3855116,18.9227021 31.2388037,18.9695969 32.7966253,19.8502541 C34.0027505,20.5251151 34.671429,21.941477 34.6927129,23.3251654 C34.6590229,23.511804 34.4700856,23.6147609 34.2975381,23.60195 C33.795261,23.6012449 33.2928701,23.6090019 32.790593,23.5984241 C32.5775264,23.6068863 32.4536929,23.4040284 32.4269457,23.2095152 C32.282625,22.547465 31.9329773,21.8917615 31.3295163,21.5724307 C30.4031548,21.0934933 29.329058,21.1175871 28.3189268,21.1275772 C27.5815025,21.1680077 26.7885352,21.2339424 26.1637903,21.6817342 C25.6841629,22.0209277 25.5384764,22.7056613 25.7096581,23.2571151 C25.8710515,23.6530759 26.3136881,23.7808317 26.6758558,23.8985974 C28.7621325,24.4620394 30.9729258,24.4059772 33.0193664,25.1474781 C33.8666247,25.449767 34.6954445,26.0374202 34.9854518,26.9534542 C35.3648058,28.1811794 35.1985183,29.6486671 34.3526258,30.6342791 C33.6666471,31.4453582 32.6675562,31.8868033 31.671083,32.1265659 C30.3454493,32.431793 28.9697359,32.43955 27.6235012,32.3040371 C26.3576217,32.1550083 25.0402967,31.8115837 24.0630587,30.9209364 C23.2274099,30.1716785 22.8192599,29.0042465 22.859779,27.8774801 C22.8694535,27.687198 23.0529275,27.5545059 23.2294586,27.5701375 C23.735264,27.5659064 24.2410695,27.564496 24.7468749,27.5708427 C24.9489012,27.5559163 25.0986852,27.7362083 25.1090426,27.9328371 C25.202373,28.5636241 25.4319431,29.2256743 25.9646095,29.5996568 C26.9926102,30.2845079 28.2825051,30.2376132 29.4596068,30.2567707 C30.4347961,30.212109 31.5294939,30.198593 32.3253066,29.5330169 C32.7451798,29.1533929 32.8695824,28.5182573 32.7561063,27.9718573 C32.6331832,27.5105494 32.1658481,27.2955859 31.7645272,27.1550192 C29.7049976,26.4822738 27.469506,26.7263849 25.4298944,25.965609 C24.6018713,25.6634377 23.8011644,25.0921212 23.4830442,24.2136971 C23.0391555,22.9704578 23.2425476,21.4326868 24.177104,20.4803359 C25.0883278,19.5330388 26.4037179,19.1682237 27.6543458,19.0376471 L27.6543458,19.0377647 Z" id="path-4"></path><filter x="-60.3%" y="-37.9%" width="220.7%" height="206.1%" id="filter-5"><feOffset dx="0" dy="5" in="SourceAlpha" result="shadowOffsetOuter1"></feOffset><feGaussianBlur stdDeviation="5" in="shadowOffsetOuter1" result="shadowBlurOuter1"></feGaussianBlur><feColorMatrix values="0 0 0 0 0.0431372549 0 0 0 0 0.274509804 0 0 0 0 0.317647059 0 0 0 0.431046196 0" type="matrix" in="shadowBlurOuter1"></feColorMatrix></filter></defs><g id="Home" stroke="none" stroke-width="1" fill="none" fill-rule="evenodd"><g id="Technology-Template" transform="translate(-1057.000000, -6138.000000)"><g id="Group-23" transform="translate(83.000000, 5890.000000)"><g id="Group-18" transform="translate(124.000000, 214.000000)"><g id="Group-17" transform="translate(826.000000, 0.000000)"><g id="Node.js-Development" transform="translate(24.000000, 34.000000)"><mask id="mask-3" fill="white"><use xlink:href="#path-2"></use></mask><use id="Oval" fill="url(#radialGradient-1)" xlink:href="#path-2"></use><circle id="Oval" fill="#0D6574" mask="url(#mask-3)" cx="-27.5" cy="-3.5" r="48.5"></circle><circle id="Oval-Copy-2" fill="#0B4651" opacity="0.200000003" mask="url(#mask-3)" cx="43.5" cy="-7.5" r="34.5"></circle><g id="Combined-Shape" mask="url(#mask-3)"><use fill="black" fill-opacity="1" filter="url(#filter-5)" xlink:href="#path-4"></use><use fill="#FFFFFF" fill-rule="evenodd" xlink:href="#path-4"></use></g></g></g></g></g></g></g></svg> 