<?xml version="1.0" encoding="UTF-8"?> <svg xmlns="http://www.w3.org/2000/svg" xmlns:xlink="http://www.w3.org/1999/xlink" width="85px" height="97px" viewBox="0 0 85 97"><!-- Generator: Sketch 52.6 (67491) - http://www.bohemiancoding.com/sketch --><title>Open Ideas</title><desc>Created with Sketch.</desc><defs><linearGradient x1="100%" y1="0%" x2="0%" y2="100%" id="linearGradient-1"><stop stop-color="#8CD987" offset="0%"></stop><stop stop-color="#25AB9B" offset="100%"></stop></linearGradient><path d="M0,0 L24.2332968,0 L24.2332968,10.5550932 C24.2332968,17.2469333 18.8084885,22.6717416 12.1166484,22.6717416 L12.1166484,22.6717416 C5.42480827,22.6717416 8.1951406e-16,17.2469333 0,10.5550932 L0,0 Z" id="path-2"></path></defs><g id="Home" stroke="none" stroke-width="1" fill="none" fill-rule="evenodd"><g id="Careers" transform="translate(-244.000000, -2763.000000)"><g id="Group-2" transform="translate(126.000000, 2717.000000)"><g id="Open-Ideas" transform="translate(88.000000, 18.000000)"><rect id="Rectangle" fill-rule="nonzero" x="0" y="0" width="144" height="144"></rect><g id="Group-16" transform="translate(30.000000, 20.000000)"><g id="Group-11" transform="translate(0.716867, 0.126307)"><path d="M67.8143546,51.948879 C67.6772725,54.8379314 67.1805559,57.6325606 66.3680819,60.2887765 C62.113162,74.1993586 49.1982532,84.313804 33.9266156,84.313804 C33.5790358,84.313804 33.2326768,84.3085647 32.887613,84.2981604 L32.887613,72.149105 C31.1008806,73.0662032 30.4756055,73.5783761 28.4216814,73.5783761 C25.7984801,73.5783761 23.6719552,71.4500487 23.6719552,68.8246238 C23.6719552,66.1991989 25.7984801,64.0708715 28.4216814,64.0708715 C30.4756055,64.0708715 30.4756055,64.3969719 32.887613,65.1196605 L32.887613,51.948879 L43.2298521,51.948879 C43.0441291,52.5681239 42.9443365,53.2245705 42.9443365,53.9043447 C42.9443365,57.6549517 45.9822291,60.6954194 49.7296596,60.6954194 C53.4770901,60.6954194 56.5149827,57.6549517 56.5149827,53.9043447 C56.5149827,53.2245705 56.41519,52.5681239 56.2294671,51.948879 L67.8143546,51.948879 Z M29.8554217,16.5409174 L29.8554217,29.5332165 C32.2674291,28.810528 32.2674291,28.4844275 34.3213532,28.4844275 C36.9445546,28.4844275 39.0710794,30.6127549 39.0710794,33.2381798 C39.0710794,35.8636047 36.9445546,37.9919321 34.3213532,37.9919321 C32.2674291,37.9919321 31.642154,37.4797592 29.8554217,36.562661 L29.8554217,49.0556614 L20.3451608,49.0556614 C20.5308838,48.4364165 20.6306765,47.7799699 20.6306765,47.1001957 C20.6306765,43.3495887 17.5927838,40.309121 13.8453534,40.309121 C10.0979229,40.309121 7.06003025,43.3495887 7.06003025,47.1001957 C7.06003025,47.7799699 7.15982292,48.4364165 7.34554587,49.0556614 L0.0225120098,49.0556614 C0.629553828,32.2220913 13.4423802,18.5084739 29.8554217,16.5409174 Z M30.1734837,51.7720913 L30.1734837,62.2365026 C29.5547633,62.0506223 28.8988726,61.950745 28.2196742,61.950745 C24.4722437,61.950745 21.434351,64.9912127 21.434351,68.7418197 C21.434351,72.4924266 24.4722437,75.5328943 28.2196742,75.5328943 C28.8988726,75.5328943 29.5547633,75.4330171 30.1734837,75.2471367 L30.1734837,84.1080722 C13.6784357,82.2884473 0.74358098,68.6155541 0.0309515804,51.7721045 L10.2262619,51.7720913 C9.50418542,49.3580393 9.17836117,49.3580393 9.17836117,47.3023742 C9.17836117,44.6769493 11.304886,42.5486219 13.9280873,42.5486219 C16.5512887,42.5486219 18.6778135,44.6769493 18.6778135,47.3023742 C18.6778135,49.3580393 18.1660745,49.9838444 17.2497529,51.7720913 L30.1734837,51.7720913 Z" id="Shape" fill="url(#linearGradient-1)"></path><g id="Group-24" transform="translate(21.713034, 81.492896)"><mask id="mask-3" fill="white"><use xlink:href="#path-2"></use></mask><use id="Rectangle-27" fill="#177383" xlink:href="#path-2"></use><ellipse id="Oval-17-Copy" stroke="#33BAAA" stroke-width="1.63425596" opacity="0.601732337" mask="url(#mask-3)" cx="11.3088719" cy="-16.1941011" rx="33.9266156" ry="34.0076124"></ellipse><ellipse id="Oval-17-Copy-2" stroke="#33BAAA" stroke-width="1.63425596" opacity="0.601732337" mask="url(#mask-3)" cx="11.3088719" cy="-22.6717416" rx="33.9266156" ry="34.0076124"></ellipse><ellipse id="Oval-17-Copy-6" fill-opacity="0.210000008" fill="#000000" mask="url(#mask-3)" cx="10.856517" cy="-23.0374149" rx="33.9266156" ry="34.0076124"></ellipse></g><path d="M83.8074553,20.043934 L73.4683657,30.0322531 C75.3693216,30.6821003 76.1719932,30.7767562 77.5996134,32.2556885 C79.4229209,34.1445301 79.3715278,37.1533247 77.4848236,38.9760193 C75.5981194,40.7987139 72.5905607,40.7450912 70.7672532,38.8562496 C69.339633,37.3773173 69.5739779,37.1509229 68.4168092,34.9124272 L58.7957085,44.2071162 L51.7527062,37.4027127 C52.3161068,37.0866623 52.8434756,36.6841136 53.3152072,36.1954017 C55.9179533,33.4989675 55.8413812,29.2006345 53.1441786,26.5948062 C50.446976,23.9889779 46.1505186,24.0624284 43.5477725,26.7588626 C43.0760409,27.2475745 42.6923231,27.7889077 42.3962696,28.3632482 L35.1388477,21.3516891 C35.4581336,21.0047623 35.7859777,20.6628913 36.1223803,20.3263461 C49.2565106,7.18664842 70.5055473,7.09859284 83.8074553,20.043934 Z" id="Path" fill="#0D505D" transform="translate(59.473152, 27.304937) rotate(30.000000) translate(-59.473152, -27.304937) "></path></g></g></g></g></g></g></svg> 