<?xml version="1.0" encoding="UTF-8"?> <svg xmlns="http://www.w3.org/2000/svg" xmlns:xlink="http://www.w3.org/1999/xlink" width="36px" height="28px" viewBox="0 0 36 28"><!-- Generator: Sketch 52.6 (67491) - http://www.bohemiancoding.com/sketch --><title>Paid Incentives</title><desc>Created with Sketch.</desc><defs><linearGradient x1="100%" y1="0%" x2="0%" y2="100%" id="linearGradient-1"><stop stop-color="#8CD987" offset="0%"></stop><stop stop-color="#1FA595" offset="100%"></stop></linearGradient></defs><g id="Home" stroke="none" stroke-width="1" fill="none" fill-rule="evenodd"><g id="Careers" transform="translate(-202.000000, -4678.000000)"><g id="Group-13" transform="translate(200.000000, 4293.000000)"><g id="content-copy-2" transform="translate(0.000000, 376.000000)"><g id="Paid-Incentives" transform="translate(0.000000, 3.000000)"><polygon id="Rectangle-38" points="0 0 40 0 40 40 0 40"></polygon><g id="Group-21" transform="translate(2.000000, 6.000000)"><path d="M0,1.10526316 C6.63693529,2.07486147 12.2732989,2.07486147 16.9090909,1.10526316 C21.5448829,0.135664846 26.4539738,0.135664846 31.6363636,1.10526316 L31.6363636,17.4736842 C26.8649791,16.3671943 21.9558882,16.3671943 16.9090909,17.4736842 C11.8622936,18.5801741 6.22593001,18.5801741 0,17.4736842 L0,1.10526316 Z" id="Rectangle" fill="#0D6574"></path><path d="M4.36363636,7.52631579 C10.2732989,8.4959141 15.5460262,8.4959141 20.1818182,7.52631579 C24.8176102,6.55671748 30.0903374,6.55671748 36,7.52631579 L36,26.8947368 C30.5013427,25.7882469 25.2286154,25.7882469 20.1818182,26.8947368 C15.1350209,28.0012268 9.86229365,28.0012268 4.36363636,26.8947368 L4.36363636,7.52631579 Z" id="Rectangle" fill="url(#linearGradient-1)"></path><path d="M18.533439,14.9798995 C18.533439,14.521608 18.9656845,14.2924623 19.6020459,14.2924623 C20.2744278,14.2924623 21.331028,14.6301508 22.2195326,15.160804 L22.9519486,13.5809045 C22.2675599,13.1226131 21.3550416,12.7969849 20.394496,12.7005025 L20.394496,11 L19.0137118,11 L19.0137118,12.7125628 C17.4888456,12.9296482 16.5042864,13.8341709 16.5042864,15.160804 C16.5042864,18.1517588 20.9828302,17.2231156 20.9828302,18.8150754 C20.9828302,19.3336683 20.5145642,19.6231156 19.7341209,19.6231156 C18.8456163,19.6231156 17.6209207,19.1286432 16.7564296,18.3567839 L16,19.9125628 C16.7924501,20.5879397 17.8730639,21.0703518 19.0137118,21.2030151 L19.0137118,23 L20.394496,23 L20.394496,21.2030151 C21.9073553,21.0100503 22.9999759,20.1537688 22.9999759,18.7065327 C23.0119827,15.6673367 18.533439,16.5356784 18.533439,14.9798995 Z" id="$" fill="#D9F1EE"></path></g></g></g></g></g></g></svg> 