<?xml version="1.0" encoding="UTF-8"?> <svg xmlns="http://www.w3.org/2000/svg" xmlns:xlink="http://www.w3.org/1999/xlink" width="34px" height="39px" viewBox="0 0 34 39"><!-- Generator: Sketch 52.6 (67491) - http://www.bohemiancoding.com/sketch --><title>Paid Paternity</title><desc>Created with Sketch.</desc><defs><linearGradient x1="100%" y1="0%" x2="0%" y2="100%" id="linearGradient-1"><stop stop-color="#8CD987" offset="0%"></stop><stop stop-color="#1FA595" offset="100%"></stop></linearGradient><path d="M21.6458244,25 L22,25 C24.209139,25 26,26.790861 26,29 L26,32.34 C26,32.7045079 25.7045079,33 25.34,33 L13.7003778,33 C13.3389565,33 13.0447586,32.7093086 13.0404253,32.3479133 L13.0002816,29 C12.9761684,26.9889911 14.4581963,25.3107688 16.3985441,25.0385873 C15.542454,24.3049671 15,23.215832 15,22 C15,19.790861 16.790861,18 19,18 C21.209139,18 23,19.790861 23,22 C23,23.1946925 22.4762451,24.2670555 21.6458244,25 Z" id="path-2"></path><filter x="-61.5%" y="-46.7%" width="223.1%" height="206.7%" id="filter-3"><feOffset dx="0" dy="1" in="SourceAlpha" result="shadowOffsetOuter1"></feOffset><feGaussianBlur stdDeviation="2.5" in="shadowOffsetOuter1" result="shadowBlurOuter1"></feGaussianBlur><feColorMatrix values="0 0 0 0 0.0509803922 0 0 0 0 0.396078431 0 0 0 0 0.454901961 0 0 0 0.644418025 0" type="matrix" in="shadowBlurOuter1"></feColorMatrix></filter></defs><g id="Home" stroke="none" stroke-width="1" fill="none" fill-rule="evenodd"><g id="Careers" transform="translate(-628.000000, -4487.000000)"><g id="Group-13" transform="translate(200.000000, 4293.000000)"><g id="content-copy" transform="translate(0.000000, 188.000000)"><g id="Paid-Paternity" transform="translate(425.000000, 3.000000)"><polygon id="Rectangle-38" points="0 0 40 0 40 40 0 40"></polygon><g id="Group-26" transform="translate(3.000000, 3.000000)"><path d="M9.62717752,15.3548387 C7.13276929,13.9334697 5.45403791,11.2731528 5.45403791,8.22580645 C5.45403791,3.68281899 9.18499833,0 13.7873712,0 C18.3897442,0 22.1207046,3.68281899 22.1207046,8.22580645 C22.1207046,11.2731528 20.4419732,13.9334697 17.947565,15.3548387 L18.9020728,15.3548387 C23.7479261,15.3548387 27.6762664,19.283179 27.6762664,24.1290323 L27.6762664,31.8032258 C27.6762664,32.410739 27.1837796,32.9032258 26.5762664,32.9032258 L1.18997481,32.9032258 C0.587454552,32.9032258 0.0970606386,32.4185056 0.090049289,31.8160262 L0.000591962375,24.1290323 C-0.055149153,19.3392444 3.78255398,15.4111671 8.57234182,15.355426 C8.60598314,15.3550345 8.63962644,15.3548387 8.67327004,15.3548387 L9.62717752,15.3548387 Z" id="Combined-Shape" fill="url(#linearGradient-1)"></path><path d="M22.9134459,22.3333333 C21.3812692,21.4693639 20.3501177,19.8523086 20.3501177,18 C20.3501177,15.2385763 22.6418397,13 25.4688221,13 C28.2958045,13 30.5875265,15.2385763 30.5875265,18 C30.5875265,19.8523086 29.556375,21.4693639 28.0241984,22.3333333 L28.6666667,22.3333333 C31.6121853,22.3333333 34,24.721148 34,27.6666667 L34,32.34 C34,32.7045079 33.7045079,33 33.34,33 L17.7153726,33 C17.3538919,33 17.0596689,32.7092167 17.0554182,32.3477611 L17.0003683,27.6666667 C16.9661338,24.7555838 19.2982803,22.3679323 22.2093631,22.3336978 C22.2300246,22.3334548 22.2506873,22.3333333 22.2713502,22.3333333 L22.9134459,22.3333333 Z" id="Combined-Shape" fill="#0D6574"></path><g id="Combined-Shape"><use fill="black" fill-opacity="1" filter="url(#filter-3)" xlink:href="#path-2"></use><use fill="#D9F1EE" fill-rule="evenodd" xlink:href="#path-2"></use></g></g></g></g></g></g></g></svg> 