<?xml version="1.0" encoding="UTF-8"?> <svg xmlns="http://www.w3.org/2000/svg" xmlns:xlink="http://www.w3.org/1999/xlink" width="30px" height="34px" viewBox="0 0 30 34"><!-- Generator: Sketch 52.6 (67491) - http://www.bohemiancoding.com/sketch --><title>Personal Development</title><desc>Created with Sketch.</desc><defs><linearGradient x1="100%" y1="0%" x2="0%" y2="100%" id="linearGradient-1"><stop stop-color="#8CD987" offset="0%"></stop><stop stop-color="#1FA595" offset="100%"></stop></linearGradient></defs><g id="Home" stroke="none" stroke-width="1" fill="none" fill-rule="evenodd"><g id="Careers" transform="translate(-206.000000, -4299.000000)"><g id="Group-13" transform="translate(200.000000, 4293.000000)"><g id="content"><g id="Personal-Development" transform="translate(0.000000, 3.000000)"><polygon id="Rectangle-38" points="0 0 40 0 40 40 0 40"></polygon><g id="Group" transform="translate(6.000000, 3.000000)"><path d="M10.423602,15.8201369 C7.75102171,14.355696 5.95238095,11.6147635 5.95238095,8.47507331 C5.95238095,3.79441957 9.94983854,0 14.8809524,0 C19.8120662,0 23.8095238,3.79441957 23.8095238,8.47507331 C23.8095238,11.6147635 22.0108831,14.355696 19.3383028,15.8201369 L20.7218266,15.8201369 C25.7145239,15.8201369 29.7619048,19.8675177 29.7619048,24.8602151 L29.7619048,32.7598133 C29.7619048,33.389683 29.2512945,33.9002933 28.6214248,33.9002933 L1.3455677,33.9002933 C0.721081055,33.9002933 0.212728202,33.3980553 0.205171209,32.7736143 L0.109403146,24.8602151 C0.0497082565,19.9275738 4.00001178,15.8804858 8.93265302,15.8207909 C8.96868042,15.8203549 9.00471013,15.8201369 9.04074018,15.8201369 L10.423602,15.8201369 Z" id="Combined-Shape" fill="url(#linearGradient-1)"></path><rect id="Rectangle" fill="#0D6574" fill-rule="nonzero" x="9.64285714" y="23.6969697" width="5.35714286" height="8.24242424"></rect><polygon id="Rectangle" fill="#0D6574" fill-rule="nonzero" points="17.1428571 17.5151515 22.5 17.5151515 22.5 31.9393939 17.1428571 31.9393939"></polygon><polygon id="Rectangle" fill="#0D6574" fill-rule="nonzero" points="24.6428571 11.3333333 30 11.3333333 30 31.9393939 24.6428571 31.9393939"></polygon></g></g></g></g></g></g></svg> 