<?xml version="1.0" encoding="UTF-8"?> <svg xmlns="http://www.w3.org/2000/svg" xmlns:xlink="http://www.w3.org/1999/xlink" width="186px" height="165px" viewBox="0 0 186 165"><!-- Generator: Sketch 52.5 (67469) - http://www.bohemiancoding.com/sketch --><title>Personlized Experiences</title><desc>Created with Sketch.</desc><defs><linearGradient x1="23.2916903%" y1="14.537225%" x2="78.8050321%" y2="119.862794%" id="linearGradient-1"><stop stop-color="#AFF7E7" offset="0%"></stop><stop stop-color="#5DD1E4" offset="100%"></stop></linearGradient><rect id="path-2" x="19.5605901" y="20.0274739" width="106.195084" height="105.9458" rx="7.2"></rect><linearGradient x1="11.5884416%" y1="20.3503406%" x2="79.3937209%" y2="90.8531466%" id="linearGradient-4"><stop stop-color="#8BDFC6" offset="0%"></stop><stop stop-color="#7DEAC5" offset="100%"></stop></linearGradient><linearGradient x1="35.3833382%" y1="3.37710113%" x2="22.3074002%" y2="94.5399843%" id="linearGradient-5"><stop stop-color="#C9F1E5" offset="0%"></stop><stop stop-color="#72E5BE" offset="100%"></stop></linearGradient><ellipse id="path-6" cx="55.3560235" cy="55.3754229" rx="55.3560235" ry="55.3754229"></ellipse><path d="M12.037462,4.74524611 L12.7469192,4.03745423 C14.9998982,1.78976395 18.6514949,1.78856283 20.9029887,4.03477147 C23.1544826,6.28098012 23.1532786,9.92400499 20.9002997,12.1716953 L20.1991589,12.8877842 L12.0404003,21.0273907 L3.52420857,12.53119 C1.27271473,10.2849814 1.27391867,6.6419565 3.52689764,4.39426621 C5.77987661,2.14657593 9.43147331,2.14537481 11.6829672,4.39158345 L12.037462,4.74524611 Z" id="path-8"></path><filter x="-79.5%" y="-88.3%" width="259.0%" height="276.7%" id="filter-9"><feOffset dx="0" dy="0" in="SourceAlpha" result="shadowOffsetOuter1"></feOffset><feGaussianBlur stdDeviation="5.5" in="shadowOffsetOuter1" result="shadowBlurOuter1"></feGaussianBlur><feColorMatrix values="0 0 0 0 0.414386489 0 0 0 0 0.762223639 0 0 0 0 0.392089236 0 0 0 0.759992074 0" type="matrix" in="shadowBlurOuter1"></feColorMatrix></filter><ellipse id="path-10" cx="12.2391494" cy="24.6776662" rx="7.4391494" ry="1.53212632"></ellipse><filter x="-109.9%" y="-538.5%" width="319.9%" height="1176.9%" id="filter-11"><feOffset dx="0" dy="0" in="SourceAlpha" result="shadowOffsetOuter1"></feOffset><feGaussianBlur stdDeviation="5.5" in="shadowOffsetOuter1" result="shadowBlurOuter1"></feGaussianBlur><feColorMatrix values="0 0 0 0 0.414386489 0 0 0 0 0.762223639 0 0 0 0 0.392089236 0 0 0 0.759992074 0" type="matrix" in="shadowBlurOuter1"></feColorMatrix></filter><ellipse id="path-12" cx="51.4391494" cy="24.6776662" rx="7.4391494" ry="1.53212632"></ellipse><filter x="-109.9%" y="-538.5%" width="319.9%" height="1176.9%" id="filter-13"><feOffset dx="0" dy="0" in="SourceAlpha" result="shadowOffsetOuter1"></feOffset><feGaussianBlur stdDeviation="5.5" in="shadowOffsetOuter1" result="shadowBlurOuter1"></feGaussianBlur><feColorMatrix values="0 0 0 0 0.414386489 0 0 0 0 0.762223639 0 0 0 0 0.392089236 0 0 0 0.759992074 0" type="matrix" in="shadowBlurOuter1"></feColorMatrix></filter><path d="M51.1204179,4.74524611 L51.8298752,4.03745423 C54.0828541,1.78976395 57.7344508,1.78856283 59.9859447,4.03477147 C62.2374385,6.28098012 62.2362346,9.92400499 59.9832556,12.1716953 L59.2821148,12.8877842 L51.1233563,21.0273907 L42.6071645,12.53119 C40.3556707,10.2849814 40.3568746,6.6419565 42.6098536,4.39426621 C44.8628325,2.14657593 48.5144292,2.14537481 50.7659231,4.39158345 L51.1204179,4.74524611 Z" id="path-14"></path><filter x="-79.5%" y="-88.3%" width="259.0%" height="276.7%" id="filter-15"><feOffset dx="0" dy="0" in="SourceAlpha" result="shadowOffsetOuter1"></feOffset><feGaussianBlur stdDeviation="5.5" in="shadowOffsetOuter1" result="shadowBlurOuter1"></feGaussianBlur><feColorMatrix values="0 0 0 0 0.414386489 0 0 0 0 0.762223639 0 0 0 0 0.392089236 0 0 0 0.759992074 0" type="matrix" in="shadowBlurOuter1"></feColorMatrix></filter><path d="M24.7132905,37.748292 C24.7132905,34.1754118 27.9822644,31.2790202 32.0147482,31.2790202 C36.047232,31.2790202 39.3162059,34.1754118 39.3162059,37.748292 C29.580929,37.748292 24.7132905,37.748292 24.7132905,37.748292 Z" id="path-16"></path><filter x="-113.0%" y="-255.1%" width="326.0%" height="610.1%" id="filter-17"><feOffset dx="0" dy="0" in="SourceAlpha" result="shadowOffsetOuter1"></feOffset><feGaussianBlur stdDeviation="5.5" in="shadowOffsetOuter1" result="shadowBlurOuter1"></feGaussianBlur><feColorMatrix values="0 0 0 0 0.414386489 0 0 0 0 0.762223639 0 0 0 0 0.392089236 0 0 0 0.759992074 0" type="matrix" in="shadowBlurOuter1"></feColorMatrix></filter><linearGradient x1="0%" y1="22.6288417%" x2="157.910643%" y2="109.975606%" id="linearGradient-18"><stop stop-color="#90E28A" offset="0%"></stop><stop stop-color="#28AD9D" offset="100%"></stop></linearGradient><linearGradient x1="87.0321482%" y1="7.79956272%" x2="78.8050321%" y2="119.862794%" id="linearGradient-19"><stop stop-color="#CDFFF4" offset="0%"></stop><stop stop-color="#5DD1E4" offset="100%"></stop></linearGradient></defs><g id="Pages" stroke="none" stroke-width="1" fill="none" fill-rule="evenodd"><g id="Bots/AI" transform="translate(-705.000000, -1463.000000)"><g id="Group-4" transform="translate(231.000000, 1213.000000)"><g id="Group-6" transform="translate(403.000000, 247.000000)"><g id="Personlized-Experiences" transform="translate(69.000000, 0.000000)"><g id="Group-135" transform="translate(0.000000, 24.943662)"><mask id="mask-3" fill="white"><use xlink:href="#path-2"></use></mask><use id="Rectangle-70" fill="url(#linearGradient-1)" opacity="0.400000006" transform="translate(72.658132, 73.000374) rotate(-330.000000) translate(-72.658132, -73.000374) " xlink:href="#path-2"></use><path d="M37.8852389,65.4042033 C31.6632611,65.4042033 28.3528175,36.5695602 42.2387712,32.5025124 C50.4320075,6.51631808 72.3382714,-1.90150683 100.312564,-1.90150683 C135.307973,-1.90150683 162.951196,19.5912106 162.951196,54.5773008 C162.951196,74.9419298 153.262255,93.6774156 137.281117,105.511712 C140.691483,110.666567 142.114613,115.733519 141.123019,120.815775 C139.716306,128.025667 129.897939,137.111654 121.547655,140.697963 C121.245145,142.214309 120.64596,143.685342 119.712366,145.066203 C116.808989,149.360533 111.903827,150.984396 106.646891,150.501543 C102.616079,150.131311 98.3552073,148.504553 94.523945,145.9264 C90.6926828,143.348247 87.5846789,140.016303 85.7306292,136.426465 C83.3125995,131.74464 82.9842556,126.59902 85.8876335,122.304689 C86.9961544,120.665097 88.4070835,119.411526 90.02276,118.51692 C90.0556565,118.0934 90.1032135,117.6654 90.1648347,117.233386 C66.1203245,113.631317 43.2366647,92.9932088 37.8852389,65.4042033 Z" id="Path" fill="#0D6574" opacity="0.100000001" mask="url(#mask-3)"></path></g><g id="Group-134" transform="translate(29.600000, 10.577465)"><g id="Lead-Nurturing" transform="translate(70.400000, 65.046948) rotate(9.000000) translate(-70.400000, -65.046948) translate(8.000000, 9.577465)"><g id="Group-56"><path d="M8.32094208,43.1398737 L10.5023286,43.1398737 L10.5023286,67.2161445 L8.32094208,67.2161445 C3.72541266,67.2161445 5.62790039e-16,63.4907319 0,58.8952025 L0,51.4608158 C-5.62790039e-16,46.8652864 3.72541266,43.1398737 8.32094208,43.1398737 Z" id="Rectangle-18" fill="url(#linearGradient-4)"></path><rect id="Rectangle-18-Copy-2" fill="#000000" opacity="0.100000001" x="4.8" y="43.0985915" width="10.5023286" height="24.0762708" rx="2.88"></rect><path d="M122.096168,43.3372875 L124.277555,43.3372875 L124.277555,67.4135583 L122.096168,67.4135583 C117.500639,67.4135583 113.775226,63.6881456 113.775226,59.0926162 L113.775226,51.6582295 C113.775226,47.0627001 117.500639,43.3372875 122.096168,43.3372875 Z" id="Rectangle-18-Copy" fill="url(#linearGradient-4)" transform="translate(119.026390, 55.375423) scale(-1, 1) translate(-119.026390, -55.375423) "></path><rect id="Rectangle-18-Copy-3" fill="#000000" opacity="0.100000001" x="109.6" y="43.0985915" width="10.5023286" height="24.0762708" rx="2.88"></rect><g id="Group-53" transform="translate(7.439149, 0.000000)"><mask id="mask-7" fill="white"><use xlink:href="#path-6"></use></mask><use id="Oval-12" fill="url(#linearGradient-5)" xlink:href="#path-6"></use><path d="M20.726893,110.691277 C15.1813747,94.2874061 11.8385335,81.8588905 10.6983695,73.4057297 C7.07680498,46.555498 19.7211521,34.5936318 29.7913,34.5936318 C33.4221415,34.5936318 36.9703093,35.6085817 39.9812413,37.5084544 C44.9908961,40.6695043 50.0005508,42.2500293 55.0102055,42.2500293 C60.0198603,42.2500293 65.029515,40.6695043 70.0391698,37.5084544 C73.1943338,35.5175726 76.7780844,34.4680705 80.3128792,34.592154 C100.573908,35.3033862 101.706321,62.0100553 100.573908,74.750095 C99.8189663,83.2434548 95.8652885,95.4996807 88.7128747,111.518773 L20.726893,110.691277 Z" id="Path-52" fill="#0D6574" mask="url(#mask-7)"></path><g id="Group-55" mask="url(#mask-7)"><g transform="translate(23.643807, 52.273574)" id="Group-54"><g transform="translate(0.000000, 0.000000)"><g id="Combined-Shape" transform="translate(12.213599, 11.689146) rotate(-12.000000) translate(-12.213599, -11.689146) "><use fill="black" fill-opacity="1" filter="url(#filter-9)" xlink:href="#path-8"></use><use fill="#AFFFAA" fill-rule="evenodd" xlink:href="#path-8"></use></g><g id="Oval-17" opacity="0.300000012"><use fill="black" fill-opacity="1" filter="url(#filter-11)" xlink:href="#path-10"></use><use fill="#AFFFAA" fill-rule="evenodd" xlink:href="#path-10"></use></g><g id="Oval-17-Copy" opacity="0.300000012"><use fill="black" fill-opacity="1" filter="url(#filter-13)" xlink:href="#path-12"></use><use fill="#AFFFAA" fill-rule="evenodd" xlink:href="#path-12"></use></g><g id="Combined-Shape-Copy-24" transform="translate(51.296555, 11.689146) scale(-1, 1) rotate(-12.000000) translate(-51.296555, -11.689146) "><use fill="black" fill-opacity="1" filter="url(#filter-15)" xlink:href="#path-14"></use><use fill="#AFFFAA" fill-rule="evenodd" xlink:href="#path-14"></use></g><g id="Rectangle-6-Copy" transform="translate(32.014748, 34.513656) scale(1, -1) translate(-32.014748, -34.513656) "><use fill="black" fill-opacity="1" filter="url(#filter-17)" xlink:href="#path-16"></use><use fill="#AFFFAA" fill-rule="evenodd" xlink:href="#path-16"></use></g></g></g></g><path d="M17.9274547,111.556982 C11.9350995,94.008445 8.32290494,80.7126645 7.09087086,71.6696402 C3.17749439,42.9457931 16.840675,30.149225 27.7222372,30.149225 C31.6456381,30.149225 35.4797038,31.2349984 38.7332453,33.2674447 C44.146559,36.6490734 49.5598726,38.3398878 54.9731863,38.3398878 C60.3865,38.3398878 65.7998137,36.6490734 71.2131274,33.2674446 C74.6225226,31.1376386 78.4950382,30.014902 82.3146534,30.1476441 C104.208239,30.9085063 105.431897,59.478773 104.208239,73.1078157 C103.392467,82.1938441 99.1202168,95.3053124 91.3914886,112.44222 L17.9274547,111.556982 Z" id="Path-52-Copy" stroke="#0D6574" stroke-width="1.31383296" stroke-linecap="round" stroke-linejoin="round" mask="url(#mask-7)"></path><path d="M56.1562634,37.876028 L56.1562634,-6.13821306" id="Path-53" stroke="#0D6574" stroke-width="1.31383296" opacity="0.5" stroke-linecap="round" stroke-linejoin="round" stroke-dasharray="2.1897216796875,6.131219863891602" mask="url(#mask-7)"></path></g></g></g><path d="M125.728368,71.8309859 C122.342761,99.1682858 99.0391955,120.328311 70.7951729,120.328311 C68.2491413,120.328311 65.7432557,120.156365 63.2884871,119.823449 C65.500016,111.74399 72.8207225,100.814179 78.8398899,100.814179 C80.7173431,100.814179 82.1707131,100.965216 83.2,101.267291 L83.2,83.0309859 C83.2,76.8453967 88.2144108,71.8309859 94.4,71.8309859 L125.728368,71.8309859 Z" id="Combined-Shape" fill="#000000" opacity="0.200000003"></path><g id="Group-133" transform="translate(59.200000, 77.417840)"><g id="Group-130" transform="translate(32.000000, 0.000000)"><rect id="Rectangle-71" fill="url(#linearGradient-18)" x="0" y="0" width="67.2" height="57.4647887" rx="4.8"></rect><g id="Group-131-Copy" transform="translate(10.400000, 33.521127)"><ellipse id="Oval-78" stroke="#0D6574" stroke-width="1.31383296" stroke-linecap="round" stroke-linejoin="round" cx="6.8" cy="6.78403756" rx="6.8" ry="6.78403756"></ellipse><rect id="Rectangle-72" fill="#0D6574" opacity="0.400000006" x="19.2" y="4.78873239" width="25.6" height="5.58685446" rx="2.79342723"></rect></g><path d="M16.6296097,57.4647887 L4.8,57.4647887 C2.1490332,57.4647887 3.85644705e-15,55.3157555 0,52.6647887 L0,26.2556031 L8.72937731,23.041069 L13.6830096,26.2120231 L11.4382539,40.2182714 C17.207846,46.9979412 18.9382979,52.7467803 16.6296097,57.4647887 Z" id="Combined-Shape" fill="#0D6574" opacity="0.300000012"></path><g id="Group-131" transform="translate(10.400000, 4.788732)"><ellipse id="Oval-78" stroke="#0D6574" stroke-width="1.31383296" stroke-linecap="round" stroke-linejoin="round" cx="6.8" cy="10.7746479" rx="6.8" ry="6.78403756"></ellipse><polyline id="Path-299" stroke="#FFFFFF" stroke-width="3.2" points="1.56405337 8.49301674 7.36064556 13.4128813 18.5449032 0.546939546"></polyline><rect id="Rectangle-72" fill="#0D6574" opacity="0.400000006" x="19.2" y="8.77934272" width="26.4" height="5.58685446" rx="2.79342723"></rect></g></g><g id="Group-132" transform="translate(0.000000, 23.145540)"><ellipse id="Oval-76" fill="#0D6574" transform="translate(14.800000, 43.497653) rotate(34.000000) translate(-14.800000, -43.497653) " cx="14.8" cy="43.4976526" rx="12.4" ry="6.78403756"></ellipse><path d="M24.084731,9.58259036 C26.5181495,9.58259036 28.1318591,9.87452973 28.9258597,10.4584085 L39.7466462,0.961361361 C41.1603263,-0.279379002 43.2612246,-0.324586377 44.7269682,0.854194205 L44.7269682,0.854194205 C46.1683812,2.01340762 46.5027203,4.07344717 45.5019112,5.62902692 L39.2133914,15.4034122 C43.9963503,20.7183635 46.0153532,25.2849098 45.2704001,29.1030513 C44.1529705,34.8302634 31.813619,44.0011782 27.2173723,44.0862779 C22.6211256,44.1713777 24.084731,47.7058533 20.3137615,47.7058533 C13.6140123,47.7058533 9.5094252,44.7181435 8,38.7427237 L10.3798692,31.9659482 C8,26.7025296 17.0617001,9.58259036 24.084731,9.58259036 Z" id="Path-293" fill="url(#linearGradient-19)"></path></g></g></g><path d="M16.6718473,6.45900261 L33.7705771,6.45900261 C37.3051995,6.45900261 40.1705771,9.32438021 40.1705771,12.8590026 L40.1705771,29.8875476 C40.1705771,33.42217 37.3051995,36.2875476 33.7705771,36.2875476 L16.6718473,36.2875476 C13.1372249,36.2875476 10.2718473,33.42217 10.2718473,29.8875476 L10.2718473,12.8590026 C10.2718473,9.32438021 13.1372249,6.45900261 16.6718473,6.45900261 Z" id="Rectangle-70-Copy" fill="url(#linearGradient-1)" opacity="0.400000006" transform="translate(25.221212, 21.373275) rotate(-330.000000) translate(-25.221212, -21.373275) "></path></g></g></g></g></g></svg> 