<?xml version="1.0" encoding="UTF-8"?> <svg xmlns="http://www.w3.org/2000/svg" xmlns:xlink="http://www.w3.org/1999/xlink" width="69px" height="70px" viewBox="0 0 69 70"><!-- Generator: Sketch 52.5 (67469) - http://www.bohemiancoding.com/sketch --><title>PROACTIVE MONITORING</title><desc>Created with Sketch.</desc><defs><linearGradient x1="30.8057882%" y1="22.7126772%" x2="81.8145032%" y2="79.6238277%" id="linearGradient-1"><stop stop-color="#7ECC79" offset="0%"></stop><stop stop-color="#28AD9D" offset="100%"></stop></linearGradient></defs><g id="Pages" stroke="none" stroke-width="1" fill="none" fill-rule="evenodd"><g id="Messaging" transform="translate(-920.000000, -1845.000000)"><g id="Feature-(8-icons)" transform="translate(0.000000, 1249.000000)"><g id="PROACTIVE-MONITORING" transform="translate(907.000000, 576.000000)"><rect id="Rectangle-8-Copy-9" x="2" y="14" width="83" height="83" rx="12"></rect><g id="Group-51"><g id="Group-50" transform="translate(52.244656, 51.405821) rotate(-45.000000) translate(-52.244656, -51.405821) translate(17.244656, 13.905821)"><path d="M24.8357864,39.2059966 L29.8357864,39.2059966 L29.8357864,74.011985 L24.8357864,74.011985 L24.8357864,39.2059966 Z M29.8357864,39.2059966 L29.8357864,74.011985 L24.8357864,74.011985 L24.8357864,39.2059966 L29.8357864,39.2059966 Z" id="Path-98" stroke="#0D6574" stroke-width="5" fill="#0D6574" stroke-linecap="round" stroke-linejoin="round"></path><ellipse id="Oval-23" fill="url(#linearGradient-1)" cx="28.75" cy="28.8742138" rx="28.59375" ry="28.7735849"></ellipse><path d="M24.5625423,67.757216 C40.3544343,67.757216 53.1562923,54.8748432 53.1562923,38.9836311 C53.1562923,23.092419 40.3544343,10.2100462 24.5625423,10.2100462 L24.5625423,67.757216 Z" id="Oval-23-Copy" fill="#0D6574" opacity="0.200000003" transform="translate(38.859417, 38.983631) rotate(-315.000000) translate(-38.859417, -38.983631) "></path></g><path d="M71.4557565,32.733182 L69.7035875,30.3215284 L81.6648005,28.8768325 L76.0880791,39.1090272 L74.0359783,36.2845528 L41.7042961,59.8866137 L34.4271275,51.2178061 L18.7404013,63.0862415 C18.2005791,62.102303 17.8222963,61.3555173 17.6055529,60.8458844 C17.3888094,60.3362515 17.1854699,59.7154577 16.9955344,58.9835031 L35.10297,45.1967415 L42.4065075,53.8969608 L71.4557565,32.733182 Z" id="Combined-Shape" fill="#0D505D" fill-rule="nonzero"></path></g></g></g></g></g></svg> 