<?xml version="1.0" encoding="UTF-8"?> <svg xmlns="http://www.w3.org/2000/svg" xmlns:xlink="http://www.w3.org/1999/xlink" width="178px" height="176px" viewBox="0 0 178 176"><!-- Generator: Sketch 52.6 (67491) - http://www.bohemiancoding.com/sketch --><title>Product Management</title><desc>Created with Sketch.</desc><defs><linearGradient x1="100%" y1="0%" x2="0%" y2="100%" id="linearGradient-1"><stop stop-color="#8CD987" offset="0%"></stop><stop stop-color="#1FA595" offset="100%"></stop></linearGradient><path d="M4,0 L116,0 C118.209139,-4.05812251e-16 120,1.790861 120,4 L120,116 C120,118.209139 118.209139,120 116,120 L4,120 C1.790861,120 2.705415e-16,118.209139 0,116 L0,4 C-2.705415e-16,1.790861 1.790861,4.05812251e-16 4,0 Z" id="path-2"></path><filter x="-35.8%" y="-34.2%" width="171.7%" height="171.7%" id="filter-4"><feOffset dx="0" dy="2" in="SourceAlpha" result="shadowOffsetOuter1"></feOffset><feGaussianBlur stdDeviation="14" in="shadowOffsetOuter1" result="shadowBlurOuter1"></feGaussianBlur><feColorMatrix values="0 0 0 0 0.0509803922 0 0 0 0 0.396078431 0 0 0 0 0.454901961 0 0 0 0.604194973 0" type="matrix" in="shadowBlurOuter1"></feColorMatrix></filter><path d="M7.4827879,6.93612417 L29.0339083,0.839208908 C32.9496395,-0.268570217 37.095894,-0.268570217 41.0116252,0.839208908 L62.5627455,6.93612417 C63.7318863,7.26687969 64.4115318,8.48278584 64.0807762,9.65192658 C63.8727525,10.3872402 63.2980592,10.9619335 62.5627455,11.1699573 L41.0116252,17.2668726 C37.095894,18.3746517 32.9496395,18.3746517 29.0339083,17.2668726 L7.4827879,11.1699573 C6.31364716,10.8392018 5.63400166,9.62329563 5.96475718,8.45415489 C6.17278094,7.71884123 6.74747423,7.14414793 7.4827879,6.93612417 Z M4.20804,15.7263736 L29.3654245,22.9267232 C31.253381,23.4670793 32.5547045,25.1931089 32.5547045,27.1568718 L32.5547045,63.3969565 C32.5547045,65.2194961 31.0772441,66.6969565 29.2547045,66.6969565 C28.9475712,66.6969565 28.6419416,66.6540798 28.3466645,66.5695679 L3.18927999,59.3692183 C1.30132345,58.8288622 1.72508298e-12,57.1028326 1.72484249e-12,55.1390697 L1.7243984e-12,18.898985 C1.72417521e-12,17.0764454 1.47746033,15.598985 3.3,15.598985 C3.60713328,15.598985 3.91276287,15.6418617 4.20804,15.7263736 Z M65.5341645,15.7263736 C65.8294416,15.6418617 66.1350712,15.598985 66.4422045,15.598985 C68.2647441,15.598985 69.7422045,17.0764454 69.7422045,18.898985 L69.7422045,55.1390697 C69.7422045,57.1028326 68.440881,58.8288622 66.5529245,59.3692183 L41.39554,66.5695679 C41.1002629,66.6540798 40.7946333,66.6969565 40.4875,66.6969565 C38.6649603,66.6969565 37.1875,65.2194961 37.1875,63.3969565 L37.1875,27.1568718 C37.1875,25.1931089 38.4888234,23.4670793 40.37678,22.9267232 L65.5341645,15.7263736 Z" id="path-5"></path><filter x="-111.8%" y="-116.9%" width="323.7%" height="333.8%" id="filter-7"><feOffset dx="0" dy="0" in="SourceAlpha" result="shadowOffsetOuter1"></feOffset><feGaussianBlur stdDeviation="26" in="shadowOffsetOuter1" result="shadowBlurOuter1"></feGaussianBlur><feColorMatrix values="0 0 0 0 0.0509803922 0 0 0 0 0.396078431 0 0 0 0 0.454901961 0 0 0 0.799932065 0" type="matrix" in="shadowBlurOuter1"></feColorMatrix></filter><linearGradient x1="100%" y1="0%" x2="-19.7297014%" y2="100%" id="linearGradient-8"><stop stop-color="#8CD987" offset="0%"></stop><stop stop-color="#1FA595" offset="100%"></stop></linearGradient></defs><g id="Home" stroke="none" stroke-width="1" fill="none" fill-rule="evenodd"><g id="Company" transform="translate(-519.000000, -2558.000000)"><g id="Services" transform="translate(150.000000, 2371.000000)"><g id="Product-Management" transform="translate(397.000000, 198.000000)"><path d="M34,0 L146,0 C148.209139,-4.05812251e-16 150,1.790861 150,4 L150,116 C150,118.209139 148.209139,120 146,120 L34,120 C31.790861,120 30,118.209139 30,116 L30,4 C30,1.790861 31.790861,4.05812251e-16 34,0 Z" id="Rectangle-4-Copy" fill="#0D6574"></path><path d="M18,7 L130,7 C132.209139,7 134,8.790861 134,11 L134,123 C134,125.209139 132.209139,127 130,127 L18,127 C15.790861,127 14,125.209139 14,123 L14,11 C14,8.790861 15.790861,7 18,7 Z" id="Rectangle-4-Copy-9" fill="url(#linearGradient-1)" opacity="0.45"></path><g id="Group-29" transform="translate(0.000000, 15.000000)"><mask id="mask-3" fill="white"><use xlink:href="#path-2"></use></mask><g id="Rectangle-4-Copy-5"><use fill="black" fill-opacity="1" filter="url(#filter-4)" xlink:href="#path-2"></use><use fill="url(#linearGradient-1)" fill-rule="evenodd" xlink:href="#path-2"></use></g><g id="Group-5" mask="url(#mask-3)"><g transform="translate(25.000000, 27.000000)"><mask id="mask-6" fill="white"><use xlink:href="#path-5"></use></mask><g id="Combined-Shape" stroke="none" fill="none"><use fill="black" fill-opacity="1" filter="url(#filter-7)" xlink:href="#path-5"></use><use fill="#FFFFFF" fill-rule="evenodd" xlink:href="#path-5"></use></g><polygon id="Path-180" stroke="none" fill="url(#linearGradient-8)" fill-rule="evenodd" opacity="0.400000006" mask="url(#mask-6)" points="8.24029874 -0.676485077 53.0319951 15.1688013 53.0319951 73.7757589 74.4906183 63.9710229 74.4906183 -4.01180317"></polygon><polyline id="Path-181" stroke="#369C85" stroke-width="4" fill="none" fill-rule="nonzero" mask="url(#mask-6)" points="15 64.7662961 15 14.8310862 58.5733422 1"></polyline><polyline id="Path-181-Copy" stroke="#369C85" stroke-width="4" fill="none" fill-rule="nonzero" mask="url(#mask-6)" transform="translate(31.786671, 32.883148) scale(-1, 1) translate(-31.786671, -32.883148) " points="10 64.7662961 10 14.8310862 53.5733422 1"></polyline></g></g><path d="M108,83 L99.25,98 L81.75,98 L73,83 L81.75,68 L99.25,68 L108,83 Z M90.5,88.7735027 C93.721661,88.7735027 96.3333333,86.1886175 96.3333333,83 C96.3333333,79.8113825 93.721661,77.2264973 90.5,77.2264973 C87.278339,77.2264973 84.6666667,79.8113825 84.6666667,83 C84.6666667,86.1886175 87.278339,88.7735027 90.5,88.7735027 Z" id="Combined-Shape" fill="#177383" mask="url(#mask-3)"></path><path d="M109,57.5 L104.5,65 L95.5,65 L91,57.5 L95.5,50 L104.5,50 L109,57.5 Z M100,60.3867513 C101.656854,60.3867513 103,59.0943087 103,57.5 C103,55.9056913 101.656854,54.6132487 100,54.6132487 C98.3431458,54.6132487 97,55.9056913 97,57.5 C97,59.0943087 98.3431458,60.3867513 100,60.3867513 Z" id="Combined-Shape-Copy" fill="#177383" mask="url(#mask-3)"></path></g></g></g></g></g></svg> 