<?xml version="1.0" encoding="UTF-8"?> <svg xmlns="http://www.w3.org/2000/svg" xmlns:xlink="http://www.w3.org/1999/xlink" width="51px" height="51px" viewBox="0 0 51 51"><!-- Generator: Sketch 52.6 (67491) - http://www.bohemiancoding.com/sketch --><title>Python</title><desc>Created with Sketch.</desc><defs><radialGradient cx="10.1475267%" cy="12.3100204%" fx="10.1475267%" fy="12.3100204%" r="99.9669394%" id="radialGradient-1"><stop stop-color="#7ECC79" offset="0%"></stop><stop stop-color="#28AD9D" offset="100%"></stop></radialGradient><circle id="path-2" cx="25.5" cy="25.5" r="25.5"></circle></defs><g id="Illustrations" stroke="none" stroke-width="1" fill="none" fill-rule="evenodd"><g id="All-Icons" transform="translate(-484.000000, -2195.000000)"><g id="Group-23-Copy" transform="translate(484.000000, 2195.000000)"><g id="Python"><mask id="mask-3" fill="white"><use xlink:href="#path-2"></use></mask><use id="Oval" fill="url(#radialGradient-1)" xlink:href="#path-2"></use><circle id="Oval-Copy-2" fill="#0B4651" opacity="0.200000003" mask="url(#mask-3)" cx="3.5" cy="14.5" r="34.5"></circle><circle id="Oval" fill="#0D6574" mask="url(#mask-3)" cx="58.5" cy="4.5" r="48.5"></circle><g id="Python-logo-notext" mask="url(#mask-3)" fill-rule="nonzero"><g transform="translate(11.000000, 11.000000)"><path d="M15.3608089,0.270377274 C7.78166561,0.270377815 8.25495616,3.55715102 8.25495616,3.55715102 L8.26340545,6.96221481 L15.4959975,6.96221481 L15.4959975,7.98457888 L5.39064691,7.98457888 C5.39064691,7.98457888 0.540754549,7.43455688 0.540754549,15.0819823 C0.540754008,22.7294062 4.77384875,22.4582123 4.77384875,22.4582123 L7.30018641,22.4582123 L7.30018641,18.9095106 C7.30018641,18.9095106 7.16401035,14.6764164 11.4656863,14.6764164 C15.7673617,14.6764164 18.6391333,14.6764164 18.6391333,14.6764164 C18.6391333,14.6764164 22.6694446,14.7415665 22.6694446,10.7812938 C22.6694446,6.82102218 22.6694446,4.2330942 22.6694446,4.2330942 C22.6694446,4.23309366 23.281357,0.270377274 15.3608089,0.270377274 Z" id="path8615" stroke="#FFFFFF" stroke-width="2" fill="none"></path><path d="M14.5760562,28.9702664 C22.1552017,28.9702664 21.681909,25.6834926 21.681909,25.6834926 L21.6734597,22.2784288 L14.4408676,22.2784288 L14.4408676,21.2560648 L24.5462182,21.2560648 C24.5462182,21.2560648 29.3961106,21.8060852 29.3961106,14.1586586 C29.3961133,6.51123561 25.1630164,6.78242942 25.1630164,6.78242942 L22.6366787,6.78242942 L22.6366787,10.3311303 C22.6366787,10.3311303 22.772857,14.5642245 18.4711789,14.5642245 C14.1695029,14.5642245 11.2977313,14.5642245 11.2977313,14.5642245 C11.2977313,14.5642245 7.26742001,14.4990744 7.26742001,18.4593498 C7.26742001,22.4196199 7.26742001,25.0075495 7.26742001,25.0075495 C7.26742001,25.0075495 6.65550757,28.9702664 14.5760562,28.9702664 Z" id="path8620" stroke="#FFFFFF" stroke-width="2" fill="none"></path><path d="M11.3727441,2.56013482 C12.092334,2.56013428 12.6739347,3.14173553 12.6739347,3.86132545 C12.6739353,4.58091537 12.092334,5.16251608 11.3727441,5.16251608 C10.6531542,5.16251662 10.0715535,4.58091537 10.0715535,3.86132545 C10.0715529,3.14173553 10.6531542,2.56013482 11.3727441,2.56013482 Z" id="path8615-path" stroke="none" fill="#FFFFFF"></path><path d="M18.564121,26.6805088 C17.8445309,26.6805088 17.2629304,26.0989084 17.2629304,25.3793182 C17.2629304,24.659728 17.8445309,24.0781276 18.564121,24.0781276 C19.2837112,24.0781276 19.8653117,24.659728 19.8653117,25.3793182 C19.8653144,26.0989084 19.2837112,26.6805088 18.564121,26.6805088 Z" id="path8620-path" stroke="none" fill="#FFFFFF"></path></g></g></g></g></g></g></svg> 