<?xml version="1.0" encoding="UTF-8"?> <svg xmlns="http://www.w3.org/2000/svg" xmlns:xlink="http://www.w3.org/1999/xlink" width="51px" height="51px" viewBox="0 0 51 51"><!-- Generator: Sketch 52.6 (67491) - http://www.bohemiancoding.com/sketch --><title>React.js</title><desc>Created with Sketch.</desc><defs><radialGradient cx="10.1475267%" cy="12.3100204%" fx="10.1475267%" fy="12.3100204%" r="99.9669394%" id="radialGradient-1"><stop stop-color="#7ECC79" offset="0%"></stop><stop stop-color="#28AD9D" offset="100%"></stop></radialGradient><circle id="path-2" cx="25.5" cy="25.5" r="25.5"></circle><path d="M36.3105383,20.3994069 C39.7666448,21.6112698 42,23.5096292 42,25.4724693 C42,27.5195527 39.6132698,29.5210524 35.9447326,30.759025 C35.7508541,30.8245155 35.5521606,30.8874095 35.3496433,30.9482839 C35.4218697,31.2442895 35.4863071,31.5349577 35.5415391,31.8195674 C36.2657863,35.5457467 35.7080848,38.6083658 33.9916444,39.6204395 C32.3297279,40.6003449 29.6437537,39.6377497 26.9240737,37.2539816 C26.6284569,36.994248 26.3400056,36.7261713 26.0590557,36.450064 C25.8360035,36.6697601 25.6132344,36.8793586 25.3913151,37.0769842 C22.5835472,39.5768753 19.700154,40.6140488 17.9821558,39.6050045 C16.3188231,38.6276956 15.7961019,35.7768388 16.4654003,32.1864008 C16.5385338,31.7961971 16.6223586,31.4081514 16.7167767,31.0227181 C16.4261405,30.9382144 16.1376171,30.8463453 15.8514755,30.7471963 C12.3225761,29.5187443 10,27.4925775 10,25.4724693 C10,23.5166975 12.1636779,21.6310324 15.5515233,20.4279688 C15.9302165,20.2935257 16.3260458,20.1671608 16.7358955,20.0485854 C16.6480955,19.6908227 16.5692346,19.3308453 16.4993893,18.9690018 C15.7973765,15.3150928 16.2913488,12.3949949 17.9590717,11.4116274 C19.6983129,10.3861383 22.5948769,11.4873599 25.484643,14.1009218 C25.6643943,14.2638473 25.841167,14.4301505 26.0148702,14.599746 C26.2742553,14.3446925 26.5399257,14.0963552 26.811627,13.8549717 C29.568978,11.4109062 32.2991379,10.3884464 33.9684186,11.369073 C35.709501,12.3915328 36.2193347,15.4975718 35.4395723,19.3531454 C35.3908487,19.5926699 35.3377791,19.8312559 35.2803909,20.0687808 C35.6264451,20.1701591 35.9699366,20.2804027 36.3105383,20.3994069 Z M35.5147728,29.4373861 L35.5149144,29.4373861 C38.6822567,28.3683328 40.633079,26.7325125 40.633079,25.4724693 C40.633079,24.289601 38.8268512,22.7543245 35.8655667,21.7161412 C35.5593832,21.6086733 35.2415869,21.5069755 34.9143019,21.4103265 C34.5205969,22.7078753 33.9951849,24.0787042 33.3569013,25.4793934 C34.0256333,26.9139818 34.5722884,28.302698 34.977323,29.6086135 C35.1602967,29.5533649 35.3398715,29.4963852 35.5147728,29.4373861 Z M34.0273328,31.3015576 C32.7019066,31.6135752 31.2403831,31.842215 29.6933208,31.9819954 C28.8138576,33.2788229 27.9127264,34.446689 27.0110287,35.4512615 C27.2803909,35.7152431 27.5490449,35.9647995 27.8157163,36.1984881 C30.1414081,38.2370606 32.2981465,39.009964 33.3066261,38.4153563 C33.7804882,38.1359398 34.1637133,37.438336 34.3543345,36.3919303 C34.566482,35.2273821 34.5207386,33.7376893 34.2005346,32.0900403 C34.1505426,31.8328386 34.0924782,31.5698668 34.0273328,31.3015576 Z M20.9094514,38.3126488 L20.909593,38.3126488 C22.0060189,37.9181189 23.2501549,37.1339638 24.4917418,36.0284147 C24.6995435,35.8429348 24.9028305,35.6522717 25.101418,35.4565989 C24.167006,34.4351488 23.2398166,33.2687253 22.3545469,31.9997384 C20.8038025,31.8716424 19.3529006,31.6591589 18.0422029,31.3638746 C17.9545046,31.7223316 17.8765834,32.083197 17.8085291,32.4460548 C17.2362407,35.5164635 17.6557206,37.8057464 18.6651915,38.3986231 C19.1394785,38.6771741 19.9241976,38.6670765 20.9094514,38.3126488 Z M17.0835738,29.6814608 C17.4877587,28.3391938 18.020535,26.9299938 18.6626423,25.5063686 C18.028749,24.1036599 17.5034786,22.7165304 17.1029758,21.3898427 C16.7325452,21.4965318 16.3652604,21.6142439 16.0015932,21.7428279 C13.1041796,22.771779 11.366921,24.2857062 11.366921,25.4724693 C11.366921,26.0302927 11.767707,26.7176545 12.5613482,27.4100652 C13.4446352,28.1803721 14.7332401,28.8863426 16.2936147,29.4295964 C16.5548686,29.5201315 16.8182678,29.6041117 17.0835738,29.6814608 Z M17.8409602,18.7015581 L17.8409602,18.7014139 C17.9059771,19.0380042 17.9793126,19.3728719 18.0608968,19.7056979 C19.3853317,19.4000274 20.8260369,19.1718204 22.3310379,19.0297319 C23.2086601,17.7681019 24.1273522,16.6104778 25.0569491,15.5936438 C24.8964931,15.4374187 24.7363203,15.2863866 24.5768557,15.1421344 C22.0817858,12.8855967 19.7145993,11.9854628 18.6439484,12.6167106 C17.6388677,13.2092987 17.239498,15.570852 17.8409602,18.7015581 Z M32.5648179,23.8693943 C32.9695693,22.9043468 33.3132822,21.9629568 33.5890173,21.0626786 C32.6704668,20.8490411 31.6922941,20.6744959 30.6712103,20.5432263 C31.0070226,21.0793959 31.331456,21.6228721 31.6442847,22.1732765 C31.9621829,22.7323513 32.2690884,23.2978366 32.5648179,23.8693943 Z M24.1163058,18.903367 C25.3763285,18.8432972 26.6384267,18.843586 27.8984227,18.9042325 C27.2772752,18.0613667 26.6457894,17.2844242 26.015295,16.5886957 C25.3748871,17.2925023 24.7380198,18.0682908 24.1163058,18.903367 Z M21.3311972,20.5406298 C20.3167696,20.6697355 19.3431288,20.8398089 18.4301014,21.0479649 C18.7082441,21.9610815 19.0488414,22.9066549 19.4469366,23.8683845 C19.735107,23.2994411 20.0362741,22.7374257 20.3501921,22.1827972 C20.6645296,21.6276623 20.9916215,21.0801222 21.3311972,20.5406298 Z M21.360371,30.5036986 C21.0124732,29.9539428 20.6774928,29.3958166 20.3557153,28.8297957 C20.0403702,28.2749182 19.7378796,27.7125637 19.4484944,27.1431986 C19.041902,28.1255563 18.6937988,29.0914692 18.4112659,30.0207421 C19.32401,30.223128 20.3123794,30.3845462 21.360371,30.5036986 Z M26.0531077,34.4546229 C26.6793535,33.7522588 27.3085734,32.9634876 27.9317035,32.1008592 C27.2971021,32.1297097 26.652304,32.1445677 26,32.1445677 C25.3651153,32.1445677 24.7404273,32.132162 24.1277771,32.1076391 C24.7589796,32.9548324 25.4051939,33.7424496 26.0531077,34.4546229 Z M31.6498079,28.8201308 C31.3331647,29.3795826 31.0056261,29.9325627 30.6673866,30.4787429 C31.7228841,30.3497814 32.7245658,30.1761017 33.6524633,29.9604447 C33.3661067,29.0468953 33.0055409,28.0861754 32.577847,27.0931431 C32.2811181,27.6757476 31.9716951,28.2515528 31.6498079,28.8201308 Z M30.4655774,28.1245465 L30.465719,28.1245465 C30.9546547,27.2619942 31.4132765,26.3819787 31.8407124,25.4861732 C31.408834,24.5994026 30.9487489,23.727177 30.4611871,22.8708803 C29.9763643,22.0168216 29.4621035,21.1804557 28.9193648,20.3633438 C27.9679584,20.2894867 26.9909186,20.2508271 26.0001416,20.2508271 C25.0137549,20.2508271 24.0379897,20.2891982 23.0863,20.3624783 C22.5380155,21.1808495 22.0204444,22.0201369 21.5347059,22.8785257 L21.5347059,22.8782372 C21.0488149,23.7364432 20.5947891,24.6129625 20.1735913,25.5059358 C20.5958631,26.3986417 21.0512651,27.2746916 21.5388129,28.1321919 C22.0286502,28.994266 22.5503282,29.8371574 23.102728,30.6590582 C24.0355821,30.7206539 25.0042663,30.7522451 26,30.7522451 C26.9998407,30.7522451 27.9809874,30.7166148 28.9304112,30.647518 C29.4688461,29.8236991 29.9808387,28.9822639 30.4655774,28.1245465 Z M27.7090761,14.9054164 C27.4582376,15.1283425 27.2128752,15.357582 26.973216,15.5929226 C27.8878012,16.5966296 28.7988458,17.7562733 29.6781674,19.0316072 C31.1875586,19.1758595 32.6292553,19.4081055 33.9568057,19.7201231 C34.0085934,19.5050293 34.0565633,19.2890004 34.1006922,19.0721421 C34.773956,15.7432334 34.3571669,13.2048269 33.2856662,12.5753102 C32.2795943,11.9843088 30.0715892,12.8111626 27.7090761,14.9054164 Z M26,22.561892 C27.5782188,22.561892 28.8574767,23.8650667 28.8574767,25.4724693 C28.8574767,27.0800161 27.5782188,28.3831908 26,28.3831908 C24.4219229,28.3831908 23.1425233,27.0800161 23.1425233,25.4724693 C23.1425233,23.8650667 24.4219229,22.561892 26,22.561892 Z" id="path-4"></path><filter x="-32.8%" y="-25.9%" width="165.6%" height="172.4%" id="filter-5"><feOffset dx="0" dy="3" in="SourceAlpha" result="shadowOffsetOuter1"></feOffset><feGaussianBlur stdDeviation="3" in="shadowOffsetOuter1" result="shadowBlurOuter1"></feGaussianBlur><feColorMatrix values="0 0 0 0 0.0431372549 0 0 0 0 0.274509804 0 0 0 0 0.317647059 0 0 0 0.431046196 0" type="matrix" in="shadowBlurOuter1"></feColorMatrix></filter></defs><g id="Home" stroke="none" stroke-width="1" fill="none" fill-rule="evenodd"><g id="Technology-Template" transform="translate(-231.000000, -6136.000000)"><g id="Group-23" transform="translate(83.000000, 5890.000000)"><g id="Group-18" transform="translate(124.000000, 214.000000)"><g id="Group-15"><g id="React.js" transform="translate(24.000000, 32.000000)"><mask id="mask-3" fill="white"><use xlink:href="#path-2"></use></mask><use id="Oval" fill="url(#radialGradient-1)" xlink:href="#path-2"></use><circle id="Oval-Copy-2" fill="#0B4651" opacity="0.200000003" mask="url(#mask-3)" cx="3.5" cy="14.5" r="34.5"></circle><circle id="Oval" fill="#0D6574" mask="url(#mask-3)" cx="58.5" cy="4.5" r="48.5"></circle><g id="Shape" mask="url(#mask-3)"><use fill="black" fill-opacity="1" filter="url(#filter-5)" xlink:href="#path-4"></use><use fill="#FFFFFF" fill-rule="evenodd" xlink:href="#path-4"></use></g></g></g></g></g></g></g></svg> 