<?xml version="1.0" encoding="UTF-8"?> <svg xmlns="http://www.w3.org/2000/svg" xmlns:xlink="http://www.w3.org/1999/xlink" width="63px" height="70px" viewBox="0 0 63 70"><!-- Generator: Sketch 52.5 (67469) - http://www.bohemiancoding.com/sketch --><title>REGULAR UPDATING</title><desc>Created with Sketch.</desc><defs><linearGradient x1="17.5197352%" y1="50%" x2="37.3817172%" y2="100%" id="linearGradient-1"><stop stop-color="#0D6574" offset="0%"></stop><stop stop-color="#28AD9D" offset="100%"></stop></linearGradient><linearGradient x1="12.5555407%" y1="46.1015408%" x2="37.6464686%" y2="75.2893651%" id="linearGradient-2"><stop stop-color="#218B9D" offset="0%"></stop><stop stop-color="#6AC581" offset="100%"></stop></linearGradient><linearGradient x1="57.1612096%" y1="16.1841318%" x2="107.400292%" y2="117.996245%" id="linearGradient-3"><stop stop-color="#0D6574" offset="0%"></stop><stop stop-color="#28AD9D" offset="100%"></stop></linearGradient></defs><g id="Pages" stroke="none" stroke-width="1" fill="none" fill-rule="evenodd"><g id="Messaging" transform="translate(-1171.000000, -1845.000000)"><g id="Feature-(8-icons)" transform="translate(0.000000, 1249.000000)"><g id="REGULAR-UPDATING" transform="translate(1161.000000, 590.000000)"><rect id="Rectangle-8-Copy-8" x="0" y="0" width="83" height="83" rx="12"></rect><g id="Group-45" transform="translate(10.000000, 6.000000)"><g id="Group-44" fill-rule="nonzero"><g id="Group-43"><path d="M16.3611111,38.1546512 L0.861111111,38.1546512 L0.861111111,28 C0.861111111,14.9522728 11.2704907,4.375 24.1111111,4.375 L49.9444444,4.375 L49.9444444,20.125 L24.1111111,20.125 C19.8309043,20.125 16.3611111,23.6507576 16.3611111,28 L16.3611111,38.1546512 Z" id="Rectangle-30" fill="url(#linearGradient-1)"></path><path d="M46.5,4.375 L46.5,0 L62,11.9324269 L46.5,23.8648539 L46.5,20.125 L24.1111111,20.125 C12.1903326,20.125 4.44033263,26.1348837 0.861111111,38.1546512 L0.861111111,28 C0.861111111,14.9522728 11.2704907,4.375 24.1111111,4.375 L46.5,4.375 Z" id="Combined-Shape" fill="#6AC581"></path></g><g id="Group-43-Copy" transform="translate(32.000000, 50.500000) scale(-1, -1) translate(-32.000000, -50.500000) translate(1.000000, 31.000000)"><path d="M16.3611111,38.1546512 L0.861111111,38.1546512 L0.861111111,28 C0.861111111,14.9522728 11.2704907,4.375 24.1111111,4.375 L49.9444444,4.375 L49.9444444,20.125 L24.1111111,20.125 C19.8309043,20.125 16.3611111,23.6507576 16.3611111,28 L16.3611111,38.1546512 Z" id="Rectangle-30" fill="url(#linearGradient-2)"></path><path d="M46.5,4.375 L46.5,0 L62,11.9324269 L46.5,23.8648539 L46.5,20.125 L24.1111111,20.125 C12.1903326,20.125 4.44033263,26.1348837 0.861111111,38.1546512 L0.861111111,28 C0.861111111,14.9522728 11.2704907,4.375 24.1111111,4.375 L46.5,4.375 Z" id="Combined-Shape" fill="url(#linearGradient-3)"></path></g></g><polyline id="Path-96" stroke="#147282" stroke-width="2.5" stroke-linecap="round" stroke-linejoin="round" points="24.1207344 33.6076536 28.7191681 39.3519993 40.7191126 29.5"></polyline></g></g></g></g></g></svg> 