<?xml version="1.0" encoding="UTF-8"?> <svg xmlns="http://www.w3.org/2000/svg" xmlns:xlink="http://www.w3.org/1999/xlink" width="81px" height="101px" viewBox="0 0 81 101"><!-- Generator: Sketch 52.6 (67491) - http://www.bohemiancoding.com/sketch --><title>Retail &amp; Ecommerce</title><desc>Created with Sketch.</desc><defs><radialGradient cx="10.1475267%" cy="12.3100204%" fx="10.1475267%" fy="12.3100204%" r="101.377723%" gradientTransform="translate(0.101475,0.123100),scale(1.000000,0.973163),rotate(46.256852),translate(-0.101475,-0.123100)" id="radialGradient-1"><stop stop-color="#7ECC79" offset="0%"></stop><stop stop-color="#28AD9D" offset="100%"></stop></radialGradient><path d="M13.6038439,2.16823096e-31 L56.3961561,8.8817842e-16 C59.9827903,2.29324401e-16 62.9891635,2.71092104 63.3588686,6.27845005 L69.1998113,62.6415676 C69.5983123,66.4869675 66.8040487,69.927329 62.9586487,70.3258301 C62.7189343,70.3506718 62.4780969,70.3631176 62.2370988,70.3631176 L7.76290124,70.3631176 C3.89690799,70.3631176 0.762901237,67.2291108 0.762901237,63.3631176 C0.762901237,63.1221194 0.775346971,62.881282 0.800188715,62.6415676 L6.64113139,6.27845005 C7.0108365,2.71092104 10.0172097,5.98792454e-15 13.6038439,5.32907052e-15 Z" id="path-2"></path><path d="M40,30 C40,28.3431458 41.3431458,27 43,27 C44.6568542,27 46,28.3431458 46,30 C46,34.9705627 41.9705627,39 37,39 L34,39 C29.0294373,39 25,34.9705627 25,30 C25,28.3431458 26.3431458,27 28,27 C29.6568542,27 31,28.3431458 31,30 C31,31.6568542 32.3431458,33 34,33 L37,33 C38.6568542,33 40,31.6568542 40,30 Z" id="path-4"></path><filter x="-42.9%" y="-50.0%" width="185.7%" height="250.0%" id="filter-5"><feOffset dx="0" dy="3" in="SourceAlpha" result="shadowOffsetOuter1"></feOffset><feGaussianBlur stdDeviation="2.5" in="shadowOffsetOuter1" result="shadowBlurOuter1"></feGaussianBlur><feColorMatrix values="0 0 0 0 0.0431372549 0 0 0 0 0.274509804 0 0 0 0 0.317647059 0 0 0 0.431046196 0" type="matrix" in="shadowBlurOuter1"></feColorMatrix></filter></defs><g id="Home" stroke="none" stroke-width="1" fill="none" fill-rule="evenodd"><g id="Technology-Template" transform="translate(-1024.000000, -3351.000000)"><g id="Feature-(8-icons)" transform="translate(189.000000, 3031.000000)"><g id="icons" transform="translate(0.000000, 273.000000)"><g id="Group-2"><g id="1"><g id="Group-13"><g id="Group-6" transform="translate(777.000000, 23.000000)"><g id="Retail-&amp;-Ecommerce" transform="translate(21.000000, 0.000000)"><rect id="Rectangle" fill-rule="nonzero" x="0" y="0" width="144" height="144"></rect><g id="Group-110" transform="translate(37.000000, 27.000000)"><g id="Group-109" transform="translate(0.000000, 16.000000)"><g id="Rectangle-4"><mask id="mask-3" fill="white"><use xlink:href="#path-2"></use></mask><use id="Rectangle" fill="url(#radialGradient-1)" xlink:href="#path-2"></use><rect id="Rectangle" fill="#0D6574" fill-rule="nonzero" opacity="0.400000006" mask="url(#mask-3)" x="35" y="-10" width="55" height="100"></rect></g></g><path d="M61.0192352,77.331499 L64.1126984,99.1126984 L45.1126984,99.1126984 L48.231869,77.1504918 L37.1126984,79.1126984 L54.1126984,45.1126984 L71.1126984,79.1126984 L61.0192352,77.331499 Z" id="Combined-Shape" fill="#0D505D" transform="translate(54.112698, 72.112698) rotate(-45.000000) translate(-54.112698, -72.112698) "></path><path d="M54,29 L50.0751337,11.6467527 C48.5347007,4.83594359 42.48284,-1.28272691e-15 35.5,0 L35.5,0 C28.51716,1.28272691e-15 22.4652993,4.83594359 20.9248663,11.6467527 L17,29" id="Path" stroke="#0D505D" stroke-width="6" stroke-linecap="round" stroke-linejoin="round" fill-rule="nonzero"></path><g id="Path-Copy-3" transform="translate(35.500000, 33.000000) scale(1, -1) translate(-35.500000, -33.000000) "><use fill="black" fill-opacity="1" filter="url(#filter-5)" xlink:href="#path-4"></use><use fill="#FFFFFF" fill-rule="evenodd" xlink:href="#path-4"></use></g></g></g></g></g></g></g></g></g></g></g></svg> 