<?xml version="1.0" encoding="UTF-8"?> <svg xmlns="http://www.w3.org/2000/svg" xmlns:xlink="http://www.w3.org/1999/xlink" width="200px" height="385px" viewBox="0 0 200 385"><!-- Generator: Sketch 52.6 (67491) - http://www.bohemiancoding.com/sketch --><title>right-bg-ornament</title><desc>Created with Sketch.</desc><defs><linearGradient x1="-6.03281912%" y1="-31.2892491%" x2="23.2654279%" y2="125.483312%" id="linearGradient-1"><stop stop-color="#1E9EAC" stop-opacity="0" offset="0%"></stop><stop stop-color="#86D39C" offset="100%"></stop></linearGradient></defs><g id="Home" stroke="none" stroke-width="1" fill="none" fill-rule="evenodd"><g id="Home---Approach-v3" transform="translate(-1400.000000, -1131.000000)" stroke="url(#linearGradient-1)"><g id="right-bg-ornament" transform="translate(1402.000000, 1132.000000)"><path d="M74.8348804,255.591868 L105.23488,273.198535 C114.373491,278.491313 120,288.252049 120,298.812717 L120,334.187283 C120,344.747951 114.373491,354.508687 105.23488,359.801465 L74.8348804,377.408132 C65.6588967,382.722556 54.3411033,382.722556 45.1651196,377.408132 L14.7651196,359.801465 C5.62650924,354.508687 5.57211789e-14,344.747951 4.97379915e-14,334.187283 L1.0658141e-14,298.812717 C-1.49249201e-17,288.252049 5.62650924,278.491313 14.7651196,273.198535 L45.1651196,255.591868 C54.3411033,250.277444 65.6588967,250.277444 74.8348804,255.591868 Z" id="Ornament-1-Line-Copy" stroke-width="4"></path><path d="M211.879983,8.65303332 L274.279983,44.9399898 C283.393154,50.2394971 289,59.9859542 289,70.5279972 L289,143.472003 C289,154.014046 283.393154,163.760503 274.279983,169.06001 L211.879983,205.346967 C202.681146,210.69629 191.318854,210.69629 182.120017,205.346967 L119.720017,169.06001 C110.606846,163.760503 105,154.014046 105,143.472003 L105,70.5279972 C105,59.9859542 110.606846,50.2394971 119.720017,44.9399898 L182.120017,8.65303332 C191.318854,3.30370978 202.681146,3.30370978 211.879983,8.65303332 Z" id="Ornament-1-Line-Copy-2" stroke-width="10"></path></g></g></g></svg> 