<?xml version="1.0" encoding="UTF-8"?> <svg xmlns="http://www.w3.org/2000/svg" xmlns:xlink="http://www.w3.org/1999/xlink" width="216px" height="916px" viewBox="0 0 216 916"><!-- Generator: Sketch 52.6 (67491) - http://www.bohemiancoding.com/sketch --><title>right-ornament2</title><desc>Created with Sketch.</desc><defs><linearGradient x1="50%" y1="0%" x2="50%" y2="100%" id="linearGradient-1"><stop stop-color="#F7FBFA" offset="0%"></stop><stop stop-color="#EDF5F4" offset="100%"></stop></linearGradient><linearGradient x1="34.723648%" y1="9.66465956%" x2="19.6657453%" y2="86.1596355%" id="linearGradient-2"><stop stop-color="#1E9EAC" stop-opacity="0" offset="0%"></stop><stop stop-color="#86D39C" offset="100%"></stop></linearGradient></defs><g id="Home" stroke="none" stroke-width="1" fill="none" fill-rule="evenodd"><g id="Messaging" transform="translate(-1384.000000, -1612.000000)"><g id="right-ornament2" transform="translate(1384.000000, 1499.000000)"><path d="M463.181576,28.8557537 L776.371883,209.634167 C807.316911,227.496128 826.380614,260.511587 826.380614,296.241748 L826.380614,657.758252 C826.380614,693.488413 807.316911,726.503872 776.371883,744.365833 L463.181576,925.144246 C432.245906,943.000806 394.134708,943.000806 363.199038,925.144246 L50.0087306,744.365833 C19.0637031,726.503872 7.00707564e-13,693.488413 6.96331881e-13,657.758252 L5.82645043e-13,296.241748 C5.62401982e-13,260.511587 19.0637031,227.496128 50.0087306,209.634167 L363.199038,28.8557537 C394.134708,10.9991943 432.245906,10.9991943 463.181576,28.8557537 Z" id="Ornament-1" fill="url(#linearGradient-1)"></path><path d="M491.711368,328.895896 L757.401675,482.378437 C788.329914,500.244894 807.380614,533.250944 807.380614,568.968814 L807.380614,876.031186 C807.380614,911.749056 788.329914,944.755106 757.401675,962.621563 L491.711368,1116.1041 C460.760558,1133.9836 422.620056,1133.9836 391.669246,1116.1041 L125.978939,962.621563 C95.0507004,944.755106 76,911.749056 76,876.031186 L76,568.968814 C76,533.250944 95.0507004,500.244894 125.978939,482.378437 L391.669246,328.895896 C422.620056,311.016399 460.760558,311.016399 491.711368,328.895896 Z" id="Ornament-1-Line" stroke="url(#linearGradient-2)" stroke-width="24.8"></path></g></g></g></svg> 