<?xml version="1.0" encoding="UTF-8"?> <svg xmlns="http://www.w3.org/2000/svg" xmlns:xlink="http://www.w3.org/1999/xlink" width="537px" height="1304px" viewBox="0 0 537 1304"><!-- Generator: Sketch 52.6 (67491) - http://www.bohemiancoding.com/sketch --><title>Group 75</title><desc>Created with Sketch.</desc><defs><linearGradient x1="50%" y1="0%" x2="50%" y2="100%" id="linearGradient-1"><stop stop-color="#F7FBFA" offset="0%"></stop><stop stop-color="#EDF5F4" offset="100%"></stop></linearGradient><linearGradient x1="34.723648%" y1="9.66465956%" x2="19.6657453%" y2="86.1596355%" id="linearGradient-2"><stop stop-color="#1E9EAC" stop-opacity="0" offset="0%"></stop><stop stop-color="#86D39C" offset="100%"></stop></linearGradient></defs><g id="Home" stroke="none" stroke-width="1" fill="none" fill-rule="evenodd"><g id="Home---Approach-v4" transform="translate(-1063.000000, -2513.000000)"><g id="Group-74" transform="translate(-129.000000, 2493.000000)"><g id="Group-75" transform="translate(1192.000000, 0.000000)"><path d="M601.994167,37.5199102 L1008.99417,272.473355 C1049.21959,295.694738 1074,338.613092 1074,385.060025 L1074,854.939975 C1074,901.386908 1049.21959,944.305262 1008.99417,967.526645 L601.994167,1202.48009 C561.774992,1225.69786 512.225008,1225.69786 472.005833,1202.48009 L65.005833,967.526645 C24.780406,944.305262 5.14520077e-13,901.386908 4.26325641e-13,854.939975 L2.84217094e-14,385.060025 C-1.85195629e-14,338.613092 24.780406,295.694738 65.005833,272.473355 L472.005833,37.5199102 C512.225008,14.3021368 561.774992,14.3021368 601.994167,37.5199102 Z" id="Ornament-1" fill="url(#linearGradient-1)"></path><path d="M812.199582,668.88001 L1059.38989,811.630702 C1090.32477,829.495382 1109.38061,862.505154 1109.38061,898.227887 L1109.38061,1183.77211 C1109.38061,1219.49485 1090.32477,1252.50462 1059.38989,1270.3693 L812.199582,1413.11999 C781.254761,1430.99041 743.125854,1430.99041 712.181032,1413.11999 L464.990725,1270.3693 C434.055844,1252.50462 415,1219.49485 415,1183.77211 L415,898.227887 C415,862.505154 434.055844,829.495382 464.990725,811.630702 L712.181032,668.88001 C743.125854,651.00959 781.254761,651.00959 812.199582,668.88001 Z" id="Ornament-1-Line" stroke="url(#linearGradient-2)" stroke-width="20"></path></g></g></g></g></svg> 