<?xml version="1.0" encoding="UTF-8"?> <svg xmlns="http://www.w3.org/2000/svg" xmlns:xlink="http://www.w3.org/1999/xlink" width="380px" height="246px" viewBox="0 0 380 246"><!-- Generator: Sketch 52.5 (67469) - http://www.bohemiancoding.com/sketch --><title>Rooms, Spaces and Products</title><desc>Created with Sketch.</desc><defs><rect id="path-1" x="-1.44950718e-12" y="-8.52651283e-14" width="379.95" height="222.228261" rx="25"></rect><linearGradient x1="100%" y1="60.3098273%" x2="9.67511415%" y2="60.3098273%" id="linearGradient-3"><stop stop-color="#7ECC79" offset="0%"></stop><stop stop-color="#40BDA2" offset="58.5310616%"></stop><stop stop-color="#2CAE97" offset="74.5675804%"></stop><stop stop-color="#06796C" offset="100%"></stop></linearGradient><linearGradient x1="100%" y1="77.4984354%" x2="-103.506106%" y2="89.2506891%" id="linearGradient-4"><stop stop-color="#7ECC79" offset="0%"></stop><stop stop-color="#33BAAA" offset="100%"></stop></linearGradient><linearGradient x1="100%" y1="3.62234285%" x2="0%" y2="100%" id="linearGradient-5"><stop stop-color="#7ECC79" offset="0%"></stop><stop stop-color="#33BAAA" offset="100%"></stop></linearGradient><linearGradient x1="50%" y1="0%" x2="50%" y2="83.3492556%" id="linearGradient-6"><stop stop-color="#F2FDF5" stop-opacity="0.472684556" offset="0%"></stop><stop stop-color="#E0FAE7" stop-opacity="0" offset="100%"></stop></linearGradient><rect id="path-7" x="5.03826738" y="7.52756726" width="6.71768984" height="6.6911709"></rect><filter x="-394.5%" y="-366.2%" width="889.0%" height="892.1%" id="filter-8"><feOffset dx="0" dy="2" in="SourceAlpha" result="shadowOffsetOuter1"></feOffset><feGaussianBlur stdDeviation="8.5" in="shadowOffsetOuter1" result="shadowBlurOuter1"></feGaussianBlur><feColorMatrix values="0 0 0 0 0.878431373 0 0 0 0 0.980392157 0 0 0 0 0.905882353 0 0 0 1 0" type="matrix" in="shadowBlurOuter1"></feColorMatrix></filter><rect id="path-9" x="5.03826738" y="7.52756726" width="6.71768984" height="6.6911709"></rect><filter x="-394.5%" y="-366.2%" width="889.0%" height="892.1%" id="filter-10"><feOffset dx="0" dy="2" in="SourceAlpha" result="shadowOffsetOuter1"></feOffset><feGaussianBlur stdDeviation="8.5" in="shadowOffsetOuter1" result="shadowBlurOuter1"></feGaussianBlur><feColorMatrix values="0 0 0 0 0.878431373 0 0 0 0 0.980392157 0 0 0 0 0.905882353 0 0 0 1 0" type="matrix" in="shadowBlurOuter1"></feColorMatrix></filter><linearGradient x1="66.904568%" y1="0%" x2="43.1413235%" y2="92.9334256%" id="linearGradient-11"><stop stop-color="#14879C" offset="0%"></stop><stop stop-color="#075B6A" offset="100%"></stop></linearGradient><linearGradient x1="66.904568%" y1="0%" x2="43.1413235%" y2="92.9334256%" id="linearGradient-12"><stop stop-color="#B4EAD8" offset="0%"></stop><stop stop-color="#ABE7D5" offset="100%"></stop></linearGradient></defs><g id="Pages" stroke="none" stroke-width="1" fill="none" fill-rule="evenodd"><g id="Business-Intelligence" transform="translate(-952.000000, -4109.000000)"><g id="3D-Spaces" transform="translate(903.000000, 3840.000000)"><g id="Rooms,-Spaces-and-Products" transform="translate(49.000000, 269.000000)"><g id="Path-113-Copy-2-+-Path-113-Copy-4-+-Path-113-Copy-5-Mask"><mask id="mask-2" fill="white"><use xlink:href="#path-1"></use></mask><use id="Mask" fill="#E6F6F4" xlink:href="#path-1"></use><path d="M121.830592,38.3152174 L1.7,38.3152174 C25.8373734,37.7734666 39.4661874,34.4628799 42.5864419,28.3834573 C47.2668236,19.2643235 49.7393758,28.3834573 52.9075383,28.3834573 C56.0757007,28.3834573 56.284245,12.8720758 68.3283205,11.9581803 C80.3723961,11.0442847 78.7740682,26.9520111 83.8072225,28.3834573 C88.8403767,29.8149036 90.5595149,27.1656915 95.1950941,31.2165336 C98.2854803,33.917095 107.16398,36.2833229 121.830592,38.3152174 Z" id="Path-113-Copy-2" fill="#FFFFFF" opacity="0.800000012" mask="url(#mask-2)"></path><path d="M6.1817218e-13,149.855072 L120.130592,149.855072 C95.9932188,149.313322 82.3644049,146.002735 79.2441504,139.923312 C74.5637686,130.804179 72.0912164,139.923312 68.9230539,139.923312 C65.7548915,139.923312 65.5463473,124.411931 53.5022717,123.498035 C41.4581962,122.58414 43.0565241,138.491866 38.0233698,139.923312 C32.9902155,141.354759 31.2710773,138.705547 26.6354981,142.756389 C23.545112,145.45695 14.6666126,147.823178 6.1817218e-13,149.855072 Z" id="Path-113-Copy-4" fill="#FFFFFF" opacity="0.800000012" mask="url(#mask-2)"></path><path d="M287.3,111.539855 L407.430592,111.539855 C383.293219,110.998104 369.664405,107.687518 366.54415,101.608095 C361.863769,92.4889612 359.391216,101.608095 356.223054,101.608095 C353.054891,101.608095 352.846347,86.0967135 340.802272,85.182818 C328.758196,84.2689224 330.356524,100.176649 325.32337,101.608095 C320.290216,103.039541 318.571077,100.390329 313.935498,104.441171 C310.845112,107.141733 301.966613,109.507961 287.3,111.539855 Z" id="Path-113-Copy-5" fill="#FFFFFF" opacity="0.5" mask="url(#mask-2)"></path></g><g id="Group-60" transform="translate(29.000000, 28.000000)"><g id="Group-56" transform="translate(48.239700, 48.211538)"><g id="Group-43" transform="translate(12.595668, 2.509189)"><rect id="Rectangle-44-Copy-2" fill="url(#linearGradient-3)" x="0" y="0" width="209.088096" height="166.442876"></rect><rect id="Rectangle-44-Copy-3" fill="url(#linearGradient-4)" x="0" y="0" width="57.1003637" height="166.442876"></rect><g id="Group-45" transform="translate(12.595668, 23.419098)"><ellipse id="Oval-16" stroke="#075B6A" stroke-width="1.05" fill="#E0FAE7" cx="15.1148021" cy="15.0551345" rx="14.5898021" ry="14.5301345"></ellipse><ellipse id="Oval-16-Copy-2" fill="url(#linearGradient-5)" opacity="0.200000003" cx="15.1148021" cy="15.0551345" rx="10.916246" ry="10.8731527"></ellipse><path d="M15.1148021,0.836396362 L15.1148021,30.110269" id="Path-71" stroke="#075B6A" stroke-width="0.84"></path><path d="M29.3898931,15.8915309 L0,15.8915309" id="Path-71-Copy" stroke="#075B6A" stroke-width="0.84"></path></g><g id="Group-45-Copy" transform="translate(12.595668, 100.367563)"><ellipse id="Oval-16" stroke="#075B6A" stroke-width="1.05" fill="#E0FAE7" cx="15.1148021" cy="15.0551345" rx="14.5898021" ry="14.5301345"></ellipse><ellipse id="Oval-16-Copy-2" fill="url(#linearGradient-5)" opacity="0.200000003" cx="15.1148021" cy="15.0551345" rx="10.916246" ry="10.8731527"></ellipse><path d="M15.1148021,0.836396362 L15.1148021,30.110269" id="Path-71" stroke="#075B6A" stroke-width="0.84"></path><path d="M29.3898931,15.8915309 L0,15.8915309" id="Path-71-Copy" stroke="#075B6A" stroke-width="0.84"></path></g></g><polygon id="Path-74-Copy" fill="#4EA57A" transform="translate(199.579648, 109.149725) scale(-1, 1) translate(-199.579648, -109.149725) " points="177.840121 127.968643 177.840121 117.638684 183.896806 117.638684 183.896806 108.692315 190.269229 108.692315 190.269229 98.5743435 197.352287 98.5743435 197.352287 90.3308071 221.319176 90.3308071 193.48963 127.968643"></polygon><polygon id="Path-74" fill="#369079" points="178.858492 164.259729 178.858492 154.440124 184.915178 154.440124 184.915178 145.493755 191.2876 145.493755 191.2876 135.375783 198.370659 135.375783 198.370659 127.132247 221.319176 127.132247 221.319176 164.770083"></polygon><rect id="Rectangle-46-Copy" fill="#075B6A" x="0" y="162.260894" width="231.7603" height="6.6911709"></rect><g id="Group-46" transform="translate(78.093144, 4.181982)"><polygon id="Path-76" fill="url(#linearGradient-6)" points="58.5619179 8.56012369 0.385930655 81.5876547 139.976221 81.5876547 75.2244223 8.56012369"></polygon><g id="Group-44" transform="translate(57.940075, 0.000000)"><path d="M8.27886042,0.462376125 L8.27886042,7.88952414" id="Path-75" stroke="#278595" stroke-width="0.84"></path><g id="Rectangle-49"><use fill="black" fill-opacity="1" filter="url(#filter-8)" xlink:href="#path-7"></use><use fill="#FFFFFF" fill-rule="evenodd" xlink:href="#path-7"></use></g><rect id="Rectangle-19" fill="#075B6A" x="0" y="7.52756726" width="16.7942246" height="1.67279272" rx="0.836396362"></rect></g></g><g id="Group-46-Copy" transform="translate(78.932856, 87.821618)"><polygon id="Path-76" fill="url(#linearGradient-6)" points="58.5619179 8.56012369 0.385930655 81.5876547 139.976221 81.5876547 75.2244223 8.56012369"></polygon><g id="Group-44" transform="translate(57.940075, 0.000000)"><path d="M8.27886042,0.462376125 L8.27886042,7.88952414" id="Path-75" stroke="#278595" stroke-width="0.84"></path><g id="Rectangle-49"><use fill="black" fill-opacity="1" filter="url(#filter-10)" xlink:href="#path-9"></use><use fill="#FFFFFF" fill-rule="evenodd" xlink:href="#path-9"></use></g><rect id="Rectangle-19" fill="#075B6A" x="0" y="7.52756726" width="16.7942246" height="1.67279272" rx="0.836396362"></rect></g></g><rect id="Rectangle-46-Copy-2" fill="#075B6A" x="0" y="0" width="231.7603" height="6.6911709"></rect><g id="Group-55" transform="translate(82.291701, 116.259094)"><rect id="Rectangle-50" fill="#1C879A" x="0" y="32.6194581" width="24.3516257" height="13.3823418"></rect><g id="Group-47" transform="translate(3.358845, 0.000000)"><polygon id="Path-77" fill="#7ECC7A" points="4.50373129 15.6843581 5.22713262 31.4895099 7.25006118 31.4895099 8.78769449 18.9672027 11.2313636 31.4895099 13.0716577 31.4895099 13.0716577 15.6843581"></polygon><path d="M6.75542357,0.814916391 C6.94151186,1.78002653 7.79374989,2.50918909 8.81696792,2.50918909 C9.83515486,2.50918909 10.684039,1.78717939 10.8757191,0.829135377 L12.9797656,0.836396362 L16.9206936,7.30914979 L13.7656825,7.95406571 L12.9797656,6.88482615 L13.4943926,15.9976165 L8.39711231,15.9690243 L4.17984696,15.9690243 L4.69447391,6.85623392 L3.90855706,7.92547348 L0.753545936,7.28055756 L4.69447391,0.807804131 L6.75542357,0.814916391 Z" id="Combined-Shape" fill="#E0FAE7"></path></g></g><g id="Group-55-Copy" transform="translate(108.322749, 116.259094)"><rect id="Rectangle-50" fill="#1C879A" x="0" y="32.6194581" width="24.3516257" height="13.3823418"></rect><g id="Group-47" transform="translate(3.358845, 0.000000)"><polygon id="Path-77" fill="#E0FAE7" points="4.50373129 15.6843581 5.22713262 31.4895099 7.25006118 31.4895099 8.78769449 18.9672027 11.2313636 31.4895099 13.0716577 31.4895099 13.0716577 15.6843581"></polygon><path d="M6.75542357,0.814916391 C6.94151186,1.78002653 7.79374989,2.50918909 8.81696792,2.50918909 C9.83515486,2.50918909 10.684039,1.78717939 10.8757191,0.829135377 L12.9797656,0.836396362 L16.9206936,7.30914979 L13.7656825,7.95406571 L12.9797656,6.88482615 L13.4943926,15.9976165 L8.39711231,15.9690243 L4.17984696,15.9690243 L4.69447391,6.85623392 L3.90855706,7.92547348 L0.753545936,7.28055756 L4.69447391,0.807804131 L6.75542357,0.814916391 Z" id="Combined-Shape" fill="#1C879A"></path></g></g><g id="Group-55-Copy-2" transform="translate(134.353797, 116.259094)"><rect id="Rectangle-50" fill="#1C879A" x="0" y="32.6194581" width="24.3516257" height="13.3823418"></rect><g id="Group-47" transform="translate(3.358845, 0.000000)"><polygon id="Path-77" fill="#1C879A" points="4.50373129 15.6843581 5.22713262 31.4895099 7.25006118 31.4895099 8.78769449 18.9672027 11.2313636 31.4895099 13.0716577 31.4895099 13.0716577 15.6843581"></polygon><path d="M6.75542357,0.814916391 L4.69447391,0.807804131 L0.753545936,7.28055756 L3.90855706,7.92547348 L4.69447391,6.85623392 L4.17984696,15.9690243 L8.39711231,15.9690243 L13.4943926,15.9976165 L12.9797656,6.88482615 L13.7656825,7.95406571 L16.9206936,7.30914979 L12.9797656,0.836396362 L10.8757191,0.829135377 C10.684039,1.78717939 9.83515486,2.50918909 8.81696792,2.50918909 C7.79374989,2.50918909 6.94151186,1.78002653 6.75542357,0.814916391 Z" id="Combined-Shape" fill="#E0FAE7"></path></g></g><rect id="Rectangle-20" fill="#E0FAE7" x="81.4519894" y="51.8565745" width="2.51913369" height="10.0367563"></rect><rect id="Rectangle-20-Copy" fill="#A0E69C" x="84.8108343" y="51.8565745" width="2.51913369" height="10.0367563"></rect><rect id="Rectangle-20-Copy-2" fill="#E0FAE7" x="88.1696792" y="51.8565745" width="2.51913369" height="10.0367563"></rect><rect id="Rectangle-20-Copy-3" fill="#A0E69C" x="91.5285241" y="51.8565745" width="2.51913369" height="10.0367563"></rect><rect id="Rectangle-20-Copy-4" fill="#E0FAE7" x="94.887369" y="51.8565745" width="2.51913369" height="10.0367563"></rect><rect id="Rectangle-20-Copy-5" fill="#A0E69C" x="98.246214" y="51.8565745" width="2.51913369" height="10.0367563"></rect><rect id="Rectangle-20-Copy-6" fill="#E0FAE7" x="101.605059" y="51.8565745" width="2.51913369" height="10.0367563"></rect><rect id="Rectangle-20-Copy-7" fill="#A0E69C" x="104.963904" y="51.8565745" width="2.51913369" height="10.0367563"></rect><rect id="Rectangle-20-Copy-9" fill="#E0FAE7" x="115.040439" y="51.8565745" width="2.51913369" height="10.0367563"></rect><rect id="Rectangle-20-Copy-8" fill="#E0FAE7" transform="translate(111.377967, 57.815909) rotate(22.000000) translate(-111.377967, -57.815909) " x="110.1184" y="52.7975313" width="2.51913369" height="10.0367563"></rect><rect id="Rectangle-21" fill="#A0E69C" x="132.674374" y="51.8565745" width="16.7942246" height="11.7095491"></rect><rect id="Rectangle-21-Copy" fill="#E0FAE7" x="150.30831" y="51.8565745" width="16.7942246" height="11.7095491"></rect><rect id="Rectangle-21-Copy-2" fill="#E0FAE7" opacity="0.699999988" x="140.231775" y="40.1470254" width="16.7942246" height="11.7095491"></rect><rect id="Rectangle-51" fill="#1C879A" x="79.7725669" y="61.8933308" width="43.664984" height="22.5827018"></rect><rect id="Rectangle-51-Copy" fill="#1C879A" x="130.994952" y="61.8933308" width="43.664984" height="22.5827018"></rect><rect id="Rectangle-46" fill="#075B6A" x="0" y="83.6396362" width="231.7603" height="6.6911709"></rect></g><path d="M176.599251,50.7207275 L176.599251,52.3653846 C176.599251,63.9633644 167.197231,73.3653846 155.599251,73.3653846 L60.8353688,73.3653846 L60.8353688,50.7207275 L176.599251,50.7207275 Z" id="Combined-Shape" fill="#0D6574" opacity="0.370867301"></path><g id="Group-57"><path d="M13.65,0.44625 C6.35777023,0.44625 0.44625,6.35777023 0.44625,13.65 L0.44625,52.3788462 C0.44625,59.6710759 6.35777023,65.5825962 13.65,65.5825962 L153.511049,65.5825962 C160.803278,65.5825962 166.714799,59.6710759 166.714799,52.3788462 L166.714799,13.65 C166.714799,6.35777023 160.803278,0.44625 153.511049,0.44625 L13.65,0.44625 Z" id="Rectangle-15" stroke="#589F95" stroke-width="0.8925" fill="#F5FFF7"></path><g id="Group-59" transform="translate(73.408240, 19.913462)"><rect id="Rectangle-22" fill="#34B49C" x="15.7303371" y="22.0096154" width="51.3857678" height="4.19230769"></rect><rect id="Rectangle-22-Copy-2" fill="#34B49C" x="15.7303371" y="0" width="51.3857678" height="4.19230769"></rect><rect id="Rectangle-22-Copy-3" fill="#AEE8D6" transform="translate(5.243446, 24.105769) scale(-1, 1) translate(-5.243446, -24.105769) " x="0" y="22.0096154" width="10.4868914" height="4.19230769"></rect><rect id="Rectangle-22-Copy-4" fill="#0C6C7E" transform="translate(5.243446, 2.096154) scale(-1, 1) translate(-5.243446, -2.096154) " x="0" y="0" width="10.4868914" height="4.19230769"></rect></g><g id="Group-58" transform="translate(14.681648, 12.576923)" stroke-width="7.35"><ellipse id="Oval-12" stroke="url(#linearGradient-11)" cx="20.0745318" cy="19.8377038" rx="19.476779" ry="19.4985978"></ellipse><path d="M39.5513109,19.8377038 C39.5513109,9.06892562 30.8312599,0.339106048 20.0745318,0.339106048" id="Oval-12-Copy" stroke="url(#linearGradient-12)"></path></g></g></g></g></g></g></g></svg> 