<?xml version="1.0" encoding="UTF-8"?> <svg xmlns="http://www.w3.org/2000/svg" xmlns:xlink="http://www.w3.org/1999/xlink" width="51px" height="51px" viewBox="0 0 51 51"><!-- Generator: Sketch 52.6 (67491) - http://www.bohemiancoding.com/sketch --><title>Ruby on Rails</title><desc>Created with Sketch.</desc><defs><radialGradient cx="10.1475267%" cy="12.3100204%" fx="10.1475267%" fy="12.3100204%" r="99.9669394%" id="radialGradient-1"><stop stop-color="#7ECC79" offset="0%"></stop><stop stop-color="#28AD9D" offset="100%"></stop></radialGradient><circle id="path-2" cx="25.5" cy="25.5" r="25.5"></circle></defs><g id="Illustrations" stroke="none" stroke-width="1" fill="none" fill-rule="evenodd"><g id="All-Icons" transform="translate(-897.000000, -2197.000000)"><g id="Group-33-Copy" transform="translate(897.000000, 2197.000000)"><g id="Ruby-on-Rails"><mask id="mask-3" fill="white"><use xlink:href="#path-2"></use></mask><use id="Oval" fill="url(#radialGradient-1)" xlink:href="#path-2"></use><circle id="Oval" fill="#0D6574" mask="url(#mask-3)" cx="25.5" cy="71.5" r="48.5"></circle><circle id="Oval-Copy-2" fill="#0B4651" opacity="0.200000003" mask="url(#mask-3)" cx="43.5" cy="-7.5" r="34.5"></circle><g id="Ruby_On_Rails_Logo" mask="url(#mask-3)" fill="#FFFFFF"><g transform="translate(9.000000, 15.000000)"><path d="M1.54545455,20.6060606 L13.0250365,20.6060606 C13.0250365,20.6060606 10.830838,10.7124543 18.0963962,6.70618985 C19.6802879,5.94514321 24.7225853,3.10198783 32.9762594,9.13292349 C33.2378195,8.91753293 33.4848485,8.74522048 33.4848485,8.74522048 C33.4848485,8.74522048 25.9286679,1.29270713 17.5151515,2.12555063 C13.2865966,2.49889426 8.08445694,6.30412747 5.03292249,11.3299072 C1.98138804,16.3556869 1.54545455,20.6060606 1.54545455,20.6060606 Z" id="Path"></path><path d="M1.54545455,20.6060606 L13.0250365,20.6060606 C13.0250365,20.6060606 10.830838,10.7124543 18.0963962,6.70618985 C19.6802879,5.94514321 24.7225853,3.10198783 32.9762594,9.13292349 C33.2378195,8.91753293 33.4848485,8.74522048 33.4848485,8.74522048 C33.4848485,8.74522048 25.9286679,1.29270713 17.5151515,2.12555063 C13.2865966,2.49889426 8.08445694,6.30412747 5.03292249,11.3299072 C1.98138804,16.3556869 1.54545455,20.6060606 1.54545455,20.6060606 Z" id="Path"></path><path d="M1.54545455,20.6060606 L13.0250365,20.6060606 C13.0250365,20.6060606 10.830838,10.4877583 18.0963962,6.39050672 C19.6802879,5.61217577 24.7225853,2.70444884 32.9762594,8.87235445 C33.2378195,8.65207211 33.4848485,8.47584623 33.4848485,8.47584623 C33.4848485,8.47584623 25.9286679,0.854077156 17.5151515,1.70583555 C13.2720655,2.08765828 8.06992583,5.97931301 5.01839138,11.1192344 C1.96685692,16.2591557 1.54545455,20.6060606 1.54545455,20.6060606 Z M25.4636722,2.52822296 L25.5217967,1.54429516 C25.3910166,1.47086772 25.0277387,1.29464184 24.1122784,1.03030303 L24.0541539,1.99954534 C24.5336808,2.16108573 24.9986765,2.3373116 25.4636722,2.52822296 Z" id="Shape"></path><path d="M23.8191684,5.36499455 L23.7616631,6.27114644 C24.2360817,6.2855298 24.7105004,6.34306326 25.184919,6.4437468 L25.2424242,5.55197827 C24.7536293,5.45129473 24.2792107,5.39376127 23.8191684,5.36499455 Z M18.4999295,0.877385167 L18.6436927,0.877385167 L18.3561663,0 C17.9105004,0 17.4504581,0.0287667268 16.9760395,0.0863001803 L17.2491896,0.93491862 C17.6661029,0.89176853 18.0830162,0.877385167 18.4999295,0.877385167 Z M19.189993,6.17046289 L19.5206483,7.16291497 C19.9375617,6.96154788 20.354475,6.78894752 20.7713883,6.65949725 L20.4551092,5.71019527 C19.9663143,5.8540289 19.549401,6.0122459 19.189993,6.17046289 Z M12.6631431,2.38763832 L12.0162086,1.39518625 C11.6568006,1.58216997 11.2830162,1.78353706 10.8948555,2.01367087 L11.5561663,3.02050631 C11.9299507,2.7903725 12.2893587,2.57462205 12.6631431,2.38763832 Z M15.6102889,8.86015185 L16.3003524,9.89575401 C16.5447498,9.53616993 16.8322763,9.20535257 17.1485553,8.87453521 L16.5016209,7.8964665 C16.1709655,8.19851713 15.8690627,8.52933449 15.6102889,8.86015185 Z M13.5257223,13.4915949 L14.6902044,14.4121301 C14.7477097,13.8511789 14.8483439,13.2902278 14.9921071,12.7292766 L13.957012,11.9094249 C13.7701198,12.4416093 13.6407329,12.9737938 13.5257223,13.4915949 Z M7.22889359,6.65949725 L6.20817477,5.76772872 C5.83439042,6.1273128 5.47498238,6.48689689 5.14432699,6.84648097 L6.25130374,7.79578296 C6.55320648,7.40743215 6.88386187,7.01908134 7.22889359,6.65949725 Z M2.88724454,13.0888607 L1.23396758,12.4847594 C0.960817477,13.103244 0.658914729,13.8224122 0.515151515,14.210763 L2.16842847,14.8148643 C2.35532065,14.3258299 2.6572234,13.6210451 2.88724454,13.0888607 Z M13.3100775,17.1449692 C13.3388302,17.9072874 13.4107118,18.525772 13.4825934,18.9572729 L15.2077519,19.5757576 C15.078365,19.0148064 14.9489782,18.3819384 14.8627202,17.7059203 L13.3100775,17.1449692 Z" id="Shape"></path></g></g></g></g></g></g></svg> 