<?xml version="1.0" encoding="UTF-8"?> <svg xmlns="http://www.w3.org/2000/svg" xmlns:xlink="http://www.w3.org/1999/xlink" width="81px" height="72px" viewBox="0 0 81 72"><!-- Generator: Sketch 52.5 (67469) - http://www.bohemiancoding.com/sketch --><title>SECURITY &amp; COMPLIANCE</title><desc>Created with Sketch.</desc><defs><radialGradient cx="30.8057882%" cy="22.7126772%" fx="30.8057882%" fy="22.7126772%" r="79.9353411%" gradientTransform="translate(0.308058,0.227127),scale(1.000000,0.924710),rotate(50.347876),translate(-0.308058,-0.227127)" id="radialGradient-1"><stop stop-color="#7ECC79" offset="0%"></stop><stop stop-color="#28AD9D" offset="100%"></stop></radialGradient><circle id="path-2" cx="63.5" cy="11.5" r="11.5"></circle><filter x="-47.8%" y="-30.4%" width="195.7%" height="195.7%" id="filter-3"><feOffset dx="0" dy="4" in="SourceAlpha" result="shadowOffsetOuter1"></feOffset><feGaussianBlur stdDeviation="3" in="shadowOffsetOuter1" result="shadowBlurOuter1"></feGaussianBlur><feColorMatrix values="0 0 0 0 0.0431372549 0 0 0 0 0.274509804 0 0 0 0 0.317647059 0 0 0 0.431046196 0" type="matrix" in="shadowBlurOuter1"></feColorMatrix></filter></defs><g id="Pages" stroke="none" stroke-width="1" fill="none" fill-rule="evenodd"><g id="Messaging" transform="translate(-427.000000, -1635.000000)"><g id="Feature-(8-icons)" transform="translate(0.000000, 1249.000000)"><g id="SECURITY-&amp;-COMPLIANCE" transform="translate(419.000000, 380.000000)"><rect id="Rectangle-8" x="0" y="0" width="83" height="83" rx="12"></rect><g id="Group-41" transform="translate(8.000000, 8.000000)"><path d="M63.3115814,11.6109056 L63.3115814,11.6109056 C63.3115814,33.9706231 52.4076344,54.925468 34.0959177,67.756602 L31.6557907,69.4664142 L29.2156637,67.756602 C10.903947,54.925468 2.73827565e-15,33.9706231 0,11.6109056 C1.46967307,11.7182138 2.97034567,11.7736555 4.49531089,11.7736555 C15.789508,11.7736555 17.8893401,1 31.6557907,1 C45.4222413,1 47.5220734,11.7736555 58.8162705,11.7736555 C60.3412357,11.7736555 61.8419083,11.7182138 63.3115814,11.6109056 Z" id="Combined-Shape" fill="url(#radialGradient-1)"></path><path d="M63.3115814,11.6109056 L63.3115814,11.6109056 C63.3115814,33.9706231 52.4076344,54.925468 34.0959177,67.756602 L31.6557907,69.4664142 L31.6557907,1 C45.4222413,1 47.5220734,11.7736555 58.8162705,11.7736555 C60.3412357,11.7736555 61.8419083,11.7182138 63.3115814,11.6109056 Z" id="Combined-Shape-Copy-13" fill="#0D6574" opacity="0.200000003"></path><g id="Oval-21"><use fill="black" fill-opacity="1" filter="url(#filter-3)" xlink:href="#path-2"></use><use fill="#6AC264" fill-rule="evenodd" xlink:href="#path-2"></use></g><path d="M29,33.4002904 C27.219162,32.4899349 26,30.6373427 26,28.5 C26,25.4624339 28.4624339,23 31.5,23 C34.5375661,23 37,25.4624339 37,28.5 C37,30.6373427 35.780838,32.4899349 34,33.4002904 L34,42.5 C34,43.8807119 32.8807119,45 31.5,45 C30.1192881,45 29,43.8807119 29,42.5 L29,33.4002904 Z" id="Combined-Shape" fill="#0D505D"></path><polyline id="Path-95" stroke="#FFFFFF" stroke-width="2" stroke-linecap="round" stroke-linejoin="round" points="58.7142238 12.4069495 61.6491365 15.5818623 67.8902313 9.23203664"></polyline></g></g></g></g></g></svg> 