<?xml version="1.0" encoding="UTF-8"?> <svg xmlns="http://www.w3.org/2000/svg" xmlns:xlink="http://www.w3.org/1999/xlink" width="77px" height="69px" viewBox="0 0 77 69"><!-- Generator: Sketch 52.5 (67469) - http://www.bohemiancoding.com/sketch --><title>SERIOUS BOTS</title><desc>Created with Sketch.</desc><defs><radialGradient cx="26.049278%" cy="15.2894271%" fx="26.049278%" fy="15.2894271%" r="84.3997928%" gradientTransform="translate(0.260493,0.152894),scale(1.000000,0.991651),rotate(47.217051),translate(-0.260493,-0.152894)" id="radialGradient-1"><stop stop-color="#7CDA75" offset="0%"></stop><stop stop-color="#2ABBAA" offset="100%"></stop></radialGradient><ellipse id="path-2" cx="34.1539568" cy="34.4414977" rx="34.1539568" ry="34.4414977"></ellipse></defs><g id="Pages" stroke="none" stroke-width="1" fill="none" fill-rule="evenodd"><g id="Messaging" transform="translate(-1135.000000, -1635.000000)"><g id="Feature-(8-icons)" transform="translate(0.000000, 1249.000000)"><g id="SERIOUS-BOTS" transform="translate(1132.000000, 380.000000)"><rect id="Rectangle-8-Copy-8" x="0" y="0" width="83" height="83" rx="12"></rect><g id="Group-56" transform="translate(3.000000, 6.000000)"><path d="M5.13734964,26.8314314 L6.47980208,26.8314314 L6.47980208,41.8059956 L5.13734964,41.8059956 C2.30006978,41.8059956 3.4746657e-16,39.5059258 0,36.668646 L0,31.968781 C-3.4746657e-16,29.1315012 2.30006978,26.8314314 5.13734964,26.8314314 Z" id="Rectangle-18" fill="#0D6574"></path><path d="M4.73355676,26.8314314 L7.65713484,26.8314314 C8.63915898,26.8314314 9.43524684,27.6275193 9.43524684,28.6095434 L9.43524684,40.0278836 C9.43524684,41.0099078 8.63915898,41.8059956 7.65713484,41.8059956 L4.73355676,41.8059956 C3.75153262,41.8059956 2.95544476,41.0099078 2.95544476,40.0278836 L2.95544476,28.6095434 C2.95544476,27.6275193 3.75153262,26.8314314 4.73355676,26.8314314 Z" id="Rectangle-18-Copy-2" fill="#000000" opacity="0.100000001"></path><path d="M75.3352055,26.9542156 L76.6776579,26.9542156 L76.6776579,41.9287798 L75.3352055,41.9287798 C72.4979256,41.9287798 70.1978559,39.62871 70.1978559,36.7914301 L70.1978559,32.0915652 C70.1978559,29.2542853 72.4979256,26.9542156 75.3352055,26.9542156 Z" id="Rectangle-18-Copy" fill="#0D6574" transform="translate(73.437757, 34.441498) scale(-1, 1) translate(-73.437757, -34.441498) "></path><g id="Group-53" transform="translate(4.589860, 0.000000)"><mask id="mask-3" fill="white"><use xlink:href="#path-2"></use></mask><use id="Oval-12" fill="url(#radialGradient-1)" xlink:href="#path-2"></use><path d="M34.1539568,68.8829953 C53.0166663,68.8829953 68.3079136,53.4630116 68.3079136,34.4414977 C68.3079136,15.4199837 53.0166663,0 34.1539568,0 L34.1539568,68.8829953 Z" id="Oval-12-Copy" fill="#0D6574" opacity="0.200000003" mask="url(#mask-3)"></path><path d="M12.7882273,68.8459456 C9.36671355,58.6433351 7.30422341,50.9132507 6.60075684,45.6556923 C4.36629795,28.9558254 12.167698,21.51598 18.3808502,21.51598 C20.6210328,21.51598 22.8102069,22.1472419 24.6679133,23.3288935 C27.7588061,25.2949516 30.8496988,26.2779806 33.9405915,26.2779806 C37.0314843,26.2779806 40.122377,25.2949515 43.2132698,23.3288935 C45.1599655,22.0906375 47.3710937,21.4378854 49.5520168,21.5150608 C62.0528118,21.9574214 62.7514958,38.5679976 62.0528118,46.4918386 C61.5870224,51.7743993 59.147654,59.3973258 54.7347063,69.360618 L12.7882273,68.8459456 Z" id="Path-52" fill="#0D6574" mask="url(#mask-3)"></path><g id="Group-55" mask="url(#mask-3)" stroke-linecap="round" stroke-linejoin="round"><g transform="translate(17.544304, 38.500000)" id="Group-54"><g transform="translate(-0.000000, 0.000000)"><g id="Group-42" transform="translate(0.000000, 0.000000)" stroke="#FFFFFF" stroke-width="2"><path d="M0.20749436,6.45808633 L0.20749436,3.13493474 C0.20749436,1.40355809 1.77892689,0 3.71738715,0 C5.65584742,0 7.22727995,1.40355809 7.22727995,3.13493474 L7.22727995,6.45808633" id="Rectangle-6"></path><path d="M25.1092331,6.95448921 L25.1092331,3.63133762 C25.1092331,1.89996097 26.6806656,0.496402878 28.6191259,0.496402878 C30.5575861,0.496402878 32.1290186,1.89996097 32.1290186,3.63133762 L32.1290186,6.95448921" id="Rectangle-6"></path></g></g></g></g></g></g></g></g></g></g></svg> 