<?xml version="1.0" encoding="UTF-8"?> <svg xmlns="http://www.w3.org/2000/svg" xmlns:xlink="http://www.w3.org/1999/xlink" width="411px" height="222px" viewBox="0 0 411 222"><!-- Generator: Sketch 52.5 (67469) - http://www.bohemiancoding.com/sketch --><title>Spacial and Location Data</title><desc>Created with Sketch.</desc><defs><linearGradient x1="100%" y1="3.62234285%" x2="0%" y2="100%" id="linearGradient-1"><stop stop-color="#86EB7F" offset="0%"></stop><stop stop-color="#33BAAA" offset="100%"></stop></linearGradient><path d="M-9.32587341e-15,20.1304779 C26.0426737,6.49710691 52.4306247,-0.109502989 79.1638529,0.310648191 C119.263695,0.940874962 163.16749,23.0761988 191.479774,22.6861916 C210.35463,22.4261869 230.75859,15.133704 252.691652,0.808743169 L260.11885,131.173878 C259.995698,137.09338 257.690812,142.271038 253.20419,146.706852 C246.474258,153.360573 229.948576,164.484714 191.479774,164.484714 C153.010972,164.484714 113.945584,140.925733 79.1638529,140.925733 C56.5937813,140.925733 30.9918179,148.343574 2.35796262,163.179256 L2.35796464,163.17926 C1.56600886,163.589586 0.591367219,163.280214 0.181041608,162.488258 C0.0620875542,162.258669 -9.29420704e-15,162.003873 -9.32587341e-15,161.745298 L-9.32587341e-15,20.1304779 Z" id="path-2"></path><radialGradient cx="48.4764261%" cy="50%" fx="48.4764261%" fy="50%" r="45.4392742%" gradientTransform="translate(0.484764,0.500000),scale(0.559074,1.000000),rotate(90.000003),scale(1.000000,1.674916),translate(-0.484764,-0.500000)" id="radialGradient-4"><stop stop-color="#FFFFFF" stop-opacity="0.853798687" offset="0%"></stop><stop stop-color="#FFFFFF" stop-opacity="0" offset="100%"></stop></radialGradient><path d="M148.692288,158.742809 C246.322537,193.037951 303.741266,141.232465 303.741266,90.9836066 C303.741266,40.7347482 235.746467,0 151.870633,0 C67.9947984,0 0,40.7347482 0,90.9836066 C0,141.232465 51.0620385,124.447667 148.692288,158.742809 Z" id="path-5"></path><linearGradient x1="100%" y1="3.62234285%" x2="0%" y2="100%" id="linearGradient-7"><stop stop-color="#E5FFE3" offset="0%"></stop><stop stop-color="#8FE5DB" offset="100%"></stop></linearGradient><ellipse id="path-8" cx="25.6091165" cy="26.4470457" rx="9.45266615" ry="9.46343911"></ellipse><filter x="-76.7%" y="-66.0%" width="253.4%" height="253.2%" id="filter-9"><feOffset dx="0" dy="2" in="SourceAlpha" result="shadowOffsetOuter1"></feOffset><feGaussianBlur stdDeviation="4.5" in="shadowOffsetOuter1" result="shadowBlurOuter1"></feGaussianBlur><feColorMatrix values="0 0 0 0 0 0 0 0 0 0 0 0 0 0 0 0 0 0 0.1 0" type="matrix" in="shadowBlurOuter1" result="shadowMatrixOuter1"></feColorMatrix><feOffset dx="0" dy="2" in="SourceAlpha" result="shadowOffsetOuter2"></feOffset><feGaussianBlur stdDeviation="2" in="shadowOffsetOuter2" result="shadowBlurOuter2"></feGaussianBlur><feColorMatrix values="0 0 0 0 0 0 0 0 0 0 0 0 0 0 0 0 0 0 0.1 0" type="matrix" in="shadowBlurOuter2" result="shadowMatrixOuter2"></feColorMatrix><feMerge><feMergeNode in="shadowMatrixOuter1"></feMergeNode><feMergeNode in="shadowMatrixOuter2"></feMergeNode></feMerge></filter><ellipse id="path-10" cx="25.4631195" cy="25.4921391" rx="25.4631195" ry="25.4921391"></ellipse><filter x="-11.6%" y="-7.7%" width="123.2%" height="123.2%" id="filter-11"><feMorphology radius="0.40375" operator="dilate" in="SourceAlpha" result="shadowSpreadOuter1"></feMorphology><feOffset dx="0" dy="2" in="shadowSpreadOuter1" result="shadowOffsetOuter1"></feOffset><feMorphology radius="1" operator="erode" in="SourceAlpha" result="shadowInner"></feMorphology><feOffset dx="0" dy="2" in="shadowInner" result="shadowInner"></feOffset><feComposite in="shadowOffsetOuter1" in2="shadowInner" operator="out" result="shadowOffsetOuter1"></feComposite><feGaussianBlur stdDeviation="1.5" in="shadowOffsetOuter1" result="shadowBlurOuter1"></feGaussianBlur><feColorMatrix values="0 0 0 0 0 0 0 0 0 0 0 0 0 0 0 0 0 0 0.1 0" type="matrix" in="shadowBlurOuter1"></feColorMatrix></filter><ellipse id="path-12" cx="25.6332292" cy="25.6624427" rx="18.3628265" ry="18.3837542"></ellipse><filter x="-16.1%" y="-10.6%" width="132.2%" height="132.1%" id="filter-13"><feMorphology radius="0.40375" operator="dilate" in="SourceAlpha" result="shadowSpreadOuter1"></feMorphology><feOffset dx="0" dy="2" in="shadowSpreadOuter1" result="shadowOffsetOuter1"></feOffset><feMorphology radius="1" operator="erode" in="SourceAlpha" result="shadowInner"></feMorphology><feOffset dx="0" dy="2" in="shadowInner" result="shadowInner"></feOffset><feComposite in="shadowOffsetOuter1" in2="shadowInner" operator="out" result="shadowOffsetOuter1"></feComposite><feGaussianBlur stdDeviation="1.5" in="shadowOffsetOuter1" result="shadowBlurOuter1"></feGaussianBlur><feColorMatrix values="0 0 0 0 0 0 0 0 0 0 0 0 0 0 0 0 0 0 0.1 0" type="matrix" in="shadowBlurOuter1"></feColorMatrix></filter><linearGradient x1="113.153674%" y1="0%" x2="-24.5716445%" y2="140.05799%" id="linearGradient-14"><stop stop-color="#7ECC79" offset="0%"></stop><stop stop-color="#33BAAA" offset="100%"></stop></linearGradient></defs><g id="Pages" stroke="none" stroke-width="1" fill="none" fill-rule="evenodd"><g id="Business-Intelligence" transform="translate(-928.000000, -3444.000000)"><g id="Maps-and-Locations" transform="translate(903.000000, 3175.000000)"><g id="Spacial-and-Location-Data" transform="translate(25.000000, 269.000000)"><rect id="Rectangle-4-Copy-3" fill="#E6F6F4" x="29.7750511" y="0" width="380.269939" height="222" rx="25"></rect><path d="M406.642127,186.275862 L304.556237,186.275862 C325.067959,185.821957 336.649601,183.048188 339.301165,177.954555 C343.278511,170.314105 345.379664,177.954555 348.07194,177.954555 C350.764215,177.954555 350.941434,164.958372 361.176381,164.192666 C371.411327,163.42696 370.053082,176.75522 374.330211,177.954555 C378.60734,179.153889 380.068248,176.934252 384.007522,180.328243 C386.633704,182.590903 394.178572,184.573443 406.642127,186.275862 Z" id="Path-113-Copy-7" fill="#FFFFFF" opacity="0.800000012"></path><path d="M295.479193,34.8735632 L175.247444,34.8735632 C199.405142,34.3323688 213.045432,31.0251826 216.168314,24.9520045 C220.852637,15.8422374 223.327271,24.9520045 226.498102,24.9520045 C229.668932,24.9520045 229.877652,9.45655549 241.931869,8.54359863 C253.986086,7.63064177 252.386413,23.5220286 257.423805,24.9520045 C262.461197,26.3819805 264.181783,23.7354895 268.821266,27.7821708 C271.914254,30.4799583 280.80023,32.8437558 295.479193,34.8735632 Z" id="Path-113-Copy-8" fill="#FFFFFF" opacity="0.800000012"></path><path d="M120.231749,62.9425287 L0,62.9425287 C24.1576984,62.4013344 37.7979886,59.0941481 40.9208705,53.0209701 C45.6051934,43.9112029 48.0798276,53.0209701 51.2506578,53.0209701 C54.4214881,53.0209701 54.6302079,37.525521 66.6844252,36.6125642 C78.7386425,35.6996073 77.1389688,51.5909941 82.1763612,53.0209701 C87.2137537,54.450946 88.9343395,51.804455 93.5738221,55.8511363 C96.6668105,58.5489238 105.552786,60.9127213 120.231749,62.9425287 Z" id="Path-113-Copy-6" fill="#FFFFFF" opacity="0.800000012"></path><g id="Group-36" transform="translate(90.418931, 20.413793)"><g id="Group-37" transform="translate(0.000000, 13.748634)"><mask id="mask-3" fill="white"><use xlink:href="#path-2"></use></mask><use id="Rectangle-40" fill="url(#linearGradient-1)" xlink:href="#path-2"></use><rect id="Rectangle-18" fill="#4D9C95" opacity="0.402456975" mask="url(#mask-3)" x="79.974429" y="-7.27868852" width="206.802564" height="185.202186"></rect><rect id="Rectangle-18-Copy" fill="#4D9C95" opacity="0.5" mask="url(#mask-3)" x="195.493049" y="-7.27868852" width="151.870633" height="185.202186"></rect><g id="Map" mask="url(#mask-3)"><g transform="translate(-12.925160, -12.939891)"><mask id="mask-6" fill="white"><use xlink:href="#path-5"></use></mask><use id="Oval-15" stroke="none" fill="url(#radialGradient-4)" fill-rule="evenodd" xlink:href="#path-5"></use><path d="M217.47211,211.941431 L234.24356,215.233377 L233.598504,219.026271 L236.680437,219.026271 L243.991069,177.447562 L245.711218,219.026271 L248.721478,219.026271 L248.148095,204.999718 L255.817091,204.785026 L256.605493,219.026271 L258.110623,219.026271 L257.322221,204.785026 L268.789879,204.49877 L268.789879,201.49308 L259.329061,201.779336 L258.612333,196.769853 L268.789879,197.05611 L268.789879,195.553265 L258.397314,195.267008 L257.03553,185.534299 L263.199396,178.735714 L268.861552,182.313917 L268.861552,180.524816 L264.202816,177.59069 L268.861552,172.509643 L268.861552,170.291157 L256.748838,183.602069 C256.103783,179.880739 254.52698,170.505849 253.810251,166.569827 L268.861552,169.146133 L268.861552,166.140443 L261.335901,164.85229 L263.127723,153.688299 C265.134563,154.117684 267.06973,154.475504 268.861552,154.904888 L268.861552,151.827634 L264.56118,150.968866 L268.861552,145.529998 L268.861552,140.663643 L261.335901,150.253225 L251.588392,148.249432 L255.745418,119.051302 L268.933225,121.412916 L268.933225,116.331869 L267.57144,116.117176 L268.933225,106.670723 L268.933225,86.1318423 L267.428095,96.5086286 L253.451887,93.1451186 C254.168615,89.4237883 256.03211,79.6910784 256.748838,75.9697482 L269.004898,78.2597976 L269.004898,75.1825437 L261.120883,73.6796988 L267.356422,39.8299063 L269.004898,40.1161625 L269.004898,35.0351154 L264.919545,34.2479109 L265.994637,26.5905583 L269.004898,25.9464819 L269.004898,24.443637 L266.209656,25.0161493 L268.646533,8.19859914 L269.004898,8.27016318 L269.004898,-29.3725236 L268.144823,-23.1464518 L258.755678,-22.5739395 L258.325641,-30.5891124 L256.820511,-30.5891124 L257.250548,-22.4308114 L249.294861,-21.9298631 L248.936496,-30.5891124 L245.926236,-30.5891124 L246.2846,-21.786735 L235.24698,-21.1426586 L236.895455,-30.6606764 L233.813522,-30.6606764 L232.165047,-21.4289148 L215.536943,-25.8658855 L216.397017,-30.6606764 L211.308244,-30.6606764 L209.588095,-21.5004788 L198.120437,-19.5682497 L196.758653,-30.6606764 L193.748393,-30.6606764 L195.18185,-19.0673014 L184.000883,-17.2066362 L179.198802,-27.0109102 C182.065716,-27.8696787 186.867798,-29.2293955 192.028244,-30.7322404 L181.277315,-30.7322404 L177.837017,-29.7303438 L177.335307,-30.7322404 L171.744824,-30.7322404 L172.89159,-28.370627 C171.171441,-27.8696787 168.806237,-27.2256023 166.512705,-26.5815259 C166.154341,-27.5834225 165.652631,-29.0862674 165.079248,-30.7322404 L163.502445,-30.7322404 L165.079248,-26.1521417 C162.284006,-25.3649372 159.775456,-24.7208608 158.843709,-24.4346046 L151.60475,-26.65309 L152.034787,-30.6606764 L150.529657,-30.6606764 L150.09962,-27.0824742 L140.85382,-29.945036 L141.140512,-30.6606764 L137.915233,-30.6606764 L136.696794,-27.3687304 L128.81278,-30.6606764 L126.017538,-30.6606764 L123.580661,-24.3630406 L112.256348,-28.299063 C112.758059,-29.0862674 113.188096,-29.8734719 113.618133,-30.6606764 L110.106163,-30.6606764 C108.457687,-27.7981147 106.594192,-25.007117 104.587352,-22.5023755 L103.225568,-30.6606764 L100.215308,-30.6606764 L100.573672,-28.370627 L93.0480215,-23.8620923 L89.0343412,-30.5891124 L87.3141925,-30.5891124 L96.6316646,-14.7734588 C96.416646,-14.6303307 96.2016274,-14.4872026 95.9866088,-14.3440745 C92.9763486,-12.4118453 89.1060141,-10.9805645 84.6622966,-9.90710383 L86.1674267,-30.5891124 L84.6622966,-30.5891124 L83.1571665,-9.54928361 C81.5086907,-9.19146339 79.788542,-8.90520722 78.0683933,-8.61895105 L76.4199175,-30.5891124 L73.4096573,-30.5891124 L73.9830402,-23.1464518 L55.921479,-25.3649372 L55.7781332,-30.5891124 L52.767873,-30.5891124 L52.9112188,-25.7227574 L48.7541928,-26.2237057 L44.3104753,-30.5891124 L42.1602895,-30.5891124 L46.3173154,-26.5099619 L31.1226687,-28.370627 L31.4093602,-30.5891124 L29.9042301,-30.5891124 L29.6175386,-28.5137551 L23.5970182,-29.2293955 L23.8120368,-30.5891124 L18.7232636,-30.5891124 L18.5799179,-29.3725236 L18.5799179,8.27016318 L31.5527059,10.6317766 L33.7745646,21.2948191 L18.5799179,24.443637 L18.5799179,25.9464819 L23.166981,25.0161493 L24.6004383,36.108576 L18.5799179,34.9635513 L18.5799179,40.0445984 L25.1738212,41.2611872 L20.1567208,75.3256718 L18.5799179,75.0394156 L18.5799179,78.1166695 L19.7266836,78.3313616 L18.5799179,85.9887143 L18.5799179,106.527595 L22.665271,78.8323099 L36.7848248,81.4801795 L33.057836,118.765046 L18.5799179,116.188741 L18.5799179,121.269788 L31.8393973,123.631401 L18.5799179,140.520515 L18.5799179,145.38687 L31.7677245,128.640884 L28.1840814,153.759863 L18.5799179,151.75607 L18.5799179,154.833324 C22.4502524,155.620528 25.6755312,156.336169 27.7540442,156.693989 L26.2489141,167.357032 L18.6515907,166.068879 L18.6515907,169.074569 L19.5833379,169.217697 L18.6515907,170.219593 L18.6515907,172.438079 L21.3034866,169.503953 L25.8188769,170.291157 L23.8837096,183.816761 L18.6515907,180.524816 L18.6515907,182.313917 L23.6686911,185.462734 L22.2352338,195.624829 L18.7232636,195.553265 L18.7232636,197.05611 L22.0202152,197.127674 L21.3751595,201.421516 L18.6515907,201.49308 L18.6515907,204.49877 L20.9451223,204.427206 L18.8666093,219.097835 L23.9553825,219.097835 L26.0338955,204.641898 L31.7677245,205.429103 L30.0475758,219.097835 L31.5527059,219.097835 L32.6994717,209.722945 L42.2319623,219.097835 L44.3821482,219.097835 L32.9144903,207.86228 L33.2011817,205.643795 L52.6245273,208.2201 L52.9112188,219.097835 L55.921479,219.097835 L55.6347875,208.649485 L72.9079472,210.939534 L73.4813301,219.097835 L76.4915903,219.097835 L76.2048989,214.875556 L85.1640066,213.372711 L84.7339695,219.097835 L86.2390996,219.097835 L86.3824453,217.380298 L87.3858654,219.097835 L89.1060141,219.097835 L86.525791,214.732428 L86.6691368,213.086455 L98.9251962,211.011098 L100.286981,219.097835 L103.297241,219.097835 L99.0685419,193.764164 L120.427055,195.410137 C118.06185,202.566541 114.621553,211.368918 110.106163,219.169399 L113.618133,219.169399 C115.481627,215.877453 117.130103,212.442379 118.56356,209.007305 L128.526088,212.800199 L126.017538,219.169399 L128.81278,219.169399 L127.80936,218.740015 L132.82646,206.001615 L142.000586,208.148536 L137.986906,219.169399 L141.212185,219.169399 L148.809508,198.272698 L152.966534,197.700186 L150.60133,219.097835 L152.10646,219.097835 L153.038207,210.51015 L159.847129,208.649485 L163.502445,219.097835 L165.079248,219.097835 C163.645791,215.161812 161.925642,210.152329 161.280586,208.291664 L165.867649,207.003512 L171.816497,219.097835 L177.40698,219.097835 L174.826757,213.87366 L194.751813,207.719152 L193.605047,215.519633 L181.277315,219.097835 L192.028244,219.097835 C192.601627,218.954707 193.103337,218.811579 193.67672,218.596887 L193.748393,219.097835 L196.758653,219.097835 L196.615307,217.738118 C202.7075,215.949017 208.728021,214.23148 212.383337,213.158019 L211.308244,219.097835 L216.397017,219.097835 L217.47211,211.941431 L217.47211,211.941431 Z M214.748541,198.988339 L199.052184,196.841417 L200.628987,185.748991 L216.683708,188.468424 L214.748541,198.988339 L214.748541,198.988339 Z M181.205642,179.451355 L182.280735,173.368411 L198.908839,176.517229 L198.048764,182.313917 L181.205642,179.451355 L181.205642,179.451355 Z M197.6904,185.319606 L197.045344,190.042833 L186.007723,188.468424 L187.082816,183.530505 L197.6904,185.319606 L197.6904,185.319606 Z M142.072259,179.379791 L134.689954,179.165099 L135.83672,172.795899 L142.072259,175.801589 C142.000586,176.374101 141.928913,176.946613 141.928913,177.59069 C141.85724,178.163202 141.928913,178.807278 142.072259,179.379791 L142.072259,179.379791 Z M144.294118,184.460838 C144.724155,184.961786 145.154192,185.39117 145.584229,185.820555 L139.922073,193.191651 L134.618281,184.174582 L144.294118,184.460838 L144.294118,184.460838 Z M143.935753,171.22149 L129.672854,164.351342 L145.154192,158.697782 L147.519397,168.001108 C146.157612,168.788312 144.867501,169.861773 143.935753,171.22149 L143.935753,171.22149 Z M45.1705497,155.334272 L47.0340441,151.255122 L69.8260142,145.816254 L66.6007354,157.123373 L45.1705497,155.334272 L45.1705497,155.334272 Z M65.8123339,160.129063 L64.3072038,167.929544 L58.7167206,166.498263 L59.1467577,159.556551 L65.8123339,160.129063 L65.8123339,160.129063 Z M34.061256,-5.11231292 C39.1500292,-4.7544927 45.0272039,-4.39667249 51.1193972,-4.32510844 L51.0477243,-2.82226353 L33.2728546,2.6881678 L34.061256,-5.11231292 L34.061256,-5.11231292 Z M27.8973899,-8.61895105 L29.6175386,-18.0654048 L45.9589511,-15.9900475 C45.8156054,-14.2009464 45.3138954,-9.76397574 45.0988768,-7.40236231 C38.5766464,-7.76018252 32.5561259,-8.26113083 27.8973899,-8.61895105 L27.8973899,-8.61895105 Z M66.6007354,11.347417 L68.5359027,28.5943515 C64.0921852,29.0952998 50.68936,30.6697087 45.9589511,31.1706571 L48.0374641,13.0649541 L66.6007354,11.347417 L66.6007354,11.347417 Z M50.9760515,-1.24785458 L50.4743414,9.84457214 L46.6756798,10.2023924 L43.1637095,9.55831596 L42.1602895,1.47157907 L50.9760515,-1.24785458 L50.9760515,-1.24785458 Z M68.7509213,30.0971964 L69.4676499,36.3232682 L45.0272039,39.328958 L45.8156054,32.745066 L68.7509213,30.0971964 L68.7509213,30.0971964 Z M171.601478,28.8806077 L168.806237,38.6133176 L157.410252,42.9787242 C155.761776,38.3270614 154.399991,33.7469626 153.683263,31.027529 L171.601478,28.8806077 L171.601478,28.8806077 Z M155.976794,19.4341539 L164.720883,18.3606933 L165.724304,24.5867651 L156.693523,25.6602257 L155.976794,19.4341539 L155.976794,19.4341539 Z M199.410549,82.9830244 L188.802965,80.4782829 L194.106757,64.0185529 L203.20921,65.73609 C202.564155,68.7417798 200.915679,76.1128763 199.410549,82.9830244 L199.410549,82.9830244 Z M204.71434,66.0223462 L215.895307,68.0977034 L201.274043,81.6948717 L204.71434,66.0223462 L204.71434,66.0223462 Z M104.945717,69.3858562 L122.218876,67.7398832 L124.082371,75.2541077 L103.368914,75.8266201 L104.945717,69.3858562 L104.945717,69.3858562 Z M104.945717,56.3612003 L120.785419,61.8716316 L121.502148,64.8057574 L106.235828,66.2370383 L104.945717,56.3612003 L104.945717,56.3612003 Z M183.570846,80.4782829 L180.703932,89.2806602 L168.376199,84.4143053 L171.673151,76.1844403 L183.570846,80.4782829 L183.570846,80.4782829 Z M172.318207,74.8247235 L175.185121,67.6683192 C179.41382,70.1014966 183.499173,72.2484179 185.936051,73.3934426 L184.144229,79.047002 L172.318207,74.8247235 L172.318207,74.8247235 Z M164.219173,86.9190468 L158.413672,81.9811278 L165.365939,72.1052898 L169.021255,74.7531594 L164.219173,86.9190468 L164.219173,86.9190468 Z M163.645791,88.4218917 L163.359099,89.1375322 L148.809508,90.3541209 L141.498876,80.621411 L148.737835,75.7550561 L163.645791,88.4218917 L163.645791,88.4218917 Z M147.304378,90.9266332 L134.976646,98.0114735 L132.181404,86.8474828 L140.208765,81.4801795 C141.570549,83.2692806 145.870921,88.9944041 147.304378,90.9266332 L147.304378,90.9266332 Z M140.567129,79.4763863 C139.922073,78.6891818 138.775307,77.1863369 137.915233,76.1128763 L144.007426,71.7474696 L147.591069,74.7531594 L140.567129,79.4763863 L140.567129,79.4763863 Z M139.34869,80.2635908 L131.82304,85.2730738 L130.81962,81.1939233 L136.768467,76.9716448 L139.34869,80.2635908 L139.34869,80.2635908 Z M131.177984,103.307213 L117.990177,99.3711904 L127.952705,90.2825569 L131.177984,103.307213 L131.177984,103.307213 Z M116.341702,98.9418061 L99.2835605,93.860759 L103.153895,77.4010291 L124.584081,76.7569527 L127.594341,88.6365839 L116.341702,98.9418061 L116.341702,98.9418061 Z M97.7784304,67.0958068 L95.4132259,47.2725668 L102.078802,46.2706702 L104.730698,66.3801664 L97.7784304,67.0958068 L97.7784304,67.0958068 Z M97.6350846,70.1014966 L103.368914,69.5289843 L100.573672,81.4086155 L94.9115159,79.6195144 L97.6350846,70.1014966 L97.6350846,70.1014966 Z M100.286981,82.9114604 L97.8501032,93.4313748 L91.5428914,91.5707096 L94.5531516,81.0507953 L100.286981,82.9114604 L100.286981,82.9114604 Z M98.6385047,96.7948848 L90.5394713,118.908174 L84.5189509,116.403433 L90.7544899,94.5048354 L98.6385047,96.7948848 L98.6385047,96.7948848 Z M100.071962,97.2242691 L107.884304,99.5143184 L104.515679,109.533285 C102.293821,108.817644 98.1367947,107.529491 96.416646,107.028543 L100.071962,97.2242691 L100.071962,97.2242691 Z M106.880884,111.894898 C108.386014,112.395846 111.03791,113.326179 114.191516,114.471204 L109.246088,125.778322 L102.508839,124.991118 L106.880884,111.894898 L106.880884,111.894898 Z M107.310921,110.463617 L110.679546,100.373087 L122.290549,103.808161 L119.495308,114.75746 L107.310921,110.463617 L107.310921,110.463617 Z M123.795679,104.237545 L132.109731,106.670723 L135.550029,120.267891 L121.000438,115.186844 L123.795679,104.237545 L123.795679,104.237545 Z M135.406683,99.5143184 L141.785568,95.8645522 L144.939174,107.028543 L136.768467,104.953186 L135.406683,99.5143184 L135.406683,99.5143184 Z M143.147352,95.0773478 L148.666162,91.9285298 L162.714043,90.7119411 L155.188393,109.604849 L146.659322,107.457927 L143.147352,95.0773478 L143.147352,95.0773478 Z M161.782296,101.231855 L168.519545,103.450341 L166.082668,112.395846 L158.12698,110.392053 L161.782296,101.231855 L161.782296,101.231855 Z M162.284006,99.8005746 L167.874489,85.8455862 L180.273895,90.7835052 L175.90185,104.380673 L162.284006,99.8005746 L162.284006,99.8005746 Z M180.847277,105.454134 L193.390028,107.672619 L182.854118,125.20581 L176.331887,119.337558 L180.847277,105.454134 L180.847277,105.454134 Z M182.352408,100.659343 L188.372928,81.9095638 L199.123857,84.4143053 C198.048764,89.3522243 197.045344,93.789195 196.615307,95.9361163 L187.226162,101.518112 L182.352408,100.659343 L182.352408,100.659343 Z M200.413969,85.55933 L204.857686,90.9981973 L198.335456,94.8626556 L200.413969,85.55933 L200.413969,85.55933 Z M186.796125,70.5308809 C181.779025,68.0261394 170.454712,62.0147597 165.222593,57.577789 C165.007575,57.3630969 164.720883,57.1484048 164.505865,56.8621486 L176.546906,46.5569264 L190.093077,60.2256586 L186.796125,70.5308809 L186.796125,70.5308809 Z M168.591218,49.4194881 L164.649211,41.9052636 L169.307947,40.1161625 L174.39672,44.4815691 L168.591218,49.4194881 L168.591218,49.4194881 Z M167.372779,50.4213847 L162.64237,54.4289711 C160.922222,51.7811015 159.273746,48.1313353 157.911962,44.4100051 L163.215753,42.4062119 L167.372779,50.4213847 L167.372779,50.4213847 Z M163.287426,59.7962744 C165.580958,61.8000676 169.021255,64.0185529 172.533225,66.0939102 L169.666311,73.3218786 L155.761776,63.2313485 L162.212333,58.5796857 C162.499025,59.080634 162.929062,59.5100182 163.287426,59.7962744 L163.287426,59.7962744 Z M164.219173,71.3180854 L157.338579,81.1223593 L145.297538,70.8887011 L154.471664,64.3048091 L164.219173,71.3180854 L164.219173,71.3180854 Z M145.870921,66.7379866 L143.147352,57.8640452 L149.812928,54.7152273 L152.60817,61.9431957 L145.870921,66.7379866 L145.870921,66.7379866 Z M142.717315,56.3612003 L140.567129,49.27636 L145.297538,42.9071602 L149.311218,53.2839464 L142.717315,56.3612003 L142.717315,56.3612003 Z M143.290698,68.5986517 L130.031218,78.1882335 L125.229137,59.152198 L139.635382,56.3612003 L143.290698,68.5986517 L143.290698,68.5986517 Z M124.799099,57.6493531 L119.136943,35.2498075 L132.683114,33.6038345 L139.133672,54.8583554 L124.799099,57.6493531 L124.799099,57.6493531 Z M120.283709,60.1540946 L104.659025,54.7152273 L103.512259,46.0559781 L116.198356,44.1953129 L120.283709,60.1540946 L120.283709,60.1540946 Z M95.1982073,45.8412859 L94.338133,38.3270614 L114.191516,35.8938839 L115.911664,42.7640321 L95.1982073,45.8412859 L95.1982073,45.8412859 Z M93.4780586,33.3891424 L91.9729285,26.9483785 L113.116423,27.9502751 L113.904824,30.9559649 L93.4780586,33.3891424 L93.4780586,33.3891424 Z M94.5531516,65.3782698 L80.290252,49.0616679 L79.7168691,40.1161625 L91.3995456,38.6848816 L94.5531516,65.3782698 L94.5531516,65.3782698 Z M79.1434862,35.1066794 L78.1400662,28.6659155 C82.1537464,28.0218391 86.6691368,27.3777628 88.9626683,27.0199425 L90.5394713,33.7469626 L79.1434862,35.1066794 L79.1434862,35.1066794 Z M78.211739,40.2592906 L78.7851219,48.6322836 L72.4779101,49.27636 L72.6929287,40.9033669 L78.211739,40.2592906 L78.211739,40.2592906 Z M79.2151591,50.1351285 L94.2664601,67.382063 L71.9045272,69.4574202 L72.4062372,50.7076409 C74.4130774,50.6360768 78.0683933,50.2782566 79.2151591,50.1351285 L79.2151591,50.1351285 Z M94.4098058,70.3877528 L82.0820736,113.755563 L75.9898803,110.392053 L88.8909955,70.8887011 L94.4098058,70.3877528 L94.4098058,70.3877528 Z M83.5872037,119.265994 L99.0685419,125.706758 L97.3483932,130.859369 L82.2970922,123.989221 L83.5872037,119.265994 L83.5872037,119.265994 Z M91.8295828,119.480687 L95.8432631,108.459824 L103.942296,110.964565 L99.9286162,122.844197 L91.8295828,119.480687 L91.8295828,119.480687 Z M102.007129,126.422399 L108.816051,127.209603 L107.239248,137.300133 L100.000289,132.362214 L102.007129,126.422399 L102.007129,126.422399 Z M110.392854,126.780219 L115.5533,114.972152 C119.638653,116.403433 124.297389,118.049406 128.382742,119.480687 L123.867352,142.595873 L118.133523,144.814358 L108.672705,138.30203 L110.392854,126.780219 L110.392854,126.780219 Z M133.256497,142.166488 L135.765047,151.255122 L125.085791,155.692092 L120.212036,147.104407 L133.256497,142.166488 L133.256497,142.166488 Z M125.515828,141.880232 L129.8162,119.910071 C132.253077,120.768839 134.403263,121.48448 135.908393,122.056992 L139.563709,136.512929 L125.515828,141.880232 L125.515828,141.880232 Z M137.628542,108.173568 L154.328318,112.395846 L150.027947,118.049406 L140.782148,120.697275 L137.628542,108.173568 L137.628542,108.173568 Z M155.905121,112.896795 L171.673151,116.904381 L154.1133,125.849886 L151.318058,118.979738 L155.905121,112.896795 L155.905121,112.896795 Z M167.516125,112.753666 L169.88133,103.951289 L175.471813,105.811954 L172.819917,114.113383 L167.516125,112.753666 L167.516125,112.753666 Z M175.830177,120.911967 L189.949731,133.650367 L188.874638,135.65416 C181.779025,134.294444 175.471813,133.077855 172.103188,132.433778 L175.830177,120.911967 L175.830177,120.911967 Z M184.000883,126.279271 L194.966831,107.958876 L202.564155,109.318592 L190.594787,132.29065 L184.000883,126.279271 L184.000883,126.279271 Z M204.140958,109.604849 L206.577835,110.034233 L201.847426,138.158902 C198.048764,137.443261 194.106757,136.656057 190.451441,135.940417 L204.140958,109.604849 L204.140958,109.604849 Z M205.001032,128.56932 L217.328764,131.503446 L215.823634,140.878335 C212.096645,140.162695 207.796274,139.303927 203.280883,138.445158 L205.001032,128.56932 L205.001032,128.56932 Z M206.864526,142.238052 L215.250251,143.812461 L211.523262,159.270295 L204.642668,157.910578 L206.864526,142.238052 L206.864526,142.238052 Z M216.755381,144.098717 L224.567723,145.601562 L221.700809,161.345652 L213.028392,159.628115 L216.755381,144.098717 L216.755381,144.098717 Z M217.328764,141.164592 L218.833894,131.718138 L227.004601,132.362214 L225.141106,142.667437 C223.277612,142.309616 220.625716,141.808668 217.328764,141.164592 L217.328764,141.164592 Z M219.048913,130.286857 L220.052333,123.989221 L228.366385,125.134246 L227.291292,130.930933 L219.048913,130.286857 L219.048913,130.286857 Z M220.339024,122.486376 L221.844154,112.825231 L230.373225,114.328075 L228.653076,123.631401 L220.339024,122.486376 L220.339024,122.486376 Z M217.615456,130.000601 L205.287723,127.066475 L208.082965,110.320489 L220.339024,112.538974 L217.615456,130.000601 L217.615456,130.000601 Z M191.741552,102.305316 L206.792853,93.3598107 L217.97382,106.956979 L191.741552,102.305316 L191.741552,102.305316 Z M208.082965,92.5726062 L227.649656,80.9792312 L232.021701,86.2749704 L212.45501,97.8683454 L208.082965,92.5726062 L208.082965,92.5726062 Z M206.147798,90.2825569 L200.987352,83.984921 L217.47211,68.5986517 L225.714489,78.6176178 L206.147798,90.2825569 L206.147798,90.2825569 Z M218.117166,57.577789 L206.362816,56.0033801 C206.721181,53.7848947 207.079545,51.7095375 207.222891,50.6360768 L218.833894,52.9261262 L218.117166,57.577789 L218.117166,57.577789 Z M217.902147,59.080634 L216.898727,65.2351417 L205.21605,63.0166563 C205.431069,61.6569395 205.789433,59.5815823 206.147798,57.506225 L217.902147,59.080634 L217.902147,59.080634 Z M203.782593,62.8019642 L195.038504,61.1559912 L198.908839,48.9901038 L205.717761,50.3498207 L203.782593,62.8019642 L203.782593,62.8019642 Z M191.16817,56.9337127 L178.91211,44.5531332 L188.516274,36.3232682 L196.471961,40.4024186 L191.16817,56.9337127 L191.16817,56.9337127 Z M175.543486,43.4081085 L170.311367,38.8995737 L173.249954,28.6659155 L191.16817,26.4474302 C191.383188,27.3777628 191.813225,28.2365313 192.243262,29.0952998 L175.543486,43.4081085 L175.543486,43.4081085 Z M168.662891,24.2289448 L166.297686,8.98580362 L176.475233,7.41139466 L178.91211,22.9407921 L168.662891,24.2289448 L168.662891,24.2289448 Z M160.348839,56.2896363 L153.898281,60.9412991 L146.372631,41.4758793 L151.533077,34.462603 C153.253226,40.5455467 156.406831,50.3498207 160.348839,56.2896363 L160.348839,56.2896363 Z M140.065419,47.4872589 L135.765047,33.2460143 L150.673003,31.4569132 C150.744675,31.8147334 150.888021,32.2441177 150.959694,32.673502 L140.065419,47.4872589 L140.065419,47.4872589 Z M137.700214,27.9502751 L132.898133,28.5227874 L124.655754,15.3550035 L137.700214,13.3512103 L137.700214,27.9502751 L137.700214,27.9502751 Z M131.249657,28.7374796 L118.706906,30.2403245 L123.652334,16.6431563 L131.249657,28.7374796 L131.249657,28.7374796 Z M116.270029,28.0934032 L109.53278,2.25878354 L123.867352,7.26826658 L116.270029,28.0934032 L116.270029,28.0934032 Z M112.758059,26.3758661 L101.147055,25.8033538 L98.0651218,8.34172723 L107.884304,7.41139466 L112.758059,26.3758661 L112.758059,26.3758661 Z M99.5702519,25.7317898 L91.6145642,25.3739695 L87.8875754,9.27205979 L96.5599917,8.41329127 L99.5702519,25.7317898 L99.5702519,25.7317898 Z M88.5326312,25.5886617 L77.8533747,27.2346347 L76.8499547,20.7938708 L87.1708468,19.4341539 L88.5326312,25.5886617 L88.5326312,25.5886617 Z M77.6383561,35.3213716 L72.4062372,35.965448 L71.6895086,29.6678121 C72.8362744,29.45312 74.6280959,29.2384279 76.5632632,28.8806077 L77.6383561,35.3213716 L77.6383561,35.3213716 Z M71.8328543,72.5346741 L87.2425196,71.1033932 L79.4301777,95.0773478 L71.4028171,91.7854018 L71.8328543,72.5346741 L71.8328543,72.5346741 Z M78.9284677,96.5086286 L74.5564231,109.891105 L70.9011071,109.318592 L71.3311443,93.4313748 L78.9284677,96.5086286 L78.9284677,96.5086286 Z M74.054713,111.322386 L70.5427428,122.128556 L70.8294343,110.749873 C71.9045272,110.964565 73.2663116,111.179258 74.054713,111.322386 L74.054713,111.322386 Z M75.4881703,111.823334 L81.5803635,115.258408 L75.0581331,138.087338 L70.1127056,135.725724 L70.3277242,127.424295 L75.4881703,111.823334 L75.4881703,111.823334 Z M81.867055,125.420502 L96.8466832,132.29065 L92.1879471,146.317203 L77.8533747,139.447055 L81.867055,125.420502 L81.867055,125.420502 Z M99.498579,133.793495 L116.413374,145.38687 L101.863783,150.968866 L94.9115159,147.605356 L99.498579,133.793495 L99.498579,133.793495 Z M101.433746,156.264605 L114.764899,162.705369 L111.252928,169.146133 L99.4269062,166.569827 L101.433746,156.264605 L101.433746,156.264605 Z M105.590772,152.757967 L118.850252,147.67692 L123.795679,156.264605 L117.990177,158.697782 L105.590772,152.757967 L105.590772,152.757967 Z M136.195084,152.686403 L138.130252,159.628115 L127.80936,163.421009 L119.710326,159.556551 L136.195084,152.686403 L136.195084,152.686403 Z M134.689954,141.593976 L140.35211,139.447055 L144.867501,157.194937 L139.563709,159.127167 L134.689954,141.593976 L134.689954,141.593976 Z M141.140512,122.20012 L149.956274,119.695379 L158.413672,140.592079 L146.659322,144.241846 L141.140512,122.20012 L141.140512,122.20012 Z M154.686683,127.209603 L171.38646,118.765046 L162.499025,146.460331 L154.686683,127.209603 L154.686683,127.209603 Z M171.243114,135.367904 L185.506013,138.087338 L182.782445,153.473607 L166.512705,150.181661 L171.243114,135.367904 L171.243114,135.367904 Z M185.219322,157.051809 L201.274043,160.272191 L200.055604,169.003005 L184.502593,160.987832 L185.219322,157.051809 L185.219322,157.051809 Z M185.721032,154.117684 L188.444601,138.731414 L203.925939,141.737104 L201.70408,157.40963 L185.721032,154.117684 L185.721032,154.117684 Z M204.21263,160.916268 L221.127426,164.351342 L219.47895,173.439975 L202.922519,170.148029 L204.21263,160.916268 L204.21263,160.916268 Z M223.062593,181.383584 L230.301552,182.313917 L228.079693,193.835728 L220.912407,192.976959 L223.062593,181.383584 L223.062593,181.383584 Z M223.349285,179.952303 L226.646236,161.8466 L234.028541,163.134753 L230.588244,180.882636 L223.349285,179.952303 L223.349285,179.952303 Z M227.219619,158.912474 L229.513151,146.603459 C231.878355,147.104407 235.74869,147.891612 240.26408,148.821944 L237.612184,160.630011 L227.219619,158.912474 L227.219619,158.912474 Z M230.014861,143.669333 L232.810102,128.497756 L250.728318,131.002498 L248.363113,147.533792 L230.014861,143.669333 L230.014861,143.669333 Z M232.236719,109.604849 L220.195679,107.457927 L213.386757,99.0849342 L232.953448,87.4915592 L235.892035,91.0697613 L232.236719,109.604849 L232.236719,109.604849 Z M238.687277,92.4294782 L251.158355,95.435168 C250.441626,98.9418061 248.649805,107.958876 247.789731,112.324282 L235.24698,110.105797 L238.687277,92.4294782 L238.687277,92.4294782 Z M236.608764,87.205303 L221.844154,69.2427281 L239.475679,72.5346741 L236.608764,87.205303 L236.608764,87.205303 Z M219.837314,65.807654 L222.775902,47.4156949 L243.77605,50.4213847 L240.049061,69.6005483 L219.837314,65.807654 L219.837314,65.807654 Z M231.089954,45.5550298 L232.810102,33.2460143 L246.642965,35.8223199 L244.349433,47.4872589 L231.089954,45.5550298 L231.089954,45.5550298 Z M232.165047,28.0218391 L226.502891,26.9483785 L228.294712,16.7147203 L234.028541,17.2872326 L232.165047,28.0218391 L232.165047,28.0218391 Z M231.376645,32.9597581 C230.874935,36.3948322 230.014861,42.5493399 229.656496,45.3403376 L223.277612,44.4100051 L225.284452,31.8147334 L231.376645,32.9597581 L231.376645,32.9597581 Z M223.49263,26.3758661 L212.670028,24.3720729 L212.670028,23.7279965 C212.670028,22.1535876 212.311664,20.7223067 211.738281,19.3625899 L221.915827,13.2080822 L224.711069,19.2194618 L223.49263,26.3758661 L223.49263,26.3758661 Z M222.345865,31.2422211 L219.120586,51.4948454 L199.410549,47.558823 L203.639248,34.462603 C206.864526,33.8900907 209.659768,31.8862975 211.236571,29.1668638 L222.345865,31.2422211 L222.345865,31.2422211 Z M201.70408,29.6678121 C198.407129,29.6678121 195.755233,27.0199425 195.755233,23.7279965 C195.755233,20.4360506 198.407129,17.7881809 201.70408,17.7881809 C205.001032,17.7881809 207.652928,20.4360506 207.652928,23.7279965 C207.652928,26.9483785 205.001032,29.6678121 201.70408,29.6678121 L201.70408,29.6678121 Z M198.478801,34.1047828 L196.973671,38.8995737 L189.734712,35.2498075 L194.106757,31.5284773 C195.325196,32.673502 196.830326,33.6038345 198.478801,34.1047828 L198.478801,34.1047828 Z M191.024824,21.5095112 L180.345567,22.797664 L177.90869,7.19670253 L189.304675,5.40760145 L194.321775,15.6412596 C192.6733,17.1441046 191.526534,19.2194618 191.024824,21.5095112 L191.024824,21.5095112 Z M163.789136,6.33793401 L163.000735,0.398118416 L184.789285,-3.68103205 L187.871218,2.6881678 L163.789136,6.33793401 L163.789136,6.33793401 Z M163.287426,9.41518788 L164.434192,16.8578484 L155.761776,17.931309 L154.901701,10.7033407 L163.287426,9.41518788 L163.287426,9.41518788 Z M155.188393,25.8749178 L139.205345,27.807147 L139.205345,13.2080822 L153.468244,10.9895968 L155.188393,25.8749178 L155.188393,25.8749178 Z M139.707055,10.0592643 L144.795828,-8.26113083 L151.10304,-5.8995174 L147.447724,8.84267553 L139.707055,10.0592643 L139.707055,10.0592643 Z M138.058579,10.3455204 L125.229137,12.3493137 L134.188244,-12.2687173 L143.362371,-8.76207913 L138.058579,10.3455204 L138.058579,10.3455204 Z M124.440735,5.83698571 L117.05843,3.26068015 L119.638653,-6.04264548 L127.522668,-2.75069949 L124.440735,5.83698571 L124.440735,5.83698571 Z M115.624973,2.75973185 L109.102743,0.469682459 L105.949137,-11.6962049 L118.276869,-6.61515783 L115.624973,2.75973185 L115.624973,2.75973185 Z M107.02423,4.47726889 L86.525791,6.40949806 L85.5940438,-0.245957974 L104.874044,-4.03885227 L107.02423,4.47726889 L107.02423,4.47726889 Z M86.8124825,17.931309 L76.6349361,19.2910259 L75.2014788,10.4886485 L84.8773152,9.55831596 L86.8124825,17.931309 L86.8124825,17.931309 Z M75.3448246,21.0085629 L76.3482446,27.4493268 L71.5461629,28.1649672 L70.8294343,21.5810752 L75.3448246,21.0085629 L75.3448246,21.0085629 Z M70.6144157,20.0782303 L69.6109956,10.9895968 L73.6963487,10.6317766 L75.129806,19.505718 L70.6144157,20.0782303 L70.6144157,20.0782303 Z M69.6109956,41.3327512 L69.395977,49.5626162 C67.0307726,49.7773083 62.2286908,50.2066926 60.2935235,50.3498207 L60.580215,42.4062119 L69.6109956,41.3327512 L69.6109956,41.3327512 Z M57.2115905,90.2825569 L56.924899,97.0095769 C55.2047503,96.9380129 51.1910701,96.7948848 49.4709214,96.7233208 L49.7576128,89.7100445 L57.2115905,90.2825569 L57.2115905,90.2825569 Z M50.4026686,86.7759187 L57.8566462,74.8247235 L57.3549362,87.276867 L50.4026686,86.7759187 L50.4026686,86.7759187 Z M56.924899,98.5124218 L56.6382076,106.527595 C54.2013303,106.026646 51.6211072,105.525698 49.1842299,105.096314 L49.4709214,98.2977297 L56.924899,98.5124218 L56.924899,98.5124218 Z M56.4948619,108.03044 L55.2764232,118.049406 L47.4640812,116.045612 L49.0408842,106.599159 L56.4948619,108.03044 L56.4948619,108.03044 Z M56.0648247,123.774529 L60.4368693,124.84799 L60.0068321,130.787805 L55.4914418,128.640884 L56.0648247,123.774529 L56.0648247,123.774529 Z M56.2798433,122.271684 L57.999992,108.316696 L61.6553079,109.032336 L60.580215,123.273581 L56.2798433,122.271684 L56.2798433,122.271684 Z M63.0887652,109.318592 L67.819174,110.248925 L67.1741183,134.222879 L61.3686165,131.431882 L63.0887652,109.318592 L63.0887652,109.318592 Z M58.0716648,106.813851 L58.4300291,98.5839859 C60.3651964,98.727114 65.5973153,99.0133701 68.1775384,99.1564982 L67.9625198,108.74608 C65.8840068,108.38826 62.2286908,107.672619 58.0716648,106.813851 L58.0716648,106.813851 Z M58.4300291,97.081141 L58.7167206,90.3541209 L68.3208841,91.0697613 L68.1775384,97.6536533 L58.4300291,97.081141 L58.4300291,97.081141 Z M58.8600663,87.3484311 L59.4334492,72.6778022 L68.8225941,72.0337258 L68.3925569,88.0640715 L58.8600663,87.3484311 L58.8600663,87.3484311 Z M59.5051221,71.1749573 L59.7201406,65.3067057 L69.0376127,65.5929619 L68.894267,70.5308809 L59.5051221,71.1749573 L59.5051221,71.1749573 Z M59.7918135,62.3010159 L60.2218507,51.8526656 L69.395977,51.0654611 L69.1092856,62.515708 L59.7918135,62.3010159 L59.7918135,62.3010159 Z M45.4572411,44.266877 L59.0750849,42.620904 L58.7883934,50.4929488 L44.8838582,50.3498207 L45.4572411,44.266877 L45.4572411,44.266877 Z M58.7167206,51.9242296 L58.2866834,62.2294519 L43.6654196,61.8000676 L44.6688396,51.7811015 L58.7167206,51.9242296 L58.7167206,51.9242296 Z M58.2150105,65.2351417 L57.9283191,71.7474696 L53.1262373,79.4763863 L43.1637095,66.8811147 L43.3787281,64.8057574 L58.2150105,65.2351417 L58.2150105,65.2351417 Z M52.3378359,80.8361031 L48.7541928,86.6327906 L41.3002151,86.1318423 L43.0203638,69.028036 L52.3378359,80.8361031 L52.3378359,80.8361031 Z M48.3958284,89.6384805 L47.6790998,104.810058 C44.3821482,104.165981 41.5152337,103.593469 39.5800664,103.235649 L41.0135237,89.1375322 L48.3958284,89.6384805 L48.3958284,89.6384805 Z M38.7199921,61.1559912 L32.6994717,60.2972227 L35.7097319,43.1218523 L40.4401408,43.9806208 L38.7199921,61.1559912 L38.7199921,61.1559912 Z M39.4367207,104.66693 L47.5357541,106.241339 L44.6688396,123.345145 L37.8599177,120.053199 L39.4367207,104.66693 L39.4367207,104.66693 Z M47.1773898,117.548457 L55.0614046,119.623815 L54.0579845,127.996808 L46.1022969,124.132349 L47.1773898,117.548457 L47.1773898,117.548457 Z M54.7747132,133.793495 L70.97278,141.593976 L70.2560514,144.170281 L47.7507727,149.537585 L54.7747132,133.793495 L54.7747132,133.793495 Z M72.3345644,142.309616 L80.290252,146.102511 L76.7782818,158.053706 L68.0341926,157.338065 L72.3345644,142.309616 L72.3345644,142.309616 Z M83.0138208,147.390663 L89.8227427,150.682609 L84.8056423,171.57931 L76.133226,170.648978 L83.0138208,147.390663 L83.0138208,147.390663 Z M94.9115159,174.22718 L94.1947873,178.091638 L74.2697316,177.519126 L75.8465346,172.223386 L94.9115159,174.22718 L94.9115159,174.22718 Z M86.3824453,171.794002 L91.2561999,151.39825 L98.6385047,154.976452 L95.1982073,172.724335 L86.3824453,171.794002 L86.3824453,171.794002 Z M99.1402147,168.072672 L120.427055,172.652771 L119.638653,178.735714 L97.2050475,178.091638 L99.1402147,168.072672 L99.1402147,168.072672 Z M112.829731,169.503953 L116.126683,163.349445 L123.508988,166.927647 L120.857092,171.22149 L112.829731,169.503953 L112.829731,169.503953 Z M122.003858,172.366515 L124.942445,167.571724 L134.403263,172.151822 L133.184824,179.165099 L121.215456,178.807278 L122.003858,172.366515 L122.003858,172.366515 Z M152.823188,171.650874 C156.12014,171.650874 158.772036,174.298744 158.772036,177.59069 C158.772036,180.882636 156.12014,183.530505 152.823188,183.530505 C149.526237,183.530505 146.874341,180.882636 146.874341,177.59069 C146.874341,174.298744 149.526237,171.650874 152.823188,171.650874 L152.823188,171.650874 Z M155.833449,167.070775 C154.901701,166.784519 153.898281,166.641391 152.823188,166.641391 L152.393151,166.641391 L147.089359,145.74469 L159.058727,142.02336 L161.710623,148.678816 L155.833449,167.070775 L155.833449,167.070775 Z M165.580958,153.044223 L182.280735,156.407733 L181.994043,157.910578 L161.710623,171.22149 C161.280586,170.648978 160.778876,170.076465 160.277166,169.575517 L165.580958,153.044223 L165.580958,153.044223 Z M181.635679,159.914371 L178.267054,178.950407 L163.717463,176.445665 C163.574118,175.014384 163.14408,173.654667 162.499025,172.438079 L181.635679,159.914371 L181.635679,159.914371 Z M185.649359,183.244249 L184.502593,188.182168 L171.099768,186.249939 L173.679991,181.168892 L185.649359,183.244249 L185.649359,183.244249 Z M182.567426,171.93713 L184.215902,162.633805 L199.840586,170.648978 L199.19553,175.085948 L182.567426,171.93713 L182.567426,171.93713 Z M217.257091,185.605863 L201.130697,182.886429 L202.7075,171.650874 L219.192259,174.871256 L217.257091,185.605863 L217.257091,185.605863 Z M224.854415,210.367022 L217.97382,209.007305 L220.625716,194.40824 L227.721329,195.267008 L224.854415,210.367022 L224.854415,210.367022 Z M234.74527,212.299251 L227.864675,210.939534 L232.236719,188.468424 L238.687277,189.899705 L234.74527,212.299251 L234.74527,212.299251 Z M238.902296,188.39686 L232.451738,186.965579 L237.038801,163.564137 L243.059322,164.566034 L238.902296,188.39686 L238.902296,188.39686 Z M257.680585,201.707772 L247.861403,201.994029 L247.574712,195.553265 L255.5304,186.822451 C256.03211,190.257525 257.178875,198.272698 257.680585,201.707772 L257.680585,201.707772 Z M255.243708,184.890222 L247.503039,193.406343 L246.356273,165.21011 L252.018429,166.140443 L255.243708,184.890222 L255.243708,184.890222 Z M259.974117,152.901095 L258.182296,164.208214 L239.045641,160.916268 L241.697537,149.1082 C247.359693,150.324789 253.953597,151.684506 259.974117,152.901095 L259.974117,152.901095 Z M250.943336,129.428089 L233.096794,126.923347 L235.24698,115.11528 L252.520139,118.192534 L250.943336,129.428089 L250.943336,129.428089 Z M256.820511,113.970255 L249.223188,112.610538 L250.799991,104.738494 L258.253968,106.241339 L256.820511,113.970255 L256.820511,113.970255 Z M264.346162,115.329972 L258.325641,114.256511 L259.759098,106.527595 L265.492927,107.672619 L264.346162,115.329972 L264.346162,115.329972 Z M266.711366,99.2280623 L265.707946,106.169774 L251.158355,103.235649 L252.663485,95.7929882 L266.711366,99.2280623 L266.711366,99.2280623 Z M251.660065,92.5010422 L239.26066,89.4953524 L242.485939,73.0356224 L254.957017,75.3972358 L251.660065,92.5010422 L251.660065,92.5010422 Z M259.257388,73.1787505 L242.987649,70.1014966 L245.711218,56.2180722 L261.765939,59.4384542 L259.257388,73.1787505 L259.257388,73.1787505 Z M267.57144,-21.786735 L265.851292,-9.76397574 L259.114043,-9.90710383 L258.468987,-21.2857867 L267.57144,-21.786735 L267.57144,-21.786735 Z M259.04237,-6.901414 L265.421255,-6.82984996 L261.980957,16.9294124 L256.820511,16.9294124 L259.04237,-6.901414 L259.04237,-6.901414 Z M256.677165,18.4322573 L261.765939,18.4322573 L259.687426,33.1744503 L255.458727,32.3872458 L256.677165,18.4322573 L256.677165,18.4322573 Z M253.953597,32.1009896 L251.158355,31.6000413 L249.581552,-6.97297805 L257.53724,-6.82984996 L253.953597,32.1009896 L253.953597,32.1009896 Z M256.963857,-21.1426586 L257.608913,-9.90710383 L249.438206,-10.0502319 L249.008169,-20.6417103 L256.963857,-21.1426586 L256.963857,-21.1426586 Z M249.581552,36.3948322 L265.492927,39.400522 L262.05263,58.0787373 L245.997909,54.8583554 L249.581552,36.3948322 L249.581552,36.3948322 Z M248.076422,31.027529 L233.598504,28.3080953 C234.171887,25.0877134 235.103634,19.4341539 235.461998,17.5019248 L247.574712,18.7900776 L248.076422,31.027529 L248.076422,31.027529 Z M247.503039,17.2872326 L228.509731,15.2834394 L229.943188,7.19670253 L247.144675,7.05357445 L247.503039,17.2872326 L247.503039,17.2872326 Z M234.673597,-19.7829418 L245.997909,-20.4985822 L246.427946,-9.33459148 L232.810102,-9.47771957 L234.673597,-19.7829418 L234.673597,-19.7829418 Z M232.595084,-7.90331061 L246.499619,-7.76018252 L247.073002,5.55072954 L230.229879,5.69385762 L232.595084,-7.90331061 L232.595084,-7.90331061 Z M215.035233,-24.5061687 L231.663337,-20.069198 L229.871515,-9.83553978 L213.243411,-14.7018947 L215.035233,-24.5061687 L215.035233,-24.5061687 Z M229.584824,-8.40425891 L225.642816,13.9952867 L212.95672,-13.3421779 L229.584824,-8.40425891 L229.584824,-8.40425891 Z M212.024972,-8.26113083 L221.342444,11.8483654 L211.093225,18.0028731 C210.233151,16.6431563 209.158058,15.4981316 207.796274,14.567799 L212.024972,-8.26113083 L212.024972,-8.26113083 Z M209.086385,-19.9976339 L202.994192,12.921826 C202.635827,12.850262 202.277463,12.850262 201.919099,12.850262 L198.048764,-18.1369688 L209.086385,-19.9976339 L209.086385,-19.9976339 Z M195.18185,-17.6360205 L198.980511,13.2080822 C198.908839,13.2080822 198.837166,13.2796462 198.765493,13.2796462 L184.502593,-15.7753554 L195.18185,-17.6360205 L195.18185,-17.6360205 Z M174.110028,-25.6511934 L184.215902,-5.18387696 L174.253374,-3.32321184 L167.372779,-23.7905282 L174.110028,-25.6511934 L174.110028,-25.6511934 Z M165.867649,-23.361144 C167.301106,-19.1388654 171.601478,-6.32890166 172.748244,-2.96539162 L162.857389,-1.10472649 L160.277166,-21.786735 L165.867649,-23.361144 L165.867649,-23.361144 Z M160.850549,6.76731827 L149.0962,8.55641936 L152.536497,-5.39856909 L159.63211,-2.67913545 L160.850549,6.76731827 L160.850549,6.76731827 Z M159.417092,-4.32510844 L145.297538,-9.6924117 L148.59449,-16.9919441 L158.198653,-13.485306 L159.417092,-4.32510844 L159.417092,-4.32510844 Z M150.816348,-23.7905282 L157.266906,-21.786735 L158.12698,-15.131279 L149.239545,-18.3516609 L150.816348,-23.7905282 L150.816348,-23.7905282 Z M139.707055,-27.2256023 L149.382891,-24.2199125 L147.591069,-18.2085329 L144.007426,-10.264924 L134.8333,-13.7715622 L139.707055,-27.2256023 L139.707055,-27.2256023 Z M127.164304,-29.8019079 L136.123412,-26.0805776 L134.188244,-20.7848384 L124.942445,-24.0052204 L127.164304,-29.8019079 L127.164304,-29.8019079 Z M123.939025,-21.1426586 L133.113151,-17.9938407 L128.024378,-4.18198036 L120.06869,-7.47392635 L123.939025,-21.1426586 L123.939025,-21.1426586 Z M110.5362,-25.7943214 L122.505568,-21.6436069 L118.706906,-8.0464387 L105.519099,-13.55687 L104.372334,-17.8507126 C106.594192,-20.2123261 108.601033,-22.9317597 110.5362,-25.7943214 L110.5362,-25.7943214 Z M93.6930772,-22.7170676 L100.717018,-26.9393461 L101.935456,-19.7113778 C100.573672,-18.2800969 99.2118876,-16.9919441 97.7784304,-15.9184835 L93.6930772,-22.7170676 L93.6930772,-22.7170676 Z M97.5634118,-11.9824611 C99.0685419,-12.9843577 100.501999,-14.1293824 101.935456,-15.3459711 L104.515679,-5.47013314 L85.4506981,-1.67723884 L84.7339695,-6.97297805 C89.679397,-8.18956678 94.1231144,-9.76397574 97.5634118,-11.9824611 L97.5634118,-11.9824611 Z M83.1571665,-6.68672187 L85.0206609,6.55262614 L65.0239324,8.48485531 L64.0205124,-4.46823653 C70.7577614,-4.7544927 77.3516647,-5.47013314 83.1571665,-6.68672187 L83.1571665,-6.68672187 Z M74.1263859,-20.2838901 L74.9864602,-8.40425891 C69.0376127,-7.68861848 62.5870551,-7.40236231 56.2798433,-7.33079826 L55.921479,-22.5023755 L74.1263859,-20.2838901 L74.1263859,-20.2838901 Z M62.5870551,-4.39667249 L63.5904752,8.6279834 L52.0511444,9.70144405 L52.6245273,-4.32510844 C55.921479,-4.2535444 59.2184306,-4.32510844 62.5870551,-4.39667249 L62.5870551,-4.39667249 Z M48.2524827,-23.432708 L52.9112188,-22.8601957 L53.0545645,-16.7056879 L47.607427,-17.4213284 C47.7507727,-18.7094812 48.109137,-21.6436069 48.2524827,-23.432708 L48.2524827,-23.432708 Z M53.1262373,-15.202843 L53.3412559,-7.33079826 C51.0477243,-7.33079826 48.8258656,-7.40236231 46.6756798,-7.47392635 L47.5357541,-15.9184835 L53.1262373,-15.202843 L53.1262373,-15.202843 Z M23.0953082,-26.4383978 L46.7473526,-23.5758361 L46.030624,-17.5644565 L22.163561,-20.5701463 L23.0953082,-26.4383978 L23.0953082,-26.4383978 Z M22.0202152,-19.0673014 L28.1124085,-18.2800969 L26.3922598,-8.76207913 C24.0270554,-8.97677126 22.0202152,-9.19146339 20.6584309,-9.33459148 L22.0202152,-19.0673014 L22.0202152,-19.0673014 Z M31.3376873,7.41139466 L18.5799179,5.12134528 L20.2283937,-6.4004657 C22.8086167,-6.11420953 27.1089884,-5.61326122 32.5561259,-5.18387696 L31.3376873,7.41139466 L31.3376873,7.41139466 Z M33.1295088,4.26257676 L40.7985051,1.90096333 L41.7302523,9.27205979 L32.8428174,7.62608679 L33.1295088,4.26257676 L33.1295088,4.26257676 Z M33.057836,10.7749047 L45.0272039,12.99339 L42.0169437,39.328958 L38.8633378,38.7564456 L33.057836,10.7749047 L33.057836,10.7749047 Z M24.5287654,24.5867651 L33.9895832,22.5829719 L37.2865348,38.3270614 L26.1055684,36.2517041 L24.5287654,24.5867651 L24.5287654,24.5867651 Z M23.0236353,75.7550561 L28.0407356,41.6905714 L34.2762746,42.8355961 L28.3274271,76.7569527 L23.0236353,75.7550561 L23.0236353,75.7550561 Z M29.7608843,77.0432088 L32.4127802,61.8000676 L38.5766464,62.6588361 L36.9998434,78.4029257 L29.7608843,77.0432088 L29.7608843,77.0432088 Z M37.214862,125.348938 L52.1228173,132.505342 L42.0169437,155.11958 L33.057836,154.332376 L37.214862,125.348938 L37.214862,125.348938 Z M32.5561259,157.338065 L56.0648247,159.341859 L55.6347875,166.283571 L30.9076501,168.2158 L32.5561259,157.338065 L32.5561259,157.338065 Z M55.6347875,167.786416 L55.1330775,176.946613 L48.9692113,176.803485 L48.9692113,168.358928 L55.6347875,167.786416 L55.6347875,167.786416 Z M30.8359773,169.718645 L47.4640812,168.430492 L47.4640812,176.731921 L29.9042301,176.230973 L30.8359773,169.718645 L30.8359773,169.718645 Z M39.7234121,203.425309 L26.2489141,201.636208 L28.2557542,187.466528 L41.0135237,189.255629 L39.7234121,203.425309 L39.7234121,203.425309 Z M28.4707728,186.035247 L29.1875014,181.240456 L41.7302523,181.598276 L41.1568694,187.824348 L28.4707728,186.035247 L28.4707728,186.035247 Z M45.7439326,204.212514 L41.1568694,203.568437 L42.4469809,189.398757 L47.1773898,190.042833 L45.7439326,204.212514 L45.7439326,204.212514 Z M47.3924084,188.611552 L42.6619995,187.967476 L43.2353824,181.598276 L48.109137,181.741404 L47.3924084,188.611552 L47.3924084,188.611552 Z M54.0579845,205.357539 L48.7541928,204.641898 L50.18765,190.400653 L55.0614046,190.68691 L54.0579845,205.357539 L54.0579845,205.357539 Z M50.3309957,188.897809 L51.0477243,181.812968 L70.6144157,182.385481 L71.1877986,190.114397 L50.3309957,188.897809 L50.3309957,188.897809 Z M55.5631146,205.572231 L56.5665347,190.758474 L71.3311443,191.617242 L72.5495829,207.86228 L55.5631146,205.572231 L55.5631146,205.572231 Z M71.1161257,177.375998 L58.0716648,177.018177 L58.5733748,168.072672 L72.7646015,171.650874 L71.1161257,177.375998 L71.1161257,177.375998 Z M65.740661,168.287364 L67.317464,160.272191 L75.9182075,160.987832 L73.1946387,170.219593 L65.740661,168.287364 L65.740661,168.287364 Z M73.6246759,182.457045 L94.1231144,183.029557 L94.9831887,188.253732 L74.1980588,190.042833 L73.6246759,182.457045 L73.6246759,182.457045 Z M74.3414045,191.545678 L95.2698802,189.756577 L96.5599917,197.41393 L74.9864602,199.775543 L74.3414045,191.545678 L74.3414045,191.545678 Z M75.9182075,213.301147 L75.129806,202.709669 L96.9900289,200.348056 L98.495159,209.436689 L75.9182075,213.301147 L75.9182075,213.301147 Z M98.7101776,192.118191 L97.2050475,183.101121 L123.652334,183.816761 C123.078951,186.106811 122.147203,189.613449 120.785419,193.764164 L98.7101776,192.118191 L98.7101776,192.118191 Z M128.956125,211.297354 L119.06527,207.50446 C119.710326,206.001615 120.283709,204.570334 120.785419,203.067489 L131.177984,205.500667 L128.956125,211.297354 L128.956125,211.297354 Z M121.860512,200.276491 C124.369062,193.191651 126.017538,187.108707 126.734267,183.95989 L132.969806,184.103018 L139.061999,194.479804 L132.754787,202.781233 L121.860512,200.276491 L121.860512,200.276491 Z M142.860661,205.142846 L134.259917,203.139053 L140.137092,195.410137 L145.584229,197.628622 L142.860661,205.142846 L142.860661,205.142846 Z M146.085939,196.268905 L141.068839,194.193548 L146.802668,186.679323 C147.519397,187.180272 148.307798,187.538092 149.167872,187.824348 L146.085939,196.268905 L146.085939,196.268905 Z M149.167872,196.555161 L152.10646,188.468424 L152.823188,188.468424 C154.041627,188.468424 155.188393,188.253732 156.263486,187.895912 L159.775456,195.12388 L149.167872,196.555161 L149.167872,196.555161 Z M152.966534,208.864177 L154.256646,197.41393 L160.492185,196.555161 L164.935902,205.572231 L152.966534,208.864177 L152.966534,208.864177 Z M165.150921,194.694496 L160.563857,185.319606 C162.14066,183.745197 163.215753,181.741404 163.574118,179.522919 L172.103188,180.9542 L165.150921,194.694496 L165.150921,194.694496 Z M173.89501,212.442379 L171.314787,207.14664 L180.058876,204.641898 L181.492333,210.152329 L173.89501,212.442379 L173.89501,212.442379 Z M194.751813,206.001615 L182.92579,209.651381 L181.492333,204.212514 L195.540214,200.204927 L194.751813,206.001615 L194.751813,206.001615 Z M196.041924,196.984545 L169.953002,204.427206 L166.010995,196.412033 L170.454712,187.752784 L196.830326,191.545678 L196.041924,196.984545 L196.041924,196.984545 Z M196.543634,214.517736 L198.622147,199.847107 L205.932779,200.849004 L204.21263,212.299251 L196.543634,214.517736 L196.543634,214.517736 Z M212.741701,209.794509 L205.861106,211.798302 L207.509582,200.992132 L214.246831,201.922464 L212.741701,209.794509 L212.741701,209.794509 Z" id="Map" stroke="none" fill="#E0FAE7" fill-rule="evenodd" mask="url(#mask-6)"></path></g></g></g><path d="M2.23847918,177.22045 C1.4145582,177.563981 0.468105957,177.174657 0.124519376,176.350872 C0.0423216167,176.153795 -3.19843508e-15,175.942384 0,175.728857 L0,136.119133 C1.32319002,135.953946 2.67122531,135.868852 4.03911258,135.868852 C20.9276444,135.868852 33.623131,146.374182 35.0618938,162.908241 C21.1674878,169.119214 10.2263497,173.88995 2.23847918,177.22045 Z" id="Combined-Shape" fill="#0D6574" opacity="0.125905797"></path><g id="Group-48" transform="translate(234.281020, 126.000000)"><path d="M0.926013564,15.0466152 C0.439534056,22.5502948 4.19542612,26.485576 12.1936897,26.852459 C10.6974657,19.5340418 10.6974657,10.907448 12.1936897,0.972677596 L0.926013564,15.0466152 Z" id="Path-69" fill="url(#linearGradient-7)"></path><path d="M10.9052681,2.56382017 L11.9628484,2.56382017 C11.2554112,7.70028582 10.9690887,12.4727142 11.10388,16.8811111 C8.2595134,17.4080566 5.29152119,19.0479646 2.19990336,21.800835 C1.16633423,20.0028902 0.7417043,17.6985282 0.926013564,14.8877491 L10.9052681,2.56382017 Z" id="Combined-Shape" fill="#000000" opacity="0.125905797"></path></g><path d="M260.11885,12.2129313 C260.11885,5.46791559 254.693733,0 248.001512,0 C241.309291,0 235.884175,5.46791559 235.884175,12.2129313 L235.884175,143.019774 C237.472888,137.789393 242.820282,134.158528 248.001512,135.097231 C253.766075,136.141618 258.58469,139.248471 260.11885,144.765027 L260.11885,12.2129313 Z" id="Combined-Shape" stroke="#075B6A" stroke-width="1.615" fill="#075B6A" stroke-linecap="round" stroke-linejoin="round"></path><path d="M248.001512,135.097231 C253.766075,136.141618 258.58469,139.248471 260.11885,144.765027 L260.11885,12.2129313 C260.11885,5.46791559 254.693733,0 248.001512,0 L248.001512,135.097231 Z" id="Combined-Shape" fill="#000000" opacity="0.125905797"></path></g><g id="Group-39" transform="translate(62.952965, 160.326361)"><ellipse id="Oval-18" stroke="#075B6A" stroke-width="1.615" fill="#075B6A" stroke-linecap="round" stroke-linejoin="round" cx="28.6776993" cy="28.7103825" rx="28.6776993" ry="28.7103825"></ellipse><ellipse id="Oval-18-Copy" stroke="#FFFFFF" stroke-width="0.63954" cx="28.6776993" cy="28.7103825" rx="23.0229417" ry="23.0491803"></ellipse><g id="Group-38" transform="translate(28.788169, 29.248408) rotate(-315.000000) translate(-28.788169, -29.248408) translate(25.788169, 12.248408)" stroke="#FFFFFF" stroke-linecap="round" stroke-linejoin="round" stroke-width="0.8075"><polygon id="Triangle" fill="#FFFFFF" points="2.8273788 0 5.65475761 16.9836066 0 16.9836066"></polygon><polygon id="Triangle-Copy" transform="translate(2.827379, 25.475410) scale(1, -1) translate(-2.827379, -25.475410) " points="2.8273788 16.9836066 5.65475761 33.9672131 0 33.9672131"></polygon></g></g><path d="M118.304508,42.7322813 L273.859524,43.8064324 C278.741141,43.8401413 282.680689,47.8069871 282.680689,52.6887206 L282.680689,81.8919488 C282.680689,86.7976181 278.703859,90.7744488 273.798189,90.7744488 L113.839978,90.7744488 C105.81252,90.7744488 99.3049784,84.2669077 99.3049784,76.2394488 L99.3049784,50.476805 L118.304508,42.7322813 Z" id="Rectangle-41-Copy" fill="#0D6574" opacity="0.18529212"></path><path d="M119.916939,42.3398421 L276.851595,39.1963696 C281.75628,39.0981265 285.811955,42.994518 285.910198,47.8992034 C285.911386,47.9584909 285.91198,48.0177888 285.91198,48.0770882 L285.91198,77.0394898 C285.91198,81.9451591 281.935149,85.9219898 277.02948,85.9219898 L117.071268,85.9219898 C109.04381,85.9219898 102.536268,79.4144487 102.536268,71.3869898 L102.536268,49.3440029 L119.916939,42.3398421 Z" id="Rectangle-41-Copy-2" fill="#0D6574" opacity="0.18529212"></path><g id="Group-36" transform="translate(200.282793, 100.140569)"><g id="Oval-6-Copy-5"><use fill="black" fill-opacity="1" filter="url(#filter-9)" xlink:href="#path-8"></use><use fill="#CAFFCA" fill-rule="evenodd" xlink:href="#path-8"></use></g><g id="Oval-13-Copy-5"><use fill="black" fill-opacity="1" filter="url(#filter-11)" xlink:href="#path-10"></use><use stroke="#FFFFFF" stroke-width="0.8075" xlink:href="#path-10"></use></g><g id="Oval-13-Copy-6"><use fill="black" fill-opacity="1" filter="url(#filter-13)" xlink:href="#path-12"></use><use stroke="#FFFFFF" stroke-width="0.8075" xlink:href="#path-12"></use></g></g><g id="Group-41" transform="translate(108.191026, 26.074995)"><rect id="Rectangle-41" stroke="#589F95" stroke-width="0.85" fill="#F4FFF7" x="0.425" y="0.425" width="182.525711" height="54.1445355" rx="9"></rect><g id="Group-40" transform="translate(12.117338, 11.322404)" fill="#54B454"><ellipse id="Oval-19" opacity="0.200000003" cx="15.7525391" cy="15.7704918" rx="15.7525391" ry="15.7704918"></ellipse><ellipse id="Oval-19-Copy" cx="15.7525391" cy="15.7704918" rx="9.28995893" ry="9.30054645"></ellipse></g><rect id="Rectangle-43" stroke="#075B6A" stroke-width="1.615" fill="#075B6A" stroke-linecap="round" stroke-linejoin="round" x="54.9319311" y="19.4098361" width="115.51862" height="5.66120219"></rect><rect id="Rectangle-43-Copy" fill="url(#linearGradient-14)" x="54.9319311" y="30.7322404" width="63.0101562" height="5.66120219"></rect></g></g></g></g></g></svg> 