<?xml version="1.0" encoding="UTF-8"?> <svg xmlns="http://www.w3.org/2000/svg" xmlns:xlink="http://www.w3.org/1999/xlink" width="206px" height="57px" viewBox="0 0 206 57"><!-- Generator: Sketch 52.6 (67491) - http://www.bohemiancoding.com/sketch --><title>stonebranch-logo</title><desc>Created with Sketch.</desc><g id="Pages" stroke="none" stroke-width="1" fill="none" fill-rule="evenodd"><g id="Home---Approach-v3-" transform="translate(-370.000000, -2010.000000)"><g id="Logo-horizontal-black" transform="translate(370.000000, 2010.000000)"><path d="M27.5818616,0.813788427 L48.4522453,12.7211318 C49.8439658,13.515161 50.7021595,14.9882564 50.7021595,16.5831247 L50.7021595,40.3539613 C50.7021595,41.9488296 49.8439658,43.421925 48.4522453,44.2159542 L27.5818616,56.1232976 C26.2003998,56.9114738 24.5017598,56.9114738 23.1202979,56.1232976 L2.24991419,44.2159542 C0.858193782,43.421925 1.27349041e-14,41.9488296 1.27349041e-14,40.3539613 L0,16.5831247 C-2.38779451e-15,14.9882564 0.858193782,13.515161 2.24991419,12.7211318 L23.1202979,0.813788427 C24.5017598,0.025612191 26.2003998,0.025612191 27.5818616,0.813788427 Z" id="Combined-Shape-Copy-2" fill="#4B4B4B" fill-rule="nonzero"></path><path d="M16.0184883,36.6971306 C16.0184883,38.7194502 16.5850513,39.213242 18.616555,39.6631557 C19.5610561,39.8877851 21.7343726,40.2473232 24.5685645,40.2473232 C31.8912023,40.2473232 34.7253942,38.045562 34.7253942,33.4619431 C34.7253942,29.6864663 32.7882031,28.0236847 29.2931357,26.7204412 L24.3799397,24.878218 C22.9624995,24.3385835 22.4434369,24.0687662 22.4434369,23.3496902 C22.4434369,22.5408933 23.1043124,22.1368223 25.9391927,22.1368223 C28.5372594,22.1368223 30.0015115,22.4511725 30.9935131,22.6758019 C33.0718288,23.1702486 33.6390802,22.6758019 33.6390802,20.6534823 L33.6390802,20.2042235 C33.6390802,18.1819039 33.1193292,17.6874572 31.0410136,17.2381984 C30.4744505,17.1032897 28.8670087,16.6992188 26.0328167,16.6992188 C19.0419935,16.6992188 16.3964265,18.9455129 16.3964265,23.3051572 C16.3964265,26.9902584 18.2861172,28.4735984 21.3096224,29.6864663 L25.7030674,31.4389686 C28.1118208,32.3826741 28.6790722,32.6976792 28.6790722,33.5064761 C28.6790722,34.5399024 27.781383,34.8097196 25.0415035,34.8097196 C21.6868722,34.8097196 19.7978698,34.4049937 18.616555,34.0906435 C16.5382393,33.551009 16.0184883,34.1803643 16.0184883,36.2026839 L16.0184883,36.6971306 Z" id="Path" fill="#FFFFFF" fill-rule="nonzero"></path><path d="M63.0641247,34.36606 C63.0641247,35.5395 63.380599,35.82602 64.5153687,36.08708 C65.0429539,36.21742 66.2569383,36.42604 67.8400786,36.42604 C71.9304023,36.42604 73.5135426,35.14848 73.5135426,32.48886 C73.5135426,30.29816 72.4314545,29.33334 70.4791584,28.57714 L67.7347153,27.5082 C66.9429529,27.19508 66.6530118,27.03852 66.6530118,26.62128 C66.6530118,26.15198 67.0221676,25.91752 68.6056924,25.91752 C70.0569364,25.91752 70.8748473,26.09992 71.4289656,26.23026 C72.5898839,26.51716 72.9067426,26.23026 72.9067426,25.05682 L72.9067426,24.79614 C72.9067426,23.6227 72.6164169,23.3358 71.4554987,23.07512 C71.1390245,22.99684 70.2411298,22.76238 68.6579895,22.76238 C64.7530128,22.76238 63.2752357,24.06578 63.2752357,26.59544 C63.2752357,28.7337 64.3307907,29.5944 66.0196788,30.29816 L68.4737961,31.31504 C69.8192923,31.86262 70.1361511,32.0454 70.1361511,32.5147 C70.1361511,33.11434 69.6347144,33.2709 68.1042557,33.2709 C66.2304052,33.2709 65.1752348,33.03606 64.5153687,32.85366 C63.3544504,32.54054 63.0641247,32.90572 63.0641247,34.07916 L63.0641247,34.36606 Z M74.7536755,24.97854 C74.7536755,26.02164 75.0170836,26.28232 76.0730231,26.28232 L77.1281936,26.28232 L77.1281936,31.41954 C77.1281936,35.22676 79.2919853,36.39982 82.2213908,36.39982 C83.1450495,36.39982 83.7253163,36.32154 84.0683236,36.24364 C85.2296264,36.0088 85.5195676,35.56572 85.5195676,34.39228 L85.5195676,34.10538 C85.5195676,32.93194 85.2296264,32.82782 84.0683236,33.03606 C83.804531,33.08812 83.1450495,33.19262 82.2213908,33.19262 C81.2185174,33.19262 80.5586513,32.74916 80.5586513,31.44538 L80.5586513,26.28232 L83.5668869,26.28232 C84.7543383,26.28232 85.044664,25.99542 85.044664,24.82198 L85.044664,24.53546 C85.044664,23.36202 84.7543383,23.07512 83.5668869,23.07512 L80.5586513,23.07512 L80.5586513,21.04136 C80.5586513,19.94582 80.2952432,19.68514 79.186622,19.68514 L79.0285772,19.68514 C77.919956,19.68514 77.6034818,19.94582 77.4446679,21.01514 L77.1281936,23.07512 L76.0464901,23.30958 C75.0170836,23.5182 74.7536755,23.83132 74.7536755,24.87404 L74.7536755,24.97854 Z M96.2900741,30.63712 C96.2900741,32.30608 95.8417036,33.21884 93.4664164,33.21884 C91.0918983,33.21884 90.590077,32.30608 90.590077,30.63712 L90.590077,28.55092 C90.590077,26.88196 91.0918983,25.96958 93.4664164,25.96958 C95.8417036,25.96958 96.2900741,26.88196 96.2900741,28.55092 L96.2900741,30.63712 Z M93.4664164,36.42604 C97.5832732,36.42604 99.7466803,34.36606 99.7466803,30.63712 L99.7466803,28.55092 C99.7466803,24.69202 97.7939997,22.76238 93.4664164,22.76238 C89.3499441,22.76238 87.1334708,24.82198 87.1334708,28.55092 L87.1334708,30.63712 C87.1334708,34.4964 89.1388331,36.42604 93.4664164,36.42604 Z M105.525508,28.02918 C105.525508,26.69956 105.921581,25.96958 108.085373,25.96958 C110.249164,25.96958 110.592172,26.69956 110.592172,28.02918 L110.592172,34.65296 C110.592172,35.82602 110.882497,36.1133 112.069949,36.1133 L112.571385,36.1133 C113.758837,36.1133 114.049162,35.82602 114.049162,34.65296 L114.049162,28.02918 C114.049162,24.53546 112.254527,22.76238 108.085373,22.76238 C104.100797,22.76238 102.068901,24.61374 102.068901,28.02918 L102.068901,34.65296 C102.068901,35.82602 102.359227,36.1133 103.546678,36.1133 L104.048115,36.1133 C105.235566,36.1133 105.525508,35.82602 105.525508,34.65296 L105.525508,28.02918 Z M128.561602,28.39474 C128.561602,24.69202 126.635454,22.76238 122.782775,22.76238 C118.191399,22.76238 116.634791,25.26544 116.634791,28.6292 L116.634791,30.7154 C116.634791,34.75708 118.851265,36.42604 123.521471,36.42604 C124.999248,36.42604 126.239765,36.21742 126.740817,36.08708 C127.90212,35.80056 128.13938,35.56572 128.13938,34.39228 L128.13938,34.10538 C128.13938,32.93194 127.90212,32.6192 126.740817,32.85366 C126.239765,32.95816 124.920418,33.21884 123.548004,33.21884 C121.093887,33.21884 120.091398,32.5926 120.091398,31.23714 L120.091398,30.84574 L126.793884,30.84574 C128.007483,30.84574 128.350491,30.6109 128.50892,29.41162 C128.561602,28.94194 128.561602,28.60298 128.561602,28.39474 Z M120.091398,27.6906 C120.091398,26.38682 120.935842,25.70852 122.677411,25.70852 C124.418981,25.70852 125.289574,26.38682 125.289574,27.6906 L125.289574,28.082 L120.091398,28.082 L120.091398,27.6906 Z M130.936504,30.7154 C130.936504,34.80952 133.734014,36.42604 137.216768,36.42604 C141.174811,36.42604 143.523565,34.80952 143.523565,30.7154 L143.523565,28.6292 C143.523565,24.90026 141.650099,22.76238 137.982382,22.76238 C136.161213,22.76238 135.052977,23.3358 134.366962,24.24856 L134.366962,19.31996 C134.366962,18.1469 134.076636,17.86 132.88957,17.86 L132.414281,17.86 C131.22683,17.86 130.936504,18.1469 130.936504,19.31996 L130.936504,30.7154 Z M140.066959,30.63712 C140.066959,32.30608 139.670886,33.21884 137.243301,33.21884 C134.868399,33.21884 134.366962,32.30608 134.366962,30.63712 L134.366962,28.55092 C134.366962,26.88196 134.868399,25.96958 137.243301,25.96958 C139.618589,25.96958 140.066959,26.88196 140.066959,28.55092 L140.066959,30.63712 Z M149.302008,27.76888 C149.302008,26.59544 149.618482,25.96958 151.333903,25.96958 L151.623845,25.96958 C152.705933,26.04786 152.969725,25.8913 152.969725,24.71786 L152.969725,24.43096 C152.969725,23.25752 152.6794,22.76238 151.623845,22.76238 L151.333903,22.76238 C147.718868,22.76238 145.845402,24.43096 145.845402,27.5082 L145.845402,34.65296 C145.845402,35.82602 146.135728,36.1133 147.323179,36.1133 L147.824231,36.1133 C149.011682,36.1133 149.302008,35.82602 149.302008,34.65296 L149.302008,27.76888 Z M165.192245,27.24714 C165.192245,23.83132 162.685446,22.76238 158.806618,22.76238 C157.697996,22.76238 157.065048,22.84028 156.668975,22.89234 C155.534205,23.0489 155.243879,23.36202 155.243879,24.48302 L155.243879,24.58752 C155.243879,25.76096 155.587271,25.96958 156.722041,25.81302 C157.117345,25.76096 157.962174,25.65646 159.017344,25.65646 C160.653935,25.65646 161.762172,25.8913 161.762172,27.24714 L161.762172,28.23818 L159.096559,28.23818 C155.956811,28.23818 153.524613,29.25506 153.524613,32.30608 C153.524613,34.99192 155.428842,36.42604 159.466099,36.42604 C163.52989,36.42604 165.192245,34.99192 165.192245,32.2278 L165.192245,27.24714 Z M161.762172,32.0454 C161.762172,33.47952 160.600484,33.58364 159.413418,33.58364 C158.225966,33.58364 157.170411,33.47952 157.170411,32.2278 C157.170411,31.26298 157.777211,30.79368 159.043877,30.79368 L161.762172,30.79368 L161.762172,32.0454 Z M171.186413,28.02918 C171.186413,26.69956 171.582486,25.96958 173.746278,25.96958 C175.91007,25.96958 176.253077,26.69956 176.253077,28.02918 L176.253077,34.65296 C176.253077,35.82602 176.543403,36.1133 177.730854,36.1133 L178.232291,36.1133 C179.419358,36.1133 179.709683,35.82602 179.709683,34.65296 L179.709683,28.02918 C179.709683,24.53546 177.915432,22.76238 173.746278,22.76238 C169.761702,22.76238 167.729807,24.61374 167.729807,28.02918 L167.729807,34.65296 C167.729807,35.82602 168.020132,36.1133 169.207968,36.1133 L169.70902,36.1133 C170.896087,36.1133 171.186413,35.82602 171.186413,34.65296 L171.186413,28.02918 Z M182.163416,30.84574 C182.163416,34.41812 184.116097,36.42604 188.601725,36.42604 C189.340806,36.42604 190.02682,36.32154 190.370212,36.24364 C191.53113,36.0088 191.821456,35.69606 191.821456,34.52262 L191.821456,34.26156 C191.821456,33.08812 191.53113,32.85366 190.370212,33.06228 C189.947606,33.14056 189.367339,33.21884 188.760154,33.21884 C186.570214,33.21884 185.620407,32.6192 185.620407,30.74162 L185.620407,28.39474 C185.620407,26.46472 186.464851,25.96958 188.522895,25.96958 C189.288509,25.96958 189.763028,26.04786 190.18525,26.15198 C191.293486,26.41304 191.583812,26.15198 191.583812,24.97854 L191.583812,24.69202 C191.583812,23.5182 191.293486,23.17924 190.18525,22.94478 C189.842627,22.8665 189.288509,22.76238 188.470598,22.76238 C184.274526,22.76238 182.163416,25.00476 182.163416,28.34268 L182.163416,30.84574 Z M193.963329,34.65296 C193.963329,35.82602 194.253655,36.1133 195.441106,36.1133 L195.942158,36.1133 C197.12961,36.1133 197.419935,35.82602 197.419935,34.65296 L197.419935,29.12472 C197.419935,26.56922 198.739667,25.96958 200.269742,25.96958 C201.641771,25.96958 202.486215,26.38682 202.486215,27.84716 L202.486215,34.65296 C202.486215,35.82602 202.776925,36.1133 203.964376,36.1133 L204.465428,36.1133 C205.65288,36.1133 205.943206,35.82602 205.943206,34.65296 L205.943206,27.24714 C205.943206,23.72682 203.567918,22.76238 201.457577,22.76238 C199.715623,22.76238 198.264379,23.3358 197.419935,24.24856 L197.419935,19.31996 C197.419935,18.1469 197.12961,17.86 195.942158,17.86 L195.441106,17.86 C194.253655,17.86 193.963329,18.1469 193.963329,19.31996 L193.963329,34.65296 Z" id="Fill-1" fill="#4B4B4B" fill-rule="evenodd"></path></g></g></g></svg> 