<?xml version="1.0" encoding="UTF-8"?> <svg xmlns="http://www.w3.org/2000/svg" xmlns:xlink="http://www.w3.org/1999/xlink" width="51px" height="51px" viewBox="0 0 51 51"><!-- Generator: Sketch 52.6 (67491) - http://www.bohemiancoding.com/sketch --><title>Systems Integration</title><desc>Created with Sketch.</desc><defs><radialGradient cx="10.1475267%" cy="12.3100204%" fx="10.1475267%" fy="12.3100204%" r="99.9669394%" id="radialGradient-1"><stop stop-color="#7ECC79" offset="0%"></stop><stop stop-color="#28AD9D" offset="100%"></stop></radialGradient><circle id="path-2" cx="25.5" cy="25.5" r="25.5"></circle></defs><g id="Illustrations" stroke="none" stroke-width="1" fill="none" fill-rule="evenodd"><g id="All-Icons" transform="translate(-1310.000000, -3593.000000)"><g id="Group-34-Copy-7" transform="translate(1310.000000, 3593.000000)"><g id="Systems-Integration"><mask id="mask-3" fill="white"><use xlink:href="#path-2"></use></mask><use id="Oval-Copy-18" fill="url(#radialGradient-1)" xlink:href="#path-2"></use><circle id="Oval" fill="#0D6574" mask="url(#mask-3)" cx="-27.5" cy="-3.5" r="48.5"></circle><circle id="Oval-Copy-2" fill="#0B4651" opacity="0.200000003" mask="url(#mask-3)" cx="43.5" cy="-7.5" r="34.5"></circle><g id="stacks" mask="url(#mask-3)" stroke="#FFFFFF" stroke-width="2"><g transform="translate(13.000000, 15.000000)" id="Path"><path d="M2.48695652,6.7826087 L19.2173913,6.7826087 L19.2173913,17.8608696 C19.2173913,19.2173913 18.0869565,20.3478261 16.7304348,20.3478261 L0,20.3478261 L0,9.26956522 C0,7.91304348 1.13043478,6.7826087 2.48695652,6.7826087 Z"></path><path d="M3.39130435,6.7826087 L3.39130435,5.65217391 C3.39130435,4.40869565 4.40869565,3.39130435 5.65217391,3.39130435 L22.6086957,3.39130435 L22.6086957,14.6956522 C22.6086957,15.9391304 21.5913043,16.9565217 20.3478261,16.9565217 L19.2173913,16.9565217"></path><path d="M6.7826087,3.39130435 L6.7826087,2.26086957 C6.7826087,1.0173913 7.8,0 9.04347826,0 L26,0 L26,11.3043478 C26,12.5478261 24.9826087,13.5652174 23.7391304,13.5652174 L22.6086957,13.5652174"></path></g></g></g></g></g></g></svg> 