<?xml version="1.0" encoding="UTF-8"?> <svg xmlns="http://www.w3.org/2000/svg" xmlns:xlink="http://www.w3.org/1999/xlink" width="89px" height="87px" viewBox="0 0 89 87"><!-- Generator: Sketch 52.6 (67491) - http://www.bohemiancoding.com/sketch --><title>Talented Team</title><desc>Created with Sketch.</desc><defs><radialGradient cx="10.1475267%" cy="12.3100204%" fx="10.1475267%" fy="12.3100204%" r="100.301802%" gradientTransform="translate(0.101475,0.123100),scale(1.000000,0.993464),rotate(45.665710),translate(-0.101475,-0.123100)" id="radialGradient-1"><stop stop-color="#7ECC79" offset="0%"></stop><stop stop-color="#28AD9D" offset="100%"></stop></radialGradient><radialGradient cx="10.1475267%" cy="12.3100204%" fx="10.1475267%" fy="12.3100204%" r="160.339119%" gradientTransform="translate(0.101475,0.123100),scale(0.488038,1.000000),rotate(26.392823),translate(-0.101475,-0.123100)" id="radialGradient-2"><stop stop-color="#7ECC79" offset="0%"></stop><stop stop-color="#28AD9D" offset="100%"></stop></radialGradient><path d="M0,0 L7.80901383,0 L7.80901383,3.87535748 C7.80901383,6.03175711 6.06090654,7.7798644 3.90450692,7.7798644 L3.90450692,7.7798644 C1.74810729,7.7798644 2.6408279e-16,6.03175711 0,3.87535748 L0,0 Z" id="path-3"></path><radialGradient cx="10.1475267%" cy="12.3100204%" fx="10.1475267%" fy="12.3100204%" r="100.301802%" gradientTransform="translate(0.101475,0.123100),scale(1.000000,0.993464),rotate(45.665710),translate(-0.101475,-0.123100)" id="radialGradient-5"><stop stop-color="#7ECC79" offset="0%"></stop><stop stop-color="#28AD9D" offset="100%"></stop></radialGradient></defs><g id="Home" stroke="none" stroke-width="1" fill="none" fill-rule="evenodd"><g id="Careers" transform="translate(-1280.000000, -2764.000000)"><g id="Group-2" transform="translate(126.000000, 2717.000000)"><g id="Talented-Team" transform="translate(1127.000000, 18.000000)"><rect id="Rectangle" fill-rule="nonzero" x="0" y="0" width="144" height="144"></rect><g id="Group-20" transform="translate(25.000000, 28.000000)"><g id="Group-19" transform="translate(0.554217, 0.987952)"><ellipse id="Oval-26" fill="url(#radialGradient-1)" cx="45.7269076" cy="53.1991122" rx="11.2449799" ry="11.3189601"></ellipse><path d="M45.7269076,41.8801522 C51.9373386,41.8801522 56.9718876,46.9478232 56.9718876,53.1991122 C56.9718876,59.4504013 51.9373386,64.5180723 45.7269076,64.5180723 L45.7269076,41.8801522 Z" id="Path" fill="#000000" fill-rule="nonzero" opacity="0.100000001"></path><ellipse id="Oval-26" fill="#0D505D" cx="70.7243095" cy="43.0120482" rx="11.2449799" ry="11.3189601"></ellipse><path d="M71.5903614,31.726159 C77.3961181,32.1712645 81.9692894,37.0540821 81.9692894,43.0120482 C81.9692894,48.9700143 77.2972711,54.3634784 70.4843946,54.3634784 L70.4843946,31.726159 L71.5903614,31.726159 Z" id="Path" fill="#000000" fill-rule="nonzero" opacity="0.100000001"></path><path d="M57.2303336,65.3613689 C60.6457896,61.374548 65.6517338,58.8585923 71.2301101,58.8585923 C81.1891543,58.8585923 89.3236993,66.8776382 89.8407753,76.9689283 L67.7135606,76.9689283 C66.0137793,71.7222759 62.1607892,67.4849862 57.2303336,65.3613689 Z" id="Combined-Shape" fill="#0D505D"></path><path d="M70.4839828,58.8625992 C81.3292388,58.5199354 89.3299481,66.99959 89.8407753,76.9689283 L70.4839828,76.9689283 L70.4839828,58.8625992 Z" id="Path" fill="#000000" fill-rule="nonzero" opacity="0.100000001"></path><g id="Group-18" transform="translate(0.746988, 31.693088)"><ellipse id="Oval-26" fill="#73C87E" transform="translate(19.982518, 11.318960) scale(-1, 1) translate(-19.982518, -11.318960) " cx="19.9825178" cy="11.3189601" rx="11.2449799" ry="11.3189601"></ellipse><path d="M9.84350474,0.0330708146 C15.6492614,0.478176347 20.2224327,5.36099394 20.2224327,11.3189601 C20.2224327,17.2769262 15.5504144,22.6703903 8.7375379,22.6703903 L8.7375379,0.0330708146 L9.84350474,0.0330708146 Z" id="Path" fill="#000000" fill-rule="nonzero" opacity="0.100000001" transform="translate(14.479985, 11.351731) scale(-1, 1) translate(-14.479985, -11.351731) "></path><path d="M0.866051961,33.6682807 C4.28150801,29.6814598 9.2874522,27.1655041 14.8658285,27.1655041 C24.8248726,27.1655041 32.9594177,35.1845501 33.4764937,45.2758402 L11.349279,45.2758402 C9.6494977,40.0291878 5.79650758,35.7918981 0.866051961,33.6682807 Z" id="Combined-Shape" fill="#73C87E" transform="translate(17.171273, 36.220672) scale(-1, 1) translate(-17.171273, -36.220672) "></path><path d="M0.866051961,27.1695111 C11.711308,26.8268472 19.7120173,35.3065019 20.2228445,45.2758402 L0.866051961,45.2758402 L0.866051961,27.1695111 Z" id="Path" fill="#000000" fill-rule="nonzero" opacity="0.100000001" transform="translate(10.544448, 36.217657) scale(-1, 1) translate(-10.544448, -36.217657) "></path></g><path d="M26.8688878,86.0240964 C27.3843954,75.9328062 35.4942675,67.9137603 45.4231047,67.9137603 C55.3519419,67.9137603 63.4618139,75.9328062 63.9773215,86.0240964 L26.8688878,86.0240964 Z" id="Path" fill="url(#radialGradient-2)"></path><path d="M45.7269076,67.916266 C55.5168933,68.0778649 63.4670817,76.0359259 63.9773215,86.0240964 L45.7269076,86.0240964 L45.7269076,67.916266 Z" id="Path" fill="#000000" fill-rule="nonzero" opacity="0.100000001"></path><g id="Group-24" transform="translate(42.353414, 20.374128)"><mask id="mask-4" fill="white"><use xlink:href="#path-3"></use></mask><use id="Rectangle-27" fill="#177383" xlink:href="#path-3"></use><ellipse id="Oval-17-Copy" stroke="#33BAAA" stroke-width="0.92950002" opacity="0.601732337" mask="url(#mask-4)" cx="3.64420646" cy="-5.557046" rx="10.9326194" ry="11.6697966"></ellipse><ellipse id="Oval-17-Copy-2" stroke="#33BAAA" stroke-width="0.92950002" opacity="0.601732337" mask="url(#mask-4)" cx="3.64420646" cy="-7.7798644" rx="10.9326194" ry="11.6697966"></ellipse><ellipse id="Oval-17-Copy-6" fill-opacity="0.210000008" fill="#000000" mask="url(#mask-4)" cx="3.4984382" cy="-7.90534608" rx="10.9326194" ry="11.6697966"></ellipse></g><ellipse id="Oval" fill="url(#radialGradient-5)" cx="46.2891566" cy="10.753012" rx="10.6827309" ry="10.753012"></ellipse></g></g></g></g></g></g></svg> 