<?xml version="1.0" encoding="UTF-8"?> <svg xmlns="http://www.w3.org/2000/svg" xmlns:xlink="http://www.w3.org/1999/xlink" width="178px" height="160px" viewBox="0 0 178 160"><!-- Generator: Sketch 52.5 (67469) - http://www.bohemiancoding.com/sketch --><title>Task Automation</title><desc>Created with Sketch.</desc><defs><linearGradient x1="23.2916903%" y1="14.537225%" x2="78.8050321%" y2="119.862794%" id="linearGradient-1"><stop stop-color="#AFF7E7" offset="0%"></stop><stop stop-color="#5DD1E4" offset="100%"></stop></linearGradient><path d="M22.6587239,8.36668609 L144.972852,0.0350458515 C153.788979,-0.565480001 161.422684,6.09458042 162.02321,14.9107072 C162.1487,16.7529824 161.954338,18.6030769 161.448731,20.379052 L140.736301,93.1327839 C138.993517,99.2544236 133.788049,103.7609 127.479932,104.609085 L18.1317891,119.311956 C9.3740454,120.489515 1.31989058,114.344562 0.142330815,105.586818 C-0.0222051683,104.363132 -0.0445443796,103.124513 0.0757591698,101.895689 L7.8222028,22.7707267 C8.58402057,14.9892459 14.8581166,8.89803807 22.6587239,8.36668609 Z" id="path-2"></path><linearGradient x1="11.5884416%" y1="20.3503406%" x2="79.3937209%" y2="90.8531466%" id="linearGradient-4"><stop stop-color="#8BDFC6" offset="0%"></stop><stop stop-color="#7DEAC5" offset="100%"></stop></linearGradient><linearGradient x1="35.3833382%" y1="3.37710113%" x2="22.3074002%" y2="94.5399843%" id="linearGradient-5"><stop stop-color="#C9F1E5" offset="0%"></stop><stop stop-color="#72E5BE" offset="100%"></stop></linearGradient><ellipse id="path-6" cx="55.4806992" cy="55.505718" rx="55.4806992" ry="55.505718"></ellipse><ellipse id="path-8" cx="7.45590424" cy="17.6930446" rx="7.45590424" ry="1.53573133"></ellipse><filter x="-109.7%" y="-537.2%" width="319.4%" height="1174.4%" id="filter-9"><feOffset dx="0" dy="0" in="SourceAlpha" result="shadowOffsetOuter1"></feOffset><feGaussianBlur stdDeviation="5.5" in="shadowOffsetOuter1" result="shadowBlurOuter1"></feGaussianBlur><feColorMatrix values="0 0 0 0 0.414386489 0 0 0 0 0.762223639 0 0 0 0 0.392089236 0 0 0 0.759992074 0" type="matrix" in="shadowBlurOuter1"></feColorMatrix></filter><path d="M1.92036481,10.4078145 L1.92036481,5.05224265 C1.92036481,2.26196608 4.47304636,8.52651283e-14 7.62193864,8.52651283e-14 C10.7708309,8.52651283e-14 13.3235125,2.26196608 13.3235125,5.05224265 L13.3235125,10.4078145" id="path-10"></path><filter x="-115.8%" y="-126.8%" width="331.5%" height="353.7%" id="filter-11"><feMorphology radius="1.2" operator="dilate" in="SourceAlpha" result="shadowSpreadOuter1"></feMorphology><feOffset dx="0" dy="0" in="shadowSpreadOuter1" result="shadowOffsetOuter1"></feOffset><feMorphology radius="1.2" operator="erode" in="SourceAlpha" result="shadowInner"></feMorphology><feOffset dx="0" dy="0" in="shadowInner" result="shadowInner"></feOffset><feComposite in="shadowOffsetOuter1" in2="shadowInner" operator="out" result="shadowOffsetOuter1"></feComposite><feGaussianBlur stdDeviation="4" in="shadowOffsetOuter1" result="shadowBlurOuter1"></feGaussianBlur><feColorMatrix values="0 0 0 0 0.414386489 0 0 0 0 0.762223639 0 0 0 0 0.392089236 0 0 0 1 0" type="matrix" in="shadowBlurOuter1"></feColorMatrix></filter><path d="M21.5744688,31.520986 C21.5744688,28.7307095 24.1271504,26.4687434 27.2760427,26.4687434 C30.424935,26.4687434 32.9776165,28.7307095 32.9776165,31.520986" id="path-12"></path><filter x="-111.0%" y="-250.5%" width="322.0%" height="601.0%" id="filter-13"><feMorphology radius="0.65691648" operator="dilate" in="SourceAlpha" result="shadowSpreadOuter1"></feMorphology><feOffset dx="0" dy="0" in="shadowSpreadOuter1" result="shadowOffsetOuter1"></feOffset><feMorphology radius="1" operator="erode" in="SourceAlpha" result="shadowInner"></feMorphology><feOffset dx="0" dy="0" in="shadowInner" result="shadowInner"></feOffset><feComposite in="shadowOffsetOuter1" in2="shadowInner" operator="out" result="shadowOffsetOuter1"></feComposite><feGaussianBlur stdDeviation="4" in="shadowOffsetOuter1" result="shadowBlurOuter1"></feGaussianBlur><feColorMatrix values="0 0 0 0 0.414386489 0 0 0 0 0.762223639 0 0 0 0 0.392089236 0 0 0 1 0" type="matrix" in="shadowBlurOuter1"></feColorMatrix></filter><ellipse id="path-14" cx="7.45590424" cy="16.8930446" rx="7.45590424" ry="1.53573133"></ellipse><filter x="-109.7%" y="-537.2%" width="319.4%" height="1174.4%" id="filter-15"><feOffset dx="0" dy="0" in="SourceAlpha" result="shadowOffsetOuter1"></feOffset><feGaussianBlur stdDeviation="5.5" in="shadowOffsetOuter1" result="shadowBlurOuter1"></feGaussianBlur><feColorMatrix values="0 0 0 0 0.414386489 0 0 0 0 0.762223639 0 0 0 0 0.392089236 0 0 0 0.759992074 0" type="matrix" in="shadowBlurOuter1"></feColorMatrix></filter><path d="M1.75433041,10.4078145 L1.75433041,5.05224265 C1.75433041,2.26196608 4.30701196,0 7.45590424,0 C10.6047965,0 13.1574781,2.26196608 13.1574781,5.05224265 L13.1574781,10.4078145" id="path-16"></path><filter x="-115.8%" y="-126.8%" width="331.5%" height="353.7%" id="filter-17"><feMorphology radius="1.2" operator="dilate" in="SourceAlpha" result="shadowSpreadOuter1"></feMorphology><feOffset dx="0" dy="0" in="shadowSpreadOuter1" result="shadowOffsetOuter1"></feOffset><feMorphology radius="1.2" operator="erode" in="SourceAlpha" result="shadowInner"></feMorphology><feOffset dx="0" dy="0" in="shadowInner" result="shadowInner"></feOffset><feComposite in="shadowOffsetOuter1" in2="shadowInner" operator="out" result="shadowOffsetOuter1"></feComposite><feGaussianBlur stdDeviation="4" in="shadowOffsetOuter1" result="shadowBlurOuter1"></feGaussianBlur><feColorMatrix values="0 0 0 0 0.414386489 0 0 0 0 0.762223639 0 0 0 0 0.392089236 0 0 0 1 0" type="matrix" in="shadowBlurOuter1"></feColorMatrix></filter><linearGradient x1="0%" y1="22.6288417%" x2="157.910643%" y2="109.975606%" id="linearGradient-18"><stop stop-color="#90E28A" offset="0%"></stop><stop stop-color="#28AD9D" offset="100%"></stop></linearGradient><linearGradient x1="23.2916903%" y1="14.537225%" x2="23.2916906%" y2="114.340458%" id="linearGradient-19"><stop stop-color="#AFF7E7" offset="0%"></stop><stop stop-color="#41BED4" offset="100%"></stop></linearGradient></defs><g id="Pages" stroke="none" stroke-width="1" fill="none" fill-rule="evenodd"><g id="Bots/AI" transform="translate(-301.000000, -1921.000000)"><g id="Group-4" transform="translate(231.000000, 1213.000000)"><g id="Group-2-Copy" transform="translate(0.000000, 708.000000)"><g id="Task-Automation" transform="translate(70.000000, 0.000000)"><g id="Group-145" transform="translate(0.000000, 40.000000)"><mask id="mask-3" fill="white"><use xlink:href="#path-2"></use></mask><use id="Rectangle-82" fill="url(#linearGradient-1)" opacity="0.400000006" xlink:href="#path-2"></use><path d="M60.9354101,73.872118 C60.9699338,74.4355859 60.9875078,75.004861 60.9875078,75.5791766 C60.9875078,87.96913 52.8083437,98.0131718 42.7188334,98.0131718 C38.8918359,98.0131718 35.3396836,96.5681157 32.4044741,94.0981004 C25.6719653,92.7120974 20.5181809,84.968692 20.5181809,75.6239188 C20.5181809,66.3442296 25.6004257,58.6436796 32.2640344,57.1796202 C32.6081581,56.8842065 32.9609513,56.6029815 33.3218538,56.3366342 C25.0434917,46.6405091 20.045045,34.0571017 20.045045,20.305718 C20.045045,-10.3492436 44.8846002,-35.2 75.5257443,-35.2 C106.166888,-35.2 131.006443,-10.3492436 131.006443,20.305718 C131.006443,50.9606796 106.166888,75.811436 75.5257443,75.811436 C70.4763518,75.811436 65.5845081,75.1365849 60.9354101,73.872118 Z" id="Combined-Shape" fill="#000000" opacity="0.100000001" mask="url(#mask-3)"></path><path d="M114.019054,84.4815997 C134.7417,85.8023269 151.13964,102.990495 151.13964,124 L135.905405,124 C135.905405,111.395659 126.326778,101.023499 114.036211,99.7347767 L114.045914,108.360236 L113.793367,108.10769 L113.225638,107.541048 L113.225637,107.53996 L97.037129,91.3514518 L114.007692,74.380889 L114.019054,84.4815997 Z" id="Combined-Shape-Copy-25" fill="#000000" fill-rule="nonzero" opacity="0.100000001" mask="url(#mask-3)" transform="translate(124.078829, 99.200000) scale(-1, -1) translate(-124.078829, -99.200000) "></path><path d="M141.280315,45.2815997 C162.002961,46.6023269 178.400901,63.7904947 178.400901,84.8 L163.166667,84.8 C163.166667,72.1956593 153.58804,61.8234995 141.297473,60.5347767 L141.307175,69.1602365 L141.054628,68.9076897 L140.486899,68.3410482 L140.486898,68.3399595 L124.29839,52.1514518 L141.268953,35.180889 L141.280315,45.2815997 Z" id="Combined-Shape" fill="#000000" fill-rule="nonzero" opacity="0.100000001" mask="url(#mask-3)"></path></g><g id="Group-56" transform="translate(22.450450, 0.000000)"><path d="M8.32094208,43.2413793 L10.5259825,43.2413793 L10.5259825,67.3743002 L8.32094208,67.3743002 C3.72541266,67.3743002 2.33914688e-15,63.6488875 1.77635684e-15,59.0533581 L1.77635684e-15,51.5623214 C1.2135668e-15,46.966792 3.72541266,43.2413793 8.32094208,43.2413793 Z" id="Rectangle-18" fill="url(#linearGradient-4)"></path><rect id="Rectangle-18-Copy-2" fill="#000000" opacity="0.100000001" x="4.80091202" y="43.2413793" width="10.5259825" height="24.1329209" rx="2.88"></rect><path d="M122.352419,43.4392576 L124.557459,43.4392576 L124.557459,67.5721784 L122.352419,67.5721784 C117.756889,67.5721784 114.031477,63.8467658 114.031477,59.2512363 L114.031477,51.7601996 C114.031477,47.1646702 117.756889,43.4392576 122.352419,43.4392576 Z" id="Rectangle-18-Copy" fill="url(#linearGradient-4)" transform="translate(119.294468, 55.505718) scale(-1, 1) translate(-119.294468, -55.505718) "></path><g id="Group-53" transform="translate(7.455904, 0.000000)"><mask id="mask-7" fill="white"><use xlink:href="#path-6"></use></mask><use id="Oval-12" fill="url(#linearGradient-5)" xlink:href="#path-6"></use><path d="M20.7735752,110.951727 C15.215567,94.5092589 11.8651969,82.0514996 10.722465,73.5784491 C7.09274373,46.6650404 19.7655691,34.6750286 29.8583975,34.6750286 C33.4974166,34.6750286 37.0535758,35.6923666 40.0712892,37.5967096 C45.0922269,40.7651973 50.1131646,42.3494411 55.1341024,42.3494411 C60.1550401,42.3494411 65.1759779,40.7651973 70.1969156,37.5967096 C73.3591859,35.6011433 76.951008,34.5491718 80.4937641,34.6735473 C100.800426,35.386453 101.935389,62.1559613 100.800426,74.9259776 C100.043784,83.4393218 96.0812013,95.7243859 88.9126784,111.78117 L20.7735752,110.951727 Z" id="Path-52" fill="#0D6574" mask="url(#mask-7)"></path><g id="Group-55" mask="url(#mask-7)"><g transform="translate(28.507869, 57.996571)"><g id="Group-54" transform="translate(0.000000, -0.000000)"><g id="Oval-17" opacity="0.300000012"><use fill="black" fill-opacity="1" filter="url(#filter-9)" xlink:href="#path-8"></use><use fill="#AFFFAA" fill-rule="evenodd" xlink:href="#path-8"></use></g><g id="Rectangle-6" stroke-linecap="round" stroke-linejoin="round"><use fill="black" fill-opacity="1" filter="url(#filter-11)" xlink:href="#path-10"></use><use stroke="#A8FFA2" stroke-width="2.4" xlink:href="#path-10"></use></g><g id="Rectangle-6-Copy" stroke-linecap="round" stroke-linejoin="round" transform="translate(27.276043, 28.994865) scale(1, -1) translate(-27.276043, -28.994865) "><use fill="black" fill-opacity="1" filter="url(#filter-13)" xlink:href="#path-12"></use><use stroke="#A8FFA2" stroke-width="1.31383296" xlink:href="#path-12"></use></g></g><g id="Group-54-Copy" transform="translate(39.033852, 0.800000)"><g id="Oval-17" opacity="0.300000012"><use fill="black" fill-opacity="1" filter="url(#filter-15)" xlink:href="#path-14"></use><use fill="#AFFFAA" fill-rule="evenodd" xlink:href="#path-14"></use></g><g id="Rectangle-6" stroke-linecap="round" stroke-linejoin="round"><use fill="black" fill-opacity="1" filter="url(#filter-17)" xlink:href="#path-16"></use><use stroke="#A8FFA2" stroke-width="2.4" xlink:href="#path-16"></use></g></g></g></g><path d="M17.9678318,111.819469 C11.9619804,94.2296413 8.34165022,80.9025767 7.10684129,71.8382747 C3.18465091,43.046842 16.8786045,30.2201644 27.7846747,30.2201644 C31.7169121,30.2201644 35.559613,31.3084925 38.8204823,33.345721 C44.2459881,36.7353065 49.671494,38.4300993 55.0969998,38.4300993 C60.5225057,38.4300993 65.9480115,36.7353065 71.3735174,33.3457209 C74.7905913,31.2109036 78.6718288,30.0855253 82.5000468,30.2185798 C104.442942,30.9812322 105.669356,59.6187231 104.442942,73.2798341 C103.625333,82.3872414 99.3434605,95.5295602 91.5973253,112.70679 L17.9678318,111.819469 Z" id="Path-52-Copy" stroke="#0D6574" stroke-width="1.31383296" stroke-linecap="round" stroke-linejoin="round" mask="url(#mask-7)"></path><path d="M56.2827415,37.965148 L56.2827415,-6.15265591" id="Path-53" stroke="#0D6574" stroke-width="1.31383296" opacity="0.5" stroke-linecap="round" stroke-linejoin="round" stroke-dasharray="2.1897216796875,6.131219863891602" mask="url(#mask-7)"></path><polygon id="Path-308" fill="#000000" opacity="0.200000003" mask="url(#mask-7)" points="111.118437 58.1614745 86.0796966 83.2150344 94.0183095 96.3767228 92.837375 100.047895 66.3912729 100.047895 66.3912729 117.996714 101.50114 113.34494 125.626364 64.4112315"></polygon></g></g><g id="Group-143" transform="translate(101.027027, 65.600000)" fill-rule="nonzero"><path d="M39.4514861,10.0815997 C60.174132,11.4023269 76.5720721,28.5904947 76.5720721,49.6 L61.3378378,49.6 C61.3378378,36.9956593 51.7592108,26.6234995 39.4686438,25.3347767 L39.4783462,33.9602365 L39.2257994,33.7076897 L38.6580704,33.1410482 L38.6580692,33.1399595 L22.4695614,16.9514518 L39.4401242,-0.0191109941 L39.4514861,10.0815997 Z" id="Combined-Shape" fill="#4FAEA1"></path><path d="M17.0010356,51.6815997 C37.7236816,53.0023269 54.1216216,70.1904947 54.1216216,91.2 L38.8873874,91.2 C38.8873874,78.5956593 29.3087603,68.2234995 17.0181933,66.9347767 L17.0278957,75.5602365 L16.7753489,75.3076897 L16.20762,74.7410482 L16.2076187,74.7399595 L0.0191109941,58.5514518 L16.9896737,41.580889 L17.0010356,51.6815997 Z" id="Combined-Shape-Copy-25" fill="url(#linearGradient-18)" transform="translate(27.060811, 66.400000) scale(-1, -1) translate(-27.060811, -66.400000) "></path></g><g id="Group-144" transform="translate(44.099099, 114.000000) rotate(-13.000000) translate(-44.099099, -114.000000) translate(26.459459, 88.800000)"><ellipse id="Oval-92" fill="#0D6574" cx="12.027027" cy="30.4" rx="12.027027" ry="16"></ellipse><path d="M28.2493032,0 L29.0277526,8.8817842e-16 C31.6185781,4.12251498e-16 33.741882,2.0560319 33.825266,4.64551521 L34.4664945,24.5588195 C34.5518141,27.208413 32.4730594,29.4254981 29.823466,29.5108177 C29.652994,29.516307 29.4823507,29.5127063 29.3122621,29.5000309 L25.243835,29.1968413 C22.6001989,28.9998308 20.616817,26.6970317 20.8138276,24.0533956 C20.8209474,23.9578566 20.8309259,23.8625522 20.8437497,23.7676105 L23.4924988,4.15749579 C23.8141065,1.7764606 25.8466463,1.32953933e-15 28.2493032,8.8817842e-16 Z" id="Rectangle-81" fill="url(#linearGradient-19)"></path><ellipse id="Oval-91" fill="url(#linearGradient-1)" cx="19.6441441" cy="31.2" rx="15.6351351" ry="19.2"></ellipse></g><path d="M155.221321,3.2 L167.888558,3.2 C170.981353,3.2 173.488558,5.7072054 173.488558,8.8 C173.488558,9.13883029 173.457806,9.47696141 173.396682,9.8102327 L171.049063,22.6102327 C170.561417,25.2690377 168.244093,27.2 165.540939,27.2 L152.873702,27.2 C149.780907,27.2 147.273702,24.6927946 147.273702,21.6 C147.273702,21.2611697 147.304453,20.9230386 147.365578,20.5897673 L149.713197,7.7897673 C150.200842,5.13096226 152.518167,3.2 155.221321,3.2 Z" id="Rectangle-83" fill="url(#linearGradient-1)" opacity="0.400000006"></path></g></g></g></g></g></svg> 