<?xml version="1.0" encoding="UTF-8"?> <svg xmlns="http://www.w3.org/2000/svg" xmlns:xlink="http://www.w3.org/1999/xlink" width="365px" height="113px" viewBox="0 0 365 113"><!-- Generator: Sketch 52.5 (67469) - http://www.bohemiancoding.com/sketch --><title>team-bg</title><desc>Created with Sketch.</desc><g id="Pages" stroke="none" stroke-width="1" fill="none" fill-rule="evenodd" opacity="0.1"><g id="Careers" transform="translate(-982.000000, -1760.000000)" fill="#222328"><g id="Testimonial" transform="translate(-65.000000, 1687.000000)"><g id="content" transform="translate(1045.000000, 0.000000)"><path d="M2.106,93.604 L2.106,73.84 L83.106,73.84 L83.106,93.604 L53.946,93.604 L53.946,184 L31.59,184 L31.59,93.604 L2.106,93.604 Z M101.898,152.734 C102.006001,157.702025 103.328987,161.292989 105.867,163.507 C108.405013,165.721011 112.049976,166.828 116.802,166.828 C126.84605,166.828 135.809961,166.504003 143.694,165.856 L148.23,165.37 L148.554,181.408 C136.133938,184.432015 124.90205,185.944 114.858,185.944 C102.653939,185.944 93.7980275,182.704032 88.29,176.224 C82.7819725,169.743968 80.028,159.214073 80.028,144.634 C80.028,115.581855 91.9618807,101.056 115.83,101.056 C139.374118,101.056 151.146,113.259878 151.146,137.668 L149.526,152.734 L101.898,152.734 Z M129.762,136.21 C129.762,129.729968 128.73601,125.221013 126.684,122.683 C124.63199,120.144987 121.041026,118.876 115.911,118.876 C110.780974,118.876 107.163011,120.198987 105.057,122.845 C102.950989,125.491013 101.844001,129.945969 101.736,136.21 L129.762,136.21 Z M228.744,128.272 L228.744,161.968 C228.960001,164.560013 229.391997,166.368995 230.04,167.395 C230.688003,168.421005 232.03799,169.149998 234.09,169.582 L233.442,185.944 C227.933972,185.944 223.533016,185.566004 220.239,184.81 C216.944984,184.053996 213.624017,182.542011 210.276,180.274 C202.499961,184.054019 194.56204,185.944 186.462,185.944 C169.721916,185.944 161.352,177.088089 161.352,159.376 C161.352,150.735957 163.673977,144.607018 168.318,140.989 C172.962023,137.370982 180.089952,135.238003 189.702,134.59 L207.036,133.294 L207.036,128.272 C207.036,124.923983 206.280008,122.629006 204.768,121.387 C203.255992,120.144994 200.826017,119.524 197.478,119.524 L167.022,120.82 L166.374,105.754 C177.930058,102.621984 188.918948,101.056 199.341,101.056 C209.763052,101.056 217.268977,103.215978 221.859,107.536 C226.449023,111.856022 228.744,118.767952 228.744,128.272 Z M192.294,149.656 C186.24597,150.196003 183.222,153.43597 183.222,159.376 C183.222,165.31603 185.867974,168.286 191.16,168.286 C195.264021,168.286 199.745976,167.638006 204.606,166.342 L207.036,165.694 L207.036,148.36 L192.294,149.656 Z M271.188,184 L249.48,184 L249.48,103 L271.026,103 L271.026,107.536 C278.478037,103.215978 284.849974,101.056 290.142,101.056 C298.890044,101.056 305.639976,103.593975 310.392,108.67 C320.32805,103.593975 329.399959,101.056 337.608,101.056 C348.300053,101.056 355.724979,104.160969 359.883,110.371 C364.041021,116.581031 366.12,126.489932 366.12,140.098 L366.12,184 L344.412,184 L344.412,140.746 C344.412,133.833965 343.656008,128.731016 342.144,125.437 C340.631992,122.142984 337.608023,120.496 333.072,120.496 C329.615983,120.496 325.404025,121.251992 320.436,122.764 L318.006,123.574 C318.438002,131.67404 318.654,137.829979 318.654,142.042 L318.654,184 L296.946,184 L296.946,142.366 C296.946,134.37396 296.244007,128.731016 294.84,125.437 C293.435993,122.142984 290.358024,120.496 285.606,120.496 C281.393979,120.496 277.236021,121.251992 273.132,122.764 L271.188,123.412 L271.188,184 Z" id="team-bg"></path></g></g></g></g></svg> 