<?xml version="1.0" encoding="UTF-8"?> <svg xmlns="http://www.w3.org/2000/svg" xmlns:xlink="http://www.w3.org/1999/xlink" width="102px" height="70px" viewBox="0 0 102 70"><!-- Generator: Sketch 52.6 (67491) - http://www.bohemiancoding.com/sketch --><title>Technology</title><desc>Created with Sketch.</desc><defs><rect id="path-1" x="0" y="0" width="26.4485294" height="48.4" rx="5.6"></rect><ellipse id="path-3" cx="13.4044118" cy="41.4" rx="2.40441176" ry="2.4"></ellipse><filter x="-187.2%" y="-125.0%" width="474.3%" height="475.0%" id="filter-4"><feOffset dx="0" dy="3" in="SourceAlpha" result="shadowOffsetOuter1"></feOffset><feGaussianBlur stdDeviation="2.5" in="shadowOffsetOuter1" result="shadowBlurOuter1"></feGaussianBlur><feColorMatrix values="0 0 0 0 0.0431372549 0 0 0 0 0.274509804 0 0 0 0 0.317647059 0 0 0 0.431046196 0" type="matrix" in="shadowBlurOuter1"></feColorMatrix></filter><radialGradient cx="10.1475267%" cy="12.3100204%" fx="10.1475267%" fy="12.3100204%" r="116.836848%" gradientTransform="translate(0.101475,0.123100),scale(0.757143,1.000000),rotate(37.591945),translate(-0.101475,-0.123100)" id="radialGradient-5"><stop stop-color="#7ECC79" offset="0%"></stop><stop stop-color="#28AD9D" offset="100%"></stop></radialGradient><rect id="path-6" x="0" y="0" width="70" height="53" rx="4"></rect><rect id="path-8" x="0" y="0" width="22" height="22" rx="3"></rect></defs><g id="Home" stroke="none" stroke-width="1" fill="none" fill-rule="evenodd"><g id="Technology-Template" transform="translate(-239.000000, -3361.000000)"><g id="Feature-(8-icons)" transform="translate(189.000000, 3031.000000)"><g id="icons" transform="translate(0.000000, 273.000000)"><g id="Group-2"><g id="1"><g id="Group-13"><g id="Technology" transform="translate(29.000000, 18.000000)"><rect id="Rectangle" fill-rule="nonzero" x="0" y="0" width="144" height="144"></rect><g id="Group-14" transform="translate(21.000000, 60.000000)"><mask id="mask-2" fill="white"><use xlink:href="#path-1"></use></mask><use id="Rectangle-Copy-55" fill="#0D505D" xlink:href="#path-1"></use><polyline id="Path-173-Copy-3" stroke="#54B454" stroke-width="0.5" fill-rule="nonzero" mask="url(#mask-2)" transform="translate(11.987786, 11.040733) scale(-1, 1) translate(-11.987786, -11.040733) " points="-1.33091166e-15 9 5.8929041 9 9.97436918 13.0814651 17.0362504 13.0814651 19.8135837 9.91558452 23.975573 9.91558452"></polyline><polyline id="Path-173-Copy-8" stroke="#54B454" stroke-width="0.5" fill-rule="nonzero" mask="url(#mask-2)" transform="translate(30.987786, 13.040733) scale(-1, 1) translate(-30.987786, -13.040733) " points="19 11 24.8929041 11 28.9743692 15.0814651 36.0362504 15.0814651 38.8135837 11.9155845 42.975573 11.9155845"></polyline><polyline id="Path-173-Copy-9" stroke="#54B454" stroke-width="0.5" fill-rule="nonzero" mask="url(#mask-2)" transform="translate(14.103165, 15.691541) scale(-1, 1) translate(-14.103165, -15.691541) " points="6.23075648 14.4674968 12.1236606 14.4674968 14.7631972 16.9155845 21.975573 16.9155845"></polyline><g id="Oval" mask="url(#mask-2)"><use fill="black" fill-opacity="1" filter="url(#filter-4)" xlink:href="#path-3"></use><use fill="#FFFFFF" fill-rule="evenodd" xlink:href="#path-3"></use></g><path d="M14.9304835,20.0747907 L26.1902596,20.0747907" id="Path-175" stroke="#54B454" stroke-width="0.5" fill-rule="nonzero" mask="url(#mask-2)"></path></g><g id="Group-105" transform="translate(53.000000, 39.000000)"><mask id="mask-7" fill="white"><use xlink:href="#path-6"></use></mask><use id="Rectangle" fill="url(#radialGradient-5)" xlink:href="#path-6"></use><polyline id="Path-173" stroke="#0D505D" stroke-width="0.5" fill-rule="nonzero" mask="url(#mask-7)" points="-1 25.1658806 9.59251829 25.1658806 13.7583989 21 20.0012038 21"></polyline><polyline id="Path-173-Copy-3" stroke="#0D505D" stroke-width="0.5" fill-rule="nonzero" mask="url(#mask-7)" transform="translate(8.487786, 31.540733) scale(-1, 1) translate(-8.487786, -31.540733) " points="-2 30 3.1555406 30 6.72630276 33.0814651 12.9045495 33.0814651 15.3343624 30.6912571 18.975573 30.6912571"></polyline><polyline id="Path-173-Copy" stroke="#0D505D" fill-rule="nonzero" mask="url(#mask-7)" points="-15 32.1658806 -4.40748171 32.1658806 -0.241601146 28 12.3220375 28"></polyline><polyline id="Path-173-Copy-7" stroke="#0D505D" stroke-width="0.5" fill-rule="nonzero" mask="url(#mask-7)" points="54 32.1658806 64.5925183 32.1658806 68.7583989 28 81.3220375 28"></polyline><polyline id="Path-173-Copy-6" stroke="#0D505D" stroke-width="0.5" fill-rule="nonzero" mask="url(#mask-7)" transform="translate(62.661019, 20.082940) scale(-1, 1) translate(-62.661019, -20.082940) " points="49 22.1658806 59.5925183 22.1658806 63.7583989 18 76.3220375 18"></polyline><polyline id="Path-173-Copy-2" stroke="#0D505D" fill-rule="nonzero" mask="url(#mask-7)" points="50 28.1658806 57.8786787 28.1658806 60.9772463 25 70.3220375 25"></polyline><polyline id="Path-173-Copy-4" stroke="#0D505D" fill-rule="nonzero" mask="url(#mask-7)" transform="translate(30.582940, 2.161019) rotate(-270.000000) translate(-30.582940, -2.161019) " points="20.4219215 3.74395904 28.3006002 3.74395904 31.3991678 0.578078474 40.743959 0.578078474"></polyline><polyline id="Path-173-Copy-5" stroke="#0D505D" stroke-width="0.5" fill-rule="nonzero" mask="url(#mask-7)" transform="translate(37.582940, 50.161019) rotate(-270.000000) translate(-37.582940, -50.161019) " points="27.4219215 51.743959 35.3006002 51.743959 38.3991678 48.5780785 47.743959 48.5780785"></polyline><g id="Group-104" mask="url(#mask-7)"><g transform="translate(24.000000, 16.000000)"><mask id="mask-9" fill="white"><use xlink:href="#path-8"></use></mask><use id="Rectangle" stroke="none" fill="#FFFFFF" fill-rule="evenodd" xlink:href="#path-8"></use><rect id="Rectangle-Copy-60" stroke="none" fill="#0D6574" fill-rule="nonzero" opacity="0.100000001" mask="url(#mask-9)" x="4" y="4" width="14" height="14" rx="3"></rect><polyline id="Path-172" stroke="#54B454" stroke-width="0.5" fill="none" fill-rule="nonzero" mask="url(#mask-9)" points="7 -1 7 4.03726779 9.24211074 6.27937853 9.24211074 10.2255164"></polyline><polyline id="Path-172-Copy-6" stroke="#54B454" stroke-width="0.5" fill="none" fill-rule="nonzero" mask="url(#mask-9)" points="8 -6 8 -0.962732212 10.2421107 1.27937853 10.2421107 5.22551645"></polyline><polyline id="Path-172-Copy" stroke="#54B454" stroke-width="0.5" fill="none" fill-rule="nonzero" mask="url(#mask-9)" transform="translate(18.027272, 11.121055) scale(1, -1) rotate(-90.000000) translate(-18.027272, -11.121055) " points="16.9062163 4.0937837 16.9062163 8.44356166 19.148327 10.6856724 19.148327 18.148327"></polyline><polyline id="Path-172-Copy-8" stroke="#54B454" stroke-width="0.5" fill="none" fill-rule="nonzero" mask="url(#mask-9)" transform="translate(1.027272, 9.121055) scale(1, -1) rotate(-90.000000) translate(-1.027272, -9.121055) " points="-0.0937837019 2.0937837 -0.0937837019 6.44356166 2.14832704 8.6856724 2.14832704 16.148327"></polyline><polyline id="Path-172-Copy-4" stroke="#54B454" stroke-width="0.5" fill="none" fill-rule="nonzero" mask="url(#mask-9)" transform="translate(3.295654, 13.121055) rotate(-90.000000) translate(-3.295654, -13.121055) " points="2.17459834 6.82540166 2.17459834 9.71194371 4.41670908 11.9540544 4.41670908 19.4167091"></polyline><polyline id="Path-172-Copy-3" stroke="#54B454" stroke-width="0.5" fill="none" fill-rule="nonzero" mask="url(#mask-9)" points="8 14 8 16.8262727 9.24211074 17.9983451 9.24211074 23.2506598"></polyline><polyline id="Path-172-Copy-7" stroke="#54B454" stroke-width="0.5" fill="none" fill-rule="nonzero" mask="url(#mask-9)" points="11 18 11 20.8262727 12.2421107 21.9983451 12.2421107 25.0747907"></polyline><polyline id="Path-172-Copy-5" stroke="#54B454" stroke-width="0.5" fill="none" fill-rule="nonzero" mask="url(#mask-9)" transform="translate(13.621055, 16.136316) scale(-1, 1) translate(-13.621055, -16.136316) " points="13 12 13 14.8865421 14.2421107 16.3264943 14.2421107 20.2726322"></polyline><polyline id="Path-172-Copy-2" stroke="#54B454" stroke-width="0.5" fill="none" fill-rule="nonzero" mask="url(#mask-9)" transform="translate(13.121055, 2.807887) scale(-1, 1) translate(-13.121055, -2.807887) " points="12 -2 12 3.03726779 14.2421107 5.27937853 14.2421107 7.61577494"></polyline></g></g><path d="M31.5,46 L31.5,58.8662552" id="Path-174" stroke="#0D505D" fill-rule="nonzero" mask="url(#mask-7)"></path><path d="M35.5,-4 L35.5,8.86625524" id="Path-174-Copy" stroke="#0D505D" stroke-width="0.5" fill-rule="nonzero" mask="url(#mask-7)"></path><path d="M37.5,-2 L37.5,10.8662552" id="Path-174-Copy-2" stroke="#0D505D" stroke-width="0.5" fill-rule="nonzero" mask="url(#mask-7)"></path><path d="M35,0 L66,0 C68.209139,-4.05812251e-16 70,1.790861 70,4 L70,49 C70,51.209139 68.209139,53 66,53 L35,53 L35,0 Z" id="Rectangle-Copy-59" fill="#0D6574" fill-rule="nonzero" opacity="0.400000006" mask="url(#mask-7)"></path></g><rect id="Rectangle" fill="#0D505D" x="74" y="101" width="27" height="7" rx="3"></rect></g></g></g></g></g></g></g></g></svg> 