<?xml version="1.0" encoding="UTF-8"?> <svg xmlns="http://www.w3.org/2000/svg" xmlns:xlink="http://www.w3.org/1999/xlink" width="34px" height="37px" viewBox="0 0 34 37"><!-- Generator: Sketch 52.6 (67491) - http://www.bohemiancoding.com/sketch --><title>Unlimitted Vacation</title><desc>Created with Sketch.</desc><defs><linearGradient x1="100%" y1="0%" x2="0%" y2="100%" id="linearGradient-1"><stop stop-color="#8CD987" offset="0%"></stop><stop stop-color="#1FA595" offset="100%"></stop></linearGradient></defs><g id="Home" stroke="none" stroke-width="1" fill="none" fill-rule="evenodd"><g id="Careers" transform="translate(-203.000000, -4485.000000)"><g id="Group-13" transform="translate(200.000000, 4293.000000)"><g id="content-copy" transform="translate(0.000000, 188.000000)"><g id="Unlimitted-Vacation" transform="translate(0.000000, 3.000000)"><polygon id="Rectangle-38" points="0 0 40 0 40 40 0 40"></polygon><g id="Group-27" transform="translate(3.000000, 1.000000)"><path d="M4.25,32.7714286 L9.5625,32.7714286 L9.5625,35.944 C9.5625,36.5272127 9.0897127,37 8.5065,37 L5.306,37 C4.7227873,37 4.25,36.5272127 4.25,35.944 L4.25,32.7714286 Z" id="Rectangle" fill="url(#linearGradient-1)"></path><path d="M24.4375,32.7714286 L29.75,32.7714286 L29.75,35.944 C29.75,36.5272127 29.2772127,37 28.694,37 L25.4935,37 C24.9102873,37 24.4375,36.5272127 24.4375,35.944 L24.4375,32.7714286 Z" id="Rectangle" fill="url(#linearGradient-1)"></path><path d="M12.21875,8.49094844 L9.03125,8.49094844 L9.03125,4.67135345 C9.03125,2.62789987 10.6961911,0.971353445 12.75,0.971353445 L21.25,0.971353445 C23.3038089,0.971353445 24.96875,2.62789987 24.96875,4.67135345 L24.96875,8.49094844 L21.78125,8.49094844 L21.78125,4.67135345 C21.78125,4.37943151 21.5434013,4.14278202 21.25,4.14278202 L12.75,4.14278202 C12.4565987,4.14278202 12.21875,4.37943151 12.21875,4.67135345 L12.21875,8.49094844 Z" id="Path-28" fill="#0D6574"></path><rect id="Rectangle" fill="url(#linearGradient-1)" x="0" y="7.4" width="34" height="27.4857143"></rect><path d="M6.37292254,14.7902621 L14.8770488,14.8062077 C15.4587119,14.8072983 15.9299725,15.278556 15.9310669,15.8602191 L15.9350556,17.9803244 C15.9361529,18.5635361 15.4642559,19.037212 14.8810442,19.0383093 C14.879722,19.0383118 14.8783997,19.0383118 14.8770775,19.0383093 L6.37295122,19.0223637 C5.79128807,19.0212731 5.32002746,18.5500155 5.31893312,17.9683523 L5.31494438,15.848247 C5.31384713,15.2650354 5.7857441,14.7913594 6.36895576,14.7902622 C6.37027802,14.7902597 6.37160028,14.7902597 6.37292254,14.7902621 Z" id="Rectangle" fill="#D9F1EE" transform="translate(10.625000, 16.914286) rotate(-24.000000) translate(-10.625000, -16.914286) "></path><rect id="Rectangle" fill="#0D6574" x="10.625" y="24.3142857" width="10.625" height="4.22857143"></rect><ellipse id="Oval" fill="#0D6574" cx="27.09375" cy="19.5571429" rx="2.65625" ry="2.64285714"></ellipse></g></g></g></g></g></g></svg> 