<?xml version="1.0" encoding="UTF-8"?> <svg xmlns="http://www.w3.org/2000/svg" xmlns:xlink="http://www.w3.org/1999/xlink" width="51px" height="51px" viewBox="0 0 51 51"><!-- Generator: Sketch 52.6 (67491) - http://www.bohemiancoding.com/sketch --><title>User Research</title><desc>Created with Sketch.</desc><defs><radialGradient cx="10.1475267%" cy="12.3100204%" fx="10.1475267%" fy="12.3100204%" r="99.9669394%" id="radialGradient-1"><stop stop-color="#7ECC79" offset="0%"></stop><stop stop-color="#28AD9D" offset="100%"></stop></radialGradient><circle id="path-2" cx="25.5" cy="25.5" r="25.5"></circle></defs><g id="Illustrations" stroke="none" stroke-width="1" fill="none" fill-rule="evenodd"><g id="All-Icons" transform="translate(-1310.000000, -2481.000000)"><g id="Group-34-Copy-2" transform="translate(1310.000000, 2481.000000)"><g id="User-Research"><mask id="mask-3" fill="white"><use xlink:href="#path-2"></use></mask><use id="Oval-Copy-3" fill="url(#radialGradient-1)" xlink:href="#path-2"></use><circle id="Oval" fill="#0D6574" mask="url(#mask-3)" cx="-27.5" cy="-3.5" r="48.5"></circle><circle id="Oval-Copy-2" fill="#0B4651" opacity="0.200000003" mask="url(#mask-3)" cx="43.5" cy="-7.5" r="34.5"></circle><g id="users" mask="url(#mask-3)" stroke="#F8FAFC" stroke-width="2"><g transform="translate(11.000000, 16.000000)" id="Path"><path d="M14.0526316,3.89473684 C14.1052632,1.78947368 12.3684211,0 10.2631579,0 C10.2105263,0 10.1578947,0 10.1052632,0 C7.94736842,0 6.05263158,1.73684211 6.15789474,3.89473684 C6.15789474,4.31578947 6.57894737,6.52631579 6.57894737,6.52631579 C6.89473684,8.42105263 8.15789474,10 10.1052632,10 C12.0526316,10 13.2631579,8.42105263 13.6315789,6.52631579 C13.6315789,6.52631579 14.0526316,4.36842105 14.0526316,3.89473684 Z"></path><path d="M19.8421053,20 L0.368421053,20 L0.684210526,16.2105263 C0.842105263,14.7894737 2.31578947,13.7894737 3.78947368,13.5263158 L10.1052632,12.6842105 L16.4736842,13.5263158 C18.1052632,13.8421053 19.5263158,14.7368421 19.6315789,16.3684211 L19.8421053,20 Z"></path><path d="M24.3157895,6.52631579 C24.3157895,4.78947368 22.8947368,3.36842105 21.1578947,3.36842105 C19.4210526,3.36842105 18,4.78947368 18,6.52631579 C18,6.89473684 18.3684211,8.57894737 18.3684211,8.57894737 C18.6315789,10.0526316 19.6315789,11.3157895 21.1578947,11.3157895 C22.6842105,11.3157895 23.6842105,10.0526316 23.9473684,8.57894737 C24,8.57894737 24.3157895,6.84210526 24.3157895,6.52631579 Z"></path><path d="M21.1578947,13.6842105 L26.3684211,14.3157895 C27.6315789,14.5263158 28.7894737,15.2631579 28.8947368,16.6315789 L29.0526316,20 L23,20"></path></g></g></g></g></g></g></svg> 