<?xml version="1.0" encoding="UTF-8"?> <svg xmlns="http://www.w3.org/2000/svg" xmlns:xlink="http://www.w3.org/1999/xlink" width="51px" height="51px" viewBox="0 0 51 51"><!-- Generator: Sketch 52.6 (67491) - http://www.bohemiancoding.com/sketch --><title>UX Review</title><desc>Created with Sketch.</desc><defs><radialGradient cx="10.1475267%" cy="12.3100204%" fx="10.1475267%" fy="12.3100204%" r="99.9669394%" id="radialGradient-1"><stop stop-color="#7ECC79" offset="0%"></stop><stop stop-color="#28AD9D" offset="100%"></stop></radialGradient><circle id="path-2" cx="25.5" cy="25.5" r="25.5"></circle></defs><g id="Illustrations" stroke="none" stroke-width="1" fill="none" fill-rule="evenodd"><g id="All-Icons" transform="translate(-1310.000000, -3049.000000)"><g id="Group-34-Copy-4" transform="translate(1310.000000, 3049.000000)"><g id="UX-Review"><mask id="mask-3" fill="white"><use xlink:href="#path-2"></use></mask><use id="Oval-Copy-9" fill="url(#radialGradient-1)" xlink:href="#path-2"></use><circle id="Oval" fill="#0D6574" mask="url(#mask-3)" cx="-27.5" cy="-3.5" r="48.5"></circle><circle id="Oval-Copy-2" fill="#0B4651" opacity="0.200000003" mask="url(#mask-3)" cx="43.5" cy="-7.5" r="34.5"></circle><g id="ruler" mask="url(#mask-3)" stroke="#FFFFFF" stroke-width="2"><g transform="translate(11.000000, 12.000000)" id="Path"><path d="M20.8782609,0 L26.9652174,6.08695652 C28.3652174,7.48695652 28.3652174,9.8 26.9652174,11.2608696 C26.9652174,11.2608696 26.9652174,11.2608696 26.9652174,11.2608696 L11.2608696,26.9043478 C9.86086957,28.3043478 7.54782609,28.3043478 6.08695652,26.9043478 L0,20.8173913 L20.8782609,0 Z"></path><path d="M17.3478261,3.46956522 L22.5826087,8.70434783"></path><path d="M13.8782609,6.93913043 L17.3478261,10.4086957"></path><path d="M10.4086957,10.4086957 L15.6434783,15.6434783"></path><path d="M6.93913043,13.8782609 L10.4086957,17.3478261"></path><path d="M3.46956522,17.3478261 L8.70434783,22.5826087"></path></g></g></g></g></g></g></svg> 