<?xml version="1.0" encoding="UTF-8"?> <svg xmlns="http://www.w3.org/2000/svg" xmlns:xlink="http://www.w3.org/1999/xlink" width="802px" height="494px" viewBox="0 0 802 494"><!-- Generator: Sketch 52.5 (67469) - http://www.bohemiancoding.com/sketch --><title>Visual Dashboards</title><desc>Created with Sketch.</desc><defs><linearGradient x1="100%" y1="0%" x2="0%" y2="100%" id="linearGradient-1"><stop stop-color="#7ECC79" offset="0%"></stop><stop stop-color="#33BAAA" offset="100%"></stop></linearGradient><linearGradient x1="89.4792173%" y1="21.3848606%" x2="-71.882316%" y2="84.0624184%" id="linearGradient-2"><stop stop-color="#8CD987" offset="0%"></stop><stop stop-color="#25AB9B" offset="100%"></stop></linearGradient><linearGradient x1="2.88529403%" y1="95.9689527%" x2="98.5564819%" y2="0%" id="linearGradient-3"><stop stop-color="#54BC4C" offset="0%"></stop><stop stop-color="#4BBB65" offset="26.6711251%"></stop><stop stop-color="#33BAAA" offset="100%"></stop></linearGradient><linearGradient x1="57.6964029%" y1="-28.1753217%" x2="43.1413235%" y2="92.9334256%" id="linearGradient-4"><stop stop-color="#7ECC79" offset="0%"></stop><stop stop-color="#33BAAA" offset="100%"></stop></linearGradient></defs><g id="Pages" stroke="none" stroke-width="1" fill="none" fill-rule="evenodd"><g id="Business-Intelligence" transform="translate(-57.000000, -1631.000000)"><g id="Deployment" transform="translate(0.000000, 1023.000000)"><g id="Visual-Dashboards" transform="translate(58.000000, 609.000000)"><path d="M614.948611,109.467506 C625.932037,103.181616 624.926143,99.3172065 631.738865,98.3264625 C638.551587,97.3357185 640.385549,102.151857 650.802862,100.217681 C661.220174,98.2835041 661.045783,74.6156719 691.157687,75.0047438 C721.269591,75.3938158 720.125041,105.402915 729.309071,105.402915 C738.493102,105.402915 738.058219,98.3264625 751.827148,98.3264625 C765.596078,98.3264625 771.717862,119.116844 800.971753,119.116844 L577,119.116844 C594.976791,116.874545 607.626328,113.658099 614.948611,109.467506 Z" id="Path-72-Copy-3" fill="#33BAAA" opacity="0.200000003"></path><path d="M484.948611,366.467506 C495.932037,360.181616 494.926143,356.317207 501.738865,355.326463 C508.551587,354.335719 510.385549,359.151857 520.802862,357.217681 C531.220174,355.283504 531.045783,331.615672 561.157687,332.004744 C591.269591,332.393816 590.125041,362.402915 599.309071,362.402915 C608.493102,362.402915 608.058219,355.326463 621.827148,355.326463 C635.596078,355.326463 641.717862,376.116844 670.971753,376.116844 L447,376.116844 C464.976791,373.874545 477.626328,370.658099 484.948611,366.467506 Z" id="Path-72-Copy-4" fill="#33BAAA" opacity="0.200000003"></path><path d="M114.584763,276.999448 C131.792242,267.151489 130.216332,261.097208 140.889667,259.545032 C151.563001,257.992856 154.436227,265.53819 170.756791,262.50796 C187.077355,259.47773 186.804139,222.397882 233.979767,223.007432 C281.155394,223.616982 279.362253,270.631547 293.750662,270.631547 C308.139071,270.631547 307.457751,259.545032 329.029215,259.545032 C350.60068,259.545032 360.191538,292.116844 406.022937,292.116844 L55.1315467,292.116844 C83.2953709,288.603886 103.11311,283.564753 114.584763,276.999448 Z" id="Path-72-Copy-2" fill="#33BAAA" opacity="0.200000003"></path><g id="Group-13" opacity="0.5" transform="translate(79.000000, 254.000000)"><path d="M1,0.131528234 L1,217.864806" id="Path-12" stroke="#3FBDA1" stroke-width="2"></path><rect id="Rectangle-29" fill="#3FBDA1" x="0" y="36" width="174" height="15"></rect><path d="M1.5,16.5 L173.56,16.5" id="Line-4" stroke="#3FBDA1" stroke-width="2"></path><path d="M1.5,68.5 L173.56,68.5" id="Line-4-Copy" stroke="#3FBDA1" stroke-width="2"></path><path d="M1.5,120.5 L76.0150991,120.5" id="Line-4-Copy-2" stroke="#3FBDA1" stroke-width="2"></path><path d="M1.5,93.5 L77.0016556,93.5" id="Line-4-Copy-4" stroke="#3FBDA1" stroke-width="2"></path><path d="M1.5,172.5 L76.0016778,172.5" id="Line-4-Copy-3" stroke="#3FBDA1" stroke-width="2"></path><path d="M1.5,197.5 L173.56,197.5" id="Line-4-Copy-6" stroke="#3FBDA1" stroke-width="2"></path><path d="M1.5,146.5 L173.56,146.5" id="Line-4-Copy-5" stroke="#3FBDA1" stroke-width="2"></path><path d="M77,0.131528234 L77,217.864806" id="Path-12-Copy" stroke="#3FBDA1" stroke-width="2"></path><path d="M174,0.131528234 L174,217.864806" id="Path-12-Copy-2" stroke="#3FBDA1" stroke-width="2"></path></g><rect id="Rectangle-6" stroke="#55C293" stroke-width="2" fill="#BEF5CC" x="185" y="158" width="361" height="263"></rect><g id="Group-18" transform="translate(276.000000, 388.000000)"><path d="M0,0 L250,0 C250,9.20377343 250,16.3367006 250,21.3987814 C249.621781,22.6996904 249.132603,23.4051183 248.532464,23.5150651 C247.932326,23.625012 247.2367,23.7866569 246.445586,24 L0,24 L0,0 Z" id="Rectangle-11-Copy-2" fill="#FFFFFF" opacity="0.531589674" transform="translate(125.000000, 12.000000) scale(1, -1) translate(-125.000000, -12.000000) "></path><path d="M241.614188,3.86425442 C242.639477,2.57964382 243.896482,1.96586458 245.385202,2.02291669 C245.385202,3.45182601 245.385202,5.1655317 245.385202,7.16403376 C243.995896,7.39996411 243.028561,7.27932266 242.483198,6.80210938 C241.937835,6.3248961 241.648165,5.34561112 241.614188,3.86425442 Z" id="Path-47" fill="#A3DFB3"></path><path d="M246.374008,0.0534732539 C249.155629,0.432006177 250.262688,1.57393872 249.695183,3.47927089 C248.843926,6.33726915 242.443119,6.37605769 241.628386,3.78348056 L242.250123,25.9581345 C245.073505,28.7729299 247.645122,28.7729299 249.964975,25.9581345 C249.964975,15.6971562 249.964975,8.00142257 249.964975,2.87093345 C249.964975,2.27879527 249.916812,1.36223873 248.968292,0.746265313 C248.335945,0.335616367 247.471184,0.10468568 246.374008,0.0534732539 Z" id="Path-46" fill="#65CCA7"></path></g><polygon id="Rectangle-11-Copy" fill="#137384" opacity="0.188915308" transform="translate(463.242692, 253.491014) rotate(-1.000000) translate(-463.242692, -253.491014) " points="408.39443 208.642574 517.328115 205.972447 518.090955 298.142118 409.051273 301.009581"></polygon><rect id="Rectangle-11-Copy-3" fill="#E0FAE7" transform="translate(466.000000, 248.000000) rotate(-5.000000) translate(-466.000000, -248.000000) " x="410" y="203" width="112" height="90"></rect><rect id="Rectangle-11" fill="#E0FAE7" x="276" y="198" width="112" height="179"></rect><g id="Group-10" transform="translate(290.000000, 224.000000)" fill="url(#linearGradient-1)" fill-rule="nonzero"><path d="M42.5,0.5 C19.3040405,0.5 0.5,19.3040405 0.5,42.5 C0.5,65.6959595 19.3040405,84.5 42.5,84.5 C65.6959595,84.5 84.5,65.6959595 84.5,42.5 L71.5,42.5 C71.5,58.5162577 58.5162577,71.5 42.5,71.5 C26.4837423,71.5 13.5,58.5162577 13.5,42.5 C13.5,26.4837423 26.4837423,13.5 42.5,13.5 L42.5,0.5 Z" id="Oval-5"></path></g><g id="Group-12" transform="translate(291.000000, 329.000000)"><rect id="Rectangle-28" fill="url(#linearGradient-1)" x="0" y="0" width="9" height="9" rx="4.5"></rect><rect id="Rectangle-28-Copy-2" fill="#137384" x="0" y="21" width="9" height="9" rx="4.5"></rect><rect id="Rectangle-28-Copy" fill="url(#linearGradient-1)" opacity="0.5" x="18" y="0" width="65" height="9" rx="4.5"></rect><rect id="Rectangle-28-Copy-3" fill="url(#linearGradient-1)" opacity="0.5" x="18" y="21" width="65" height="9" rx="4.5"></rect></g><rect id="Rectangle-6-Copy-2" fill="url(#linearGradient-2)" x="186" y="159" width="75" height="261"></rect><rect id="Rectangle-27-Copy-4" fill="#FFFFFF" opacity="0.699999988" x="199" y="402" width="49" height="4" rx="2"></rect><path d="M224.705067,420 L186,420 L186,394.226168 C189.914392,394.948072 193.130263,400.885596 196.328985,398.273531 C200.631335,394.760248 193.950188,375.461428 206.992591,376.780643 C220.034993,378.099859 214.622409,389.140457 214.219818,397.034615 C213.817226,404.928773 223.931768,390.513218 229.393026,399.972396 C232.615,405.553018 228.662266,413.163907 224.705067,420 Z" id="Combined-Shape" fill="#137384" opacity="0.5"></path><circle id="Oval-6" fill="#FFFFFF" opacity="0.699999988" cx="223.5" cy="220.5" r="14.5"></circle><rect id="Rectangle-27" fill="#FFFFFF" opacity="0.699999988" x="199" y="272" width="49" height="4" rx="2"></rect><rect id="Rectangle-27-Copy" fill="#FFFFFF" opacity="0.699999988" x="199" y="284" width="49" height="4" rx="2"></rect><rect id="Rectangle-27-Copy-2" fill="#FFFFFF" opacity="0.699999988" x="199" y="296" width="49" height="4" rx="2"></rect><rect id="Rectangle-27-Copy-3" fill="#FFFFFF" opacity="0.699999988" x="199" y="308" width="49" height="4" rx="2"></rect><rect id="Rectangle-6-Copy" fill="#075B6A" x="186" y="159" width="359" height="21"></rect><g id="Group-9" transform="translate(194.000000, 166.000000)"><circle id="Oval-4" fill="#FF9F9F" cx="4" cy="4" r="4"></circle><circle id="Oval-4-Copy" fill="#F8E71C" cx="20" cy="4" r="4"></circle><circle id="Oval-4-Copy-2" fill="#B8E986" cx="36" cy="4" r="4"></circle></g><g id="Group-16" opacity="0.300000012" transform="translate(285.000000, 0.000000)"><path d="M252,444 L335,444 C341.627417,444 347,449.372583 347,456 L347,471 L240,471 L240,456 C240,449.372583 245.372583,444 252,444 Z" id="Rectangle-30" stroke="#3FBDA1" stroke-width="2"></path><rect id="Rectangle-30-Copy" stroke="#3FBDA1" stroke-width="2" x="265" y="434" width="58" height="10" rx="5"></rect><rect id="Rectangle-31" stroke="#3FBDA1" stroke-width="2" x="279" y="45" width="29" height="389"></rect><polyline id="Path-13-Copy" stroke="#3FBDA1" stroke-width="2" stroke-linecap="round" stroke-linejoin="round" transform="translate(293.283502, 155.802410) rotate(-270.000000) translate(-293.283502, -155.802410) " points="211.481092 141.518908 211.481092 170.085913 239.791958 141.518908 239.791958 170.085913 268.581329 141.518908 268.581329 170.085913 296.998613 141.518908 296.998613 170.085913 324.149241 141.518908 324.149241 170.085913 348.951263 141.518908 348.951263 170.085913 375.085913 141.518908"></polyline><polyline id="Path-13-Copy-2" stroke="#3FBDA1" stroke-width="2" stroke-linecap="round" stroke-linejoin="round" transform="translate(293.459813, 333.974152) rotate(-270.000000) translate(-293.459813, -333.974152) " points="197.485661 319.86696 197.485661 348.433964 225.796527 319.86696 225.796527 348.433964 254.585898 319.86696 254.585898 348.433964 283.003182 319.86696 283.003182 348.433964 310.15381 319.86696 310.15381 348.433964 334.955832 319.86696 334.955832 348.433964 361.090482 319.86696 361.090482 347.857821 389.433964 319.514339 389.433964 348.303864"></polyline><g id="Group-15" transform="translate(0.000000, 12.000000)"><circle id="Oval-8" stroke="#3FBDA1" stroke-width="2" stroke-linecap="round" stroke-linejoin="round" cx="69" cy="36" r="8"></circle><g id="Group-14" transform="translate(1.000000, 0.000000)" stroke="#3FBDA1" stroke-linecap="round" stroke-linejoin="round" stroke-width="2"><polygon id="Rectangle-33" points="22.1535679 0 187.26194 0 187.26194 25 0 25"></polygon><polyline id="Path-13" points="23.401564 0.355073547 23.401564 28.390256 51.7124299 0.355073547 51.7124299 28.922078 80.5018011 0.355073547 80.5018011 28.0214743 108.919085 0.355073547 108.919085 26.6836107 136.069713 0.355073547 136.069713 25.6436663 160.871735 0.355073547 160.871735 25.6491118 187.006385 0.355073547"></polyline></g><g id="Group-14-Copy" transform="translate(216.000000, 0.000000)" stroke="#3FBDA1" stroke-linecap="round" stroke-linejoin="round" stroke-width="2"><polygon id="Rectangle-33" points="22.1535679 0 160.083821 0 187.26194 25 0 25"></polygon><polyline id="Path-13" points="23 0 23 28.0351825 51.3108659 0 51.3108659 28.5670044 80.1002372 0 80.1002372 27.6664008 108.517521 0 108.517521 26.3285371 135.668149 0 135.668149 25.2885927 160.470171 0 160.470171 25.2940383"></polyline></g><rect id="Rectangle-32" fill="url(#linearGradient-1)" x="0" y="24" width="366" height="10"></rect><rect id="Rectangle-32-Copy" fill="url(#linearGradient-1)" x="0" y="24" width="404" height="10"></rect></g><rect id="Rectangle-34" stroke="#3FBDA1" stroke-width="2" fill="#FFFFFF" x="265" y="0" width="58" height="74" rx="17"></rect><circle id="Oval-7" fill="url(#linearGradient-1)" cx="277" cy="15" r="4"></circle><circle id="Oval-7-Copy-2" fill="url(#linearGradient-1)" cx="277" cy="58" r="4"></circle><circle id="Oval-7-Copy" fill="url(#linearGradient-1)" cx="310" cy="15" r="4"></circle><circle id="Oval-7-Copy-3" fill="url(#linearGradient-1)" cx="310" cy="58" r="4"></circle></g><path d="M354,56 L354,145.140339" id="Path-16" stroke="#3FBDA1" stroke-width="2"></path><polyline id="Path-35" stroke="#389883" stroke-width="2" stroke-linecap="round" stroke-linejoin="round" points="352.357842 155 337 190.961439 374.23994 210.066274 356.179521 155"></polyline><path d="M345.564809,159.780627 L330,192 M367.814825,212 L352.106316,159.780627" id="Path-35-Copy" stroke="#000000" stroke-width="2" opacity="0.200520833" stroke-linecap="round" stroke-linejoin="round"></path><path d="M366.422269,222.422269 C366.422269,202.440007 350.223445,186.241183 330.241183,186.241183 L330.241183,197.440091 C344.038459,197.440091 355.223362,208.624993 355.223362,222.422269 L366.422269,222.422269 Z" id="Oval-5-Copy" fill="#137384" fill-rule="nonzero" opacity="0.344882246" transform="translate(348.331726, 204.331726) rotate(-27.000000) translate(-348.331726, -204.331726) "></path><path d="M374.535956,222.535956 C374.535956,199.339996 355.731915,180.535956 332.535956,180.535956 L332.535956,193.535956 C348.552213,193.535956 361.535956,206.519698 361.535956,222.535956 L374.535956,222.535956 Z" id="Oval-5-Copy-2" fill="#137384" fill-rule="nonzero" transform="translate(353.535956, 201.535956) rotate(-23.000000) translate(-353.535956, -201.535956) "></path><circle id="Oval-17" stroke="#3FBDA1" stroke-width="2" fill="#FFFFFF" stroke-linecap="round" stroke-linejoin="round" cx="354" cy="149" r="6"></circle><path d="M0.0277404721,470.57238 L776.146434,470.57238" id="Path-37" stroke="url(#linearGradient-3)" stroke-width="1.98" opacity="0.431319963" stroke-linecap="square"></path><g id="Group-21-Copy" transform="translate(153.000000, 376.000000)"><g id="Group-7-Copy-4" transform="translate(47.742781, 51.500000) scale(-1, 1) translate(-47.742781, -51.500000) translate(0.742781, 0.000000)"><path d="M5.34209158,70.1248807 C13.6346942,46.0380947 21.3781447,32.6141629 28.5724432,29.8530854 C39.363891,25.7114691 35.1703058,44.9189362 39.9592393,41.3783617 C44.7481727,37.8377873 49.2937785,22.4163704 57.9520898,22.4163704 C66.610401,22.4163704 58.1309353,36.8970609 63.3907135,33.4918204 C68.6504917,30.0865799 79.3920298,15.5248851 86.7177418,25.7114691 C94.0434538,35.898053 74.1835779,41.0589369 73.4769488,45.4049989 C72.7703196,49.7510608 82.6940363,47.9880871 80.9113876,54.5297629 C79.1287389,61.0714388 61.1189128,62.281823 57.9520898,66.0758826 C54.7852667,69.8699422 71.6860654,69.2402871 61.3259588,78.1284994 C54.4192212,84.0539743 35.7579321,81.3861014 5.34209158,70.1248807 Z" id="Combined-Shape" fill="#33BAAA" transform="translate(46.839727, 51.671784) rotate(-60.000000) translate(-46.839727, -51.671784) "></path><path d="M5.17890742,73.4286024 C38.4297596,65.6901383 63.6662166,51.7866 80.8882785,31.7179875" id="Path-117" stroke="#0D6574" stroke-width="1.584" transform="translate(43.033593, 52.573295) rotate(-60.000000) translate(-43.033593, -52.573295) "></path><path d="M37.0521032,81.5851869 C40.0422443,76.9664595 41.4839551,69.7062849 41.3772358,59.8046631" id="Path-118" stroke="#0D6574" stroke-width="1.584" transform="translate(39.217428, 70.694925) rotate(-60.000000) translate(-39.217428, -70.694925) "></path><path d="M47.4223069,37.0990876 C56.2200177,36.6120339 62.1937826,38.1335148 65.3436018,41.6635303" id="Path-119" stroke="#0D6574" stroke-width="1.584" transform="translate(56.382954, 39.337019) rotate(-60.000000) translate(-56.382954, -39.337019) "></path><path d="M43.6516365,21.8842752 L43.819693,14.6885952" id="Path-120" stroke="#0D6574" stroke-width="1.584" transform="translate(43.735665, 18.286435) rotate(-60.000000) translate(-43.735665, -18.286435) "></path></g></g><g id="Group-21" transform="translate(404.000000, 311.000000)"><path d="M34.3,104.4 L5.7,104.4 L5.7,109.396617 L0.3,109.396617 L0.3,2 L5.7,2 L5.7,36 L34.3,36 L34.3,2 L39.7,2 L39.7,109.652005 L34.3,109.652005 L34.3,104.4 Z M34.3,99 L34.3,71.4 L5.7,71.4 L5.7,99 L34.3,99 Z M34.3,66 L34.3,41.4 L5.7,41.4 L5.7,66 L34.3,66 Z" id="Combined-Shape" fill="#33BAAA" fill-rule="nonzero" opacity="0.400000006"></path><path d="M2.44986807,1.35 L36.6513749,1.35" id="Line-3" stroke="#1E899C" stroke-width="5.4" stroke-linecap="round"></path><path d="M11.8970976,32.4 L46.0986044,32.4" id="Line-3-Copy" stroke="#1E899C" stroke-width="5.4" stroke-linecap="round"></path><path d="M20.8944591,63 L55.0959659,63" id="Line-3-Copy-2" stroke="#1E899C" stroke-width="5.4" stroke-linecap="round"></path><path d="M30.7915567,93.6 L64.9930635,93.6" id="Line-3-Copy-3" stroke="#1E899C" stroke-width="5.4" stroke-linecap="round"></path><path d="M39.7889182,124.2 L73.990425,124.2" id="Line-3-Copy-4" stroke="#1E899C" stroke-width="5.4" stroke-linecap="round"></path><path d="M2.45976759,2.23851782 L49.4637378,157.265389" id="Path-62" stroke="#1E899C" stroke-width="5.4" stroke-linecap="round"></path><path d="M37.0897098,1.8 L84.09368,156.826871" id="Path-62-Copy" stroke="#1E899C" stroke-width="5.4" stroke-linecap="round"></path></g><polygon id="Path-39" fill="url(#linearGradient-4)" points="425 290 431.024123 368.874914 435.159112 368.874914 436.709429 291.21269"></polygon><path d="M432.471378,298 C429.924315,304.829938 429.346051,308.901432 430.736588,310.214481 C432.127124,311.52753 439.554412,312.431113 453.018451,312.925232 L438.850196,340.579799 L443.12498,340.579799 C458.333716,323.885001 465.658167,314.073399 465.098334,311.144994 C464.5385,308.216589 457.214048,303.834924 443.12498,298 L432.471378,298 Z" id="Path-40" fill="url(#linearGradient-4)"></path><path d="M430.644366,252.49102 L436.791968,251.998015 C441.746624,251.600678 446.085272,255.295115 446.482609,260.249771 C446.501802,260.489105 446.511411,260.729111 446.511411,260.969214 L446.511411,300.066274 L425.382475,300.066274 L422.391706,262.170301 C422.000993,257.219582 425.694145,252.888001 430.644366,252.49102 Z" id="Rectangle-13" fill="#137384"></path><polygon id="Path-42" fill="#137384" points="432.084319 255.400314 425.722618 212.205444 419.360916 211.283795 422.68234 260.40163"></polygon><path d="M441.218917,335.76425 C439.011009,337.475735 437.939382,339.360257 438.004036,341.417818 C441.711374,341.66873 444.841798,341.66873 447.395305,341.417818 L445.96671,337.219374 L441.218917,335.76425 Z" id="Path-41-Copy" fill="#137384"></path><g id="Group-17" transform="translate(420.000000, 222.000000)"><path d="M11,13 L26,13 L26,22 C26,25.3137085 23.3137085,28 20,28 L16.5029278,28 C16.8341815,30.3308284 16.8341815,31.4962426 16.5029278,31.4962426 C16.2014895,31.4962426 12.7499333,34.0987368 11,32.1686117 C10.8846085,32.0413383 10.687018,31.8172152 10.4072283,31.4962426 L11,28 L11,13 Z" id="Rectangle-12" fill="#FFD7B3"></path><path d="M5.50857626,8.56459038 C0.160459139,14.6930409 2.0671024,19.9527169 3.81344429,25.0053161 C5.55978619,30.0579152 15.2926727,31.0599545 16.6074092,23.6328123 C17.9221456,16.2056701 22.1518787,19.3107273 26.8279729,15.5153267 C28.9490683,3.87180994 10.8566934,2.43613984 5.50857626,8.56459038 Z" id="Path-38" fill="#137384"></path><path d="M24.8927787,9.82563948 L1.39328539,17.7801043 C-1.57796025,10.4786335 0.203033349,5.0538636 6.7362662,1.5057947 C12.0239193,-1.36582459 17.095491,-0.130211989 21.9509813,5.21263249 C27.7840222,4.08093645 31.0728103,4.14902875 31.8173455,5.41690938 C32.6100399,6.76680115 30.301851,8.23637785 24.8927787,9.82563948 Z" id="Combined-Shape" fill="url(#linearGradient-4)"></path></g><path d="" id="Path-45" stroke="#979797"></path><path d="" id="Path-51" stroke="#979797"></path><path d="M475.784973,287.861226 C477.512366,288.18968 478.535393,288.18968 478.854053,287.861226 C479.332043,287.368546 485.993015,283.001097 485.977949,284.21095 C485.968282,284.987212 484.408968,286.77685 484.562872,287.576378 C484.648838,288.022965 491.543575,290.415779 491.324355,291.889676 C491.105135,293.363572 490.785638,295.341401 487.893215,295.045717 C485.000792,294.750034 478.747349,294.176553 478.182318,293.41657 C477.805632,292.909915 476.744859,292.754389 475,292.949993 L475.784973,287.861226 Z" id="Path-52" fill="#FFD7B3"></path><g id="Group-24" transform="translate(79.000000, 337.000000)"><g id="Group-15-Copy-4" transform="translate(27.000000, 0.000000)"><g id="Group-20" transform="translate(14.000000, 0.000000)"><path d="M33.1668226,7.00447744 C36.7576355,2.69898981 38.6594383,0.675531352 38.8722309,0.934102077 C39.1914199,1.32195816 42.0279005,7.02258745 39.714598,9.20811374 C38.1723963,10.6651313 36.1271388,11.6940482 33.5788254,12.2948646 L33.1668226,7.00447744 Z" id="Path-17" fill="#FFD7B3"></path><path d="M0,34.3274788 C7.03422721,30.9858878 12.1180137,28.0129158 15.2513595,25.4085628 C18.3847052,22.8042098 24.5077651,16.1958847 33.620539,5.58358755 L33.620539,13.3988196 C28.0514581,19.8875934 23.0329573,25.3603533 18.5650365,29.8170994 C14.0971158,34.2738455 9.45009313,37.809819 4.62396865,40.4250199 L0,34.3274788 Z" id="Path-14" fill="#0B4651"></path></g><path d="M28.4299118,129.75575 C28.4299118,129.862826 27.9896785,131.559296 27.1092119,134.845159 L37.7713267,134.845159 C32.9538413,131.837181 30.4816074,129.909431 30.3546252,129.061908 C29.989226,126.623108 28.4299118,129.595135 28.4299118,129.75575 Z" id="Path-92" fill="#0B4651"></path><path d="M6.13639897,129.75575 C6.13639897,129.862826 5.69616565,131.559296 4.81569901,134.845159 L17.8482916,134.845159 C11.4504876,131.837181 8.18809454,129.909431 8.06111231,129.061908 C7.69571309,126.623108 6.13639897,129.595135 6.13639897,129.75575 Z" id="Path-92-Copy" fill="#0B4651"></path><polygon id="Combined-Shape" fill="url(#linearGradient-4)" points="19.3171727 75.1444408 28.8228535 75.1444408 30.9863445 105.401134 30.1806815 129.667053 27.9059356 130.374328 24.7613676 107.879808 17.8428178 85.4268276 16.1104921 104.327918 8.55608611 130.374328 5.78498217 130.9935 9.50857799 99.4817135 8.55608611 76.206554 18.7237555 76.206554"></polygon><path d="M12.3910739,28.9245297 C19.5510741,30.517674 24.4484138,36.7298363 27.0830929,47.5610163 C29.717772,58.3921963 30.5780113,69.1915292 29.6638108,79.9590149 L8.15297502,79.9590149 C7.2205019,64.8705379 6.75426534,53.2396403 6.75426534,45.066322 C6.75426534,36.8930038 8.63320153,31.5124064 12.3910739,28.9245297 Z" id="Path-88" fill="#0B4651"></path><g id="Group-15" transform="translate(0.000000, 5.000000)"><path d="M13.3516443,2.33660072 L13.3516443,2.33660072 C18.9293366,2.33660072 23.4509496,6.85821371 23.4509496,12.435906 L23.4509496,18.5708034 C23.4509496,22.4367966 20.3169428,25.5708034 16.4509496,25.5708034 L13.3516443,25.5708034 C7.77395204,25.5708034 3.25233906,21.0491904 3.25233906,15.4714981 L3.25233906,12.435906 C3.25233906,6.85821371 7.77395204,2.33660072 13.3516443,2.33660072 Z" id="Rectangle-11" fill="#FFD7B3" transform="translate(13.351644, 13.953702) rotate(-16.000000) translate(-13.351644, -13.953702) "></path><path d="M8.2744405,26.8411443 C13.5213181,22.4857641 15.4595064,17.9684876 14.0890054,13.2893149 C13.2539573,10.4382889 18.6293246,10.755121 20.850212,9.22390873 C21.7996031,8.56934192 22.2911257,7.0228408 22.3247801,4.58440536 C17.9153332,-0.026521371 13.0141522,-0.978695271 7.62123688,1.72788366 C0.583014427,5.26020406 1.69151129,11.5066719 1.40279549,13.2893149 C0.872417064,16.5640766 3.1629654,21.081353 8.2744405,26.8411443 Z" id="Path-94" fill="#0B4651"></path></g><path d="" id="Path-15" stroke="#979797"></path></g><rect id="Rectangle-35" stroke="#67D2B1" stroke-width="0.5" fill="#E0FAE7" transform="translate(49.500000, 67.000000) rotate(-4.000000) translate(-49.500000, -67.000000) " x="2.25" y="46.25" width="94.5" height="41.5"></rect><g id="Group-19" transform="translate(24.000000, 38.000000)"><path d="M19.3511997,37.0403816 C27.0600536,38.5605076 31.6413406,38.5000757 33.1473449,40.1021368 C36.3776561,43.5384853 35.9663698,47.1240471 33.1473449,46.965952 C30.32832,46.8078569 30.3771603,49.2272452 25.735623,46.965952 C24.6064644,44.7626455 24.0418851,43.6609922 24.0418851,43.6609922 C20.7535829,43.4106763 18.4069816,43.2185314 17.0020812,43.0845575 L19.3511997,37.0403816 Z" id="Path-89" fill="#FFD7B3" transform="translate(26.210271, 42.488565) rotate(48.000000) translate(-26.210271, -42.488565) "></path><path d="M12.6205379,11.379097 L23.4650036,25.273172 C32.209239,26.6368678 37.7517599,27.546954 40.0925664,28.0034306 L37.6785171,35.4401385 C28.7770613,34.6729433 20.1141833,32.9000075 19.0788609,31.8558431 C17.9811445,30.7487519 13.4103264,25.958796 5.36640652,17.4859754 L5.36643565,17.4859477 C3.58088312,15.6051898 3.65806237,12.6330579 5.53882033,10.8475053 C5.60606361,10.783666 5.67518299,10.7218323 5.74608757,10.6620856 L5.74608757,10.6620856 C7.7726011,8.95447447 10.7997073,9.21299594 12.5073184,11.2395095 C12.5459264,11.2853277 12.5836729,11.331865 12.6205379,11.379097 Z" id="Path-89-Copy-2" fill="#0B4651" transform="translate(22.084368, 22.486565) rotate(48.000000) translate(-22.084368, -22.486565) "></path></g></g><ellipse id="Oval-9" stroke="#3FBDA1" stroke-width="1.1" cx="648.403743" cy="482.848066" rx="15.4037433" ry="3.8480663"></ellipse><ellipse id="Oval-9-Copy" stroke="#3FBDA1" stroke-width="1.1" cx="675.501337" cy="487.848066" rx="5.5013369" ry="3.8480663"></ellipse><path d="M431.123867,366.514694 C430.312659,367.725883 429.939382,369.360257 430.004036,371.417818 C433.711374,371.66873 436.841798,371.66873 439.395305,371.417818 L435.240662,366.514694 L431.123867,366.514694 Z" id="Path-41" fill="#137384"></path><polygon id="Path-43" fill="#137384" points="444.988838 256.799707 452.968065 279.302826 475.781421 287.227156 475.781421 293.556591 451.211154 289.183591 438.577332 273.224967"></polygon><path d="M425.631433,212.17124 C426.463941,210.513081 427.166828,209.510262 427.740093,209.162783 C429.167119,208.297807 431.622112,207.53834 431.827898,207.162682 C432.8257,205.341213 428.572685,206.023585 428.498999,205.914021 C428.444818,205.833459 428.928202,204.745874 427.740093,204.239025 C424.009876,202.647708 418.878914,204.325473 418.765829,204.810982 C418.653688,205.292437 418.835896,207.570752 419.312453,211.645925 L425.631433,212.17124 Z" id="Path-44" fill="#FFD7B3"></path></g></g></g></g></svg> 