<?xml version="1.0" encoding="UTF-8"?> <svg xmlns="http://www.w3.org/2000/svg" xmlns:xlink="http://www.w3.org/1999/xlink" width="407px" height="236px" viewBox="0 0 407 236"><!-- Generator: Sketch 52.5 (67469) - http://www.bohemiancoding.com/sketch --><title>Visualize Common Data Sets</title><desc>Created with Sketch.</desc><defs><linearGradient x1="100%" y1="3.62234285%" x2="0%" y2="100%" id="linearGradient-1"><stop stop-color="#7ECC79" offset="0%"></stop><stop stop-color="#33BAAA" offset="100%"></stop></linearGradient><linearGradient x1="50%" y1="0%" x2="50%" y2="100%" id="linearGradient-2"><stop stop-color="#E0FAE7" offset="0%"></stop><stop stop-color="#B1D9BB" offset="53.0472736%"></stop><stop stop-color="#E0FAE7" offset="100%"></stop></linearGradient><linearGradient x1="109.823928%" y1="2.9888767e-06%" x2="-10.0986865%" y2="2.9888767e-06%" id="linearGradient-3"><stop stop-color="#E0FAE7" offset="0%"></stop><stop stop-color="#B1D9BB" offset="53.0472736%"></stop><stop stop-color="#E0FAE7" offset="100%"></stop></linearGradient><linearGradient x1="66.904568%" y1="0%" x2="43.1413235%" y2="92.9334256%" id="linearGradient-4"><stop stop-color="#14879C" offset="0%"></stop><stop stop-color="#075B6A" offset="100%"></stop></linearGradient><linearGradient x1="66.904568%" y1="0%" x2="43.1413235%" y2="92.9334256%" id="linearGradient-5"><stop stop-color="#B4EAD8" offset="0%"></stop><stop stop-color="#ABE7D5" offset="100%"></stop></linearGradient><linearGradient x1="50%" y1="40.2512889%" x2="50%" y2="100%" id="linearGradient-6"><stop stop-color="#64DECA" stop-opacity="0.52660779" offset="0%"></stop><stop stop-color="#33BA4F" stop-opacity="0.524569746" offset="100%"></stop></linearGradient></defs><g id="Pages" stroke="none" stroke-width="1" fill="none" fill-rule="evenodd"><g id="Business-Intelligence" transform="translate(-295.000000, -3444.000000)"><g id="Charts-and-Graphs" transform="translate(259.000000, 3175.000000)"><g id="Visualize-Common-Data-Sets" transform="translate(36.000000, 269.000000)"><rect id="Rectangle-4-Copy" fill="#E6F6F4" x="0" y="0" width="379.95" height="222.228261" rx="25"></rect><path d="M121.830592,38.3152174 L1.7,38.3152174 C25.8373734,37.7734666 39.4661874,34.4628799 42.5864419,28.3834573 C47.2668236,19.2643235 49.7393758,28.3834573 52.9075383,28.3834573 C56.0757007,28.3834573 56.284245,12.8720758 68.3283205,11.9581803 C80.3723961,11.0442847 78.7740682,26.9520111 83.8072225,28.3834573 C88.8403767,29.8149036 90.5595149,27.1656915 95.1950941,31.2165336 C98.2854803,33.917095 107.16398,36.2833229 121.830592,38.3152174 Z" id="Path-113-Copy-2" fill="#FFFFFF" opacity="0.800000012"></path><path d="M0,149.855072 L120.130592,149.855072 C95.9932188,149.313322 82.3644049,146.002735 79.2441504,139.923312 C74.5637686,130.804179 72.0912164,139.923312 68.9230539,139.923312 C65.7548915,139.923312 65.5463473,124.411931 53.5022717,123.498035 C41.4581962,122.58414 43.0565241,138.491866 38.0233698,139.923312 C32.9902155,141.354759 31.2710773,138.705547 26.6354981,142.756389 C23.545112,145.45695 14.6666126,147.823178 0,149.855072 Z" id="Path-113-Copy-4" fill="#FFFFFF" opacity="0.800000012"></path><path d="M287.3,111.539855 L407.430592,111.539855 C383.293219,110.998104 369.664405,107.687518 366.54415,101.608095 C361.863769,92.4889612 359.391216,101.608095 356.223054,101.608095 C353.054891,101.608095 352.846347,86.0967135 340.802272,85.182818 C328.758196,84.2689224 330.356524,100.176649 325.32337,101.608095 C320.290216,103.039541 318.571077,100.390329 313.935498,104.441171 C310.845112,107.141733 301.966613,109.507961 287.3,111.539855 Z" id="Path-113-Copy-5" fill="#FFFFFF" opacity="0.5"></path><g id="Group-34" transform="translate(49.300000, 12.771739)"><polygon id="Path-67" stroke="#075B6A" stroke-width="1.7" stroke-linecap="round" stroke-linejoin="round" points="3.4 55.3442029 138.582969 5.96014493 150.038737 5.96014493 286.45 55.3442029"></polygon><ellipse id="Oval-11" stroke="#075B6A" stroke-width="1.7" fill="#FFFFFF" stroke-linecap="square" cx="144.075" cy="6.38586957" rx="6.375" ry="6.38586957"></ellipse><rect id="Rectangle-14" stroke="#075B6A" stroke-width="1.615" fill="#075B6A" stroke-linecap="round" stroke-linejoin="round" x="3.4" y="58.75" width="283.05" height="163.478261" rx="1.7"></rect><rect id="Rectangle-14-Copy" fill="url(#linearGradient-1)" x="0" y="53.6413043" width="289.85" height="163.478261" rx="1.7"></rect><rect id="Rectangle-15" fill="#E0FAE7" x="15.3" y="68.9673913" width="90.1" height="138.786232"></rect><rect id="Rectangle-15-Copy" fill="#E0FAE7" x="117.3" y="68.115942" width="159.8" height="67.2644928"></rect><path d="M135.3625,71.09565 L135.3625,133.251812" id="Line-6" stroke="url(#linearGradient-2)" stroke-width="0.5" stroke-linecap="square"></path><path d="M151.5125,71.09565 L151.5125,133.251812" id="Line-6-Copy" stroke="url(#linearGradient-2)" stroke-width="0.5" stroke-linecap="square"></path><path d="M167.6625,71.09565 L167.6625,133.251812" id="Line-6-Copy-2" stroke="url(#linearGradient-2)" stroke-width="0.5" stroke-linecap="square"></path><path d="M183.8125,71.09565 L183.8125,133.251812" id="Line-6-Copy-3" stroke="url(#linearGradient-2)" stroke-width="0.5" stroke-linecap="square"></path><path d="M199.9625,71.09565 L199.9625,133.251812" id="Line-6-Copy-4" stroke="url(#linearGradient-2)" stroke-width="0.5" stroke-linecap="square"></path><path d="M216.1125,71.09565 L216.1125,133.251812" id="Line-6-Copy-5" stroke="url(#linearGradient-2)" stroke-width="0.5" stroke-linecap="square"></path><path d="M232.2625,71.09565 L232.2625,133.251812" id="Line-6-Copy-6" stroke="url(#linearGradient-2)" stroke-width="0.5" stroke-linecap="square"></path><path d="M248.4125,71.09565 L248.4125,133.251812" id="Line-6-Copy-7" stroke="url(#linearGradient-2)" stroke-width="0.5" stroke-linecap="square"></path><path d="M264.5625,71.09565 L264.5625,133.251812" id="Line-6-Copy-8" stroke="url(#linearGradient-2)" stroke-width="0.5" stroke-linecap="square"></path><rect id="Rectangle-15-Copy-2" fill="#E0FAE7" x="117.3" y="140.48913" width="159.8" height="67.2644928"></rect><path d="M126.225,149.429348 L270.7275,149.429348" id="Line-7" stroke="url(#linearGradient-3)" stroke-width="0.5" stroke-linecap="square"></path><path d="M126.225,160.498188 L270.7275,160.498188" id="Line-7-Copy" stroke="url(#linearGradient-3)" stroke-width="0.5" stroke-linecap="square"></path><path d="M126.225,171.567029 L270.7275,171.567029" id="Line-7-Copy-2" stroke="url(#linearGradient-3)" stroke-width="0.5" stroke-linecap="square"></path><path d="M126.225,182.63587 L270.7275,182.63587" id="Line-7-Copy-3" stroke="url(#linearGradient-3)" stroke-width="0.5" stroke-linecap="square"></path><path d="M126.225,193.70471 L270.7275,193.70471" id="Line-7-Copy-4" stroke="url(#linearGradient-3)" stroke-width="0.5" stroke-linecap="square"></path><polygon id="Rectangle-17" fill="#075B6A" points="127.5 154.112319 136.85 154.112319 136.85 200.09058 127.5 200.09058"></polygon><rect id="Rectangle-17-Copy" fill="#73B4AA" x="146.2" y="177.101449" width="9.35" height="22.9891304"></rect><rect id="Rectangle-17-Copy-2" fill="#075B6A" x="164.9" y="162.626812" width="9.35" height="37.4637681"></rect><rect id="Rectangle-17-Copy-3" fill="#73B4AA" x="183.6" y="160.072464" width="9.35" height="40.0181159"></rect><rect id="Rectangle-17-Copy-4" fill="#075B6A" x="202.3" y="177.101449" width="9.35" height="22.9891304"></rect><rect id="Rectangle-17-Copy-5" fill="#73B4AA" x="221" y="187.318841" width="9.35" height="12.7717391"></rect><rect id="Rectangle-17-Copy-6" fill="#075B6A" x="239.7" y="162.626812" width="9.35" height="37.4637681"></rect><rect id="Rectangle-17-Copy-7" fill="#73B4AA" x="258.4" y="157.518116" width="9.35" height="42.5724638"></rect><ellipse id="Oval-13" fill="#075B6A" cx="25.925" cy="165.606884" rx="2.975" ry="2.98007246"></ellipse><ellipse id="Oval-13-Copy" fill="#ABE7D5" cx="25.925" cy="186.041667" rx="2.975" ry="2.98007246"></ellipse><rect id="Rectangle-16" fill="url(#linearGradient-1)" x="38.25" y="163.478261" width="57.8" height="4.25724638" rx="2.12862319"></rect><rect id="Rectangle-16-Copy" fill="url(#linearGradient-1)" x="38.25" y="183.913043" width="57.8" height="4.25724638" rx="2.12862319"></rect><ellipse id="Oval-12" stroke="url(#linearGradient-4)" stroke-width="6.8" cx="59.925" cy="111.11413" rx="29.325" ry="29.375"></ellipse><path d="M59.925,122.608696 C64.1547969,122.608696 67.8500721,120.316235 69.8401339,116.904 C70.8317642,115.203714 71.4,113.225395 71.4,111.11413 C71.4,104.765857 66.2624675,99.6195652 59.925,99.6195652 C54.9520874,99.6195652 50.7180105,102.788291 49.1252338,107.220033 C48.6881799,108.436092 48.45,109.747249 48.45,111.11413 C48.45,117.462404 53.5875325,122.608696 59.925,122.608696 Z" id="Oval-12-Copy-2" stroke="url(#linearGradient-4)" stroke-width="5.95"></path><path d="M71.4,111.11413 C71.4,104.765857 66.2624675,99.6195652 59.925,99.6195652 C54.9520874,99.6195652 50.7180105,102.788291 49.1252338,107.220033" id="Oval-12-Copy-3" stroke="url(#linearGradient-5)" stroke-width="5.95"></path><path d="M59.925,140.48913 C76.1207503,140.48913 89.25,127.337495 89.25,111.11413 C89.25,94.8907659 76.1207503,81.7391304 59.925,81.7391304" id="Oval-12-Copy" stroke="url(#linearGradient-5)" stroke-width="6.8"></path></g><path d="M203.695875,114.640673 C215.859501,120.152428 227.110052,135.167266 240.16887,130.362981 C253.227688,125.558696 268.946626,102.038283 283.742187,114.640673 C298.537748,127.243064 312.56546,95.1598683 325.55,106.998184 C325.55,117.70705 325.55,130.996221 325.55,146.865698 L210.967377,146.865698 L167.45,146.865698 L167.45,126.804102 C183.504832,115.020646 195.586791,110.96617 203.695875,114.640673 Z" id="Path-68" fill="#075B6A"></path><path d="M184.458552,114.640673 C210.967377,132.54782 207.484081,108.111328 220.235922,111.930231 C228.771668,114.486503 235.478426,124.723908 240.714658,122.797519 C253.773476,117.993235 255.177998,112.993439 269.973559,125.59583 C284.76912,138.198221 302.126445,108.125757 325.55,129.191843 C325.55,139.900708 325.55,145.791993 325.55,146.865698 L210.967377,146.865698 L167.45,146.865698 L167.45,135.692229 C172.911854,117.687727 178.581372,110.670542 184.458552,114.640673 Z" id="Path-68-Copy" fill="url(#linearGradient-6)"></path><ellipse id="Oval-14" stroke="#43BB81" fill="#FFFFFF" cx="180.625" cy="113.668478" rx="2.625" ry="2.62862319"></ellipse><ellipse id="Oval-14-Copy" stroke="#43BB81" fill="#FFFFFF" cx="218.875" cy="111.96558" rx="2.625" ry="2.62862319"></ellipse><ellipse id="Oval-14-Copy-2" stroke="#43BB81" fill="#FFFFFF" cx="258.575" cy="117.925725" rx="2.625" ry="2.62862319"></ellipse><ellipse id="Oval-14-Copy-3" stroke="#43BB81" fill="#FFFFFF" cx="308.125" cy="122.182971" rx="2.625" ry="2.62862319"></ellipse></g></g></g></g></svg> 