<?xml version="1.0" encoding="UTF-8"?> <svg xmlns="http://www.w3.org/2000/svg" xmlns:xlink="http://www.w3.org/1999/xlink" width="435px" height="258px" viewBox="0 0 435 258"><!-- Generator: Sketch 52.5 (67469) - http://www.bohemiancoding.com/sketch --><title>Visualize Mathmatic Equations</title><desc>Created with Sketch.</desc><defs><linearGradient x1="37.2317484%" y1="-28.4070924%" x2="77.4556031%" y2="121.574059%" id="linearGradient-1"><stop stop-color="#7ECC79" offset="0%"></stop><stop stop-color="#42BEA0" offset="64.9853166%"></stop><stop stop-color="#26A495" offset="100%"></stop></linearGradient><rect id="path-2" x="0" y="0" width="176" height="166"></rect><filter x="-33.0%" y="-30.1%" width="165.9%" height="169.9%" id="filter-3"><feOffset dx="0" dy="8" in="SourceAlpha" result="shadowOffsetOuter1"></feOffset><feGaussianBlur stdDeviation="18" in="shadowOffsetOuter1" result="shadowBlurOuter1"></feGaussianBlur><feComposite in="shadowBlurOuter1" in2="SourceAlpha" operator="out" result="shadowBlurOuter1"></feComposite><feColorMatrix values="0 0 0 0 0.087007221 0 0 0 0 0.437739158 0 0 0 0 0.381169491 0 0 0 0.334295743 0" type="matrix" in="shadowBlurOuter1" result="shadowMatrixOuter1"></feColorMatrix><feOffset dx="0" dy="8" in="SourceAlpha" result="shadowOffsetOuter2"></feOffset><feGaussianBlur stdDeviation="12.5" in="shadowOffsetOuter2" result="shadowBlurOuter2"></feGaussianBlur><feComposite in="shadowBlurOuter2" in2="SourceAlpha" operator="out" result="shadowBlurOuter2"></feComposite><feColorMatrix values="0 0 0 0 0.0746293868 0 0 0 0 0.359002976 0 0 0 0 0.310842933 0 0 0 0.116847826 0" type="matrix" in="shadowBlurOuter2" result="shadowMatrixOuter2"></feColorMatrix><feMerge><feMergeNode in="shadowMatrixOuter1"></feMergeNode><feMergeNode in="shadowMatrixOuter2"></feMergeNode></feMerge></filter><linearGradient x1="50%" y1="0%" x2="50%" y2="100%" id="linearGradient-4"><stop stop-color="#E0FAE7" stop-opacity="0" offset="0%"></stop><stop stop-color="#E0FAE7" offset="53.0472736%"></stop><stop stop-color="#E0FAE7" offset="100%"></stop></linearGradient><linearGradient x1="102.169387%" y1="0%" x2="0%" y2="0%" id="linearGradient-5"><stop stop-color="#E0FAE7" stop-opacity="0" offset="0%"></stop><stop stop-color="#E0FAE7" offset="53.0472736%"></stop><stop stop-color="#E0FAE7" offset="100%"></stop></linearGradient><linearGradient x1="39.8312598%" y1="-114.819281%" x2="39.8312598%" y2="173.672876%" id="linearGradient-6"><stop stop-color="#96E491" offset="0%"></stop><stop stop-color="#42BEA0" offset="100%"></stop></linearGradient></defs><g id="Pages" stroke="none" stroke-width="1" fill="none" fill-rule="evenodd"><g id="Business-Intelligence" transform="translate(-273.000000, -4109.000000)"><g id="MATH-IS-FUN" transform="translate(259.000000, 3840.000000)"><g id="Visualize-Mathmatic-Equations" transform="translate(14.000000, 269.000000)"><g id="Group-35-Copy"><rect id="Rectangle-4-Copy" fill="#E6F6F4" x="22" y="0" width="379.95" height="222.228261" rx="25"></rect><path d="M402.130592,47.3949275 L282,47.3949275 C306.137373,46.8531767 319.766187,43.54259 322.886442,37.4631675 C327.566824,28.3440337 330.039376,37.4631675 333.207538,37.4631675 C336.375701,37.4631675 336.584245,21.951786 348.628321,21.0378904 C360.672396,20.1239949 359.074068,36.0317212 364.107222,37.4631675 C369.140377,38.8946138 370.859515,36.2454017 375.495094,40.2962437 C378.58548,42.9968051 387.46398,45.3630331 402.130592,47.3949275 Z" id="Path-113-Copy-2" fill="#FFFFFF" opacity="0.800000012"></path><path d="M0,111.062547 L164.130592,111.062547 C131.15247,110.32237 112.531856,105.799221 108.268752,97.4931001 C101.874096,85.0339187 98.495927,97.4931001 94.1673678,97.4931001 C89.8388086,97.4931001 89.5538813,76.3003948 73.0984455,75.0517685 C56.6430096,73.8031422 58.826754,95.5373607 51.950116,97.4931001 C45.073478,99.4488394 42.7246744,95.8293055 36.3912306,101.363842 C32.1689347,105.053532 20.0385245,108.286434 0,111.062547 Z" id="Path-113-Copy-4" fill="#FFFFFF" opacity="0.800000012"></path><path d="M315,194.394928 L435.130592,194.394928 C410.993219,193.853177 397.364405,190.54259 394.24415,184.463167 C389.563769,175.344034 387.091216,184.463167 383.923054,184.463167 C380.754891,184.463167 380.546347,168.951786 368.502272,168.03789 C356.458196,167.123995 358.056524,183.031721 353.02337,184.463167 C347.990216,185.894614 346.271077,183.245402 341.635498,187.296244 C338.545112,189.996805 329.666613,192.363033 315,194.394928 Z" id="Path-113-Copy-5" fill="#FFFFFF" opacity="0.5"></path></g><g id="Group-54" transform="translate(63.000000, 25.000000)"><path d="M47,34 L251,34 C260.941125,34 269,42.0588745 269,52 L269,205 L29,205 L29,52 C29,42.0588745 37.0588745,34 47,34 Z" id="Rectangle-23" fill="url(#linearGradient-1)"></path><g id="Group-53" transform="translate(64.000000, 23.000000)"><g id="Rectangle-48"><use fill="black" fill-opacity="1" filter="url(#filter-3)" xlink:href="#path-2"></use><use fill-opacity="0" fill="#E0FAE7" fill-rule="evenodd" xlink:href="#path-2"></use></g><g id="Group-50" transform="translate(16.500000, 2.198675)"><g id="Group-49" opacity="0.699999988" fill-rule="nonzero"><polygon id="Path-72" fill="#E0FAE7" points="2.04796754 143.093917 149.6 143.093917 149.6 145.293917 -0.152032459 145.293917 -0.152032459 0.607643719 2.04796754 0.607643719"></polygon><polygon id="Line-6-Copy" fill="url(#linearGradient-4)" points="27.3395833 2.11628996 28.4395833 2.11628996 28.4395833 142.999389 27.3395833 142.999389"></polygon><polygon id="Line-6-Copy-13" fill="url(#linearGradient-5)" points="141.517306 118.178477 141.517306 119.278477 0.55 119.278477 0.55 118.178477"></polygon><polygon id="Line-6-Copy-14" fill="url(#linearGradient-5)" points="141.517306 90.6950331 141.517306 91.7950331 0.55 91.7950331 0.55 90.6950331"></polygon><polygon id="Line-6-Copy-15" fill="url(#linearGradient-5)" points="141.517306 63.2115894 141.517306 64.3115894 0.55 64.3115894 0.55 63.2115894"></polygon><polygon id="Line-6-Copy-16" fill="url(#linearGradient-5)" points="141.517306 35.7281457 141.517306 36.8281457 0.55 36.8281457 0.55 35.7281457"></polygon><polygon id="Line-6-Copy-17" fill="url(#linearGradient-5)" points="141.517306 8.24470199 141.517306 9.34470199 0.55 9.34470199 0.55 8.24470199"></polygon><polygon id="Line-6-Copy-9" fill="url(#linearGradient-4)" points="54.8395833 2.11628996 55.9395833 2.11628996 55.9395833 142.999389 54.8395833 142.999389"></polygon><polygon id="Line-6-Copy-10" fill="url(#linearGradient-4)" points="82.3395833 2.11628996 83.4395833 2.11628996 83.4395833 142.999389 82.3395833 142.999389"></polygon><polygon id="Line-6-Copy-11" fill="url(#linearGradient-4)" points="109.839583 2.11628996 110.939583 2.11628996 110.939583 142.999389 109.839583 142.999389"></polygon><polygon id="Line-6-Copy-12" fill="url(#linearGradient-4)" points="137.339583 2.11628996 138.439583 2.11628996 138.439583 142.999389 137.339583 142.999389"></polygon></g><path d="M3.96826411,144.070855 C2.46093226,144.257007 1.08809209,143.18598 0.901939765,141.678648 C0.715787439,140.171316 1.78681506,138.798476 3.2941469,138.612324 C72.9212513,130.013522 115.925093,87.3599342 132.667495,10.1080771 C132.989185,8.62375317 134.453248,7.68125211 135.937572,8.00294207 C137.421896,8.32463204 138.364397,9.78869558 138.042707,11.2730195 C120.823134,90.7266162 76.0110459,135.173722 3.96826411,144.070855 Z" id="Path-73" fill="#FFF9BE" fill-rule="nonzero"></path><ellipse id="Oval-20" fill="#FFF9BE" cx="28.05" cy="144.562914" rx="2.75" ry="2.74834437"></ellipse><ellipse id="Oval-20-Copy" fill="#FFF9BE" cx="55.55" cy="144.562914" rx="2.75" ry="2.74834437"></ellipse><ellipse id="Oval-20-Copy-2" fill="#FFF9BE" cx="83.05" cy="144.562914" rx="2.75" ry="2.74834437"></ellipse><ellipse id="Oval-20-Copy-3" fill="#FFF9BE" cx="110.55" cy="144.562914" rx="2.75" ry="2.74834437"></ellipse><ellipse id="Oval-20-Copy-4" fill="#FFF9BE" cx="138.05" cy="144.562914" rx="2.75" ry="2.74834437"></ellipse></g></g><path d="M0,204 L297,204 L297,206 C297,210.418278 293.418278,214 289,214 L8,214 C3.581722,214 5.41083001e-16,210.418278 0,206 L0,204 Z" id="Rectangle-42" fill="#075B6A"></path><path d="M128,204 L186.859498,204 C185.476252,206.391206 182.890877,208 179.929749,208 L134.929749,208 C131.96862,208 129.383246,206.391206 128.000008,204.000002 Z" id="Combined-Shape" fill="url(#linearGradient-6)" opacity="0.400000006"></path><g id="Group-52" transform="translate(78.000000, 0.000000)"><path d="M0,34 L147,34 L147,41 C147,45.9705627 142.970563,50 138,50 L9,50 C4.02943725,50 0,45.9705627 0,41 L0,34 Z" id="Combined-Shape" fill="#0D6574" opacity="0.18529212"></path><path d="M15,0 L133,0 C137.970563,-9.13077564e-16 142,4.02943725 142,9 L142,34 C142,38.9705627 137.970563,43 133,43 L15,43 C10.0294373,43 6,38.9705627 6,34 L6,9 C6,4.02943725 10.0294373,2.6894344e-15 15,0 Z" id="Path" fill="#DBFFDF" fill-rule="nonzero"></path><path d="M15,0.35 L133,0.35 C137.777263,0.35 141.65,4.22273691 141.65,9 L141.65,34 C141.65,38.7772631 137.777263,42.65 133,42.65 L15,42.65 C10.2227369,42.65 6.35,38.7772631 6.35,34 L6.35,9 C6.35,4.22273691 10.2227369,0.35 15,0.35 Z M15,1.35 C10.7750217,1.35 7.35,4.77502166 7.35,9 L7.35,34 C7.35,38.2249783 10.7750217,41.65 15,41.65 L133,41.65 C137.224978,41.65 140.65,38.2249783 140.65,34 L140.65,9 C140.65,4.77502166 137.224978,1.35 133,1.35 L15,1.35 Z" id="Path" fill="#56A096" fill-rule="nonzero"></path><g id="Group-51" opacity="0.699999988" transform="translate(39.000000, 5.000000)" fill="#075B6A"><path d="M9,25.325 C8.48333075,26.591673 7.791671,27.5291636 6.925,28.1375 C6.058329,28.7458364 4.98333975,29.05 3.7,29.05 C2.94999625,29.05 2.25000325,28.9375011 1.6,28.7125 C0.94999675,28.4874989 0.31666975,28.1333358 -0.3,27.65 L1.55,24.575 C1.86666825,24.841668 2.16666525,25.0333327 2.45,25.15 C2.73333475,25.2666673 3.03333175,25.325 3.35,25.325 C4.083337,25.325 4.62499825,24.9833367 4.975,24.3 L5.3,23.675 L-0.3,10.475 L4.275,10.475 L7.5,19.275 L10.375,10.475 L14.8,10.475 L9,25.325 Z M22.8730774,11.7 L34.0230774,11.7 L34.0230774,14.55 L22.8730774,14.55 L22.8730774,11.7 Z M22.8730774,17.1 L34.0230774,17.1 L34.0230774,19.95 L22.8730774,19.95 L22.8730774,17.1 Z M42.6961548,10.475 L47.7961548,10.475 L49.9711548,14.275 L52.3211548,10.475 L57.1961548,10.475 L52.9211548,17.075 L57.4961548,24 L52.3711548,24 L49.9711548,19.875 L47.2961548,24 L42.3961548,24 L46.9961548,17.075 L42.6961548,10.475 Z" id="y-=-x"></path><path d="M72.436,15.089 L72.436,17 L65.494,17 L65.481,15.427 L68.796,12.021 C69.0560013,11.752332 69.2683325,11.483668 69.433,11.215 C69.5976675,10.946332 69.68,10.7166676 69.68,10.526 C69.68,10.2746654 69.5890009,10.081834 69.407,9.9475 C69.2249991,9.81316599 68.969335,9.746 68.64,9.746 C68.2759982,9.746 67.8708356,9.84783231 67.4245,10.0515 C66.9781644,10.2551677 66.5470021,10.5389982 66.131,10.903 L65.221,9.148 C66.4776729,8.23799545 67.7386603,7.783 69.004,7.783 C69.6106697,7.783 70.1544976,7.88266567 70.6355,8.082 C71.1165024,8.28133433 71.4934986,8.56299818 71.7665,8.927 C72.0395014,9.29100182 72.176,9.70699766 72.176,10.175 C72.176,10.6430023 72.0221682,11.1261642 71.7145,11.6245 C71.4068318,12.1228358 70.9713361,12.6536638 70.408,13.217 L68.549,15.089 L72.436,15.089 Z" id="2"></path></g></g></g></g></g></g></g></svg> 