<?xml version="1.0" encoding="UTF-8"?> <svg xmlns="http://www.w3.org/2000/svg" xmlns:xlink="http://www.w3.org/1999/xlink" width="548px" height="509px" viewBox="0 0 548 509"><!-- Generator: Sketch 52.5 (67469) - http://www.bohemiancoding.com/sketch --><title>voice assistant</title><desc>Created with Sketch.</desc><defs><linearGradient x1="57.6964029%" y1="-28.1753217%" x2="43.1413235%" y2="92.9334256%" id="linearGradient-1"><stop stop-color="#82EA9B" offset="0%"></stop><stop stop-color="#39D8C5" offset="100%"></stop></linearGradient><linearGradient x1="57.6964029%" y1="-28.1753217%" x2="43.1413235%" y2="92.9334256%" id="linearGradient-2"><stop stop-color="#9BFBB2" offset="0%"></stop><stop stop-color="#39D8C5" offset="100%"></stop></linearGradient><linearGradient x1="0%" y1="53.7695944%" x2="100%" y2="53.7695944%" id="linearGradient-3"><stop stop-color="#248596" stop-opacity="0" offset="0%"></stop><stop stop-color="#5FD7E8" stop-opacity="0.485762002" offset="50.8848852%"></stop><stop stop-color="#248596" stop-opacity="0" offset="100%"></stop></linearGradient><path d="M20.9261729,10.3865768 C20.5366042,10.3865768 20.2207963,9.75245465 20.2207963,8.97022538 C20.2207963,8.18799612 20.5366042,7.55387401 20.9261729,7.55387401 C21.3157417,7.55387401 21.6315495,8.18799612 21.6315495,8.97022538 C21.6315495,9.75245465 21.3157417,10.3865768 20.9261729,10.3865768 Z M20.6828077,12.3114888 L20.6828077,11.5442579 C19.8769881,11.3927904 19.2802941,10.499419 19.2802941,9.44234251 L19.7505452,9.44234251 C19.7505452,10.3672856 20.2939889,11.0947524 20.9261729,11.0947524 C21.5583569,11.0947524 22.1018006,10.3672856 22.1018006,9.44234251 L22.5720517,9.44234251 C22.5720517,10.5066122 21.9672093,11.4049413 21.1530588,11.5472467 L21.1530588,12.3114888 L21.630595,12.3114888 L21.630595,12.7836059 L20.2479652,12.7836059 L20.2479652,12.3114888 L20.6828077,12.3114888 Z" id="path-4"></path><filter x="-273.4%" y="-172.1%" width="641.8%" height="444.2%" id="filter-5"><feOffset dx="0" dy="0" in="SourceAlpha" result="shadowOffsetOuter1"></feOffset><feGaussianBlur stdDeviation="3" in="shadowOffsetOuter1" result="shadowBlurOuter1"></feGaussianBlur><feColorMatrix values="0 0 0 0 0.414386489 0 0 0 0 0.762223639 0 0 0 0 0.392089236 0 0 0 1 0" type="matrix" in="shadowBlurOuter1"></feColorMatrix></filter><path d="M3.20808198,54.1905721 L5.86104593,54.1905721 C6.38063542,54.1905721 6.80184593,54.6117826 6.80184593,55.1313721 L6.80184593,55.141267 C6.80184593,55.6608565 6.38063542,56.082067 5.86104593,56.082067 L3.20808198,56.082067 C2.68849248,56.082067 2.26728198,55.6608565 2.26728198,55.141267 L2.26728198,55.1313721 C2.26728198,54.6117826 2.68849248,54.1905721 3.20808198,54.1905721 Z" id="path-6"></path><filter x="-198.5%" y="-475.8%" width="497.0%" height="1051.6%" id="filter-7"><feOffset dx="0" dy="0" in="SourceAlpha" result="shadowOffsetOuter1"></feOffset><feGaussianBlur stdDeviation="3" in="shadowOffsetOuter1" result="shadowBlurOuter1"></feGaussianBlur><feColorMatrix values="0 0 0 0 0.414386489 0 0 0 0 0.762223639 0 0 0 0 0.392089236 0 0 0 1 0" type="matrix" in="shadowBlurOuter1"></feColorMatrix></filter><rect id="path-8" x="8.31336725" y="54.1905721" width="4.53456395" height="1.89149489" rx="0.945747447"></rect><filter x="-198.5%" y="-475.8%" width="497.0%" height="1051.6%" id="filter-9"><feOffset dx="0" dy="0" in="SourceAlpha" result="shadowOffsetOuter1"></feOffset><feGaussianBlur stdDeviation="3" in="shadowOffsetOuter1" result="shadowBlurOuter1"></feGaussianBlur><feColorMatrix values="0 0 0 0 0.956499787 0 0 0 0 0.596264374 0 0 0 0 0.126336925 0 0 0 1 0" type="matrix" in="shadowBlurOuter1"></feColorMatrix></filter><linearGradient x1="50%" y1="0%" x2="50%" y2="100%" id="linearGradient-10"><stop stop-color="#60D7E4" offset="0%"></stop><stop stop-color="#248596" offset="100%"></stop></linearGradient><linearGradient x1="57.6964029%" y1="-28.1753217%" x2="43.1413235%" y2="92.9334256%" id="linearGradient-11"><stop stop-color="#7ECC79" offset="0%"></stop><stop stop-color="#33BAAA" offset="100%"></stop></linearGradient><linearGradient x1="50%" y1="0%" x2="50%" y2="100%" id="linearGradient-12"><stop stop-color="#EDC49F" offset="0%"></stop><stop stop-color="#FFD7B3" offset="100%"></stop></linearGradient><linearGradient x1="-30.8807622%" y1="90.8620775%" x2="80.2804062%" y2="90.8620792%" id="linearGradient-13"><stop stop-color="#91E5CB" offset="0%"></stop><stop stop-color="#C3FFEB" offset="100%"></stop></linearGradient><linearGradient x1="5.9060025%" y1="61.6358122%" x2="95.9975375%" y2="57.0614992%" id="linearGradient-14"><stop stop-color="#8DDB8D" offset="0%"></stop><stop stop-color="#E9FF3C" offset="25.9531869%"></stop><stop stop-color="#70BCC7" offset="50.1268392%"></stop><stop stop-color="#FFFFFF" stop-opacity="0.718834918" offset="67.3179006%"></stop><stop stop-color="#B8F6B8" offset="100%"></stop></linearGradient><linearGradient x1="5.9060025%" y1="61.6358122%" x2="95.9975375%" y2="57.0614992%" id="linearGradient-15"><stop stop-color="#8DDB8D" offset="0%"></stop><stop stop-color="#23FF00" offset="23.8679847%"></stop><stop stop-color="#709CC7" offset="49.2904974%"></stop><stop stop-color="#FFFFFF" offset="67.3179006%"></stop><stop stop-color="#B8F6B8" offset="100%"></stop></linearGradient></defs><g id="Pages" stroke="none" stroke-width="1" fill="none" fill-rule="evenodd"><g id="Bots/AI" transform="translate(-863.000000, -3607.000000)"><g id="Messaging-Copy" transform="translate(237.000000, 3607.000000)"><g id="voice-assistant" transform="translate(626.000000, 0.000000)"><path d="M167.598505,40.5 L209.254364,40.5 L209.254364,95.6662479 L167.598505,95.6662479 L167.598505,40.5 Z M167.598505,109.81144 L209.254364,109.81144 L209.254364,164.977688 L167.598505,164.977688 L167.598505,109.81144 Z M222.668962,40.5 L264.32482,40.5 L264.32482,95.6662479 L222.668962,95.6662479 L222.668962,40.5 Z M222.668962,109.81144 L264.32482,109.81144 L264.32482,164.977688 L222.668962,164.977688 L222.668962,109.81144 Z" id="Combined-Shape" stroke="#3FBDA1"></path><path d="M0.364237029,475.002944 L365.828802,475.002944" id="Path-79-Copy-3" stroke="#0B4651" stroke-width="1.5"></path><g id="Group-82" transform="translate(80.062441, 108.371915)"><path d="M43.7255274,130.575115 L26.939503,12.1235777 C37.6481792,62.7627763 43.2435206,93.4504851 43.7255274,104.186704 C44.6774775,102.410142 47.0147609,67.7311086 50.7373776,0.149603369 C52.4631519,56.1907814 52.4631519,90.869815 50.7373776,104.186704 C54.6154327,85.4434921 60.6928965,59.6186706 68.969769,26.7122393 L47.954636,149.276531 C44.8613662,147.113877 42.835179,144.82652 41.8760745,142.414462 C40.91697,140.002403 34.4039275,120.814391 22.3369472,84.8504249 L43.7255274,130.575115 Z" id="Path-95" fill="url(#linearGradient-1)"></path><path d="M42.2618977,130.599999 L18.6288498,39.346682 C35.1963781,94.7991553 44.4655443,126.803359 46.4363483,135.359292 C36.7977222,98.273129 37.1671821,59.3222161 47.5447279,18.5065536 C50.0130045,83.9736907 50.0130045,123.104032 47.5447279,135.897577 C53.8446056,107.109254 61.8532456,78.8934485 71.5706476,51.2501597 C60.5789899,109.481137 53.8248785,139.103607 51.3083135,140.11757 L44.5181694,141.028003 L42.2618977,130.599999 Z" id="Path-94" fill="#248596"></path><rect id="Rectangle-43" fill="url(#linearGradient-1)" x="35.8566446" y="213.209964" width="2.93906923" height="181.99414"></rect><rect id="Rectangle-43-Copy-2" fill="url(#linearGradient-1)" x="176.931968" y="213.209964" width="2.93906923" height="181.99414"></rect><rect id="Rectangle-43-Copy" fill="url(#linearGradient-1)" x="106.394306" y="213.209964" width="2.93906923" height="162.557873"></rect><ellipse id="Oval-25" fill="#0D6574" opacity="0.100000001" cx="109.763775" cy="386.181171" rx="71.8262165" ry="10.0530864"></ellipse><path d="M110.509003,221.455653 C171.54144,221.455653 221.018006,218.555015 221.018006,214.976897 C221.018006,214.523508 221.018006,212.964142 221.018006,210.2988 C180.300108,209.098361 143.463773,208.498141 110.509003,208.498141 C76.1867016,208.498141 39.3503673,209.098361 9.09494702e-13,210.2988 C9.09558603e-13,213.044316 9.09590553e-13,214.603681 9.09590553e-13,214.976897 C9.09590553e-13,218.555015 49.4765659,221.455653 110.509003,221.455653 Z" id="Oval-36-Copy" fill="#0D6574"></path><ellipse id="Oval-36" fill="url(#linearGradient-2)" cx="110.509003" cy="210.265075" rx="110.509003" ry="6.4787558"></ellipse><path d="M138.807777,206.455532 L37.2902273,212.073684 C117.217483,212.073684 151.462605,212.073684 140.025594,212.073684 L138.807777,206.455532 Z" id="Path-93" fill="#0D6574" opacity="0.200000003"></path><g id="Group-79" transform="translate(136.372812, 153.723206)"><path d="M0,57.8797437 L0,1.14776471 L42.3225969,1.14776471 L42.3225969,57.8797437 C42.3225969,58.50653 32.8483609,59.0146407 21.1612984,59.0146407 C9.47423603,59.0146407 0,58.50653 0,57.8797437 Z" id="Combined-Shape" fill="#248596"></path><path d="M10.3455237,0.472117125 L42.0874714,0.472117125 L42.0874714,57.9735619 C35.6593013,58.5305702 30.8381738,58.8589505 27.6240888,58.9587026 C24.4100038,59.0584547 18.6504821,59.0584547 10.3455237,58.9587026 L10.3455237,0.472117125 Z" id="Rectangle-28-Copy-2" fill="url(#linearGradient-3)"></path><ellipse id="Oval-37" fill="#0D6574" opacity="0.200000003" cx="20.9261729" cy="10.1505182" rx="5.40788738" ry="5.42934694"></ellipse><g id="Combined-Shape"><use fill="black" fill-opacity="1" filter="url(#filter-5)" xlink:href="#path-4"></use><use fill="#AAFFA5" fill-rule="evenodd" xlink:href="#path-4"></use></g><g id="Group-78" transform="translate(0.000000, 24.589434)"><path d="M0,0 C6.94145524,0.629489501 13.9577844,0.944234251 21.0489875,0.944234251 C28.1401907,0.944234251 35.2313938,0.629489501 42.3225969,0 L42.3225969,26.8592275 C35.6269193,27.488717 28.6925159,27.8034617 21.519387,27.8034617 C14.346258,27.8034617 7.17312898,27.488717 0,26.8592275 L0,0 Z" id="Rectangle-28-Copy" fill="#0D6574" opacity="0.400000006"></path><path d="M2.45622214,4.53958774 C1.72578074,4.53958774 1.13364099,3.94679197 1.13364099,3.21554132 C1.13364099,2.48429067 1.72578074,1.89149489 2.45622214,1.89149489 C3.18666354,1.89149489 3.77880329,2.48429067 3.77880329,3.21554132 C3.77880329,3.94679197 3.18666354,4.53958774 2.45622214,4.53958774 Z M2.45622214,8.70087651 C1.72578074,8.70087651 1.13364099,8.10808073 1.13364099,7.37683008 C1.13364099,6.64557944 1.72578074,6.05278366 2.45622214,6.05278366 C3.18666354,6.05278366 3.77880329,6.64557944 3.77880329,7.37683008 C3.77880329,8.10808073 3.18666354,8.70087651 2.45622214,8.70087651 Z M2.45622214,12.8621653 C1.72578074,12.8621653 1.13364099,12.2693695 1.13364099,11.5381189 C1.13364099,10.8068682 1.72578074,10.2140724 2.45622214,10.2140724 C3.18666354,10.2140724 3.77880329,10.8068682 3.77880329,11.5381189 C3.77880329,12.2693695 3.18666354,12.8621653 2.45622214,12.8621653 Z M2.45622214,17.023454 C1.72578074,17.023454 1.13364099,16.4306583 1.13364099,15.6994076 C1.13364099,14.968157 1.72578074,14.3753612 2.45622214,14.3753612 C3.18666354,14.3753612 3.77880329,14.968157 3.77880329,15.6994076 C3.77880329,16.4306583 3.18666354,17.023454 2.45622214,17.023454 Z M2.45622214,21.1847428 C1.72578074,21.1847428 1.13364099,20.591947 1.13364099,19.8606964 C1.13364099,19.1294457 1.72578074,18.53665 2.45622214,18.53665 C3.18666354,18.53665 3.77880329,19.1294457 3.77880329,19.8606964 C3.77880329,20.591947 3.18666354,21.1847428 2.45622214,21.1847428 Z M2.45622214,25.3460316 C1.72578074,25.3460316 1.13364099,24.7532358 1.13364099,24.0219851 C1.13364099,23.2907345 1.72578074,22.6979387 2.45622214,22.6979387 C3.18666354,22.6979387 3.77880329,23.2907345 3.77880329,24.0219851 C3.77880329,24.7532358 3.18666354,25.3460316 2.45622214,25.3460316 Z M6.23502544,4.53958774 C5.50458403,4.53958774 4.91244428,3.94679197 4.91244428,3.21554132 C4.91244428,2.48429067 5.50458403,1.89149489 6.23502544,1.89149489 C6.96546684,1.89149489 7.55760659,2.48429067 7.55760659,3.21554132 C7.55760659,3.94679197 6.96546684,4.53958774 6.23502544,4.53958774 Z M6.23502544,8.70087651 C5.50458403,8.70087651 4.91244428,8.10808073 4.91244428,7.37683008 C4.91244428,6.64557944 5.50458403,6.05278366 6.23502544,6.05278366 C6.96546684,6.05278366 7.55760659,6.64557944 7.55760659,7.37683008 C7.55760659,8.10808073 6.96546684,8.70087651 6.23502544,8.70087651 Z M6.23502544,12.8621653 C5.50458403,12.8621653 4.91244428,12.2693695 4.91244428,11.5381189 C4.91244428,10.8068682 5.50458403,10.2140724 6.23502544,10.2140724 C6.96546684,10.2140724 7.55760659,10.8068682 7.55760659,11.5381189 C7.55760659,12.2693695 6.96546684,12.8621653 6.23502544,12.8621653 Z M6.23502544,17.023454 C5.50458403,17.023454 4.91244428,16.4306583 4.91244428,15.6994076 C4.91244428,14.968157 5.50458403,14.3753612 6.23502544,14.3753612 C6.96546684,14.3753612 7.55760659,14.968157 7.55760659,15.6994076 C7.55760659,16.4306583 6.96546684,17.023454 6.23502544,17.023454 Z M6.23502544,21.1847428 C5.50458403,21.1847428 4.91244428,20.591947 4.91244428,19.8606964 C4.91244428,19.1294457 5.50458403,18.53665 6.23502544,18.53665 C6.96546684,18.53665 7.55760659,19.1294457 7.55760659,19.8606964 C7.55760659,20.591947 6.96546684,21.1847428 6.23502544,21.1847428 Z M6.23502544,25.3460316 C5.50458403,25.3460316 4.91244428,24.7532358 4.91244428,24.0219851 C4.91244428,23.2907345 5.50458403,22.6979387 6.23502544,22.6979387 C6.96546684,22.6979387 7.55760659,23.2907345 7.55760659,24.0219851 C7.55760659,24.7532358 6.96546684,25.3460316 6.23502544,25.3460316 Z M10.0138287,4.53958774 C9.28338733,4.53958774 8.69124758,3.94679197 8.69124758,3.21554132 C8.69124758,2.48429067 9.28338733,1.89149489 10.0138287,1.89149489 C10.7442701,1.89149489 11.3364099,2.48429067 11.3364099,3.21554132 C11.3364099,3.94679197 10.7442701,4.53958774 10.0138287,4.53958774 Z M10.0138287,8.70087651 C9.28338733,8.70087651 8.69124758,8.10808073 8.69124758,7.37683008 C8.69124758,6.64557944 9.28338733,6.05278366 10.0138287,6.05278366 C10.7442701,6.05278366 11.3364099,6.64557944 11.3364099,7.37683008 C11.3364099,8.10808073 10.7442701,8.70087651 10.0138287,8.70087651 Z M10.0138287,12.8621653 C9.28338733,12.8621653 8.69124758,12.2693695 8.69124758,11.5381189 C8.69124758,10.8068682 9.28338733,10.2140724 10.0138287,10.2140724 C10.7442701,10.2140724 11.3364099,10.8068682 11.3364099,11.5381189 C11.3364099,12.2693695 10.7442701,12.8621653 10.0138287,12.8621653 Z M10.0138287,17.023454 C9.28338733,17.023454 8.69124758,16.4306583 8.69124758,15.6994076 C8.69124758,14.968157 9.28338733,14.3753612 10.0138287,14.3753612 C10.7442701,14.3753612 11.3364099,14.968157 11.3364099,15.6994076 C11.3364099,16.4306583 10.7442701,17.023454 10.0138287,17.023454 Z M10.0138287,21.1847428 C9.28338733,21.1847428 8.69124758,20.591947 8.69124758,19.8606964 C8.69124758,19.1294457 9.28338733,18.53665 10.0138287,18.53665 C10.7442701,18.53665 11.3364099,19.1294457 11.3364099,19.8606964 C11.3364099,20.591947 10.7442701,21.1847428 10.0138287,21.1847428 Z M10.0138287,25.3460316 C9.28338733,25.3460316 8.69124758,24.7532358 8.69124758,24.0219851 C8.69124758,23.2907345 9.28338733,22.6979387 10.0138287,22.6979387 C10.7442701,22.6979387 11.3364099,23.2907345 11.3364099,24.0219851 C11.3364099,24.7532358 10.7442701,25.3460316 10.0138287,25.3460316 Z M13.792632,4.53958774 C13.0621906,4.53958774 12.4700509,3.94679197 12.4700509,3.21554132 C12.4700509,2.48429067 13.0621906,1.89149489 13.792632,1.89149489 C14.5230734,1.89149489 15.1152132,2.48429067 15.1152132,3.21554132 C15.1152132,3.94679197 14.5230734,4.53958774 13.792632,4.53958774 Z M13.792632,8.70087651 C13.0621906,8.70087651 12.4700509,8.10808073 12.4700509,7.37683008 C12.4700509,6.64557944 13.0621906,6.05278366 13.792632,6.05278366 C14.5230734,6.05278366 15.1152132,6.64557944 15.1152132,7.37683008 C15.1152132,8.10808073 14.5230734,8.70087651 13.792632,8.70087651 Z M13.792632,12.8621653 C13.0621906,12.8621653 12.4700509,12.2693695 12.4700509,11.5381189 C12.4700509,10.8068682 13.0621906,10.2140724 13.792632,10.2140724 C14.5230734,10.2140724 15.1152132,10.8068682 15.1152132,11.5381189 C15.1152132,12.2693695 14.5230734,12.8621653 13.792632,12.8621653 Z M13.792632,17.023454 C13.0621906,17.023454 12.4700509,16.4306583 12.4700509,15.6994076 C12.4700509,14.968157 13.0621906,14.3753612 13.792632,14.3753612 C14.5230734,14.3753612 15.1152132,14.968157 15.1152132,15.6994076 C15.1152132,16.4306583 14.5230734,17.023454 13.792632,17.023454 Z M13.792632,21.1847428 C13.0621906,21.1847428 12.4700509,20.591947 12.4700509,19.8606964 C12.4700509,19.1294457 13.0621906,18.53665 13.792632,18.53665 C14.5230734,18.53665 15.1152132,19.1294457 15.1152132,19.8606964 C15.1152132,20.591947 14.5230734,21.1847428 13.792632,21.1847428 Z M13.792632,25.3460316 C13.0621906,25.3460316 12.4700509,24.7532358 12.4700509,24.0219851 C12.4700509,23.2907345 13.0621906,22.6979387 13.792632,22.6979387 C14.5230734,22.6979387 15.1152132,23.2907345 15.1152132,24.0219851 C15.1152132,24.7532358 14.5230734,25.3460316 13.792632,25.3460316 Z M17.5714353,4.53958774 C16.8409939,4.53958774 16.2488542,3.94679197 16.2488542,3.21554132 C16.2488542,2.48429067 16.8409939,1.89149489 17.5714353,1.89149489 C18.3018767,1.89149489 18.8940165,2.48429067 18.8940165,3.21554132 C18.8940165,3.94679197 18.3018767,4.53958774 17.5714353,4.53958774 Z M17.5714353,8.70087651 C16.8409939,8.70087651 16.2488542,8.10808073 16.2488542,7.37683008 C16.2488542,6.64557944 16.8409939,6.05278366 17.5714353,6.05278366 C18.3018767,6.05278366 18.8940165,6.64557944 18.8940165,7.37683008 C18.8940165,8.10808073 18.3018767,8.70087651 17.5714353,8.70087651 Z M17.5714353,12.8621653 C16.8409939,12.8621653 16.2488542,12.2693695 16.2488542,11.5381189 C16.2488542,10.8068682 16.8409939,10.2140724 17.5714353,10.2140724 C18.3018767,10.2140724 18.8940165,10.8068682 18.8940165,11.5381189 C18.8940165,12.2693695 18.3018767,12.8621653 17.5714353,12.8621653 Z M17.5714353,17.023454 C16.8409939,17.023454 16.2488542,16.4306583 16.2488542,15.6994076 C16.2488542,14.968157 16.8409939,14.3753612 17.5714353,14.3753612 C18.3018767,14.3753612 18.8940165,14.968157 18.8940165,15.6994076 C18.8940165,16.4306583 18.3018767,17.023454 17.5714353,17.023454 Z M17.5714353,21.1847428 C16.8409939,21.1847428 16.2488542,20.591947 16.2488542,19.8606964 C16.2488542,19.1294457 16.8409939,18.53665 17.5714353,18.53665 C18.3018767,18.53665 18.8940165,19.1294457 18.8940165,19.8606964 C18.8940165,20.591947 18.3018767,21.1847428 17.5714353,21.1847428 Z M17.5714353,25.3460316 C16.8409939,25.3460316 16.2488542,24.7532358 16.2488542,24.0219851 C16.2488542,23.2907345 16.8409939,22.6979387 17.5714353,22.6979387 C18.3018767,22.6979387 18.8940165,23.2907345 18.8940165,24.0219851 C18.8940165,24.7532358 18.3018767,25.3460316 17.5714353,25.3460316 Z M21.3502386,4.53958774 C20.6197972,4.53958774 20.0276575,3.94679197 20.0276575,3.21554132 C20.0276575,2.48429067 20.6197972,1.89149489 21.3502386,1.89149489 C22.08068,1.89149489 22.6728198,2.48429067 22.6728198,3.21554132 C22.6728198,3.94679197 22.08068,4.53958774 21.3502386,4.53958774 Z M21.3502386,8.70087651 C20.6197972,8.70087651 20.0276575,8.10808073 20.0276575,7.37683008 C20.0276575,6.64557944 20.6197972,6.05278366 21.3502386,6.05278366 C22.08068,6.05278366 22.6728198,6.64557944 22.6728198,7.37683008 C22.6728198,8.10808073 22.08068,8.70087651 21.3502386,8.70087651 Z M21.3502386,12.8621653 C20.6197972,12.8621653 20.0276575,12.2693695 20.0276575,11.5381189 C20.0276575,10.8068682 20.6197972,10.2140724 21.3502386,10.2140724 C22.08068,10.2140724 22.6728198,10.8068682 22.6728198,11.5381189 C22.6728198,12.2693695 22.08068,12.8621653 21.3502386,12.8621653 Z M21.3502386,17.023454 C20.6197972,17.023454 20.0276575,16.4306583 20.0276575,15.6994076 C20.0276575,14.968157 20.6197972,14.3753612 21.3502386,14.3753612 C22.08068,14.3753612 22.6728198,14.968157 22.6728198,15.6994076 C22.6728198,16.4306583 22.08068,17.023454 21.3502386,17.023454 Z M21.3502386,21.1847428 C20.6197972,21.1847428 20.0276575,20.591947 20.0276575,19.8606964 C20.0276575,19.1294457 20.6197972,18.53665 21.3502386,18.53665 C22.08068,18.53665 22.6728198,19.1294457 22.6728198,19.8606964 C22.6728198,20.591947 22.08068,21.1847428 21.3502386,21.1847428 Z M21.3502386,25.3460316 C20.6197972,25.3460316 20.0276575,24.7532358 20.0276575,24.0219851 C20.0276575,23.2907345 20.6197972,22.6979387 21.3502386,22.6979387 C22.08068,22.6979387 22.6728198,23.2907345 22.6728198,24.0219851 C22.6728198,24.7532358 22.08068,25.3460316 21.3502386,25.3460316 Z M25.1290419,4.53958774 C24.3986005,4.53958774 23.8064608,3.94679197 23.8064608,3.21554132 C23.8064608,2.48429067 24.3986005,1.89149489 25.1290419,1.89149489 C25.8594833,1.89149489 26.4516231,2.48429067 26.4516231,3.21554132 C26.4516231,3.94679197 25.8594833,4.53958774 25.1290419,4.53958774 Z M25.1290419,8.70087651 C24.3986005,8.70087651 23.8064608,8.10808073 23.8064608,7.37683008 C23.8064608,6.64557944 24.3986005,6.05278366 25.1290419,6.05278366 C25.8594833,6.05278366 26.4516231,6.64557944 26.4516231,7.37683008 C26.4516231,8.10808073 25.8594833,8.70087651 25.1290419,8.70087651 Z M25.1290419,12.8621653 C24.3986005,12.8621653 23.8064608,12.2693695 23.8064608,11.5381189 C23.8064608,10.8068682 24.3986005,10.2140724 25.1290419,10.2140724 C25.8594833,10.2140724 26.4516231,10.8068682 26.4516231,11.5381189 C26.4516231,12.2693695 25.8594833,12.8621653 25.1290419,12.8621653 Z M25.1290419,17.023454 C24.3986005,17.023454 23.8064608,16.4306583 23.8064608,15.6994076 C23.8064608,14.968157 24.3986005,14.3753612 25.1290419,14.3753612 C25.8594833,14.3753612 26.4516231,14.968157 26.4516231,15.6994076 C26.4516231,16.4306583 25.8594833,17.023454 25.1290419,17.023454 Z M25.1290419,21.1847428 C24.3986005,21.1847428 23.8064608,20.591947 23.8064608,19.8606964 C23.8064608,19.1294457 24.3986005,18.53665 25.1290419,18.53665 C25.8594833,18.53665 26.4516231,19.1294457 26.4516231,19.8606964 C26.4516231,20.591947 25.8594833,21.1847428 25.1290419,21.1847428 Z M25.1290419,25.3460316 C24.3986005,25.3460316 23.8064608,24.7532358 23.8064608,24.0219851 C23.8064608,23.2907345 24.3986005,22.6979387 25.1290419,22.6979387 C25.8594833,22.6979387 26.4516231,23.2907345 26.4516231,24.0219851 C26.4516231,24.7532358 25.8594833,25.3460316 25.1290419,25.3460316 Z M28.9078452,4.53958774 C28.1774038,4.53958774 27.5852641,3.94679197 27.5852641,3.21554132 C27.5852641,2.48429067 28.1774038,1.89149489 28.9078452,1.89149489 C29.6382866,1.89149489 30.2304264,2.48429067 30.2304264,3.21554132 C30.2304264,3.94679197 29.6382866,4.53958774 28.9078452,4.53958774 Z M28.9078452,8.70087651 C28.1774038,8.70087651 27.5852641,8.10808073 27.5852641,7.37683008 C27.5852641,6.64557944 28.1774038,6.05278366 28.9078452,6.05278366 C29.6382866,6.05278366 30.2304264,6.64557944 30.2304264,7.37683008 C30.2304264,8.10808073 29.6382866,8.70087651 28.9078452,8.70087651 Z M28.9078452,12.8621653 C28.1774038,12.8621653 27.5852641,12.2693695 27.5852641,11.5381189 C27.5852641,10.8068682 28.1774038,10.2140724 28.9078452,10.2140724 C29.6382866,10.2140724 30.2304264,10.8068682 30.2304264,11.5381189 C30.2304264,12.2693695 29.6382866,12.8621653 28.9078452,12.8621653 Z M28.9078452,17.023454 C28.1774038,17.023454 27.5852641,16.4306583 27.5852641,15.6994076 C27.5852641,14.968157 28.1774038,14.3753612 28.9078452,14.3753612 C29.6382866,14.3753612 30.2304264,14.968157 30.2304264,15.6994076 C30.2304264,16.4306583 29.6382866,17.023454 28.9078452,17.023454 Z M28.9078452,21.1847428 C28.1774038,21.1847428 27.5852641,20.591947 27.5852641,19.8606964 C27.5852641,19.1294457 28.1774038,18.53665 28.9078452,18.53665 C29.6382866,18.53665 30.2304264,19.1294457 30.2304264,19.8606964 C30.2304264,20.591947 29.6382866,21.1847428 28.9078452,21.1847428 Z M28.9078452,25.3460316 C28.1774038,25.3460316 27.5852641,24.7532358 27.5852641,24.0219851 C27.5852641,23.2907345 28.1774038,22.6979387 28.9078452,22.6979387 C29.6382866,22.6979387 30.2304264,23.2907345 30.2304264,24.0219851 C30.2304264,24.7532358 29.6382866,25.3460316 28.9078452,25.3460316 Z M32.6866485,4.53958774 C31.9562071,4.53958774 31.3640673,3.94679197 31.3640673,3.21554132 C31.3640673,2.48429067 31.9562071,1.89149489 32.6866485,1.89149489 C33.4170899,1.89149489 34.0092297,2.48429067 34.0092297,3.21554132 C34.0092297,3.94679197 33.4170899,4.53958774 32.6866485,4.53958774 Z M32.6866485,8.70087651 C31.9562071,8.70087651 31.3640673,8.10808073 31.3640673,7.37683008 C31.3640673,6.64557944 31.9562071,6.05278366 32.6866485,6.05278366 C33.4170899,6.05278366 34.0092297,6.64557944 34.0092297,7.37683008 C34.0092297,8.10808073 33.4170899,8.70087651 32.6866485,8.70087651 Z M32.6866485,12.8621653 C31.9562071,12.8621653 31.3640673,12.2693695 31.3640673,11.5381189 C31.3640673,10.8068682 31.9562071,10.2140724 32.6866485,10.2140724 C33.4170899,10.2140724 34.0092297,10.8068682 34.0092297,11.5381189 C34.0092297,12.2693695 33.4170899,12.8621653 32.6866485,12.8621653 Z M32.6866485,17.023454 C31.9562071,17.023454 31.3640673,16.4306583 31.3640673,15.6994076 C31.3640673,14.968157 31.9562071,14.3753612 32.6866485,14.3753612 C33.4170899,14.3753612 34.0092297,14.968157 34.0092297,15.6994076 C34.0092297,16.4306583 33.4170899,17.023454 32.6866485,17.023454 Z M32.6866485,21.1847428 C31.9562071,21.1847428 31.3640673,20.591947 31.3640673,19.8606964 C31.3640673,19.1294457 31.9562071,18.53665 32.6866485,18.53665 C33.4170899,18.53665 34.0092297,19.1294457 34.0092297,19.8606964 C34.0092297,20.591947 33.4170899,21.1847428 32.6866485,21.1847428 Z M32.6866485,25.3460316 C31.9562071,25.3460316 31.3640673,24.7532358 31.3640673,24.0219851 C31.3640673,23.2907345 31.9562071,22.6979387 32.6866485,22.6979387 C33.4170899,22.6979387 34.0092297,23.2907345 34.0092297,24.0219851 C34.0092297,24.7532358 33.4170899,25.3460316 32.6866485,25.3460316 Z M36.4654518,4.53958774 C35.7350104,4.53958774 35.1428706,3.94679197 35.1428706,3.21554132 C35.1428706,2.48429067 35.7350104,1.89149489 36.4654518,1.89149489 C37.1958932,1.89149489 37.7880329,2.48429067 37.7880329,3.21554132 C37.7880329,3.94679197 37.1958932,4.53958774 36.4654518,4.53958774 Z M36.4654518,8.70087651 C35.7350104,8.70087651 35.1428706,8.10808073 35.1428706,7.37683008 C35.1428706,6.64557944 35.7350104,6.05278366 36.4654518,6.05278366 C37.1958932,6.05278366 37.7880329,6.64557944 37.7880329,7.37683008 C37.7880329,8.10808073 37.1958932,8.70087651 36.4654518,8.70087651 Z M36.4654518,12.8621653 C35.7350104,12.8621653 35.1428706,12.2693695 35.1428706,11.5381189 C35.1428706,10.8068682 35.7350104,10.2140724 36.4654518,10.2140724 C37.1958932,10.2140724 37.7880329,10.8068682 37.7880329,11.5381189 C37.7880329,12.2693695 37.1958932,12.8621653 36.4654518,12.8621653 Z M36.4654518,17.023454 C35.7350104,17.023454 35.1428706,16.4306583 35.1428706,15.6994076 C35.1428706,14.968157 35.7350104,14.3753612 36.4654518,14.3753612 C37.1958932,14.3753612 37.7880329,14.968157 37.7880329,15.6994076 C37.7880329,16.4306583 37.1958932,17.023454 36.4654518,17.023454 Z M36.4654518,21.1847428 C35.7350104,21.1847428 35.1428706,20.591947 35.1428706,19.8606964 C35.1428706,19.1294457 35.7350104,18.53665 36.4654518,18.53665 C37.1958932,18.53665 37.7880329,19.1294457 37.7880329,19.8606964 C37.7880329,20.591947 37.1958932,21.1847428 36.4654518,21.1847428 Z M36.4654518,25.3460316 C35.7350104,25.3460316 35.1428706,24.7532358 35.1428706,24.0219851 C35.1428706,23.2907345 35.7350104,22.6979387 36.4654518,22.6979387 C37.1958932,22.6979387 37.7880329,23.2907345 37.7880329,24.0219851 C37.7880329,24.7532358 37.1958932,25.3460316 36.4654518,25.3460316 Z M40.2442551,4.53958774 C39.5138137,4.53958774 38.9216739,3.94679197 38.9216739,3.21554132 C38.9216739,2.48429067 39.5138137,1.89149489 40.2442551,1.89149489 C40.9746965,1.89149489 41.5668362,2.48429067 41.5668362,3.21554132 C41.5668362,3.94679197 40.9746965,4.53958774 40.2442551,4.53958774 Z M40.2442551,8.70087651 C39.5138137,8.70087651 38.9216739,8.10808073 38.9216739,7.37683008 C38.9216739,6.64557944 39.5138137,6.05278366 40.2442551,6.05278366 C40.9746965,6.05278366 41.5668362,6.64557944 41.5668362,7.37683008 C41.5668362,8.10808073 40.9746965,8.70087651 40.2442551,8.70087651 Z M40.2442551,12.8621653 C39.5138137,12.8621653 38.9216739,12.2693695 38.9216739,11.5381189 C38.9216739,10.8068682 39.5138137,10.2140724 40.2442551,10.2140724 C40.9746965,10.2140724 41.5668362,10.8068682 41.5668362,11.5381189 C41.5668362,12.2693695 40.9746965,12.8621653 40.2442551,12.8621653 Z M40.2442551,17.023454 C39.5138137,17.023454 38.9216739,16.4306583 38.9216739,15.6994076 C38.9216739,14.968157 39.5138137,14.3753612 40.2442551,14.3753612 C40.9746965,14.3753612 41.5668362,14.968157 41.5668362,15.6994076 C41.5668362,16.4306583 40.9746965,17.023454 40.2442551,17.023454 Z M40.2442551,21.1847428 C39.5138137,21.1847428 38.9216739,20.591947 38.9216739,19.8606964 C38.9216739,19.1294457 39.5138137,18.53665 40.2442551,18.53665 C40.9746965,18.53665 41.5668362,19.1294457 41.5668362,19.8606964 C41.5668362,20.591947 40.9746965,21.1847428 40.2442551,21.1847428 Z M40.2442551,25.3460316 C39.5138137,25.3460316 38.9216739,24.7532358 38.9216739,24.0219851 C38.9216739,23.2907345 39.5138137,22.6979387 40.2442551,22.6979387 C40.9746965,22.6979387 41.5668362,23.2907345 41.5668362,24.0219851 C41.5668362,24.7532358 40.9746965,25.3460316 40.2442551,25.3460316 Z" id="Combined-Shape" fill="#075865" opacity="0.5"></path></g><g id="Rectangle-29"><use fill="black" fill-opacity="1" filter="url(#filter-7)" xlink:href="#path-6"></use><use fill="#AAFFA5" fill-rule="evenodd" xlink:href="#path-6"></use></g><g id="Rectangle-29-Copy"><use fill="black" fill-opacity="1" filter="url(#filter-9)" xlink:href="#path-8"></use><use fill="#FF6849" fill-rule="evenodd" xlink:href="#path-8"></use></g><ellipse id="Oval-35" stroke="#6DF565" stroke-width="0.75264" fill="#248596" cx="21.1612984" cy="1.13489694" rx="20.7849784" ry="1"></ellipse></g><g id="Group-81" transform="translate(79.942683, 152.545250)"><polygon id="Rectangle-42" fill="#248596" points="21.8112261 45.9402684 25.925923 45.9402684 25.2759954 49.4741352 21.1612984 49.4741352"></polygon><g id="Group-80" transform="translate(10.580649, 0.000000)"><path d="M9.2750327,0.809784929 L28.1670591,0.809784929 C29.4660329,0.809784929 30.5190591,1.8628112 30.5190591,3.16178493 C30.5190591,3.23431657 30.515704,3.30680938 30.5090045,3.37903095 L26.7486625,43.916093 C26.5803517,45.7305092 25.0579505,47.118224 23.2357445,47.118224 L4.34371804,47.118224 C3.04474431,47.118224 1.99171804,46.0651977 1.99171804,44.766224 C1.99171804,44.6936924 1.99507317,44.6211996 2.00177266,44.548978 L5.76211463,4.0119159 C5.93042544,2.19749969 7.45282671,0.809784929 9.2750327,0.809784929 Z" id="Rectangle-40" fill="#248596"></path><path d="M7.70256347,0.578268295 L26.5970204,0.578268295 C27.8959941,0.578268295 28.9490204,1.63129456 28.9490204,2.93026829 C28.9490204,3.00584014 28.9453781,3.08136807 28.9381062,3.15658923 L24.9964267,43.9297054 C24.8215894,45.7382403 23.3017643,47.118224 21.484798,47.118224 L2.59034111,47.118224 C1.29136738,47.118224 0.238341108,46.0651977 0.238341108,44.766224 C0.238341108,44.6906522 0.241983392,44.6151242 0.249255284,44.5399031 L4.19093474,3.76678689 C4.36577211,1.95825204 5.88559721,0.578268295 7.70256347,0.578268295 Z" id="Rectangle-40-Copy" fill="#78E4CC"></path><polygon id="Path-90" fill="#248596" points="5.31394067 4.43741356 27.8864541 4.43741356 24.3285023 41.8058748 1.74262506 41.8058748"></polygon><path d="M11.2393897,45.9402684 C12.2133116,45.9402684 13.1047328,45.1491854 13.2304348,44.173335 C13.3561368,43.1974846 12.6685187,42.4064016 11.6945969,42.4064016 C10.720675,42.4064016 9.82925375,43.1974846 9.70355176,44.173335 C9.57784977,45.1491854 10.2654678,45.9402684 11.2393897,45.9402684 Z" id="Oval-39" fill="#248596"></path><path d="M13.7989623,3.01718374 C13.636642,3.01718374 13.5050554,2.88533657 13.5050554,2.72269484 C13.5050554,2.56005311 13.636642,2.42820594 13.7989623,2.42820594 L18.9334404,2.42820594 C19.0957607,2.42820594 19.2273473,2.56005311 19.2273473,2.72269484 C19.2273473,2.88533657 19.0957607,3.01718374 18.9334404,3.01718374 L13.7989623,3.01718374 Z" id="Path-91" fill="#248596" fill-rule="nonzero"></path></g><path d="M25.2759954,48.0029928 L39.3831554,48.0029928 C40.0326422,48.0029928 40.5591554,48.529506 40.5591554,49.1789928 L40.5591554,57.8655716 C40.5591554,58.5150585 40.0326422,59.0415716 39.3831554,59.0415716 L25.2759954,59.0415716 L25.2759954,48.0029928 Z" id="Rectangle-41" fill="#248596"></path><path d="M35.2139845,48.0059689 L33.6922596,48.0059689 C31.5568383,48.0059689 29.6306578,49.2893933 28.8083556,51.2601402 L26.5857904,56.5867875 C26.2106365,57.4858894 26.6353802,58.5188778 27.5344821,58.8940318 C27.7479616,58.983107 27.9768762,59.0293252 28.2081927,59.030055 L32.1780604,59.0425805 L1.67597562,59.0425805 C1.02648876,59.0425805 0.499975622,58.5160674 0.499975622,57.8665805 C0.499975622,57.6684173 0.550050825,57.4734673 0.645551025,57.2998344 L5.25464486,48.9198498 C5.56467301,48.3561747 6.15697235,48.0059689 6.80028175,48.0059689 L35.2139845,48.0059689 Z" id="Path-92" fill="url(#linearGradient-10)"></path><ellipse id="Oval-40" fill="#EDF5F4" opacity="0.229999989" cx="13.5197185" cy="57.1308466" rx="4.11469692" ry="1"></ellipse></g><rect id="Rectangle-44" fill="#DAFFF3" x="34.6810169" y="126.630227" width="22.92474" height="83.6348476"></rect><rect id="Rectangle-44-Copy" fill="#A8F0D9" x="45.84948" y="126.630227" width="11.7562769" height="83.6348476"></rect></g><g id="Group-27" transform="translate(0.000000, 342.409091)"><g id="Group-21" transform="translate(0.000000, 0.000000)"><g id="Group-19" transform="translate(72.783778, 57.386129)"><path d="M7.53125659,90.062577 C43.6461879,39.8071783 81.6922059,15.6245121 121.669311,17.5145784 C132.692121,18.0357227 144.254179,19.1072959 156.355486,20.729298 C152.789199,52.8466226 110.66811,34.9103663 113.863876,44.6740414 C118.27626,58.1547175 109.038714,85.5825151 81.9689899,69.400804 C54.8992662,53.219093 63.5976881,108.801564 35.5644724,99.4320703 C16.8756618,93.1857414 7.53125659,90.062577 7.53125659,90.062577 Z" id="Path-31" fill="#33BAAA" transform="translate(81.943371, 58.957895) rotate(-13.000000) translate(-81.943371, -58.957895) "></path><path d="M70.9957021,27.6853566 C71.5931271,29.1281316 72.1174004,30.9746131 72.5489993,33.3051273 C75.317222,48.2527601 57.0888688,72.5315577 17.8639397,106.14152 L16.4354653,106.00445 C31.5286819,69.9266293 49.7154275,43.820265 70.9957021,27.6853566 Z" id="Combined-Shape" fill="#1C9486"></path><path d="M100.723478,49.6196516 C86.2272416,42.4971446 70.0905291,43.0977058 52.3133402,51.4213351" id="Path-33" stroke="#0D6574" stroke-width="2.7243216"></path><path d="M130.291887,22.593515 C115.795651,15.471008 99.6589388,16.0715692 81.8817498,24.3951985" id="Path-33-Copy" stroke="#0D6574" stroke-width="2.7243216"></path><path d="M87.8760046,19.6435142 C55.035283,44.9357396 35.0487624,73.5276894 27.9164427,105.419364" id="Path-34" stroke="#0D6574" stroke-width="2.7243216"></path></g><g id="Group-7-Copy-4" transform="translate(80.489007, 87.500000) scale(-1, 1) translate(-80.489007, -87.500000) translate(0.489007, 0.000000)"><path d="M8.20272532,119.244153 C22.4882431,77.9479639 35.8277464,54.9329705 48.2212354,50.1991725 C66.8114688,43.0984755 59.5872548,76.0291947 67.8370646,69.9589689 C76.0868744,63.8887431 83.9175079,37.4491117 98.8330254,37.4491117 C113.748543,37.4491117 99.1411194,62.2758914 108.202045,56.4376922 C117.26297,50.599493 135.767226,25.6338335 148.387098,43.0984755 C161.006971,60.5631175 126.794719,69.4113231 125.577421,76.862537 C124.360124,84.3137509 141.455533,81.2911767 138.384596,92.5067155 C135.313659,103.722254 104.288455,105.797427 98.8330254,112.302247 C93.3775962,118.807067 122.492299,117.727539 104.645129,132.966155 C92.747016,143.125233 60.5995481,138.551232 8.20272532,119.244153 Z M92.6174333,71.6409858 C96.8842737,60.7506044 97.9509838,55.2240785 95.8175636,55.0614082 C93.6841434,54.8987379 92.6174333,60.4252637 92.6174333,71.6409858 Z" id="Combined-Shape" fill="#33BAAA" transform="translate(79.689957, 87.606782) rotate(-60.000000) translate(-79.689957, -87.606782) "></path><path d="M7.9216109,124.9083 C65.2022574,111.640898 108.676649,87.8036316 138.344786,53.3965003" id="Path-117" stroke="#0D6574" stroke-width="2.7243216" transform="translate(73.133199, 89.152400) rotate(-60.000000) translate(-73.133199, -89.152400) "></path><path d="M62.8289935,138.892559 C67.9800559,130.973867 70.4636653,118.526481 70.2798217,101.550399" id="Path-118" stroke="#0D6574" stroke-width="2.7243216" transform="translate(66.559159, 120.221479) rotate(-60.000000) translate(-66.559159, -120.221479) "></path><path d="M80.6935573,62.622261 C95.8492158,61.7872198 106.140114,64.3957605 111.56625,70.4478833" id="Path-119" stroke="#0D6574" stroke-width="2.7243216" transform="translate(96.129904, 66.459138) rotate(-60.000000) translate(-96.129904, -66.459138) "></path><path d="M74.1978911,36.5368479 L74.4873991,24.2000356" id="Path-120" stroke="#0D6574" stroke-width="2.7243216" transform="translate(74.342645, 30.368442) rotate(-60.000000) translate(-74.342645, -30.368442) "></path></g></g></g><g id="Group-85" transform="translate(424.815262, 262.684099) rotate(3.000000) translate(-424.815262, -262.684099) translate(349.868997, 21.792179)"><path d="M43.7378986,33.2586657 C42.844617,40.7115933 43.4142459,45.3987797 45.4467853,47.3202251 C47.4793247,49.2416704 47.4793247,53.7526107 45.4467853,60.8530457 C50.651956,60.4459531 52.1516821,62.0554546 49.9459634,65.6815504 C46.6373853,71.120694 41.3250672,82.7095869 55.1490863,85.9121296 C64.365099,88.0471581 71.2099505,84.4447492 75.683641,75.1049029 L78.1692943,57.2506368 L60.7490508,25.7997161 L43.7378986,33.2586657 Z" id="Path-107" fill="#0B4651"></path><g id="Group-84" transform="translate(94.638029, 286.832189)"><path d="M25.0044769,155.799407 C11.0275933,174.112348 2.85779098,186.484525 0.49507007,192.915938 C8.22742993,194.409385 19.9199621,188.928322 35.5726667,176.472749 L37.2164886,187.188935 L40.2202029,187.188935 L41.3452449,155.799407 L25.0044769,155.799407 Z" id="Path-140" fill="#0D6574"></path><path d="M7.99647636,3.86876908 L12.4772299,71.7551528 L25.278174,155.807205 L12.4772299,179.238535 C24.7109927,171.766908 34.2846224,163.956465 41.198119,155.807205 C36.114511,127.931402 41.198119,97.1046364 36.114511,80.8415138 C32.7254389,69.999432 34.4199749,43.140847 41.198119,0.26575859 L7.99647636,3.86876908 Z" id="Path-139" fill="#FFD7B3"></path></g><g id="Group-84-Copy" transform="translate(57.605757, 287.421166)"><polygon id="Path-140" fill="#0D6574" points="28.3420487 155.21043 0.326454473 193.8697 37.9239221 175.883772 39.5677439 186.599957 42.5417713 187.487528 43.6965003 155.21043"></polygon><path d="M10.3477317,3.27979128 L14.8284853,71.166175 L27.6294294,155.218227 L14.8284853,178.649558 C27.062248,171.177931 36.6358778,163.367487 43.5493744,155.218227 C38.4657663,127.342424 43.5493744,96.5156586 38.4657663,80.252536 C35.0766943,69.4104542 38.5950689,42.6835614 49.0208902,0.0718574837 L10.3477317,3.27979128 Z" id="Path-139" fill="#FFD7B3"></path></g><path d="M62.7190665,200.97043 L62.7190665,323.742744 C102.764337,329.76572 130.607522,326.445249 146.248621,313.781332 C126.989472,278.477228 157.402842,219.944945 121.663749,184.584596 C121.179638,184.105616 121.665604,182.825432 121.683685,181.967741 C122.167181,159.033409 105.003069,160.071956 70.191348,185.083383 L62.7190665,200.97043 Z" id="Path-138" fill="#0D6574"></path><path d="M68.8541441,80.0888481 C55.7446477,86.013578 46.2059992,97.6156805 40.2381986,114.895156 C45.5455855,119.484819 52.5882206,144.281046 61.366104,189.283836 L119.897712,189.283836 L132.011939,131.786599 L137.686794,131.786599 C134.508224,102.801399 131.988871,87.5055132 130.128734,85.8989407 C128.268598,84.2923682 118.083984,79.7375123 99.5748929,72.234373 L68.8541441,80.0888481 Z" id="Path-131" fill="url(#linearGradient-11)"></path><path d="M74.5233714,58.093252 L74.5233714,74.3890363 L68.2661029,80.0686327 C66.9537244,98.2092663 69.7993996,108.479442 76.8031285,110.879161 C80.7048121,106.595453 89.1620707,93.6713122 102.174904,72.1067384 L90.9494396,43.2963048 L74.5233714,58.093252 Z" id="Path-108" fill="url(#linearGradient-12)"></path><path d="M95.0108439,53.7199995 C94.8866126,54.0286421 94.753353,54.3369368 94.6110651,54.6448837 C89.8965277,64.8483285 83.7342871,67.4200959 74.5233714,67.6644262 L74.5233714,58.093252 L90.9494396,43.2963048 L95.0108439,53.7199995 Z" id="Combined-Shape" fill="#987250" opacity="0.200000003"></path><path d="M47.9318133,30.2148833 C53.235039,43.3603353 56.9223408,54.1498276 58.9937185,62.5833603 C74.5537139,63.5738146 83.5484713,63.6978808 89.9085543,49.9330613 C94.1486096,40.756515 90.3716287,31.2710924 78.5776116,21.4767935 C68.0293442,18.0033526 59.9854712,17.3413597 54.4459925,19.4908147 C48.9065138,21.6402697 46.7351207,25.2149592 47.9318133,30.2148833 Z" id="Path-99" fill="#FFD7B3"></path><path d="M51.0001799,36.0260237 C43.5547202,35.4433205 35.3405836,38.4929449 35.3170643,32.3240351 C35.3013847,28.2114285 37.915214,26.1551253 43.158552,26.1551253 C40.1615727,20.8256613 40.1615727,17.2607834 43.158552,15.4604915 C46.1555313,13.6601996 48.3763494,12.7600537 49.8210063,12.7600537 C55.6987002,4.86404902 61.9594741,1.94509099 68.6033279,4.00317957 C78.5691087,7.09031242 79.679149,-2.17108615 88.439743,0.916046707 C97.2003371,4.00317957 97.4668888,15.4604915 101.930216,15.4604915 C106.393543,15.4604915 114.294968,15.8225494 115.005893,20.9888373 C123.024915,21.6508249 130.343702,19.8351794 131.718514,32.3240351 C133.093326,44.8128908 144.035158,33.3587923 143.52094,38.1748053 C143.006722,42.9908182 132.520309,50.9668041 138.020625,55.7935288 C143.52094,60.6202536 155.439894,76.9021479 146.73026,82.8450393 C140.923836,86.8069669 135.27599,89.5259719 129.786722,91.0020541 C117.015122,79.1107407 106.907157,73.6305979 99.4628245,74.5616256 C96.6158167,70.0343347 92.5673156,76.3883032 88.439743,70.6028864 C84.3121704,64.8174696 90.7790876,63.4056727 91.3582778,59.5437204 C92.5673156,51.4820404 86.1975823,55.7935288 88.439743,49.4168106 C90.6819038,43.0400924 79.9234238,43.3288711 84.0159712,32.3240351 C77.296977,32.3240351 74.2579947,29.8081968 74.8990244,24.7765201 L65.6078208,29.0194533 L62.0095178,23.2533633 L64.2673993,29.4628074 L56.2628545,33.2355874 C54.2077981,31.1449531 53.0197057,29.21245 52.6985775,27.4380781 C52.4989445,27.9026647 52.8988503,30.0160573 53.898295,33.7782559 C53.196322,35.3730393 52.2302837,36.1222952 51.0001799,36.0260237 Z" id="Path-102" fill="#0B4651"></path><g id="Group-83-Copy-3" transform="translate(7.053766, 110.727826)"><path d="M1.31945195,48.5366973 L0.33713613,21.5601406 L29.2070895,0.893087413 C33.1630072,-0.464146543 35.3996001,0.0214722146 35.9168682,2.34994369 C32.516582,7.21445982 24.4132487,22.6100443 11.6068682,48.5366973 L1.31945195,48.5366973 Z" id="Path-137" fill="#DAFFF3"></path><polygon id="Path-137-Copy" fill="#9BE4CD" opacity="0.569999993" points="1.57108684 45.8083077 0.33713613 21.5601406 12.9319204 24.322788 11.8585031 48.2323772"></polygon><polygon id="Path-136" fill="#38B38B" points="9.31638212 51.3391284 7.59288695 23.1254546 36.0203657 2.33902013 40.4329058 28.8371855 17.3326578 51.3391284"></polygon></g><g id="Group-83-Copy-2" transform="translate(19.985671, 113.083738)"><path d="M1.31945195,42.0766854 L0.33713613,21.5601406 L29.2070895,0.893087413 C33.1630072,-0.464146543 35.3996001,0.0214722146 35.9168682,2.34994369 C32.516582,7.21445982 24.4132487,21.2647302 11.6068682,44.500755 L1.31945195,42.0766854 Z" id="Path-137" fill="#DAFFF3"></path><polygon id="Path-137-Copy" fill="#9BE4CD" opacity="0.569999993" points="1.36047286 46.6333911 0.33713613 21.5601406 12.9319204 24.322788 11.6698903 48.3978274"></polygon><polygon id="Path-136" fill="#8BE2C6" points="9.48920074 47.3608658 7.59288695 23.1254546 36.0203657 2.33902013 40.4329058 28.8371855 13.1415902 44.9860061"></polygon></g><g id="Group-83-Copy" transform="translate(31.741948, 118.384538)"><path d="M1.31945195,42.0766854 L0.33713613,21.5601406 L29.2070895,0.893087413 C33.1630072,-0.464146543 35.3996001,0.0214722146 35.9168682,2.34994369 C32.516582,7.21445982 24.4132487,21.2647302 11.6068682,44.500755 L1.31945195,42.0766854 Z" id="Path-137" fill="#DAFFF3"></path><polygon id="Path-137-Copy" fill="#9BE4CD" opacity="0.569999993" points="1.31945195 42.0766854 0.33713613 21.5601406 12.9319204 24.322788 11.6068682 44.500755"></polygon><polygon id="Path-136" fill="#38B38B" points="9.31638212 42.542768 7.59288695 23.1254546 36.0203657 2.33902013 40.4329058 28.8371855 13.1415902 44.9860061"></polygon></g><g id="Group-83" transform="translate(45.849480, 120.151471)"><path d="M1.31945195,42.0766854 L0.33713613,21.5601406 L29.2070895,0.893087413 C33.1630072,-0.464146543 35.3996001,0.0214722146 35.9168682,2.34994369 C32.516582,7.21445982 24.4132487,21.2647302 11.6068682,44.500755 L1.31945195,42.0766854 Z" id="Path-137" fill="#DAFFF3"></path><polygon id="Path-137-Copy" fill="#CCF7E9" points="1.31945195 42.0766854 0.33713613 21.5601406 12.9319204 24.322788 11.6068682 44.500755"></polygon><polygon id="Path-136" fill="#8BE2C6" points="9.31638212 42.542768 7.59288695 23.1254546 36.0203657 2.33902013 40.4329058 28.8371855 13.1415902 44.9860061"></polygon></g><polygon id="Path-135" fill="#4AB2C4" points="6.0756378 154.90093 59.2263091 160.735383 94.0705133 141.332064 99.6134439 203.751357 57.3369324 229.299326 2.32420064 229.299326 7.46421588 186.715576"></polygon><path d="M5.37809881,177.282318 C2.34360365,178.998456 0.983627934,180.727292 1.29817166,182.468827 C1.61271539,184.210362 2.02182453,185.221941 2.52549908,185.503563 C0.9890954,186.262766 0.322741395,187.03421 0.526437061,187.817897 C0.730132727,188.601584 1.21799053,189.68262 1.99001047,191.061005 C0.409507731,192.775284 -0.229546855,193.89429 0.0728467113,194.418023 C0.375240278,194.941756 0.783681928,195.647495 1.29817166,196.535239 C0.37091983,198.079659 0.37091983,199.046116 1.29817166,199.434612 C2.22542349,199.823108 5.65827739,201.077351 11.5967334,203.197341 C13.0142032,201.863907 13.4237899,200.772446 12.8254936,199.922958 C14.1650742,199.115839 15.8634608,197.505044 15.1169266,196.15449 C15.8634608,195.109511 18.5955981,192.510261 16.8562624,191.061005 C18.0377736,190.818267 18.8643924,189.737231 19.3361187,187.817897 L5.37809881,177.282318 Z" id="Path-134" fill="#FFD7B3"></path><polygon id="Path-135-Copy" fill="#248596" points="59.2263091 160.735383 94.0705133 141.332064 99.6134439 203.751357 57.3369324 229.299326"></polygon><path d="M111.149238,132.6044 L105.989532,176.694796 L67.5554744,190.28889 C63.01488,188.398542 60.7445828,184.469528 60.7445828,178.501848 C60.7445828,176.344628 59.5482181,175.266018 57.1554887,175.266018 L53.3606283,189.056556 L36.0293063,190.159615 C34.4909731,192.966985 34.4909731,194.506111 36.0293063,194.776993 C37.5676395,195.047875 38.9061021,195.46889 40.0446941,196.040038 L36.0293063,197.336052 C35.4273415,199.399101 35.705102,200.552073 36.8625878,200.794969 C38.0200736,201.037866 39.78569,201.717347 42.1594371,202.833414 L38.2916165,203.292378 C37.4387185,205.118812 37.6384246,206.140391 38.8907349,206.357113 C40.1430451,206.573835 41.5402044,206.934253 43.0822127,207.438368 L40.4690533,207.438368 C40.4956982,208.97898 40.7840901,209.83409 41.3342289,210.003699 C42.1594371,210.258112 53.5518884,211.121467 57.4122642,210.003699 C61.2726399,208.885931 68.3941334,202.962689 72.0519295,202.962689 C74.4904603,202.962689 91.4887942,198.73809 123.046931,190.28889 L133.673803,131.67826 L111.149238,132.6044 Z" id="Path-133" fill="#FFD7B3"></path><polyline id="Path-132" stroke="#0B4651" stroke-width="2.352" points="137.214904 132.240478 107.707032 132.240478 109.9638 98.6928438"></polyline></g><path d="M470.584546,474.985034 L547.634089,474.985034" id="Path-79-Copy-4" stroke="#0B4651" stroke-width="1.5"></path><path d="M260.66233,242.54544 L246.150652,250.227847 L250.175421,236.785534 C236.169827,226.942976 227.015903,210.655908 227.015903,192.229417 C227.015903,162.180371 251.359426,137.820805 281.388684,137.820805 C311.417941,137.820805 335.761464,162.180371 335.761464,192.229417 C335.761464,222.278464 311.417941,246.638029 281.388684,246.638029 C274.049485,246.638029 267.049908,245.18298 260.66233,242.54544 Z" id="Combined-Shape" fill="#0D6574"></path><path d="M333.106041,83.6349561 L321.57514,89.7393555 L324.7732,79.0581656 C313.644431,71.2373227 306.370772,58.2957063 306.370772,43.6541163 C306.370772,19.7773063 325.714004,0.421327297 349.57509,0.421327297 C373.436175,0.421327297 392.779407,19.7773063 392.779407,43.6541163 C392.779407,67.5309264 373.436175,86.8869053 349.57509,86.8869053 C343.743402,86.8869053 338.181576,85.7307313 333.106041,83.6349561 Z" id="Combined-Shape-Copy-17" fill="#6AC264" transform="translate(349.575090, 45.080341) scale(-1, 1) translate(-349.575090, -45.080341) "></path><path d="M332.528488,47.7072018 C330.742965,47.7072018 329.295512,46.2568829 329.295512,44.4678239 C329.295512,42.6787649 330.742965,41.228446 332.528488,41.228446 C334.314012,41.228446 335.761464,42.6787649 335.761464,44.4678239 C335.761464,46.2568829 334.314012,47.7072018 332.528488,47.7072018 Z M349.57509,47.7072018 C347.789566,47.7072018 346.342114,46.2568829 346.342114,44.4678239 C346.342114,42.6787649 347.789566,41.228446 349.57509,41.228446 C351.360613,41.228446 352.808066,42.6787649 352.808066,44.4678239 C352.808066,46.2568829 351.360613,47.7072018 349.57509,47.7072018 Z M366.621691,47.7072018 C364.836168,47.7072018 363.388715,46.2568829 363.388715,44.4678239 C363.388715,42.6787649 364.836168,41.228446 366.621691,41.228446 C368.407215,41.228446 369.854667,42.6787649 369.854667,44.4678239 C369.854667,46.2568829 368.407215,47.7072018 366.621691,47.7072018 Z" id="Combined-Shape" fill="url(#linearGradient-13)"></path><path d="M250.730083,185.64306 C255.578567,184.669472 259.057728,201.71512 261.453664,196.478585 C263.849601,191.242049 267.462465,166.843897 272.112871,173.772376 C276.763276,180.700854 286.481811,207.313413 290.963701,195.226824 C295.44559,183.140234 298.195178,179.333828 309.445273,193.764346 L328.178144,195.226824 L309.445273,195.226824 C302.037501,208.925738 297.303157,213.750018 295.24224,209.699664 C292.150865,203.624133 284.917223,197.845846 282.881685,197.845846 C280.846147,197.845846 279.948402,210.857276 273.387222,211.93674 C269.013102,212.656383 265.03525,207.959418 261.453664,197.845846 C251.98868,197.845846 244.669808,197.845846 239.49705,197.845846 C250.35559,197.845846 246.228297,186.669349 250.730083,185.64306 Z" id="Path-141" fill="url(#linearGradient-14)" opacity="0.859999955"></path><path d="M245.131816,179.575007 C248.182061,179.090535 247.739476,188.583537 251.92763,193.957745 C254.396711,197.126051 262.292108,198.24471 263.180729,196.708502 C265.576666,192.566514 265.428989,178.125912 270.079394,183.606189 C272.343023,186.273766 270.200621,193.688769 273.84374,195.627027 C277.685055,197.670731 292.18968,197.06727 292.255247,196.928674 C296.464496,188.03116 292.843462,183.606189 300.538843,196.708502 L325.967827,197.86529 L307.234956,197.86529 C301.909372,209.448916 298.216121,213.638857 296.155205,210.435114 C293.06383,205.6295 282.684869,196.708502 280.649331,196.708502 C278.613793,196.708502 275.739888,209.581281 269.178708,210.435114 C264.804589,211.004336 261.286593,206.428799 258.624722,196.708502 C244.277746,195.987518 234.51788,195.627027 229.345121,195.627027 C240.203661,195.627027 240.63003,180.38678 245.131816,179.575007 Z" id="Path-141-Copy" fill="url(#linearGradient-15)" opacity="0.5" transform="translate(277.656474, 195.516714) scale(-1, 1) translate(-277.656474, -195.516714) "></path></g></g></g></g></svg> 