<?xml version="1.0" encoding="UTF-8"?> <svg xmlns="http://www.w3.org/2000/svg" xmlns:xlink="http://www.w3.org/1999/xlink" width="34px" height="39px" viewBox="0 0 34 39"><!-- Generator: Sketch 52.6 (67491) - http://www.bohemiancoding.com/sketch --><title>Weekly Happy Hour</title><desc>Created with Sketch.</desc><defs><linearGradient x1="100%" y1="0%" x2="0%" y2="100%" id="linearGradient-1"><stop stop-color="#8CD987" offset="0%"></stop><stop stop-color="#1FA595" offset="100%"></stop></linearGradient><path d="M0.878344671,26.5579136 L9.39907048,1.09982836 C9.65688641,0.329530149 10.4882589,-0.0852207609 11.2559928,0.173456276 C11.4462003,0.237543977 11.6212758,0.340115002 11.7703848,0.474821804 L28.0288707,15.1629234 C28.6307192,15.7066402 28.6793115,16.6369338 28.1374047,17.2407924 C27.9965613,17.3977374 27.8236933,17.5224206 27.6305496,17.6063682 L2.85133785,28.3763518 C2.10820128,28.6993471 1.24480227,28.3567431 0.922882196,27.6111245 C0.778893686,27.2776239 0.763028683,26.9024528 0.878344671,26.5579136 Z" id="path-2"></path></defs><g id="Home" stroke="none" stroke-width="1" fill="none" fill-rule="evenodd"><g id="Careers" transform="translate(-628.000000, -4673.000000)"><g id="Group-13" transform="translate(200.000000, 4293.000000)"><g id="content-copy-2" transform="translate(0.000000, 376.000000)"><g id="Weekly-Happy-Hour" transform="translate(425.000000, 3.000000)"><polygon id="Rectangle-38" points="0 0 40 0 40 40 0 40"></polygon><g id="Group-11" transform="translate(3.000000, 1.000000)"><g id="Group-10" transform="translate(0.000000, 9.750000)"><mask id="mask-3" fill="white"><use xlink:href="#path-2"></use></mask><use id="Triangle" fill="url(#linearGradient-1)" xlink:href="#path-2"></use><polygon id="Rectangle" fill="#0D6574" mask="url(#mask-3)" transform="translate(13.557571, 12.282209) rotate(57.000000) translate(-13.557571, -12.282209) " points="1.38755363 9.81778894 25.7120289 9.89559019 25.7275892 14.7466295 1.40311388 14.6688283"></polygon><polygon id="Rectangle" fill="#0D6574" mask="url(#mask-3)" transform="translate(6.327417, 20.588481) rotate(57.000000) translate(-6.327417, -20.588481) " points="-0.812655449 17.9965303 13.4519291 18.3293914 13.4674893 23.1804307 -0.797095199 22.8475697"></polygon></g><path d="M18.2795699,12.2571429 C19.2544803,10.23258 19.7419355,8.18972281 19.7419355,6.12857143 C19.7419355,4.06742004 19.0107527,2.0245629 17.5483871,0" id="Path-13" stroke="#0D6574" stroke-width="0.8712" stroke-linecap="round" fill-rule="nonzero"></path><path d="M25.9121305,10.804946 L24.6640465,11.4715791 C24.2396416,11.6982644 23.7118286,11.537981 23.4851433,11.1135761 C23.394323,10.9435405 23.3624625,10.7481845 23.3945516,10.5581037 L23.714845,8.66083306 L22.3454415,7.30468196 C22.0035665,6.96611547 22.0008844,6.41450866 22.3394509,6.07263367 C22.4721318,5.93865619 22.6446989,5.85134177 22.8312354,5.82380366 L24.7109114,5.5463098 L25.5389474,3.84173755 C25.7491846,3.40894884 26.2704602,3.22853525 26.7032489,3.43877252 C26.8789466,3.5241218 27.0208646,3.66603983 27.1062139,3.84173755 L27.9342499,5.5463098 L29.8139259,5.82380366 C30.2899174,5.8940736 30.6188197,6.336906 30.5485498,6.81289751 C30.5210117,6.99943394 30.4336973,7.17200105 30.2997198,7.30468196 L28.9303163,8.66083306 L29.2506097,10.5581037 C29.3307033,11.0325411 29.0110245,11.4820772 28.5365871,11.5621708 C28.3465064,11.5942599 28.1511504,11.5623993 27.9811148,11.4715791 L26.7330308,10.804946 C26.4765443,10.6679501 26.168617,10.6679501 25.9121305,10.804946 Z" id="Star" fill="#0D6574"></path><path d="M26.3225806,17.8285714 C27.3422675,17.0820915 28.6218374,16.3831678 30.1612903,15.7318003 C31.7007433,15.0804329 32.9803132,14.6650709 34,14.4857143" id="Path-15" stroke="#0D6574" stroke-width="0.8712" stroke-linecap="round" fill-rule="nonzero"></path><ellipse id="Oval" fill="#0D6574" cx="23.5806452" cy="15.0428571" rx="1.64516129" ry="1.67142857"></ellipse></g></g></g></g></g></g></svg> 