<?xml version="1.0" encoding="UTF-8"?> <svg xmlns="http://www.w3.org/2000/svg" xmlns:xlink="http://www.w3.org/1999/xlink" width="197px" height="50px" viewBox="0 0 197 50"><!-- Generator: Sketch 52.5 (67469) - http://www.bohemiancoding.com/sketch --><title>logo/white</title><desc>Created with Sketch.</desc><g id="Symbols" stroke="none" stroke-width="1" fill="none" fill-rule="evenodd"><g id="White-Header" transform="translate(-50.000000, -25.000000)" fill="#FFFFFF"><g id="Dark-Header"><g id="logo/white" transform="translate(50.000000, 25.000000)"><g><g id="Asset-1-Copy" fill-rule="nonzero"><path d="M27.7731801,37.6814159 L27.7731801,37.6814159 C29.2819691,35.0705739 29.6906561,31.967485 28.9092577,29.055377 C28.1278594,26.143269 26.2204446,23.6609135 23.6069817,22.1548673 L23.6069817,22.1548673 C21.8767541,21.1586325 19.9145874,20.6351911 17.9177522,20.6371681 L15.8280119,20.6371681 C15.5873536,20.6375505 15.3566002,20.7329778 15.1860366,20.9026549 L15.1860366,20.9026549 C14.9276509,21.1632312 14.8507549,21.5532233 14.9909075,21.8922872 C15.1310601,22.2313511 15.4609443,22.4534001 15.8280119,22.4557522 L17.9221797,22.4557522 C23.1958867,22.4581957 27.4693177,26.7323824 27.4676879,32.0029485 C27.4660582,37.2735146 23.1899847,41.5450608 17.9162771,41.5442466 C12.6425695,41.5434325 8.36781666,37.2705664 8.36781609,32 L8.36781609,31.9070796 L8.36781609,5.45575221 L8.36781609,5.36283186 L8.36781609,3.2699115 C8.37042169,3.02881022 8.27447835,2.79708526 8.10217114,2.62831858 L8.10217114,2.62831858 C7.93194382,2.45809143 7.70100524,2.3624503 7.46019583,2.3624503 C7.21938642,2.3624503 6.98844783,2.45809143 6.81822052,2.62831858 L6.81822052,2.62831858 C6.64591331,2.79708526 6.54996997,3.02881022 6.55257556,3.2699115 L6.55257556,6.36725664 C6.55257557,6.7893359 6.32726477,7.17935323 5.96151555,7.39039287 C5.59576633,7.6014325 5.1451447,7.6014325 4.77939548,7.39039287 C4.41364626,7.17935323 4.18833545,6.7893359 4.18833546,6.36725664 L4.18833546,3.2699115 C4.18983233,2.40451214 4.53545425,1.57519524 5.14908472,0.96460177 L5.14908472,0.96460177 C5.76074274,0.349604467 6.59255639,0.0037895348 7.46019583,0.0037895348 C8.32783527,0.0037895348 9.15964892,0.349604467 9.77130694,0.96460177 L9.77130694,0.96460177 C10.3876476,1.57555022 10.7349904,2.4067654 10.7364836,3.27433628 L10.7364836,5.36725664 L10.7364836,5.46017699 L10.7364836,31.9070796 L10.7364836,32 C10.7364842,34.9068038 12.4887809,37.5273016 15.1760895,38.6392734 C17.8633981,39.7512453 20.9563455,39.1356438 23.0123577,37.0795902 C25.0683699,35.0235366 25.682433,31.9320529 24.5681434,29.2470305 C23.4538538,26.562008 20.8307154,24.8123694 17.9221797,24.8141593 L15.8280119,24.8141593 C14.5042404,24.8139741 13.3110159,24.0166108 12.8050407,22.7940814 C12.2990655,21.571552 12.5800503,20.1647759 13.5169008,19.2300885 L13.5169008,19.2300885 C14.127581,18.6164109 14.9575715,18.2709202 15.8235845,18.2699115 L17.9177522,18.2699115 C20.3321715,18.2698368 22.7038882,18.9062932 24.7935292,20.1150442 L24.7935292,20.1150442 C27.9482217,21.9345441 30.2498749,24.9326449 31.191573,28.4490455 C32.1332711,31.9654461 31.6377772,35.7117356 29.8142188,38.8628319 L29.8142188,38.8628319 L28.7782035,40.6725664 C28.5548494,41.1032226 28.7081003,41.6332605 29.1268714,41.8784788 C29.5456426,42.1236972 30.0832194,41.9981849 30.3499361,41.5929204 L31.3903789,39.7920354 L31.3903789,39.7920354 L31.3903789,39.7920354 C33.4576286,36.2165359 34.0172514,31.9661903 32.9458853,27.9779362 C31.8745193,23.9896822 29.2601243,20.5909586 25.6790123,18.5309735 L25.6790123,18.5309735 C22.1065795,16.4634509 17.8563468,15.9060099 13.8710941,16.9823009 C13.2589995,17.0980768 12.6620493,16.7192511 12.506562,16.1163663 C12.3510746,15.5134815 12.6904186,14.8934679 13.2822478,14.699115 C17.8681832,13.4589004 22.7595621,14.095834 26.8744146,16.4690265 L26.8744146,16.4690265 C35.4489817,21.4083809 38.3943803,32.3588957 33.4535547,40.9292035 L33.4535547,40.9557522 L33.4535547,40.9557522 L32.4086845,42.7654867 C31.4842617,44.2847061 29.5145816,44.787251 27.9746203,43.8967955 C26.434659,43.00634 25.8888955,41.0492842 26.7460196,39.4911504 L27.7908897,37.6814159 L27.7731801,37.6814159 Z M17.9221797,43.3628319 C18.5750465,43.3628319 19.1042997,43.8917698 19.1042997,44.5442478 C19.1042997,45.1967258 18.5750465,45.7256637 17.9221797,45.7256637 C15.515671,45.7231982 13.1521104,45.0884078 11.0685398,43.8849558 L11.0685398,43.8849558 C6.81168102,41.4392694 4.1863782,36.907203 4.18390805,32 L4.18390805,32 L4.18390805,11.9911504 C4.18651364,11.7500492 4.0905703,11.5183242 3.91826309,11.3495575 L3.91826309,11.3495575 C3.6591114,11.0867812 3.26652046,11.0070651 2.92530974,11.1479371 C2.58409902,11.2888092 2.36226498,11.6221963 2.3642401,11.9911504 L2.3642401,32 L2.3642401,32 C2.35966107,34.7271979 3.07106699,37.4078753 4.42741592,39.7743363 L4.42741592,39.7743363 C8.72401288,47.2097517 18.2367183,49.7588266 25.6790123,45.4690265 C26.0436088,45.2579869 26.4931652,45.2573723 26.8583381,45.4674142 C27.2235109,45.6774561 27.4488217,46.0662442 27.4493981,46.4873257 C27.4499745,46.9084072 27.2257289,47.2978099 26.8611324,47.5088496 C18.2958084,52.4410189 7.35186746,49.5086652 2.40408685,40.9557522 L2.40408685,40.9557522 C0.828688196,38.233711 -0.000557637145,35.1445879 -3.93233828e-16,32 L-3.93233828e-16,32 L-3.93233828e-16,11.9911504 C0.00149686466,11.1257511 0.34711879,10.2964342 0.960749255,9.68584071 L0.960749255,9.68584071 C1.57240728,9.07084341 2.40422093,8.72502847 3.27186037,8.72502847 C4.1394998,8.72502847 4.97131345,9.07084341 5.58297148,9.68584071 L5.58297148,9.68584071 C6.19889871,10.2970673 6.54616633,11.1281027 6.54814815,11.9955752 L6.54814815,32 L6.54814815,32 C6.54190947,36.0624277 8.71039467,39.8178838 12.2329502,41.8451327 L12.2329502,41.8451327 C13.9631778,42.8413675 15.9253445,43.3648089 17.9221797,43.3628319 L17.9221797,43.3628319 Z" id="Shape"></path></g><path d="M53.8419316,19.5437096 C55.9513171,19.5437096 57.5894843,20.2639172 58.7564824,21.7043541 C59.9234804,23.144791 60.5069706,25.1833448 60.5069706,27.8200768 C60.5069706,30.4568087 59.9185976,32.5051281 58.7418339,33.9650963 C57.5650702,35.4250645 55.9317858,36.1550377 53.8419316,36.1550377 C52.7970045,36.1550377 51.8424242,35.9621686 50.978162,35.5764244 C50.1138999,35.1906803 49.3888095,34.5974245 48.8028691,33.7966393 L48.6270878,33.7966393 L48.1143925,35.862069 L46.3712284,35.862069 L46.3712284,13.0691002 L48.8028691,13.0691002 L48.8028691,18.6062096 C48.8028691,19.8464502 48.763807,20.9597203 48.6856816,21.9460533 L48.8028691,21.9460533 C49.9356872,20.3444828 51.6153579,19.5437096 53.8419316,19.5437096 Z M53.4903691,21.5798424 C51.8302045,21.5798424 50.6339274,22.0559119 49.9015019,23.0080651 C49.1690763,23.9602183 48.8028691,25.5642061 48.8028691,27.8200768 C48.8028691,30.0759474 49.1788419,31.6897008 49.9307988,32.6613854 C50.6827556,33.6330699 51.8887983,34.1189049 53.5489628,34.1189049 C55.0431109,34.1189049 56.156381,33.5744768 56.8888066,32.4856041 C57.6212321,31.3967315 57.9874394,29.8318057 57.9874394,27.7907799 C57.9874394,25.7009257 57.6212321,24.1433241 56.8888066,23.1179283 C56.156381,22.0925326 55.0235799,21.5798424 53.4903691,21.5798424 Z M71.4585466,19.5144127 C72.1714408,19.5144127 72.8110829,19.5730059 73.3774919,19.690194 L73.0405779,21.9460533 C72.3765121,21.7995682 71.7905804,21.7263268 71.2827654,21.7263268 C69.9839308,21.7263268 68.873102,22.2536653 67.9502458,23.308358 C67.0273897,24.3630508 66.5659685,25.6765142 66.5659685,27.2487877 L66.5659685,35.862069 L64.1343279,35.862069 L64.1343279,19.8073815 L66.1411638,19.8073815 L66.4194841,22.7810143 L66.5366716,22.7810143 C67.1323777,21.7360872 67.850144,20.9304312 68.6899919,20.3640221 C69.5298399,19.797613 70.4526822,19.5144127 71.4585466,19.5144127 Z M78.1913726,35.862069 L75.759732,35.862069 L75.759732,19.8073815 L78.1913726,19.8073815 L78.1913726,35.862069 Z M75.5546539,15.4567955 C75.5546539,14.9001521 75.6913712,14.4924414 75.9648101,14.233651 C76.238249,13.9748606 76.5800424,13.8454674 76.9902007,13.8454674 C77.3808277,13.8454674 77.7177384,13.977302 78.0009429,14.2409752 C78.2841475,14.5046484 78.4257476,14.9099178 78.4257476,15.4567955 C78.4257476,16.0036733 78.2841475,16.411384 78.0009429,16.6799401 C77.7177384,16.9484961 77.3808277,17.0827721 76.9902007,17.0827721 C76.5800424,17.0827721 76.238249,16.9484961 75.9648101,16.6799401 C75.6913712,16.411384 75.5546539,16.0036733 75.5546539,15.4567955 Z M95.8665814,19.8073815 L95.8665814,21.3454674 L92.8929486,21.6970299 C93.1663875,22.0388285 93.4105256,22.4856014 93.6253705,23.0373619 C93.8402153,23.5891225 93.9476361,24.2116749 93.9476361,24.9050377 C93.9476361,26.4773112 93.4105321,27.7321815 92.336308,28.6696862 C91.2620838,29.6071908 89.7874892,30.0759362 87.9124798,30.0759362 C87.4339618,30.0759362 86.9847476,30.036874 86.5648236,29.9587487 C85.5296622,30.5056264 85.0120892,31.1940961 85.0120892,32.0241783 C85.0120892,32.4636337 85.1927515,32.7883374 85.5540814,32.9982994 C85.9154113,33.2082614 86.5355223,33.3132408 87.414433,33.3132408 L90.2562298,33.3132408 C91.9945198,33.3132408 93.3299557,33.6794481 94.2625775,34.4118737 C95.1951994,35.1442992 95.6615033,36.2087417 95.6615033,37.605233 C95.6615033,39.3825857 94.9486198,40.7375526 93.5228314,41.6701744 C92.097043,42.6027963 90.0169857,43.0691002 87.282597,43.0691002 C85.1829772,43.0691002 83.564341,42.6784791 82.42664,41.8972252 C81.288939,41.1159713 80.720097,40.0124667 80.720097,38.5866783 C80.720097,37.610111 81.0325939,36.7653928 81.657597,36.0524987 C82.2826002,35.3396045 83.1614976,34.8562109 84.2943158,34.6023033 C83.8841575,34.4167555 83.5399226,34.1286725 83.2616009,33.7380455 C82.9832792,33.3474186 82.8441205,32.8933216 82.8441205,32.3757408 C82.8441205,31.7898004 83.0003689,31.2771102 83.3128705,30.8376549 C83.625372,30.3981996 84.1185312,29.9733991 84.7923627,29.5632408 C83.9622804,29.2214423 83.2860176,28.6403934 82.7635541,27.8200768 C82.2410905,26.9997602 81.9798627,26.0622696 81.9798627,25.0075768 C81.9798627,23.2497555 82.5072011,21.8947886 83.5618939,20.9426354 C84.6165867,19.9904822 86.1107124,19.5144127 88.0443158,19.5144127 C88.8841637,19.5144127 89.6409921,19.612068 90.3148236,19.8073815 L95.8665814,19.8073815 Z M83.063847,38.5573815 C83.063847,39.4265264 83.4300543,40.0856995 84.1624798,40.5349205 C84.8949054,40.9841415 85.9446996,41.2087487 87.3118939,41.2087487 C89.3529197,41.2087487 90.8641351,40.9035759 91.8455853,40.2932213 C92.8270355,39.6828667 93.3177533,38.8552383 93.3177533,37.8103112 C93.3177533,36.9411662 93.0492013,36.3381449 92.5120892,36.0012291 C91.9749772,35.6643134 90.9642451,35.495858 89.4798627,35.495858 L86.5648236,35.495858 C85.4613025,35.495858 84.601936,35.7595273 83.9866986,36.2868737 C83.3714611,36.81422 83.063847,37.5710484 83.063847,38.5573815 Z M84.3822064,24.948983 C84.3822064,26.0720355 84.699586,26.9216364 85.3343548,27.4978112 C85.9691236,28.0739859 86.8529039,28.362069 87.985722,28.362069 C90.3587808,28.362069 91.5452923,27.2097367 91.5452923,24.9050377 C91.5452923,22.4929163 90.3441325,21.2868737 87.9417767,21.2868737 C86.7991929,21.2868737 85.9202954,21.5944878 85.305058,22.2097252 C84.6898205,22.8249627 84.3822064,23.7380395 84.3822064,24.948983 Z M109.528118,35.862069 L109.528118,25.4763268 C109.528118,24.1677265 109.23027,23.1911738 108.634564,22.5466393 C108.038858,21.9021048 107.10625,21.5798424 105.836712,21.5798424 C104.147251,21.5798424 102.914353,22.0388222 102.137982,22.9567955 C101.361611,23.8747689 100.973431,25.3786601 100.973431,27.4685143 L100.973431,35.862069 L98.5417902,35.862069 L98.5417902,13.0691002 L100.973431,13.0691002 L100.973431,19.9685143 C100.973431,20.7985966 100.934369,21.4870662 100.856243,22.033944 L101.002728,22.033944 C101.481246,21.2624557 102.162391,20.6545517 103.046185,20.2102135 C103.929978,19.7658753 104.938269,19.5437096 106.071087,19.5437096 C108.033988,19.5437096 109.506141,20.0100135 110.487591,20.9426354 C111.469041,21.8752572 111.959759,23.357176 111.959759,25.3884362 L111.959759,35.862069 L109.528118,35.862069 Z M121.519733,34.1482018 C121.949423,34.1482018 122.364458,34.1164638 122.764851,34.0529869 C123.165243,33.9895101 123.482623,33.9235927 123.716999,33.855233 L123.716999,35.7155846 C123.453326,35.8425384 123.065146,35.9475178 122.552448,36.030526 C122.03975,36.1135342 121.578329,36.1550377 121.168171,36.1550377 C118.062687,36.1550377 116.509968,34.5193119 116.509968,31.2478112 L116.509968,21.6970299 L114.210163,21.6970299 L114.210163,20.5251549 L116.509968,19.5144127 L117.535358,16.0866783 L118.941608,16.0866783 L118.941608,19.8073815 L123.599812,19.8073815 L123.599812,21.6970299 L118.941608,21.6970299 L118.941608,31.1452721 C118.941608,32.1120738 119.171098,32.8542539 119.630085,33.3718346 C120.089072,33.8894153 120.718948,34.1482018 121.519733,34.1482018 Z M136.660762,31.4821862 C136.660762,32.9763342 136.104127,34.1286665 134.990841,34.9392174 C133.877554,35.7497683 132.315069,36.1550377 130.303341,36.1550377 C128.174424,36.1550377 126.514284,35.818127 125.322872,35.1442955 L125.322872,32.8884362 C126.09436,33.2790631 126.921989,33.5866772 127.805782,33.8112877 C128.689576,34.0358982 129.541618,34.1482018 130.361934,34.1482018 C131.631472,34.1482018 132.608025,33.9455671 133.291622,33.5402916 C133.975219,33.1350162 134.317012,32.5173466 134.317012,31.6872643 C134.317012,31.0622612 134.046019,30.5275985 133.504024,30.0832604 C132.962029,29.6389222 131.904911,29.1140251 130.332637,28.5085533 C128.838489,27.9519099 127.776488,27.4660749 127.146602,27.0510338 C126.516716,26.6359927 126.047971,26.164806 125.740352,25.6374596 C125.432734,25.1101132 125.278927,24.4802367 125.278927,23.7478112 C125.278927,22.4392109 125.811148,21.4065063 126.875606,20.6496666 C127.940065,19.8928269 129.400011,19.5144127 131.255489,19.5144127 C132.984013,19.5144127 134.67345,19.8659717 136.323848,20.5691002 L135.459591,22.5466393 C133.848254,21.8825735 132.388308,21.5505455 131.079708,21.5505455 C129.927358,21.5505455 129.058226,21.7312078 128.472286,22.0925377 C127.886345,22.4538676 127.59338,22.9519095 127.59338,23.5866783 C127.59338,24.016368 127.703242,24.3825753 127.92297,24.6853112 C128.142697,24.988047 128.496698,25.2761301 128.984981,25.549569 C129.473265,25.8230078 130.410756,26.2185117 131.797481,26.7360924 C133.701788,27.4294552 134.988396,28.1276904 135.657345,28.830819 C136.326293,29.5339475 136.660762,30.4177277 136.660762,31.4821862 Z M146.411167,36.1550377 C144.086936,36.1550377 142.287638,35.4397128 141.013217,34.0090416 C139.738797,32.5783704 139.101596,30.5544649 139.101596,27.9372643 C139.101596,25.251704 139.748562,23.1765294 141.042514,21.7116783 C142.336466,20.2468273 144.179709,19.5144127 146.572299,19.5144127 C147.343788,19.5144127 148.115264,19.5974197 148.886753,19.7634362 C149.658241,19.9294526 150.263703,20.1247632 150.703159,20.3493737 L149.956088,22.4148033 C149.418976,22.1999585 148.833045,22.0217376 148.198276,21.8801354 C147.563507,21.7385331 147.001989,21.667733 146.513706,21.667733 C143.251971,21.667733 141.621128,23.7477904 141.621128,27.9079674 C141.621128,29.8806335 142.019073,31.3942903 142.814975,32.448983 C143.610878,33.5036758 144.790065,34.0310143 146.352573,34.0310143 C147.69047,34.0310143 149.062527,33.7429312 150.468784,33.1667565 L150.468784,35.3200768 C149.39456,35.8767202 148.042034,36.1550377 146.411167,36.1550377 Z M167.51411,27.8200768 C167.51411,30.4372774 166.854937,32.480714 165.536571,33.9504479 C164.218205,35.4201818 162.396934,36.1550377 160.072704,36.1550377 C158.637149,36.1550377 157.362748,35.818127 156.249461,35.1442955 C155.136175,34.470464 154.276808,33.5036768 153.671336,32.2439049 C153.065865,30.984133 152.763133,29.5095384 152.763133,27.8200768 C152.763133,25.2028762 153.417424,23.1643224 154.726024,21.7043541 C156.034624,20.2443859 157.851012,19.5144127 160.175243,19.5144127 C162.421348,19.5144127 164.205998,20.2614756 165.529246,21.7556237 C166.852495,23.2497717 167.51411,25.2712359 167.51411,27.8200768 Z M155.282664,27.8200768 C155.282664,29.8708683 155.692817,31.4333527 156.513133,32.5075768 C157.33345,33.5818009 158.539492,34.1189049 160.131297,34.1189049 C161.723102,34.1189049 162.931586,33.5842423 163.756786,32.514901 C164.581985,31.4455597 164.994579,29.880634 164.994579,27.8200768 C164.994579,25.7790509 164.581985,24.2287735 163.756786,23.1691979 C162.931586,22.1096223 161.713337,21.5798424 160.102,21.5798424 C158.510196,21.5798424 157.309036,22.1022981 156.498485,23.1472252 C155.687934,24.1921523 155.282664,25.7497539 155.282664,27.8200768 Z M173.441272,19.8073815 L173.441272,30.2224205 C173.441272,31.5310208 173.73912,32.5075736 174.334826,33.152108 C174.930532,33.7966425 175.86314,34.1189049 177.132678,34.1189049 C178.812374,34.1189049 180.040389,33.6599251 180.81676,32.7419518 C181.593131,31.8239784 181.981311,30.32497 181.981311,28.2448815 L181.981311,19.8073815 L184.412951,19.8073815 L184.412951,35.862069 L182.406115,35.862069 L182.054553,33.7087487 L181.922717,33.7087487 C181.424668,34.4997682 180.733757,35.1052309 179.849963,35.5251549 C178.96617,35.9450789 177.957879,36.1550377 176.825061,36.1550377 C174.871926,36.1550377 173.409538,35.6911752 172.437854,34.7634362 C171.466169,33.8356971 170.980334,32.351337 170.980334,30.3103112 L170.980334,19.8073815 L173.441272,19.8073815 Z M194.134059,34.1482018 C194.563748,34.1482018 194.978783,34.1164638 195.379176,34.0529869 C195.779568,33.9895101 196.096948,33.9235927 196.331324,33.855233 L196.331324,35.7155846 C196.067651,35.8425384 195.679471,35.9475178 195.166773,36.030526 C194.654076,36.1135342 194.192654,36.1550377 193.782496,36.1550377 C190.677012,36.1550377 189.124293,34.5193119 189.124293,31.2478112 L189.124293,21.6970299 L186.824488,21.6970299 L186.824488,20.5251549 L189.124293,19.5144127 L190.149684,16.0866783 L191.555934,16.0866783 L191.555934,19.8073815 L196.214137,19.8073815 L196.214137,21.6970299 L191.555934,21.6970299 L191.555934,31.1452721 C191.555934,32.1120738 191.785424,32.8542539 192.24441,33.3718346 C192.703397,33.8894153 193.333273,34.1482018 194.134059,34.1482018 Z" id="brightscout"></path></g></g></g></g></g></svg> 