<?xml version="1.0" encoding="UTF-8"?> <svg xmlns="http://www.w3.org/2000/svg" xmlns:xlink="http://www.w3.org/1999/xlink" width="1600px" height="1024px" viewBox="0 0 1600 1024"><!-- Generator: Sketch 53 (72520) - https://sketchapp.com --><title>Python &amp; Ruby</title><desc>Created with Sketch.</desc><defs><linearGradient x1="2.88529403%" y1="70.9141147%" x2="98.5564819%" y2="27.251913%" id="linearGradient-1"><stop stop-color="#54BC4C" offset="0%"></stop><stop stop-color="#4BBB65" offset="26.6711251%"></stop><stop stop-color="#33BAAA" offset="100%"></stop></linearGradient><linearGradient x1="2.88529403%" y1="70.9141147%" x2="98.5564819%" y2="27.251913%" id="linearGradient-2"><stop stop-color="#54BC4C" offset="0%"></stop><stop stop-color="#4BBB65" offset="26.6711251%"></stop><stop stop-color="#33BAAA" offset="100%"></stop></linearGradient><linearGradient x1="2.88529403%" y1="70.8503409%" x2="98.5564819%" y2="27.3212791%" id="linearGradient-3"><stop stop-color="#54BC4C" offset="0%"></stop><stop stop-color="#4BBB65" offset="26.6711251%"></stop><stop stop-color="#33BAAA" offset="100%"></stop></linearGradient><linearGradient x1="2.88529403%" y1="70.9141147%" x2="98.5564819%" y2="27.251913%" id="linearGradient-4"><stop stop-color="#54BC4C" offset="0%"></stop><stop stop-color="#4BBB65" offset="26.6711251%"></stop><stop stop-color="#33BAAA" offset="100%"></stop></linearGradient><linearGradient x1="2.88529403%" y1="70.9141147%" x2="98.5564819%" y2="27.251913%" id="linearGradient-5"><stop stop-color="#54BC4C" offset="0%"></stop><stop stop-color="#4BBB65" offset="26.6711251%"></stop><stop stop-color="#33BAAA" offset="100%"></stop></linearGradient><linearGradient x1="2.88529403%" y1="70.9141147%" x2="98.5564819%" y2="27.251913%" id="linearGradient-6"><stop stop-color="#54BC4C" offset="0%"></stop><stop stop-color="#4BBB65" offset="26.6711251%"></stop><stop stop-color="#33BAAA" offset="100%"></stop></linearGradient><linearGradient x1="2.88529403%" y1="70.9141147%" x2="98.5564819%" y2="27.251913%" id="linearGradient-7"><stop stop-color="#54BC4C" offset="0%"></stop><stop stop-color="#4BBB65" offset="26.6711251%"></stop><stop stop-color="#33BAAA" offset="100%"></stop></linearGradient><linearGradient x1="2.88529403%" y1="70.9141147%" x2="98.5564819%" y2="27.251913%" id="linearGradient-8"><stop stop-color="#54BC4C" offset="0%"></stop><stop stop-color="#4BBB65" offset="26.6711251%"></stop><stop stop-color="#33BAAA" offset="100%"></stop></linearGradient><linearGradient x1="2.88529403%" y1="70.9141147%" x2="98.5564819%" y2="27.251913%" id="linearGradient-9"><stop stop-color="#54BC4C" offset="0%"></stop><stop stop-color="#4BBB65" offset="26.6711251%"></stop><stop stop-color="#33BAAA" offset="100%"></stop></linearGradient><linearGradient x1="2.88529403%" y1="70.9141147%" x2="98.5564819%" y2="27.251913%" id="linearGradient-10"><stop stop-color="#54BC4C" offset="0%"></stop><stop stop-color="#4BBB65" offset="26.6711251%"></stop><stop stop-color="#33BAAA" offset="100%"></stop></linearGradient><linearGradient x1="2.88529403%" y1="70.9141147%" x2="98.5564819%" y2="27.251913%" id="linearGradient-11"><stop stop-color="#54BC4C" offset="0%"></stop><stop stop-color="#4BBB65" offset="26.6711251%"></stop><stop stop-color="#33BAAA" offset="100%"></stop></linearGradient><linearGradient x1="2.88529403%" y1="70.9141147%" x2="98.5564819%" y2="27.251913%" id="linearGradient-12"><stop stop-color="#54BC4C" offset="0%"></stop><stop stop-color="#4BBB65" offset="26.6711251%"></stop><stop stop-color="#33BAAA" offset="100%"></stop></linearGradient><linearGradient x1="52.7389952%" y1="0%" x2="50%" y2="93.5861231%" id="linearGradient-13"><stop stop-color="#79CC74" offset="0%"></stop><stop stop-color="#53BF85" offset="45.3042286%"></stop><stop stop-color="#37A681" offset="100%"></stop></linearGradient><linearGradient x1="61.8128515%" y1="28.3822637%" x2="45.3844231%" y2="50%" id="linearGradient-14"><stop stop-color="#FFFFFF" offset="0%"></stop><stop stop-color="#FFFFFF" offset="100%"></stop></linearGradient><linearGradient x1="131.791639%" y1="45.6151246%" x2="-12.3158821%" y2="56.6803655%" id="linearGradient-15"><stop stop-color="#C9FFC6" stop-opacity="0" offset="0%"></stop><stop stop-color="#AEF8CC" stop-opacity="0.929811973" offset="49.9458092%"></stop><stop stop-color="#94F2D3" stop-opacity="0.131057518" offset="100%"></stop></linearGradient><linearGradient x1="88.2105986%" y1="48.5036561%" x2="0%" y2="53.4992944%" id="linearGradient-16"><stop stop-color="#2DB6C1" stop-opacity="0.298460145" offset="0%"></stop><stop stop-color="#2DB6C1" offset="54.5407334%"></stop><stop stop-color="#1E9CAD" stop-opacity="0.321020154" offset="100%"></stop></linearGradient><linearGradient x1="131.791639%" y1="40.1418354%" x2="-12.3158821%" y2="65.0189315%" id="linearGradient-17"><stop stop-color="#C9FFC6" stop-opacity="0" offset="0%"></stop><stop stop-color="#AEF8CC" stop-opacity="0.929811973" offset="49.9458092%"></stop><stop stop-color="#94F2D3" stop-opacity="0.131057518" offset="100%"></stop></linearGradient><linearGradient x1="88.2105986%" y1="45.555829%" x2="0%" y2="60.3929737%" id="linearGradient-18"><stop stop-color="#2DB6C1" stop-opacity="0.298460145" offset="0%"></stop><stop stop-color="#2DB6C1" offset="54.5407334%"></stop><stop stop-color="#1E9CAD" stop-opacity="0.321020154" offset="100%"></stop></linearGradient><linearGradient x1="-74.3880628%" y1="19.5321267%" x2="119.88571%" y2="51.49638%" id="linearGradient-19"><stop stop-color="#79CC74" offset="0%"></stop><stop stop-color="#53BF85" offset="45.3042286%"></stop><stop stop-color="#37A681" offset="100%"></stop></linearGradient><path d="M3.47192109,0 L0,6.20715144 C12.2562027,16.9992115 19.8783052,22.7782247 22.8663074,23.5441911 C25.8543095,24.3101574 32.3300717,22.4221209 42.2935939,17.8800816 L46.3867291,2.25375055 C36.4644141,5.99119137 30.1182746,8.70996456 27.3483106,10.4100701 C24.5783466,12.1101757 16.6195501,8.64015233 3.47192109,0 Z" id="path-20"></path><linearGradient x1="28.2156057%" y1="39.7304303%" x2="141.648686%" y2="-3.89899797%" id="linearGradient-22"><stop stop-color="#063136" stop-opacity="0" offset="0%"></stop><stop stop-color="#08333B" stop-opacity="0.726449275" offset="100%"></stop></linearGradient><path d="M4.62374601,2.81837156 L0.074557297,76.9484708 C4.45639796,79.5119251 7.58310262,79.911877 9.45467128,78.1483266 C11.3262399,76.3847761 13.7027445,61.3679955 16.5841848,33.0979847 L22.4826074,94.7917214 C28.539343,97.9233335 31.740493,97.6610982 32.0860574,94.0050155 C32.4316218,90.3489329 32.604404,59.0923226 32.604404,0.235184738 L4.62374601,2.81837156 Z" id="path-23"></path><linearGradient x1="56.2954544%" y1="163.484884%" x2="57.6097834%" y2="23.9680563%" id="linearGradient-25"><stop stop-color="#063136" stop-opacity="0" offset="0%"></stop><stop stop-color="#08333B" stop-opacity="0.726449275" offset="100%"></stop></linearGradient><linearGradient x1="57.6475551%" y1="-35.0700191%" x2="50%" y2="93.5861231%" id="linearGradient-26"><stop stop-color="#79CC74" offset="0%"></stop><stop stop-color="#53BF85" offset="45.3042286%"></stop><stop stop-color="#37A681" offset="100%"></stop></linearGradient><path d="M12.2746387,1.10040309 C14.3594168,1.18454757 15.1694445,1.18454757 14.7047219,1.10040309 C14.2399993,1.01625861 12.19444,1.01625861 8.56804396,1.10040309 C2.0916985,8.70046992 -0.502130647,18.1322151 0.786556519,29.3956385 C2.07524368,40.659062 2.09414256,51.7638368 0.843253135,62.7099629 C14.8249454,66.9869435 24.476102,67.8341718 29.796723,65.2516476 C31.2909835,61.7150595 32.4224567,55.4271666 33.1911427,46.387969 C34.3979662,23.6510107 31.9748009,10.0288979 25.9216467,5.52163083 C19.8684924,1.01436373 15.3194897,-0.45937885 12.2746387,1.10040309 Z" id="path-27"></path><linearGradient x1="60.7036573%" y1="93.5514938%" x2="74.9542673%" y2="-99.9185184%" id="linearGradient-29"><stop stop-color="#063136" stop-opacity="0" offset="0%"></stop><stop stop-color="#08333B" stop-opacity="0.726449275" offset="100%"></stop></linearGradient><path d="M4.39574598,7.35510771 L4.68342827,11.655253 C1.68361375,13.9558361 0.183706493,16.8356278 0.183706493,20.294628 C0.183706493,25.4831283 4.57880209,25.6244284 8.66580758,24.9089817 C11.3904779,24.4320173 14.2060448,21.6471208 17.1125083,16.5542924 L15.3470486,0.0611878684 L4.39574598,7.35510771 Z" id="path-30"></path><linearGradient x1="82.2075362%" y1="78.1408504%" x2="-28.7024096%" y2="78.1408504%" id="linearGradient-32"><stop stop-color="#063136" stop-opacity="0" offset="0%"></stop><stop stop-color="#08333B" stop-opacity="0.726449275" offset="100%"></stop></linearGradient><linearGradient x1="36.6063238%" y1="39.7304303%" x2="133.220945%" y2="-100.537461%" id="linearGradient-33"><stop stop-color="#063136" stop-opacity="0" offset="0%"></stop><stop stop-color="#08333B" stop-opacity="0.726449275" offset="100%"></stop></linearGradient><linearGradient x1="100%" y1="10.8396122%" x2="-5.87281646%" y2="58.31213%" id="linearGradient-34"><stop stop-color="#E7FFE6" stop-opacity="0.766021286" offset="0%"></stop><stop stop-color="#94F2D3" stop-opacity="0.634822237" offset="100%"></stop></linearGradient><linearGradient x1="124.000416%" y1="44.5782547%" x2="21.0861842%" y2="50%" id="linearGradient-35"><stop stop-color="#FFFFFF" offset="0%"></stop><stop stop-color="#FFFFFF" offset="100%"></stop></linearGradient><linearGradient x1="50%" y1="0%" x2="50%" y2="100%" id="linearGradient-36"><stop stop-color="#1A7C89" offset="0%"></stop><stop stop-color="#157182" offset="100%"></stop></linearGradient><linearGradient x1="88.2304152%" y1="6.82629694%" x2="50%" y2="87.6354868%" id="linearGradient-37"><stop stop-color="#79CC74" offset="0%"></stop><stop stop-color="#53BF85" offset="45.3042286%"></stop><stop stop-color="#37A681" offset="100%"></stop></linearGradient><path d="M8.9695957,43.5630192 L2.67128093,90.7803812 C2.28791342,93.6544202 4.30700161,96.2950699 7.18104062,96.6784374 C8.38123013,96.8385304 9.59986447,96.5788491 10.6305258,95.9433792 L102.581859,39.249395 C104.803129,37.8798375 105.493578,34.9688968 104.124021,32.747627 C103.97477,32.5055586 103.80397,32.2774588 103.613701,32.0661049 L78.359073,4.01290972 C76.1959975,1.61013501 72.6438433,1.05466977 69.8505026,2.68238887 L14.8591621,34.7266194 C11.6366378,36.6044298 9.46273492,39.8660408 8.9695957,43.5630192 Z" id="path-38"></path><linearGradient x1="0%" y1="12.0782422%" x2="76.0315083%" y2="127.583821%" id="linearGradient-40"><stop stop-color="#E7FFE6" offset="0%"></stop><stop stop-color="#94F2D3" offset="100%"></stop></linearGradient><linearGradient x1="88.2304152%" y1="0.558031925%" x2="50%" y2="93.0996742%" id="linearGradient-41"><stop stop-color="#79CC74" offset="0%"></stop><stop stop-color="#53BF85" offset="45.3042286%"></stop><stop stop-color="#37A681" offset="100%"></stop></linearGradient><path d="M2.14096657,45.3246235 L0.870084594,95.3290384 C0.811150177,97.6478855 2.64317142,99.5754583 4.96201857,99.6343928 C5.77977387,99.6551763 6.58579995,99.4367048 7.28112714,99.0058037 L97.5856152,43.0432214 C100.050224,41.5158791 100.810028,38.2797633 99.2826861,35.8151546 C99.1309956,35.5703779 98.9594229,35.3384967 98.7697044,35.1218577 L70.4469279,2.78016714 C68.7729351,0.868639991 65.9702977,0.430269066 63.7925603,1.73933281 L7.99107354,35.2822682 C4.4523925,37.4094114 2.24586782,41.1971549 2.14096657,45.3246235 Z" id="path-42"></path><linearGradient x1="0%" y1="7.87466903%" x2="76.0315083%" y2="136.183878%" id="linearGradient-44"><stop stop-color="#E7FFE6" offset="0%"></stop><stop stop-color="#94F2D3" offset="100%"></stop></linearGradient><linearGradient x1="149.007968%" y1="216.981944%" x2="43.3190131%" y2="19.3627638%" id="linearGradient-45"><stop stop-color="#4FCEC4" offset="0%"></stop><stop stop-color="#199077" offset="100%"></stop></linearGradient><linearGradient x1="124.664718%" y1="119.355924%" x2="50%" y2="22.8214466%" id="linearGradient-46"><stop stop-color="#4FCEC4" offset="0%"></stop><stop stop-color="#199077" offset="100%"></stop></linearGradient><path d="M38.1632777,32.9948914 L107.543188,19.7836798 C108.682515,19.5667311 109.781993,20.3144659 109.998941,21.4537923 C110.048762,21.7154305 110.048357,21.9841577 109.997749,22.2456446 L96.7633191,90.6260308 C96.2079793,93.4953915 93.9600114,95.7365989 91.0889911,96.283294 L21.7090806,109.494506 C20.5697542,109.711454 19.470276,108.96372 19.2533273,107.824393 C19.2035066,107.562755 19.2039113,107.294028 19.2545198,107.032541 L32.4889496,38.6521547 C33.0442895,35.7827939 35.2922573,33.5415865 38.1632777,32.9948914 Z" id="path-47"></path><linearGradient x1="0%" y1="7.07669147%" x2="76.0315083%" y2="137.816454%" id="linearGradient-49"><stop stop-color="#E7FFE6" offset="0%"></stop><stop stop-color="#94F2D3" offset="100%"></stop></linearGradient><linearGradient x1="56.0205282%" y1="0%" x2="50%" y2="93.5861231%" id="linearGradient-50"><stop stop-color="#79CC74" offset="0%"></stop><stop stop-color="#1EBF69" offset="45.3042286%"></stop><stop stop-color="#37A681" offset="100%"></stop></linearGradient><path d="M16.3276117,11.0049496 L98.743689,66.5540885 C104.657875,70.5403003 108.20346,77.2058124 108.20346,84.3379566 L108.20346,252.974256 C108.20346,258.758748 103.514203,263.448006 97.7297102,263.448006 C95.6438538,263.448006 93.6055026,262.825202 91.8758485,261.659401 L9.45977122,206.110262 C3.54558517,202.12405 -2.67927792e-15,195.458538 -3.55271368e-15,188.326394 L5.32907052e-15,19.6900945 C4.62067451e-15,13.9056021 4.6892576,9.21634445 10.47375,9.21634445 C12.5596064,9.21634445 14.5979576,9.8391479 16.3276117,11.0049496 Z" id="path-51"></path><linearGradient x1="12.3188361%" y1="9.87606506%" x2="50%" y2="89.1101229%" id="linearGradient-53"><stop stop-color="#063136" stop-opacity="0" offset="0%"></stop><stop stop-color="#08333B" stop-opacity="0.726449275" offset="100%"></stop></linearGradient><linearGradient x1="52.8870485%" y1="-32.3228694%" x2="45.2953308%" y2="320.825854%" id="linearGradient-54"><stop stop-color="#FFFFFF" offset="0%"></stop><stop stop-color="#FFFFFF" offset="66.3803757%"></stop><stop stop-color="#199077" offset="100%"></stop></linearGradient><linearGradient x1="70.1906094%" y1="-32.3228694%" x2="17.0978378%" y2="320.825854%" id="linearGradient-55"><stop stop-color="#FFFFFF" offset="0%"></stop><stop stop-color="#FFFFFF" offset="66.3803757%"></stop><stop stop-color="#199077" offset="100%"></stop></linearGradient><linearGradient x1="52.0572708%" y1="-32.3228694%" x2="46.6475179%" y2="320.825854%" id="linearGradient-56"><stop stop-color="#FFFFFF" offset="0%"></stop><stop stop-color="#FFFFFF" offset="66.3803757%"></stop><stop stop-color="#199077" offset="100%"></stop></linearGradient><ellipse id="path-57" cx="90.8224635" cy="56.4768759" rx="1.99408983" ry="1.99459654"></ellipse><filter x="-376.1%" y="-376.0%" width="852.2%" height="852.0%" id="filter-58"><feOffset dx="0" dy="0" in="SourceAlpha" result="shadowOffsetOuter1"></feOffset><feGaussianBlur stdDeviation="5" in="shadowOffsetOuter1" result="shadowBlurOuter1"></feGaussianBlur><feColorMatrix values="0 0 0 0 1 0 0 0 0 1 0 0 0 0 1 0 0 0 1 0" type="matrix" in="shadowBlurOuter1"></feColorMatrix></filter><linearGradient x1="56.0205282%" y1="0%" x2="50%" y2="93.5861231%" id="linearGradient-59"><stop stop-color="#79CC74" offset="0%"></stop><stop stop-color="#53BF85" offset="45.3042286%"></stop><stop stop-color="#37A681" offset="100%"></stop></linearGradient><path d="M16.3276117,11.0049496 L98.743689,66.5540885 C104.657875,70.5403003 108.20346,77.2058124 108.20346,84.3379566 L108.20346,252.974256 C108.20346,258.758748 103.514203,263.448006 97.7297102,263.448006 C95.6438538,263.448006 93.6055026,262.825202 91.8758485,261.659401 L9.45977122,206.110262 C3.54558517,202.12405 3.2699333e-15,195.458538 -7.10542736e-15,188.326394 L7.10542736e-15,19.6900945 C3.82820069e-15,13.9056021 4.6892576,9.21634445 10.47375,9.21634445 C12.5596064,9.21634445 14.5979576,9.8391479 16.3276117,11.0049496 Z" id="path-60"></path><linearGradient x1="65.075965%" y1="2.24646884%" x2="58.7355418%" y2="100%" id="linearGradient-62"><stop stop-color="#063136" stop-opacity="0" offset="0%"></stop><stop stop-color="#08333B" stop-opacity="0.726449275" offset="100%"></stop></linearGradient><linearGradient x1="116.686777%" y1="-32.3228694%" x2="-58.6712699%" y2="320.825854%" id="linearGradient-63"><stop stop-color="#FFFFFF" offset="0%"></stop><stop stop-color="#FFFFFF" offset="66.3803757%"></stop><stop stop-color="#199077" offset="100%"></stop></linearGradient><linearGradient x1="62.9217336%" y1="-32.3228694%" x2="28.943034%" y2="320.825854%" id="linearGradient-64"><stop stop-color="#FFFFFF" offset="0%"></stop><stop stop-color="#FFFFFF" offset="66.3803757%"></stop><stop stop-color="#199077" offset="100%"></stop></linearGradient><linearGradient x1="64.2507809%" y1="-32.3228694%" x2="26.7772485%" y2="320.825854%" id="linearGradient-65"><stop stop-color="#FFFFFF" offset="0%"></stop><stop stop-color="#FFFFFF" offset="66.3803757%"></stop><stop stop-color="#199077" offset="100%"></stop></linearGradient><linearGradient x1="54.3933719%" y1="-32.3228694%" x2="42.8406602%" y2="320.825854%" id="linearGradient-66"><stop stop-color="#FFFFFF" offset="0%"></stop><stop stop-color="#FFFFFF" offset="66.3803757%"></stop><stop stop-color="#199077" offset="100%"></stop></linearGradient><linearGradient x1="68.6388937%" y1="19.3239989%" x2="61.8190464%" y2="152.713243%" id="linearGradient-67"><stop stop-color="#D5FFA5" stop-opacity="0" offset="0%"></stop><stop stop-color="#EAFDFF" stop-opacity="0.651834239" offset="100%"></stop></linearGradient><linearGradient x1="55.1746924%" y1="14.7642534%" x2="53.2813068%" y2="167.980756%" id="linearGradient-68"><stop stop-color="#D5FFA5" stop-opacity="0" offset="0%"></stop><stop stop-color="#EAFDFF" stop-opacity="0.651834239" offset="100%"></stop></linearGradient><linearGradient x1="88.2150885%" y1="0%" x2="46.806642%" y2="107.036755%" id="linearGradient-69"><stop stop-color="#B0FFAB" offset="0%"></stop><stop stop-color="#00FFAB" offset="100%"></stop></linearGradient><ellipse id="path-70" cx="109.253979" cy="109.275886" rx="109.253979" ry="109.275886"></ellipse><linearGradient x1="50%" y1="50%" x2="42.2947663%" y2="122.097533%" id="linearGradient-72"><stop stop-color="#E7FFE6" offset="0%"></stop><stop stop-color="#94F2D3" offset="100%"></stop></linearGradient><linearGradient x1="84.1852394%" y1="31.9564369%" x2="50%" y2="88.0281405%" id="linearGradient-73"><stop stop-color="#1A7C89" stop-opacity="0" offset="0%"></stop><stop stop-color="#0B4651" stop-opacity="0.348363904" offset="100%"></stop></linearGradient><linearGradient x1="167.784916%" y1="26.4039953%" x2="-141.939646%" y2="127.626159%" id="linearGradient-74"><stop stop-color="#FFFFFF" offset="0%"></stop><stop stop-color="#FFFFFF" offset="66.3803757%"></stop><stop stop-color="#199077" offset="100%"></stop></linearGradient><ellipse id="path-75" cx="64.9940898" cy="31.9945965" rx="1.99408983" ry="1.99459654"></ellipse><filter x="-376.1%" y="-376.0%" width="852.2%" height="852.0%" id="filter-76"><feOffset dx="0" dy="0" in="SourceAlpha" result="shadowOffsetOuter1"></feOffset><feGaussianBlur stdDeviation="5" in="shadowOffsetOuter1" result="shadowBlurOuter1"></feGaussianBlur><feColorMatrix values="0 0 0 0 1 0 0 0 0 1 0 0 0 0 1 0 0 0 1 0" type="matrix" in="shadowBlurOuter1"></feColorMatrix></filter><ellipse id="path-77" cx="92.9940898" cy="19.9945965" rx="1.99408983" ry="1.99459654"></ellipse><filter x="-376.1%" y="-376.0%" width="852.2%" height="852.0%" id="filter-78"><feOffset dx="0" dy="0" in="SourceAlpha" result="shadowOffsetOuter1"></feOffset><feGaussianBlur stdDeviation="5" in="shadowOffsetOuter1" result="shadowBlurOuter1"></feGaussianBlur><feColorMatrix values="0 0 0 0 1 0 0 0 0 1 0 0 0 0 1 0 0 0 1 0" type="matrix" in="shadowBlurOuter1"></feColorMatrix></filter><ellipse id="path-79" cx="115.99409" cy="33.9945965" rx="1.99408983" ry="1.99459654"></ellipse><filter x="-376.1%" y="-376.0%" width="852.2%" height="852.0%" id="filter-80"><feOffset dx="0" dy="0" in="SourceAlpha" result="shadowOffsetOuter1"></feOffset><feGaussianBlur stdDeviation="5" in="shadowOffsetOuter1" result="shadowBlurOuter1"></feGaussianBlur><feColorMatrix values="0 0 0 0 1 0 0 0 0 1 0 0 0 0 1 0 0 0 1 0" type="matrix" in="shadowBlurOuter1"></feColorMatrix></filter><ellipse id="path-81" cx="171.99409" cy="-11.0054035" rx="1.99408983" ry="1.99459654"></ellipse><filter x="-376.1%" y="-376.0%" width="852.2%" height="852.0%" id="filter-82"><feOffset dx="0" dy="0" in="SourceAlpha" result="shadowOffsetOuter1"></feOffset><feGaussianBlur stdDeviation="5" in="shadowOffsetOuter1" result="shadowBlurOuter1"></feGaussianBlur><feColorMatrix values="0 0 0 0 1 0 0 0 0 1 0 0 0 0 1 0 0 0 1 0" type="matrix" in="shadowBlurOuter1"></feColorMatrix></filter><linearGradient x1="122.972696%" y1="-32.3228694%" x2="-68.9146621%" y2="320.825854%" id="linearGradient-83"><stop stop-color="#FFFFFF" offset="0%"></stop><stop stop-color="#FFFFFF" offset="66.3803757%"></stop><stop stop-color="#199077" offset="100%"></stop></linearGradient><linearGradient x1="65.980252%" y1="19.2164082%" x2="45.2553885%" y2="100%" id="linearGradient-84"><stop stop-color="#E7FFE6" stop-opacity="0.908910779" offset="0%"></stop><stop stop-color="#40FFBA" stop-opacity="0.888841712" offset="100%"></stop></linearGradient><path d="M17.1539418,11.4721331 L103.956053,69.5232435 C110.22058,73.7128044 113.981315,80.7521365 113.981315,88.2884961 L113.981315,264.357447 C113.981315,270.446386 109.045254,275.382447 102.956315,275.382447 C100.774227,275.382447 98.6412128,274.734924 96.8273731,273.521873 L10.025262,215.470762 C3.76073537,211.281201 9.22937857e-16,204.241869 0,196.70551 L-5.32907052e-15,20.6365587 C-6.07475053e-15,14.5476194 4.93606063,9.61155874 11.025,9.61155874 C13.207088,9.61155874 15.3401021,10.2590818 17.1539418,11.4721331 Z" id="path-85"></path><linearGradient x1="67.997592%" y1="12.000196%" x2="50%" y2="90.8687729%" id="linearGradient-87"><stop stop-color="#FFFFFF" stop-opacity="0" offset="0%"></stop><stop stop-color="#5AE1B5" stop-opacity="0.374660326" offset="100%"></stop></linearGradient><linearGradient x1="50%" y1="0%" x2="50%" y2="100%" id="linearGradient-88"><stop stop-color="#1A7C89" offset="0%"></stop><stop stop-color="#157182" offset="100%"></stop></linearGradient><linearGradient x1="17.8431436%" y1="-27.74689%" x2="80.9380232%" y2="234.023298%" id="linearGradient-89"><stop stop-color="#FFFFFF" offset="0%"></stop><stop stop-color="#FFFFFF" offset="100%"></stop></linearGradient><linearGradient x1="31.4857953%" y1="50%" x2="96.8902168%" y2="100%" id="linearGradient-90"><stop stop-color="#E7FFE6" offset="0%"></stop><stop stop-color="#94F2D3" offset="100%"></stop></linearGradient><linearGradient x1="65.7471662%" y1="19.2164082%" x2="45.3245928%" y2="100%" id="linearGradient-91"><stop stop-color="#E7FFE6" stop-opacity="0.908910779" offset="0%"></stop><stop stop-color="#40FFBA" stop-opacity="0.888841712" offset="100%"></stop></linearGradient><path d="M17.1850618,11.5776908 L104.019775,70.0788167 C110.247481,74.2744638 113.981315,81.2921171 113.981315,88.8012967 L113.981315,266.374237 C113.981315,272.463177 109.045254,277.399237 102.956315,277.399237 C100.761456,277.399237 98.6165496,276.74412 96.7962531,275.517774 L9.96154022,217.016648 C3.73383417,212.821001 8.02503663e-15,205.803348 7.10542736e-15,198.294168 L7.10542736e-15,20.7212276 C6.35974735e-15,14.6322882 4.93606063,9.69622758 11.025,9.69622758 C13.2198584,9.69622758 15.3647653,10.3513449 17.1850618,11.5776908 Z" id="path-92"></path><linearGradient x1="63.8582875%" y1="-6.6523851%" x2="54.397339%" y2="75.5431509%" id="linearGradient-94"><stop stop-color="#FFFFFF" stop-opacity="0" offset="0%"></stop><stop stop-color="#5AE1B5" stop-opacity="0.374660326" offset="100%"></stop></linearGradient><linearGradient x1="50%" y1="0%" x2="50%" y2="100%" id="linearGradient-95"><stop stop-color="#1A7C89" offset="0%"></stop><stop stop-color="#157182" offset="100%"></stop></linearGradient><linearGradient x1="80.7372737%" y1="1.65230003%" x2="50%" y2="74.7712276%" id="linearGradient-96"><stop stop-color="#79CC74" offset="0%"></stop><stop stop-color="#53BF85" offset="45.3042286%"></stop><stop stop-color="#37A681" offset="100%"></stop></linearGradient><linearGradient x1="167.784916%" y1="23.5416049%" x2="-141.939646%" y2="137.042853%" id="linearGradient-97"><stop stop-color="#FFFFFF" offset="0%"></stop><stop stop-color="#FFFFFF" offset="66.3803757%"></stop><stop stop-color="#199077" offset="100%"></stop></linearGradient><ellipse id="path-98" cx="126.99409" cy="217.994597" rx="1.99408983" ry="1.99459654"></ellipse><filter x="-376.1%" y="-376.0%" width="852.2%" height="852.0%" id="filter-99"><feOffset dx="0" dy="0" in="SourceAlpha" result="shadowOffsetOuter1"></feOffset><feGaussianBlur stdDeviation="5" in="shadowOffsetOuter1" result="shadowBlurOuter1"></feGaussianBlur><feColorMatrix values="0 0 0 0 1 0 0 0 0 1 0 0 0 0 1 0 0 0 1 0" type="matrix" in="shadowBlurOuter1"></feColorMatrix></filter><ellipse id="path-100" cx="71.9940898" cy="225.994597" rx="1.99408983" ry="1.99459654"></ellipse><filter x="-376.1%" y="-376.0%" width="852.2%" height="852.0%" id="filter-101"><feOffset dx="0" dy="0" in="SourceAlpha" result="shadowOffsetOuter1"></feOffset><feGaussianBlur stdDeviation="5" in="shadowOffsetOuter1" result="shadowBlurOuter1"></feGaussianBlur><feColorMatrix values="0 0 0 0 1 0 0 0 0 1 0 0 0 0 1 0 0 0 1 0" type="matrix" in="shadowBlurOuter1"></feColorMatrix></filter><ellipse id="path-102" cx="84.9940898" cy="245.994597" rx="1.99408983" ry="1.99459654"></ellipse><filter x="-376.1%" y="-376.0%" width="852.2%" height="852.0%" id="filter-103"><feOffset dx="0" dy="0" in="SourceAlpha" result="shadowOffsetOuter1"></feOffset><feGaussianBlur stdDeviation="5" in="shadowOffsetOuter1" result="shadowBlurOuter1"></feGaussianBlur><feColorMatrix values="0 0 0 0 1 0 0 0 0 1 0 0 0 0 1 0 0 0 1 0" type="matrix" in="shadowBlurOuter1"></feColorMatrix></filter><ellipse id="path-104" cx="171.99409" cy="201.994597" rx="1.99408983" ry="1.99459654"></ellipse><filter x="-376.1%" y="-376.0%" width="852.2%" height="852.0%" id="filter-105"><feOffset dx="0" dy="0" in="SourceAlpha" result="shadowOffsetOuter1"></feOffset><feGaussianBlur stdDeviation="5" in="shadowOffsetOuter1" result="shadowBlurOuter1"></feGaussianBlur><feColorMatrix values="0 0 0 0 1 0 0 0 0 1 0 0 0 0 1 0 0 0 1 0" type="matrix" in="shadowBlurOuter1"></feColorMatrix></filter><ellipse id="path-106" cx="177.99409" cy="184.994597" rx="1.99408983" ry="1.99459654"></ellipse><filter x="-376.1%" y="-376.0%" width="852.2%" height="852.0%" id="filter-107"><feOffset dx="0" dy="0" in="SourceAlpha" result="shadowOffsetOuter1"></feOffset><feGaussianBlur stdDeviation="5" in="shadowOffsetOuter1" result="shadowBlurOuter1"></feGaussianBlur><feColorMatrix values="0 0 0 0 1 0 0 0 0 1 0 0 0 0 1 0 0 0 1 0" type="matrix" in="shadowBlurOuter1"></feColorMatrix></filter><ellipse id="path-108" cx="204.99409" cy="256.994597" rx="1.99408983" ry="1.99459654"></ellipse><filter x="-376.1%" y="-376.0%" width="852.2%" height="852.0%" id="filter-109"><feOffset dx="0" dy="0" in="SourceAlpha" result="shadowOffsetOuter1"></feOffset><feGaussianBlur stdDeviation="5" in="shadowOffsetOuter1" result="shadowBlurOuter1"></feGaussianBlur><feColorMatrix values="0 0 0 0 1 0 0 0 0 1 0 0 0 0 1 0 0 0 1 0" type="matrix" in="shadowBlurOuter1"></feColorMatrix></filter><ellipse id="path-110" cx="192.99409" cy="258.994597" rx="1.99408983" ry="1.99459654"></ellipse><filter x="-376.1%" y="-376.0%" width="852.2%" height="852.0%" id="filter-111"><feOffset dx="0" dy="0" in="SourceAlpha" result="shadowOffsetOuter1"></feOffset><feGaussianBlur stdDeviation="5" in="shadowOffsetOuter1" result="shadowBlurOuter1"></feGaussianBlur><feColorMatrix values="0 0 0 0 1 0 0 0 0 1 0 0 0 0 1 0 0 0 1 0" type="matrix" in="shadowBlurOuter1"></feColorMatrix></filter><ellipse id="path-112" cx="222.99409" cy="221.994597" rx="1.99408983" ry="1.99459654"></ellipse><filter x="-376.1%" y="-376.0%" width="852.2%" height="852.0%" id="filter-113"><feOffset dx="0" dy="0" in="SourceAlpha" result="shadowOffsetOuter1"></feOffset><feGaussianBlur stdDeviation="5" in="shadowOffsetOuter1" result="shadowBlurOuter1"></feGaussianBlur><feColorMatrix values="0 0 0 0 1 0 0 0 0 1 0 0 0 0 1 0 0 0 1 0" type="matrix" in="shadowBlurOuter1"></feColorMatrix></filter><linearGradient x1="167.784916%" y1="47.9719869%" x2="-141.939646%" y2="56.6717594%" id="linearGradient-114"><stop stop-color="#FFFFFF" offset="0%"></stop><stop stop-color="#FFFFFF" offset="66.3803757%"></stop><stop stop-color="#199077" offset="100%"></stop></linearGradient><linearGradient x1="95.8226718%" y1="45.2600906%" x2="27.5241278%" y2="72.4232657%" id="linearGradient-115"><stop stop-color="#066272" offset="0%"></stop><stop stop-color="#2D9E90" offset="100%"></stop></linearGradient><path d="M0.413353695,148.929991 C0.413353695,145.139083 2.30070433,141.596976 5.44721509,139.482632 L207.950508,3.40758191 C213.241592,-0.147839283 220.154102,-0.163246303 225.460983,3.36855351 L380.475133,106.532544 C383.467599,108.52407 385.42798,111.735329 385.831783,115.30716 C386.224814,118.783706 384.700334,122.199724 381.850224,124.22894 L182.153847,266.408421 C177.118362,269.993577 170.385451,270.072925 165.266872,266.607436 L5.43538157,158.394894 C2.29472066,156.268537 0.413353695,152.722767 0.413353695,148.929991 Z" id="path-116"></path><linearGradient x1="63.1256598%" y1="62.6815124%" x2="-92.2206402%" y2="120.661135%" id="linearGradient-118"><stop stop-color="#063136" stop-opacity="0" offset="0%"></stop><stop stop-color="#0B4651" stop-opacity="0.726449275" offset="100%"></stop></linearGradient><linearGradient x1="36.5957424%" y1="53.665279%" x2="37.4599072%" y2="74.7824446%" id="linearGradient-119"><stop stop-color="#FFFFFF" stop-opacity="0" offset="0%"></stop><stop stop-color="#FFFFFF" stop-opacity="0.44183745" offset="44.183745%"></stop><stop stop-color="#FFFFFF" offset="100%"></stop></linearGradient><path d="M3.77369404,142.393652 L216.622723,0.254734168 L385.113178,114.840789 L181.124966,260.075963 C175.88991,263.803209 168.893221,263.896849 163.560291,260.311038 L3.7570863,152.86091 C0.869705723,150.919464 0.102874851,147.004926 2.04432161,144.117545 C2.50283554,143.435629 3.09032618,142.849999 3.77369404,142.393652 Z" id="path-120"></path><linearGradient x1="51.913573%" y1="28.7894184%" x2="36.5607714%" y2="75.3654921%" id="linearGradient-122"><stop stop-color="#E7FFE6" offset="0%"></stop><stop stop-color="#94F2D3" offset="100%"></stop></linearGradient><path d="M4.17178358,143.53076 L218.828501,-3.16410832 L387,115.603744 L180.742272,260.66082 C175.513511,264.338107 168.55907,264.411819 163.253539,260.846188 L4.21228677,153.961044 C1.32446356,152.020255 0.556740071,148.105892 2.49752836,145.218069 C2.94349221,144.554491 3.51168893,143.981864 4.17178358,143.53076 Z" id="path-123"></path><linearGradient x1="102.637363%" y1="40.714834%" x2="-142.57755%" y2="57.3006522%" id="linearGradient-125"><stop stop-color="#063136" stop-opacity="0" offset="0%"></stop><stop stop-color="#16574A" stop-opacity="0.103657156" offset="98.5594292%"></stop></linearGradient><linearGradient x1="80.7372737%" y1="-16.5766823%" x2="50%" y2="84.1109536%" id="linearGradient-126"><stop stop-color="#79CC74" offset="0%"></stop><stop stop-color="#53BF85" offset="45.3042286%"></stop><stop stop-color="#37A681" offset="100%"></stop></linearGradient><linearGradient x1="77.2116451%" y1="65.9789374%" x2="24.1601832%" y2="39.4542591%" id="linearGradient-127"><stop stop-color="#1A7C89" stop-opacity="0" offset="0%"></stop><stop stop-color="#0B4651" stop-opacity="0.13841712" offset="100%"></stop></linearGradient><linearGradient x1="0%" y1="35.8048239%" x2="94.7819848%" y2="35.8048239%" id="linearGradient-128"><stop stop-color="#C9FFC6" offset="0%"></stop><stop stop-color="#A7F6CE" stop-opacity="0.965040879" offset="64.2244314%"></stop><stop stop-color="#43DFAC" stop-opacity="0.945567255" offset="100%"></stop></linearGradient><path d="M0.372012421,72.3636449 C7.40799072,65.2273598 14.175378,61.0745982 20.6741742,59.9053601 C30.4223686,58.151503 36.4756812,51.4276375 36.4756812,47.2824491 C36.4756812,43.1372606 45.618425,35.2967737 48.6363129,33.3617768 C51.6542009,31.4267799 56.2926031,21.0139737 53.2747151,16.9111509 C50.2568271,12.8083282 55.7917772,1.871085 53.2747151,0.755674578 C50.757653,-0.359735844 40.77523,0.0577021249 37.2584343,7.97728486 C33.7416386,15.8968676 21.5836643,5.93853821 18.8808607,14.3641909 C17.0789916,19.9812926 10.9093755,27.9137511 0.372012421,38.1615662 L0.372012421,72.3636449 Z" id="path-129"></path><path d="M43.6240739,44.3741518 C42.4597528,24.5230894 36.3629771,11.6146858 25.3337467,5.6489408 C14.3045163,-0.316804188 5.85993404,-1.55731202 0,1.9274173 C0.584915872,11.3658111 4.46405769,15.8641664 11.6374255,15.4224831 C22.3974771,14.7599583 21.330316,16.1349474 18.3554135,22.1870759 C15.3805111,28.2392044 30.3432201,24.7037139 32.2610956,30.1411692 C33.5396792,33.7661394 37.3273387,38.5104669 43.6240739,44.3741518 Z" id="path-131"></path><linearGradient x1="50%" y1="0%" x2="50%" y2="100%" id="linearGradient-133"><stop stop-color="#1A7C89" offset="0%"></stop><stop stop-color="#157182" offset="100%"></stop></linearGradient><linearGradient x1="88.2304152%" y1="35.6294357%" x2="29.8932654%" y2="61.6474052%" id="linearGradient-134"><stop stop-color="#2DDD22" offset="0%"></stop><stop stop-color="#53BF85" offset="22.8585716%"></stop><stop stop-color="#B8FBB8" offset="100%"></stop></linearGradient><path d="M-9.09494702e-13,20.6959424 L47.5343913,51.3968443 L90.6619204,24.5218708 C93.6777194,22.6425719 94.9172081,18.8748977 93.6061929,15.5721644 L87.4248451,0 L30.417137,2.3282024 L-9.09494702e-13,20.6959424 Z" id="path-135"></path><linearGradient x1="0%" y1="46.5243559%" x2="120.433684%" y2="-14.8243488%" id="linearGradient-137"><stop stop-color="#063136" stop-opacity="0" offset="0%"></stop><stop stop-color="#08333B" stop-opacity="0.726449275" offset="100%"></stop></linearGradient><linearGradient x1="50%" y1="0%" x2="50%" y2="100%" id="linearGradient-138"><stop stop-color="#1A7C89" offset="0%"></stop><stop stop-color="#157182" offset="100%"></stop></linearGradient><linearGradient x1="88.2304152%" y1="29.9187406%" x2="29.8932654%" y2="66.2759486%" id="linearGradient-139"><stop stop-color="#2DDD22" offset="0%"></stop><stop stop-color="#53BF85" offset="22.8585716%"></stop><stop stop-color="#B8FBB8" offset="100%"></stop></linearGradient><path d="M1.18557873,17.2202559 L30.6913031,36.2586657 C32.6608609,37.5295123 35.2032104,37.4838105 37.1258205,36.1429973 L59.1338156,20.7947949 L23.0468261,9.09494702e-13 L1.16589321,14.5863333 C0.442120945,15.0688165 0.246517546,16.0466798 0.729000793,16.7704521 C0.848755329,16.9500957 1.00416528,17.1031998 1.18557873,17.2202559 Z" id="path-140"></path><linearGradient x1="0%" y1="44.7220875%" x2="120.433684%" y2="-48.4385138%" id="linearGradient-142"><stop stop-color="#063136" stop-opacity="0" offset="0%"></stop><stop stop-color="#08333B" stop-opacity="0.726449275" offset="100%"></stop></linearGradient><linearGradient x1="35.5208013%" y1="0%" x2="65.8794025%" y2="93.291516%" id="linearGradient-143"><stop stop-color="#4FCEC4" offset="0%"></stop><stop stop-color="#199077" offset="100%"></stop></linearGradient><path d="M43.278707,3.65926745 L43.278707,3.65926745 C49.9473576,-0.213337313 58.1862625,-0.188098035 64.8310612,3.7252915 L118.388452,35.2673957 C125.642844,39.5397992 129.444959,47.8977254 127.898899,56.1735536 L97.499759,218.895633 C96.6671369,223.352535 94.3448467,227.394268 90.9136774,230.358102 L87.1900425,233.574568 C81.7549313,238.269403 73.9879364,239.127321 67.6591991,235.731884 L9.12928273,204.329948 C3.03369931,201.059602 -0.269946481,194.242315 0.940347801,187.431552 L30.2990371,22.2196054 C31.6842466,14.424531 36.4322199,7.63514513 43.278707,3.65926745 Z" id="path-144"></path><linearGradient x1="51.3832505%" y1="-7.25563084%" x2="50%" y2="81.4682925%" id="linearGradient-146"><stop stop-color="#063136" stop-opacity="0" offset="0%"></stop><stop stop-color="#063136" stop-opacity="0" offset="0%"></stop><stop stop-color="#0B4651" stop-opacity="0.726449275" offset="100%"></stop></linearGradient><linearGradient x1="40.1471115%" y1="-37.9527897%" x2="50.8925895%" y2="100%" id="linearGradient-147"><stop stop-color="#E7FFE6" offset="0%"></stop><stop stop-color="#94F2D3" offset="100%"></stop></linearGradient><linearGradient x1="53.0176793%" y1="-35.0700191%" x2="50%" y2="93.5861231%" id="linearGradient-148"><stop stop-color="#79CC74" offset="0%"></stop><stop stop-color="#53BF85" offset="45.3042286%"></stop><stop stop-color="#37A681" offset="100%"></stop></linearGradient><linearGradient x1="59.2974289%" y1="-35.0700191%" x2="50%" y2="93.5861231%" id="linearGradient-149"><stop stop-color="#79CC74" offset="0%"></stop><stop stop-color="#53BF85" offset="45.3042286%"></stop><stop stop-color="#37A681" offset="100%"></stop></linearGradient><linearGradient x1="53.6141434%" y1="-35.0700191%" x2="50%" y2="93.5861231%" id="linearGradient-150"><stop stop-color="#79CC74" offset="0%"></stop><stop stop-color="#53BF85" offset="45.3042286%"></stop><stop stop-color="#37A681" offset="100%"></stop></linearGradient><linearGradient x1="80.7372737%" y1="2.78349045%" x2="50%" y2="74.1916555%" id="linearGradient-151"><stop stop-color="#79CC74" offset="0%"></stop><stop stop-color="#53BF85" offset="45.3042286%"></stop><stop stop-color="#37A681" offset="100%"></stop></linearGradient><linearGradient x1="-204.126538%" y1="-354.641304%" x2="90.2668385%" y2="93.291516%" id="linearGradient-152"><stop stop-color="#4FCEC4" offset="0%"></stop><stop stop-color="#199077" offset="100%"></stop></linearGradient></defs><g id="Python-&amp;-Ruby" stroke="none" stroke-width="1" fill="none" fill-rule="evenodd"><g id="Hero" opacity="0.182687953" stroke-linecap="square" stroke-width="1.8"><g id="Floor"><g id="Group-21" transform="translate(470.000000, 294.000000)"><path d="M0.636295346,488.859066 L1029.59433,1182.90002" id="Line-3-Copy-40" stroke="url(#linearGradient-1)"></path><path d="M71.1387413,381.276608 L1259.59433,1182.90002" id="Line-3-Copy-45" stroke="url(#linearGradient-2)"></path><path d="M209.299438,320.647869 L1489.59433,1182.90002" id="Line-3-Copy-50" stroke="url(#linearGradient-3)"></path><path d="M354.433541,262.087445 L1719.59433,1182.90002" id="Line-3-Copy-55" stroke="url(#linearGradient-4)"></path><path d="M485.716539,195.501986 L1949.59433,1182.90002" id="Line-3-Copy-60" stroke="url(#linearGradient-5)"></path><path d="M608.02116,122.860536 L2179.59433,1182.90002" id="Line-3-Copy-65" stroke="url(#linearGradient-6)"></path><path d="M725.894508,47.2301541 L2409.59433,1182.90002" id="Line-3-Copy-70" stroke="url(#linearGradient-7)"></path><path d="M886.898358,0.691663326 L2639.59433,1182.90002" id="Line-3-Copy-75" stroke="url(#linearGradient-8)"></path></g><g id="Group-21-Copy-2" transform="translate(1555.000000, 738.500000) scale(-1, 1) translate(-1555.000000, -738.500000) "><path d="M0,0 L2189.59433,1476.90002" id="Line-3-Copy-27" stroke="url(#linearGradient-9)"></path><path d="M230,0 L2419.59433,1476.90002" id="Line-3-Copy-32" stroke="url(#linearGradient-9)"></path><path d="M460,0 L2649.59433,1476.90002" id="Line-3-Copy-37" stroke="url(#linearGradient-9)"></path><path d="M690,0 L2879.59433,1476.90002" id="Line-3-Copy-42" stroke="url(#linearGradient-9)"></path><path d="M1459.90582,364.171077 L3109.59433,1476.90002" id="Line-3-Copy-47" stroke="url(#linearGradient-10)"></path><path d="M1614.79782,313.510088 L2450.30917,877.069611" id="Line-3-Copy-52" stroke="url(#linearGradient-11)"></path><path d="M1751.56809,250.625843 L2644.91412,853.195345" id="Line-3-Copy-57" stroke="url(#linearGradient-12)"></path></g></g></g><g id="Illustration" transform="translate(676.000000, 150.000000)"><g id="Group-18" transform="translate(0.000000, 525.000000)"><path d="M2.42470365,130.541348 C0.263903775,88.0642635 11.3772973,61.5831556 35.7648841,51.0980243 L35.7648841,0.541348158 C12.5672752,12.9179092 0.968470716,31.2382377 0.968470716,55.5023337 L2.42470365,130.541348 Z" id="Path-321" fill="url(#linearGradient-13)" opacity="0.699999988"></path><path d="M4,55.1883697 C8.57935818,37.1796007 13.3897139,25.4606565 26.307618,17.4822703 L27,47.8905675 C17.8444161,50.0601069 8.9137278,61.274349 5.2815633,75.0484679 L4,55.1883697 Z" id="Path-323" fill="url(#linearGradient-14)" opacity="0.200000003"></path></g><g id="Group-10" transform="translate(365.973702, 450.915219)"><path d="M8.34352659,50.7286363 L0.060625664,37.9423568 L32.2596428,17.0755961 C38.1181245,13.278973 45.6974427,13.4325499 51.3973832,17.4633771 L77.8925614,36.1999737 C83.308293,40.0298168 90.4872484,40.2547693 96.1320442,36.7715077 L150.298861,0.346526023 L158.296914,13.3129597 L104.130097,49.7379414 C93.288505,56.4280154 79.5003526,55.9959637 69.0987094,48.6402332 L42.6035312,29.9036366 C41.9896914,29.4695476 41.1734571,29.4530085 40.5425437,29.8618756 L8.34352659,50.7286363 Z" id="Path-329-Copy-2" fill="url(#linearGradient-15)"></path><path d="M4.20207612,44.3354965 L36.4029902,23.4675065 C39.6464303,21.3655763 43.8429293,21.4505977 46.9985722,23.6821739 L73.0502736,42.1051569 C81.1816514,47.8554237 92.0090147,48.0243989 100.31587,42.5306723 L154.297887,6.82974288" id="Path-329-Copy" stroke="url(#linearGradient-16)" stroke-width="1.05"></path></g><g id="Group-9" transform="translate(344.000000, 592.000000)"><path d="M6.36053446,18.8924783 L17.9680064,2.00991192 L167.152239,105.036646 C171.50513,108.030642 177.17741,108.301949 181.796078,105.737066 L242.024236,64.3604027 L251.968074,82.2737752 L191.739916,123.650438 C180.323964,129.990055 166.3038,129.319466 155.544767,121.919213 L6.36053446,18.8924783 Z" id="Path-328" fill="url(#linearGradient-17)"></path><path d="M0,4 L162.131613,115.542141 C168.839579,120.157039 177.67559,120.244787 184.473882,115.764015 L250.510709,72.2389768" id="Path-328-Copy" stroke="url(#linearGradient-18)" stroke-width="1.05"></path><path d="M0,0 L162.131613,111.542141 C168.839579,116.157039 177.67559,116.244787 184.473882,111.764015 L250.510709,68.2389768" id="Path-328-Copy-2" stroke="url(#linearGradient-18)" stroke-width="1.05"></path></g><g id="Group-4" transform="translate(15.000000, 556.000000)"><path d="M65.5612444,187.112714 C59.1789428,193.718859 56.6492669,197.420098 57.9722166,198.216434 C58.7101647,198.660634 58.3026624,200.420936 60.8744864,199.615319 C64.9383038,198.342339 70.6570041,195.093986 73.3380984,191.793907 C76.2566646,188.201531 75.6837067,186.052829 71.6192245,185.347802 L65.5612444,187.112714 Z" id="Path-317" fill="#0B4651"></path><path d="M43.307738,169.404778 C36.0025026,176.700173 32.8948948,180.84269 33.9849146,181.832329 C36.3632055,183.9916 38.8279378,182.32533 47.5382939,176.951304 C52.4192816,173.939883 52.6061174,170.826141 51.7502639,169.179574 C51.4253477,168.554472 50.0377921,168.156869 47.5875971,167.986765 L43.307738,169.404778 Z" id="Path-317-Copy" fill="#0B4651" transform="translate(42.958242, 175.367918) rotate(8.000000) translate(-42.958242, -175.367918) "></path><g id="Group-3"><path d="M9.98852327,39.1449804 L5.74518532,35.1994441 L0.519997965,36.2501737 C0.545285234,34.486435 1.42247161,33.197737 3.15155709,32.3840797 C1.65850804,29.2584416 0.168141726,25.0656464 1.69192248,20.8057841 C3.15155709,18.046532 7.87889273,27.9479646 7.87889273,29.9457957 C7.87889273,31.2776831 9.65733428,32.7110649 13.2142174,34.245941 L9.98852327,39.1449804 Z" id="Path-318" fill="#FFD7B3"></path><g id="Path-311" transform="translate(8.929412, 33.097985)"><mask id="mask-21" fill="white"><use xlink:href="#path-20"></use></mask><use id="Mask" fill="url(#linearGradient-19)" xlink:href="#path-20"></use><polygon fill="url(#linearGradient-22)" mask="url(#mask-21)" points="36.5200039 1.14795627 26.2977916 27.3189715 42.5460208 20.1116815 46.4038928 -0.713904984"></polygon></g><g id="Path-313" transform="translate(43.071280, 93.514941)"><mask id="mask-24" fill="white"><use xlink:href="#path-23"></use></mask><use id="Mask" fill="#0B4651" xlink:href="#path-23"></use><polygon fill="url(#linearGradient-25)" mask="url(#mask-24)" points="16.5841848 34.2627386 12.9927844 2.81837156 -1.18922247 1.05072967 -7.84407694 81.0873065 12.9927844 84.0583739"></polygon></g><g id="Path-319" transform="translate(45.697578, 33.623350)"><mask id="mask-28" fill="white"><use xlink:href="#path-27"></use></mask><use id="Mask" fill="url(#linearGradient-26)" xlink:href="#path-27"></use><path d="M23.2259414,26.2682418 C23.8936358,30.9072992 24.7922043,35.7725658 25.9216467,40.8640417 C27.051089,45.9555176 29.3536706,52.9985206 32.8293914,61.9930507 L23.1114187,70.924253 L19.9598616,70.7193209 L23.2259414,26.2682418 Z" fill="url(#linearGradient-29)" mask="url(#mask-28)"></path></g><g id="Path-316" transform="translate(53.576471, 22.590688)"><mask id="mask-31" fill="white"><use xlink:href="#path-30"></use></mask><use id="Mask" fill="#FFD7B3" xlink:href="#path-30"></use><path d="M5.57511704,12.0456723 C11.7008995,13.2548958 17.0617267,11.0180169 17.0617267,4.02872445 C10.751943,2.72598128 6.92307309,2.95428609 5.57511704,4.71363888 L1.75683396,10.5072967 C0.218501055,10.7267315 1.49126208,11.2395234 5.57511704,12.0456723 Z" fill="url(#linearGradient-32)" mask="url(#mask-31)"></path><path d="M4.68342827,12.0222206 L4.39574598,15.2355803 C1.49105707,18.7145122 0.44685953,21.7004971 1.26315337,24.193535 C-1.3236097,22.7747271 -2.44500684,19.2633773 -2.10103806,13.6594858 L4.68342827,12.0222206 Z" id="Path" fill="url(#linearGradient-33)" mask="url(#mask-31)"></path></g><path d="M59.1602076,33.1872517 C64.3818784,33.1872517 68.8089965,27.460585 68.8089965,21.8026407 C68.8089965,16.1446965 63.375346,14.7580177 59.3543253,11.5580264 C55.3333045,8.35803508 50.1724866,15.8820141 50.1724866,21.5399583 C50.1724866,27.1979026 53.9385368,33.1872517 59.1602076,33.1872517 Z" id="Oval" fill="#FFD7B3"></path><path d="M64.6152553,17.585089 C59.0496946,20.6261306 54.6697537,20.7799449 51.4754325,18.046532 C46.6839507,13.9464125 52.4726644,4.26138205 56.0640647,2.10492914 C59.6554651,-0.0515237791 75.1573377,-2.25364207 75.4943008,8.87295394 C79.002391,12.6698618 80.6022338,14.8285556 78.5269693,17.3370396 C76.4517048,19.8455236 73.8795342,23.9890967 73.4342935,26.6194124 C72.9890528,29.2497282 70.6053564,33.3393586 69.7644378,30.6404608 C68.9235192,27.9415629 66.3412726,25.0656464 67.2879387,20.8057841 C67.9190494,17.965876 67.028155,16.8923109 64.6152553,17.585089 Z" id="Path-314" fill="#0B4651"></path><path d="M78.5269693,80.8755517 C77.8231123,79.5027611 77.2888502,78.6988952 76.9241828,78.463954 C76.1668462,77.9760311 75.1573377,78.7993918 75.1573377,78.463954 C75.1573377,77.5973824 72.4626479,86.4174584 75.6756842,89.3383688 C78.8887205,92.2592793 83.2866516,86.8954396 85.8150125,83.4533791 C88.3433734,80.0113185 89.4229697,74.1402733 88.2435986,72.6029749 C87.0642276,71.0656764 82.9447334,72.2779662 82.1799792,74.4873912 C81.670143,75.9603413 80.452473,78.0897281 78.5269693,80.8755517 Z" id="Path-315" fill="#FFD7B3"></path></g></g><g id="Group-17" transform="translate(1.000000, 584.000000)"><path d="M0.0223558988,0.541348158 C1.48337879,64.2977208 76.9194637,120.311416 176,72.9286154 C176,81.9160876 175.538582,98.768913 174.615745,123.487091 C101.740733,160.81435 3.33879286,118.83589 1.48337879,71.7271499 L0.0223558988,0.541348158 Z" id="Path-320" fill="url(#linearGradient-34)"></path><path d="M14.0765823,55.5413482 L13,85.9605102 C39.257973,122.637508 86.473874,134.823784 154.647703,122.519338 C154.647703,115.377153 155.176155,101.330972 156,91.0162334 C90,107.70357 42.6921941,95.8786087 14.0765823,55.5413482 Z" id="Path-322" fill="url(#linearGradient-35)" opacity="0.755371094"></path></g><g id="Group" transform="translate(171.102422, 418.715775)"><path d="M2.60647036,145.239962 L120.66654,222.6393 C125.530897,225.828337 131.849756,225.722101 136.604162,222.371349 L252.865446,140.434139 C254.761476,139.097878 255.215259,136.477588 253.878998,134.581557 C253.793838,134.460724 253.702359,134.344471 253.604941,134.233283 L206.464749,80.4299347 L49.4939761,80.38082 L1.3831634,136.657701 C-0.68935602,139.081999 -0.404183429,142.72739 2.02011421,144.799909 C2.20604907,144.958864 2.40189564,145.105844 2.60647036,145.239962 Z" id="Path-310" fill="url(#linearGradient-36)"></path><g id="Path-311-Copy-2" transform="translate(130.840138, 103.496873)"><mask id="mask-39" fill="white"><use xlink:href="#path-38"></use></mask><use id="Mask" fill="url(#linearGradient-37)" transform="translate(53.726149, 49.239274) rotate(-2.000000) translate(-53.726149, -49.239274) " xlink:href="#path-38"></use><path d="M-3.11137316,42.5122895 L-9.40968793,89.7296515 C-9.79305544,92.6036905 -7.77396725,95.2443402 -4.89992823,95.6277077 C-3.69973873,95.7878008 -2.48110439,95.5281194 -1.45044307,94.8926496 L90.5008904,38.1986653 C92.7221602,36.8291078 93.4126095,33.9181671 92.043052,31.6968973 C91.8938011,31.4548289 91.7230011,31.2267291 91.5327317,31.0153752 L66.2781042,2.96218004 C64.1150286,0.559405337 60.5628745,0.00394009546 57.7695337,1.6316592 L2.77819326,33.6758897 C-0.44433107,35.5537001 -2.61823393,38.8153112 -3.11137316,42.5122895 Z" fill="url(#linearGradient-40)" mask="url(#mask-39)" transform="translate(41.645180, 48.188544) rotate(-2.000000) translate(-41.645180, -48.188544) "></path></g><g id="Path-311-Copy-3" transform="translate(19.434602, 101.395413)"><mask id="mask-43" fill="white"><use xlink:href="#path-42"></use></mask><use id="Mask" fill="url(#linearGradient-41)" transform="translate(50.469770, 50.312247) scale(-1, 1) rotate(-1.000000) translate(-50.469770, -50.312247) " xlink:href="#path-42"></use><path d="M15.2539676,45.8360754 L13.9839076,95.8081465 C13.9249732,98.1269936 15.7569944,100.054566 18.0758416,100.113501 C18.8985566,100.13441 19.7092863,99.9131537 20.4073224,99.4772148 L112.308846,42.0827014 C114.768141,40.5468178 115.516714,37.3080855 113.980831,34.8487904 C113.788978,34.5415915 113.565852,34.2550702 113.315016,33.9938044 L83.5692504,3.0112078 C81.8720668,1.24345515 79.1776684,0.884994169 77.0773375,2.14752799 L21.1040745,35.7937201 C17.5653935,37.9208633 15.3588688,41.7086068 15.2539676,45.8360754 Z" fill="url(#linearGradient-44)" mask="url(#mask-43)" transform="translate(64.380556, 50.755936) scale(-1, 1) rotate(-1.000000) translate(-64.380556, -50.755936) "></path></g><path d="M95.9838153,41.290544 L182.818196,24.7936699 C184.242468,24.5230853 185.616421,25.4583341 185.887006,26.8826064 C185.949145,27.2096868 185.948496,27.5456022 185.885093,27.87244 L169.325154,113.238668 C168.629443,116.825047 165.818312,119.625339 162.229271,120.307188 L75.3948912,136.804062 C73.9706188,137.074646 72.5966658,136.139398 72.3260813,134.715125 C72.2639423,134.388045 72.2645912,134.05213 72.3279935,133.725292 L88.8879325,48.3590633 C89.5836434,44.7726844 92.3947751,41.9723931 95.9838153,41.290544 Z" id="Rectangle" fill="url(#linearGradient-45)" transform="translate(129.106543, 80.798866) rotate(-315.000000) translate(-129.106543, -80.798866) "></path><g id="Rectangle-Copy-2" transform="translate(64.081661, 15.760945)"><mask id="mask-48" fill="white"><use xlink:href="#path-47"></use></mask><use id="Mask" fill="url(#linearGradient-46)" transform="translate(64.626134, 64.639093) rotate(-315.000000) translate(-64.626134, -64.639093) " xlink:href="#path-47"></use><path d="M36.5874991,46.1290124 L105.96741,32.9178007 C107.106736,32.700852 108.206214,33.4485869 108.423163,34.5879132 C108.472984,34.8495514 108.472579,35.1182786 108.42197,35.3797656 L95.1875406,103.760152 C94.6322007,106.629512 92.3842329,108.87072 89.5132125,109.417415 L20.1333021,122.628627 C18.9939757,122.845575 17.8944975,122.09784 17.6775488,120.958514 C17.6277281,120.696876 17.6281327,120.428149 17.6787413,120.166662 L30.9131711,51.7862756 C31.4685109,48.9169149 33.7164788,46.6757075 36.5874991,46.1290124 Z" fill="url(#linearGradient-49)" opacity="0.900000036" mask="url(#mask-48)" transform="translate(63.050356, 77.773214) rotate(-315.000000) translate(-63.050356, -77.773214) "></path></g></g><g id="Group-6" transform="translate(147.991003, 0.000000)"><g id="Oval" transform="translate(36.242907, 161.287005)"><mask id="mask-52" fill="white"><use xlink:href="#path-51"></use></mask><use id="Mask" fill="url(#linearGradient-50)" opacity="0.870372954" transform="translate(54.101730, 136.332175) scale(1, -1) translate(-54.101730, -136.332175) " xlink:href="#path-51"></use><ellipse fill="url(#linearGradient-53)" mask="url(#mask-52)" cx="119.49654" cy="194.647672" rx="141.03218" ry="141.060459"></ellipse><polyline id="Path-8" stroke="url(#linearGradient-54)" stroke-width="1.05" stroke-linecap="round" mask="url(#mask-52)" points="81.4569092 94.8597138 76.1608407 79.5801099 80.5019481 68.4414505 78.8088749 60.7310617 83.3123427 49.1808742"></polyline><polyline id="Path-10" stroke="url(#linearGradient-55)" stroke-width="1.05" stroke-linecap="round" mask="url(#mask-52)" points="41.0558824 112.907622 39.5395481 102.971508 30.851608 99.4653544 30.851608 88.2612926"></polyline><polyline id="Path-12" stroke="url(#linearGradient-56)" stroke-width="1.05" stroke-linecap="round" mask="url(#mask-52)" points="58.409485 102.971508 56.5561877 94.8597138 58.409485 90.3644659 56.2027682 86.2742281"></polyline><g id="Oval-Copy-98" fill-rule="nonzero" mask="url(#mask-52)"><use fill="black" fill-opacity="1" filter="url(#filter-58)" xlink:href="#path-57"></use><use fill="#FCFFF3" xlink:href="#path-57"></use></g></g><g id="Oval-Copy-8" transform="translate(163.355709, 161.287005)"><mask id="mask-61" fill="white"><use xlink:href="#path-60"></use></mask><use id="Mask" fill="url(#linearGradient-59)" opacity="0.870372954" transform="translate(54.101730, 136.332175) scale(-1, -1) translate(-54.101730, -136.332175) " xlink:href="#path-60"></use><ellipse fill="url(#linearGradient-62)" mask="url(#mask-61)" cx="-7.61626298" cy="194.647672" rx="141.03218" ry="141.060459"></ellipse><path d="M21.688852,88.2612926 C23.6720669,85.7749754 24.8040444,83.4492033 25.0847845,81.2839764 C25.3655246,79.1187496 25.3655246,76.3366872 25.0847845,72.9377893 L33.2189524,69.4010798 L39.422124,57.6142861 L44.7490529,57.6142861" id="Path-4" stroke="url(#linearGradient-63)" stroke-width="1.05" stroke-linecap="round" mask="url(#mask-61)"></path><polyline id="Path-5" stroke="url(#linearGradient-64)" stroke-width="1.05" stroke-linecap="round" mask="url(#mask-61)" points="30.3077031 69.5195587 26.9394213 64.0945101 27.5675836 55.6886727 23.5711395 49.1808742"></polyline><polyline id="Path-6" stroke="url(#linearGradient-65)" stroke-width="1.05" stroke-linecap="round" mask="url(#mask-61)" points="44.6212936 102.971508 49.7380357 98.3358692 47.644373 92.9017002 49.7380357 88.2612926"></polyline><polyline id="Path-7" stroke="url(#linearGradient-66)" stroke-width="1.05" stroke-linecap="round" mask="url(#mask-61)" points="73.0741419 86.2742281 72.4858131 81.2839764 75.1799512 77.2409052 73.0741419 72.3245015"></polyline></g><polygon id="Path-327" fill="url(#linearGradient-67)" points="69.8595156 280.393198 0.301139833 0.136591677 303.080673 0.136591677 238.53566 282.646802"></polygon><polygon id="Path-327-Copy" fill="url(#linearGradient-68)" points="187.233634 280.393198 208.374525 0.136591677 336.089637 0.136591677 238.53566 282.646802"></polygon><g id="Oval" transform="translate(43.071280, 243.769284)"><mask id="mask-71" fill="white"><use xlink:href="#path-70"></use></mask><use id="Mask" fill="url(#linearGradient-69)" xlink:href="#path-70"></use><ellipse fill="url(#linearGradient-72)" opacity="0.200000003" mask="url(#mask-71)" cx="127.365052" cy="-25.7296734" rx="106.365052" ry="83.2703266"></ellipse><path d="M-65.3035322,184.604036 C55.8413526,186.89616 132.059956,121.001082 163.352277,-13.0811996 C202.120493,17.4707328 225.480411,52.4406478 233.43203,91.8285455 L141.973281,247.446838 L-65.3035322,184.604036 Z" id="Path-2" fill="url(#linearGradient-73)" mask="url(#mask-71)"></path><polyline id="Path-13" stroke="url(#linearGradient-74)" stroke-width="1.05" stroke-linecap="round" mask="url(#mask-71)" points="63.2063403 46.8852488 78.4816869 32.7466989 87.1487787 32.7466989 94.8466262 29.9457957"></polyline><g id="Oval-Copy-95" fill-rule="nonzero" mask="url(#mask-71)"><use fill="black" fill-opacity="1" filter="url(#filter-76)" xlink:href="#path-75"></use><use fill="#FCFFF3" xlink:href="#path-75"></use></g><g id="Oval-Copy-96" fill-rule="nonzero" mask="url(#mask-71)"><use fill="black" fill-opacity="1" filter="url(#filter-78)" xlink:href="#path-77"></use><use fill="#FCFFF3" xlink:href="#path-77"></use></g><g id="Oval-Copy-97" fill-rule="nonzero" mask="url(#mask-71)"><use fill="black" fill-opacity="1" filter="url(#filter-80)" xlink:href="#path-79"></use><use fill="#FCFFF3" xlink:href="#path-79"></use></g><g id="Oval-Copy-99" fill-rule="nonzero" mask="url(#mask-71)"><use fill="black" fill-opacity="1" filter="url(#filter-82)" xlink:href="#path-81"></use><use fill="#FCFFF3" xlink:href="#path-81"></use></g><polyline id="Path-14" stroke="url(#linearGradient-83)" stroke-width="1.05" stroke-linecap="round" mask="url(#mask-71)" points="111.880277 -1.19830292 117.799201 3.55307645 115.092803 8.93120222 119.85331 8.93120222"></polyline></g><g id="Path-326" transform="translate(29.939792, 252.700486)"><mask id="mask-86" fill="white"><use xlink:href="#path-85"></use></mask><use id="Mask" fill="url(#linearGradient-84)" xlink:href="#path-85"></use><path d="M100.095103,50.0061868 C68.6824825,150.472062 85.702442,211.30891 151.154982,232.51673 C150.709291,244.424696 151.653833,270.219658 153.988607,309.901617 L6.04050503,250.179364 C35.9835221,161.542711 59.4094417,99.2311518 76.3182637,63.2446857 C93.2270857,27.2582195 101.152699,22.8453865 100.095103,50.0061868 Z" fill="url(#linearGradient-87)" mask="url(#mask-86)" transform="translate(80.014556, 171.192132) scale(-1, 1) rotate(-22.000000) translate(-80.014556, -171.192132) "></path><g id="Group-18" mask="url(#mask-86)"><g transform="translate(17.000000, 101.000000)"><path d="M19.3755007,40.4628912 L19.3755007,53.3580642 L10.8142329,48.8236756 C4.84169701,45.6603825 2.11466508e-12,38.2625115 2.04636308e-12,32.3000681 L2.04636308e-12,15.6562984 C2.11466508e-12,9.69385503 4.84169701,7.42469535 10.8142329,10.5879884 L37.3404875,24.63735 C38.0365409,25.0060076 38.6008037,24.7415544 38.6008037,24.0466772 C38.6008037,23.3518 38.0365409,22.4896347 37.3404875,22.120977 L19.225303,12.5264534 L19.225303,6.49602566 C19.225303,0.53358229 24.067,-1.73557738 30.039536,1.42771567 L47.1620715,10.4964929 C53.1346074,13.6597859 57.9763044,21.057657 57.9763044,27.0201003 L57.9763044,48.9119055 C57.9763044,52.2243741 55.2864727,53.4850183 51.9683972,51.7276333 L25.3834079,37.6471635 C22.0653324,35.8897784 19.3755007,37.1504227 19.3755007,40.4628912 Z" id="Path-Copy-2" fill="url(#linearGradient-88)"></path><path d="M60.6798626,53.2300743 L60.6798626,40.1849575 L69.2411304,44.7193461 C75.2136663,47.8826391 80.0553633,55.2805102 80.0553633,61.2429536 L80.0553633,77.8867233 C80.0553633,83.8491666 75.2136663,86.1183263 69.2411304,82.9550333 L42.7148758,68.9056717 C42.0188224,68.5370141 41.4545596,68.8014673 41.4545596,69.4963445 C41.4545596,70.1912217 42.0188224,71.053387 42.7148758,71.4220446 L60.8300603,81.0165683 L60.8300603,87.046996 C60.8300603,93.0094394 55.9883633,95.2785991 50.0158274,92.115306 L32.8932919,83.0465288 C26.9207559,79.8832358 22.0790589,72.4853647 22.0790589,66.5229213 L22.0790589,44.4811723 C22.0790589,41.2515154 24.7016448,40.0223873 27.9367684,41.7358377 L54.8221531,55.9754089 C58.0572768,57.6888593 60.6798626,56.4597311 60.6798626,53.2300743 Z" id="Path-Copy-3" fill="url(#linearGradient-89)"></path><path d="M52.043496,87.3541183 C53.6610579,88.2108435 54.9723508,87.5962795 54.9723508,85.981451 C54.9723508,84.3666226 53.6610579,82.3630326 52.043496,81.5063074 C50.4259342,80.6495822 49.1146413,81.2641462 49.1146413,82.8789746 C49.1146413,84.4938031 50.4259342,86.4973931 52.043496,87.3541183 Z" id="Oval-Copy-10" fill="url(#linearGradient-90)"></path><path d="M26.0592974,11.1826317 C27.6768593,12.0393569 28.9881522,11.4247929 28.9881522,9.80996444 C28.9881522,8.19513603 27.6768593,6.19154595 26.0592974,5.33482075 C24.4417356,4.47809554 23.1304427,5.09265962 23.1304427,6.70748803 C23.1304427,8.32231645 24.4417356,10.3259065 26.0592974,11.1826317 Z" id="Oval-Copy-11" fill="url(#linearGradient-90)"></path></g></g></g><g id="Path-325" transform="translate(163.880969, 252.700486)"><mask id="mask-93" fill="white"><use xlink:href="#path-92"></use></mask><use id="Mask" fill="url(#linearGradient-91)" transform="translate(56.990657, 143.547732) scale(-1, 1) translate(-56.990657, -143.547732) " xlink:href="#path-92"></use><path d="M-15.9883981,290.00139 C49.8965144,231.259902 87.2756522,159.227758 96.1490154,73.9049578 C105.022379,-11.4178425 112.270509,-43.9333009 117.893406,-23.6414177 L132.261551,14.7532399 L132.261551,227.620336 C50.3649285,277.416702 8.06999498,301.816418 5.3767508,300.819487 C2.68350662,299.822556 -4.43820968,296.216523 -15.9883981,290.00139 Z" fill="url(#linearGradient-94)" mask="url(#mask-93)"></path><g id="Group-182" mask="url(#mask-93)"><g transform="translate(11.000000, 78.000000)"><g id="Group-19" stroke-width="1" fill="none" transform="translate(0.507266, 0.560111)" opacity="0.782552083"><path d="M82.9823681,28.1229436 C77.5485551,20.8794031 69.8212257,18.5310669 61.2477391,22.8403217 C47.2721056,29.8648343 35.544901,52.3198162 32.3354157,76.2692109 L3.98763965,90.5175318 C5.87270312,57.4103296 25.3162995,22.3523698 49.0243296,10.4361044 C66.7632816,1.5200512 82.1148272,7.9596191 89.5102337,24.8418686 L82.9823681,28.1229436 Z M2.93505819,85.0047535 L-3.00545791e-12,83.9926333 L0.471845857,79.6792117 L3.97518119,77.9183453 L2.93505819,85.0047535 Z M34.8918469,73.8007194 L35.7232843,68.2636568 L38.2549192,68.3499916 L37.6127457,71.7844314 L34.8918469,73.8007194 Z M38.5946552,58.6658511 L40.7606264,53.1263108 L42.772045,54.4870253 L41.3269282,57.859669 L38.5946552,58.6658511 Z M45.2881931,42.8224583 L48.4821581,37.9003669 L49.7733306,40.321913 L47.7255851,43.2583751 L45.2881931,42.8224583 Z M55.1148766,29.4745057 L59.1354632,26.2430177 L59.2314462,29.6702377 L56.7297358,31.506789 L55.1148766,29.4745057 Z M66.0808856,23.8325369 L70.0203194,23.4331278 L68.6869631,27.1448686 L66.3066879,27.2084489 L66.0808856,23.8325369 Z M8.71715434,59.2077002 L6.83595368,56.3714299 L8.57821787,52.0145444 L11.7612925,51.37225 L8.71715434,59.2077002 Z M23.6343725,31.2125539 L23.0713437,27.0849446 L25.750833,23.3945069 L28.140102,25.4333494 L23.6343725,31.2125539 Z M45.2881931,10.6212375 L46.486847,5.81601654 L49.7289741,3.77920778 L50.5765076,7.65143143 L45.2881931,10.6212375 Z M67.2202112,4.16970748 L70.0357413,0.0553067115 L72.9302255,0.491686321 L71.7896511,5.25342631 L67.2202112,4.16970748 Z" id="Combined-Shape" fill="url(#linearGradient-95)"></path></g><path d="M5.50363348,115.329265 L5.04515727,95.2426754 L14.4887939,90.106528 C16.2399406,89.1541251 17.5820497,88.5906459 18.5151616,88.4160737 C19.4482735,88.2415015 20.2085011,88.445319 20.7958673,89.0275322 C21.3832334,89.6097455 21.6915064,90.5402507 21.7206956,91.8190759 C21.7461319,92.9334807 21.5512702,94.0127836 21.1361046,95.0570169 C20.7209391,96.1012502 20.1396835,97.080904 19.3923205,97.9960075 C18.9159677,98.5787584 18.2590898,99.2042011 17.421667,99.8723543 C18.1027386,99.7516294 18.6003493,99.7306804 18.914514,99.8095067 C19.1267368,99.8605457 19.4370404,100.047817 19.8454343,100.371326 C20.2538281,100.694835 20.5280672,100.966455 20.6681597,101.186194 L23.540354,105.519564 L17.1361925,109.00262 L13.9691182,104.510578 C13.5673947,103.924501 13.2137296,103.594354 12.9081121,103.520127 C12.4924225,103.431782 12.026082,103.528202 11.5090768,103.809387 L11.0087517,104.081501 L11.1948317,112.233971 L5.50363348,115.329265 Z M10.9221228,100.286149 L13.3111753,98.9868062 C13.5696779,98.8462134 14.0679131,98.4827591 14.8058958,97.8964323 C15.1792651,97.6101358 15.4809159,97.2333782 15.7108572,96.7661483 C15.9407986,96.2989184 16.0507637,95.846083 16.040756,95.4076287 C16.0259529,94.7590816 15.8269701,94.3633024 15.4438016,94.220279 C15.0606331,94.0772557 14.3520543,94.2869265 13.3180439,94.8492977 L10.8289264,96.2030637 L10.9221228,100.286149 Z M36.5606811,95.0811912 L30.106487,98.5914588 L29.2940929,102.390255 L23.5028297,105.539972 L29.936332,81.7050155 L36.1153472,78.3444105 L43.4658019,94.6826328 L37.5369493,97.9071809 L36.5606811,95.0811912 Z M35.2732705,91.3840448 L33.08214,85.2653466 L31.2331451,93.5813634 L35.2732705,91.3840448 Z M45.0461506,73.4871797 L50.7248407,70.3986885 L51.1833169,90.4852779 L45.5046268,93.5737692 L45.0461506,73.4871797 Z M54.7899823,68.1877641 L60.4561643,65.1060757 L60.8017415,80.2463768 L69.644988,75.4367659 L69.757887,80.3830543 L55.2484585,88.2743536 L54.7899823,68.1877641 Z M71.1947405,72.8738026 L76.5772997,69.5718328 C76.7159347,70.4674581 76.970266,71.0689517 77.3403013,71.3763314 C77.9425729,71.8718312 78.7857176,71.8247904 79.8697608,71.2352077 C80.6786237,70.7952882 81.297196,70.2484772 81.7254962,69.5947583 C82.1537964,68.9410394 82.3616886,68.340155 82.3491789,67.792087 C82.3372948,67.2714225 82.118195,66.9189513 81.6918731,66.734663 C81.2655512,66.5503746 80.2894048,66.688247 78.7634045,67.1482843 C76.2644749,67.8877802 74.4739521,68.0385516 73.3917825,67.6006029 C72.3012741,67.1671895 71.7380978,66.1649338 71.7022368,64.5938057 C71.678677,63.5616111 71.929512,62.4379943 72.4547493,61.2229215 C72.9799866,60.0078486 73.7848747,58.8395211 74.8694377,57.7179036 C75.9540006,56.5962862 77.4510515,55.5162073 79.3606353,54.4776346 C81.7038363,53.2032287 83.5012897,52.7088342 84.7530494,52.9944362 C86.0048091,53.2800382 86.7711889,54.4006579 87.0522118,56.356329 L81.7190596,59.6036842 C81.5566592,58.7764714 81.2435405,58.2809325 80.779694,58.1170528 C80.3158475,57.9531731 79.6836716,58.0889233 78.8831474,58.5243075 C78.2243827,58.8825925 77.7317242,59.3054359 77.405157,59.7928506 C77.0785898,60.2802653 76.9203124,60.7431929 76.9303201,61.1816472 C76.9376174,61.5013535 77.0817729,61.7142543 77.3627909,61.820356 C77.6356787,61.9401275 78.2750467,61.8420803 79.2809143,61.5262117 C81.7708797,60.7638476 83.5584312,60.390435 84.6436226,60.4059626 C85.7288139,60.4214902 86.5254193,60.7396147 87.0334627,61.3603456 C87.541506,61.9810765 87.8080334,62.839497 87.8330527,63.9356329 C87.8624503,65.2235926 87.5643461,66.5879275 86.938731,68.0286785 C86.3131158,69.4694296 85.4230173,70.7881378 84.2684085,71.9848428 C83.1137998,73.1815477 81.6484359,74.2628883 79.8722729,75.228897 C76.753564,76.9250813 74.5788375,77.4420223 73.3480281,76.7797356 C72.1172186,76.1174488 71.3994633,74.8154842 71.1947405,72.8738026 Z" id="RAILS-Copy" fill="url(#linearGradient-96)"></path></g></g></g><polyline id="Path-9" stroke="url(#linearGradient-97)" stroke-width="1.05" stroke-linecap="round" points="112.326501 237.177711 105.295661 229.57194 95.491553 229.679362 92.4456747 225.90688"></polyline><g id="Oval-Copy-98" fill-rule="nonzero"><use fill="black" fill-opacity="1" filter="url(#filter-99)" xlink:href="#path-98"></use><use fill="#FCFFF3" xlink:href="#path-98"></use></g><g id="Oval-Copy-100" fill-rule="nonzero"><use fill="black" fill-opacity="1" filter="url(#filter-101)" xlink:href="#path-100"></use><use fill="#FCFFF3" xlink:href="#path-100"></use></g><g id="Oval-Copy-101" fill-rule="nonzero"><use fill="black" fill-opacity="1" filter="url(#filter-103)" xlink:href="#path-102"></use><use fill="#FCFFF3" xlink:href="#path-102"></use></g><g id="Oval-Copy-102" fill-rule="nonzero"><use fill="black" fill-opacity="1" filter="url(#filter-105)" xlink:href="#path-104"></use><use fill="#FCFFF3" xlink:href="#path-104"></use></g><g id="Oval-Copy-105" fill-rule="nonzero"><use fill="black" fill-opacity="1" filter="url(#filter-107)" xlink:href="#path-106"></use><use fill="#FCFFF3" xlink:href="#path-106"></use></g><g id="Oval-Copy-106" fill-rule="nonzero"><use fill="black" fill-opacity="1" filter="url(#filter-109)" xlink:href="#path-108"></use><use fill="#FCFFF3" xlink:href="#path-108"></use></g><g id="Oval-Copy-103" fill-rule="nonzero"><use fill="black" fill-opacity="1" filter="url(#filter-111)" xlink:href="#path-110"></use><use fill="#FCFFF3" xlink:href="#path-110"></use></g><g id="Oval-Copy-104" fill-rule="nonzero"><use fill="black" fill-opacity="1" filter="url(#filter-113)" xlink:href="#path-112"></use><use fill="#FCFFF3" xlink:href="#path-112"></use></g><polyline id="Path-15" stroke="url(#linearGradient-114)" stroke-width="1.05" stroke-linecap="round" points="160.729412 247.322361 154.951557 247.561233 149.932385 249.548297 146.547405 248.435329"></polyline></g><g id="Group-14" transform="translate(505.000000, 460.000000)"><g id="Group-13"><g id="Rectangle"><mask id="mask-117" fill="white"><use xlink:href="#path-116"></use></mask><use id="Mask" fill="url(#linearGradient-115)" xlink:href="#path-116"></use><polygon id="Path-11" fill="url(#linearGradient-118)" mask="url(#mask-117)" points="170.642711 248.462175 171.588429 278.251564 307.771915 182.835362 310.293831 143.352334"></polygon><g id="Path-305" mask="url(#mask-117)"><g transform="translate(1.361996, -4.836970)"><mask id="mask-121" fill="white"><use xlink:href="#path-120"></use></mask><path stroke="url(#linearGradient-119)" stroke-width="1.14" d="M3.45714567,141.919629 L216.625626,-0.432615081 L386.11101,114.830066 L181.455562,260.540297 C176.02718,264.405187 168.77211,264.502285 163.24224,260.784054 L3.43903532,153.333926 C0.290415548,151.216824 -0.54579526,146.948114 1.5713062,143.799494 C2.07130472,143.055881 2.71194928,142.417266 3.45714567,141.919629 Z"></path><mask id="mask-124" fill="white"><use xlink:href="#path-123"></use></mask><use id="Mask" stroke="none" fill="url(#linearGradient-122)" fill-rule="evenodd" xlink:href="#path-123"></use><path d="M-7.88391266,141.32479 C213.617937,147.906093 338.747886,132.095179 367.505932,93.8920483 C387.51764,111.637365 397.523494,122.414827 397.523494,126.224433 C256.079786,231.382763 181.680137,283.268435 174.324547,281.881449 C166.968958,280.494462 95.934979,235.505302 -38.7773885,146.913968 L-7.88391266,141.32479 Z" id="Path-305" stroke="none" fill="url(#linearGradient-125)" fill-rule="evenodd" mask="url(#mask-124)"></path></g></g></g><ellipse id="Oval" fill="#0B4651" transform="translate(13.230028, 158.943741) rotate(8.000000) translate(-13.230028, -158.943741) " cx="13.2300285" cy="158.943741" rx="1.2609566" ry="1.57609651"></ellipse><ellipse id="Oval-Copy-4" fill="#0B4651" transform="translate(19.534819, 163.356806) rotate(8.000000) translate(-19.534819, -163.356806) " cx="19.5348194" cy="163.356806" rx="1.2609566" ry="1.57609651"></ellipse><ellipse id="Oval-Copy-5" fill="#0B4651" transform="translate(25.839610, 167.769871) rotate(8.000000) translate(-25.839610, -167.769871) " cx="25.8396104" cy="167.769871" rx="1.2609566" ry="1.57609651"></ellipse><ellipse id="Oval-Copy-6" fill="#0B4651" transform="translate(32.144401, 172.182935) rotate(8.000000) translate(-32.144401, -172.182935) " cx="32.1444014" cy="172.182935" rx="1.2609566" ry="1.57609651"></ellipse><ellipse id="Oval-Copy-7" fill="#0B4651" transform="translate(138.015417, 243.104656) rotate(5.000000) translate(-138.015417, -243.104656) " cx="138.015417" cy="243.104656" rx="1.73381666" ry="2.04892388"></ellipse><path d="M73.5489292,199.089038 L73.5489292,199.514409 C73.5489292,200.942586 74.2346089,202.283927 75.3922413,203.120334 L90.3761197,213.946415 C90.7991617,214.252069 91.3898868,214.156908 91.6955411,213.733866 C91.811916,213.572797 91.8745558,213.379142 91.8745558,213.18043 L91.8745558,212.755588 C91.8745558,211.327801 91.1890968,209.986817 90.031818,209.150585 L75.0474001,198.323078 C74.624372,198.017404 74.0336426,198.112539 73.7279691,198.535567 C73.6115783,198.696642 73.5489292,198.890311 73.5489292,199.089038 Z" id="Path-304-Copy" fill="#0B4651"></path></g><path d="M158.663608,97.3484396 C159.098383,96.4486102 171.659269,109.580208 187.012041,106.230335 C199.644749,103.473962 192.709479,76.3031278 194.780237,75.3086071 C199.638935,89.3266171 202.068285,97.1484724 202.068285,98.7741731 C204.657945,96.0045116 205.200014,87.7430256 203.694491,73.9897151 C210.023643,78.7257215 208.529786,102.815187 211.366941,103.473962 C214.204097,104.132736 234.908949,106.971965 238.888697,77.2449704 C240.594098,72.6421627 259.379268,126.401412 220.289564,131.952332 C208.94094,137.503253 216.475327,148.411245 203.694491,151.527156 C203.694491,146.827224 203.947261,139.581584 194.780237,137.497163 C185.613213,135.412741 175.003468,132.979789 166,125.055443 C156.996532,117.131096 155.703905,103.473962 158.663608,97.3484396 Z" id="Path-306" fill="url(#linearGradient-126)"></path></g><g id="Group-17" transform="translate(707.000000, 663.000000)"><polygon id="Path-352" fill="url(#linearGradient-127)" points="27.2454781 125.874738 100.715232 168.436869 126.365226 139.916327 58.2044102 109.589802"></polygon><path d="M20.0137124,87.2804137 L28.1238043,125.273646 C30.4035917,128.280975 34.2039921,130.103636 39.5250055,130.74163 C44.8460189,131.379624 51.1125821,129.941317 58.3246952,126.426708 L67.5340208,87.2804137 L20.0137124,87.2804137 Z" id="Path-273" fill="url(#linearGradient-128)"></path><ellipse id="Oval" fill="#0D6574" cx="43.8035969" cy="85.9579832" rx="23.7898845" ry="8.501339"></ellipse><g id="Path-281" transform="translate(45.314066, 10.579444)"><mask id="mask-130" fill="white"><use xlink:href="#path-129"></use></mask><use id="Mask" fill="#33BAAA" xlink:href="#path-129"></use><path d="M2.42467817,72.8150522 C7.36362059,65.3823513 11.0868011,60.4535099 13.5942197,58.0285278 C21.9911514,49.9076625 29.5079353,48.6013337 30.4223686,43.4512882 C30.737189,41.678234 26.7874879,40.7848755 26.8360972,38.6004398 C26.8969664,35.8650606 30.4223686,36.4248069 30.4223686,29.8491458 C30.4223686,26.1962867 28.5649331,19.573143 24.8500621,9.9797147 L-1.59423414,18.4613325 L-4.74337638,72.8150522 L2.42467817,72.8150522 Z" fill="#25877C" mask="url(#mask-130)"></path><path d="M1.01465168,72.8150522 C22.1208369,35.1840462 37.0786926,13.7286823 45.8882187,8.44896047" id="Path-7" stroke="#0D6574" stroke-width="1.29276" mask="url(#mask-130)"></path><path d="M40.6361341,13.3069428 C43.6665683,12.9096347 45.90606,12.9096347 47.3546091,13.3069428" id="Path-8" stroke="#0D6574" stroke-width="1.29276" mask="url(#mask-130)"></path><path d="M29.9269252,25.2808505 C29.9269252,21.3285944 29.5664383,18.3883809 28.8454645,16.4602098" id="Path-9" stroke="#0D6574" stroke-width="1.29276" mask="url(#mask-130)"></path><path d="M20.5997789,40.0697008 C25.4953446,37.6093147 29.7423033,36.404201 33.340655,36.4543597" id="Path-10" stroke="#0D6574" stroke-width="1.29276" mask="url(#mask-130)"></path></g><g id="Path-44" transform="translate(0.000000, 42.317776)"><mask id="mask-132" fill="white"><use xlink:href="#path-131"></use></mask><use id="Mask" fill="#33BAAA" xlink:href="#path-131"></use><path d="M45.2639717,14.8858017 C28.266237,-0.872806473 18.189988,-5.82496913 15.0352247,0.0293136985 C26.3353433,9.80890939 33.8694973,24.2331499 37.6376867,43.3020351 C47.9123281,47.9306601 53.8692551,48.9320356 55.5084678,46.3061618 C57.1476805,43.6802879 54.6223994,38.5267163 47.9326245,30.845447 L45.2639717,14.8858017 Z" fill="#25877C" mask="url(#mask-132)"></path><path d="M42.0083675,41.6684108 C36.7478124,13.1650797 23.1040691,-0.122108901 1.07713763,1.80684503" id="Path-38" stroke="#0D6574" stroke-width="0.7271775" mask="url(#mask-132)"></path><path d="M22.0813214,5.61134717 C17.4617975,4.98785042 13.3327699,5.82314232 9.69423865,8.11722289" id="Path-45" stroke="#0D6574" stroke-width="0.7271775" mask="url(#mask-132)"></path><path d="M31.77556,14.7414075 C28.7031035,14.300272 25.1126448,14.9783341 21.0041837,16.775594" id="Path-46" stroke="#0D6574" stroke-width="0.7271775" mask="url(#mask-132)"></path><path d="M35.5466144,20.5636313 C35.5181452,18.0270035 36.0563564,16.5839417 37.1612482,16.2344458" id="Path-47" stroke="#0D6574" stroke-width="0.7271775" mask="url(#mask-132)"></path></g><g id="Group-10" transform="translate(53.810453, 47.418580) rotate(14.000000) translate(-53.810453, -47.418580) translate(22.657033, 6.423234)"><path d="M30.2578537,81.6197624 C23.0256918,60.6164252 3.34044882,52.8161035 4.63251435,45.433952 C5.66133417,39.5558416 14.0851866,44.8111287 14.5312695,42.8467344 C14.9773524,40.8823401 2.59738618,21.897441 13.433997,21.9031641 C24.2706078,21.9088872 20.034847,6.06932823 37.8849843,0.159358855 C34.462611,3.96834558 35.775679,11.7071182 45.4517078,24.8585201 C55.1277367,38.0099221 38.9048936,39.0807037 38.3318922,43.9156864 C37.7588907,48.7506691 46.8728702,36.1195259 48.2989238,45.433952 C49.2496262,51.6435694 32.2426922,58.8380825 30.2578537,81.6197624 Z" id="Combined-Shape" fill="#33BAAA"></path><path d="M0.815987613,64.4022967 C27.373085,56.4555163 47.6458634,44.2270817 61.6343229,27.7169928" id="Path-117" stroke="#0D6574" stroke-width="1.29276" transform="translate(31.225155, 46.059645) scale(-1, 1) rotate(-60.000000) translate(-31.225155, -46.059645) "></path><path d="M30.9256722,49.4946012 C33.3561007,45.6963051 34.5355495,39.7306143 34.4640186,31.5975288" id="Path-118" stroke="#0D6574" stroke-width="1.29276" transform="translate(32.696379, 40.546065) scale(-1, 1) rotate(-60.000000) translate(-32.696379, -40.546065) "></path><path d="M9.14822697,51.0566589 C18.7008933,50.1415262 25.1810035,52.9335807 28.5885575,59.4328222" id="Path-119" stroke="#0D6574" stroke-width="1.29276" transform="translate(18.868392, 55.160027) scale(-1, 1) rotate(-60.000000) translate(-18.868392, -55.160027) "></path><path d="M31.7332932,20.4471965 L31.8803735,14.5363769" id="Path-120" stroke="#0D6574" stroke-width="1.29276" transform="translate(31.806833, 17.491787) scale(-1, 1) rotate(-60.000000) translate(-31.806833, -17.491787) "></path><path d="M19.9128494,26.2714966 C23.8762095,29.7591325 26.090217,33.345941 26.5548721,37.0319221" id="Path-82" stroke="#0D6574" stroke-width="1.29276"></path></g></g><g id="Group-16" transform="translate(500.000000, 183.000000)"><g id="Group-15" transform="translate(0.000000, 205.011814)"><g id="Group-12" transform="translate(0.000000, 24.166782)"><path d="M1.05051903,25.9832304 L1.25672509,34.2648913 C1.2963711,35.8571569 2.13555296,37.3222953 3.48891864,38.1621066 L43.8320263,63.1964334 C45.536736,64.2542661 47.6952701,64.2480756 49.3938842,63.1804824 L94.3176577,34.9455183 C101.403836,30.4917958 103.749502,21.2617854 99.6494687,13.9652588 C97.5852593,10.2917376 95.2099441,5.98689456 92.5235231,1.05072967 C71.6226511,-2.31910139 54.0198859,10.8077619 36.24309,15.1813155 C24.3918927,18.0970179 12.6610357,21.6976562 1.05051903,25.9832304 Z" id="Path-304-Copy-2" fill="url(#linearGradient-133)"></path><g id="Path-312" transform="translate(0.000000, 4.202919)"><mask id="mask-136" fill="white"><use xlink:href="#path-135"></use></mask><use id="Mask" fill="url(#linearGradient-134)" xlink:href="#path-135"></use><path d="M74.5667618,35.6174066 L23.4235953,4.72828353 L53.8298672,-13.0658042 C92.6437101,6.66804231 111.309666,16.6596005 109.827736,16.9088702 C108.345806,17.15814 96.5921476,23.3943188 74.5667618,35.6174066 Z" fill="url(#linearGradient-137)" mask="url(#mask-136)"></path></g></g><g id="Group-11" transform="translate(17.384083, 0.000000)"><path d="M1.44689578,16.4506194 L1.44689578,24.4676836 L32.2937089,44.0749818 C34.8496217,45.6996081 38.131397,45.6294225 40.6155146,43.8970079 L69.283737,23.9038926 L25.6961877,3.41545648 L1.44689578,16.4506194 Z" id="Path-311-Copy" fill="url(#linearGradient-138)"></path><g id="Path-304" transform="translate(0.525260, 0.000000)"><mask id="mask-141" fill="white"><use xlink:href="#path-140"></use></mask><use id="Mask" fill="url(#linearGradient-139)" xlink:href="#path-140"></use><polygon fill="url(#linearGradient-142)" mask="url(#mask-141)" points="4.92922729 11.5580264 43.0612864 34.5928943 54.3411515 25.8614901 10.1515593 0.317760305"></polygon></g></g></g><g id="Group-2" transform="translate(7.303114, 0.000000)"><g id="Rectangle" transform="translate(73.523566, 123.817437) rotate(4.000000) translate(-73.523566, -123.817437) translate(9.023566, 4.817437)"><mask id="mask-145" fill="white"><use xlink:href="#path-144"></use></mask><use id="Mask" fill="url(#linearGradient-143)" xlink:href="#path-144"></use><polygon id="Path-3" fill="url(#linearGradient-146)" mask="url(#mask-145)" points="113.262862 51.4904479 134.543656 39.6844343 98.6497445 240.03823 82.958989 248.268843 77.9710186 242.438795"></polygon><path d="M55.5695072,8.83250433 L110.61301,40.5633663 C117.555594,44.5655496 121.240777,52.4933471 119.825029,60.380844 L89.9890456,226.604859 C88.5254696,234.758821 80.7289147,240.18245 72.5749527,238.718874 C71.3747026,238.503438 70.2052014,238.142446 69.0923427,237.64389 L-3.45199877,205.144312 L30.1311154,22.0443226 L30.2279152,21.3171959 C31.4668879,12.010463 40.0158715,5.47025118 49.3226043,6.7092239 C51.5235864,7.00223292 53.6458506,7.7235763 55.5695072,8.83250433 Z" fill="url(#linearGradient-147)" mask="url(#mask-145)"></path></g><g id="Group-5" transform="translate(68.607991, 132.296288) rotate(7.000000) translate(-68.607991, -132.296288) translate(36.107991, 88.296288)"><path d="M8.1342078,16.6524568 L8.38534784,16.6539237 C10.585031,16.6667722 12.407053,18.3648114 12.5746309,20.5581397 L14.4386272,44.9548757 C14.5992219,47.0568045 13.0254597,48.8909422 10.923531,49.051537 C10.8193668,49.0594955 10.7149198,49.0631743 10.6104538,49.0625641 L10.3593137,49.0610972 C8.15963051,49.0482487 6.3376086,47.3502095 6.17003062,45.1568812 L4.30603436,20.7601452 C4.14543962,18.6582164 5.71920181,16.8240787 7.82113059,16.6634839 C7.92529479,16.6555254 8.0297418,16.6518466 8.1342078,16.6524568 Z" id="Rectangle" fill="url(#linearGradient-148)" transform="translate(9.372331, 32.857510) rotate(16.000000) translate(-9.372331, -32.857510) "></path><path d="M23.3287694,66.7376047 L20.7075536,79.3417675 C20.2460282,81.5610207 18.0728278,82.9859405 15.8535746,82.5244151 C15.8416746,82.5219404 15.8297857,82.5194127 15.8179081,82.5168323 C13.5772838,82.0300561 12.1476581,79.8284122 12.614509,77.5835516 L16.1427916,60.6177415 C13.5568424,56.8432015 12.4056908,52.096979 13.2637002,47.2698949 L18.3300149,18.767264 L49.9271449,28.5581799 L45.5057863,55.5046674 C44.639163,60.7864042 41.1735021,64.9934709 36.6307878,67.0329364 L33.205861,83.5017581 C32.7443356,85.7210112 30.5711352,87.1459311 28.351882,86.6844057 C28.339982,86.6819309 28.3280931,86.6794033 28.3162155,86.6768229 C26.0755911,86.1900467 24.6459655,83.9884027 25.1128164,81.7435422 L27.9334774,68.1803432 C27.9118643,68.1768899 27.8902479,68.1733896 27.8686284,68.1698422 C27.4297175,68.0978261 26.9941432,68.0067719 26.563138,67.8969372 C25.4311702,67.6084737 24.3504577,67.2180131 23.3287694,66.7376047 Z" id="Combined-Shape" fill="url(#linearGradient-149)" transform="translate(31.226661, 52.769234) rotate(1.000000) translate(-31.226661, -52.769234) "></path><path d="M52.3528821,33.3744972 L52.757724,33.3768619 C54.8926051,33.3893319 56.6829355,34.992029 56.9307258,37.1125178 L59.8288199,61.9132214 C60.0638317,63.9243563 58.6239994,65.7452181 56.6128645,65.9802299 C56.4645266,65.9975639 56.3152682,66.0058179 56.1659235,66.0049456 L55.7610816,66.0025809 C53.6262006,65.9901109 51.8358702,64.3874138 51.5880798,62.266925 L48.6899857,37.4662214 C48.4549739,35.4550864 49.8948062,33.6342247 51.9059412,33.3992129 C52.054279,33.3818788 52.2035375,33.3736249 52.3528821,33.3744972 Z" id="Rectangle-Copy-3" fill="url(#linearGradient-150)" transform="translate(54.259403, 49.689721) rotate(16.000000) translate(-54.259403, -49.689721) "></path><path d="M49.5045779,11.1519044 C52.1873123,14.9852653 53.2467706,19.9211832 52.0007277,24.8108153 C51.9920058,24.8450412 51.9831749,24.8792392 51.9742353,24.9134088 L51.6881372,26.0069524 L19.7489938,16.8478507 L19.7827721,16.7093817 C21.0495395,11.5164624 24.6338512,7.49704004 29.1678638,5.48248001 L28.50877,1.94337577 C28.4344508,1.54430779 28.6977118,1.1605517 29.0967797,1.08623254 C29.3506212,1.0389592 29.6106515,1.12835116 29.781768,1.32171447 L32.509439,4.40400887 C34.8521051,3.91462685 37.3379482,3.92714726 39.8179737,4.53212787 C39.8730278,4.54555783 39.9280127,4.55926998 39.9829261,4.57326378 C42.4320558,5.19738447 44.6145611,6.33493048 46.4447117,7.84153501 L52.1825504,5.29223838 C52.4261165,5.18402304 52.7091796,5.21614068 52.9223089,5.37617476 C53.2469155,5.6199147 53.3124709,6.08065058 53.0687309,6.40525716 L49.5045779,11.1519044 Z" id="Combined-Shape" fill="url(#linearGradient-151)" transform="translate(36.481999, 13.540795) rotate(3.000000) translate(-36.481999, -13.540795) "></path></g><ellipse id="Oval-Copy-3" fill="url(#linearGradient-152)" transform="translate(123.628827, 63.436369) rotate(-50.000000) translate(-123.628827, -63.436369) " cx="123.628827" cy="63.4363692" rx="2.20738002" ry="2.57592465"></ellipse></g></g></g></g></svg> 