<?xml version="1.0" encoding="UTF-8"?> <svg xmlns="http://www.w3.org/2000/svg" xmlns:xlink="http://www.w3.org/1999/xlink" width="368px" height="212px" viewBox="0 0 368 212" version="1.1"><!-- Generator: Sketch 63.1 (92452) - https://sketch.com --><title>Webby_Awards</title><desc>Created with Sketch.</desc><g id="Page-1" stroke="none" stroke-width="1" fill="none" fill-rule="evenodd"><g id="Webby_Awards" transform="translate(-1.000000, 0.000000)"><path d="M112.883415,0.67543 L112.883415,209.98894 L90.188476,209.98843 L89.684958,175.71847 C84.6102873,166.866138 82.444671,166.128651 63.8903272,164.17871 L63.323038,164.11924 C113.786288,147.82162 75.561768,139.6745 60.686858,137.23009 C118.134088,121.77733 68.022738,115.66003 58.577908,111.39543 C118.187908,100.79314 70.243408,88.92541 61.741328,86.61523 C113.985908,70.90482 70.770758,62.95889 58.577908,58.67162 C94.963428,52.29413 98.175888,39.55854 47.505908,31.78247 L47.505908,31.78247 L40.124578,40.74553 C81.438598,46.22023 80.781228,50.73006 0.054476,53.39924 L1.635476,53.34543 L1.636185,0.67543 L112.883415,0.67543 Z M1.63890107,142.565708 C71.253382,146.737083 98.8513561,149.971472 2.690667,158.84686 L2.690667,158.84686 L1.635476,158.58243 Z M1.636191,115.61333 C34.031568,120.5275 128.124508,124.43024 1.108952,131.95771 L1.635476,131.92543 Z M1.636191,90.83314 C133.748538,100.61282 25.377918,102.50781 1.636191,107.17752 L1.636191,107.17752 Z M1.64452416,62.9765381 C100.910926,71.1296144 75.8293854,76.2983368 1.636191,80.28838 L1.636191,80.28838 Z" id="Combined-Shape" fill="#156573" fill-rule="nonzero"></path><rect id="rect4510" fill="#156573" fill-rule="nonzero" x="127.646098" y="54.98095" width="29.525331" height="3.1634285"></rect><rect id="rect4512" fill="#156573" fill-rule="nonzero" x="139.684428" y="56.66079" width="3.4495008" height="35.509567"></rect><rect id="rect4514" fill="#156573" fill-rule="nonzero" x="162.410548" y="54.63165" width="3.2465889" height="37.7416"></rect><rect id="rect4516" fill="#156573" fill-rule="nonzero" x="164.642558" y="72.28503" width="27.190184" height="2.6378536"></rect><rect id="rect4518" fill="#156573" fill-rule="nonzero" x="188.992028" y="54.83456" width="2.8407655" height="38.147423"></rect><rect id="rect4522" fill="#156573" fill-rule="nonzero" x="201.622398" y="54.67328" width="25.061274" height="3.1634285"></rect><rect id="rect4524" fill="#156573" fill-rule="nonzero" x="201.013698" y="71.92074" width="25.061274" height="3.1634285"></rect><rect id="rect4526" fill="#156573" fill-rule="nonzero" x="202.839898" y="89.57409" width="25.061274" height="3.1634285"></rect><rect id="rect4528" fill="#156573" fill-rule="nonzero" x="201.166708" y="54.83456" width="2.8407655" height="38.147423"></rect><polygon id="path4530" stroke="#156573" stroke-width="2.24533963" points="132.393008 206.85617 149.528788 171.24777 149.528788 171.24777 166.543038 206.49158 166.543038 206.37004 149.528788 171.61237"></polygon><path d="M137.011158,195.55385 L160.588038,196.03996 L137.011158,195.55385 Z" id="path4532" stroke="#156573" stroke-width="2.24533963"></path><polygon id="path4534" stroke="#156573" stroke-width="2.24533963" points="168.852108 170.5186 182.463508 205.88393 194.130418 171.12625 206.161918 205.64087 218.801088 170.5186 206.283448 205.76239 194.008898 171.00472 182.341968 206.00546"></polygon><polygon id="path4536" stroke="#156573" stroke-width="2.24533963" points="222.024288 206.79541 239.160078 171.18701 239.160078 171.18701 256.174318 206.43081 256.174318 206.30929 239.160078 171.55161"></polygon><path d="M226.642448,195.49309 L250.219328,195.9792 L226.642448,195.49309 Z" id="path4538" stroke="#156573" stroke-width="2.24533963"></path><path d="M263.645778,206.9777 L263.402718,170.5186 L263.645778,206.9777 Z" id="path4540" stroke="#156573" stroke-width="2.24533963"></path><path d="M263.159648,170.88319 L282.482978,170.88319 C291.554338,173.37576 292.503708,187.85222 280.173908,190.9357 L263.888838,191.17876 L280.173908,191.05722 C294.951518,188.40525 288.748388,170.71536 282.361448,170.761569 L263.159648,170.88319 Z" id="path4542" stroke="#156573" stroke-width="2.24533963"></path><line x1="278.715538" y1="191.54335" x2="290.625508" y2="206.73464" id="path4544" stroke="#156573" stroke-width="2.24533963"></line><path d="M300.469468,171.12625 L300.469468,206.73464 C314.726898,205.81946 332.054908,208.71248 330.852058,188.62661 C327.932468,167.70154 313.306998,171.28565 300.469468,171.12625 Z" id="path4550" stroke="#156573" stroke-width="2.24533963"></path><path d="M360.626988,173.67838 C357.472558,168.73289 339.908418,166.41328 339.602238,181.09174 C339.353748,187.14657 363.127558,188.13029 363.300658,197.49834 C358.934848,211.63617 342.584688,205.28806 338.751538,200.77965 C343.988518,207.6295 362.597538,209.12992 363.422188,197.49834 C360.617848,185.44863 339.740418,189.70428 339.359188,180.9702 C339.413258,166.7777 354.297288,168.57014 360.626988,173.67838 Z" id="path4552" stroke="#156573" stroke-width="2.24533963"></path><rect id="rect4554" fill="#156573" fill-rule="nonzero" transform="translate(144.542075, 132.895726) rotate(-13.092712) translate(-144.542075, -132.895726) " x="138.46646" y="109.90709" width="12.15123" height="45.9772722"></rect><rect id="rect4556" fill="#156573" fill-rule="nonzero" transform="translate(182.689065, 132.409715) rotate(15.214038) translate(-182.689065, -132.409715) " x="176.61345" y="109.17575" width="12.15123" height="46.4679311"></rect><rect id="rect4558" fill="#156573" fill-rule="nonzero" transform="translate(168.556598, 132.177165) rotate(-10.748245) translate(-168.556598, -132.177165) " x="163.644399" y="109.404863" width="9.824398" height="45.5446052"></rect><rect id="rect4560" fill="#156573" fill-rule="nonzero" transform="translate(158.381255, 132.560241) rotate(10.989835) translate(-158.381255, -132.560241) " x="153.469056" y="109.768081" width="9.824398" height="45.5843196"></rect><path d="M270.161985,110.05145 C276.738705,110.05145 282.07019,115.382935 282.07019,121.959655 C282.07019,128.536375 276.738705,133.86786 270.161985,133.86786 L245.616508,133.86786 L245.616508,110.05145 L270.161985,110.05145 Z M264.71768,117.82821 L255.064221,117.82821 L255.064221,128.521291 L264.71768,128.521291 C267.670493,128.521291 270.064221,126.127563 270.064221,123.17475 C270.064221,120.221938 267.670493,117.82821 264.71768,117.82821 L264.71768,117.82821 Z" id="Combined-Shape" fill="#156573" fill-rule="nonzero"></path><path d="M270.405036,130.70852 C277.250194,130.70852 282.79929,136.257616 282.79929,143.102773 C282.79929,149.947931 277.250194,155.497027 270.405036,155.497027 L246.345608,155.497027 L246.345608,130.70852 L270.405036,130.70852 Z M267.00271,135.94152 L256.349251,135.94152 L256.349251,146.634601 L267.00271,146.634601 C269.955523,146.634601 272.349251,144.240873 272.349251,141.28806 C272.349251,138.335248 269.955523,135.94152 267.00271,135.94152 L267.00271,135.94152 Z" id="Combined-Shape" fill="#156573" fill-rule="nonzero"></path><rect id="rect4562" fill="#156573" fill-rule="nonzero" x="245.130488" y="110.5375" width="11.179132" height="44.716526"></rect><path d="M314.704225,110.44503 C321.280945,110.44503 326.61243,115.776515 326.61243,122.353235 C326.61243,128.929955 321.280945,134.26144 314.704225,134.26144 L290.158748,134.26144 L290.158748,110.44503 L314.704225,110.44503 Z M309.259911,118.2218 L300.606451,118.2218 L300.606451,128.914881 L309.259911,128.914881 C312.212723,128.914881 314.606451,126.521153 314.606451,123.56834 C314.606451,120.615528 312.212723,118.2218 309.259911,118.2218 L309.259911,118.2218 Z" id="Combined-Shape" fill="#156573" fill-rule="nonzero"></path><path d="M314.947296,131.10214 C321.792454,131.10214 327.34155,136.651236 327.34155,143.496394 C327.34155,150.341551 321.792454,155.890647 314.947296,155.890647 L290.887868,155.890647 L290.887868,131.10214 L314.947296,131.10214 Z M311.544951,136.33508 L300.891491,136.33508 L300.891491,147.028161 L311.544951,147.028161 C314.497763,147.028161 316.891491,144.634433 316.891491,141.681621 C316.891491,138.728808 314.497763,136.33508 311.544951,136.33508 L311.544951,136.33508 Z" id="Combined-Shape" fill="#156573" fill-rule="nonzero"></path><rect id="rect4580" fill="#156573" fill-rule="nonzero" x="289.672748" y="110.93109" width="11.179132" height="44.716526"></rect><rect id="rect4582" fill="#156573" fill-rule="nonzero" transform="translate(340.327466, 121.959673) rotate(-29.148565) translate(-340.327466, -121.959673) " x="334.719207" y="107.613132" width="11.216518" height="28.6930816"></rect><rect id="rect4584" fill="#156573" fill-rule="nonzero" transform="translate(356.435766, 122.688749) rotate(29.226803) translate(-356.435766, -122.688749) " x="350.827507" y="108.321325" width="11.216518" height="28.7348482"></rect><rect id="rect4586" fill="#156573" fill-rule="nonzero" x="343.798458" y="132.89578" width="10.207032" height="21.872211"></rect><path d="M228.970884,110.774899 C235.897157,114.946524 240.188665,122.621728 240.268872,130.951401 L230.222788,130.951668 C230.140786,126.467464 227.764222,122.345598 223.947686,120.096908 C220.062336,117.807672 215.275086,117.807672 211.389736,120.096908 C207.504386,122.386143 205.111402,126.616714 205.112441,131.194573 C205.11179,134.060976 206.049735,136.791223 207.704931,138.993998 L207.704931,138.993998 L207.704708,139.700444 L208.276878,139.701235 C209.158636,140.715326 210.204782,141.594066 211.389736,142.292238 C215.275086,144.581473 220.062336,144.581473 223.947686,142.292238 C225.132641,141.594066 226.178786,140.715326 227.060544,139.701235 L227.060544,139.701235 L238.749718,139.700587 C236.917482,144.64193 233.509964,148.880467 228.970884,151.614309 C221.977253,155.826503 213.360204,155.826503 206.366573,151.614309 C199.372943,147.402115 195.065571,139.617865 195.067442,131.194604 C195.065571,122.771343 199.372943,114.987093 206.366573,110.774899 C213.360204,106.562705 221.977253,106.562705 228.970884,110.774899 Z" id="Combined-Shape" fill="#156573" fill-rule="nonzero"></path><rect id="rect4594" fill="#156573" fill-rule="nonzero" x="198.080928" y="126.58239" width="42.189072" height="6.6620436"></rect></g></g></svg> 