<svg width="161" height="123" viewBox="0 0 161 123" fill="none" xmlns="http://www.w3.org/2000/svg">
<path d="M152.293 121.887C152.683 122.278 153.317 122.278 153.707 121.887L160.071 115.523C160.462 115.133 160.462 114.5 160.071 114.109C159.68 113.718 159.047 113.718 158.657 114.109L153 119.766L147.343 114.109C146.953 113.718 146.319 113.718 145.929 114.109C145.538 114.5 145.538 115.133 145.929 115.523L152.293 121.887ZM-4.97252e-05 2.18008C56.0144 2.18104 93.9511 7.70178 117.909 25.238C141.766 42.6996 152 72.2804 152 121.18L154 121.18C154 72.0803 143.734 41.6621 119.091 23.6241C94.5486 5.66058 55.9853 0.18104 -1.39597e-05 0.180082L-4.97252e-05 2.18008Z" fill="url(#paint0_linear_1437_6441)"/>
<defs>
<linearGradient id="paint0_linear_1437_6441" x1="124.345" y1="-3.47933" x2="41.0142" y2="57.3584" gradientUnits="userSpaceOnUse">
<stop stop-color="#5DE455"/>
<stop offset="1" stop-color="#14C0AA"/>
</linearGradient>
</defs>
</svg>
