<svg width="72" height="56" viewBox="0 0 72 56" fill="none" xmlns="http://www.w3.org/2000/svg">
<circle opacity="0.3" cx="44" cy="28" r="28" fill="url(#paint0_linear_1437_6653)"/>
<path d="M44.7071 28.7071C45.0976 28.3166 45.0976 27.6834 44.7071 27.2929L38.3431 20.9289C37.9526 20.5384 37.3195 20.5384 36.9289 20.9289C36.5384 21.3195 36.5384 21.9526 36.9289 22.3431L42.5858 28L36.9289 33.6569C36.5384 34.0474 36.5384 34.6805 36.9289 35.0711C37.3195 35.4616 37.9526 35.4616 38.3431 35.0711L44.7071 28.7071ZM-8.74228e-08 29L44 29L44 27L8.74228e-08 27L-8.74228e-08 29Z" fill="#54B454"/>
<defs>
<linearGradient id="paint0_linear_1437_6653" x1="43.3501" y1="-26.0502" x2="-11.3501" y2="28.6499" gradientUnits="userSpaceOnUse">
<stop stop-color="#5DE455"/>
<stop offset="1" stop-color="#14C0AA"/>
</linearGradient>
</defs>
</svg>
