<?xml version="1.0" encoding="UTF-8"?> <svg xmlns="http://www.w3.org/2000/svg" width="256" height="40" viewBox="0 0 256 40" fill="none"><path d="M21.7101 27.3587L18.9295 18.1692L12.8335 24.4586L10.4807 16.527L26.487 0C7.84273 0 1.319 8.66533 3.10144 15.8981L6.63067 29.4901C8.4844 35.8842 1.81809 39.2036 0 39.9723C3.52923 40.0771 6.27418 39.9024 8.73394 39.1337C13.4396 37.8409 16.541 34.6613 21.7101 27.3587Z" fill="#4B4B4B"></path><g opacity="0.8"><path opacity="0.8" d="M39.3918 10.5174C37.538 4.12321 44.2043 0.803825 46.0224 0.0351269C42.4932 -0.0696956 39.7482 0.105009 37.2885 0.873707C32.5472 2.16652 29.4458 5.34614 24.2767 12.6488L27.0573 21.8382L33.1532 15.5489L35.506 23.4804L19.4998 39.9725C38.1441 39.9725 44.6678 31.3072 42.8853 24.0744L39.3918 10.5174Z" fill="#4B4B4B"></path></g><path d="M62.0646 12.2295V20.0912H73.6148V22.8515H62.0646V31.971H58.7849V9.4342H75.0407V12.2295H62.0646Z" fill="#4B4B4B"></path><path d="M78.1782 11.0415C78.1782 9.92335 79.1051 9.01489 80.3171 9.01489C81.5292 9.01489 82.4561 9.88841 82.4561 10.9716C82.4561 12.1246 81.5649 13.0331 80.3171 13.0331C79.1051 13.0331 78.1782 12.1596 78.1782 11.0415ZM78.713 14.9199H81.8857V32.006H78.713V14.9199Z" fill="#4B4B4B"></path><path d="M97.1076 14.745V17.7499C96.858 17.715 96.6085 17.715 96.3946 17.715C93.008 17.715 90.9047 19.7415 90.9047 23.4802V32.0058H87.7319V14.9197H90.7621V17.7848C91.9028 15.7583 94.0418 14.745 97.1076 14.745Z" fill="#4B4B4B"></path><path d="M115.93 24.4935H101.778C102.17 27.4984 104.63 29.49 108.088 29.49C110.12 29.49 111.831 28.8262 113.114 27.4285L114.861 29.4201C113.292 31.2371 110.868 32.1805 107.981 32.1805C102.348 32.1805 98.605 28.5466 98.605 23.4453C98.605 18.3788 102.312 14.745 107.339 14.745C112.365 14.745 115.966 18.309 115.966 23.5501C116.002 23.7947 115.966 24.179 115.93 24.4935ZM101.778 22.2573H112.971C112.651 19.3921 110.44 17.3656 107.375 17.3656C104.344 17.3656 102.134 19.3572 101.778 22.2573Z" fill="#4B4B4B"></path><path d="M141.063 9.4342V32.006H135.751V22.7467H125.306V32.006H119.958V9.4342H125.306V18.3441H135.751V9.4342H141.063Z" fill="#4B4B4B"></path><path d="M163.593 14.6404L155.607 33.0542C153.896 37.2471 151.472 38.505 148.264 38.505C146.446 38.505 144.485 37.911 143.344 36.9326L145.234 33.3687C146.018 34.0325 147.123 34.4518 148.121 34.4518C149.547 34.4518 150.331 33.8229 151.009 32.2855L151.08 32.1108L143.416 14.6404H148.727L153.647 26.4154L158.638 14.6404H163.593V14.6404Z" fill="#4B4B4B"></path><path d="M183.057 8.07141V32.0059H178.137V30.0143C176.854 31.5167 174.965 32.2854 172.612 32.2854C167.621 32.2854 163.771 28.7913 163.771 23.3406C163.771 17.8898 167.621 14.3957 172.612 14.3957C174.786 14.3957 176.64 15.0596 177.924 16.4922V8.07141H183.057ZM178.031 23.3056C178.031 20.3007 176.07 18.4838 173.539 18.4838C170.972 18.4838 169.011 20.3007 169.011 23.3056C169.011 26.3105 170.972 28.1275 173.539 28.1275C176.034 28.1275 178.031 26.3105 178.031 23.3056Z" fill="#4B4B4B"></path><path d="M198.635 14.3959V19.043C198.208 19.0081 197.887 18.9731 197.495 18.9731C194.678 18.9731 192.789 20.4756 192.789 23.795V31.9711H187.656V14.6405H192.575V16.9466C193.787 15.2694 195.89 14.3959 198.635 14.3959Z" fill="#4B4B4B"></path><path d="M217.065 22.0827V31.9709H212.252V29.8046C211.29 31.3769 209.472 32.2155 206.869 32.2155C202.734 32.2155 200.274 29.9444 200.274 26.9744C200.274 23.8996 202.485 21.7682 207.868 21.7682H211.932C211.932 19.6019 210.613 18.344 207.868 18.344C205.978 18.344 204.053 18.9729 202.77 19.9513L200.916 16.4223C202.841 15.0596 205.729 14.3258 208.545 14.3258C213.964 14.3957 217.065 16.8415 217.065 22.0827ZM211.932 26.5202V24.7382H208.402C206.014 24.7382 205.23 25.6117 205.23 26.7647C205.23 28.0226 206.299 28.8612 208.117 28.8612C209.864 28.8612 211.361 28.0925 211.932 26.5202Z" fill="#4B4B4B"></path><path d="M239.667 22.0477V31.9709H234.533V22.8513C234.533 20.0561 233.214 18.7633 230.933 18.7633C228.473 18.7633 226.691 20.2308 226.691 23.4453V32.0058H221.557V14.6402H226.477V16.6668C227.867 15.1993 229.935 14.3607 232.323 14.3607C236.494 14.3957 239.667 16.7716 239.667 22.0477Z" fill="#4B4B4B"></path><path d="M255.53 31.1674C254.461 31.9011 252.928 32.2505 251.36 32.2505C247.189 32.2505 244.729 30.1541 244.729 26.0311V18.9031H241.984V15.0247H244.729V10.7969H249.898V15.0247H254.318V18.9031H249.898V25.9612C249.898 27.4287 250.718 28.2673 252.108 28.2673C252.857 28.2673 253.605 28.0576 254.176 27.6384L255.53 31.1674Z" fill="#4B4B4B"></path></svg> 