<?xml version="1.0" encoding="UTF-8"?> <svg xmlns="http://www.w3.org/2000/svg" width="139" height="45" viewBox="0 0 139 45" fill="none"><path d="M131.101 37.5774C127.232 41.6326 122.074 43.8551 116.622 43.8551H21.7001C16.2422 43.8551 11.0868 41.6326 7.20605 37.5774C3.3472 33.5285 1.21826 28.1423 1.21826 22.4039C1.21826 10.5842 10.4103 0.962036 21.7001 0.962036H116.622C122.074 0.962036 127.232 3.18754 131.101 7.249C134.959 11.2886 137.085 16.6873 137.085 22.4039C137.085 28.1422 134.959 33.5284 131.101 37.5774Z" fill="white"></path><path d="M130.135 36.7525C126.323 40.5522 121.251 42.653 115.887 42.653H22.508C17.1218 42.653 12.0659 40.5522 8.25703 36.7526C4.45093 32.9373 2.35009 27.8814 2.35009 22.4952C2.35009 11.3739 11.3925 2.35009 22.5078 2.35009H115.887C121.251 2.35009 126.322 4.43228 130.135 8.23812C133.931 12.0533 136.048 17.1091 136.048 22.4952C136.048 27.8814 133.931 32.9372 130.135 36.7524L130.135 36.7525ZM131.799 6.57986C127.551 2.33145 121.903 0 115.887 0H22.508C10.1021 0 0 10.0741 0 22.4952C0 28.4986 2.34081 34.1591 6.60487 38.3982C10.8504 42.6529 16.4952 45 22.5079 45H115.887C121.903 45 127.551 42.6529 131.799 38.3982C136.051 34.1591 138.382 28.4986 138.382 22.4952C138.382 16.4732 136.051 10.8315 131.799 6.57986" fill="#4B4B4B"></path><path d="M115.886 4.35388H22.5039C12.4952 4.35388 4.38477 12.4738 4.38477 22.4917C4.38477 32.5035 12.4952 40.6295 22.5039 40.6295H115.886C125.898 40.6295 134.005 32.5035 134.005 22.4917C134.005 12.4737 125.898 4.35397 115.886 4.35397" fill="#4B4B4B"></path><path fill-rule="evenodd" clip-rule="evenodd" d="M136.5 44.5836C137.796 44.5836 138.887 43.5893 138.887 42.221C138.887 40.8713 137.796 39.8832 136.5 39.8832C135.2 39.8832 134.103 40.8713 134.103 42.2209C134.103 43.5893 135.2 44.5836 136.5 44.5836H136.5ZM134.583 42.221C134.583 41.1175 135.431 40.2542 136.5 40.2542C137.572 40.2542 138.413 41.1174 138.413 42.221C138.413 43.3587 137.571 44.194 136.5 44.194C135.431 44.194 134.583 43.359 134.583 42.221ZM135.995 42.4171H136.468L137.185 43.589H137.65L136.895 42.4015C137.285 42.3308 137.59 42.1241 137.59 41.6443C137.59 41.1177 137.272 40.8712 136.627 40.8712H135.592V43.5892H135.994L135.995 42.4171ZM135.995 42.0522V41.2111H136.572C136.849 41.2111 137.155 41.3012 137.155 41.6193C137.155 42.046 136.849 42.0522 136.5 42.0522H135.995Z" fill="#4B4B4B"></path><path d="M18.8428 12.4281H29.1164L28.8452 21.6731H35.101L34.7114 12.5528H44.7171L43.7913 33.0065H35.3692L35.1015 25.8748H28.7303L28.6084 32.885H19.8901L18.8428 12.4281ZM57.7681 12.6812H83.368L83.1003 18.3198H67.7865V21.8046H78.7739L78.6396 25.8754L67.646 25.8666V29.3513H82.5826L82.4457 33.1416H58.7004L57.7681 12.6812ZM47.9384 21.9464H54.241V25.7461H48.0631L47.9384 21.9464ZM86.3866 25.8754H92.4337V21.9449H86.3866V25.8754ZM96.9476 33.2749L96.025 12.6809H115.347C119.122 12.6809 121.996 14.9282 121.996 18.5627C121.996 22.5711 118.804 23.9364 117.673 24.0143L117.69 24.176C119.582 24.5939 120.742 25.5755 120.742 28.0785C120.742 33.0065 116.072 33.2933 113.585 33.2933L96.9465 33.2756" fill="white"></path><path d="M106.139 29.5583V25.7929H109.645C110.699 25.7929 111.74 26.3946 111.74 27.6319C111.74 28.8289 110.412 29.5583 108.981 29.5583H106.139ZM106.21 22.3V17.9706H109.704C111.107 17.9706 112.497 18.7658 112.497 20.2054C112.497 21.4054 110.867 22.3343 109.421 22.3C108.205 22.2735 106.21 22.3 106.21 22.3Z" fill="#4B4B4B"></path></svg> 