<?xml version="1.0" encoding="UTF-8"?> <svg xmlns="http://www.w3.org/2000/svg" width="234" height="41" viewBox="0 0 234 41" fill="none"><path fill-rule="evenodd" clip-rule="evenodd" d="M54.395 6.78575C54.395 5.86919 54.8554 5.41113 55.7769 5.41113H57.0972C58.0183 5.41113 58.4791 5.86919 58.4791 6.78575V17.809H62.9108L69.8334 6.34657C70.1353 5.73524 70.7814 5.37117 71.4617 5.4287H73.0109C74.0979 5.4287 74.516 6.14016 73.9747 7.09756L66.3171 19.3944V19.4779L74.5072 33.2592C75.0925 34.1771 74.6744 34.8841 73.5874 34.8841H71.8666C71.1792 34.9245 70.5358 34.5464 70.2383 33.9267L62.9284 21.3619H58.4967V33.5051C58.4967 34.4274 58.0346 34.8841 57.1148 34.8841H55.7945C54.8747 34.8841 54.4126 34.445 54.4126 33.5051L54.395 6.78575Z" fill="#4B4B4B"></path><path fill-rule="evenodd" clip-rule="evenodd" d="M78.1118 15.1299C78.1118 14.2134 78.5726 13.7553 79.4937 13.7553H80.792C81.6722 13.7553 82.1122 14.1945 82.1122 15.1299V26.3684C82.1122 29.2933 82.7372 31.6385 86.0731 31.6385C90.4212 31.6385 92.9737 27.8396 92.9737 23.6675V15.1299C92.9737 14.2134 93.4345 13.7553 94.3556 13.7553H95.6494C96.0328 13.6973 96.4209 13.8216 96.6986 14.0917C96.9759 14.3618 97.1105 14.7461 97.0621 15.1299V33.4962C97.1101 33.8743 96.9798 34.2538 96.7096 34.5234C96.4394 34.7931 96.0592 34.9226 95.6803 34.8752H94.5096C93.5898 34.8752 93.1321 34.436 93.1321 33.4962V31.6209C93.1361 31.2138 93.1775 30.808 93.2553 30.4088H93.1717C91.7137 33.4251 88.6634 35.3517 85.3073 35.3754C80.5411 35.3754 78.1118 32.8726 78.1118 27.2775V15.1299Z" fill="#4B4B4B"></path><path fill-rule="evenodd" clip-rule="evenodd" d="M101.793 31.2126L102.211 30.6285C102.752 29.917 103.298 29.8775 104.134 30.3342C105.651 31.4142 107.46 32.011 109.323 32.0466C111.413 32.0466 112.918 31.0457 112.918 29.2495C112.918 25.1168 102 26.4958 102 19.3549C102 15.3496 105.52 13.2635 109.657 13.2635C111.724 13.2328 113.756 13.7971 115.511 14.8885C116.263 15.2662 116.391 15.9776 115.951 16.7286L115.572 17.3522C115.132 18.1032 114.529 18.1867 113.733 17.7914C112.433 17.0057 110.944 16.5868 109.424 16.5793C107.417 16.5793 105.868 17.4576 105.868 19.2495C105.868 23.4699 116.787 21.9631 116.787 29.1441C116.787 32.7365 113.733 35.3628 109.173 35.3628C106.616 35.386 104.12 34.5797 102.061 33.0659C101.353 32.6307 101.326 31.9196 101.793 31.2126Z" fill="#4B4B4B"></path><path fill-rule="evenodd" clip-rule="evenodd" d="M122.284 17.2688H120.818C120.449 17.3013 120.085 17.1647 119.828 16.8972C119.572 16.6302 119.45 16.2609 119.498 15.8941V15.3496C119.45 14.971 119.581 14.592 119.851 14.3219C120.121 14.0527 120.501 13.9227 120.88 13.9706H122.385V9.33727C122.339 8.95958 122.47 8.58145 122.739 8.31311C123.01 8.04434 123.389 7.91522 123.767 7.96265H124.977C125.899 7.96265 126.359 8.42071 126.359 9.33727V13.9706H130.038C130.417 13.9227 130.798 14.0527 131.068 14.3219C131.338 14.592 131.468 14.971 131.42 15.3496V15.8941C131.468 16.2609 131.347 16.6302 131.091 16.8972C130.834 17.1647 130.469 17.3013 130.1 17.2688H126.377V26.6627C126.377 30.668 128.846 31.2955 130.39 31.419C131.477 31.5024 131.856 31.8581 131.856 32.798V33.6763C131.856 34.6381 131.31 35.0553 130.184 35.0553C125.998 35.0553 122.319 32.6355 122.319 27.2907L122.284 17.2688Z" fill="#4B4B4B"></path><path fill-rule="evenodd" clip-rule="evenodd" d="M145.362 31.8797C149.38 31.8797 152.641 28.7093 152.641 24.2824C152.641 19.8556 149.389 16.7682 145.362 16.7682C141.335 16.7682 138.087 19.8995 138.087 24.2824C138.087 28.6654 141.401 31.8797 145.362 31.8797ZM145.362 13.2635C151.681 13.2635 156.804 17.8968 156.804 24.2824C156.804 30.668 151.703 35.3848 145.362 35.3848C139.02 35.3848 133.985 30.7119 133.985 24.2824C133.985 17.8529 139.055 13.2635 145.362 13.2635Z" fill="#4B4B4B"></path><path fill-rule="evenodd" clip-rule="evenodd" d="M161.267 15.13C161.22 14.7524 161.351 14.3742 161.621 14.1059C161.891 13.8371 162.27 13.708 162.649 13.7554H163.819C164.738 13.7554 165.197 14.2135 165.197 15.13V17.0185C165.193 17.4252 165.151 17.831 165.073 18.2306H165.166C166.213 15.7668 169.179 13.2635 172.529 13.2635C176.084 13.2635 178.131 14.8885 178.883 18.0637H178.967C180.367 15.1946 183.252 13.3435 186.449 13.2635C191.259 13.2635 193.433 15.9776 193.433 21.3619V33.5051C193.433 34.4274 192.993 34.8841 192.051 34.8841H190.757C190.378 34.932 189.998 34.802 189.728 34.5323C189.458 34.2627 189.328 33.8832 189.375 33.5051V22.2354C189.375 19.2715 188.79 16.935 185.652 16.935C181.722 16.935 179.376 20.9842 179.376 25.0334V33.5051C179.376 34.4274 178.936 34.8841 178.056 34.8841H176.736C175.856 34.8841 175.416 34.4449 175.416 33.5051V22.2354C175.416 19.4823 174.997 16.935 171.736 16.935C167.718 16.935 165.377 21.1116 165.377 25.0334V33.5051C165.377 34.4274 164.915 34.8841 163.995 34.8841H162.701C162.322 34.932 161.942 34.802 161.672 34.5323C161.402 34.2627 161.272 33.8832 161.319 33.5051L161.267 15.13Z" fill="#4B4B4B"></path><path fill-rule="evenodd" clip-rule="evenodd" d="M213.299 22.047C213.175 18.3536 210.957 16.4476 208.154 16.4476C205.073 16.4476 202.552 18.5336 201.966 22.0822L213.299 22.047ZM208.238 13.2635C214.095 13.2635 217.356 17.4357 217.356 23.3206C217.36 23.6983 217.211 24.0615 216.944 24.329C216.677 24.5964 216.313 24.7458 215.935 24.7431H201.799C202.05 29.3329 205.351 31.8797 209.118 31.8797C210.938 31.8665 212.709 31.2829 214.179 30.2113C214.975 29.7721 215.6 29.8775 216.062 30.6505L216.436 31.278C216.653 31.571 216.729 31.9447 216.644 32.2987C216.56 32.6522 216.322 32.9509 215.996 33.1142C213.898 34.5749 211.403 35.361 208.845 35.3672C202.195 35.3672 197.636 30.567 197.636 24.304C197.658 17.6026 202.217 13.2635 208.238 13.2635Z" fill="#4B4B4B"></path><mask id="mask0" maskUnits="userSpaceOnUse" x="0" y="0" width="234" height="41"><path d="M0.0263672 0.400024H233.486V40.4H0.0263672V0.400024Z" fill="white"></path></mask><g mask="url(#mask0)"><path fill-rule="evenodd" clip-rule="evenodd" d="M221.792 15.1299C221.744 14.7526 221.874 14.3745 222.144 14.1057C222.413 13.8365 222.792 13.7074 223.17 13.7553H224.341C225.265 13.7553 225.722 14.1944 225.722 15.1299V17.5541C225.722 18.0846 225.681 18.6147 225.599 19.1395H225.683C226.603 16.3416 228.983 13.5884 232.165 13.5884C233.125 13.5884 233.486 14.0276 233.486 14.963V16.14C233.486 17.0622 232.94 17.519 231.98 17.519C227.839 17.519 225.819 21.9854 225.819 26.1619V33.5049C225.819 34.4272 225.379 34.8839 224.437 34.8839H223.117C222.739 34.9301 222.36 34.7996 222.091 34.5304C221.822 34.2607 221.692 33.8822 221.74 33.5049L221.792 15.1299Z" fill="#4B4B4B"></path><path fill-rule="evenodd" clip-rule="evenodd" d="M27.9296 40.4C34.7801 40.4171 40.3521 34.8993 40.3886 28.0636V12.7364C40.3521 5.90064 34.7801 0.382854 27.9296 0.399942H12.4516C5.60207 0.382854 0.0309573 5.90108 -0.00292969 12.7364V28.0636C0.0309573 34.8989 5.60207 40.4171 12.4516 40.4H27.9296Z" fill="#FFFFFE"></path><path fill-rule="evenodd" clip-rule="evenodd" d="M22.3959 14.8314V20.3737C22.3973 20.6754 22.5183 20.964 22.733 21.1765C22.9474 21.3891 23.2378 21.5077 23.5402 21.5064H27.2677C27.5692 21.5077 27.8588 21.3891 28.0718 21.1761C28.2852 20.9635 28.4041 20.6746 28.4032 20.3737V16.6759C28.4041 16.3751 28.2852 16.0861 28.0718 15.8735C27.8588 15.6605 27.5692 15.5415 27.2677 15.5428H24.6668V14.8182C24.6813 13.3966 25.8432 12.253 27.2677 12.2578C27.8949 12.2578 28.4032 11.7501 28.4032 11.1247C28.4032 10.4989 27.8949 9.99155 27.2677 9.99155C25.9792 9.98331 24.7407 10.4879 23.8262 11.3939C22.9117 12.3 22.3973 13.5323 22.3959 14.8182V14.8314ZM11.9878 14.8314V20.3737C11.9878 20.675 12.1079 20.964 12.3218 21.1761C12.5357 21.3891 12.8257 21.5077 13.1276 21.5064H16.8552C17.1575 21.5077 17.448 21.3891 17.6623 21.1765C17.8771 20.964 17.9981 20.6754 17.9994 20.3737V16.6759C17.9994 16.3737 17.8784 16.0843 17.6636 15.8713C17.4489 15.6588 17.158 15.5402 16.8552 15.5428H14.2719V14.8182C14.2837 13.4023 15.4363 12.26 16.8552 12.2578C17.4823 12.2578 17.9906 11.7501 17.9906 11.1247C17.9906 10.4989 17.4823 9.99158 16.8552 9.99158C15.5675 9.98463 14.33 10.4897 13.4168 11.3957C12.5031 12.3013 11.9891 13.5332 11.9878 14.8182V14.8314ZM13.3565 26.6891C13.1633 26.6943 12.9868 26.8006 12.8922 26.9688C12.7976 27.1375 12.7984 27.3425 12.8944 27.5103C12.9956 27.6816 15.4117 31.7659 20.2263 31.7659C25.0409 31.7659 27.4174 27.6816 27.5274 27.5103C27.6238 27.3395 27.6238 27.1317 27.5274 26.9613C27.431 26.7923 27.251 26.6886 27.0565 26.6891H13.3565Z" fill="#4B4B4B"></path><path fill-rule="evenodd" clip-rule="evenodd" d="M12.4516 0.399942C5.60207 0.382854 0.0309573 5.90108 -0.00292969 12.7364V28.0636C0.0309573 34.8989 5.60207 40.4171 12.4516 40.4H22.9522L16.034 35.4676H12.4516C8.33767 35.4825 4.98946 32.169 4.9701 28.0636V12.7364C5.00398 8.63714 8.34383 5.33147 12.4516 5.33191H27.9296C32.0379 5.33147 35.3773 8.63714 35.4112 12.7364V28.0636C35.3773 32.1628 32.0379 35.4681 27.9296 35.4676H24.9898V40.4H27.9296C34.7801 40.4171 40.3521 34.8993 40.3886 28.0636V12.7364C40.3521 5.90064 34.7801 0.382854 27.9296 0.399942H12.4516Z" fill="#4B4B4B"></path></g></svg> 