<?xml version="1.0" encoding="UTF-8"?> <svg xmlns="http://www.w3.org/2000/svg" xmlns:xlink="http://www.w3.org/1999/xlink" width="35px" height="35px" viewBox="0 0 35 35"><!-- Generator: Sketch 52.5 (67469) - http://www.bohemiancoding.com/sketch --><title>2</title><desc>Created with Sketch.</desc><g id="Pages" stroke="none" stroke-width="1" fill="none" fill-rule="evenodd"><g id="Home---Approach-v3-" transform="translate(-634.000000, -4736.000000)"><g id="Section-2" transform="translate(215.000000, 4173.000000)"><g id="2" transform="translate(419.000000, 563.000000)"><circle id="Oval-Copy-3" fill="#DDE8E6" cx="17.5" cy="17.5" r="17.5"></circle><path d="M21.56,24.44 L13,24.44 L13,22.1 L15.82,19.24 C16.820005,18.2133282 17.5166647,17.4266694 17.91,16.88 C18.3033353,16.3333306 18.5,15.7500031 18.5,15.13 C18.5,14.5099969 18.3366683,14.0733346 18.01,13.82 C17.6833317,13.5666654 17.220003,13.44 16.62,13.44 C15.7266622,13.44 14.7533386,13.5199992 13.7,13.68 L13.22,13.74 L13.08,11.6 C14.3866732,11.199998 15.739993,11 17.14,11 C19.940014,11 21.34,12.2599874 21.34,14.78 C21.34,15.7666716 21.1266688,16.6199964 20.7,17.34 C20.2733312,18.0600036 19.5000056,18.9333282 18.38,19.96 L16.08,22.04 L21.56,22.04 L21.56,24.44 Z" fill="#54B454"></path></g></g></g></g></svg> 