<?xml version="1.0" encoding="UTF-8"?> <svg xmlns="http://www.w3.org/2000/svg" xmlns:xlink="http://www.w3.org/1999/xlink" width="35px" height="35px" viewBox="0 0 35 35"><!-- Generator: Sketch 52.5 (67469) - http://www.bohemiancoding.com/sketch --><title>3</title><desc>Created with Sketch.</desc><g id="Pages" stroke="none" stroke-width="1" fill="none" fill-rule="evenodd"><g id="Home---Approach-v3-" transform="translate(-1023.000000, -4736.000000)"><g id="Section-2" transform="translate(215.000000, 4173.000000)"><g id="3" transform="translate(808.000000, 563.000000)"><circle id="Oval-Copy-4" fill="#DDE8E6" cx="17.5" cy="17.5" r="17.5"></circle><path d="M13.1,11.72 C14.3266728,11.2399976 15.6966591,11 17.21,11 C18.7233409,11 19.8266632,11.2899971 20.52,11.87 C21.2133368,12.4500029 21.56,13.3799936 21.56,14.66 C21.56,15.9400064 21.0466718,16.9199966 20.02,17.6 C20.6600032,17.9466684 21.1166653,18.3066648 21.39,18.68 C21.6633347,19.0533352 21.8,19.6466626 21.8,20.46 C21.8,21.8866738 21.4433369,22.9466632 20.73,23.64 C20.0166631,24.3333368 18.8733412,24.68 17.3,24.68 C16.1399942,24.68 14.9200064,24.5066684 13.64,24.16 L13,24 L13.14,21.9 C14.6333408,22.1533346 15.8866616,22.28 16.9,22.28 C18.2733402,22.28 18.96,21.6933392 18.96,20.52 C18.96,20.0266642 18.7833351,19.6333348 18.43,19.34 C18.0766649,19.0466652 17.6133362,18.9 17.04,18.9 L14.38,18.9 L14.38,16.62 L17.04,16.62 C17.4800022,16.62 17.8699983,16.4333352 18.21,16.06 C18.5500017,15.6866648 18.72,15.2733356 18.72,14.82 C18.72,13.8733286 18.0600066,13.4 16.74,13.4 C15.8199954,13.4 14.8400052,13.4933324 13.8,13.68 L13.28,13.76 L13.1,11.72 Z" fill="#54B454"></path></g></g></g></g></svg> 