<?xml version="1.0" encoding="UTF-8"?> <svg xmlns="http://www.w3.org/2000/svg" xmlns:xlink="http://www.w3.org/1999/xlink" width="253px" height="40px" viewBox="0 0 253 40"><!-- Generator: Sketch 52.5 (67469) - http://www.bohemiancoding.com/sketch --><title>awwwards-logo</title><desc>Created with Sketch.</desc><g id="Symbols" stroke="none" stroke-width="1" fill="none" fill-rule="evenodd"><g id="CTA" transform="translate(-674.000000, -1420.000000)" fill="#DBFFDF"><g id="awwwards-logo" transform="translate(674.000000, 1420.000000)"><path d="M1.07098381,18.8466092 C1.96347032,14.1856925 6.06890826,10.9589041 11.7808219,10.9589041 C18.3852221,10.9589041 23.5616438,13.8271605 23.5616438,22.7904617 L23.5616438,39.4622019 L17.8497302,39.4622019 L17.135741,35.8768814 C15.1722707,38.3866058 12.4948111,40 8.56787049,40 C3.74844334,40 0,36.9524776 0,31.3952308 C0,25.8379841 4.99792445,22.2526636 11.9593192,22.2526636 L16.6002491,22.2526636 L16.6002491,20.9978015 C16.6002491,17.771013 14.2797841,16.8746829 11.6023246,16.8746829 C9.6388543,16.8746829 7.67538398,17.591747 6.78289747,20.1014713 L1.07098381,18.8466092 Z M10.1743462,34.0842212 C13.3872976,34.0842212 16.6002491,31.9330289 16.6002491,28.3477084 L16.6002491,27.8099104 L12.1378165,27.8099104 C9.10336239,27.6306443 7.31838937,28.8855065 7.31838937,31.3952308 C7.31838937,32.650093 8.38937318,34.0842212 10.1743462,34.0842212 Z" id="logo-a1" fill-rule="nonzero"></path><path d="M135.865504,18.8466092 C136.757991,14.1856925 140.863429,10.9589041 146.575342,10.9589041 C153.179743,10.9589041 158.356164,13.8271605 158.356164,22.7904617 L158.356164,39.4622019 L152.644251,39.4622019 L151.930262,35.8768814 C149.966791,38.3866058 147.289332,40 143.362391,40 C138.542964,40 134.794521,36.9524776 134.794521,31.3952308 C134.794521,25.8379841 139.792445,22.2526636 146.75384,22.2526636 L151.39477,22.2526636 L151.39477,20.9978015 C151.39477,17.771013 149.074305,16.8746829 146.396845,16.8746829 C144.433375,16.8746829 142.469905,17.591747 141.577418,20.1014713 L135.865504,18.8466092 Z M144.968867,34.0842212 C148.181818,34.0842212 151.39477,31.9330289 151.39477,28.3477084 L151.39477,27.8099104 L146.75384,27.8099104 C143.719386,27.8099104 141.934413,28.8855065 141.934413,31.3952308 C142.11291,32.650093 143.183894,34.0842212 144.968867,34.0842212 Z" id="logo-a2" fill-rule="nonzero"></path><path d="M164.383562,39.4520548 L164.383562,11.3150685 L171.369863,11.3150685 L171.369863,15.9452055 C173.340358,12.5616438 176.564805,10.9589041 179.610116,10.9589041 C180.864067,10.9589041 181.938883,11.1369863 183.013699,11.4931507 L181.759747,17.9041096 C180.864067,17.369863 179.968388,17.0136986 178.893572,17.0136986 C174.773446,17.0136986 171.369863,20.3972603 171.369863,29.3013699 L171.369863,39.2739726 L164.383562,39.4520548 Z" id="logo-r"></path><path d="M197.823029,10.8928571 C200.66642,10.8928571 203.332099,12.3214286 204.576083,13.9285714 L204.576083,0 L211.506849,0 L211.506849,39.4642857 L204.576083,39.4642857 L204.576083,36.6071429 C203.687523,38.0357143 201.199556,40 197.823029,40 C189.470566,40 185.205479,34.1071429 185.205479,25.5357143 C185.205479,16.9642857 189.470566,10.8928571 197.823029,10.8928571 Z M198.8893,33.9285714 C202.443539,33.9285714 205.286931,30.8928571 205.286931,25.3571429 C205.286931,19.8214286 202.443539,16.7857143 198.8893,16.7857143 C195.335061,16.7857143 192.49167,19.8214286 192.49167,25.3571429 C192.49167,30.8928571 195.335061,33.9285714 198.8893,33.9285714 Z" id="logo-d" fill-rule="nonzero"></path><path d="M236.944509,15.2511416 L232.886,19.0157281 C231.650801,17.2230678 229.709775,16.5060037 228.298119,16.5060037 C226.886464,16.5060037 225.651265,17.4023338 225.651265,18.836462 C225.651265,20.0913242 226.710007,20.9876543 228.298119,21.5254524 C232.180172,22.9595806 238.356164,24.2144428 238.356164,30.1302215 C238.356164,35.3289362 234.474112,39.4520548 228.474576,39.4520548 C222.651498,39.4520548 218.769445,35.3289362 217.534247,31.9228818 L223.004411,28.8753594 C224.063153,31.5643497 225.827722,33.536276 228.651033,33.536276 C230.768516,33.536276 232.180172,32.4606799 232.180172,30.4887536 C232.180172,28.1582953 228.651033,27.6204972 225.298352,26.186369 C222.298584,24.9315068 219.65173,22.9595806 219.65173,18.657196 C219.65173,14.3548114 223.180868,10.4109589 228.474576,10.4109589 C232.003715,10.5902249 235.356397,12.5621512 236.944509,15.2511416 Z" id="logo-s"></path><polygon id="logo-w2" points="92.7503726 10.9589041 87.7422102 30.6155714 82.9129108 10.9589041 76.4738448 10.9589041 71.8234083 30.6155714 67.8884236 19.2543784 67.3518348 20.5167331 65.2054795 27.9105254 68.7827383 39.4520548 74.8640784 39.4520548 79.6933778 21.0577423 84.5226773 39.4520548 90.7828803 39.4520548 99.7260274 10.9589041"></polygon><polygon id="logo-w3" points="126.210987 10.9589041 121.22864 30.6155714 116.424234 10.9589041 110.018359 10.9589041 105.391894 30.6155714 101.477192 19.2543784 100.94337 20.5167331 98.630137 27.9105254 102.366897 39.4520548 108.41689 39.4520548 113.221296 21.0577423 118.025703 39.4520548 124.075696 39.4520548 133.150685 10.9589041"></polygon><polygon id="logo-w1" points="66.3013699 10.9589041 57.4157719 39.2717184 51.3735653 39.2717184 46.5753425 21.0577423 41.7771196 39.4520548 35.734913 39.4520548 26.8493151 11.1392405 33.7800815 11.1392405 38.7560163 30.6155714 43.5542392 11.1392405 49.9518697 11.1392405 54.7500926 30.6155714 59.7260274 11.1392405"></polygon><path d="M247.39726,30.1369863 C250.084299,30.1369863 252.054795,32.1074816 252.054795,34.7945205 C252.054795,37.4815595 250.084299,39.4520548 247.39726,39.4520548 C244.710221,39.4520548 242.739726,37.4815595 242.739726,34.7945205 C242.739726,32.1074816 244.710221,30.1369863 247.39726,30.1369863 Z" id="logo-p"></path></g></g></g></svg> 