<?xml version="1.0" encoding="UTF-8"?> <svg xmlns="http://www.w3.org/2000/svg" xmlns:xlink="http://www.w3.org/1999/xlink" width="338px" height="50px" viewBox="0 0 338 50"><!-- Generator: Sketch 52.5 (67469) - http://www.bohemiancoding.com/sketch --><title>css-design-awards-logo</title><desc>Created with Sketch.</desc><g id="Symbols" stroke="none" stroke-width="1" fill="none" fill-rule="evenodd"><g id="CTA" transform="translate(-1054.000000, -1415.000000)" fill="#DBFFDF"><g id="css-design-awards-logo" transform="translate(1054.000000, 1415.000000)"><g id="Group"><polygon id="Shape" points="33.5474049 32.9123447 33.5474049 32.9123447 16.7737025 16.4561724 33.5474049 0 16.7737025 0 0 16.4561724 8.38685123 24.7767091 16.7737025 32.9123447 25.1605538 41.0479806"></polygon><polygon id="Shape" points="45.4753712 24.7767091 37.0885199 16.4561724 28.7016687 8.3205366 20.5011919 16.4561724 37.0885199 32.9123447 37.0885199 32.9123447 37.0885199 32.9123447 20.3148175 49.3685173 37.0885199 49.3685173 45.4753712 41.2328814 53.8622223 32.9123447"></polygon></g><g id="Group" transform="translate(62.987013, 12.337662)"><path d="M11.347139,4.09137081 C8.92889627,4.09137081 6.88269086,4.83482903 5.39454149,6.50761003 C3.90639211,8.18039105 3.16231742,10.4107657 3.16231742,13.3845986 C3.16231742,16.3584315 3.90639211,18.5888061 5.20852281,20.2615872 C6.69667219,21.9343682 8.55685893,22.6778263 11.1611203,22.6778263 C12.8352884,22.6778263 14.5094564,22.3060972 16.5556618,21.7485037 L16.5556618,24.1647427 C14.8814938,24.7223365 13.0213071,25.0940656 10.789083,25.0940656 C7.44074688,25.0940656 4.83648547,24.1647427 2.97629875,22.1202328 C1.11611203,20.0757227 0.186018672,17.1018897 0.186018672,13.3845986 C0.186018672,10.9683594 0.558056016,8.92384927 1.48814938,7.25106827 C2.41824274,5.57828725 3.72037344,4.09137081 5.20852281,3.16204803 C6.69667219,2.23272525 8.7428776,1.67513159 11.1611203,1.67513159 C13.5793631,1.67513159 15.6255685,2.0468607 17.4857552,2.97618348 L16.3696432,5.20655814 C14.8814938,4.64896447 13.2073257,4.09137081 11.347139,4.09137081 Z" id="Shape"></path><path d="M34.5994731,18.7746707 C34.5994731,20.8191808 33.8553983,22.3060972 32.367249,23.4212846 C30.8790997,24.5364719 29.0189129,25.0940656 26.4146515,25.0940656 C23.6243713,25.0940656 21.5781661,24.7223365 20.0900166,23.9788784 L20.0900166,21.3767745 C21.02011,21.7485037 22.1362219,22.1202328 23.0663154,22.3060972 C23.9964087,22.4919617 25.2985395,22.6778263 26.4146515,22.6778263 C28.2748382,22.6778263 29.5769688,22.3060972 30.3210436,21.7485037 C31.2511368,21.0050453 31.6231742,20.0757227 31.6231742,18.9605353 C31.6231742,18.217077 31.4371555,17.4736188 31.0651182,17.1018897 C30.693081,16.544296 30.1350249,16.1725669 29.3909501,15.6149733 C28.6468756,15.2432442 27.5307634,14.6856505 26.0426141,14.1280568 C23.9964087,13.3845986 22.3222406,12.4552758 21.5781661,11.3400885 C20.6480726,10.2249012 20.2760353,8.92384927 20.2760353,7.25106827 C20.2760353,5.57828725 21.02011,4.09137081 22.3222406,2.97618348 C23.6243713,1.86099614 25.484558,1.48926703 27.5307634,1.48926703 C29.7629875,1.48926703 31.8091929,1.86099614 33.8553983,2.79031892 L33.1113236,5.02069358 C31.2511368,4.27723536 29.3909501,3.90550625 27.5307634,3.90550625 C26.0426141,3.90550625 25.1125208,4.27723536 24.1824274,4.83482903 C23.4383528,5.3924227 23.0663154,6.32174547 23.0663154,7.43693283 C23.0663154,8.18039105 23.2523341,8.92384927 23.4383528,9.29557838 C23.81039,9.85317205 24.1824274,10.2249012 24.9265021,10.5966303 C25.6705767,10.9683594 26.6006701,11.525953 28.0888195,12.0835467 C30.5070623,13.0128695 32.1812303,13.9421923 33.1113236,14.871515 C34.2274357,15.9867024 34.5994731,17.2877543 34.5994731,18.7746707 Z" id="Shape"></path><path d="M52.2712468,18.7746707 C52.2712468,20.8191808 51.5271723,22.3060972 50.0390227,23.4212846 C48.5508734,24.5364719 46.6906867,25.0940656 44.0864254,25.0940656 C41.2961452,25.0940656 39.2499398,24.7223365 37.7617905,23.9788784 L37.7617905,21.3767745 C38.6918837,21.7485037 39.8079959,22.1202328 40.7380891,22.3060972 C41.6681826,22.4919617 42.9703132,22.6778263 44.0864254,22.6778263 C45.9466121,22.6778263 47.2487428,22.3060972 47.9928173,21.7485037 C48.9229108,21.0050453 49.2949482,20.0757227 49.2949482,18.9605353 C49.2949482,18.217077 49.1089295,17.4736188 48.7368921,17.1018897 C48.3648547,16.544296 47.8067988,16.1725669 47.0627241,15.6149733 C46.3186493,15.2432442 45.2025373,14.6856505 43.714388,14.1280568 C41.6681826,13.3845986 39.9940146,12.4552758 39.2499398,11.3400885 C38.3198465,10.2249012 37.9478092,8.92384927 37.9478092,7.25106827 C37.9478092,5.57828725 38.6918837,4.09137081 39.9940146,2.97618348 C41.2961452,1.86099614 43.1563319,1.48926703 45.2025373,1.48926703 C47.4347614,1.48926703 49.4809669,1.86099614 51.5271723,2.79031892 L50.7830975,5.02069358 C48.9229108,4.27723536 47.0627241,3.90550625 45.2025373,3.90550625 C43.714388,3.90550625 42.7842945,4.27723536 41.8542013,4.83482903 C41.1101265,5.3924227 40.7380891,6.32174547 40.7380891,7.43693283 C40.7380891,8.18039105 40.9241078,8.92384927 41.1101265,9.29557838 C41.4821639,9.85317205 41.8542013,10.2249012 42.5982759,10.5966303 C43.3423506,10.9683594 44.2724439,11.525953 45.7605934,12.0835467 C48.178836,13.0128695 49.853004,13.9421923 50.7830975,14.871515 C51.713191,15.9867024 52.2712468,17.2877543 52.2712468,18.7746707 Z" id="Shape"></path><path d="M75.5235809,13.0128695 C75.5235809,16.7301606 74.4074688,19.7039935 72.3612636,21.7485037 C70.3150582,23.7930138 67.3387593,24.908201 63.4323671,24.908201 L55.9916203,24.908201 L55.9916203,2.0468607 L63.8044045,2.0468607 C67.524778,2.0468607 70.3150582,2.97618348 72.3612636,4.83482903 C74.4074688,6.69347458 75.5235809,9.48144293 75.5235809,13.0128695 Z M69.198946,13.198734 C69.198946,11.1542239 68.8269086,9.48144293 67.8968154,8.55212016 C67.1527406,7.62279738 65.8506099,7.06520369 64.1764419,7.06520369 L62.3162552,7.06520369 L62.3162552,19.8898581 L63.6183858,19.8898581 C65.4785726,19.8898581 66.7807032,19.3322644 67.7107967,18.217077 C68.8269086,17.1018897 69.198946,15.4291087 69.198946,13.198734 Z" id="Shape" fill-rule="nonzero"></path><path d="M87.8008132,25.2799302 C84.8245145,25.2799302 82.5922904,24.5364719 80.9181224,22.8636909 C79.2439544,21.3767745 78.4998796,19.1463998 78.4998796,16.1725669 C78.4998796,13.198734 79.2439544,10.9683594 80.7321037,9.29557838 C82.220253,7.62279738 84.4524771,6.87933914 87.2427573,6.87933914 C89.8470186,6.87933914 91.893224,7.62279738 93.3813734,8.92384927 C94.8695229,10.2249012 95.6135975,12.2694113 95.6135975,14.871515 L95.6135975,17.6594834 L84.6384958,17.6594834 C84.6384958,18.5888061 85.0105332,19.3322644 85.7546078,20.0757227 C86.4986826,20.6333162 87.428776,21.0050453 88.544888,21.0050453 C89.6609999,21.0050453 90.5910934,20.8191808 91.5211866,20.6333162 C92.4512801,20.4474516 93.3813734,20.0757227 94.4974855,19.5181289 L94.4974855,23.9788784 C93.567392,24.5364719 92.6372988,24.7223365 91.5211866,24.908201 C90.4050747,25.0940656 89.2889627,25.2799302 87.8008132,25.2799302 Z M87.428776,11.1542239 C86.6847012,11.1542239 86.1266452,11.3400885 85.5685893,11.8976822 C85.0105332,12.2694113 84.8245145,13.0128695 84.6384958,13.9421923 L89.8470186,13.9421923 C89.8470186,13.0128695 89.6609999,12.4552758 89.102944,11.8976822 C88.9169253,11.3400885 88.3588693,11.1542239 87.428776,11.1542239 Z" id="Shape" fill-rule="nonzero"></path><path d="M112.727315,19.5181289 C112.727315,21.3767745 112.169259,22.8636909 110.867129,23.7930138 C109.564998,24.7223365 107.704811,25.2799302 105.286568,25.2799302 C103.984438,25.2799302 102.868326,25.2799302 101.938232,25.0940656 C101.008139,24.908201 99.892027,24.7223365 98.9619335,24.3506073 L98.9619335,19.5181289 C99.892027,19.8898581 101.008139,20.2615872 102.124251,20.6333162 C103.240363,20.8191808 104.170456,21.0050453 105.10055,21.0050453 C106.40268,21.0050453 107.146755,20.6333162 107.146755,20.0757227 C107.146755,19.7039935 106.960736,19.5181289 106.588699,19.3322644 C106.216662,19.1463998 105.10055,18.5888061 103.426382,17.8453479 C101.752214,17.1018897 100.636102,16.3584315 100.078046,15.6149733 C99.5199896,14.6856505 99.1479522,13.7563277 99.1479522,12.4552758 C99.1479522,10.7824948 99.7060083,9.48144293 101.008139,8.55212016 C102.31027,7.62279738 103.984438,7.25106827 106.40268,7.25106827 C107.518793,7.25106827 108.634904,7.43693283 109.751017,7.62279738 C110.867129,7.80866194 111.797222,8.18039105 112.913334,8.73798471 L111.239166,12.6411404 C110.495091,12.2694113 109.564998,11.8976822 108.634904,11.7118176 C107.704811,11.525953 106.960736,11.3400885 106.40268,11.3400885 C105.472587,11.3400885 104.914531,11.525953 104.914531,12.0835467 C104.914531,12.4552758 105.10055,12.6411404 105.472587,12.8270049 C105.844625,13.0128695 106.774718,13.3845986 108.448886,14.1280568 C109.751017,14.6856505 110.68111,15.0573796 111.239166,15.6149733 C111.797222,16.1725669 112.355278,16.7301606 112.541297,17.2877543 C112.541297,17.6594834 112.727315,18.5888061 112.727315,19.5181289 Z" id="Shape"></path><path d="M116.075651,2.79031892 C116.075651,1.86099614 116.26167,1.11753792 116.819726,0.745808813 C117.377782,0.374079702 118.121857,0.00235059106 119.237969,0.00235059106 C120.354081,0.00235059106 121.284174,0.188215146 121.656212,0.745808813 C122.214268,1.11753792 122.400286,1.86099614 122.400286,2.79031892 C122.400286,4.64896447 121.284174,5.3924227 119.05195,5.3924227 C117.005745,5.57828725 116.075651,4.64896447 116.075651,2.79031892 Z M122.214268,24.908201 L116.075651,24.908201 L116.075651,7.25106827 L122.214268,7.25106827 L122.214268,24.908201 Z" id="Shape" fill-rule="nonzero"></path><path d="M143.234378,7.25106827 L143.234378,10.2249012 L140.816135,11.1542239 C141.188172,11.7118176 141.374191,12.4552758 141.374191,13.198734 C141.374191,15.0573796 140.630116,16.544296 139.327985,17.6594834 C138.025855,18.7746707 135.979649,19.1463998 133.375388,19.1463998 C132.631313,19.1463998 132.259276,19.1463998 131.887239,18.9605353 C131.70122,19.1463998 131.70122,19.5181289 131.70122,19.7039935 C131.70122,20.0757227 131.887239,20.2615872 132.445295,20.4474516 C133.003351,20.6333162 133.561407,20.6333162 134.305481,20.6333162 L137.28178,20.6333162 C141.188172,20.6333162 143.234378,22.3060972 143.234378,25.6516593 C143.234378,27.8820338 142.304284,29.554815 140.444097,30.6700023 C138.583911,31.7851895 135.979649,32.5286478 132.631313,32.5286478 C130.213071,32.5286478 128.166865,32.1569187 126.864735,31.227596 C125.562604,30.4841377 124.818529,29.1830859 124.818529,27.6961695 C124.818529,25.6516593 126.12066,24.1647427 128.724921,23.6071492 C128.166865,23.4212846 127.794828,23.0495555 127.236772,22.4919617 C126.864735,21.9343682 126.678716,21.5626391 126.678716,21.0050453 C126.678716,20.4474516 126.864735,19.8898581 127.050753,19.5181289 C127.42279,19.1463998 127.980846,18.5888061 128.91094,18.0312125 C127.980846,17.6594834 127.236772,16.9160251 126.678716,16.1725669 C126.12066,15.2432442 125.934641,14.3139214 125.934641,13.0128695 C125.934641,11.1542239 126.678716,9.66730749 127.980846,8.55212016 C129.282977,7.43693283 131.143164,6.87933914 133.561407,6.87933914 C133.933444,6.87933914 134.4915,6.87933914 135.235575,7.06520369 C135.979649,7.06520369 136.537705,7.25106827 136.909743,7.25106827 L143.234378,7.25106827 Z M129.841033,27.1385757 C129.841033,27.6961695 130.027052,28.0678984 130.585108,28.4396276 C131.143164,28.8113567 131.887239,28.8113567 132.817332,28.8113567 C134.305481,28.8113567 135.421593,28.6254921 136.351687,28.253763 C137.28178,27.8820338 137.653817,27.3244403 137.653817,26.7668466 C137.653817,26.2092529 137.467799,26.0233883 136.909743,25.8375239 C136.351687,25.6516593 135.607612,25.4657948 134.4915,25.4657948 L132.073257,25.4657948 C131.329183,25.4657948 130.957145,25.6516593 130.399089,25.8375239 C130.027052,26.2092529 129.841033,26.580982 129.841033,27.1385757 Z M131.70122,13.0128695 C131.70122,14.871515 132.259276,15.8008378 133.561407,15.8008378 C134.119463,15.8008378 134.677519,15.6149733 134.863537,15.0573796 C135.235575,14.6856505 135.421593,13.9421923 135.421593,13.0128695 C135.421593,11.1542239 134.863537,10.2249012 133.561407,10.2249012 C132.445295,10.2249012 131.70122,11.1542239 131.70122,13.0128695 Z" id="Shape" fill-rule="nonzero"></path><path d="M156.999759,24.908201 L156.999759,15.2432442 C156.999759,14.1280568 156.813741,13.198734 156.441703,12.6411404 C156.069666,12.0835467 155.51161,11.7118176 154.767535,11.7118176 C153.651423,11.7118176 152.907349,12.0835467 152.535311,13.0128695 C152.163274,13.7563277 151.791236,15.2432442 151.791236,17.2877543 L151.791236,25.0940656 L145.65262,25.0940656 L145.65262,7.43693283 L150.303087,7.43693283 L151.047162,9.66730749 L151.419199,9.66730749 C151.977255,8.92384927 152.72133,8.18039105 153.651423,7.80866194 C154.581517,7.43693283 155.697629,7.25106827 156.813741,7.25106827 C158.859946,7.25106827 160.348095,7.80866194 161.464207,8.92384927 C162.58032,10.0390366 163.138375,11.7118176 163.138375,13.7563277 L163.138375,25.2799302 L156.999759,25.2799302 L156.999759,24.908201 Z" id="Shape"></path><path d="M182.670336,24.908201 L179.880056,17.6594834 L170.765141,17.6594834 L167.974861,24.908201 L165.3706,24.908201 L174.485514,2.0468607 L176.717739,2.0468607 L185.646635,24.908201 L182.670336,24.908201 Z M178.949963,15.2432442 L176.345701,8.18039105 C175.973664,7.25106827 175.601627,6.13588092 175.229589,4.83482903 C175.043571,5.76415181 174.671533,6.87933914 174.299496,8.18039105 L171.695234,15.2432442 L178.949963,15.2432442 Z" id="Shape" fill-rule="nonzero"></path><path d="M202.202297,24.908201 L199.039979,14.871515 C198.85396,14.3139214 198.481923,12.8270049 197.923867,10.7824948 L197.737849,10.7824948 C197.365811,12.6411404 196.993774,13.9421923 196.621736,15.0573796 L193.459419,25.0940656 L190.48312,25.0940656 L185.832653,7.99452649 L188.622934,7.99452649 C189.739046,12.2694113 190.48312,15.6149733 191.227195,17.8453479 C191.785251,20.0757227 192.157288,21.5626391 192.157288,22.3060972 L192.343307,22.3060972 C192.529326,21.7485037 192.715344,21.0050453 192.901363,20.0757227 C193.087382,19.1463998 193.459419,18.4029416 193.645438,17.8453479 L196.807755,7.99452649 L199.598035,7.99452649 L202.574334,17.8453479 C203.13239,19.7039935 203.504427,21.1909099 203.690446,22.3060972 L203.876465,22.3060972 C203.876465,21.9343682 204.062483,21.3767745 204.248502,20.6333162 C204.434521,19.8898581 205.550633,15.6149733 207.410818,7.99452649 L210.015081,7.99452649 L205.364614,25.0940656 L202.202297,25.0940656 L202.202297,24.908201 Z" id="Shape"></path><path d="M223.594444,24.908201 L223.036387,22.4919617 L222.850369,22.4919617 C221.920276,23.6071492 221.1762,24.3506073 220.246108,24.7223365 C219.316014,25.0940656 218.385921,25.2799302 217.083791,25.2799302 C215.409623,25.2799302 214.107493,24.908201 213.177398,23.9788784 C212.247306,23.0495555 211.689249,21.9343682 211.689249,20.2615872 C211.689249,16.7301606 214.479528,15.0573796 220.060089,14.871515 L223.036387,14.6856505 L223.036387,13.5704632 C223.036387,12.2694113 222.66435,11.1542239 222.106295,10.5966303 C221.548238,10.0390366 220.618146,9.66730749 219.316014,9.66730749 C217.827864,9.66730749 216.339715,10.0390366 214.479528,10.9683594 L213.735455,8.92384927 C214.665547,8.55212016 215.409623,8.18039105 216.525734,7.80866194 C217.455829,7.62279738 218.57194,7.43693283 219.502032,7.43693283 C221.548238,7.43693283 223.036387,7.80866194 223.966482,8.73798471 C224.896574,9.66730749 225.454631,11.1542239 225.454631,13.0128695 L225.454631,24.7223365 L223.594444,24.7223365 L223.594444,24.908201 Z M217.641846,23.0495555 C219.316014,23.0495555 220.432127,22.6778263 221.362219,21.7485037 C222.292314,20.8191808 222.66435,19.7039935 222.66435,18.0312125 L222.66435,16.544296 L220.060089,16.7301606 C218.013883,16.7301606 216.525734,17.1018897 215.595642,17.6594834 C214.665547,18.217077 214.293509,19.1463998 214.293509,20.2615872 C214.293509,21.1909099 214.665547,21.9343682 215.223604,22.3060972 C215.967678,22.8636909 216.711753,23.0495555 217.641846,23.0495555 Z" id="Shape" fill-rule="nonzero"></path><path d="M238.661956,7.43693283 C239.406032,7.43693283 240.150105,7.43693283 240.708162,7.62279738 L240.336124,10.0390366 C239.592049,9.85317205 239.033994,9.85317205 238.475937,9.85317205 C237.173807,9.85317205 235.871677,10.4107657 234.941583,11.525953 C234.01149,12.6411404 233.453433,14.1280568 233.453433,15.8008378 L233.453433,24.908201 L230.849173,24.908201 L230.849173,7.80866194 L232.895377,7.80866194 L233.267414,10.9683594 L233.453433,10.9683594 C234.01149,9.85317205 234.941583,8.92384927 235.685658,8.3662556 C236.615751,7.80866194 237.545845,7.43693283 238.661956,7.43693283 Z" id="Shape"></path><path d="M255.589656,22.6778263 C254.287525,24.3506073 252.427338,25.2799302 250.009095,25.2799302 C247.776872,25.2799302 246.102704,24.5364719 244.800572,23.0495555 C243.498442,21.5626391 242.940385,19.3322644 242.940385,16.544296 C242.940385,13.7563277 243.498442,11.525953 244.800572,10.0390366 C246.102704,8.55212016 247.776872,7.62279738 250.009095,7.62279738 C252.241319,7.62279738 254.101506,8.55212016 255.403637,10.2249012 L255.589656,10.2249012 L255.403637,8.92384927 L255.403637,7.80866194 L255.403637,0.559944257 L258.007899,0.559944257 L258.007899,24.908201 L255.961693,24.908201 L255.589656,22.6778263 Z M250.381133,23.0495555 C252.241319,23.0495555 253.357431,22.4919617 254.287525,21.5626391 C255.031599,20.6333162 255.403637,18.9605353 255.403637,16.9160251 L255.403637,16.3584315 C255.403637,13.9421923 255.031599,12.2694113 254.101506,11.1542239 C253.357431,10.0390366 252.055301,9.66730749 250.195114,9.66730749 C248.706965,9.66730749 247.590853,10.2249012 246.660759,11.525953 C245.916685,12.6411404 245.358628,14.3139214 245.358628,16.544296 C245.358628,18.7746707 245.730666,20.4474516 246.47474,21.5626391 C247.590853,22.4919617 248.706965,23.0495555 250.381133,23.0495555 Z" id="Shape" fill-rule="nonzero"></path><path d="M274.563561,20.2615872 C274.563561,21.9343682 274.005504,23.0495555 272.703374,23.9788784 C271.587262,24.908201 269.913094,25.2799302 267.68087,25.2799302 C265.448645,25.2799302 263.588458,24.908201 262.286328,24.1647427 L262.286328,21.7485037 C263.030403,22.1202328 263.960496,22.4919617 264.89059,22.6778263 C265.820683,22.8636909 266.750775,23.0495555 267.68087,23.0495555 C268.983,23.0495555 270.099111,22.8636909 270.843187,22.4919617 C271.587262,22.1202328 271.959298,21.3767745 271.959298,20.4474516 C271.959298,19.7039935 271.587262,19.1463998 271.029206,18.7746707 C270.471149,18.217077 269.355038,17.6594834 267.68087,17.1018897 C266.006701,16.544296 264.89059,15.9867024 264.332533,15.6149733 C263.588458,15.2432442 263.216422,14.6856505 262.844384,14.1280568 C262.472347,13.5704632 262.286328,12.8270049 262.286328,12.0835467 C262.286328,10.7824948 262.844384,9.66730749 263.960496,8.73798471 C265.076607,7.80866194 266.564758,7.43693283 268.610962,7.43693283 C270.471149,7.43693283 272.331336,7.80866194 274.005504,8.55212016 L273.075411,10.5966303 C271.401243,9.85317205 269.727075,9.48144293 268.424943,9.48144293 C267.122813,9.48144293 266.19272,9.66730749 265.634664,10.0390366 C265.076607,10.4107657 264.704571,10.9683594 264.704571,11.7118176 C264.704571,12.0835467 264.89059,12.6411404 265.076607,12.8270049 C265.262626,13.198734 265.634664,13.3845986 266.19272,13.7563277 C266.750775,14.1280568 267.68087,14.4997859 269.169019,15.0573796 C271.215224,15.8008378 272.517355,16.544296 273.26143,17.2877543 C274.191523,18.217077 274.563561,19.1463998 274.563561,20.2615872 Z" id="Shape"></path></g></g></g></g></svg> 