<?xml version="1.0" encoding="UTF-8"?> <svg xmlns="http://www.w3.org/2000/svg" xmlns:xlink="http://www.w3.org/1999/xlink" width="496px" height="349px" viewBox="0 0 496 349"><!-- Generator: Sketch 52.5 (67469) - http://www.bohemiancoding.com/sketch --><title>Led by Proven Managers</title><desc>Created with Sketch.</desc><defs><linearGradient x1="8.4978621%" y1="-15.6887091%" x2="91.1505305%" y2="100%" id="linearGradient-1"><stop stop-color="#7ECC79" offset="0%"></stop><stop stop-color="#1FAD9D" offset="100%"></stop></linearGradient><linearGradient x1="16.8351746%" y1="95.9331001%" x2="36.951965%" y2="63.6143572%" id="linearGradient-2"><stop stop-color="#30B397" offset="0%"></stop><stop stop-color="#119282" offset="100%"></stop></linearGradient><linearGradient x1="57.6964029%" y1="-28.1753217%" x2="43.4081976%" y2="90.7128411%" id="linearGradient-3"><stop stop-color="#52A24C" offset="0%"></stop><stop stop-color="#249F91" offset="100%"></stop></linearGradient><linearGradient x1="57.6964029%" y1="-28.1753217%" x2="43.3336469%" y2="91.3331566%" id="linearGradient-4"><stop stop-color="#5AB155" offset="0%"></stop><stop stop-color="#14AD9B" offset="100%"></stop></linearGradient><linearGradient x1="57.6964029%" y1="-28.1753217%" x2="43.1413235%" y2="92.9334256%" id="linearGradient-5"><stop stop-color="#7ECC79" offset="0%"></stop><stop stop-color="#33BAAA" offset="100%"></stop></linearGradient><linearGradient x1="57.6964029%" y1="-28.1753217%" x2="43.6920997%" y2="88.3505712%" id="linearGradient-6"><stop stop-color="#77BD72" offset="0%"></stop><stop stop-color="#2CA495" offset="100%"></stop></linearGradient><linearGradient x1="57.6964029%" y1="-28.1753217%" x2="43.4125488%" y2="90.6766359%" id="linearGradient-7"><stop stop-color="#BAFFB5" offset="0%"></stop><stop stop-color="#3CD8C5" offset="100%"></stop></linearGradient><linearGradient x1="2.49246235%" y1="89.8679795%" x2="95.7107814%" y2="27.1625827%" id="linearGradient-8"><stop stop-color="#16C89A" stop-opacity="0.64305933" offset="0%"></stop><stop stop-color="#4EFFB9" stop-opacity="0.291440217" offset="100%"></stop></linearGradient><linearGradient x1="18.3452995%" y1="0%" x2="50%" y2="100%" id="linearGradient-9"><stop stop-color="#5CC2B9" offset="0%"></stop><stop stop-color="#2F8F83" stop-opacity="0.0606317935" offset="100%"></stop></linearGradient></defs><g id="Pages" stroke="none" stroke-width="1" fill="none" fill-rule="evenodd"><g id="Home---Approach-v3-" transform="translate(-889.000000, -2334.000000)"><g id="Section-1" transform="translate(221.000000, 2335.000000)"><g id="Led-by-Proven-Managers" transform="translate(16.000000, 0.000000)"><g transform="translate(653.000000, 0.000000)"><g id="Group-51" transform="translate(86.655153, 37.219547)"><path d="M254.245078,132.387952 C253.094952,144.854195 251.518775,152.911753 249.516546,156.560626 C246.965926,161.208892 241.996593,176.452607 237.8456,181.980844 C236.733065,184.825967 236.113813,186.343054 235.987843,186.532103 L252.29371,186.532103 C250.462325,183.969594 247.799615,182.452507 244.305579,181.980844 C245.957133,179.206024 255.305771,162.403616 256.554783,158.662204 C257.803795,154.920791 265.146876,137.781959 264.689683,134.183817 C261.404802,132.482086 257.923267,131.883464 254.245078,132.387952 Z" id="Path-312" fill="#FFD7B3"></path><path d="M237.8456,181.980844 C236.733065,184.825967 236.113813,186.343054 235.987843,186.532103 L252.29371,186.532103 C250.462325,183.969594 247.799615,182.452507 244.305579,181.980844 L237.8456,181.980844 Z" id="Path-312-Copy" fill="#0B4651"></path><g id="Group-43" transform="translate(0.000000, 186.420858)"><polygon id="Path-321" fill="#D6F1EE" opacity="0.699999988" points="0.128565908 109.059322 0.128565908 77.8995614 64.0220283 77.8995614 64.0220283 93.6366961 80.5180907 93.6366961 80.5180907 49.2399146 168.78135 49.2399146 168.78135 93.070637 226.049794 93.070637 226.049794 109.752111"></polygon><ellipse id="Oval-21" stroke="#0B4651" stroke-width="0.7716375" stroke-linecap="round" stroke-linejoin="round" cx="158.870428" cy="121.49761" rx="7.72093023" ry="2.3171905"></ellipse><ellipse id="Oval-21-Copy" stroke="#0B4651" stroke-width="0.7716375" stroke-linecap="round" stroke-linejoin="round" cx="177.400661" cy="115.704634" rx="3.86046512" ry="1.15859525"></ellipse><polygon id="Path-274" fill="#7ECC79" points="211.215993 110.383321 211.215993 0.0906320295 310.911854 0.0906320295 310.911854 24.557623 335.978236 24.557623 335.978236 53.2673053 360.433941 53.2673053 360.433941 82.095743 383.922314 82.095743 383.922314 110.383321"></polygon><polygon id="Path-274-Copy" fill="#0B4651" points="201.449248 110.383321 201.449248 0.0906320295 282.924291 0.0906320295 282.924291 110.383321"></polygon><path d="M304.60056,0.0906320295 L301.488604,22.3161103 C299.735909,34.8337884 289.02817,44.1467093 276.388384,44.1467093 L201.449248,44.1467093 L201.449248,0.0906320295 L304.60056,0.0906320295 Z" id="Combined-Shape" fill="#0B4651" opacity="0.200000003"></path></g><path d="" id="Path-296" stroke="#979797" stroke-width="0.5"></path><g id="Group-49" transform="translate(281.244619, -0.000000)"><path d="M0.0791694397,50.6539436 L14.2028249,46.3575189 C17.8117296,35.1675738 20.6298894,28.5730271 22.6573041,26.5738788 C24.4567231,24.7995477 27.6537366,23.6192882 32.2483448,23.0331005 L25.812711,31.0156872 L18.8768433,51.7399051 L0.0791694397,59.0902449 L0.0791694397,50.6539436 Z" id="Path-308" fill="#FFD7B3"></path><path d="M66.0075521,202.097647 L72.5922621,235.202756 C68.2505871,235.797166 65.2793787,236.519624 63.6786371,237.370128 C62.0778955,238.220633 61.0634806,239.110187 60.6353925,240.03879 L77.8608218,240.03879 L75.7142468,210.684458 L66.0075521,202.097647 Z" id="Path-301" fill="#FFD7B3"></path><path d="M72.5922621,235.202756 C68.2505871,235.797166 65.2793787,236.519624 63.6786371,237.370128 C62.0778955,238.220633 61.0634806,239.110187 60.6353925,240.03879 L77.8608218,240.03879 L77.408386,235.202756 L72.5922621,235.202756 Z" id="Path-301-Copy" fill="#0B4651"></path><path d="M88.2318855,217.014093 L102.254399,256.552758 C101.923678,260.580197 101.286062,263.378006 100.341549,264.946185 C97.7669144,266.09688 96.1096339,267.322524 95.3697071,268.623116 L103.751719,268.623116 L108.227784,257.305443 L100.341549,217.014093 L88.2318855,217.014093 Z" id="Path-302" fill="#FFD7B3"></path><path d="M102.254399,256.552758 C102.089479,260.224694 101.534763,262.844751 100.59025,264.41293 C98.0156156,265.563625 96.2754348,266.96702 95.3697071,268.623116 L103.751719,268.623116 L109.337868,256.552758 L107.248227,251.891075 C106.46409,253.666432 105.771124,254.820475 105.169329,255.353206 C104.567533,255.885937 103.59589,256.285787 102.254399,256.552758 Z" id="Path-302-Copy" fill="#0B4651"></path><path d="M88.4531547,166.018494 C77.9799297,170.192976 70.1872939,176.936405 65.0752474,186.24878 C63.0462157,189.944972 63.4805483,197.20244 66.3782454,208.021186 C73.4905043,211.385611 79.0734788,213.955999 83.1271688,215.732349 C87.1808587,217.508698 93.0515439,218.198118 100.739224,217.800607 C100.739224,209.34811 100.739224,201.898603 100.739224,195.452085 C100.739224,185.782308 104.619933,185.907058 104.619933,169.451204 L88.4531547,166.018494 Z" id="Path-300" fill="#0B4651"></path><polygon id="Path-297" fill="#7ECC79" points="110.066843 114.865537 115.246123 77.9416352 111.565457 81.0628442 100.866432 113.363401"></polygon><rect id="Rectangle-53" fill="url(#linearGradient-1)" transform="translate(67.469587, 56.621926) rotate(31.000000) translate(-67.469587, -56.621926) " x="16.8504969" y="21.4572889" width="101.238179" height="70.329275" rx="4.92820796"></rect><path d="M47.7523918,3.75040004 L37.1556794,79.4317338 L10.1937297,63.23136 C7.86071392,61.8295427 7.10582841,58.8018623 8.5076457,56.4688466 L39.6534706,4.63348923 C41.0552879,2.30047347 44.0829683,1.54558796 46.4159841,2.94740525 L47.7523918,3.75040004 Z" id="Combined-Shape" fill="#0B4651" opacity="0.100000001"></path><polygon id="Rectangle-54" fill="#FFFFFF" transform="translate(66.811490, 55.558234) rotate(-150.000000) translate(-66.811490, -55.558234) " points="58.9336152 45.954459 74.6893656 55.5582342 58.9336152 65.1620093"></polygon><path d="M54.3506156,90.153813 L83.2463382,101.82151 C85.4071327,102.694009 87.8837107,101.93379 89.1828373,99.9992207 C89.9078187,98.9196287 90.2703094,98.0295505 90.2703094,97.328986 C90.2703094,95.3863792 91.2248772,89.6442532 97.8597892,90.153813 C100.119558,90.3273628 107.476418,85.1331591 111.275382,80.6010837 C112.28885,79.392041 110.721934,76.1512676 111.835051,75.1832863 C111.951919,75.0816562 112.341462,77.7344231 113.274437,76.9050616 C115.014931,75.3578621 117.227671,70.0468621 117.597923,71.1991445 C117.731307,71.6142573 116.290145,74.1886696 113.274437,78.9223814 L98.3790168,103.157111 L90.9164084,111.855991 L54.3506156,90.153813 Z" id="Path-299" fill="#0B4651" opacity="0.200000003"></path><path d="M69.558801,100.416916 L67.5290757,95.5064935 L67.24597,94.569673 C67.0246865,93.8374274 66.3499832,93.3364832 65.5850323,93.3364832 L65.9009469,96.4879349 L60.9370944,93.6904493 C60.3421266,95.123581 60.7062584,96.4283612 62.0294898,97.6047901 C63.3527213,98.781219 64.8148384,100.321568 66.4158412,102.225837 L69.558801,100.416916 Z" id="Path-295" fill="#FFD7B3"></path><path d="M89.0021715,100.147696 C85.6075829,106.41257 85.1735575,111.73383 87.7000954,116.111477 C89.5166451,119.258952 94.5751296,120.150026 97.8621468,121.84739 C99.8618599,122.88001 100.797897,125.423845 101.128727,125.450607 C101.885533,125.511829 107.459724,125.717679 107.70192,121.654224 C107.752204,120.810584 104.451401,117.458929 97.7995102,111.599261 L89.0021715,100.147696 Z" id="Path-173" fill="#0B4651" transform="translate(96.892738, 112.810379) rotate(30.000000) translate(-96.892738, -112.810379) "></path><polygon id="Path-292" fill="#FFD7B3" transform="translate(98.293269, 121.742057) rotate(-28.000000) translate(-98.293269, -121.742057) " points="96.8563747 114.441508 94.5868348 124.18281 101.999702 129.977784 100.763459 113.506329"></polygon><path d="M99.4447474,123.356531 L83.0565548,123.791542 C82.0985362,123.816972 81.2126767,123.284633 80.7854542,122.426771 L69.7958092,100.359582 C69.3015198,99.3670497 68.0962127,98.963144 67.1036804,99.4574334 C67.1014597,99.4585393 67.0992409,99.4596494 67.0970243,99.4607636 L67.0970243,99.4607636 C66.0549558,99.9845526 65.5377522,101.179586 65.8691667,102.297811 L72.8759606,125.939409 C74.1747486,130.321645 77.7327178,133.664945 82.1872031,134.688861 L89.7715607,136.432214 C88.3877323,141.044205 87.7165205,144.323882 87.7579253,146.271247 C87.8445077,150.343413 88.2184512,150.486391 88.4840242,153.097295 C88.9448703,157.627969 88.3873369,162.227602 86.8114241,166.896194 C96.1926817,169.97206 101.949971,170.971485 104.083291,169.894469 C106.216611,168.817453 108.05579,157.544387 109.600828,136.07527 L106.664658,123.356531 L99.4447474,123.356531 Z" id="Path-291" fill="#7ECC79"></path><path d="M87.8006401,145.027513 C91.6296007,142.146151 93.9777775,140.327466 94.8451703,139.571456 C96.0069322,138.558878 96.393952,138.390778 95.8425281,138.253816 C94.6735495,137.963465 92.6861892,137.308374 89.8804471,136.288543 C89.2306737,138.385903 88.7731281,139.979866 88.5078103,141.070433 C88.2424925,142.161001 88.0067691,143.480027 87.8006401,145.027513 Z" id="Path-294" fill="#0B4651" opacity="0.200000003"></path><g id="Group-24" transform="translate(97.497181, 111.389224) rotate(22.000000) translate(-97.497181, -111.389224) translate(88.884905, 102.949711)"><path d="M0.966407422,1.66879025 C0.994911075,11.7053318 3.10435325,16.7236026 7.29473395,16.7236026 C13.580305,16.7236026 16.9212411,10.4010933 16.9870724,4.89777089 C17.0309599,1.2288893 11.6907382,0.152562421 0.966407422,1.66879025 Z" id="Path-171" fill="#0B4651" opacity="0.200000003"></path><path d="M0.288396574,0.976753402 C-0.348990719,10.8997439 1.42750598,15.8612391 5.61788668,15.8612391 C11.9034577,15.8612391 14.430142,9.5847183 14.4959732,4.08139592 C14.5398607,0.41251433 9.80400182,-0.622366508 0.288396574,0.976753402 Z" id="Path-171-Copy" fill="#FFD7B3"></path></g><path d="M87.629728,107.72184 C90.2250905,109.797988 92.8720112,110.235128 95.57049,109.033261 C97.9448655,110.147471 95.5855984,115.274454 96.3294722,118.675755 C97.1877286,122.600061 102.324468,123.202682 103.118258,124.340015 C112.599463,119.980186 118.195241,134.318421 119.355527,136.597467 C120.452108,137.170912 127.715946,125.664207 112.997699,115.990916 C111.22915,114.82857 114.553635,111.03216 112.380571,107.088091 C110.021894,102.807137 106.900739,104.493364 104.862071,101.465344 C102.011086,97.2307943 97.988272,92.845064 90.7118208,96.0806844 C84.5397342,98.8252268 83.51237,102.705612 87.629728,107.72184 Z" id="Path-172" fill="#0B4651" transform="translate(103.635162, 115.789275) rotate(24.000000) translate(-103.635162, -115.789275) "></path><path d="M89.8514462,136.318056 C94.9439197,137.76873 98.0952002,138.679961 99.3052878,139.051751 C100.515375,139.42354 97.3640948,138.512308 89.8514462,136.318056 Z" id="Path-293" stroke="#0B4651" stroke-width="0.704029709" stroke-linecap="round" stroke-linejoin="round"></path><path d="M111.911106,81.2634078 C112.330914,80.4662471 112.519152,79.8799885 112.475818,79.5046321 C112.142997,76.6217125 111.416733,75.0418721 111.911106,74.944509 C112.50203,74.8281309 113.177494,75.6748074 113.937498,77.4845384 L117.887751,71.0808472 C117.904005,72.9170805 117.780343,74.2049678 117.516765,74.944509 C116.753021,77.0874002 114.860254,80.8131429 114.428551,81.2634078 C113.773369,81.9467616 112.934221,81.9467616 111.911106,81.2634078 Z" id="Path-298" fill="#FFD7B3"></path></g><g id="Group-50" transform="translate(252.771381, 18.685537)"><path d="M17.5792289,105.897414 C21.7961925,117.441021 24.5145697,126.647189 25.7343603,133.515921 C24.4704376,139.765196 27.8530102,159.462816 26.5752814,167.280003 C26.5132977,167.659221 28.2467929,167.659221 31.775767,167.280003 C39.4022424,167.572708 43.2154801,167.572708 43.2154801,167.280003 C43.2154801,162.519044 31.9484864,163.303368 31.9823898,162.519044 C32.7815365,144.031539 33.1811098,133.859911 33.1811098,132.00416 C33.1811098,129.641032 31.7189529,120.938783 28.7946392,105.897414 L17.5792289,105.897414 Z" id="Path-311" fill="#FFD7B3"></path><path d="M26.8677842,162.952755 C26.857019,164.612467 26.7705993,166.085041 26.5752814,167.280003 C26.4823058,167.84883 43.2154801,167.71906 43.2154801,167.280003 C43.2154801,162.519044 31.9484864,163.303368 31.9823898,162.519044 L26.8677842,162.952755 Z" id="Path-311-Copy" fill="#0B4651"></path><path d="M2.40340396,95.4662939 C2.35871232,96.5374555 2.29700987,97.5177228 2.21829663,98.4070957 C1.85407072,102.522447 1.17345128,108.879057 0.176438331,117.476926 C0.792580203,118.76667 2.10168437,119.804903 4.10375082,120.591627 C6.10581728,121.37835 8.46423052,121.569943 11.1789905,121.166406 L15.3042954,110.927095 C6.81177295,98.0296464 2.51147581,92.8760461 2.40340396,95.4662939 Z" id="Path-310" fill="url(#linearGradient-2)"></path><path d="M4.26332023,83.9248532 C2.04380528,88.6455209 1.25366469,92.55941 1.89289844,95.6665205 C2.53213219,98.7736309 7.10170121,104.695177 15.6016055,113.431157 L19.3568138,121.166406 C22.4110525,120.748108 24.5208212,120.402068 25.6861201,120.128285 C26.851419,119.854502 28.730706,118.789818 31.323981,116.934233 L25.1245376,83.2757341 L4.26332023,83.9248532 Z" id="Path-310-Copy" fill="url(#linearGradient-1)"></path><polygon id="Path-307" fill="#0B4651" points="17.241553 32.1648224 30.2111385 30.9614674 32.4969819 38.9790916 24.8692675 41.153164"></polygon><path d="M36.8329092,7.55608324 C36.0179934,18.1311028 34.5201323,24.3346524 32.3393258,26.1667319 C30.1585193,27.9988115 26.4953261,28.489025 21.3497461,27.6373725 L22.6064864,34.5072873 L17.4183063,37.0076693 L12.5894142,30.440715 L21.3497461,5.4108168 L36.8329092,7.55608324 Z" id="Path-304" fill="#FFD7B3"></path><path d="M16.1511451,22.5317627 C20.8487046,22.5317627 23.7189095,21.2043481 24.7617601,18.549519 C26.3260359,14.5672753 25.0846794,13.0055247 26.4976896,11.5907354 C27.9106997,10.175946 28.1286087,16.1589358 30.5272943,16.2124026 C33.463064,16.2778411 34.6932719,14.304728 37.1666001,11.828546 C38.8154857,10.177758 39.6908284,7.4993477 39.7926283,3.79331512 C30.9025393,3.55873234 24.4017499,2.29429397 20.2902601,0 C14.2223294,1.29046026 11.5573041,5.20766765 11.1217711,9.89071523 C10.6430309,15.0383457 12.3194889,19.2520282 16.1511451,22.5317627 Z" id="Path-303" fill="#0B4651"></path><path d="M32.7056269,51.7575447 L47.6859586,60.4763453 C58.5876944,61.6633957 65.6430232,62.8837579 68.8519449,64.1374318 C72.0608665,65.3911057 75.2989832,65.8466834 78.566295,65.504165 L72.8363863,62.1065074 L76.6093267,59.4195699 L76.6093267,59.4195699 C75.4290412,59.012194 74.142369,59.0376915 72.9791493,59.4915076 L70.4548172,60.4763453 L49.9202917,54.2173298 L37.0749871,44.832482 L32.7056269,51.7575447 Z" id="Path-306" fill="#FFD7B3"></path><path d="M11.6657356,29.7594924 C19.2117461,30.6018957 24.9040381,32.5459782 28.7426118,35.5917399 C32.5811854,38.6375015 36.5212303,42.1350385 40.5627463,46.0843508 L34.0349726,54.3178205 L23.5044022,50.3725982 C25.383891,69.6168396 26.3236355,82.2276217 26.3236355,88.2049444 C21.5515829,91.3052353 13.4450111,90.8148628 2.00392014,86.733827 C1.89282932,66.0482298 2.55416153,51.9229594 3.98791678,44.3580158 C5.42167203,36.7930723 7.98094496,31.9268978 11.6657356,29.7594924 Z" id="Path-305" fill="#0B4651"></path><path d="M52.3560866,9.78717119 L57.650329,7.96379638 L57.650329,7.96379638 C57.2250028,9.14145801 56.3634514,10.1106814 55.2437649,10.6711199 C52.1084434,12.2404413 50.7395057,12.8214032 51.1369495,12.4140009 C51.6018125,11.9374901 52.0081915,11.0618802 52.3560866,9.78717119 Z" id="Path-309" fill="#FFD7B3"></path></g></g><g id="Group-47" transform="translate(26.220378, 89.743936)"><path d="M14.7133539,213.231788 C13.5183033,217.956122 13.5183033,220.438797 14.7133539,220.679811 C15.9084046,220.920825 21.8491695,221.041332 32.5356486,221.041332 C35.249664,219.418126 36.228675,218.291116 35.4726815,217.660302 C34.7166881,217.029489 30.6179133,215.553318 23.1763573,213.231788 L14.7133539,213.231788 Z" id="Path-290-Copy" fill="url(#linearGradient-3)"></path><path d="M10.2324326,76.6552483 C6.03687239,78.6789849 3.08345736,81.4406074 1.37218748,84.9401155 C-0.277184235,88.3130434 1.26936969,100.788719 3.93574882,107.156778 C4.924819,109.518954 7.29456346,109.518954 11.0449822,107.156778 L8.26489667,75.2628889" id="Path-286" fill="url(#linearGradient-4)"></path><polygon id="Path-285" fill="#0B4651" points="7.87113142 130.742983 6.23912749 213.416949 24.4444041 214.236576 38.3141767 130.742983"></polygon><rect id="Rectangle-49" fill="#0B4651" transform="translate(87.364157, 31.797723) rotate(-2.000000) translate(-87.364157, -31.797723) " x="46.0568866" y="1.43881098" width="82.6145403" height="60.7178234" rx="4.3201823"></rect><g id="Group-46" transform="translate(0.000000, 35.394750)"><path d="M29.0563073,47.9929796 L25.4535616,35.191162 L26.9561997,33.1770702 C29.6708432,29.5384422 29.7490554,24.5699558 27.1502846,20.8476859 L21.1851646,12.3037284 L13.7948755,15.0511584 C9.68755335,21.6211774 7.79656603,25.0871083 8.12191359,25.4489511 C8.44726114,25.8107939 11.8211515,29.4212342 18.2435847,36.280272 L18.2435847,47.9929796 L29.0563073,47.9929796 Z" id="Path-276" fill="#FFD7B3"></path><path d="M12.5985462,24.6660233 C13.8642334,20.352358 15.0113391,16.8723135 16.0398633,14.2258899 C17.2698256,14.0222276 19.2494053,13.6007933 20.1974589,13.2574116 C22.0189527,12.5976729 23.9531826,11.9783823 26.0001486,11.39954 C27.6890471,9.62660046 28.0293621,8.06036789 27.0210936,6.70084227 C26.012825,5.34131665 25.0826509,5.34131665 24.2305712,6.70084227 C23.6469373,1.37650749 19.7695957,-0.685232509 12.5985462,0.515622274 C1.84197191,2.31690445 5.56287535,15.6979174 4.56016448,15.8976569 C3.55745361,16.0973963 -0.878397351,22.1032403 0.295876074,26.9185284 C1.36887368,31.3185194 8.28981767,36.2577495 14.8646769,34.8588954 C19.5980077,33.909611 21.1320526,31.7872032 19.4668115,28.4916721 L12.5985462,24.6660233 Z" id="Path-278" fill="#0B4651"></path><path d="M9.94411755,23.162016 C6.48215349,21.001325 4.75117146,18.2426868 4.75117146,14.8861015 C3.38178241,15.8754084 3.04965827,17.5415767 3.75479905,19.8846062 C4.93331867,22.6747023 6.65185493,24.4727037 8.91040782,25.2786103 C8.91040782,24.5776974 9.25497773,23.872166 9.94411755,23.162016 Z" id="Path-279" fill="url(#linearGradient-5)"></path><path d="M3.8528391,15.8492237 C4.09570205,19.2490698 6.06913338,22.1199954 9.7731331,24.4620003" id="Path-280" stroke="#FFFFFF" stroke-width="0.5" stroke-linecap="round" stroke-linejoin="round"></path><g id="Group-45" transform="translate(5.887512, 22.451517)"><ellipse id="Oval-19-Copy-2" fill="url(#linearGradient-6)" cx="4.49591819" cy="3.76540737" rx="3.59673455" ry="3.76540737"></ellipse><ellipse id="Oval-19" fill="url(#linearGradient-7)" cx="3.59673455" cy="3.76540737" rx="3.59673455" ry="3.76540737"></ellipse><ellipse id="Oval-19-Copy" fill="#FFFFFF" cx="3.14714273" cy="3.76540737" rx="1.34877546" ry="1.35554665"></ellipse></g></g><path d="M42.026909,22.0498991 C42.6641888,16.8860633 43.6833817,13.5381568 45.0844876,12.0061796 C45.3960826,11.6654799 45.1949601,13.725895 45.4496448,13.4977132 C46.4652912,12.5877561 47.7008461,10.6793646 48.2238602,10.6462656 C49.9859031,10.5347547 51.7049345,18.1350601 49.4806727,20.2036873 C48.9038431,20.7401554 47.0839977,21.724409 46.4690854,22.0498991 C45.8252006,22.3907251 45.0573967,23.0726999 44.1656737,24.0958235 L42.026909,22.0498991 Z" id="Path-283" fill="#FFD7B3"></path><path d="M89.7102901,64.6785033 L95.4125707,61.0578605 L98.2716123,57.209978 C101.907004,56.1454762 104.134552,56.1454762 104.954257,57.209978 C105.773963,58.2744799 104.903,60.4127999 102.34137,63.6249382 L89.7102901,68.0512485 L89.7102901,64.6785033 Z" id="Path-284" fill="#FFD7B3"></path><path d="M3.15051544,125.590242 C2.33256086,95.7766114 5.35375936,74.9924342 12.2141109,63.2377102 C15.1490358,58.2089253 17.3998175,52.0627882 20.7981037,46.7006315 C23.6489464,42.202286 29.852423,34.2916813 39.4085336,22.9688174 L39.4085435,22.9688257 C40.4830756,21.695632 42.2972797,21.3386885 43.7740502,22.1099151 L43.7740502,22.1099151 C44.9988248,22.7495397 45.4731826,24.2609339 44.8335579,25.4857086 C44.7845256,25.5795973 44.7295803,25.6702776 44.6690537,25.7572017 C36.0569318,38.1253046 30.7434461,46.4943432 28.7285767,50.8643036 C22.5310167,64.3059149 24.3837958,75.9278955 26.7751911,77.9985004 C28.6102286,79.5873794 38.8501328,80.2132475 57.2086951,75.8872128 C63.6256387,74.3751162 74.0096592,70.2305756 88.3607568,63.4535911 L88.3607646,63.4536074 C89.774875,62.7858254 91.4625823,63.3908442 92.1303643,64.8049546 C92.1559605,64.8591576 92.179829,64.9141597 92.2019339,64.9698778 L92.2019339,64.9698778 C92.841362,66.5816352 92.1890065,68.4177964 90.6760115,69.2648362 C75.973964,77.4956431 65.7806615,82.8283744 60.0960903,85.263005 C46.6509058,91.021409 34.1853769,92.5131816 34.1853769,94.358509 C34.1853769,98.9852174 33.4067658,118.252456 36.9703233,119.992629 C40.5338808,121.732802 42.3693878,130.765198 40.5338808,132.150263 C39.6532517,132.814782 34.9248468,134.623497 26.7751911,134.992004 C17.9384116,135.391581 5.57791871,134.24788 3.15051544,132.150263 C0.0398098768,129.462177 0.0398098768,127.275504 3.15051544,125.590242 Z" id="Path-275" fill="url(#linearGradient-5)"></path><path d="M31.528205,171.59334 C22.5050645,167.713297 16.1867192,158.743975 16.1867192,148.298925 C16.1867192,147.123174 16.2685333,145.948848 16.4315687,144.784455 L25.944672,76.8422182 C26.2047863,77.3581645 26.4860517,77.7481473 26.7751911,77.9985004 C28.6102286,79.5873794 38.8501328,80.2132475 57.2086951,75.8872128 C63.6257912,74.3750802 74.0101531,70.2303785 88.3617806,63.4531076 C89.775937,62.7852978 91.4633987,63.390979 92.1308308,64.8059323 C92.1562491,64.859819 92.1799619,64.9144947 92.2019339,64.9698778 C92.8412875,66.5814476 92.1892415,68.4176368 90.6769556,69.2642812 C75.9744056,77.4954121 65.7807847,82.8283216 60.0960903,85.263005 C46.6509058,91.021409 34.1853769,92.5131816 34.1853769,94.358509 C34.1853769,98.9852174 33.4067658,118.252456 36.9703233,119.992629 C40.5338808,121.732802 42.3693878,130.765198 40.5338808,132.150263 C40.2000086,132.402202 39.313061,132.818606 37.8962817,133.258637 L31.528205,171.59334 Z M32.2889459,31.5316455 C34.4087759,28.9352637 36.7818382,26.081146 39.4081329,22.9692922 C40.4830132,21.695672 42.2970991,21.3385941 43.7740502,22.1099151 C44.9981968,22.7492118 45.4726028,24.2603895 44.8336658,25.485225 C44.7844955,25.5794839 44.7293693,25.6705105 44.6686227,25.7577508 C37.3963065,36.2018004 32.476161,43.7941779 29.908194,48.5348886 L32.2889459,31.5316455 Z" id="Combined-Shape" fill="#0B4651" opacity="0.200000003"></path><path d="M34.4654864,85.0942773 L34.4654864,95.3408306" id="Path-282" stroke="#0B4651" stroke-width="0.576024307" stroke-linecap="round" stroke-linejoin="round"></path><path d="" id="Path-277" stroke="#979797" stroke-width="0.5"></path><path d="M23.8647748,83.8313206 C23.4650079,70.8020028 24.1714531,62.1153151 25.9841106,57.7712576" id="Path-281" stroke="#0B4651" stroke-width="0.576024307" stroke-linecap="round" stroke-linejoin="round"></path><path d="M17.7712871,122.934019 C27.8308241,124.08956 34.4974996,123.833786 37.7713134,122.166698" id="Path-287" stroke="#0B4651" stroke-width="0.576024307" stroke-linecap="round" stroke-linejoin="round"></path><path d="M28.1687662,79.098095 C29.1393896,88.5933953 29.1393896,95.0405252 28.1687662,98.4394847 C26.7128311,103.537924 28.4639855,112.303813 29.6247013,114.270344 C30.3985118,115.581364 30.7854171,118.708474 30.7854171,123.651674" id="Path-288" stroke="#0B4651" stroke-width="0.576024307" stroke-linecap="round" stroke-linejoin="round"></path><path d="M28.9313685,145.676177 C28.5060896,146.289786 26.9035192,147.209591 24.1236573,148.435592 L15.6248289,214.664528" id="Path-289" stroke="#FFFFFF" stroke-width="0.864036461"></path><path d="M6.36554325,213.231788 C5.17049262,217.956122 5.17049262,220.438797 6.36554325,220.679811 C7.56059388,220.920825 13.5013588,221.041332 24.1878379,221.041332 C26.9018533,219.418126 27.8808643,218.291116 27.1248709,217.660302 C26.3688774,217.029489 22.2701027,215.553318 14.8285466,213.231788 L6.36554325,213.231788 Z" id="Path-290" fill="url(#linearGradient-5)"></path></g><g id="Group-48" transform="translate(13.749711, 310.713283)"><rect id="Rectangle-50" fill="#7ECC79" x="0" y="0" width="63.312621" height="23.3440844"></rect><rect id="Rectangle-50-Copy" fill="#0B4651" x="46.3653032" y="0" width="16.9473177" height="23.3440844"></rect></g><g id="Group-44" transform="translate(33.801699, 0.000000)"><path d="M68.1246864,12.356697 L349.426525,12.356697 C363.42422,12.356697 374.771594,23.7040711 374.771594,37.7017665 C374.771594,38.8775178 374.68978,40.0518442 374.526745,41.216237 L347.147441,236.758221 C345.394747,249.275899 334.687008,258.58882 322.047221,258.58882 L40.7453832,258.58882 C26.7476879,258.58882 15.4003137,247.241446 15.4003137,233.243751 C15.4003137,232.067999 15.4821278,230.893673 15.6451632,229.72928 L43.0244663,34.187296 C44.7771606,21.6696179 55.4848999,12.356697 68.1246864,12.356697 Z" id="Rectangle-47" fill="url(#linearGradient-8)"></path><path d="M56.5203643,0 L337.822203,1.0658141e-14 C351.819898,8.08680611e-15 363.167272,11.3473741 363.167272,25.3450695 C363.167272,26.5208208 363.085458,27.6951472 362.922423,28.85954 L335.543119,224.401524 C333.790425,236.919202 323.082686,246.232123 310.442899,246.232123 L29.1410612,246.232123 C15.1433658,246.232123 3.79599166,234.884749 3.79599166,220.887054 C3.79599166,219.711302 3.87780575,218.536976 4.04084114,217.372583 L31.4201443,21.830599 C33.1728385,9.31292094 43.8805779,2.00854595e-14 56.5203643,1.77635684e-14 Z" id="Rectangle-47-Copy-6" stroke="url(#linearGradient-9)" stroke-width="1.6245"></path><path d="M373.186128,50.7908706 L40.6996751,50.7908706 L43.0244663,34.187296 C44.7771606,21.6696179 55.4848999,12.356697 68.1246864,12.356697 L349.426525,12.356697 C363.42422,12.356697 374.771594,23.7040711 374.771594,37.7017665 C374.771594,38.8775178 374.68978,40.0518442 374.526745,41.216237 L373.186128,50.7908706 Z" id="Combined-Shape" fill="#FFFFFF" opacity="0.400000006"></path><ellipse id="Oval-20-Copy" fill="#0B4651" opacity="0.5" cx="316.01652" cy="32.1831796" rx="4.47664997" ry="4.4769477"></ellipse><ellipse id="Oval-20-Copy-2" fill="#54B454" opacity="0.5" cx="332.963838" cy="32.1831796" rx="4.47664997" ry="4.4769477"></ellipse><ellipse id="Oval-20-Copy-3" fill="#FFFFFF" cx="349.911155" cy="32.1831796" rx="4.47664997" ry="4.4769477"></ellipse></g><path d="M97.9696383,77.5855816 L169.556961,77.5855816 C173.621949,77.5855816 176.917272,80.8809049 176.917272,84.9458922 C176.917272,85.2324185 176.900541,85.5187005 176.867164,85.8032762 L171.428496,132.174291 C170.993612,135.882187 167.851605,138.677217 164.118293,138.677217 L92.5309704,138.677217 C88.4659831,138.677217 85.1706598,135.381894 85.1706598,131.316907 C85.1706598,131.03038 85.1873909,130.744099 85.2207676,130.459523 L90.6594355,84.0885082 C91.0943196,80.3806121 94.2363264,77.5855816 97.9696383,77.5855816 Z" id="Rectangle-51" fill="#FFFFFF" opacity="0.400000006"></path><path d="M241.801571,62.8822495 L374.106946,62.8822495 C378.171934,62.8822495 381.467257,66.1775728 381.467257,70.2425601 C381.467257,70.5622287 381.446431,70.8815577 381.404913,71.1985186 L371.520705,146.656415 C371.040739,150.320572 367.918197,153.060767 364.222739,153.060767 L231.917364,153.060767 C227.852376,153.060767 224.557053,149.765444 224.557053,145.700457 C224.557053,145.380788 224.577878,145.061459 224.619397,144.744498 L234.503605,69.2866017 C234.983571,65.6224452 238.106113,62.8822495 241.801571,62.8822495 Z" id="Rectangle-51-Copy" fill="#FFFFFF" opacity="0.300000012"></path><path d="M87.3091236,215.418253 L148.221692,215.418253 C152.538002,215.418253 156.037062,218.917314 156.037062,223.233624 C156.037062,223.668698 156.000732,224.103012 155.928451,224.53204 L155.928451,224.53204 C155.042026,229.793422 150.486286,233.645826 145.150755,233.645826 L84.2381865,233.645826 C79.9218766,233.645826 76.4228161,230.146765 76.4228161,225.830456 C76.4228161,225.395382 76.4591462,224.961067 76.5314277,224.53204 L76.5314277,224.53204 C77.4178526,219.270657 81.9735926,215.418253 87.3091236,215.418253 Z" id="Rectangle-52" fill="#0B4651" opacity="0.400000006"></path><path d="M197.626569,215.418253 L258.539137,215.418253 C262.855447,215.418253 266.354508,218.917314 266.354508,223.233624 C266.354508,223.668698 266.318178,224.103012 266.245896,224.53204 L266.245896,224.53204 C265.359471,229.793422 260.803731,233.645826 255.4682,233.645826 L194.555632,233.645826 C190.239322,233.645826 186.740262,230.146765 186.740262,225.830456 C186.740262,225.395382 186.776592,224.961067 186.848873,224.53204 L186.848873,224.53204 C187.735298,219.270657 192.291038,215.418253 197.626569,215.418253 Z" id="Rectangle-52-Copy" fill="#FFFFFF" opacity="0.400000006"></path><path d="M301.868561,215.418253 L362.781129,215.418253 C367.097439,215.418253 370.5965,218.917314 370.5965,223.233624 C370.5965,223.668698 370.56017,224.103012 370.487888,224.53204 L370.487888,224.53204 C369.601463,229.793422 365.045723,233.645826 359.710192,233.645826 L298.797624,233.645826 C294.481314,233.645826 290.982254,230.146765 290.982254,225.830456 C290.982254,225.395382 291.018584,224.961067 291.090865,224.53204 L291.090865,224.53204 C291.97729,219.270657 296.53303,215.418253 301.868561,215.418253 Z" id="Rectangle-52-Copy-2" fill="#FFFFFF" opacity="0.200000003"></path><ellipse id="Oval-20" fill="#0B4651" opacity="0.400000006" cx="118.631224" cy="182.480709" rx="10.2323428" ry="10.2330233"></ellipse><ellipse id="Oval-20-Copy-4" fill="#FFFFFF" opacity="0.400000006" cx="228.94867" cy="182.480709" rx="10.2323428" ry="10.2330233"></ellipse><ellipse id="Oval-20-Copy-5" fill="#FFFFFF" opacity="0.400000006" cx="337.667312" cy="182.480709" rx="10.2323428" ry="10.2330233"></ellipse><path d="M265.954646,334.516855 C256.774715,276.667418 230.291062,249.30851 186.503686,252.440133 C120.822623,257.137566 228.680642,278.464516 218.167047,288.925615 C207.653451,299.386713 195.810046,306.868839 201.57564,317.251301 C205.41937,324.172942 226.879039,329.928126 265.954646,334.516855 Z" id="Path-313" fill="#29A99A"></path><path d="M245.206858,277.72962 C253.920414,289.561164 260.300213,305.504972 264.346255,325.561045 L261.644458,332.913457 L248.097675,331.756574 C239.935821,303.676697 238.97222,285.667718 245.206871,277.729638 Z" id="Combined-Shape" fill="#0B4651" opacity="0.300000012"></path><path d="M192.368466,263.878856 C227.231369,271.266047 247.573441,291.841968 253.394681,325.606619" id="Path-315" stroke="#0B4651" stroke-width="1.92008102" stroke-linecap="round" stroke-linejoin="round"></path><polyline id="Path-316" stroke="#0B4651" stroke-width="1.92008102" stroke-linecap="round" stroke-linejoin="round" points="225.92416 303.71102 247.456668 303.71102 247.456668 286.452332"></polyline><path d="M211.960973,261.939418 L220.137891,274.071648" id="Path-317" stroke="#0B4651" stroke-width="1.92008102" stroke-linecap="round" stroke-linejoin="round"></path><path d="M316.62274,334.191353 C326.812539,333.984806 331.77277,333.015308 331.503435,331.28286 C326.040565,296.143971 293.673135,273.39873 266.225836,273.39873 C222.010119,273.39873 290.173173,293.17675 279.659577,303.637849 C269.145981,314.098948 258.065531,309.953598 263.831125,320.336059 C267.674855,327.2577 285.27206,331.876132 316.62274,334.191353 Z" id="Path-313-Copy" fill="#33BAAA" transform="translate(291.331826, 303.795042) scale(-1, 1) translate(-291.331826, -303.795042) "></path><path d="M256.716749,329.166399 C273.087677,304.44215 287.596077,291.313001 300.24195,289.778952" id="Path-318" stroke="#0B4651" stroke-width="1.92008102" stroke-linecap="round" stroke-linejoin="round"></path><path d="M269.113516,313.442187 C287.825101,311.599619 300.509002,313.487482 307.16522,319.105774" id="Path-319" stroke="#0B4651" stroke-width="1.92008102" stroke-linecap="round" stroke-linejoin="round"></path><path d="M0,333.737585 L178.136477,333.737585" id="Path-320" stroke="#0B4651" stroke-width="0.81225" stroke-linecap="round" stroke-linejoin="round"></path><path d="M238.22173,333.737585 L488.755523,333.737585" id="Path-320-Copy" stroke="#0B4651" stroke-width="0.81225" stroke-linecap="round" stroke-linejoin="round"></path></g></g></g></g></g></svg> 