<?xml version="1.0" encoding="UTF-8"?> <svg xmlns="http://www.w3.org/2000/svg" xmlns:xlink="http://www.w3.org/1999/xlink" width="1172px" height="283px" viewBox="0 0 1172 283"><!-- Generator: Sketch 52.5 (67469) - http://www.bohemiancoding.com/sketch --><title>Purposefully beautiful design + Built with innovative technology + Informed by immersive strategy</title><desc>Created with Sketch.</desc><defs><linearGradient x1="78.5047124%" y1="6.8380319%" x2="59.7127148%" y2="148.983713%" id="linearGradient-1"><stop stop-color="#EDFFEC" stop-opacity="0" offset="0%"></stop><stop stop-color="#D6F4CB" stop-opacity="0.768849402" offset="22.3479394%"></stop><stop stop-color="#27D576" stop-opacity="0.351817255" offset="100%"></stop></linearGradient><path d="M0,213.014753 C26.2935307,175.03611 52.5870614,156.046789 78.8805921,156.046789 C118.320888,156.046789 140.646823,186.194962 169.539192,169.276359 C198.431561,152.357755 370.912566,33.8617826 473.743504,70.4931084 C580.363778,108.474304 693.459407,85.0240112 813.030389,0.142229203 L1067.78095,61.8764381 C938.187612,159.606922 849.735998,217.078849 802.426112,234.292219 C644.570202,291.726986 504.607845,267.552326 442.712688,224.39249 C360.522263,167.080653 215.201987,266.703657 165.459231,247.743105 C115.716474,228.782553 106.761785,214.448433 82.8384322,208.472164 C66.8895307,204.487984 43.0940271,213.094669 11.4519216,234.292219 L0,213.014753 Z" id="path-2"></path><linearGradient x1="8.4978621%" y1="-15.6887091%" x2="91.1505305%" y2="100%" id="linearGradient-4"><stop stop-color="#7ECC79" offset="0%"></stop><stop stop-color="#1FAD9D" offset="100%"></stop></linearGradient><path d="M559.406707,180.399484 L575.333145,179.078409 C576.797194,178.956968 578.082488,180.045367 578.203929,181.509417 C578.209911,181.581533 578.212947,181.653863 578.213031,181.726226 L578.214889,183.331682 C578.216589,184.800759 577.027046,185.993059 575.557969,185.994759 C575.556943,185.99476 575.555917,185.994761 575.554891,185.994761 L559.626595,185.994761 C558.157517,185.994761 556.966595,184.803838 556.966595,183.334761 L556.966595,183.05038 C556.966595,181.666553 558.027617,180.513877 559.406707,180.399484 Z" id="path-5"></path><filter x="-28.2%" y="-86.6%" width="156.5%" height="273.3%" id="filter-6"><feOffset dx="0" dy="0" in="SourceAlpha" result="shadowOffsetOuter1"></feOffset><feGaussianBlur stdDeviation="2" in="shadowOffsetOuter1" result="shadowBlurOuter1"></feGaussianBlur><feColorMatrix values="0 0 0 0 0.0431372549 0 0 0 0 0.274509804 0 0 0 0 0.317647059 0 0 0 0.108610734 0" type="matrix" in="shadowBlurOuter1"></feColorMatrix></filter><path d="M575.212044,160.68344 L659.756499,156.006377 C667.444829,155.581053 674.022246,161.468883 674.44757,169.157213 C674.461758,169.413674 674.468855,169.670478 674.468855,169.92733 L674.468855,169.92733 C674.468855,177.627416 668.226703,183.869569 660.526617,183.869569 C660.269764,183.869569 660.01296,183.862471 659.756499,183.848284 L575.212044,179.171221 C570.305164,178.899769 566.465398,174.841713 566.465398,169.92733 L566.465398,169.92733 C566.465398,165.012948 570.305164,160.954892 575.212044,160.68344 Z" id="path-7"></path><filter x="-11.6%" y="-41.2%" width="123.1%" height="189.7%" id="filter-8"><feOffset dx="0" dy="1" in="SourceAlpha" result="shadowOffsetOuter1"></feOffset><feGaussianBlur stdDeviation="4" in="shadowOffsetOuter1" result="shadowBlurOuter1"></feGaussianBlur><feColorMatrix values="0 0 0 0 0.414386489 0 0 0 0 0.762223639 0 0 0 0 0.392089236 0 0 0 0.376160553 0" type="matrix" in="shadowBlurOuter1"></feColorMatrix></filter><path d="M608.208411,167.167896 C608.599638,167.167896 608.91679,167.485589 608.91679,167.877484 L608.91679,173.554193 C608.91679,173.946088 608.599638,174.263782 608.208411,174.263782 C607.817184,174.263782 607.500032,173.946088 607.500032,173.554193 L607.500032,167.877484 C607.500032,167.485589 607.817184,167.167896 608.208411,167.167896 Z M611.041928,167.167896 C611.433155,167.167896 611.750307,167.485589 611.750307,167.877484 L611.750307,173.554193 C611.750307,173.946088 611.433155,174.263782 611.041928,174.263782 C610.650701,174.263782 610.333548,173.946088 610.333548,173.554193 L610.333548,167.877484 C610.333548,167.485589 610.650701,167.167896 611.041928,167.167896 Z M613.875444,167.167896 C614.266671,167.167896 614.583824,167.485589 614.583824,167.877484 L614.583824,173.554193 C614.583824,173.946088 614.266671,174.263782 613.875444,174.263782 C613.484217,174.263782 613.167065,173.946088 613.167065,173.554193 L613.167065,167.877484 C613.167065,167.485589 613.484217,167.167896 613.875444,167.167896 Z M616.708961,167.167896 C617.100188,167.167896 617.41734,167.485589 617.41734,167.877484 L617.41734,173.554193 C617.41734,173.946088 617.100188,174.263782 616.708961,174.263782 C616.317734,174.263782 616.000582,173.946088 616.000582,173.554193 L616.000582,167.877484 C616.000582,167.485589 616.317734,167.167896 616.708961,167.167896 Z M619.542478,167.167896 C619.933705,167.167896 620.250857,167.485589 620.250857,167.877484 L620.250857,173.554193 C620.250857,173.946088 619.933705,174.263782 619.542478,174.263782 C619.151251,174.263782 618.834099,173.946088 618.834099,173.554193 L618.834099,167.877484 C618.834099,167.485589 619.151251,167.167896 619.542478,167.167896 Z M622.375995,167.167896 C622.767222,167.167896 623.084374,167.485589 623.084374,167.877484 L623.084374,173.554193 C623.084374,173.946088 622.767222,174.263782 622.375995,174.263782 C621.984768,174.263782 621.667616,173.946088 621.667616,173.554193 L621.667616,167.877484 C621.667616,167.485589 621.984768,167.167896 622.375995,167.167896 Z M625.209512,167.167896 C625.600739,167.167896 625.917891,167.485589 625.917891,167.877484 L625.917891,173.554193 C625.917891,173.946088 625.600739,174.263782 625.209512,174.263782 C624.818285,174.263782 624.501132,173.946088 624.501132,173.554193 L624.501132,167.877484 C624.501132,167.485589 624.818285,167.167896 625.209512,167.167896 Z" id="path-9"></path><filter x="-32.6%" y="-84.6%" width="165.2%" height="269.1%" id="filter-10"><feOffset dx="0" dy="0" in="SourceAlpha" result="shadowOffsetOuter1"></feOffset><feGaussianBlur stdDeviation="2" in="shadowOffsetOuter1" result="shadowBlurOuter1"></feGaussianBlur><feColorMatrix values="0 0 0 0 1 0 0 0 0 1 0 0 0 0 1 0 0 0 0.5 0" type="matrix" in="shadowBlurOuter1"></feColorMatrix></filter><path d="M679.891179,144.018163 L679.891179,144.018163 C686.521318,144.018163 692.10435,148.97556 692.88866,155.559146 L707.729761,280.136975 L666.006947,260.681307 L668.043315,155.63857 C668.168431,149.184682 673.436079,144.018163 679.891179,144.018163 Z" id="path-11"></path><filter x="-22.8%" y="-6.2%" width="145.5%" height="114.0%" id="filter-12"><feOffset dx="0" dy="1" in="SourceAlpha" result="shadowOffsetOuter1"></feOffset><feGaussianBlur stdDeviation="3" in="shadowOffsetOuter1" result="shadowBlurOuter1"></feGaussianBlur><feColorMatrix values="0 0 0 0 0.0431372549 0 0 0 0 0.274509804 0 0 0 0 0.317647059 0 0 0 0.36144135 0" type="matrix" in="shadowBlurOuter1"></feColorMatrix></filter><path d="M679.446808,221.988458 C679.838035,221.988458 680.155188,222.306151 680.155188,222.698046 L680.155188,228.374755 C680.155188,228.76665 679.838035,229.084344 679.446808,229.084344 C679.055581,229.084344 678.738429,228.76665 678.738429,228.374755 L678.738429,222.698046 C678.738429,222.306151 679.055581,221.988458 679.446808,221.988458 Z M682.280325,221.988458 C682.671552,221.988458 682.988704,222.306151 682.988704,222.698046 L682.988704,228.374755 C682.988704,228.76665 682.671552,229.084344 682.280325,229.084344 C681.889098,229.084344 681.571946,228.76665 681.571946,228.374755 L681.571946,222.698046 C681.571946,222.306151 681.889098,221.988458 682.280325,221.988458 Z M685.113842,221.988458 C685.505069,221.988458 685.822221,222.306151 685.822221,222.698046 L685.822221,228.374755 C685.822221,228.76665 685.505069,229.084344 685.113842,229.084344 C684.722615,229.084344 684.405463,228.76665 684.405463,228.374755 L684.405463,222.698046 C684.405463,222.306151 684.722615,221.988458 685.113842,221.988458 Z M687.947359,221.988458 C688.338586,221.988458 688.655738,222.306151 688.655738,222.698046 L688.655738,228.374755 C688.655738,228.76665 688.338586,229.084344 687.947359,229.084344 C687.556132,229.084344 687.23898,228.76665 687.23898,228.374755 L687.23898,222.698046 C687.23898,222.306151 687.556132,221.988458 687.947359,221.988458 Z M690.780876,221.988458 C691.172103,221.988458 691.489255,222.306151 691.489255,222.698046 L691.489255,228.374755 C691.489255,228.76665 691.172103,229.084344 690.780876,229.084344 C690.389649,229.084344 690.072497,228.76665 690.072497,228.374755 L690.072497,222.698046 C690.072497,222.306151 690.389649,221.988458 690.780876,221.988458 Z M693.614393,221.988458 C694.00562,221.988458 694.322772,222.306151 694.322772,222.698046 L694.322772,228.374755 C694.322772,228.76665 694.00562,229.084344 693.614393,229.084344 C693.223166,229.084344 692.906013,228.76665 692.906013,228.374755 L692.906013,222.698046 C692.906013,222.306151 693.223166,221.988458 693.614393,221.988458 Z M696.447909,221.988458 C696.839136,221.988458 697.156289,222.306151 697.156289,222.698046 L697.156289,228.374755 C697.156289,228.76665 696.839136,229.084344 696.447909,229.084344 C696.056682,229.084344 695.73953,228.76665 695.73953,228.374755 L695.73953,222.698046 C695.73953,222.306151 696.056682,221.988458 696.447909,221.988458 Z" id="path-13"></path><filter x="-32.6%" y="-84.6%" width="165.2%" height="269.1%" id="filter-14"><feOffset dx="0" dy="0" in="SourceAlpha" result="shadowOffsetOuter1"></feOffset><feGaussianBlur stdDeviation="2" in="shadowOffsetOuter1" result="shadowBlurOuter1"></feGaussianBlur><feColorMatrix values="0 0 0 0 1 0 0 0 0 1 0 0 0 0 1 0 0 0 0.5 0" type="matrix" in="shadowBlurOuter1"></feColorMatrix></filter><ellipse id="path-15" cx="657.517578" cy="164.19031" rx="5.80870948" ry="5.81862659"></ellipse><filter x="-51.6%" y="-51.6%" width="203.3%" height="203.1%" id="filter-16"><feOffset dx="0" dy="0" in="SourceAlpha" result="shadowOffsetOuter1"></feOffset><feGaussianBlur stdDeviation="2" in="shadowOffsetOuter1" result="shadowBlurOuter1"></feGaussianBlur><feColorMatrix values="0 0 0 0 0.0431372549 0 0 0 0 0.274509804 0 0 0 0 0.317647059 0 0 0 0.108610734 0" type="matrix" in="shadowBlurOuter1"></feColorMatrix></filter><ellipse id="path-17" cx="677.352196" cy="205.630285" rx="3.25854434" ry="3.2641076"></ellipse><filter x="-191.8%" y="-176.2%" width="483.6%" height="483.0%" id="filter-18"><feOffset dx="0" dy="1" in="SourceAlpha" result="shadowOffsetOuter1"></feOffset><feGaussianBlur stdDeviation="4" in="shadowOffsetOuter1" result="shadowBlurOuter1"></feGaussianBlur><feColorMatrix values="0 0 0 0 0.414386489 0 0 0 0 0.762223639 0 0 0 0 0.392089236 0 0 0 0.376160553 0" type="matrix" in="shadowBlurOuter1"></feColorMatrix></filter><ellipse id="path-19" cx="669.134997" cy="188.316323" rx="3.25854434" ry="3.2641076"></ellipse><filter x="-191.8%" y="-176.2%" width="483.6%" height="483.0%" id="filter-20"><feOffset dx="0" dy="1" in="SourceAlpha" result="shadowOffsetOuter1"></feOffset><feGaussianBlur stdDeviation="4" in="shadowOffsetOuter1" result="shadowBlurOuter1"></feGaussianBlur><feColorMatrix values="0 0 0 0 0.414386489 0 0 0 0 0.762223639 0 0 0 0 0.392089236 0 0 0 0.376160553 0" type="matrix" in="shadowBlurOuter1"></feColorMatrix></filter><ellipse id="path-21" cx="577.470728" cy="179.943177" rx="4.53362691" ry="4.54136709"></ellipse><filter x="-66.2%" y="-66.1%" width="232.3%" height="232.1%" id="filter-22"><feOffset dx="0" dy="0" in="SourceAlpha" result="shadowOffsetOuter1"></feOffset><feGaussianBlur stdDeviation="2" in="shadowOffsetOuter1" result="shadowBlurOuter1"></feGaussianBlur><feColorMatrix values="0 0 0 0 0.0431372549 0 0 0 0 0.274509804 0 0 0 0 0.317647059 0 0 0 0.108610734 0" type="matrix" in="shadowBlurOuter1"></feColorMatrix></filter><linearGradient x1="57.6964029%" y1="-28.1753217%" x2="43.1413235%" y2="92.9334256%" id="linearGradient-23"><stop stop-color="#55A350" offset="0%"></stop><stop stop-color="#33BAAA" offset="100%"></stop></linearGradient><linearGradient x1="84.0419841%" y1="9.04887469%" x2="43.1413235%" y2="92.9334256%" id="linearGradient-24"><stop stop-color="#209049" offset="0%"></stop><stop stop-color="#29A596" offset="100%"></stop></linearGradient><linearGradient x1="57.6964029%" y1="-28.1753217%" x2="43.1413235%" y2="92.9334256%" id="linearGradient-25"><stop stop-color="#7ECC79" offset="0%"></stop><stop stop-color="#33BAAA" offset="100%"></stop></linearGradient><linearGradient x1="57.6964029%" y1="-28.1753217%" x2="43.1413235%" y2="92.9334256%" id="linearGradient-26"><stop stop-color="#5AD665" offset="0%"></stop><stop stop-color="#33BAAA" offset="100%"></stop></linearGradient><linearGradient x1="57.6964029%" y1="-28.1753217%" x2="43.4125488%" y2="90.6766359%" id="linearGradient-27"><stop stop-color="#BAFFB5" offset="0%"></stop><stop stop-color="#2BBAA9" offset="100%"></stop></linearGradient><linearGradient x1="57.6964029%" y1="-28.1753217%" x2="43.4125488%" y2="90.6766359%" id="linearGradient-28"><stop stop-color="#BAFFB5" offset="0%"></stop><stop stop-color="#3CD8C5" offset="100%"></stop></linearGradient><linearGradient x1="57.6964029%" y1="-28.1753217%" x2="43.1413235%" y2="92.9334256%" id="linearGradient-29"><stop stop-color="#6BE575" offset="0%"></stop><stop stop-color="#33BAAA" offset="100%"></stop></linearGradient><linearGradient x1="84.0419841%" y1="9.04887469%" x2="43.1413235%" y2="92.9334256%" id="linearGradient-30"><stop stop-color="#53D28C" offset="0%"></stop><stop stop-color="#33BAAA" offset="100%"></stop></linearGradient><linearGradient x1="84.0419841%" y1="9.04887469%" x2="43.1413235%" y2="92.9334256%" id="linearGradient-31"><stop stop-color="#62DF90" offset="0%"></stop><stop stop-color="#33BAAA" offset="100%"></stop></linearGradient><path d="M9.50229389,9.32158755 C21.7533765,19.4321006 32.4889718,21.8901829 41.7090798,16.6958345 C41.6729474,17.096623 41.7397061,17.5123851 41.6321385,17.9013903 C38.0827863,30.7371908 44.4621832,41.6571571 60.7703292,50.6612892 C46.9174983,61.1928178 34.6098024,62.8425507 23.8472416,55.6104879 C13.0846809,48.3784252 8.30303162,32.9487917 9.50229389,9.32158755 Z" id="path-32"></path><filter x="-69.0%" y="-34.5%" width="206.9%" height="208.5%" id="filter-34"><feOffset dx="-8" dy="10" in="SourceAlpha" result="shadowOffsetOuter1"></feOffset><feGaussianBlur stdDeviation="7.5" in="shadowOffsetOuter1" result="shadowBlurOuter1"></feGaussianBlur><feColorMatrix values="0 0 0 0 0.162013697 0 0 0 0 0.398652018 0 0 0 0 0.438988095 0 0 0 0.167459239 0" type="matrix" in="shadowBlurOuter1"></feColorMatrix></filter><path d="M61.7517125,58.2810042 C57.5932714,64.6864822 54.1376241,67.7357397 51.3847704,67.4287768 C54.0516202,62.6366106 53.589244,61.0021127 53.6680449,57.8439491 C57.2967541,59.8474496 59.99131,59.9931346 61.7517125,58.2810042 Z" id="path-35"></path><filter x="-250.8%" y="-156.2%" width="505.1%" height="537.2%" id="filter-36"><feOffset dx="-5" dy="6" in="SourceAlpha" result="shadowOffsetOuter1"></feOffset><feGaussianBlur stdDeviation="6" in="shadowOffsetOuter1" result="shadowBlurOuter1"></feGaussianBlur><feColorMatrix values="0 0 0 0 0.162013697 0 0 0 0 0.398652018 0 0 0 0 0.438988095 0 0 0 0.168053668 0" type="matrix" in="shadowBlurOuter1"></feColorMatrix></filter><path d="M27.1207798,57.3644423 C33.5073472,56.9828211 38.5931472,54.2381291 42.3781798,49.1303661 C43.7736467,52.0068882 46.9039267,54.2688794 50.897378,54.9850796 C53.5596789,55.4625464 52.5779829,57.5263447 47.95229,61.1764746 C33.2061306,61.4373387 25.5114822,61.1729662 24.868345,60.3833569 C24.2252077,59.5937477 24.9760193,58.5874428 27.1207798,57.3644423 Z" id="path-37"></path><filter x="-93.8%" y="-123.5%" width="251.6%" height="445.9%" id="filter-38"><feOffset dx="-5" dy="6" in="SourceAlpha" result="shadowOffsetOuter1"></feOffset><feGaussianBlur stdDeviation="6" in="shadowOffsetOuter1" result="shadowBlurOuter1"></feGaussianBlur><feColorMatrix values="0 0 0 0 0.162013697 0 0 0 0 0.398652018 0 0 0 0 0.438988095 0 0 0 0.168053668 0" type="matrix" in="shadowBlurOuter1"></feColorMatrix></filter><path d="M7.58263856,7.51434098 C17.9546376,14.9546752 28.5748778,16.6456906 39.4433594,12.5873872 C34.7589799,24.485233 37.7756918,33.9025047 48.493495,40.8392025 C37.4392158,49.3289042 27.6179231,50.6587909 19.0296171,44.8288627 C10.441311,38.9989346 6.62565149,26.5607606 7.58263856,7.51434098 Z" id="path-39"></path><filter x="-68.2%" y="-34.3%" width="207.2%" height="207.6%" id="filter-41"><feOffset dx="-6" dy="8" in="SourceAlpha" result="shadowOffsetOuter1"></feOffset><feGaussianBlur stdDeviation="6" in="shadowOffsetOuter1" result="shadowBlurOuter1"></feGaussianBlur><feColorMatrix values="0 0 0 0 0.162013697 0 0 0 0 0.398652018 0 0 0 0 0.438988095 0 0 0 0.167459239 0" type="matrix" in="shadowBlurOuter1"></feColorMatrix></filter><path d="M49.2766191,46.9816258 C45.9582671,52.1452255 43.2007303,54.6033004 41.0040087,54.3558507 C43.1321009,50.4927779 42.7631341,49.1751725 42.8260156,46.6293059 C45.7216523,48.2443726 47.8718534,48.3618126 49.2766191,46.9816258 Z" id="path-42"></path><filter x="-241.8%" y="-142.1%" width="486.8%" height="513.2%" id="filter-43"><feOffset dx="-4" dy="5" in="SourceAlpha" result="shadowOffsetOuter1"></feOffset><feGaussianBlur stdDeviation="4.5" in="shadowOffsetOuter1" result="shadowBlurOuter1"></feGaussianBlur><feColorMatrix values="0 0 0 0 0.162013697 0 0 0 0 0.398652018 0 0 0 0 0.438988095 0 0 0 0.168053668 0" type="matrix" in="shadowBlurOuter1"></feColorMatrix></filter><path d="M21.6418344,46.2427647 C26.7381861,45.9351313 30.7965518,43.7225734 33.8169313,39.605091 C34.9304858,41.9239201 37.4283859,43.747362 40.6150794,44.324707 C42.7395417,44.7096037 41.9561682,46.3732779 38.2649587,49.3157295 C26.4978214,49.5260179 20.3576474,49.3129013 19.8444369,48.6763795 C19.3312264,48.0398578 19.9303588,47.2286529 21.6418344,46.2427647 Z" id="path-44"></path><filter x="-90.4%" y="-112.4%" width="244.7%" height="426.9%" id="filter-45"><feOffset dx="-4" dy="5" in="SourceAlpha" result="shadowOffsetOuter1"></feOffset><feGaussianBlur stdDeviation="4.5" in="shadowOffsetOuter1" result="shadowBlurOuter1"></feGaussianBlur><feColorMatrix values="0 0 0 0 0.162013697 0 0 0 0 0.398652018 0 0 0 0 0.438988095 0 0 0 0.168053668 0" type="matrix" in="shadowBlurOuter1"></feColorMatrix></filter><path d="M55.7013678,10.3882956 C49.4231323,10.3882956 53.9345462,24.4435835 48.7612874,25.9434227 C46.432161,26.6186867 44.7135266,30.2792747 46.432161,32.099743 C47.5779173,33.3133885 47.4252099,36.2288031 45.9740387,40.8459868 L34.9615345,39.9128824 C33.4551815,35.3350016 32.7020049,31.4842239 32.7020049,28.3605492 C32.7020049,23.6750373 39.1559216,26.0413411 38.4025198,20.1184664 C37.649118,14.1955917 38.1137222,11.4450684 40.2009492,10.3882956 C48.1693981,9.75222155 53.3362043,9.75222155 55.7013678,10.3882956 Z" id="path-46"></path><filter x="-102.2%" y="-37.2%" width="260.9%" height="219.6%" id="filter-47"><feOffset dx="-5" dy="7" in="SourceAlpha" result="shadowOffsetOuter1"></feOffset><feGaussianBlur stdDeviation="5" in="shadowOffsetOuter1" result="shadowBlurOuter1"></feGaussianBlur><feColorMatrix values="0 0 0 0 0.162013697 0 0 0 0 0.398652018 0 0 0 0 0.438988095 0 0 0 0.167459239 0" type="matrix" in="shadowBlurOuter1"></feColorMatrix></filter><rect id="path-48" x="739.451027" y="29.7878573" width="11.3340673" height="11.3534177"></rect><filter x="-110.3%" y="-101.3%" width="320.6%" height="320.2%" id="filter-49"><feOffset dx="0" dy="1" in="SourceAlpha" result="shadowOffsetOuter1"></feOffset><feGaussianBlur stdDeviation="4" in="shadowOffsetOuter1" result="shadowBlurOuter1"></feGaussianBlur><feColorMatrix values="0 0 0 0 0.414386489 0 0 0 0 0.762223639 0 0 0 0 0.392089236 0 0 0 0.376160553 0" type="matrix" in="shadowBlurOuter1"></feColorMatrix></filter><linearGradient x1="57.6964029%" y1="-28.1753217%" x2="43.3336469%" y2="91.3331566%" id="linearGradient-50"><stop stop-color="#5AB155" offset="0%"></stop><stop stop-color="#14AD9B" offset="100%"></stop></linearGradient><linearGradient x1="57.6964029%" y1="-28.1753217%" x2="43.3336469%" y2="91.3331566%" id="linearGradient-51"><stop stop-color="#298123" offset="0%"></stop><stop stop-color="#0F9A89" offset="100%"></stop></linearGradient></defs><g id="Pages" stroke="none" stroke-width="1" fill="none" fill-rule="evenodd"><g id="Home---Approach-v3-" transform="translate(-214.000000, -4379.000000)"><g id="Section-2" transform="translate(215.000000, 4173.000000)"><g id="Purposefully-beautiful-design-+-Built-with-innovative-technology-+-Informed-by-immersive-strategy" transform="translate(0.000000, 203.000000)"><g id="Group-64" transform="translate(56.953688, 0.292329)"><mask id="mask-3" fill="white"><use xlink:href="#path-2"></use></mask><use id="Path-349" fill="url(#linearGradient-1)" xlink:href="#path-2"></use><g id="Group-21" opacity="0.400000006" mask="url(#mask-3)"><g transform="translate(809.514640, 208.894392) rotate(-25.000000) translate(-809.514640, -208.894392) translate(748.310676, 163.338804)"><g id="Group-19" transform="translate(37.367340, 29.646396)"><path d="M3.89588218,46.6542643 C22.5779594,20.6160762 42.2589784,8.08662016 62.9389391,9.06589605 C68.6409849,9.33590991 74.6219812,9.89111045 80.8819278,10.7314977 C79.0371051,27.372037 57.2480719,18.0789535 58.9012259,23.1376819 C61.1837305,30.1222524 56.405193,44.333067 42.4021574,35.9490437 C28.3991218,27.5650203 32.8987729,56.3632561 18.3973275,51.5087602 C8.7296973,48.2724296 3.89588218,46.6542643 3.89588218,46.6542643 Z" id="Path-31" fill="#33BAAA" transform="translate(42.388905, 30.538393) rotate(-13.000000) translate(-42.388905, -30.538393) "></path><path d="M36.7403125,14.3191928 C37.0567483,15.0714775 37.3343355,16.0390255 37.5624735,17.2655342 C39.0023447,25.006526 29.5582426,37.5746584 9.2301674,54.9699312 L8.5077382,54.9002616 C16.3143966,36.2002416 25.7252547,22.6732187 36.7403125,14.3191928 Z" id="Combined-Shape" fill="#1C9486"></path><path d="M52.1037622,25.7000877 C44.6049302,22.0097941 36.2574878,22.3209552 27.0614349,26.633571" id="Path-33" stroke="#0D6574" stroke-width="1.77408"></path><path d="M67.3993558,11.6973806 C59.9005238,8.00708704 51.5530814,8.31824814 42.3570286,12.6308639" id="Path-33-Copy" stroke="#0D6574" stroke-width="1.77408"></path><path d="M45.4578272,10.1689344 C28.4694826,23.2732722 18.1305533,38.0872541 14.4410392,54.6108801" id="Path-34" stroke="#0D6574" stroke-width="1.77408"></path></g><g id="Group-7-Copy-4" transform="translate(41.459748, 45.271753) scale(-1, 1) translate(-41.459748, -45.271753) translate(0.232079, -0.000000)"><path d="M4.19382142,61.6873952 C11.5836498,40.2911282 18.4841097,28.3666635 24.8952009,25.9140012 C34.5118377,22.2350077 30.7747871,39.2969808 35.0423733,36.1518922 C39.3099596,33.0068036 43.360708,19.307975 51.0764322,19.307975 C58.7921564,19.307975 51.2358077,32.1711574 55.9229802,29.1462858 C60.6101526,26.1214142 70.1823132,13.1862758 76.7105115,22.2350077 C83.2387099,31.2837397 65.5408794,35.8681475 64.9111774,39.7287498 C64.2814755,43.5893522 73.1248467,42.0233044 71.5362661,47.8342683 C69.9476854,53.6452322 53.898499,54.7204151 51.0764322,58.0906743 C48.2543654,61.4609335 63.3152586,60.9016116 54.083005,68.7970013 C47.9281693,74.0605945 31.2984415,71.6907258 4.19382142,61.6873952 Z M47.8611368,37.0233742 C50.0683525,31.3808799 50.6201564,28.5174916 49.5165486,28.4332093 C48.4129408,28.348927 47.8611368,31.2123153 47.8611368,37.0233742 Z" id="Combined-Shape" fill="#33BAAA" transform="translate(41.173816, 45.295528) rotate(-60.000000) translate(-41.173816, -45.295528) "></path><path d="M4.0484023,64.6220877 C33.6794005,57.7480181 56.1684906,45.3975195 71.5156728,27.5705918" id="Path-117" stroke="#0D6574" stroke-width="1.77408" transform="translate(37.782038, 46.096340) rotate(-60.000000) translate(-37.782038, -46.096340) "></path><path d="M32.4517227,71.8675733 C35.116342,67.7647625 36.401101,61.3155569 36.3059997,52.5199566" id="Path-118" stroke="#0D6574" stroke-width="1.77408" transform="translate(34.381319, 62.193765) rotate(-60.000000) translate(-34.381319, -62.193765) "></path><path d="M41.6929741,32.3506174 C49.5329221,31.9179682 54.8563532,33.2694981 57.6632672,36.4052072" id="Path-119" stroke="#0D6574" stroke-width="1.77408" transform="translate(49.678121, 34.338570) rotate(-60.000000) translate(-49.678121, -34.338570) "></path><path d="M38.3327978,18.8353154 L38.4825588,12.4434004" id="Path-120" stroke="#0D6574" stroke-width="1.77408" transform="translate(38.407678, 15.639358) rotate(-60.000000) translate(-38.407678, -15.639358) "></path></g></g></g><path d="M405.352245,100.469253 L602.81304,100.469253 C608.53471,100.469253 613.17304,105.107583 613.17304,110.829253 L613.17304,274.59479 C613.17304,280.316461 608.53471,284.95479 602.81304,284.95479 L405.352245,284.95479 C399.630575,284.95479 394.992245,280.316461 394.992245,274.59479 L394.992245,110.829253 C394.992245,105.107583 399.630575,100.469253 405.352245,100.469253 Z" id="Rectangle-76" fill="#0D6574" mask="url(#mask-3)"></path><path d="M413.653235,141.057721 L593.945345,141.057721 C595.801022,141.057721 597.305345,142.562045 597.305345,144.417721 L597.305345,200.425354 C597.305345,202.281031 595.801022,203.785354 593.945345,203.785354 L413.653235,203.785354 C411.797559,203.785354 410.293235,202.281031 410.293235,200.425354 L410.293235,144.417721 C410.293235,142.562045 411.797559,141.057721 413.653235,141.057721 Z" id="Rectangle-82" fill="url(#linearGradient-4)" opacity="0.200000003" mask="url(#mask-3)"></path><path d="M575.93357,176.838902 L616.418515,174.599244 L611.319122,197.284238 L575.93357,195.326682 C571.026691,195.05523 567.186925,190.997175 567.186925,186.082792 L567.186925,186.082792 C567.186925,181.168409 571.026691,177.110354 575.93357,176.838902 Z" id="Rectangle-79-Copy" fill="#0B4651" opacity="0.900000036" mask="url(#mask-3)" transform="translate(591.802720, 185.941741) rotate(-13.000000) translate(-591.802720, -185.941741) "></path><path d="M531.904558,206.248371 L535.872396,203.226891 C538.08014,206.136031 541.503879,207.875406 545.220364,207.875406 C551.700639,207.875406 556.95394,202.613136 556.95394,196.121797 C556.95394,189.630459 551.700639,184.368189 545.220364,184.368189 C539.469822,184.368189 534.591316,188.541562 533.649541,194.157389 L528.734238,193.330276 C530.077642,185.319528 537.025965,179.375506 545.220364,179.375506 C554.453322,179.375506 561.938113,186.873076 561.938113,196.121797 C561.938113,205.370519 554.453322,212.868089 545.220364,212.868089 C539.929632,212.868089 535.045007,210.386535 531.904558,206.248371 Z" id="Oval-33-Copy-2" fill="#0B4651" fill-rule="nonzero" mask="url(#mask-3)"></path><ellipse id="Oval-34-Copy" fill="#0B4651" mask="url(#mask-3)" cx="559.33622" cy="193.851114" rx="5.66703364" ry="5.67670887"></ellipse><path d="M559.406707,189.198382 L575.333145,187.877307 C576.797194,187.755867 578.082488,188.844266 578.203929,190.308315 C578.209911,190.380431 578.212947,190.452761 578.213031,190.525125 L578.214889,192.130581 C578.216589,193.599658 577.027046,194.791958 575.557969,194.793658 C575.556943,194.793659 575.555917,194.79366 575.554891,194.79366 L559.626595,194.79366 C558.157517,194.79366 556.966595,193.602737 556.966595,192.13366 L556.966595,191.849278 C556.966595,190.465452 558.027617,189.312776 559.406707,189.198382 Z" id="Rectangle-80-Copy" fill="#0B4651" mask="url(#mask-3)" transform="translate(567.590743, 191.330858) rotate(-11.000000) translate(-567.590743, -191.330858) "></path><path d="M537.556708,222.201277 L592.884023,222.201277 C594.58506,222.201277 595.964023,223.58024 595.964023,225.281277 L595.964023,260.845087 C595.964023,262.546124 594.58506,263.925087 592.884023,263.925087 L537.556708,263.925087 C535.855671,263.925087 534.476708,262.546124 534.476708,260.845087 L534.476708,225.281277 C534.476708,223.58024 535.855671,222.201277 537.556708,222.201277 Z" id="Rectangle-81-Copy" fill="url(#linearGradient-4)" opacity="0.400000006" mask="url(#mask-3)" transform="translate(565.220365, 243.063182) rotate(-1.000000) translate(-565.220365, -243.063182) "></path><path d="M414.904231,222.57001 L512.415358,222.57001 C514.116395,222.57001 515.495358,223.948973 515.495358,225.65001 L515.495358,261.21382 C515.495358,262.914857 514.116395,264.29382 512.415358,264.29382 L414.904231,264.29382 C413.203194,264.29382 411.824231,262.914857 411.824231,261.21382 L411.824231,225.65001 C411.824231,223.948973 413.203194,222.57001 414.904231,222.57001 Z" id="Rectangle-81-Copy-3" fill="url(#linearGradient-4)" opacity="0.400000006" mask="url(#mask-3)" transform="translate(463.659794, 243.431915) rotate(-1.000000) translate(-463.659794, -243.431915) "></path><path d="M405.352245,100.469253 L602.81304,100.469253 C608.53471,100.469253 613.17304,105.107583 613.17304,110.829253 L613.17304,128.285127 L394.992245,128.285127 L394.992245,110.829253 C394.992245,105.107583 399.630575,100.469253 405.352245,100.469253 Z" id="Rectangle-76-Copy" fill="url(#linearGradient-4)" mask="url(#mask-3)"></path><path d="M456.726043,110.971165 L594.225345,110.971165 C595.926382,110.971165 597.305345,112.350127 597.305345,114.051165 L597.305345,114.135544 C597.305345,115.836581 595.926382,117.215544 594.225345,117.215544 L456.726043,117.215544 C455.025006,117.215544 453.646043,115.836581 453.646043,114.135544 L453.646043,114.051165 C453.646043,112.350127 455.025006,110.971165 456.726043,110.971165 Z" id="Rectangle-77" fill="#FFFFFF" opacity="0.5" mask="url(#mask-3)"></path><ellipse id="Oval-31" fill="#FFFFFF" mask="url(#mask-3)" cx="407.034691" cy="114.519108" rx="3.25854434" ry="3.2641076"></ellipse><ellipse id="Oval-31-Copy" fill="#8EE988" mask="url(#mask-3)" cx="421.485627" cy="114.519108" rx="3.25854434" ry="3.2641076"></ellipse><ellipse id="Oval-31-Copy-2" fill="#0D6574" mask="url(#mask-3)" cx="435.936563" cy="114.519108" rx="3.25854434" ry="3.2641076"></ellipse><g id="Group-56" opacity="0.669999957" mask="url(#mask-3)"><g transform="translate(107.956991, 185.903722)"><path d="M50.039868,67.6755635 C50.039868,64.2760388 20.4727682,55.9239071 22.616204,45.8274337 C24.7596397,35.7309604 24.0251157,24.4135918 7.33581224,31.8525686 C-9.35349117,39.2915455 8.66883742,6.71851922 1.59421078,0 C23.6487115,1.03538824 58.6136111,25.8041757 54.3267396,67.6755635 C50.039868,69.9491035 50.039868,71.0750882 50.039868,67.6755635 Z" id="Path-259" stroke="none" fill="#33BAAA" fill-rule="evenodd"></path><path d="M6.233737,3.12218988 C34.4931851,22.4474757 49.0384624,45.721982 49.8695692,72.9457089" id="Path-262" stroke="#0D6574" stroke-width="1.77408" fill="none"></path><path d="M28.6185199,45.9038556 C36.4592754,45.242156 42.1269822,46.5925501 45.62164,49.955038 C44.6260639,47.5587525 45.2865447,43.7742799 47.6030826,38.6016203" id="Path-263" stroke="#0D6574" stroke-width="1.77408" fill="none"></path><path d="M12.7508257,18.4493038 C21.1755441,19.071897 26.8425778,20.6802978 29.7519266,23.2745064" id="Path-264" stroke="#0D6574" stroke-width="1.77408" fill="none"></path><path d="M33.7550562,28.0997089 C33.5799292,22.1484001 34.0401133,18.9315984 35.1356086,18.4493038" id="Path-265" stroke="#0D6574" stroke-width="1.77408" fill="none"></path></g></g><g id="Group-56-Copy" opacity="0.669999957" mask="url(#mask-3)"><g transform="translate(183.045186, 250.760120) scale(-1, 1) translate(-183.045186, -250.760120) translate(156.410128, 214.287266)"><path d="M48.6231096,67.6755635 C48.6231096,64.2760388 19.0560098,55.9239071 21.1994456,45.8274337 C23.3428813,35.7309604 26.4170287,53.385813 12.4716279,38.2173793 C-1.47377295,23.0489455 11.1733869,8.61445259 0.177452368,0 C22.2319531,1.03538824 57.1968527,25.8041757 52.9099811,67.6755635 C48.6231096,69.9491035 48.6231096,71.0750882 48.6231096,67.6755635 Z" id="Path-259" stroke="none" fill="#33BAAA" fill-rule="evenodd"></path><path d="M4.81697859,3.12218988 C33.0764267,22.4474757 47.621704,45.721982 48.4528107,72.9457089" id="Path-262" stroke="#0D6574" stroke-width="1.77408" fill="none"></path><path d="M27.2017615,45.9038556 C35.042517,45.242156 40.7102238,46.5925501 44.2048816,49.955038 C43.2093055,47.5587525 43.8697863,43.7742799 46.1863241,38.6016203" id="Path-263" stroke="#0D6574" stroke-width="0.63504" fill="none"></path><path d="M11.3340673,18.4493038 C19.7587857,19.071897 25.4258194,20.6802978 28.3351682,23.2745064" id="Path-264" stroke="#0D6574" stroke-width="1.77408" fill="none"></path><path d="M32.3382978,28.0997089 C32.1631708,22.1484001 32.6233549,18.9315984 33.7188501,18.4493038" id="Path-265" stroke="#0D6574" stroke-width="1.77408" fill="none"></path></g></g><path d="M348.899252,142.824345 C343.242126,130.128805 345.321688,128.115792 348.899252,127.59801 C352.476816,127.080229 362.256948,139.001051 367.72739,137.990215 C373.197832,136.979378 381.156418,112.188249 396.969079,112.391586 C412.78174,112.594922 406.267798,135.951653 411.090607,135.951653 C415.913416,135.951653 413.547785,137.001829 420.778261,137.001829 C428.008737,137.001829 417.280336,147.867268 432.642429,147.867268 L328.971303,147.867268 C333.299901,134.35443 339.942551,132.673455 348.899252,142.824345 Z" id="Path-72-Copy-6" fill="#FFFFFF" opacity="0.59057971" mask="url(#mask-3)"></path><path d="M531.904558,198.584814 L535.872396,195.563334 C538.08014,198.472474 541.503879,200.211849 545.220364,200.211849 C551.700639,200.211849 556.95394,194.949579 556.95394,188.458241 C556.95394,181.966902 551.700639,176.704632 545.220364,176.704632 C539.469822,176.704632 534.591316,180.878005 533.649541,186.493832 L528.734238,185.666719 C530.077642,177.655971 537.025965,171.711949 545.220364,171.711949 C554.453322,171.711949 561.938113,179.209519 561.938113,188.458241 C561.938113,197.706962 554.453322,205.204532 545.220364,205.204532 C539.929632,205.204532 535.045007,202.722978 531.904558,198.584814 Z" id="Oval-33" fill="url(#linearGradient-4)" fill-rule="nonzero" mask="url(#mask-3)"></path><ellipse id="Oval-34" fill="#87E581" mask="url(#mask-3)" cx="559.33622" cy="184.76838" rx="5.66703364" ry="5.67670887"></ellipse><g id="Rectangle-80" mask="url(#mask-3)" transform="translate(567.590743, 182.531959) rotate(-11.000000) translate(-567.590743, -182.531959) "><use fill="black" fill-opacity="1" filter="url(#filter-6)" xlink:href="#path-5"></use><use fill="#FFFFFF" fill-rule="evenodd" xlink:href="#path-5"></use></g><path d="M674.047292,193.648329 L671.457245,189.921032 C679.440082,184.354911 684.294312,175.251744 684.294312,165.325652 C684.294312,148.787684 670.91049,135.381013 654.400709,135.381013 C637.890929,135.381013 624.507107,148.787684 624.507107,165.325652 L619.97348,165.325652 C619.97348,146.279556 635.387076,130.839646 654.400709,130.839646 C673.414343,130.839646 688.827939,146.279556 688.827939,165.325652 C688.827939,176.753846 683.235186,187.241969 674.047292,193.648329 Z" id="Oval-35" fill="#2F9BAE" fill-rule="nonzero" mask="url(#mask-3)"></path><g id="Rectangle-79" mask="url(#mask-3)" transform="translate(620.467127, 169.927140) rotate(-13.000000) translate(-620.467127, -169.927140) "><use fill="black" fill-opacity="1" filter="url(#filter-8)" xlink:href="#path-7"></use><use fill="#87E581" fill-rule="evenodd" xlink:href="#path-7"></use></g><g id="Combined-Shape" mask="url(#mask-3)" transform="translate(616.708961, 170.715839) rotate(-13.000000) translate(-616.708961, -170.715839) "><use fill="black" fill-opacity="1" filter="url(#filter-10)" xlink:href="#path-9"></use><use fill="#0D6574" fill-rule="evenodd" xlink:href="#path-9"></use></g><g id="Rectangle-78" mask="url(#mask-3)" transform="translate(686.868354, 212.077569) rotate(-25.000000) translate(-686.868354, -212.077569) "><use fill="black" fill-opacity="1" filter="url(#filter-12)" xlink:href="#path-11"></use><use fill="#29A99A" fill-rule="evenodd" xlink:href="#path-11"></use></g><g id="Combined-Shape-Copy-7" mask="url(#mask-3)" transform="translate(687.947359, 225.536401) rotate(63.000000) translate(-687.947359, -225.536401) "><use fill="black" fill-opacity="1" filter="url(#filter-14)" xlink:href="#path-13"></use><use fill="#0D6574" fill-rule="evenodd" xlink:href="#path-13"></use></g><g id="Oval-32" mask="url(#mask-3)"><use fill="black" fill-opacity="1" filter="url(#filter-16)" xlink:href="#path-15"></use><use fill="#FFFFFF" fill-rule="evenodd" xlink:href="#path-15"></use></g><g id="Oval-32-Copy-2" mask="url(#mask-3)"><use fill="black" fill-opacity="1" filter="url(#filter-18)" xlink:href="#path-17"></use><use fill="#9EF598" fill-rule="evenodd" xlink:href="#path-17"></use></g><g id="Oval-32-Copy-3" mask="url(#mask-3)"><use fill="black" fill-opacity="1" filter="url(#filter-20)" xlink:href="#path-19"></use><use fill="#9EF598" fill-rule="evenodd" xlink:href="#path-19"></use></g><g id="Oval-32-Copy" mask="url(#mask-3)"><use fill="black" fill-opacity="1" filter="url(#filter-22)" xlink:href="#path-21"></use><use fill="#FFFFFF" fill-rule="evenodd" xlink:href="#path-21"></use></g><path d="M476.538676,193.250062 L531.865991,193.250062 C533.567028,193.250062 534.945991,194.629025 534.945991,196.330062 L534.945991,231.893872 C534.945991,233.594909 533.567028,234.973872 531.865991,234.973872 L476.538676,234.973872 C474.837639,234.973872 473.458676,233.594909 473.458676,231.893872 L473.458676,196.330062 C473.458676,194.629025 474.837639,193.250062 476.538676,193.250062 Z" id="Rectangle-81-Copy-2" fill="#0B4651" opacity="0.800000012" mask="url(#mask-3)" transform="translate(504.202333, 214.111967) rotate(-1.000000) translate(-504.202333, -214.111967) "></path><path d="M484.853295,184.167327 L540.18061,184.167327 C541.881647,184.167327 543.26061,185.54629 543.26061,187.247327 L543.26061,222.811138 C543.26061,224.512175 541.881647,225.891138 540.18061,225.891138 L484.853295,225.891138 C483.152258,225.891138 481.773295,224.512175 481.773295,222.811138 L481.773295,187.247327 C481.773295,185.54629 483.152258,184.167327 484.853295,184.167327 Z" id="Rectangle-81" fill="#E0FCF9" mask="url(#mask-3)" transform="translate(512.516952, 205.029233) rotate(-1.000000) translate(-512.516952, -205.029233) "></path><rect id="Rectangle-4" fill="#87E581" mask="url(#mask-3)" x="489.861592" y="191.288927" width="9.10899654" height="27.3269896"></rect><rect id="Rectangle-4-Copy" fill="#87E581" mask="url(#mask-3)" x="508.079585" y="203.434256" width="9.10899654" height="15.1816609"></rect><rect id="Rectangle-4-Copy-2" fill="#87E581" mask="url(#mask-3)" x="526.297578" y="209.50692" width="9.10899654" height="9.10899654"></rect><path d="M531.904558,198.584814 L535.872396,195.563334 C538.08014,198.472474 541.503879,200.211849 545.220364,200.211849 L545.220364,205.204532 C539.929632,205.204532 535.045007,202.722978 531.904558,198.584814 Z" id="Oval-33-Copy" fill="url(#linearGradient-4)" fill-rule="nonzero" mask="url(#mask-3)"></path></g><path d="M1016.68559,155.870706 C1024.1613,151.624332 1023.47665,149.013767 1028.11364,148.344479 C1032.75062,147.675191 1033.99888,150.928689 1041.08927,149.622074 C1048.17967,148.315459 1048.06097,132.326876 1068.55622,132.58971 C1089.05146,132.852544 1088.27244,153.12491 1094.52342,153.12491 C1100.7744,153.12491 1100.4784,148.344479 1109.85003,148.344479 C1119.22165,148.344479 1123.38836,162.389227 1143.29961,162.389227 L990.856401,162.389227 C1003.09205,160.874462 1011.70178,158.701622 1016.68559,155.870706 Z" id="Path-72-Copy-8" fill="url(#linearGradient-1)"></path><g id="Group-62" transform="translate(55.666090, 160.925606)"><path d="M39.0695619,114.849444 C37.521582,116.25767 36.1687335,117.194955 35.0110163,117.661298 C30.0090827,119.67614 25.4525752,120.840603 25.4525752,122.426023 C34.1227416,123.138961 39.7122336,123.374108 42.2210513,123.131463 C44.729869,122.888819 45.2285469,120.128146 43.717085,114.849444 L39.0695619,114.849444 Z" id="Path-344-Copy" fill="url(#linearGradient-23)"></path><polygon id="Path-347" fill="#0B4651" points="24.3129051 92.0673157 39.2253594 114.905196 43.6547856 114.905196 33.9838453 83.540679 24.3129051 80.7221876"></polygon><path d="M36.459784,71.6718577 L33.5663959,71.9817477 C31.6451883,72.4116214 30.2309361,72.3083248 29.3236394,71.6718577 C28.4163427,71.0353906 27.2386518,71.6323165 25.7905667,73.4626355 L24.8606548,73.4626355 C25.9522827,69.9766677 27.1169609,68.2413018 28.3546896,68.2565379 C30.2112825,68.2793919 35.8892909,68.6570279 36.7941646,68.2336838 C37.3974137,67.9514545 37.2859535,69.0975124 36.459784,71.6718577 Z" id="Path-345-Copy" fill="#EABB92"></path><path d="M53.3105349,65.4582756 C49.5930247,67.7432925 46.5116339,69.3233851 44.0663623,70.1985535 C41.6210908,71.073722 38.2811344,71.4017159 34.046493,71.1825354 L31.9702327,66.4721961 L52.3496782,57.5509931 L53.3105349,65.4582756 Z" id="Path-346" fill="url(#linearGradient-24)"></path><path d="M30.2446203,70.1764222 L27.3512322,70.4863122 C25.4300246,70.916186 24.0157724,70.8128893 23.1084757,70.1764222 C22.201179,69.5399551 21.023488,70.1368811 19.575403,71.9672001 L18.6454911,71.9672001 C19.737119,68.4812323 20.9017972,66.7458664 22.1395259,66.7611024 C23.9961188,66.7839565 29.6741272,67.1615924 30.5790009,66.7382484 C31.18225,66.456019 31.0707898,67.6020769 30.2446203,70.1764222 Z" id="Path-345" fill="#FFD7B3"></path><path d="M25.0103002,115.139529 C16.6236517,117.955199 12.4303274,120.465341 12.4303274,122.669954 C21.3796326,123.405845 27.1490802,123.648562 29.7386701,123.398106 C32.32826,123.14765 32.842993,120.298096 31.2828691,114.849444 L25.0103002,115.139529 Z" id="Path-344" fill="url(#linearGradient-25)"></path><path d="M55.9654958,73.8605756 C31.3545218,72.0202576 12.8251695,71.8718229 10.8746413,75.0368925 C8.90502753,78.2329318 13.5570709,91.6135844 24.8307712,115.178851 L31.3545218,114.746226 C28.9165308,98.1310567 27.4656925,88.0082972 27.0020069,84.3779474 C35.2351551,90.7836675 47.0776657,96.5678774 60.9202563,93.3955008 C64.6928082,92.2916385 66.9732162,86.1721024 67.7614801,75.0368925 C60.061759,74.2649647 56.1297642,73.872859 55.9654958,73.8605756 Z" id="Path-343" fill="#0B4651"></path><polyline id="Path-348" stroke="#FFFFFF" stroke-width="0.917279966" points="28.5519838 98.0724666 27.0914488 86.8394995 33.88763 90.1340996"></polyline><path d="M7.10029291,47.626413 L7.11205397,47.626413 C7.59916912,47.626413 7.99405397,48.0212978 7.99405397,48.508413 L7.99405397,74.8585998 C7.99405397,75.345715 7.59916912,75.7405998 7.11205397,75.7405998 L7.10029291,75.7405998 C6.61317776,75.7405998 6.21829291,75.345715 6.21829291,74.8585998 L6.21829291,48.508413 C6.21829291,48.0212978 6.61317776,47.626413 7.10029291,47.626413 Z" id="Rectangle-73" fill="#42D4C3" transform="translate(7.106173, 61.683506) rotate(-27.000000) translate(-7.106173, -61.683506) "></path><path d="M26.654987,58.04829 L26.6667481,58.04829 C27.1538632,58.04829 27.5487481,58.4431748 27.5487481,58.93029 L27.5487481,85.2804768 C27.5487481,85.767592 27.1538632,86.1624768 26.6667481,86.1624768 L26.654987,86.1624768 C26.1678718,86.1624768 25.772987,85.767592 25.772987,85.2804768 L25.772987,58.93029 C25.772987,58.4431748 26.1678718,58.04829 26.654987,58.04829 Z" id="Rectangle-73-Copy" fill="#33BAAA" transform="translate(26.660868, 72.105383) rotate(85.000000) translate(-26.660868, -72.105383) "></path><path d="M58.6001149,27.8887253 C61.5441321,28.1061511 64.0279484,28.4490104 66.0515637,28.9173032 C67.6829499,29.2948288 70.7199029,35.4739226 67.9633728,46.963678 C67.8360745,47.4942822 67.1988048,48.0514803 66.0515637,48.6352723 L58.6001149,27.8887253 Z" id="Path-338" fill="url(#linearGradient-26)"></path><g id="Group-23" transform="translate(48.722800, 17.692197) rotate(-11.000000) translate(-48.722800, -17.692197) translate(36.144493, 2.139668)"><polygon id="Path-157" fill="#FFD7B3" points="11.2129357 23.3652373 11.2129357 31.0571231 18.5637711 30.1586872 16.870582 20.9030623"></polygon><path d="M4.48071624,11.7577054 C3.07440086,16.7479778 2.65470246,20.0087829 3.22162103,21.5401208 C3.36921072,21.9387842 4.16518019,21.8893297 4.47373387,22.3043423 C4.97281783,22.9756229 4.48932071,24.2930371 5.57275358,25.1785358 C9.35282223,28.2680174 17.6650361,25.387189 19.9530145,23.804976 C20.9194819,23.1366317 19.9423653,19.5584941 15.3543421,16.5547045 C13.585685,15.3967606 9.96114306,13.7977609 4.48071624,11.7577054 Z" id="Path-156" fill="#FFD7B3"></path><path d="M3.12989544,14.8332556 C0.234922723,16.2354801 -0.229626254,11.9223307 1.66948002,11.9223307 C-1.55258469,9.61290922 0.0615545569,1.00125436 5.91891034,0.333423926 C16.6820894,-0.893747305 13.6050361,6.54009911 17.7455528,5.69671716 C22.1387204,4.80187275 25.2305976,11.0467477 24.980777,15.2318421 C24.8686261,17.1106394 23.9896779,18.540816 21.9104119,19.7948398 C22.399319,19.7948398 23.3090312,21.0155284 22.6850106,22.250755 C22.186194,23.2381445 21.1051287,23.9739081 20.1248955,23.4700951 C20.6245775,25.9669105 14.4356645,25.5490042 11.9379178,16.5634507 C9.13985709,14.6140928 5.47439005,17.3699279 3.12989544,14.8332556 Z" id="Path-154" fill="#0B4651"></path><polygon id="Path-336" fill="url(#linearGradient-27)" points="15.3512587 4.75397088 11.8641154 16.648458 14.0376162 17.2752392 17.7154447 5.7221504"></polygon><path d="M12.7563455,16.9058509 C12.9864957,16.8834652 13.1402723,16.8834329 13.2176754,16.905754 C13.2950785,16.928075 14.5359264,13.0943839 16.940219,5.40468059 L16.3765407,5.17384351 L12.7563455,16.9058509 Z" id="Path-336-Copy" fill="#FFFFFF"></path><ellipse id="Oval-17-Copy" fill="url(#linearGradient-28)" cx="12.1343672" cy="18.8424869" rx="2.95960176" ry="2.99087094"></ellipse><ellipse id="Oval-17-Copy-3" fill="#FFFFFF" cx="12.0540802" cy="18.7613516" rx="1.39951381" ry="1.41430014"></ellipse></g><path d="M46.892068,38.64178 C46.8254816,36.5180527 48.0036324,34.304899 50.4265203,32.0023191 C52.8494083,29.6997391 55.5743939,28.3327879 58.6014773,27.9014655 C62.1315976,31.4634517 64.7052864,36.2359335 66.3225437,42.2189109 C67.8266544,47.783307 68.3602424,57.7153407 67.9233078,72.0150121 C67.8904394,73.0907041 70.0643741,72.0150121 70.0643741,75.0947527 C68.5465236,77.1828089 65.3537646,78.0202837 63.4279682,78.1991006 C62.1441039,78.3183118 57.5219243,77.9221162 49.5614293,77.0105136 C46.6727463,74.5402237 46.8699842,72.768376 50.153143,71.6949704 C49.5090149,58.2776751 48.8627472,47.9972914 48.2143399,40.8538191 C47.3328253,40.8538191 46.892068,40.1164727 46.892068,38.64178 Z" id="Path-337" fill="url(#linearGradient-29)"></path><path d="M50.2080631,71.3590749 C57.0693674,61.6347203 60.6137249,52.7983791 60.8411355,44.8500511 C57.9874988,46.4735709 54.1247274,51.7382725 49.2528212,60.644156 L50.2080631,71.3590749 Z" id="Path-341" fill="#0B4651" opacity="0.300000012"></path><path d="M52.3716546,36.3874497 L46.462496,54.7228668 C45.3546693,58.1603217 42.7639118,60.919928 39.40315,62.2422956 L28.7476653,66.4349365 L29.860514,70.785379 L39.3905252,69.463059 C46.1157235,68.5299148 52.051787,64.5895072 55.5229186,58.754244 C56.6091997,56.9281144 57.2561949,55.7974186 57.4639041,55.3621566 C57.9142846,54.4183684 59.0447552,50.9910674 60.8553161,45.0802535 L52.3716546,36.3874497 Z" id="Path-339" fill="url(#linearGradient-30)"></path><path d="M50.0523424,66.3707138 C56.316337,58.7240944 59.8753769,51.7711117 60.7294622,45.5117657" id="Path-340" stroke="#0B4651" stroke-width="0.882" stroke-linecap="round" stroke-linejoin="round"></path><path d="M48.7866691,47.4776634 C50.9376284,41.1472727 52.6725033,37.9396541 53.9912938,37.8548077" id="Path-342" stroke="#0B4651" stroke-width="0.882" stroke-linecap="round" stroke-linejoin="round"></path><path d="M54.055499,71.1879806 C59.4110229,67.8660917 59.7482753,52.9384157 68.1217369,52.9384157 C75.668826,52.9384157 77.1992246,74.2144818 74.2076697,81.857802 C71.2728673,88.0241465 70.109063,95.9624385 55.0822276,95.9624385 C45.3826866,95.9624385 36.7886299,93.5150908 29.3000575,88.6203953 C29.5190362,82.581525 31.3137285,78.8854986 34.6841342,77.5323158 C39.7397429,75.5025417 48.699975,74.5098694 54.055499,71.1879806 Z" id="Path-161" fill="#87E581"></path><path d="M34.5339505,88.1501369 L34.5339505,88.1501369 C35.1393216,88.2519381 35.5582395,88.8109452 35.4859937,89.4205501 L31.1971349,125.609616 C31.158751,125.933496 30.8650775,126.164937 30.5411969,126.126553 C30.5407117,126.126496 30.5402266,126.126438 30.5397416,126.126379 L30.5397416,126.126379 C30.2124519,126.086767 29.976033,125.794017 30.0062091,125.465723 L33.3525514,89.059978 C33.4039632,88.5006554 33.8990612,88.0889124 34.4583837,88.1403242 C34.4836864,88.14265 34.508893,88.1459232 34.5339505,88.1501369 Z" id="Path-163" fill="#0B4651" fill-rule="nonzero" transform="translate(32.748852, 107.133352) rotate(16.000000) translate(-32.748852, -107.133352) "></path><path d="M75.7668535,88.1501369 L75.7668535,88.1501369 C76.3722245,88.2519381 76.7911425,88.8109452 76.7188967,89.4205501 L72.4300379,125.609616 C72.391654,125.933496 72.0979805,126.164937 71.7740998,126.126553 C71.7736147,126.126496 71.7731296,126.126438 71.7726446,126.126379 L71.7726446,126.126379 C71.4453549,126.086767 71.208936,125.794017 71.2391121,125.465723 L74.5854543,89.059978 C74.6368661,88.5006554 75.1319641,88.0889124 75.6912867,88.1403242 C75.7165894,88.14265 75.741796,88.1459232 75.7668535,88.1501369 Z" id="Path-163-Copy-6" fill="#0B4651" fill-rule="nonzero" transform="translate(73.981755, 107.133352) scale(-1, 1) rotate(16.000000) translate(-73.981755, -107.133352) "></path><path d="M29.3000575,88.6203953 C29.5190362,82.581525 31.3137285,78.8854986 34.6841342,77.5323158 C39.7397429,75.5025417 48.699975,74.5098694 54.055499,71.1879806 C59.4110229,67.8660917 59.7482753,52.9384157 68.1217369,52.9384157" id="Path-161-Copy-2" stroke="#0B4651" stroke-width="0.882" stroke-linecap="round" stroke-linejoin="round"></path></g><g id="Group-63" transform="translate(349.178201, 69.835640)" stroke-linecap="round" stroke-linejoin="round"><path d="M35.9088962,27.6953192 C36.598104,25.9783346 36.9773945,24.1031192 36.9773945,22.1391646 C36.9773945,13.9093703 30.3171989,7.2378038 22.1014312,7.2378038 C13.8856635,7.2378038 7.22546789,13.9093703 7.22546789,22.1391646 C7.22546789,26.6781718 9.25142741,30.7431829 12.4469411,33.4763304" id="Oval-28" stroke="url(#linearGradient-25)" stroke-width="2.1"></path><path d="M31.4520367,22.1391646 C31.4520367,19.6995688 30.52095,17.4778112 28.9953199,15.8110099 M22.1014312,12.7725949 C19.5164896,12.7725949 17.1765336,13.8232941 15.4839672,15.5216013 M12.7508257,22.1391646 C12.7508257,24.6448244 13.7330227,26.9206881 15.3327855,28.6015021 C17.0357833,30.3907815 19.4386236,31.5057342 22.1014312,31.5057342" id="Oval-28-Copy" stroke="#56A096" stroke-width="1.68"></path><path d="M0,22.1391646 C0,28.2554476 2.48414751,33.7924449 6.50004686,37.7992676 C10.5123723,41.8025245 16.0537245,44.2783292 22.1742482,44.2783292 C26.3441904,44.2783292 30.2452949,43.1291195 33.5771743,41.1306124 M44.2028624,22.1391646 C44.2028624,9.91204161 34.3077146,0 22.1014312,0" id="Oval-28-Copy-2" stroke="#0D6574" stroke-width="3.36"></path></g><ellipse id="Oval-29" fill="url(#linearGradient-31)" cx="182.903511" cy="157.954424" rx="4.39195107" ry="4.39944937"></ellipse><path d="M90.6725382,163.878405 C118.59639,141.587361 146.325878,137.438511 173.861002,151.431854" id="Path-350" stroke="#6AC264" stroke-width="2" stroke-linecap="round" stroke-linejoin="round"></path><g id="Group-66" transform="translate(280.234813, 131.983481)"><path d="M15.0324601,144.982077 C10.7325699,146.770028 8.58262474,148.315254 8.58262474,149.617754 C8.58262474,150.920254 8.62912795,151.6834 8.72213438,151.907191 L19.9867526,151.907191 L19.9867526,144.982077 L15.0324601,144.982077 Z" id="Path-358" fill="#0B4651"></path><path d="M64.1441461,144.982077 C59.8442559,146.770028 57.6943107,148.315254 57.6943107,149.617754 C57.6943107,150.920254 57.7408139,151.6834 57.8338204,151.907191 L69.0984386,151.907191 L69.0984386,144.982077 L64.1441461,144.982077 Z" id="Path-358-Copy" fill="#0B4651" transform="translate(63.396375, 148.444634) scale(-1, 1) translate(-63.396375, -148.444634) "></path><path d="M19.5728812,101.821294 L15.2473866,144.834815 C15.1335966,145.966364 15.9586532,146.97591 17.0902022,147.0897 C17.1586648,147.096585 17.2274294,147.100034 17.2962372,147.100034 L17.2962372,147.100034 C18.6213127,147.100034 19.7634823,146.16775 20.0288977,144.869528 L28.8299078,101.821294 L19.5728812,101.821294 Z" id="Path-357" fill="#FFD7B3"></path><path d="M53.3490043,101.821294 L42.0746204,143.692483 C41.824087,144.622922 42.3752598,145.58029 43.3056993,145.830823 C43.4536196,145.870653 43.6061413,145.890828 43.7593302,145.890828 L43.7593302,145.890828 C45.1289749,145.890828 46.3551855,145.041857 46.8372214,143.75984 L62.606031,101.821294 L53.3490043,101.821294 Z" id="Path-357-Copy" fill="#FFD7B3" transform="translate(52.044359, 123.856061) scale(-1, 1) translate(-52.044359, -123.856061) "></path><polygon id="Path-356" fill="url(#linearGradient-4)" points="20.4470477 77.9777617 18.5218091 106.49006 30.5495369 106.49006 33.969673 89.669954 35.9350126 89.669954 40.6663875 106.49006 52.0856394 105.518919 45.2846953 77.9777617"></polygon><path d="M48.5297879,33.0682494 L56.1023307,30.1968605 L54.4828409,4.6523852 C55.7513641,1.71536891 56.6439618,0.285979804 57.1606341,0.364217882 C57.6773064,0.442455961 57.9356426,1.87184507 57.9356426,4.6523852 C63.1188333,1.01174093 65.8413979,-0.417648179 66.1033364,0.364217882 C66.4962441,1.53701697 62.579518,9.97514816 61.2757438,10.8452894 C60.406561,11.4253836 60.8411524,19.295774 62.579518,34.4564606 L52.2172534,40.8879395 L48.5297879,33.0682494 Z" id="Path-354" fill="#FFD7B3"></path><path d="M24.9034565,36.0905087 C19.6528227,36.0751763 16.5764882,36.494791 15.674453,37.3493529 C14.7724179,38.2039147 12.2799882,41.74399 8.19716414,47.9695787 L15.4420869,54.0126037 L19.0249344,49.697444 L19.0249344,79.954327 C32.6247289,81.6982141 41.4061784,81.2805778 45.3692828,78.701418 C43.144299,69.4619814 41.7639912,58.4933571 41.2283594,45.795545 L52.6947457,41.092139 L49.5765479,32.7388446 L37.6172024,36.0905087 L24.9034565,36.0905087 Z" id="Path-353" fill="#0B4651"></path><path d="M26.169617,27.4552956 L24.8556705,36.0271813 L21.4595485,36.0271813 C24.8171272,40.2133701 28.1305077,42.1415414 31.39969,41.8116952 C34.6688722,41.4818491 36.7603274,39.5536777 37.6740555,36.0271813 L33.5127234,36.0271813 L32.5980067,27.4552956 L26.169617,27.4552956 Z" id="Path-352" fill="#FFD7B3"></path><path d="M32.9772454,32.305749 C32.9574408,32.3149751 32.937588,32.324131 32.917687,32.3332164 C31.6793596,32.8985554 30.5981087,33.2216523 29.6739342,33.3025071 C28.7599546,33.38247 27.6535369,33.2557828 26.3546812,32.9224455 C26.0219804,32.8370619 25.6979007,32.7324964 25.3835608,32.6100709 L26.169617,27.4552956 L32.5980067,27.4552956 L32.9772454,32.305749 Z" id="Combined-Shape" fill="#0B4651" opacity="0.200000003"></path><g id="Group-65" transform="translate(28.760196, 21.003823) rotate(-6.000000) translate(-28.760196, -21.003823) translate(18.984563, 9.650405)"><path d="M2.6476882,3.41417633 L16.3502403,3.41417633 L16.3502404,15.8466616 C16.3502404,18.6256197 14.5923922,21.1004948 11.9684784,22.015746 C11.0157596,22.3480652 10.1925882,22.5142248 9.49896417,22.5142248 C8.80534227,22.5142248 7.9821738,22.3480662 7.02945877,22.0157491 L7.02945731,22.0157533 C4.40553961,21.1005028 2.6476882,18.6256249 2.6476882,15.8466633 L2.6476882,3.41417633 Z" id="Rectangle-74" fill="#FFD7B3"></path><path d="M2.62673959,16.9716229 L3.65594915,6.67687876 C9.47153241,8.57784824 13.5520742,9.06949714 15.8975746,8.15182545 C15.8510724,9.36966315 16.0225452,11.8512508 16.4119928,15.5965883 C18.6729651,10.7759452 19.6979188,5.62586122 19.4868541,0.1463365 C16.3865846,2.21044563 3.00568231,-0.433332503 2.24249945,0.899494163 C-0.671471444,2.64374239 -0.543391397,8.00111865 2.62673959,16.9716229 Z" id="Path-351" fill="#0B4651"></path><path d="M3.00367445,13.9276737 C3.51300776,13.9276737 3.5114407,12.6687582 3.5114407,11.6491941 C3.5114407,10.6296299 3.70164347,10.1543476 3.19231017,10.1543476 C2.68297686,10.1543476 1.66001316,10.0878735 1.66001316,11.1074376 C1.66001316,12.1270017 2.49434114,13.9276737 3.00367445,13.9276737 Z" id="Oval-30" fill="#FFD7B3"></path><path d="M16.8371174,13.9276737 C17.3464507,13.9276737 17.3448837,12.6687582 17.3448837,11.6491941 C17.3448837,10.6296299 17.5350864,10.1543476 17.0257531,10.1543476 C16.5164198,10.1543476 15.4934561,10.0878735 15.4934561,11.1074376 C15.4934561,12.1270017 16.3277841,13.9276737 16.8371174,13.9276737 Z" id="Oval-30-Copy" fill="#FFD7B3" transform="translate(16.436554, 12.040568) scale(-1, 1) translate(-16.436554, -12.040568) "></path></g><path d="M8.39965574,47.9841994 L0.174093353,61.500722 L16.4063484,74.1239801 C17.1352185,75.9520107 17.7206667,77.2297782 18.162693,77.9572825 C18.6047193,78.6847869 19.0197851,79.352481 19.4078904,79.9603649 L19.4078904,73.3700901 L22.0526255,75.5951566 L22.0526255,75.5951566 C22.4597017,74.7301217 22.227016,73.6991027 21.4878702,73.0927529 L19.4078904,71.3864654 L8.39965574,60.2949204 L14.8580734,53.4958322 L8.39965574,47.9841994 Z" id="Path-355" fill="#FFD7B3"></path></g><g id="Group-67" transform="translate(347.389162, 237.286431)"><path d="M55.9596614,45.6616387 C50.898462,13.7744275 36.2971486,-1.30608669 12.1557209,0.420096103 C-24.0564206,3.00937029 35.4092711,14.7650066 29.6127783,20.531273 C23.8162855,26.2975395 17.2866243,30.421765 20.4653873,36.1446856 C22.5845626,39.959966 34.4159873,43.1322838 55.9596614,45.6616387 Z" id="Path-313" fill="#29A99A"></path><path d="M44.5207198,14.3599244 C49.3247912,20.8815944 52.8421854,29.6699873 55.0729022,40.7251031 L53.5833121,44.7778289 L46.114523,44.1401429 C41.6146231,28.662223 41.0833578,18.7354868 44.5207271,14.3599343 Z" id="Combined-Shape" fill="#0B4651" opacity="0.300000012"></path><path d="M15.3891679,6.72523929 C34.6102387,10.7971356 45.8254953,22.1387971 49.0349377,40.7502239" id="Path-315" stroke="#0B4651" stroke-width="1.0450944" stroke-linecap="round" stroke-linejoin="round"></path><polyline id="Path-316" stroke="#0B4651" stroke-width="1.0450944" stroke-linecap="round" stroke-linejoin="round" points="33.8895311 28.6811419 45.7611149 28.6811419 45.7611149 19.1679737"></polyline><path d="M26.1911646,5.65620062 L30.6993699,12.3436124" id="Path-317" stroke="#0B4651" stroke-width="1.0450944" stroke-linecap="round" stroke-linejoin="round"></path><path d="M83.8946568,45.4822187 C89.5126294,45.3683676 92.247369,44.8339705 92.0988756,43.8790272 C89.0870148,24.5101064 71.2417807,11.9726928 56.1091773,11.9726928 C31.7315907,11.9726928 69.3121356,22.8745432 63.5156428,28.6408097 C57.71915,34.4070761 51.6101312,32.122116 54.7888942,37.8450367 C56.9080695,41.6603171 66.6099904,44.2060444 83.8946568,45.4822187 Z" id="Path-313-Copy" fill="#33BAAA" transform="translate(69.950940, 28.727456) scale(-1, 1) translate(-69.950940, -28.727456) "></path><path d="M50.8665036,42.7124115 C59.8923372,29.0841485 67.8912979,21.8472252 74.8633857,21.0016416" id="Path-318" stroke="#0B4651" stroke-width="1.0450944" stroke-linecap="round" stroke-linejoin="round"></path><path d="M57.701251,34.0450623 C68.0175663,33.0294199 75.0106203,34.0700294 78.680413,37.1668909" id="Path-319" stroke="#0B4651" stroke-width="1.0450944" stroke-linecap="round" stroke-linejoin="round"></path></g><path d="M0,273.901203 L187.060402,273.901203" id="Path-359" stroke="#0B4651" stroke-width="1.4" stroke-linecap="round" stroke-linejoin="round"></path><path d="M208.83019,273.901203 L395.890592,273.901203" id="Path-359-Copy-2" stroke="#0B4651" stroke-width="1.4" stroke-linecap="round" stroke-linejoin="round"></path><path d="M455.346153,273.901203 L486.731749,273.901203" id="Path-359-Copy" stroke="#0B4651" stroke-width="0.56" stroke-linecap="round" stroke-linejoin="round"></path><path d="M515.416709,273.901203 L750.093663,273.901203" id="Path-359-Copy-3" stroke="#0B4651" stroke-width="1.4" stroke-linecap="round" stroke-linejoin="round"></path><path d="M975.310406,274.048429 L1169.49414,274.048429" id="Path-359-Copy-5" stroke="#0B4651" stroke-width="1.4" stroke-linecap="round" stroke-linejoin="round"></path><g id="Group-68" transform="translate(624.000340, 48.227960)"><mask id="mask-33" fill="white"><use xlink:href="#path-32"></use></mask><g id="Rectangle-75" transform="translate(35.046135, 34.674321) rotate(-29.000000) translate(-35.046135, -34.674321) "><use fill="black" fill-opacity="1" filter="url(#filter-34)" xlink:href="#path-32"></use><use fill="#E0FCF9" fill-rule="evenodd" xlink:href="#path-32"></use></g><g id="Rectangle-75-Copy" mask="url(#mask-33)" transform="translate(56.568241, 62.646891) rotate(-29.000000) translate(-56.568241, -62.646891) "><use fill="black" fill-opacity="1" filter="url(#filter-36)" xlink:href="#path-35"></use><use fill="#6AC264" fill-rule="evenodd" xlink:href="#path-35"></use></g><g id="Path-360" mask="url(#mask-33)"><use fill="black" fill-opacity="1" filter="url(#filter-38)" xlink:href="#path-37"></use><use fill="#6AC264" fill-rule="evenodd" xlink:href="#path-37"></use></g></g><g id="Group-68-Copy" transform="translate(371.142086, 181.564083)"><mask id="mask-40" fill="white"><use xlink:href="#path-39"></use></mask><g id="Rectangle-75" transform="translate(27.966108, 27.951749) rotate(-29.000000) translate(-27.966108, -27.951749) "><use fill="black" fill-opacity="1" filter="url(#filter-41)" xlink:href="#path-39"></use><use fill="#E0FCF9" fill-rule="evenodd" xlink:href="#path-39"></use></g><g id="Rectangle-75-Copy" mask="url(#mask-40)" transform="translate(45.140314, 50.501065) rotate(-29.000000) translate(-45.140314, -50.501065) "><use fill="black" fill-opacity="1" filter="url(#filter-43)" xlink:href="#path-42"></use><use fill="#6AC264" fill-rule="evenodd" xlink:href="#path-42"></use></g><g id="Path-360" mask="url(#mask-40)"><use fill="black" fill-opacity="1" filter="url(#filter-45)" xlink:href="#path-44"></use><use fill="#6AC264" fill-rule="evenodd" xlink:href="#path-44"></use></g></g><polygon id="Triangle" fill="#0B4651" transform="translate(192.112440, 232.177393) rotate(32.000000) translate(-192.112440, -232.177393) " points="192.11244 223.662329 200.612991 240.692456 183.61189 240.692456"></polygon><g id="Group-69" transform="translate(444.295437, 133.970329)"><path d="M15.7354046,102.705701 C14.676371,125.292847 12.5470217,139.528492 9.34735649,145.412635 C11.4767058,145.637421 13.0765384,145.637421 14.1468543,145.412635 C22.7479916,123.855378 26.2550372,109.311973 24.6679913,101.782422 C22.3197649,100.731412 19.342236,101.039172 15.7354046,102.705701 Z" id="Path-370" fill="#FFD7B3"></path><path d="M30.3049902,102.068124 C34.8492863,125.67699 37.1214343,140.080822 37.1214343,145.279621 C39.921867,145.183484 41.7676397,145.183484 42.6587525,145.279621 C42.4246978,137.107756 42.2018678,131.342334 41.9902626,127.983355 C40.8680743,110.169968 39.6754993,100.934503 39.114756,99.9556579 L30.3049902,102.068124 Z" id="Path-368" fill="#FFD7B3"></path><path d="M9.65915784,70.9871227 C7.81083001,78.1221925 13.5671873,95.5975033 13.9002928,96.9792067 C14.1223631,97.9003423 14.2333983,100.171114 14.2333983,103.791522 C20.1076797,105.060484 24.4942716,105.627825 27.393174,105.493544 C30.2920765,105.359263 34.5855534,104.389851 40.2736049,102.585307 L35.3170793,72.4341505 L9.65915784,70.9871227 Z" id="Path-367" fill="#0B4651"></path><path d="M50.3553215,14.9061558 L58.1668357,14.9061558 C57.2448328,11.8159304 56.3633726,10.2708178 55.522455,10.2708178 C54.6815374,10.2708178 53.4726835,10.2708178 51.8958934,10.2708178 L50.3553215,14.9061558 Z" id="Path-366" fill="url(#linearGradient-4)"></path><g id="Path-365"><use fill="black" fill-opacity="1" filter="url(#filter-47)" xlink:href="#path-46"></use><use fill="#E0FCF9" fill-rule="evenodd" xlink:href="#path-46"></use></g><path d="M47.2693492,30.6170761 C46.3895922,28.2713272 45.8244845,26.9535517 45.5740263,26.6637495 C45.1983389,26.2290462 44.1628338,23.3131798 45.1983389,23.7699063 C46.2338441,24.2266327 47.0490721,26.2415825 47.9088961,25.5832594 C48.4821121,25.1443773 49.7574895,23.0831225 51.7350284,19.3994949 C53.3371052,20.7477641 54.0418568,21.9167986 53.8492833,22.9065984 C53.6567097,23.8963983 52.6242452,25.8174955 50.7518898,28.6698899 L50.7518898,31.3130079 L47.2693492,30.6170761 Z" id="Path-364" fill="#FFD7B3"></path><g id="Group-70" transform="translate(18.134508, 10.218076)" fill="#FFD7B3"><path d="M13.2399971,5.7531834e-14 C15.6236124,6.74798982 16.1895705,10.5232782 14.9378712,11.3258652 C13.6861719,12.1284523 11.6137598,12.9523456 8.72063488,13.7975454 L11.3222921,23.2745064 L4.0273297,23.2745064 L0,1.23638139 L13.2399971,5.7531834e-14 Z" id="Path-362"></path></g><path d="M11.7653232,34.627237 L8.75947234,72.3899765 C15.9103823,74.4451278 21.3681109,75.2062854 25.1326583,74.6734495 C28.8972056,74.1406135 32.5592093,73.6293261 36.1186693,73.1395872 L33.3046439,48.7266126 C36.8892281,56.3521051 40.047334,59.8880057 42.7789614,59.3343144 C45.4330775,58.7963344 48.2998598,49.729777 51.3793084,32.1346423 L51.3793164,32.1346437 C51.5883242,30.9404295 50.7896566,29.8028933 49.5954424,29.5938854 C49.4704817,29.5720152 49.3438604,29.5610183 49.2170003,29.5610183 L49.2170003,29.5610183 C47.6922508,29.5610183 46.3634532,30.5994321 45.9949194,32.0789739 C43.7537517,41.0765168 42.2518587,45.5752885 41.4892386,45.5752885 C40.0894218,45.5752885 36.8651905,26.9977264 27.4346998,29.9071901 C23.9518803,30.9816981 18.7287548,32.5550471 11.7653232,34.627237 Z" id="Path-363" fill="#7DD977"></path><path d="M13.7749439,1.65194681 C5.85362018,6.7315 11.6160678,11.4650506 8.72012244,13.5796805 C4.89429685,16.3733125 -0.573195008,15.9307013 1.39769923,20.8496094 C5.88620984,32.0519207 4.71783719,29.7066886 2.55886564,33.4067476 C-4.0020379,44.6508655 2.75480971,53.9287342 14.8548872,53.9287342 C26.6579441,53.9287342 29.4597943,38.9901208 24.9984706,32.1546572 C22.7569231,28.7202469 29.4073572,29.8149355 30.6199155,22.3919053 C31.8324738,14.9688752 24.4068834,13.955174 26.8655225,13.5796805 C31.8069145,12.8250108 31.5666998,14.6847814 34.5760327,7.74740262 C37.2201517,1.65194681 20.1700658,-2.44892858 13.7749439,1.65194681 Z" id="Path-361" fill="#0B4651"></path><path d="M37.4188145,144.319834 C37.199875,147.955238 37.381929,149.881668 37.9649765,150.099124 C38.548024,150.316579 43.6831266,150.425307 53.3702844,150.425307 C53.7741912,149.291499 53.7741912,148.598195 53.3702844,148.345397 C48.4229616,145.248957 43.7238266,144.171197 41.9215104,144.319834 C40.6147197,145.279078 39.1138211,145.279078 37.4188145,144.319834 Z" id="Path-369" fill="#0B4651"></path><path d="M10.0425171,144.319834 C9.8235775,147.955238 10.0056315,149.881668 10.588679,150.099124 C11.1717265,150.316579 16.3068292,150.425307 25.993987,150.425307 C26.3978937,149.291499 26.3978937,148.598195 25.993987,148.345397 C21.0466641,145.248957 16.3475291,144.171197 14.5452129,144.319834 C13.2384222,145.279078 11.7375236,145.279078 10.0425171,144.319834 Z" id="Path-369-Copy" fill="#0B4651"></path></g><path d="M173.826558,128.415696 C167.595398,114.431928 169.885975,112.214653 173.826558,111.644332 C177.76714,111.074011 188.539671,124.20445 194.565204,123.091043 C200.590736,121.977636 209.356887,94.6709288 226.774073,94.8948977 C244.191258,95.1188667 237.016341,120.845626 242.328525,120.845626 C247.640708,120.845626 245.035035,122.002365 252.999194,122.002365 C260.963353,122.002365 249.146331,133.970329 266.067229,133.970329 L151.876501,133.970329 C156.644326,119.086331 163.961012,117.234787 173.826558,128.415696 Z" id="Path-72-Copy-7" fill="#33BAAA" opacity="0.200000003" transform="translate(208.971865, 114.431928) scale(-1, 1) translate(-208.971865, -114.431928) "></path><path d="M968.396907,193.286727 C950.493489,209.983195 927.806911,253.022205 954.551105,258.848939 C981.295298,264.675673 1013.33727,225.552251 1013.33727,204.025814 C1013.33727,182.499377 979.886571,182.571633 968.396907,193.286727 Z" id="Path-371" fill="url(#linearGradient-1)"></path><path d="M552.463411,61.4612449 C625.195659,81.4781733 684.700913,76.3578435 730.979175,46.1002554" id="Path-372" stroke="#6AC264" stroke-width="2" stroke-linecap="round" stroke-linejoin="round"></path><g id="Rectangle-83"><use fill="black" fill-opacity="1" filter="url(#filter-49)" xlink:href="#path-48"></use><use fill="#87E581" fill-rule="evenodd" xlink:href="#path-48"></use></g><path d="M1061.87343,109.046194 L1061.87343,109.046194 C1063.39153,107.415448 1065.94418,107.324133 1067.57492,108.842236 C1067.5766,108.843795 1067.57827,108.845356 1067.57994,108.846918 L1071.70891,112.703812 C1073.71795,114.580477 1073.82527,117.730468 1071.94861,119.739515 C1071.86825,119.825543 1071.78486,119.908695 1071.6986,119.988811 L1071.6986,119.988811 C1069.75776,121.791515 1066.72301,121.679529 1064.9203,119.738683 C1064.80281,119.612187 1064.69224,119.479439 1064.58906,119.341019 L1061.53505,115.243896 C1060.13628,113.367377 1060.27868,110.759272 1061.87343,109.046194 Z" id="Rectangle-83-Copy-2" fill="#29A99A" transform="translate(1066.931619, 114.515831) rotate(47.000000) translate(-1066.931619, -114.515831) "></path><polygon id="Rectangle-83-Copy" fill="#FFFFFF" transform="translate(705.978341, 243.329392) rotate(45.000000) translate(-705.978341, -243.329392) " points="697.610619 234.947384 714.346063 234.947384 714.346063 251.711399"></polygon><g id="Group-72" transform="translate(786.410035, 1.012111)"><path d="M42.4907558,62.1400002 L40.4926724,63.947181 L39.2734159,64.3624269 C37.4454897,64.9849693 35.9181995,66.2716034 34.9943075,67.9672733 L33.3775544,70.9345896 L35.5203225,70.9345896 C37.2542153,70.9345896 38.8882531,70.1233862 39.9364818,68.742227 L41.6425295,66.4943171 L41.6425295,69.5480616 C42.2342507,70.0957315 42.5928527,70.2037845 42.7183355,69.8722206 C42.8438183,69.5406566 43.6246927,67.5656434 45.0609585,63.947181 L42.4907558,62.1400002 Z" id="Path-383" fill="#FFD7B3"></path><path d="M134.990181,43.5846265 L137.417511,35.1720607 C138.422292,35.3523412 138.916349,35.7117643 138.899682,36.25033 C138.874683,37.0581787 138.924682,40.1327739 138.899682,39.3781835 C138.883016,38.8751232 140.820103,37.0180827 144.710944,33.807062 C145.730371,36.8547626 145.884156,38.9921481 145.1723,40.2192184 C144.460444,41.4462886 141.875514,43.4521933 137.417511,46.2369323 L134.990181,43.5846265 Z" id="Path-382" fill="#FFD7B3"></path><path d="M61.2809653,76.3642079 L47.034385,101.728504 C45.4329586,104.579648 41.9553947,105.786983 38.9317321,104.541571 L15.0193151,94.6923159 L12.5458103,99.878875 L36.5840918,113.687227 C39.990633,115.644052 44.2198582,115.462496 47.4461668,113.220929 L66.6495129,99.878875 L77.6498527,112.316744 C80.0198376,114.99644 80.2320997,118.955445 78.1622214,121.873184 L61.4434813,145.44023 L66.6495129,148.645688 L90.1694512,123.017622 C92.0524267,120.965873 92.680822,118.057297 91.8128122,115.411199 L81.6961022,84.5707671 L61.2809653,76.3642079 Z" id="Path-379" fill="url(#linearGradient-50)"></path><g id="Group-71" transform="translate(89.121440, 57.301416) rotate(21.000000) translate(-89.121440, -57.301416) translate(47.043715, 12.171581)"><path d="M42.3806614,31.0621408 L51.5898151,32.7540586 C59.0404045,34.1228906 66.6420405,31.2994866 71.392615,25.3988911 L78.4089842,16.6839962 C79.4263696,15.4203217 81.1558857,14.980101 82.653619,15.6035921 L82.653619,15.6035921 C83.7925428,16.0777144 84.3314709,17.3853467 83.8573485,18.5242705 C83.7994601,18.6633284 83.7276549,18.7961745 83.6430292,18.9207805 L74.2180876,32.7984063 C70.4209448,38.389457 64.1266417,41.7667712 57.3684709,41.8393515 L50.0263554,41.9182032 C50.3252414,47.5172859 50.5731663,52.0271395 50.7701301,55.4477642 C50.9670938,58.8683888 52.8076905,64.5441337 56.2919202,72.474999 C54.9320518,73.6367248 53.3039928,74.43765 51.4077434,74.8777743 C49.5114939,75.3178987 46.8660152,75.698671 43.4713073,76.0200912 L40.5110799,34.6097156 L42.3806614,31.0621408 Z" id="Path-375" fill="#0B4651"></path><g id="Group-28" transform="translate(39.507228, 19.933192) scale(-1, 1) rotate(11.000000) translate(-39.507228, -19.933192) translate(28.903686, 1.821379)"><path d="M1.38928847,6.5577255 C0.393019578,12.7651436 0.0876735003,16.5018488 0.473250237,17.767841 C0.858826973,19.0338333 1.99191345,21.474309 3.87250968,25.089268 L8.26426151,24.7635105 L8.52482613,31.4630202 C11.0153518,34.6608922 11.9568205,36.2061918 11.3492323,36.0989189 C10.7416442,35.991646 12.6725607,34.3539465 17.1419818,31.1858203 L13.7699265,19.933786 L16.0140552,9.60914267 L1.38928847,6.5577255 Z" id="Path-252" fill="#FFD7B3"></path><path d="M7.62101834,0.291679975 C14.431784,0.893740945 18.0192431,2.69572751 18.3833955,5.69763967 C18.929624,10.2005079 21.6727496,8.74458851 20.760447,12.8958116 C19.8481443,17.0470347 16.5351132,19.9666822 14.7554389,24.1164806 C12.5609871,20.1427521 12.7589061,18.9170109 13.9149467,16.1766889 C15.851683,11.5857761 12.9750808,11.8760644 12.6628685,14.1287178 C12.3506562,16.3813712 12.4404208,23.7094362 9.93838143,25.8263593 C7.43634207,27.9432824 4.29641461,27.8513007 3.45373176,27.4610878 C1.8858661,26.7350717 -0.904632569,25.1360781 0.969445002,17.741498 C2.30651142,17.2515536 6.36476958,17.7906753 8.63503055,20.4776063 C9.57399607,19.5964819 10.4102814,16.6762324 11.1438866,11.7168578 C2.21669535,9.51428412 -1.23636082,7.05944438 0.784718077,4.35233862 C2.80579698,1.64523286 5.08456373,0.291679975 7.62101834,0.291679975 Z" id="Path-251" fill="#0B4651"></path></g><path d="M35.3777821,30.9752237 L42.0265676,35.3187548 L43.9908222,32.449394 C44.6704726,32.9462132 45.1021135,33.4850999 45.2857448,34.0660542 C45.8557219,35.8692908 45.4834396,39.7957255 45.5400055,40.5303953 C45.5584154,40.7695015 43.7992043,38.7445887 43.8130892,39.9788283 C45.5591826,43.9354724 46.5775347,56.0288946 46.8681453,76.2590949 C45.0841747,78.4227028 43.0233507,79.5045068 40.6856731,79.5045068 C39.138139,79.5045068 37.0773149,78.4227028 34.5032009,76.2590949 L35.3777821,30.9752237 Z" id="Path-374" fill="#C8E8E5"></path><path d="M40.3331578,39.8452573 L41.6464942,42.5117 C39.9762737,46.2503253 39.9762737,49.7499443 41.6464942,53.010557 C44.151825,57.901476 52.5675408,55.2543436 55.8235486,59.1809333 C58.7205542,62.6745833 62.1146445,63.0682557 66.0058195,60.3619506 C65.5067251,59.5109637 65.060482,58.7513506 64.6670901,58.0831114 C63.7208671,56.4757999 62.4547718,54.0968156 60.1690569,53.010557 C54.6023432,50.365043 47.0501833,53.2675757 44.9948787,51.3191071 C43.6246757,50.0201281 43.0392052,47.1903522 43.2384672,42.8297795 L44.9948787,40.2106033 L42.1763348,37.8931535 L40.3331578,39.8452573 Z" id="Path-377" fill="#33BAAA"></path><polyline id="Path-376" stroke="#0B4651" stroke-width="0.616" points="39.8867435 40.4557353 42.1692314 37.921096 46.3171336 41.5952815"></polyline><path d="M35.5444907,29.6790092 C38.1732939,31.8787424 39.8580935,34.6919199 40.5988896,38.1185416 C44.01232,53.9076835 44.4298753,71.2246575 41.8515554,90.0694636 C34.5255834,88.8832839 29.0130443,86.6885953 25.3139381,83.4853979 C21.6148319,80.2822005 18.6776782,76.1687532 16.5024769,71.145056 C21.9924387,68.6468621 25.4723375,65.3381119 26.9421732,61.2188053 C28.4120089,57.0994987 28.9284854,51.3491776 28.4916027,43.967842 L21.0692682,45.1515116 C17.0797802,45.7877313 13.6355081,48.294326 11.8033281,51.8948686 L4.09565223,67.0417516 C3.59216905,68.0311809 2.48972908,68.562339 1.40216297,68.3394809 L1.40216297,68.3394809 C0.469979517,68.1484629 -0.130853804,67.2379282 0.0601641906,66.3057447 C0.0701741523,66.2568953 0.0823000596,66.2085034 0.0965076655,66.1607058 L6.45679116,44.7632812 C7.56426093,41.0375026 10.3258132,38.0293145 13.9434927,36.6079381 C20.0104371,34.2242522 24.5800789,32.4210657 27.6524182,31.1983785 C31.6268461,29.6166906 34.257537,29.1102341 35.5444907,29.6790092 Z" id="Path-373" fill="#0B4651"></path><path d="M56.0285021,59.2707828 C60.755708,60.1465797 63.769804,58.4847319 65.0707901,54.2852396 C68.1444784,53.7984064 70.2143694,52.9494947 71.2804633,51.7385044 L72.2722841,56.5688296 C69.3865981,60.2869044 65.6898466,62.1459419 61.1820296,62.1459419 C59.7547117,62.1459419 58.0368692,61.1875555 56.0285021,59.2707828 Z" id="Path-378" fill="#1B998A"></path></g><path d="M62.2031636,144.384474 L58.8347366,147.789294 L59.8847826,152.047674 L60.5220817,164.763082 L60.5220817,164.763082 C62.2831677,164.763082 63.7958521,163.511819 64.1260345,161.781962 L66.7008645,148.292187 L62.2031636,144.384474 Z" id="Path-381" fill="#0B4651"></path><path d="M14.1944525,98.7537491 L2.32140684,109.384397 C-2.14939178e-12,108.451542 -0.580351709,107.332441 0.580351709,106.027094 C1.74105513,104.721747 5.146814,100.109114 10.7976283,92.1891956 L15.6836314,95.0318481 L14.1944525,98.7537491 Z" id="Path-380" fill="#0B4651"></path></g><g id="Group-29" transform="translate(1067.408013, 224.161314) scale(-1, 1) translate(-1067.408013, -224.161314) translate(1035.389273, 173.070934)"><path d="M44.3577501,45.5757543 C44.8911713,28.7500734 42.1995194,17.071981 36.2827943,10.5414772 C33.339252,11.7991441 30.7539727,24.8965791 34.444676,28.0586157 C36.9051448,30.1666402 38.264581,36.5173758 38.5229846,47.1108227 L44.3577501,45.5757543 Z" id="Path-261" fill="#1D9F90"></path><path d="M37.7187225,19.311994 C39.8812998,30.6074326 40.723036,37.5267747 40.243931,40.0700204" id="Path-268" stroke="#0D6574" stroke-width="0.672"></path><path d="M39.2651592,40.7012996 C45.0168894,25.0262098 53.1622246,17.1176086 63.7011649,16.9754958 C64.2480258,27.8761878 61.6573973,31.3100638 53.4827014,33.4661891 C45.3080055,35.6223143 57.0941745,38.2881918 53.4827014,42.5920167 C51.0750527,45.4612333 47.1905704,49.2283439 41.8292546,53.8933486 L37.7602383,47.2471914 L39.2651592,40.7012996 Z" id="Path-260" fill="#2CB0A0"></path><path d="M41.4787459,50.6481374 C43.4963352,34.1824421 48.6659648,24.2272495 56.9876346,20.7825596" id="Path-266" stroke="#0D6574" stroke-width="0.672"></path><path d="M37.4164554,50.6786028 C37.4164554,48.1497128 15.3246585,41.9366022 16.9261801,34.4258844 C18.5277016,26.9151666 17.9788836,18.4962306 5.50905383,24.0300496 C-6.96077593,29.5638687 6.50505688,5.33295147 1.21907294,0.335077421 C17.6976439,1.10529774 43.8225416,19.5306793 40.6194985,50.6786028 C37.4164554,52.3698783 37.4164554,53.2074928 37.4164554,50.6786028 Z" id="Path-259" fill="#33BAAA"></path><path d="M4.61914452,2.63129107 C25.8146808,17.0051998 36.7240457,34.3164901 37.3472393,54.5651617" id="Path-262" stroke="#0D6574" stroke-width="0.672"></path><polygon id="Rectangle-45" fill="#7DD977" points="32.6999898 49.0467646 51.3208174 49.0467646 51.3208174 102.18076 32.6999898 102.18076"></polygon><path d="M32.6999898,54.9505418 L51.3208174,54.9505418 L51.3208174,55.8588152 L32.6999898,55.8588152 L32.6999898,54.9505418 Z M32.6999898,57.6753621 L51.3208174,57.6753621 L51.3208174,58.5836355 L32.6999898,58.5836355 L32.6999898,57.6753621 Z" id="Combined-Shape" fill="#FFFFFF"></path><path d="M32.6999898,90.8273419 L51.3208174,90.8273419 L51.3208174,91.7356153 L32.6999898,91.7356153 L32.6999898,90.8273419 Z M32.6999898,93.5521621 L51.3208174,93.5521621 L51.3208174,94.4604355 L32.6999898,94.4604355 L32.6999898,93.5521621 Z" id="Combined-Shape-Copy-4" fill="#FFFFFF"></path><polygon id="Rectangle-45-Copy-3" fill="#0B4651" opacity="0.200000003" points="44.5083195 49.0467646 51.3208174 49.0467646 51.3208174 102.18076 44.5083195 102.18076"></polygon><path d="M21.4781275,34.3984601 C27.3321006,33.9048888 31.5636575,34.9121674 34.172798,37.420296 C33.4294926,35.6328718 33.9226131,32.8099787 35.6521594,28.9516166" id="Path-263" stroke="#0D6574" stroke-width="0.672"></path><path d="M9.64226952,13.9110603 C15.9063978,14.3862678 20.1200727,15.6139138 22.2832945,17.5939983" id="Path-264" stroke="#0D6574" stroke-width="0.672"></path><path d="M25.2502333,21.2054136 C25.1316653,16.7449074 25.4432285,14.3339144 26.1849229,13.9724346" id="Path-265" stroke="#0D6574" stroke-width="0.672"></path><path d="M46.8539363,31.2988191 C50.9616089,28.9694973 54.1929093,28.3871669 56.5478375,29.5518278" id="Path-267" stroke="#0D6574" stroke-width="0.672"></path></g><path d="M889.645329,186.218932 C947.995082,182.476988 937.233807,136.772057 920.642465,133.881729 C904.051124,130.991401 899.45093,152.05547 910.160031,157.201227 C927.617913,165.589797 987.675462,127.011517 1025.50537,71.8598616" id="Path-384" stroke="#2F8F83" stroke-width="2" stroke-linecap="round" stroke-linejoin="round" stroke-dasharray="6.840000152587891,4.480000019073486"></path><g id="Group-73" transform="translate(1042.313085, 46.190570) rotate(-11.000000) translate(-1042.313085, -46.190570) translate(1006.889210, 22.405968)"><polygon id="Path-387" fill="url(#linearGradient-51)" points="20.9151041 46.2998072 54.9100372 19.2866788 23.4312095 24.6954118"></polygon><polygon id="Path-385" fill="url(#linearGradient-50)" points="0.179540754 14.8923625 48.5811102 40.2200099 70.1553754 0.244393304"></polygon><polygon id="Path-386" fill="#0B4651" points="17.2004285 23.8895389 53.3701866 10.6231725 27.7578103 29.1999584 20.7678852 47.2613431"></polygon></g><path d="M770.216263,273.553732 L930.882913,273.553732" id="Path-359-Copy-4" stroke="#0B4651" stroke-width="1.4" stroke-linecap="round" stroke-linejoin="round"></path></g></g></g></g></svg> 