<?xml version="1.0" encoding="UTF-8"?> <svg xmlns="http://www.w3.org/2000/svg" xmlns:xlink="http://www.w3.org/1999/xlink" width="553px" height="410px" viewBox="0 0 553 410"><!-- Generator: Sketch 52.5 (67469) - http://www.bohemiancoding.com/sketch --><title>Supporting Success Copy</title><desc>Created with Sketch.</desc><defs><linearGradient x1="57.6964029%" y1="-28.1753217%" x2="43.3336469%" y2="91.3331566%" id="linearGradient-1"><stop stop-color="#5AB155" offset="0%"></stop><stop stop-color="#14AD9B" offset="100%"></stop></linearGradient><linearGradient x1="57.6964029%" y1="-28.1753217%" x2="43.1413235%" y2="92.9334256%" id="linearGradient-2"><stop stop-color="#58B152" offset="0%"></stop><stop stop-color="#33BAAA" offset="100%"></stop></linearGradient><linearGradient x1="57.6964029%" y1="-28.1753217%" x2="43.1413235%" y2="92.9334256%" id="linearGradient-3"><stop stop-color="#7ECC79" offset="0%"></stop><stop stop-color="#33BAAA" offset="100%"></stop></linearGradient><linearGradient x1="57.6964029%" y1="-28.1753217%" x2="0%" y2="76.7067273%" id="linearGradient-4"><stop stop-color="#43993D" offset="0%"></stop><stop stop-color="#289F91" offset="100%"></stop></linearGradient><linearGradient x1="57.6964029%" y1="-28.1753217%" x2="43.5622303%" y2="89.4311777%" id="linearGradient-5"><stop stop-color="#7ECC79" offset="0%"></stop><stop stop-color="#23A394" offset="100%"></stop></linearGradient><linearGradient x1="57.6964029%" y1="-28.1753217%" x2="43.1413235%" y2="92.9334256%" id="linearGradient-6"><stop stop-color="#56B450" offset="0%"></stop><stop stop-color="#33BAAA" offset="100%"></stop></linearGradient><linearGradient x1="57.6964029%" y1="-28.1753217%" x2="43.4125488%" y2="90.6766359%" id="linearGradient-7"><stop stop-color="#BAFFB5" offset="0%"></stop><stop stop-color="#3CD8C5" offset="100%"></stop></linearGradient></defs><g id="Pages" stroke="none" stroke-width="1" fill="none" fill-rule="evenodd"><g id="Home---Approach-v3-" transform="translate(-218.000000, -2910.000000)"><g id="Section-1" transform="translate(218.000000, 2320.000000)"><g id="Supporting-Success" transform="translate(0.000000, 590.000000)"><g id="Supporting-Success-Copy"><path d="M107,62 L37,383" id="Path-257" stroke="#0B4651" stroke-width="1.6716105" stroke-linecap="round" stroke-linejoin="round"></path><path d="M79,77 L104,398" id="Path-257-Copy" stroke="#0B4651" stroke-width="1.6716105" stroke-linecap="round" stroke-linejoin="round"></path><path d="M193,77 L218,398" id="Path-257-Copy-2" stroke="#0B4651" stroke-width="1.6716105" stroke-linecap="round" stroke-linejoin="round"></path><polygon id="Rectangle-43" fill="#33BAAA" points="50 0 228.527879 0 246 242 67.4721213 242"></polygon><path d="M223,62.5 C223,45.6553151 209.344685,32 192.5,32 C175.655315,32 162,45.6553151 162,62.5 C162,79.3446849 175.655315,93 192.5,93" id="Oval-18" stroke="#FFFFFF" stroke-width="2.228814" stroke-linecap="round" stroke-linejoin="round"></path><polyline id="Path-273" stroke="#FFFFFF" stroke-width="1.6716105" stroke-linecap="round" stroke-linejoin="round" points="190 89 193 93.1568222 190 97"></polyline><polygon id="Path-272" fill="#0B4651" points="89 145 93.4663801 197 108 197 103.630916 145"></polygon><polygon id="Path-272-Copy-3" fill="#FFFFFF" points="162 164 165.332346 196 180 196 176.765847 164"></polygon><polygon id="Path-272-Copy" fill="#FFFFFF" points="114 168 116.793246 196 131 196 128.275598 168"></polygon><polygon id="Path-272-Copy-2" fill="#0B4651" points="140 182 141.578009 196 155 196 153.487032 182"></polygon><path d="M72,42.5 L124.68943,42.5" id="Path-271" stroke="#FFFFFF" stroke-width="5.0148315" stroke-linecap="round" stroke-linejoin="round"></path><path d="M71,61.5 L102.687828,61.5" id="Path-271-Copy" stroke="#FFFFFF" stroke-width="1.6716105" stroke-linecap="round" stroke-linejoin="round"></path><path d="M185,57.5 L200.683265,57.5" id="Path-271-Copy-4" stroke="#AAE6A6" stroke-width="1.6716105" stroke-linecap="round" stroke-linejoin="round"></path><path d="M185,63.5 L191.68939,63.5" id="Path-271-Copy-5" stroke="#AAE6A6" stroke-width="1.6716105" stroke-linecap="round" stroke-linejoin="round"></path><path d="M185,70.5 L208.686316,70.5" id="Path-271-Copy-6" stroke="#AAE6A6" stroke-width="1.6716105" stroke-linecap="round" stroke-linejoin="round"></path><path d="M73,78.5 L98.700536,78.5" id="Path-271-Copy-2" stroke="#FFFFFF" stroke-width="1.6716105" stroke-linecap="round" stroke-linejoin="round"></path><path d="M76,96.5 L136,96.5" id="Path-271-Copy-3" stroke="#FFFFFF" stroke-width="1.6716105" stroke-linecap="round" stroke-linejoin="round"></path><polygon id="Rectangle-44-Copy" fill="#0B4651" opacity="0.100000001" points="66 225 211.672924 225 213 238 67.3270756 238"></polygon><rect id="Rectangle-46" fill="#FFFFFF" x="142" y="227" width="34" height="11" rx="5.5"></rect><polygon id="Rectangle-44" fill="#7DD977" points="64 231 209.672924 231 211 244 65.3270756 244"></polygon><path d="M202.308207,378 C192.202115,380.826973 187.111801,382.705469 187.037267,383.635488 C186.962733,384.565507 187,385.687011 187.149068,387 L212,387 L211.115953,378 L202.308207,378 Z" id="Path-256" fill="#0B4651"></path><path d="M240.142475,378 C232.14857,380.901386 228.113713,382.806183 228.037904,383.714391 C227.962096,384.622599 228,385.717802 228.151617,387 L250,386.788935 L249.100836,378 L240.142475,378 Z" id="Path-256-Copy" fill="#0B4651"></path><path d="M254.905044,129 C267.783174,159.089408 273.3852,176.767813 271.711123,182.035215 C270.037046,187.302617 266.526284,192.624212 261.178837,198 L248,133.182602 L254.905044,129 Z" id="Path-255" fill="#0B4651"></path><path d="M201,230 L201,379.029072 L210.855654,380.689893 C217.032631,352.848523 220.12112,330.29477 220.12112,313.028635 C225.23905,296.299086 229.506393,276.747139 232.923149,254.372792 C234.924825,317.297112 236.719651,358.849206 238.307628,379.029072 C241.055894,380.864219 244.724185,381.417826 249.3125,380.689893 L260,235.106062 L201,230 Z" id="Path-254" fill="url(#linearGradient-1)"></path><g id="Group-28" transform="translate(205.000000, 62.000000)"><path d="M5.73017227,16.0264935 C2.84812011,27.3893692 1.88743606,33.2628685 2.84812011,33.6469914 C3.80880416,34.0311143 4.28914619,35.2756073 4.28914619,37.3804705 L9.70836853,51.9051984 L17.2318137,51.9051984 L15.2343518,66.9133352 L33.5736102,66.9133352 L29.9457078,41.4699143 L17.2318137,17.9767309 L5.73017227,16.0264935 Z" id="Path-252" fill="#FFD7B3"></path><path d="M16.2204475,0.590393561 C30.1464829,1.80903368 37.4817934,5.45646017 38.2263791,11.532673 C39.3432577,20.6469923 44.9521518,17.7000452 43.0867582,26.1025946 C41.2213646,34.505144 37.567462,49.0735658 30.9213672,49.0535508 C24.2752724,49.0335358 15.5989333,37.8826786 17.9627,32.335954 C21.9227627,23.0434225 15.5161055,22.9753011 14.8777221,27.5349287 C14.2393387,32.0945563 16.3840185,47.5332069 14.8777221,51.5233135 C13.8735244,54.1833846 11.2933552,54.5469917 7.13721435,52.614135 C3.72047695,42.5409455 2.93297548,36.9625414 4.77470993,35.878923 C7.5373116,34.2534952 12.048753,38.7326296 12.2012615,34.6520807 C12.3029339,31.9317148 11.7359631,27.0566178 10.5003492,20.0267896 C0.862398718,18.0281743 -1.8903172,14.2891212 2.24220144,8.80963014 C6.37472007,3.33013909 11.0341354,0.590393561 16.2204475,0.590393561 Z" id="Path-251" fill="#0B4651"></path></g><g id="Group-31" transform="translate(129.000000, 91.000000)"><path d="M19.6161031,22.4706353 C17.6559953,19.2034909 16.7056527,17.3645809 16.7650753,16.9539053 C16.8542091,16.3378918 15.5931535,5.62641332 11.3341874,3.76775212 C8.49487675,2.52864464 5.26973784,1.90909091 1.65877072,1.90909091 C-0.231452767,9.48292571 -0.231452767,14.2781785 1.65877072,16.2948492 C3.54899421,18.3115199 6.24449954,19.7667724 9.74528671,20.6606068 L13.5901526,27.6178691 L19.6161031,22.4706353 Z" id="Path-269" fill="#FFD7B3"></path><path d="M5.1580875,4.7744542 L11.7285063,0.301781789" id="Path-270" stroke="#FFFFFF" stroke-width="1.6716105" stroke-linecap="round" stroke-linejoin="round"></path></g><path d="M207.314211,123.553183 C223.867247,116.861174 233.07886,119.416895 242.019667,122.025743 C247.980205,123.764975 252.255939,126.133429 254.846871,129.131105 L263.343706,203.671232 L265,238.429101 C254.653031,241.476367 244.372681,243 234.158948,243 C223.945215,243 211.911389,242.232717 198.05747,240.698151 L203.441576,151.231728 L180.874609,169.452567 C176.804256,172.739019 170.840387,172.103542 167.553935,168.033189 C167.225105,167.625924 166.930597,167.192103 166.673439,166.736182 L140.863026,120.976439 C139.096565,117.844648 140.109225,113.877228 143.160552,111.975149 L143.160552,111.975149 C146.174676,110.096262 150.141118,111.014774 152.022528,114.027323 L173.599964,148.5775 C174.088991,149.360539 175.120205,149.598883 175.903244,149.109856 C176.022165,149.035587 176.13127,148.946651 176.227988,148.845144 C190.471714,133.896086 200.833788,125.465432 207.314211,123.553183 Z" id="Path-253" fill="#0B4651"></path><g id="Group-27" transform="translate(19.000000, 59.000000)"><g id="Group-30" transform="translate(310.898928, 0.000000)"><rect id="Rectangle-40" fill="#C9F0EB" x="0" y="0" width="149.739076" height="106.838718" rx="4.457628"></rect><path d="M25.3795043,40.0645193 L25.3795043,61.4820296" id="Path-247" stroke="#0B4651" stroke-width="0.83580525" opacity="0.229999989" stroke-linecap="round" stroke-linejoin="round"></path><polyline id="Path-248" stroke="#0B4651" stroke-width="0.83580525" opacity="0.229999989" stroke-linecap="round" stroke-linejoin="round" points="26.6484796 52.0661134 41.797506 52.0661134 41.797506 38.1566851 49.9677034 38.1566851"></polyline><polygon id="Rectangle-42" fill="#FFFFFF" points="93.904166 79.4930939 119.28367 79.4930939 119.28367 90.3041547 93.904166 90.3041547"></polygon><polyline id="Path-250" stroke="#0B4651" stroke-width="0.83580525" opacity="0.229999989" stroke-linecap="round" stroke-linejoin="round" points="91.3582495 50.7736941 91.3582495 74.1931625 129.846429 74.1931625 129.846429 42.3916902"></polyline><rect id="Rectangle-41" fill="#FFFFFF" x="17.765653" y="16.5345635" width="16.4966778" height="19.0783425"></rect><rect id="Rectangle-41-Copy" fill="#5EC48E" x="16.4966778" y="66.1382541" width="16.4966778" height="19.0783425"></rect><polygon id="Rectangle-41-Copy-2" fill="#33BAAA" opacity="0.400000006" transform="translate(60.763116, 36.668454) rotate(3.000000) translate(-60.763116, -36.668454) " points="52.5178452 27.1318958 69.0118754 27.1288794 69.0083877 46.2050118 52.5143575 46.2080282"></polygon><polygon id="Rectangle-41-Copy-4" fill="#33BAAA" transform="translate(91.218522, 36.668454) rotate(3.000000) translate(-91.218522, -36.668454) " points="82.9732504 27.1318958 99.4672806 27.1288794 99.4637929 46.2050118 82.9697627 46.2080282"></polygon><polygon id="Rectangle-41-Copy-3" fill="#FFFFFF" opacity="0.900000036" transform="translate(127.532009, 26.073735) rotate(-10.000000) translate(-127.532009, -26.073735) " points="119.28245 16.533066 135.770159 16.5429321 135.781568 35.6144036 119.293859 35.6045376"></polygon><path d="M73.0070521,37.2567335 L78.8985355,37.2567335" id="Path-249" stroke="#0B4651" stroke-width="0.83580525" opacity="0.229999989" stroke-linecap="round" stroke-linejoin="round"></path></g><path d="M377.425489,207.725763 C362.028719,211.341298 347.405913,228.873822 353.918969,243.193094 C358.261007,252.739276 364.277259,257.512366 371.967725,257.512366 L380.183754,205.119069 C388.609424,204.446509 387.690003,205.315407 377.425489,207.725763 Z" id="Path-258" fill="url(#linearGradient-2)"></path><path d="M367.348831,262.362911 L354.044085,324.389561" id="Path-246-Copy-2" stroke="#0B4651" stroke-width="1.6716105" stroke-linecap="round" stroke-linejoin="round"></path><path d="M427.010249,256.961017 C426.854645,256.457797 428.605579,255.407904 429.107646,255.251942 C429.609712,255.095981 430.14286,255.377489 430.298464,255.880709 L451.395274,324.107167 C451.550878,324.610387 451.270015,325.144759 450.767948,325.30072 C450.265882,325.456682 449.732734,325.175174 449.57713,324.671954 L427.010249,256.961017 Z" id="Path-246-Copy" fill="#0B4651" fill-rule="nonzero"></path><polygon id="Path-243" fill="#FFD7B3" points="352.748487 263.768897 342.17849 318.457454 349.046496 319.588937 368.870401 266.372876"></polygon><path d="M382.96373,266.347193 L409.137115,321.992846 L417.235433,321.992846 L404.202091,267.223985 C412.226583,259.411377 412.226583,254.828972 404.202091,253.47677 C392.719878,251.63535 385.640424,255.925492 382.96373,266.347193 Z" id="Path-242" fill="#FFD7B3"></path><path d="M389.636086,217.652844 C382.998885,217.544301 379.420794,217.544301 378.901814,217.652844 C366.823446,220.178988 360.341143,230.130936 357.935259,235.608823 C355.374312,241.439769 353.290422,250.573078 351.683591,263.00875 C359.657355,266.559024 365.403339,268.554652 368.921543,268.995634 C382.477792,270.694814 396.286847,269.761137 410.348708,266.194605 L408.219929,255.427331 C414.495903,252.683909 419.992684,247.960163 424.710272,241.256091 C429.427859,234.55202 427.792483,225.619153 419.804142,214.457491 L389.636086,217.652844 Z" id="Path-236" fill="#0B4651"></path><path d="M369.934454,93.6482948 C362.220074,112.319263 361.30273,123.690342 367.182423,127.761533 C375.458552,133.492053 372.7022,142.995817 374.280884,143.123774 C375.6469,143.234493 394.054803,143.99174 394.491961,136.643071 C394.582723,135.117366 388.838384,131.008343 377.258944,124.316 L369.934454,93.6482948 Z" id="Path-173" fill="#0B4651"></path><path d="M384.242717,136.135815 C380.597488,133.431054 375.734655,133.873701 369.654216,137.463755 C364.300243,140.624885 361.108928,152.747084 359.202756,175.063953 C359.089696,176.38763 336.484796,179.264287 335.934339,181.506537 C335.696357,182.475941 335.696357,185.095405 335.934339,189.364932 L373.711705,189.364932 L376.54553,218.514438 C386.711958,221.433771 396.203101,222.314754 405.01896,221.157388 C413.83482,220.000022 420.032059,218.79301 423.61068,217.536351 L419.3634,192.326962 L434.142573,191.266505 L423.61068,158.312921 L417.380591,138.819395 L396.32773,129.603654 L384.242717,136.135815 Z" id="Path-178" fill="#7DD977"></path><path d="M408.332629,253.772077 C411.152155,251.566438 412.729808,248.330652 413.065586,244.064719 C413.569254,237.665819 412.685156,220.297737 421.925195,213.095616 C420.515372,203.153881 420.515372,196.783809 421.925195,193.985398 L437.531923,193.06019 C452.881464,240.697706 443.148366,265.187327 408.332629,266.529052 C405.013026,262.716455 405.013026,258.46413 408.332629,253.772077 Z" id="Path-238" fill="url(#linearGradient-3)"></path><polygon id="Path-240" fill="url(#linearGradient-4)" points="421.081522 213.967642 430.600605 208.681251 434.65087 206.556485 435.681179 203.505324 432.286845 194.599541 419.440235 194.599541"></polygon><path d="M400.614332,165.148807 C399.123733,161.781901 398.084259,158.82844 397.495909,156.288424 C396.80477,153.304652 394.419448,150.256556 393.670718,151.623813 C393.171565,152.535319 393.171565,154.090189 393.670718,156.288424 C386.829526,152.56219 382.804135,151.00732 381.594543,151.623813 C379.780156,152.548553 380.496203,161.221534 384.750421,162.710216 C387.586567,163.702671 391.025555,166.395873 395.067386,170.789823 C395.638501,168.448752 396.156144,167.040623 396.620315,166.565436 C397.084486,166.090248 398.415825,165.618038 400.614332,165.148807 Z" id="Path-234" fill="#FFD7B3"></path><path d="M381.902308,121.146627 L381.902308,138.651569 C381.757941,146.108867 383.621083,149.837516 387.491733,149.837516 C391.362384,149.837516 394.149471,145.084396 395.852994,135.578155 L398.516825,117.700449 L381.902308,121.146627 Z" id="Path-177" fill="#FFD7B3"></path><path d="M0.23056133,324.331823 L488.500008,324.331823" id="Path-166" stroke="#0B4651" stroke-width="0.855"></path><path d="M507.820648,324.331823 L533.231262,324.331823" id="Path-166-Copy" stroke="#0B4651" stroke-width="0.855"></path><path d="M178.737392,190.783425 L158.621902,329.249195" id="Path-163-Copy-4" stroke="#4AC09B" stroke-width="2.7860175" stroke-linecap="round" stroke-linejoin="round"></path><path d="M473.77413,190.783425 L453.65864,329.249195" id="Path-163-Copy-5" stroke="#4AC09B" stroke-width="2.7860175" stroke-linecap="round" stroke-linejoin="round" transform="translate(463.716385, 260.016310) scale(-1, 1) translate(-463.716385, -260.016310) "></path><path d="M212.240532,133.548398 L279.745473,133.548398 C281.567137,133.548398 283.146199,134.809346 283.549237,136.585864 L293.321584,179.660595 C293.798182,181.761356 292.481539,183.850718 290.380779,184.327317 C290.09762,184.391557 289.808174,184.423978 289.51782,184.423978 L222.012879,184.423978 C220.191216,184.423978 218.612154,183.16303 218.209116,181.386512 L208.436769,138.311781 C207.960171,136.21102 209.276814,134.121658 211.377574,133.645059 C211.660732,133.580819 211.950179,133.548398 212.240532,133.548398 Z" id="Rectangle-29" fill="#7DD977"></path><polygon id="Rectangle-29-Copy" fill="#FFFFFF" points="212.706038 137.046094 279.097235 137.046094 289.052315 180.926282 222.661118 180.926282"></polygon><path d="M245.665336,133.854508 C257.339037,148.877688 267.681588,155.767252 276.692992,154.523201 C285.704395,153.27915 291.650439,158.471756 294.531122,170.101018 L292.869848,192.481551 L244.677217,192.481551 L229.785296,133.854508 L245.665336,133.854508 Z" id="Path-170" fill="#0B4651" opacity="0.100000001"></path><rect id="Rectangle-28" fill="#277A5E" x="218.898225" y="184.423978" width="69.1591493" height="3.81566851" rx="1.90783425"></rect><path d="M234.695278,131.0397 L232.828845,126.151435 C230.914017,125.824413 229.441026,124.974769 228.409872,123.602503 C226.863142,121.544105 228.236004,110.875022 231.441817,109.940849 C228.625639,105.722713 228.480519,102.897099 229.532884,101.889813 C230.585249,100.882526 239.861832,116.036321 242.191891,129.676239 C243.745264,138.769518 241.246393,139.224005 234.695278,131.0397 Z" id="Path-169" fill="#FFD7B3"></path><rect id="Rectangle-27" fill="#0B4651" x="151.008051" y="188.239646" width="322.954193" height="6.99539226" rx="3.49769613"></rect><path d="M271.375615,324.331823 C271.375615,324.331823 257.042569,332.501482 258.776873,336.232439 C259.802374,338.438569 265.625053,339.346952 276.24491,338.957586 L276.244911,338.957596 C278.641629,338.869723 280.539224,336.901279 280.539224,334.502951 L280.539224,324.331823 C274.430151,324.331823 271.375615,324.331823 271.375615,324.331823 Z" id="Path-165-Copy" fill="url(#linearGradient-3)"></path><path d="M254.258884,262.48576 L269.966141,323.771387 C270.59012,326.205989 272.784139,327.908604 275.297431,327.908604 L275.297431,327.908604 C277.656205,327.908604 279.568369,325.99644 279.568369,323.637666 L279.568369,254.322054 L254.258884,262.48576 Z" id="Path-167" fill="#0B4651"></path><path d="M191.430176,326.875602 C191.430176,326.875602 168.678147,331.202109 169.937386,335.972905 C170.436507,337.86389 174.968038,341.289248 186.795609,341.289248 C189.784289,341.289248 193.136002,340.987601 196.850747,340.384307 L196.850745,340.384298 C199.008529,340.033862 200.593785,338.170382 200.593785,335.984327 L200.593785,329.293658 C194.484713,327.681621 191.430176,326.875602 191.430176,326.875602 Z" id="Path-165" fill="url(#linearGradient-3)"></path><path d="M318.903798,233.774939 L244.271608,229.11581 C234.595324,228.51174 225.638438,234.232167 222.116975,243.265144 L189.632275,326.592308 C188.715511,328.943917 189.878683,331.593456 192.230291,332.510219 C192.36384,332.562282 192.499763,332.608034 192.637612,332.647321 L192.637612,332.647321 C195.481759,333.457925 198.514441,332.245081 200.01529,329.696807 L234.714181,270.781978 C239.05185,263.417103 247.783903,259.868859 256.029276,262.120654 L300.656903,274.30837 L318.903798,233.774939 Z" id="Path-164" fill="#0B4651"></path><path d="M334.265006,143.575171 C334.670972,143.133006 335.772059,144.080673 337.568267,146.418174 C341.888733,152.040625 350.463212,173.125404 344.992272,179.592977 C339.01456,186.659639 331.20388,185.050518 321.560229,174.765615 L334.265006,143.575171 Z" id="Path-162" fill="url(#linearGradient-5)"></path><polygon id="Path-157" fill="#FFD7B3" points="300.675199 127.902385 300.675199 144.257536 316.434123 142.347204 312.804217 122.667097"></polygon><g id="Group-23" transform="translate(278.540060, 79.493094)"><path d="M6.19141036,24.0621653 C3.6665247,37.7183358 4.90543622,46.6093194 9.9081449,50.7351162 C17.4122079,56.9238113 35.96733,52.7085393 40.8723613,49.3443016 C44.1423822,47.1014765 32.5820652,38.6740978 6.19141036,24.0621653 Z" id="Path-156" fill="#FFD7B3"></path><path d="M5.82376415,30.4660482 C-0.382558409,33.4475787 -1.37847135,24.2765889 2.69288519,24.2765889 C-0.486550415,13.833058 5.00937726,1.89956939 17.5665385,0.479570782 C40.6409394,-2.12974643 36.2097526,15.1721001 45.068684,13.2927808 C52.6444246,11.6856755 55.9241149,20.8124364 52.4760584,29.5763442 C51.0104964,33.3013557 48.1634636,35.8460971 45.068684,40.8176047 C46.1168165,40.8176047 48.0670828,43.4131379 46.72929,46.0395831 C45.6599132,48.1390558 43.3422956,49.7034998 41.2408445,48.632249 C42.3120766,53.9411932 24.2767445,56.5783119 18.9220061,37.4724537 C12.9234463,33.3275611 10.8991989,38.6330709 5.82376415,30.4660482 Z" id="Path-154" fill="#0B4651"></path><path d="M18.7763737,37.6452012 L18.7763737,30.8366826 C18.7763737,23.0816738 24.3220519,16.4362061 31.9518556,15.0483091 L42.0925583,13.2036679 L38.2958811,9.20090279 L28.0211196,11.5440354 C20.7532823,13.2014469 15.2514556,19.155403 14.1719918,26.5312575 L14.0065218,27.6618954 L14.0065218,27.6618954 C14.0065218,30.8699734 12.4672755,33.8832533 9.86801483,35.7635747 L9.21300704,36.2374114 L18.7763737,37.6452012 Z" id="Path-155" fill="url(#linearGradient-3)"></path><path d="M39.7837919,11.0956653 C38.0372982,11.4939487 35.4175576,12.0913737 31.9245701,12.8879404 C23.4337218,14.8242563 17.1031539,22.0054089 16.1770423,30.7513299 L15.3024177,39.011023" id="Path-155-Copy" stroke="#FFFFFF" stroke-width="0.50148315" stroke-linecap="round" stroke-linejoin="round"></path><path d="M15.0805276,46.0045139 C18.0663043,46.0045139 20.4867545,43.0437063 20.4867545,39.391365 C20.4867545,35.7390238 18.0663043,32.7782162 15.0805276,32.7782162 C14.2229832,32.7782162 13.1949107,32.7782162 11.9963101,32.7782162 C10.4483039,35.8010763 9.67430075,38.0054593 9.67430075,39.391365 C9.67430075,41.1220314 10.4483039,43.3264144 11.9963101,46.0045139 C13.4767513,46.0045139 14.5048238,46.0045139 15.0805276,46.0045139 Z" id="Oval-17" fill="url(#linearGradient-6)"></path><ellipse id="Oval-17-Copy" fill="url(#linearGradient-7)" cx="12.2351451" cy="39.391365" rx="5.40622689" ry="6.61314888"></ellipse><ellipse id="Oval-17-Copy-2" fill="#FFFFFF" cx="12.2351451" cy="39.391365" rx="1.9917678" ry="2.58775391"></ellipse></g><path d="M301.46502,141.364405 C307.232097,143.806299 311.908106,143.806299 315.493045,141.364405 C319.077985,138.922511 325.31193,139.619639 334.194879,143.455789 L345.192184,233.007902 L293.146867,242.214546 C283.215959,239.851768 278.181286,237.384654 278.042849,234.813205 C277.728333,228.971132 279.480483,223.872387 283.299299,219.516969 C286.922108,213.88108 287.850768,197.846704 286.085279,171.413841 L258.898855,176.557315 C251.46447,177.963847 244.199725,173.412433 242.222074,166.109194 L233.648832,134.449193 C232.823689,131.402034 233.990118,128.163953 236.56888,126.342956 L236.56888,126.342956 C238.581839,124.921501 241.365981,125.401011 242.787436,127.41397 C242.927527,127.612358 243.051188,127.821852 243.157185,128.040366 L254.7457,151.93021 C256.89464,156.360274 262.227977,158.209489 266.658041,156.060548 C266.987503,155.900733 267.306805,155.720771 267.614134,155.521686 L277.885532,148.86795 C284.555368,144.547279 292.215501,141.996022 300.144044,141.45461 L301.46502,141.364405 Z" id="Path-158" fill="url(#linearGradient-3)"></path><path d="M296.762679,141.612839 C295.82782,154.556664 298.839864,161.907487 305.798809,163.665306 C316.237226,166.302035 312.180144,180.496219 324.180832,178.510512 C336.181519,176.524806 331.671412,144.692542 324.875778,141.612839 C321.273637,141.660793 318.744295,141.329562 317.287753,140.619147 L312.953641,143.433371 L304.050881,144.28765 L300.248803,142.712971 L296.762679,141.612839 Z" id="Path-160" fill="#0B4651" opacity="0.340000004"></path><path d="M294.138789,142.57597 C296.663768,143.353105 297.247987,160.446207 307.686405,163.082936 C318.124822,165.719665 316.956353,178.195504 327.305403,175.882589 C337.654452,173.569674 337.038696,143.007039 322.263102,138.431997 C318.621278,137.30436 316.368451,137.609447 315.504621,139.347257 L314.222616,142.161482 L305.319856,143.01576 L302.152788,140.340949 C300.91203,139.678488 299.696665,139.347257 298.506693,139.347257 C296.721735,139.347257 294.855562,140.340949 294.138789,142.57597 Z" id="Path-160-Copy" fill="url(#linearGradient-1)"></path><path d="M299.670628,139.434217 C303.089406,142.122111 305.744899,144.89499 307.637104,147.752853 C312.427028,156.375322 326.290846,157.485102 327.953378,150.288978 C329.061733,145.491562 327.64353,142.095711 323.69877,140.101425 C320.237984,138.700989 317.998366,138.123075 316.979916,138.367684 C316.346158,138.519898 315.579825,139.733381 315.22217,140.101425 C313.392491,141.984249 306.267604,141.934943 303.930263,141.005083 C302.372036,140.385176 300.952157,139.861554 299.670628,139.434217 Z" id="Path-159" fill="#0B4651"></path><g id="Group-8" transform="translate(249.353630, 203.502320)"><path d="M92.4458496,67.1244051 C92.4951875,67.1059674 92.5451741,67.0893229 92.5957115,67.0745042 C93.7541869,66.7348119 94.9680607,67.4007235 95.3069746,68.5618594 L117.075353,143.141402 C117.273648,143.820773 116.895936,144.534827 116.22363,144.751559 C115.556454,144.966637 114.841646,144.598898 114.62706,143.930189 L90.9637889,70.1888523 C90.5612823,68.9345297 91.2140945,67.5847141 92.4458496,67.1244051 Z" id="Path-163-Copy-2" fill="#0B4651" fill-rule="nonzero"></path><path d="M28.9415422,66.7741989 L0,135.528812" id="Path-163-Copy" stroke="#0B4651" stroke-width="1.6716105" stroke-linecap="round" stroke-linejoin="round"></path><path d="M67.8783063,65.7980572 L69.7730349,132.524154" id="Path-163-Copy-3" stroke="#0B4651" stroke-width="1.6716105" stroke-linecap="round" stroke-linejoin="round"></path><path d="M52.7566229,32.2475196 C64.2379432,25.1842333 59.2021209,1.71301976 85.9204726,0.511068563 C109.663232,0.511068563 113.398648,32.2475196 106.98527,48.4994055 C100.693559,61.6108185 94.3783167,79.5994079 62.1633716,79.5994079 C41.3692275,79.5994079 21.934957,73.7091385 3.86056026,61.9285998 C3.86056026,50.6001305 7.47334479,43.497269 14.6989138,40.6200152 C25.5372674,36.3041346 41.2753026,39.3108059 52.7566229,32.2475196 Z" id="Path-161" fill="#7DD977"></path><path d="M59.1258218,66.7297308 C56.3603975,72.1020821 53.7253681,76.2502212 51.2207335,79.1741481 C54.3747093,79.8343896 57.2565617,79.8343896 59.8662906,79.1741481 L59.1258218,66.7297308 Z" id="Path-168" fill="#0B4651" opacity="0.119999997"></path><path d="M37.3310048,37.2167764 C42.8916561,36.3291951 48.4158523,34.9179534 52.7566229,32.2475196 C64.2379432,25.1842333 59.2021209,1.71301976 85.9204726,0.511068563 C87.810012,0.426065784 89.5881676,0.535213079 91.2549396,0.838510449" id="Path-161-Copy" stroke="#0B4651" stroke-width="1.6716105" stroke-linecap="round" stroke-linejoin="round"></path><path d="M61.2163628,65.8888561 L61.2163628,65.8888561 C62.5133478,66.1051767 63.4112001,67.30281 63.2551921,68.6084233 L54.0640026,145.528408 C53.9808934,146.223939 53.3496807,146.720405 52.6541496,146.637296 C52.6539222,146.637269 52.6536948,146.637242 52.6534674,146.637214 L52.6534674,146.637214 C51.952158,146.553029 51.4454202,145.925696 51.5106022,145.222366 L58.6819357,67.8419005 C58.7932635,66.6406461 59.8573217,65.7570859 61.0585761,65.8684137 C61.1114025,65.8733095 61.164033,65.8801281 61.2163628,65.8888561 Z" id="Path-163" fill="#0B4651" fill-rule="nonzero"></path></g><g id="Group-24" transform="translate(370.540763, 101.751160)"><path d="M0.520548744,1.76643709 C0.571997139,19.9173022 4.37948854,28.9927347 11.9430229,28.9927347 C23.2883246,28.9927347 29.3186324,17.5586154 29.4374561,7.6059777 C29.516672,0.97088587 19.8777028,-0.975627667 0.520548744,1.76643709 Z" id="Path-171" fill="#0B4651" opacity="0.200000003"></path><path d="M0.520548744,1.76643709 C-0.629919691,19.7119476 2.57661329,28.6847028 10.1401477,28.6847028 C21.4854493,28.6847028 26.0460524,17.3337527 26.1648762,7.38111495 C26.244092,0.746023113 17.6959829,-1.12553617 0.520548744,1.76643709 Z" id="Path-171-Copy" fill="#FFD7B3"></path></g><path d="M369.106673,105.54427 C372.108525,107.276795 375.54145,108.143057 379.405446,108.143057 C385.20144,108.143057 388.02353,105.584186 390.499807,104.39815 C397.129451,105.54427 389.293779,118.479624 394.030149,121.654311 C398.766518,124.828997 394.219316,133.743485 395.652088,135.800327 C412.765431,127.915672 421.786861,154.379463 423.881149,158.501067 C425.860452,159.538131 441.461313,137.992648 414.895238,120.498713 C411.70305,118.396636 417.703664,111.530911 413.781338,104.39815 C409.523984,96.6561377 403.890374,99.7056416 400.210629,94.2295346 C395.064671,86.5714445 387.803591,78.6399474 374.669775,84.4914959 C363.52931,89.4549406 361.674943,96.472532 369.106673,105.54427 Z" id="Path-172" fill="#0B4651"></path><path d="M373.266673,190.058193 L372.569772,161.404945" id="Path-179" stroke="#0B4651" stroke-width="1.114407" stroke-linecap="round" stroke-linejoin="round"></path><path d="M418.98909,182.033161 L402.7697,166.638523 C401.133374,165.085403 398.547817,165.152856 396.994698,166.789182 C396.888424,166.901149 396.788584,167.01905 396.695655,167.142317 L396.695655,167.142317 C395.050861,169.324111 394.988358,172.314091 396.540538,174.562715 L407.238711,190.061028" id="Path-233" stroke="#0B4651" stroke-width="1.114407" stroke-linecap="round" stroke-linejoin="round"></path><path d="M410.123923,158.025198 L413.761218,177.01415" id="Path-235" stroke="#0B4651" stroke-width="1.114407" stroke-linecap="round" stroke-linejoin="round"></path><path d="" id="Path-237" stroke="#979797" stroke-width="0.5572035"></path><path d="M431.99062,195.305358 C436.281735,202.010271 436.281735,206.325611 431.99062,208.251379 C425.553949,211.140031 411.352285,215.815186 412.604425,233.712287 C413.439185,245.643687 410.845255,253.180661 404.822636,256.323207" id="Path-239" stroke="#0B4651" stroke-width="1.6716105" stroke-linecap="round" stroke-linejoin="round"></path><path d="" id="Path-241" stroke="#979797" stroke-width="0.5572035"></path><path d="M342.90823,316.661326 L321.19282,321.746987 C320.497313,323.345215 321.133232,324.317768 323.100578,324.664648 C325.067924,325.011528 333.57871,325.184968 348.632935,325.184968 L349.405906,317.845305 L342.90823,316.661326 Z" id="Path-244" fill="#0B4651"></path><path d="M406.10666,316.449185 C401.320102,317.920796 399.115359,320.611027 399.49243,324.519876 C405.14849,325.26476 411.327253,325.26476 418.028719,324.519876 L415.861397,316.449185 L406.10666,316.449185 Z" id="Path-245" fill="#0B4651"></path><path d="M413.205404,262.095992 L413.205404,262.095992 C414.078716,262.199409 414.702839,262.991205 414.599422,263.864517 C414.598768,263.870037 414.598086,263.875553 414.597374,263.881066 L406.897203,323.548103 C406.829526,324.072517 406.354851,324.44649 405.829162,324.389561 L405.829162,324.389561 C405.306502,324.332959 404.9286,323.863503 404.984946,323.340815 L411.435027,263.506581 C411.52928,262.632245 412.314476,261.999862 413.188812,262.094115 C413.194346,262.094712 413.199877,262.095337 413.205404,262.095992 Z" id="Path-246" fill="#0B4651" fill-rule="nonzero"></path></g><g id="Group-29" transform="translate(0.000000, 224.000000)"><path d="M74.1172084,76.717278 C75.0085001,48.394753 70.5110283,28.7371199 60.6247932,17.7443785 C55.7064388,19.8613985 51.3867047,41.9081989 57.5534878,47.2308282 C61.6646765,50.7792478 63.9361537,61.4693869 64.3679194,79.3012455 L74.1172084,76.717278 Z" id="Path-261" fill="#1D9F90"></path><path d="M63.0240805,32.5077145 C66.6375234,51.5212299 68.0439774,63.1684994 67.2434426,67.4495231" id="Path-268" stroke="#0D6574" stroke-width="1.0029663"></path><path d="M65.6080163,68.51215 C75.218562,42.1264052 88.8285739,28.8139243 106.438052,28.5747072 C107.3518,46.9237489 103.023128,52.703963 89.3640574,56.3333503 C75.7049868,59.9627375 95.3984551,64.4501863 89.3640574,71.694778 C85.3411256,76.5245058 78.8505579,82.8656509 69.8923542,90.7182135 L63.0934493,79.5307939 L65.6080163,68.51215 Z" id="Path-260" fill="#2CB0A0"></path><path d="M69.3066905,85.2555772 C72.6778734,57.5390129 81.3157892,40.7815222 95.2204379,34.983105" id="Path-266" stroke="#0D6574" stroke-width="1.0029663"></path><path d="M62.5190236,85.3068593 C62.5190236,81.0500003 25.6059179,70.5915244 28.2818946,57.9487972 C30.9578714,45.30607 30.0408533,31.134547 9.20505865,40.4495773 C-11.630736,49.7646076 10.8692766,8.97691167 2.03694467,0.564032961 C29.5709308,1.86053824 73.2229304,32.8758257 67.870977,85.3068593 C62.5190236,88.1537688 62.5190236,89.5637183 62.5190236,85.3068593 Z" id="Path-259" fill="#33BAAA"></path><path d="M7.71811232,4.42922978 C43.1336592,28.6247077 61.3620786,57.7646547 62.4033707,91.8490707" id="Path-262" stroke="#0D6574" stroke-width="1.0029663"></path><rect id="Rectangle-45" fill="#7DD977" x="54.6382979" y="82.56" width="31.1134752" height="89.44"></rect><path d="M54.6382979,92.4977778 L85.751773,92.4977778 L85.751773,94.0266667 L54.6382979,94.0266667 L54.6382979,92.4977778 Z M54.6382979,97.0844444 L85.751773,97.0844444 L85.751773,98.6133333 L54.6382979,98.6133333 L54.6382979,97.0844444 Z" id="Combined-Shape" fill="#FFFFFF"></path><path d="M54.6382979,152.888889 L85.751773,152.888889 L85.751773,154.417778 L54.6382979,154.417778 L54.6382979,152.888889 Z M54.6382979,157.475556 L85.751773,157.475556 L85.751773,159.004444 L54.6382979,159.004444 L54.6382979,157.475556 Z" id="Combined-Shape-Copy-4" fill="#FFFFFF"></path><rect id="Rectangle-45-Copy-3" fill="#0B4651" opacity="0.200000003" x="74.3687943" y="82.56" width="11.3829787" height="89.44"></rect><path d="M35.8877276,57.9026342 C45.6691107,57.0718097 52.7396041,58.7673533 57.0992079,62.9892647 C55.8572215,59.9805088 56.6811747,55.2287569 59.5710677,48.7340091" id="Path-263" stroke="#0D6574" stroke-width="1.0029663"></path><path d="M16.1112342,23.4163691 C26.577944,24.2162817 33.6185587,26.2827677 37.2330783,29.6158272" id="Path-264" stroke="#0D6574" stroke-width="1.0029663"></path><path d="M42.1905259,35.6948916 C41.992411,28.1865596 42.5130009,24.1281557 43.7522955,23.5196798" id="Path-265" stroke="#0D6574" stroke-width="1.0029663"></path><path d="M78.2880772,52.6850349 C85.1515729,48.7641075 90.5507413,47.7838756 94.4855825,49.7443393" id="Path-267" stroke="#0D6574" stroke-width="1.0029663"></path></g></g></g></g></g></g></svg> 