<?xml version="1.0" encoding="UTF-8"?> <svg xmlns="http://www.w3.org/2000/svg" xmlns:xlink="http://www.w3.org/1999/xlink" width="380px" height="529px" viewBox="0 0 380 529"><!-- Generator: Sketch 52.5 (67469) - http://www.bohemiancoding.com/sketch --><title>white-logo-footer</title><desc>Created with Sketch.</desc><g id="Symbols" stroke="none" stroke-width="1" fill="none" fill-rule="evenodd" opacity="0.049999997"><g id="CTA" transform="translate(-210.000000, -185.000000)" fill="#FFFFFF" fill-rule="nonzero"><g id="footer" transform="translate(210.000000, 185.000000)"><g id="white-logo-footer"><g id="Asset-1-Copy"><path d="M294.390511,399.379575 L294.390511,399.379575 C310.383392,371.705139 314.715398,338.812977 306.432722,307.945177 C298.150046,277.077378 277.931806,250.764874 250.229589,234.801066 L250.229589,234.801066 C231.8895,224.241165 211.090901,218.692783 189.924822,218.71374 L167.773966,218.71374 C165.223033,218.717793 162.777089,219.729304 160.969147,221.527849 L160.969147,221.527849 C158.230308,224.28991 157.415224,228.423753 158.900816,232.017766 C160.386407,235.61178 163.883118,237.965458 167.773966,237.99039 L189.971751,237.99039 C245.872059,238.016291 291.169627,283.321869 291.152352,339.188883 C291.135077,395.055898 245.809498,440.333487 189.909186,440.324858 C134.008873,440.316228 88.6972925,395.024647 88.6972865,339.15763 L88.6972865,338.172692 L88.6972865,57.7935732 L88.6972865,56.8086348 L88.6972865,34.6240709 C88.7249054,32.0684425 87.7079239,29.6122013 85.8814998,27.8233061 L85.8814998,27.8233061 C84.0771221,26.0189301 81.6292163,25.005152 79.0766817,25.005152 C76.524147,25.005152 74.0762412,26.0189301 72.2718636,27.8233061 L72.2718636,27.8233061 C70.4454394,29.6122013 69.428458,32.0684425 69.4560768,34.6240709 L69.4560768,67.4553494 C69.4560769,71.9293106 67.0678245,76.0634213 63.1909513,78.3004019 C59.314078,80.5373825 54.5375732,80.5373825 50.6606999,78.3004019 C46.7838267,76.0634213 44.3955743,71.9293106 44.3955744,67.4553494 L44.3955744,34.6240709 C44.4114409,25.4509997 48.0749686,16.6603958 54.5793366,10.1882193 L54.5793366,10.1882193 C61.0627971,3.66936307 69.8798661,0.0037895348 79.0766817,0.0037895348 C88.2734973,0.0037895348 97.0905662,3.66936307 103.574027,10.1882193 L103.574027,10.1882193 C110.107123,16.6641586 113.788891,25.4748838 113.804719,34.6709727 L113.804719,56.8555366 L113.804719,57.840475 L113.804719,338.172692 L113.804719,339.15763 C113.804725,369.969206 132.378742,397.745992 160.86371,409.532685 C189.348678,421.319379 222.133341,414.794119 243.926686,393.000335 C265.72003,371.206552 272.228984,338.437404 260.417723,309.976668 C248.606461,281.515933 220.801685,262.970091 189.971751,262.989064 L167.773966,262.989064 C153.742235,262.987101 141.094279,254.535199 135.731037,241.576616 C130.367795,228.618034 133.346181,213.70647 143.27662,203.798959 L143.27662,203.798959 C149.749716,197.294091 158.54746,193.631954 167.727036,193.621263 L189.924822,193.621263 C215.517214,193.620471 240.656967,200.36679 262.80677,213.179324 L262.80677,213.179324 C296.24592,232.465682 320.643013,264.244989 330.624836,301.518177 C340.60666,338.791365 335.354518,378.501333 316.02514,411.902363 L316.02514,411.902363 L305.043571,431.08521 C302.67606,435.650085 304.300491,441.268388 308.739386,443.867656 C313.178282,446.466925 318.876496,445.136518 321.703643,440.84079 L332.732142,421.751746 L332.732142,421.751746 L332.732142,421.751746 C354.644601,383.852121 360.576499,338.799253 349.220219,296.524507 C337.863939,254.249761 310.151841,218.223928 272.192726,196.38847 L272.192726,196.38847 C234.325606,174.473119 189.273935,168.564348 147.031003,179.972831 C140.542915,181.200034 134.215355,177.184553 132.567218,170.794087 C130.919081,164.403621 134.516064,157.831593 140.789342,155.771489 C189.399399,142.625445 241.247099,149.376822 284.863766,174.532219 L284.863766,174.532219 C375.752572,226.88845 406.973245,342.961858 354.601419,433.805516 L354.601419,434.086927 L354.601419,434.086927 L343.525991,453.269774 C333.727281,469.373215 312.849041,474.700097 296.52574,465.261435 C280.202439,455.822774 274.417448,435.078348 283.502803,418.562422 L294.578231,399.379575 L294.390511,399.379575 Z M189.971751,459.60152 C196.892018,459.60152 202.502003,465.208163 202.502003,472.124308 C202.502003,479.040453 196.892018,484.647096 189.971751,484.647096 C164.46321,484.620962 139.40991,477.892303 117.324452,465.135936 L117.324452,465.135936 C72.2025461,439.212118 44.3748278,391.173064 44.3486446,339.15763 L44.3486446,339.15763 L44.3486446,127.067571 C44.3762635,124.511942 43.359282,122.055701 41.5328578,120.266806 L41.5328578,120.266806 C38.7858984,117.481426 34.624508,116.63645 31.0077383,118.129668 C27.3909685,119.622885 25.0395692,123.156726 25.0605051,127.067571 L25.0605051,339.15763 L25.0605051,339.15763 C25.0119682,368.065417 32.5527378,396.480096 46.9297825,421.564139 L46.9297825,421.564139 C92.4729058,500.37815 193.305802,527.397867 272.192726,481.92679 C276.05738,479.689809 280.822594,479.683294 284.693357,481.909699 C288.564121,484.136104 290.952373,488.257185 290.958483,492.72057 C290.964592,497.183955 288.587631,501.311551 284.722977,503.548532 C193.932146,555.828604 77.9284213,524.746203 25.4828731,434.086927 L25.4828731,434.086927 C8.78394242,405.2338 -0.00590815123,372.489673 2.69809398e-06,339.15763 L2.69809398e-06,339.15763 L2.69809398e-06,127.067571 C0.0158691832,117.8945 3.67939688,109.103896 10.1837649,102.631719 L10.1837649,102.631719 C16.6672254,96.112863 25.4842944,92.4472894 34.68111,92.4472894 C43.8779256,92.4472894 52.6949945,96.112863 59.178455,102.631719 L59.178455,102.631719 C65.7071684,109.110607 69.3881401,117.919426 69.409147,127.114473 L69.409147,339.15763 L69.409147,339.15763 C69.3430183,382.218603 92.3285554,422.025735 129.666984,443.514194 L129.666984,443.514194 C148.007073,454.074095 168.805672,459.622477 189.971751,459.60152 L189.971751,459.60152 Z" id="Shape"></path></g></g></g></g></g></svg> 